<?xml version="1.0" encoding="UTF-8" standalone="no"?>
<!DOCTYPE svg PUBLIC "-//W3C//DTD SVG 1.1//EN"
 "http://www.w3.org/Graphics/SVG/1.1/DTD/svg11.dtd">
<!-- Generated by graphviz version 2.40.1 (20161225.0304)
 -->
<!-- Title: twoDegreesRelationshipsDiagram Pages: 1 -->
<svg width="632pt" height="557pt"
 viewBox="0.00 0.00 632.00 557.20" xmlns="http://www.w3.org/2000/svg" xmlns:xlink="http://www.w3.org/1999/xlink">
<g id="graph0" class="graph" transform="scale(1 1) rotate(0) translate(4 553.2)">
<title>twoDegreesRelationshipsDiagram</title>
<polygon fill="#ffffff" stroke="transparent" points="-4,4 -4,-553.2 628,-553.2 628,4 -4,4"/>
<text text-anchor="middle" x="72.4936" y="-7.3" font-family="Helvetica,sans-Serif" font-size="11.00" fill="#000000">Generated by SchemaSpy</text>
<!-- affleurement -->
<g id="node1" class="node">
<title>affleurement</title>
<g id="a_node1"><a xlink:href="../../tables/affleurement.html" xlink:title="affleurement" target="_top">
<polygon fill="#ffffff" stroke="transparent" points="400,-120.7 400,-298.7 616,-298.7 616,-120.7 400,-120.7"/>
<polygon fill="#f5f5f5" stroke="transparent" points="402,-273.7 402,-296.7 614,-296.7 614,-273.7 402,-273.7"/>
<polygon fill="none" stroke="#000000" points="402,-273.7 402,-296.7 614,-296.7 614,-273.7 402,-273.7"/>
<text text-anchor="start" x="407" y="-282.8" font-family="Helvetica,sans-Serif" font-weight="bold" font-size="11.00" fill="#000000">affleurement</text>
<text text-anchor="start" x="579.0437" y="-281.8" font-family="Helvetica,sans-Serif" font-size="11.00" fill="#000000">[table]</text>
<polygon fill="none" stroke="#000000" points="402,-251.7 402,-273.7 495,-273.7 495,-251.7 402,-251.7"/>
<image xlink:href="../../images/primaryKeys.png" width="11px" height="12px" preserveAspectRatio="xMinYMin meet" x="407" y="-268.7"/>
<text text-anchor="start" x="422" y="-258.8" font-family="Helvetica,sans-Serif" font-size="11.00" fill="#000000">id</text>
<polygon fill="none" stroke="#000000" points="495,-251.7 495,-273.7 614,-273.7 614,-251.7 495,-251.7"/>
<text text-anchor="start" x="498" y="-259.4" font-family="Helvetica,sans-Serif" font-size="11.00" fill="#000000">serial[10]</text>
<polygon fill="none" stroke="#000000" points="402,-229.7 402,-251.7 495,-251.7 495,-229.7 402,-229.7"/>
<text text-anchor="start" x="422" y="-236.8" font-family="Helvetica,sans-Serif" font-size="11.00" fill="#000000">nom</text>
<polygon fill="none" stroke="#000000" points="495,-229.7 495,-251.7 614,-251.7 614,-229.7 495,-229.7"/>
<text text-anchor="start" x="498" y="-237.4" font-family="Helvetica,sans-Serif" font-size="11.00" fill="#000000">varchar[150]</text>
<polygon fill="none" stroke="#000000" points="402,-207.7 402,-229.7 495,-229.7 495,-207.7 402,-207.7"/>
<text text-anchor="start" x="422" y="-214.8" font-family="Helvetica,sans-Serif" font-size="11.00" fill="#000000">description</text>
<polygon fill="none" stroke="#000000" points="495,-207.7 495,-229.7 614,-229.7 614,-207.7 495,-207.7"/>
<text text-anchor="start" x="498" y="-215.4" font-family="Helvetica,sans-Serif" font-size="11.00" fill="#000000">text[2147483647]</text>
<polygon fill="none" stroke="#000000" points="402,-185.7 402,-207.7 495,-207.7 495,-185.7 402,-185.7"/>
<text text-anchor="start" x="422" y="-192.8" font-family="Helvetica,sans-Serif" font-size="11.00" fill="#000000">geom</text>
<polygon fill="none" stroke="#000000" points="495,-185.7 495,-207.7 614,-207.7 614,-185.7 495,-185.7"/>
<text text-anchor="start" x="497.9485" y="-193.4" font-family="Helvetica,sans-Serif" font-size="11.00" fill="#000000">geometry[2147483647]</text>
<polygon fill="#ffffff" stroke="transparent" points="402,-163.7 402,-185.7 495,-185.7 495,-163.7 402,-163.7"/>
<polygon fill="none" stroke="#000000" points="402,-163.7 402,-185.7 495,-185.7 495,-163.7 402,-163.7"/>
<image xlink:href="../../images/foreignKeys.png" width="11px" height="12px" preserveAspectRatio="xMinYMin meet" x="407" y="-180.7"/>
<text text-anchor="start" x="422" y="-170.8" font-family="Helvetica,sans-Serif" font-size="11.00" fill="#000000">eg_id</text>
<polygon fill="none" stroke="#000000" points="495,-163.7 495,-185.7 614,-185.7 614,-163.7 495,-163.7"/>
<text text-anchor="start" x="498" y="-171.4" font-family="Helvetica,sans-Serif" font-size="11.00" fill="#000000">int4[10]</text>
<polygon fill="none" stroke="#000000" points="402,-141.7 402,-163.7 495,-163.7 495,-141.7 402,-141.7"/>
<text text-anchor="start" x="422" y="-148.8" font-family="Helvetica,sans-Serif" font-size="11.00" fill="#000000">type</text>
<polygon fill="none" stroke="#000000" points="495,-141.7 495,-163.7 614,-163.7 614,-141.7 495,-141.7"/>
<text text-anchor="start" x="498" y="-149.4" font-family="Helvetica,sans-Serif" font-size="11.00" fill="#000000">varchar[50]</text>
<polygon fill="#ffffff" stroke="transparent" points="402,-122.7 402,-141.7 440,-141.7 440,-122.7 402,-122.7"/>
<polygon fill="none" stroke="#000000" points="402,-122.7 402,-141.7 440,-141.7 440,-122.7 402,-122.7"/>
<text text-anchor="start" x="405" y="-128.8" font-family="Helvetica,sans-Serif" font-size="11.00" fill="#000000">&lt; 1</text>
<polygon fill="#ffffff" stroke="transparent" points="440,-122.7 440,-141.7 495,-141.7 495,-122.7 440,-122.7"/>
<polygon fill="none" stroke="#000000" points="440,-122.7 440,-141.7 495,-141.7 495,-122.7 440,-122.7"/>
<text text-anchor="start" x="459.6105" y="-128.8" font-family="Helvetica,sans-Serif" font-size="11.00" fill="#000000">9 rows</text>
<polygon fill="#ffffff" stroke="transparent" points="495,-122.7 495,-141.7 614,-141.7 614,-122.7 495,-122.7"/>
<polygon fill="none" stroke="#000000" points="495,-122.7 495,-141.7 614,-141.7 614,-122.7 495,-122.7"/>
<text text-anchor="start" x="595.4053" y="-128.8" font-family="Helvetica,sans-Serif" font-size="11.00" fill="#000000">0 &gt;</text>
<polygon fill="none" stroke="#000000" stroke-width="2" points="401,-121.7 401,-297.7 615,-297.7 615,-121.7 401,-121.7"/>
</a>
</g>
</g>
<!-- entite_geol -->
<g id="node2" class="node">
<title>entite_geol</title>
<g id="a_node2"><a xlink:href="../../tables/entite_geol.html" xlink:title="entite_geol" target="_top">
<polygon fill="#ffffff" stroke="transparent" points="178,-204.2 178,-375.2 351,-375.2 351,-204.2 178,-204.2"/>
<polygon fill="#f5f5f5" stroke="transparent" points="178.5,-351.7 178.5,-374.7 351.5,-374.7 351.5,-351.7 178.5,-351.7"/>
<polygon fill="none" stroke="#000000" points="178.5,-351.7 178.5,-374.7 351.5,-374.7 351.5,-351.7 178.5,-351.7"/>
<text text-anchor="start" x="183.5" y="-360.8" font-family="Helvetica,sans-Serif" font-weight="bold" font-size="11.00" fill="#000000">entite_geol</text>
<text text-anchor="start" x="316.5437" y="-359.8" font-family="Helvetica,sans-Serif" font-size="11.00" fill="#000000">[table]</text>
<polygon fill="none" stroke="#000000" points="178.5,-329.7 178.5,-351.7 351.5,-351.7 351.5,-329.7 178.5,-329.7"/>
<image xlink:href="../../images/primaryKeys.png" width="11px" height="12px" preserveAspectRatio="xMinYMin meet" x="183.5" y="-346.7"/>
<text text-anchor="start" x="198.5" y="-336.8" font-family="Helvetica,sans-Serif" font-size="11.00" fill="#000000">id</text>
<polygon fill="#ffffff" stroke="transparent" points="178.5,-307.7 178.5,-329.7 351.5,-329.7 351.5,-307.7 178.5,-307.7"/>
<polygon fill="none" stroke="#000000" points="178.5,-307.7 178.5,-329.7 351.5,-329.7 351.5,-307.7 178.5,-307.7"/>
<text text-anchor="start" x="198.5" y="-314.8" font-family="Helvetica,sans-Serif" font-size="11.00" fill="#000000">geom</text>
<polygon fill="#ffffff" stroke="transparent" points="178.5,-285.7 178.5,-307.7 351.5,-307.7 351.5,-285.7 178.5,-285.7"/>
<polygon fill="none" stroke="#000000" points="178.5,-285.7 178.5,-307.7 351.5,-307.7 351.5,-285.7 178.5,-285.7"/>
<image xlink:href="../../images/foreignKeys.png" width="11px" height="12px" preserveAspectRatio="xMinYMin meet" x="183.5" y="-302.7"/>
<text text-anchor="start" x="198.5" y="-292.8" font-family="Helvetica,sans-Serif" font-size="11.00" fill="#000000">ere_geol_id</text>
<polygon fill="#ffffff" stroke="transparent" points="178.5,-263.7 178.5,-285.7 351.5,-285.7 351.5,-263.7 178.5,-263.7"/>
<polygon fill="none" stroke="#000000" points="178.5,-263.7 178.5,-285.7 351.5,-285.7 351.5,-263.7 178.5,-263.7"/>
<image xlink:href="../../images/foreignKeys.png" width="11px" height="12px" preserveAspectRatio="xMinYMin meet" x="183.5" y="-280.7"/>
<text text-anchor="start" x="198.5" y="-270.8" font-family="Helvetica,sans-Serif" font-size="11.00" fill="#000000">site_id</text>
<polygon fill="#ffffff" stroke="transparent" points="178.5,-241.7 178.5,-263.7 351.5,-263.7 351.5,-241.7 178.5,-241.7"/>
<polygon fill="none" stroke="#000000" points="178.5,-241.7 178.5,-263.7 351.5,-263.7 351.5,-241.7 178.5,-241.7"/>
<image xlink:href="../../images/foreignKeys.png" width="11px" height="12px" preserveAspectRatio="xMinYMin meet" x="183.5" y="-258.7"/>
<text text-anchor="start" x="198.5" y="-248.8" font-family="Helvetica,sans-Serif" font-size="11.00" fill="#000000">s_fgeol_id</text>
<polygon fill="none" stroke="#000000" points="178.5,-222.7 178.5,-241.7 351.5,-241.7 351.5,-222.7 178.5,-222.7"/>
<text text-anchor="start" x="181.5" y="-228.8" font-family="Helvetica,sans-Serif" font-size="11.00" fill="#000000">...</text>
<polygon fill="#ffffff" stroke="transparent" points="178.5,-203.7 178.5,-222.7 242.5,-222.7 242.5,-203.7 178.5,-203.7"/>
<polygon fill="none" stroke="#000000" points="178.5,-203.7 178.5,-222.7 242.5,-222.7 242.5,-203.7 178.5,-203.7"/>
<text text-anchor="start" x="181.5" y="-209.8" font-family="Helvetica,sans-Serif" font-size="11.00" fill="#000000">&lt; 3</text>
<polygon fill="#ffffff" stroke="transparent" points="242.5,-203.7 242.5,-222.7 308.5,-222.7 308.5,-203.7 242.5,-203.7"/>
<polygon fill="none" stroke="#000000" points="242.5,-203.7 242.5,-222.7 308.5,-222.7 308.5,-203.7 242.5,-203.7"/>
<text text-anchor="start" x="266.9956" y="-209.8" font-family="Helvetica,sans-Serif" font-size="11.00" fill="#000000">24 rows</text>
<polygon fill="#ffffff" stroke="transparent" points="308.5,-203.7 308.5,-222.7 351.5,-222.7 351.5,-203.7 308.5,-203.7"/>
<polygon fill="none" stroke="#000000" points="308.5,-203.7 308.5,-222.7 351.5,-222.7 351.5,-203.7 308.5,-203.7"/>
<text text-anchor="start" x="332.9053" y="-209.8" font-family="Helvetica,sans-Serif" font-size="11.00" fill="#000000">5 &gt;</text>
</a>
</g>
</g>
<!-- affleurement&#45;&gt;entite_geol -->
<g id="edge1" class="edge">
<title>affleurement:w&#45;&gt;entite_geol:e</title>
<path fill="none" stroke="#000000" d="M387.6703,-177.3075C339.2854,-198.4262 422.8928,-340.7 351.5,-340.7"/>
<polygon fill="#000000" stroke="#000000" points="394.1292,-176.1322 402.6445,-178.2418 398.0646,-175.4161 402,-174.7 402,-174.7 402,-174.7 398.0646,-175.4161 401.3555,-171.1582 394.1292,-176.1322 394.1292,-176.1322"/>
<ellipse fill="none" stroke="#000000" cx="390.9809" cy="-176.7051" rx="3.2" ry="3.2"/>
</g>
<!-- echelle_geol -->
<g id="node5" class="node">
<title>echelle_geol</title>
<g id="a_node5"><a xlink:href="../../tables/echelle_geol.html" xlink:title="echelle_geol" target="_top">
<polygon fill="#ffffff" stroke="transparent" points="16.5,-300.2 16.5,-361.2 120.5,-361.2 120.5,-300.2 16.5,-300.2"/>
<polygon fill="#f5f5f5" stroke="transparent" points="16.5,-337.7 16.5,-360.7 120.5,-360.7 120.5,-337.7 16.5,-337.7"/>
<polygon fill="none" stroke="#000000" points="16.5,-337.7 16.5,-360.7 120.5,-360.7 120.5,-337.7 16.5,-337.7"/>
<text text-anchor="start" x="21.1291" y="-346.8" font-family="Helvetica,sans-Serif" font-weight="bold" font-size="11.00" fill="#000000">echelle_geol</text>
<text text-anchor="start" x="86.0219" y="-345.8" font-family="Helvetica,sans-Serif" font-size="11.00" fill="#000000">[table]</text>
<polygon fill="none" stroke="#000000" points="16.5,-318.7 16.5,-337.7 120.5,-337.7 120.5,-318.7 16.5,-318.7"/>
<text text-anchor="start" x="19.5" y="-324.8" font-family="Helvetica,sans-Serif" font-size="11.00" fill="#000000">...</text>
<polygon fill="#ffffff" stroke="transparent" points="16.5,-299.7 16.5,-318.7 46.5,-318.7 46.5,-299.7 16.5,-299.7"/>
<polygon fill="none" stroke="#000000" points="16.5,-299.7 16.5,-318.7 46.5,-318.7 46.5,-299.7 16.5,-299.7"/>
<text text-anchor="start" x="19.5" y="-305.8" font-family="Helvetica,sans-Serif" font-size="11.00" fill="#000000">&lt; 1</text>
<polygon fill="#ffffff" stroke="transparent" points="46.5,-299.7 46.5,-318.7 94.5,-318.7 94.5,-299.7 46.5,-299.7"/>
<polygon fill="none" stroke="#000000" points="46.5,-299.7 46.5,-318.7 94.5,-318.7 94.5,-299.7 46.5,-299.7"/>
<text text-anchor="start" x="52.9956" y="-305.8" font-family="Helvetica,sans-Serif" font-size="11.00" fill="#000000">74 rows</text>
<polygon fill="#ffffff" stroke="transparent" points="94.5,-299.7 94.5,-318.7 120.5,-318.7 120.5,-299.7 94.5,-299.7"/>
<polygon fill="none" stroke="#000000" points="94.5,-299.7 94.5,-318.7 120.5,-318.7 120.5,-299.7 94.5,-299.7"/>
<text text-anchor="start" x="101.9053" y="-305.8" font-family="Helvetica,sans-Serif" font-size="11.00" fill="#000000">2 &gt;</text>
</a>
</g>
</g>
<!-- entite_geol&#45;&gt;echelle_geol -->
<g id="edge4" class="edge">
<title>entite_geol:w&#45;&gt;echelle_geol:e</title>
<path fill="none" stroke="#000000" d="M164.3287,-299.7857C148.3175,-307.6268 144.02,-327.7 120.5,-327.7"/>
<polygon fill="#000000" stroke="#000000" points="170.6832,-298.4021 179.266,-300.2176 174.5916,-297.5511 178.5,-296.7 178.5,-296.7 178.5,-296.7 174.5916,-297.5511 177.734,-293.1824 170.6832,-298.4021 170.6832,-298.4021"/>
<ellipse fill="none" stroke="#000000" cx="167.5564" cy="-299.083" rx="3.2" ry="3.2"/>
</g>
<!-- infoterre.s_fgeol -->
<g id="node6" class="node">
<title>infoterre.s_fgeol</title>
<g id="a_node6"><a xlink:href="../../../infoterre/tables/s_fgeol.html" xlink:title="infoterre.s_fgeol" target="_top">
<polygon fill="#ffffff" stroke="transparent" points="8,-218.2 8,-279.2 129,-279.2 129,-218.2 8,-218.2"/>
<polygon fill="#f5f5f5" stroke="transparent" points="8.5,-255.7 8.5,-278.7 129.5,-278.7 129.5,-255.7 8.5,-255.7"/>
<polygon fill="none" stroke="#000000" points="8.5,-255.7 8.5,-278.7 129.5,-278.7 129.5,-255.7 8.5,-255.7"/>
<text text-anchor="start" x="13.0738" y="-264.8" font-family="Helvetica,sans-Serif" font-weight="bold" font-size="11.00" fill="#000000">infoterre.s_fgeol</text>
<text text-anchor="start" x="95.0219" y="-263.8" font-family="Helvetica,sans-Serif" font-size="11.00" fill="#000000">[table]</text>
<polygon fill="none" stroke="#000000" points="8.5,-236.7 8.5,-255.7 129.5,-255.7 129.5,-236.7 8.5,-236.7"/>
<text text-anchor="start" x="11.5" y="-242.8" font-family="Helvetica,sans-Serif" font-size="11.00" fill="#000000">...</text>
<polygon fill="#ffffff" stroke="transparent" points="8.5,-217.7 8.5,-236.7 45.5,-236.7 45.5,-217.7 8.5,-217.7"/>
<polygon fill="none" stroke="#000000" points="8.5,-217.7 8.5,-236.7 45.5,-236.7 45.5,-217.7 8.5,-217.7"/>
<text text-anchor="start" x="11.5" y="-223.8" font-family="Helvetica,sans-Serif" font-size="11.00" fill="#000000"> &#160;</text>
<polygon fill="#ffffff" stroke="transparent" points="45.5,-217.7 45.5,-236.7 95.5,-236.7 95.5,-217.7 45.5,-217.7"/>
<polygon fill="none" stroke="#000000" points="45.5,-217.7 45.5,-236.7 95.5,-236.7 95.5,-217.7 45.5,-217.7"/>
<text text-anchor="start" x="60.1105" y="-223.8" font-family="Helvetica,sans-Serif" font-size="11.00" fill="#000000">0 rows</text>
<polygon fill="#ffffff" stroke="transparent" points="95.5,-217.7 95.5,-236.7 129.5,-236.7 129.5,-217.7 95.5,-217.7"/>
<polygon fill="none" stroke="#000000" points="95.5,-217.7 95.5,-236.7 129.5,-236.7 129.5,-217.7 95.5,-217.7"/>
<text text-anchor="start" x="110.9053" y="-223.8" font-family="Helvetica,sans-Serif" font-size="11.00" fill="#000000">1 &gt;</text>
</a>
</g>
</g>
<!-- entite_geol&#45;&gt;infoterre.s_fgeol -->
<g id="edge5" class="edge">
<title>entite_geol:w&#45;&gt;infoterre.s_fgeol:e</title>
<path fill="none" stroke="#000000" d="M163.9302,-251.4807C152.6445,-249.4751 145.6554,-245.7 129.5,-245.7"/>
<polygon fill="#000000" stroke="#000000" points="170.5279,-252.0328 178.1998,-256.2875 174.5139,-252.3664 178.5,-252.7 178.5,-252.7 178.5,-252.7 174.5139,-252.3664 178.8002,-249.1125 170.5279,-252.0328 170.5279,-252.0328"/>
<ellipse fill="none" stroke="#000000" cx="167.339" cy="-251.7659" rx="3.2" ry="3.2"/>
</g>
<!-- site -->
<g id="node7" class="node">
<title>site</title>
<g id="a_node7"><a xlink:href="../../tables/site.html" xlink:title="site" target="_top">
<polygon fill="#ffffff" stroke="transparent" points="25.5,-122.2 25.5,-183.2 111.5,-183.2 111.5,-122.2 25.5,-122.2"/>
<polygon fill="#f5f5f5" stroke="transparent" points="25.5,-159.7 25.5,-182.7 111.5,-182.7 111.5,-159.7 25.5,-159.7"/>
<polygon fill="none" stroke="#000000" points="25.5,-159.7 25.5,-182.7 111.5,-182.7 111.5,-159.7 25.5,-159.7"/>
<text text-anchor="start" x="30.5" y="-168.8" font-family="Helvetica,sans-Serif" font-weight="bold" font-size="11.00" fill="#000000">site</text>
<text text-anchor="start" x="76.5437" y="-167.8" font-family="Helvetica,sans-Serif" font-size="11.00" fill="#000000">[table]</text>
<polygon fill="none" stroke="#000000" points="25.5,-140.7 25.5,-159.7 111.5,-159.7 111.5,-140.7 25.5,-140.7"/>
<text text-anchor="start" x="28.5" y="-146.8" font-family="Helvetica,sans-Serif" font-size="11.00" fill="#000000">...</text>
<polygon fill="#ffffff" stroke="transparent" points="25.5,-121.7 25.5,-140.7 46.5,-140.7 46.5,-121.7 25.5,-121.7"/>
<polygon fill="none" stroke="#000000" points="25.5,-121.7 25.5,-140.7 46.5,-140.7 46.5,-121.7 25.5,-121.7"/>
<text text-anchor="start" x="28.2027" y="-127.8" font-family="Helvetica,sans-Serif" font-size="11.00" fill="#000000">&lt; 1</text>
<polygon fill="#ffffff" stroke="transparent" points="46.5,-121.7 46.5,-140.7 90.5,-140.7 90.5,-121.7 46.5,-121.7"/>
<polygon fill="none" stroke="#000000" points="46.5,-121.7 46.5,-140.7 90.5,-140.7 90.5,-121.7 46.5,-121.7"/>
<text text-anchor="start" x="49.2478" y="-127.8" font-family="Helvetica,sans-Serif" font-size="11.00" fill="#000000">10 rows</text>
<polygon fill="#ffffff" stroke="transparent" points="90.5,-121.7 90.5,-140.7 111.5,-140.7 111.5,-121.7 90.5,-121.7"/>
<polygon fill="none" stroke="#000000" points="90.5,-121.7 90.5,-140.7 111.5,-140.7 111.5,-121.7 90.5,-121.7"/>
<text text-anchor="start" x="93.2027" y="-127.8" font-family="Helvetica,sans-Serif" font-size="11.00" fill="#000000">5 &gt;</text>
</a>
</g>
</g>
<!-- entite_geol&#45;&gt;site -->
<g id="edge6" class="edge">
<title>entite_geol:w&#45;&gt;site:e</title>
<path fill="none" stroke="#000000" d="M164.2903,-271.8543C125.095,-253.248 168.8697,-149.7 111.5,-149.7"/>
<polygon fill="#000000" stroke="#000000" points="170.6557,-273.1291 177.7931,-278.2299 174.5779,-273.9145 178.5,-274.7 178.5,-274.7 178.5,-274.7 174.5779,-273.9145 179.2069,-271.1701 170.6557,-273.1291 170.6557,-273.1291"/>
<ellipse fill="none" stroke="#000000" cx="167.518" cy="-272.5007" rx="3.2" ry="3.2"/>
</g>
<!-- commentaire_eg -->
<g id="node3" class="node">
<title>commentaire_eg</title>
<g id="a_node3"><a xlink:href="../../tables/commentaire_eg.html" xlink:title="commentaire_eg" target="_top">
<polygon fill="#ffffff" stroke="transparent" points="446,-484.2 446,-545.2 570,-545.2 570,-484.2 446,-484.2"/>
<polygon fill="#f5f5f5" stroke="transparent" points="446,-521.7 446,-544.7 570,-544.7 570,-521.7 446,-521.7"/>
<polygon fill="none" stroke="#000000" points="446,-521.7 446,-544.7 570,-544.7 570,-521.7 446,-521.7"/>
<text text-anchor="start" x="450.5487" y="-530.8" font-family="Helvetica,sans-Serif" font-weight="bold" font-size="11.00" fill="#000000">commentaire_eg</text>
<text text-anchor="start" x="535.5219" y="-529.8" font-family="Helvetica,sans-Serif" font-size="11.00" fill="#000000">[table]</text>
<polygon fill="none" stroke="#000000" points="446,-502.7 446,-521.7 570,-521.7 570,-502.7 446,-502.7"/>
<text text-anchor="start" x="449" y="-508.8" font-family="Helvetica,sans-Serif" font-size="11.00" fill="#000000">...</text>
<polygon fill="#ffffff" stroke="transparent" points="446,-483.7 446,-502.7 496,-502.7 496,-483.7 446,-483.7"/>
<polygon fill="none" stroke="#000000" points="446,-483.7 446,-502.7 496,-502.7 496,-483.7 446,-483.7"/>
<text text-anchor="start" x="449" y="-489.8" font-family="Helvetica,sans-Serif" font-size="11.00" fill="#000000">&lt; 1</text>
<polygon fill="#ffffff" stroke="transparent" points="496,-483.7 496,-502.7 543,-502.7 543,-483.7 496,-483.7"/>
<polygon fill="none" stroke="#000000" points="496,-483.7 496,-502.7 543,-502.7 543,-483.7 496,-483.7"/>
<text text-anchor="start" x="513.1105" y="-489.8" font-family="Helvetica,sans-Serif" font-size="11.00" fill="#000000">1 row</text>
<polygon fill="#ffffff" stroke="transparent" points="543,-483.7 543,-502.7 570,-502.7 570,-483.7 543,-483.7"/>
<polygon fill="none" stroke="#000000" points="543,-483.7 543,-502.7 570,-502.7 570,-483.7 543,-483.7"/>
<text text-anchor="start" x="560.8862" y="-489.8" font-family="Helvetica,sans-Serif" font-size="11.00" fill="#000000"> &#160;</text>
</a>
</g>
</g>
<!-- commentaire_eg&#45;&gt;entite_geol -->
<g id="edge2" class="edge">
<title>commentaire_eg:w&#45;&gt;entite_geol:e</title>
<path fill="none" stroke="#000000" d="M431.5937,-510.2303C413.5182,-506.0289 405.9819,-493.0146 392,-473.7 355.7667,-423.6473 413.291,-340.7 351.5,-340.7"/>
<polygon fill="#000000" stroke="#000000" points="438.0413,-510.888 445.6346,-515.2814 442.0207,-511.294 446,-511.7 446,-511.7 446,-511.7 442.0207,-511.294 446.3654,-508.1186 438.0413,-510.888 438.0413,-510.888"/>
<ellipse fill="none" stroke="#000000" cx="434.8578" cy="-510.5632" rx="3.2" ry="3.2"/>
</g>
<!-- complement_eg -->
<g id="node4" class="node">
<title>complement_eg</title>
<g id="a_node4"><a xlink:href="../../tables/complement_eg.html" xlink:title="complement_eg" target="_top">
<polygon fill="#ffffff" stroke="transparent" points="447.5,-402.2 447.5,-463.2 568.5,-463.2 568.5,-402.2 447.5,-402.2"/>
<polygon fill="#f5f5f5" stroke="transparent" points="448,-439.7 448,-462.7 569,-462.7 569,-439.7 448,-439.7"/>
<polygon fill="none" stroke="#000000" points="448,-439.7 448,-462.7 569,-462.7 569,-439.7 448,-439.7"/>
<text text-anchor="start" x="452.8796" y="-448.8" font-family="Helvetica,sans-Serif" font-weight="bold" font-size="11.00" fill="#000000">complement_eg</text>
<text text-anchor="start" x="534.5219" y="-447.8" font-family="Helvetica,sans-Serif" font-size="11.00" fill="#000000">[table]</text>
<polygon fill="none" stroke="#000000" points="448,-420.7 448,-439.7 569,-439.7 569,-420.7 448,-420.7"/>
<text text-anchor="start" x="451" y="-426.8" font-family="Helvetica,sans-Serif" font-size="11.00" fill="#000000">...</text>
<polygon fill="#ffffff" stroke="transparent" points="448,-401.7 448,-420.7 494,-420.7 494,-401.7 448,-401.7"/>
<polygon fill="none" stroke="#000000" points="448,-401.7 448,-420.7 494,-420.7 494,-401.7 448,-401.7"/>
<text text-anchor="start" x="451" y="-407.8" font-family="Helvetica,sans-Serif" font-size="11.00" fill="#000000">&lt; 1</text>
<polygon fill="#ffffff" stroke="transparent" points="494,-401.7 494,-420.7 544,-420.7 544,-401.7 494,-401.7"/>
<polygon fill="none" stroke="#000000" points="494,-401.7 494,-420.7 544,-420.7 544,-401.7 494,-401.7"/>
<text text-anchor="start" x="508.6105" y="-407.8" font-family="Helvetica,sans-Serif" font-size="11.00" fill="#000000">2 rows</text>
<polygon fill="#ffffff" stroke="transparent" points="544,-401.7 544,-420.7 569,-420.7 569,-401.7 544,-401.7"/>
<polygon fill="none" stroke="#000000" points="544,-401.7 544,-420.7 569,-420.7 569,-401.7 544,-401.7"/>
<text text-anchor="start" x="559.8862" y="-407.8" font-family="Helvetica,sans-Serif" font-size="11.00" fill="#000000"> &#160;</text>
</a>
</g>
</g>
<!-- complement_eg&#45;&gt;entite_geol -->
<g id="edge3" class="edge">
<title>complement_eg:w&#45;&gt;entite_geol:e</title>
<path fill="none" stroke="#000000" d="M433.5525,-427.9462C415.831,-423.0188 409.9159,-408.3211 392,-391.7 370.7808,-372.0144 380.4444,-340.7 351.5,-340.7"/>
<polygon fill="#000000" stroke="#000000" points="440.0583,-428.7359 447.5661,-433.2738 444.0292,-429.2179 448,-429.7 448,-429.7 448,-429.7 444.0292,-429.2179 448.4339,-426.1262 440.0583,-428.7359 440.0583,-428.7359"/>
<ellipse fill="none" stroke="#000000" cx="436.8816" cy="-428.3502" rx="3.2" ry="3.2"/>
</g>
<!-- entite_geol_qcm -->
<g id="node8" class="node">
<title>entite_geol_qcm</title>
<g id="a_node8"><a xlink:href="../../tables/entite_geol_qcm.html" xlink:title="entite_geol_qcm" target="_top">
<polygon fill="#ffffff" stroke="transparent" points="446.5,-320.2 446.5,-381.2 569.5,-381.2 569.5,-320.2 446.5,-320.2"/>
<polygon fill="#f5f5f5" stroke="transparent" points="447,-357.7 447,-380.7 570,-380.7 570,-357.7 447,-357.7"/>
<polygon fill="none" stroke="#000000" points="447,-357.7 447,-380.7 570,-380.7 570,-357.7 447,-357.7"/>
<text text-anchor="start" x="451.6542" y="-366.8" font-family="Helvetica,sans-Serif" font-weight="bold" font-size="11.00" fill="#000000">entite_geol_qcm</text>
<text text-anchor="start" x="535.5219" y="-365.8" font-family="Helvetica,sans-Serif" font-size="11.00" fill="#000000">[table]</text>
<polygon fill="none" stroke="#000000" points="447,-338.7 447,-357.7 570,-357.7 570,-338.7 447,-338.7"/>
<text text-anchor="start" x="450" y="-344.8" font-family="Helvetica,sans-Serif" font-size="11.00" fill="#000000">...</text>
<polygon fill="#ffffff" stroke="transparent" points="447,-319.7 447,-338.7 491,-338.7 491,-319.7 447,-319.7"/>
<polygon fill="none" stroke="#000000" points="447,-319.7 447,-338.7 491,-338.7 491,-319.7 447,-319.7"/>
<text text-anchor="start" x="450" y="-325.8" font-family="Helvetica,sans-Serif" font-size="11.00" fill="#000000">&lt; 2</text>
<polygon fill="#ffffff" stroke="transparent" points="491,-319.7 491,-338.7 546,-338.7 546,-319.7 491,-319.7"/>
<polygon fill="none" stroke="#000000" points="491,-319.7 491,-338.7 546,-338.7 546,-319.7 491,-319.7"/>
<text text-anchor="start" x="504.4956" y="-325.8" font-family="Helvetica,sans-Serif" font-size="11.00" fill="#000000">34 rows</text>
<polygon fill="#ffffff" stroke="transparent" points="546,-319.7 546,-338.7 570,-338.7 570,-319.7 546,-319.7"/>
<polygon fill="none" stroke="#000000" points="546,-319.7 546,-338.7 570,-338.7 570,-319.7 546,-319.7"/>
<text text-anchor="start" x="560.8862" y="-325.8" font-family="Helvetica,sans-Serif" font-size="11.00" fill="#000000"> &#160;</text>
</a>
</g>
</g>
<!-- entite_geol_qcm&#45;&gt;entite_geol -->
<g id="edge7" class="edge">
<title>entite_geol_qcm:w&#45;&gt;entite_geol:e</title>
<path fill="none" stroke="#000000" d="M432.4231,-347.3992C401.3431,-346.0594 388.7385,-340.7 351.5,-340.7"/>
<polygon fill="#000000" stroke="#000000" points="439.0017,-347.5349 446.9257,-351.2992 443.0009,-347.6175 447,-347.7 447,-347.7 447,-347.7 443.0009,-347.6175 447.0743,-344.1008 439.0017,-347.5349 439.0017,-347.5349"/>
<ellipse fill="none" stroke="#000000" cx="435.8024" cy="-347.4689" rx="3.2" ry="3.2"/>
</g>
<!-- photo -->
<g id="node9" class="node">
<title>photo</title>
<g id="a_node9"><a xlink:href="../../tables/photo.html" xlink:title="photo" target="_top">
<polygon fill="#ffffff" stroke="transparent" points="469.5,-38.2 469.5,-99.2 546.5,-99.2 546.5,-38.2 469.5,-38.2"/>
<polygon fill="#f5f5f5" stroke="transparent" points="470,-75.7 470,-98.7 547,-98.7 547,-75.7 470,-75.7"/>
<polygon fill="none" stroke="#000000" points="470,-75.7 470,-98.7 547,-98.7 547,-75.7 470,-75.7"/>
<text text-anchor="start" x="475" y="-84.8" font-family="Helvetica,sans-Serif" font-weight="bold" font-size="11.00" fill="#000000">photo</text>
<text text-anchor="start" x="512.0437" y="-83.8" font-family="Helvetica,sans-Serif" font-size="11.00" fill="#000000">[table]</text>
<polygon fill="none" stroke="#000000" points="470,-56.7 470,-75.7 547,-75.7 547,-56.7 470,-56.7"/>
<text text-anchor="start" x="473" y="-62.8" font-family="Helvetica,sans-Serif" font-size="11.00" fill="#000000">...</text>
<polygon fill="#ffffff" stroke="transparent" points="470,-37.7 470,-56.7 491,-56.7 491,-37.7 470,-37.7"/>
<polygon fill="none" stroke="#000000" points="470,-37.7 470,-56.7 491,-56.7 491,-37.7 470,-37.7"/>
<text text-anchor="start" x="472.7027" y="-43.8" font-family="Helvetica,sans-Serif" font-size="11.00" fill="#000000">&lt; 2</text>
<polygon fill="#ffffff" stroke="transparent" points="491,-37.7 491,-56.7 535,-56.7 535,-37.7 491,-37.7"/>
<polygon fill="none" stroke="#000000" points="491,-37.7 491,-56.7 535,-56.7 535,-37.7 491,-37.7"/>
<text text-anchor="start" x="493.7478" y="-43.8" font-family="Helvetica,sans-Serif" font-size="11.00" fill="#000000">10 rows</text>
<polygon fill="#ffffff" stroke="transparent" points="535,-37.7 535,-56.7 547,-56.7 547,-37.7 535,-37.7"/>
<polygon fill="none" stroke="#000000" points="535,-37.7 535,-56.7 547,-56.7 547,-37.7 535,-37.7"/>
<text text-anchor="start" x="537.9431" y="-43.8" font-family="Helvetica,sans-Serif" font-size="11.00" fill="#000000"> &#160;</text>
</a>
</g>
</g>
<!-- photo&#45;&gt;entite_geol -->
<g id="edge8" class="edge">
<title>photo:w&#45;&gt;entite_geol:e</title>
<path fill="none" stroke="#000000" d="M455.3664,-66.3308C426.018,-69.125 411.9248,-81.5159 392,-109.7 361.9151,-152.2559 403.6163,-340.7 351.5,-340.7"/>
<polygon fill="#000000" stroke="#000000" points="462.0074,-66.0446 470.1551,-69.2967 466.0037,-65.8723 470,-65.7 470,-65.7 470,-65.7 466.0037,-65.8723 469.8449,-62.1033 462.0074,-66.0446 462.0074,-66.0446"/>
<ellipse fill="none" stroke="#000000" cx="458.8104" cy="-66.1824" rx="3.2" ry="3.2"/>
</g>
<!-- photo&#45;&gt;site -->
<g id="edge9" class="edge">
<title>photo:w&#45;&gt;site:e</title>
<path fill="none" stroke="#000000" d="M455.4942,-65.9263C304.3407,-70.709 270.1945,-149.7 111.5,-149.7"/>
<polygon fill="#000000" stroke="#000000" points="462.001,-65.8248 470.0562,-69.2996 466.0005,-65.7624 470,-65.7 470,-65.7 470,-65.7 466.0005,-65.7624 469.9438,-62.1004 462.001,-65.8248 462.001,-65.8248"/>
<ellipse fill="none" stroke="#000000" cx="458.8014" cy="-65.8748" rx="3.2" ry="3.2"/>
</g>
</g>
</svg>
