<?xml version="1.0" encoding="UTF-8" standalone="no"?>
<!DOCTYPE svg PUBLIC "-//W3C//DTD SVG 1.1//EN"
 "http://www.w3.org/Graphics/SVG/1.1/DTD/svg11.dtd">
<!-- Generated by graphviz version 2.40.1 (20161225.0304)
 -->
<!-- Title: oneDegreeRelationshipsDiagram Pages: 1 -->
<svg width="462pt" height="311pt"
 viewBox="0.00 0.00 462.00 310.70" xmlns="http://www.w3.org/2000/svg" xmlns:xlink="http://www.w3.org/1999/xlink">
<g id="graph0" class="graph" transform="scale(1 1) rotate(0) translate(4 306.7)">
<title>oneDegreeRelationshipsDiagram</title>
<polygon fill="#ffffff" stroke="transparent" points="-4,4 -4,-306.7 458,-306.7 458,4 -4,4"/>
<text text-anchor="middle" x="72.4936" y="-7.3" font-family="Helvetica,sans-Serif" font-size="11.00" fill="#000000">Generated by SchemaSpy</text>
<!-- affleurement -->
<g id="node1" class="node">
<title>affleurement</title>
<g id="a_node1"><a xlink:href="../../tables/affleurement.html" xlink:title="affleurement" target="_top">
<polygon fill="#ffffff" stroke="transparent" points="230,-120.7 230,-298.7 446,-298.7 446,-120.7 230,-120.7"/>
<polygon fill="#f5f5f5" stroke="transparent" points="232,-273.7 232,-296.7 444,-296.7 444,-273.7 232,-273.7"/>
<polygon fill="none" stroke="#000000" points="232,-273.7 232,-296.7 444,-296.7 444,-273.7 232,-273.7"/>
<text text-anchor="start" x="237" y="-282.8" font-family="Helvetica,sans-Serif" font-weight="bold" font-size="11.00" fill="#000000">affleurement</text>
<text text-anchor="start" x="409.0437" y="-281.8" font-family="Helvetica,sans-Serif" font-size="11.00" fill="#000000">[table]</text>
<polygon fill="none" stroke="#000000" points="232,-251.7 232,-273.7 325,-273.7 325,-251.7 232,-251.7"/>
<image xlink:href="../../images/primaryKeys.png" width="11px" height="12px" preserveAspectRatio="xMinYMin meet" x="237" y="-268.7"/>
<text text-anchor="start" x="252" y="-258.8" font-family="Helvetica,sans-Serif" font-size="11.00" fill="#000000">id</text>
<polygon fill="none" stroke="#000000" points="325,-251.7 325,-273.7 444,-273.7 444,-251.7 325,-251.7"/>
<text text-anchor="start" x="328" y="-259.4" font-family="Helvetica,sans-Serif" font-size="11.00" fill="#000000">serial[10]</text>
<polygon fill="none" stroke="#000000" points="232,-229.7 232,-251.7 325,-251.7 325,-229.7 232,-229.7"/>
<text text-anchor="start" x="252" y="-236.8" font-family="Helvetica,sans-Serif" font-size="11.00" fill="#000000">nom</text>
<polygon fill="none" stroke="#000000" points="325,-229.7 325,-251.7 444,-251.7 444,-229.7 325,-229.7"/>
<text text-anchor="start" x="328" y="-237.4" font-family="Helvetica,sans-Serif" font-size="11.00" fill="#000000">varchar[150]</text>
<polygon fill="none" stroke="#000000" points="232,-207.7 232,-229.7 325,-229.7 325,-207.7 232,-207.7"/>
<text text-anchor="start" x="252" y="-214.8" font-family="Helvetica,sans-Serif" font-size="11.00" fill="#000000">description</text>
<polygon fill="none" stroke="#000000" points="325,-207.7 325,-229.7 444,-229.7 444,-207.7 325,-207.7"/>
<text text-anchor="start" x="328" y="-215.4" font-family="Helvetica,sans-Serif" font-size="11.00" fill="#000000">text[2147483647]</text>
<polygon fill="none" stroke="#000000" points="232,-185.7 232,-207.7 325,-207.7 325,-185.7 232,-185.7"/>
<text text-anchor="start" x="252" y="-192.8" font-family="Helvetica,sans-Serif" font-size="11.00" fill="#000000">geom</text>
<polygon fill="none" stroke="#000000" points="325,-185.7 325,-207.7 444,-207.7 444,-185.7 325,-185.7"/>
<text text-anchor="start" x="327.9485" y="-193.4" font-family="Helvetica,sans-Serif" font-size="11.00" fill="#000000">geometry[2147483647]</text>
<polygon fill="#ffffff" stroke="transparent" points="232,-163.7 232,-185.7 325,-185.7 325,-163.7 232,-163.7"/>
<polygon fill="none" stroke="#000000" points="232,-163.7 232,-185.7 325,-185.7 325,-163.7 232,-163.7"/>
<image xlink:href="../../images/foreignKeys.png" width="11px" height="12px" preserveAspectRatio="xMinYMin meet" x="237" y="-180.7"/>
<text text-anchor="start" x="252" y="-170.8" font-family="Helvetica,sans-Serif" font-size="11.00" fill="#000000">eg_id</text>
<polygon fill="none" stroke="#000000" points="325,-163.7 325,-185.7 444,-185.7 444,-163.7 325,-163.7"/>
<text text-anchor="start" x="328" y="-171.4" font-family="Helvetica,sans-Serif" font-size="11.00" fill="#000000">int4[10]</text>
<polygon fill="none" stroke="#000000" points="232,-141.7 232,-163.7 325,-163.7 325,-141.7 232,-141.7"/>
<text text-anchor="start" x="252" y="-148.8" font-family="Helvetica,sans-Serif" font-size="11.00" fill="#000000">type</text>
<polygon fill="none" stroke="#000000" points="325,-141.7 325,-163.7 444,-163.7 444,-141.7 325,-141.7"/>
<text text-anchor="start" x="328" y="-149.4" font-family="Helvetica,sans-Serif" font-size="11.00" fill="#000000">varchar[50]</text>
<polygon fill="#ffffff" stroke="transparent" points="232,-122.7 232,-141.7 270,-141.7 270,-122.7 232,-122.7"/>
<polygon fill="none" stroke="#000000" points="232,-122.7 232,-141.7 270,-141.7 270,-122.7 232,-122.7"/>
<text text-anchor="start" x="235" y="-128.8" font-family="Helvetica,sans-Serif" font-size="11.00" fill="#000000">&lt; 1</text>
<polygon fill="#ffffff" stroke="transparent" points="270,-122.7 270,-141.7 325,-141.7 325,-122.7 270,-122.7"/>
<polygon fill="none" stroke="#000000" points="270,-122.7 270,-141.7 325,-141.7 325,-122.7 270,-122.7"/>
<text text-anchor="start" x="289.6105" y="-128.8" font-family="Helvetica,sans-Serif" font-size="11.00" fill="#000000">9 rows</text>
<polygon fill="#ffffff" stroke="transparent" points="325,-122.7 325,-141.7 444,-141.7 444,-122.7 325,-122.7"/>
<polygon fill="none" stroke="#000000" points="325,-122.7 325,-141.7 444,-141.7 444,-122.7 325,-122.7"/>
<text text-anchor="start" x="425.4053" y="-128.8" font-family="Helvetica,sans-Serif" font-size="11.00" fill="#000000">0 &gt;</text>
<polygon fill="none" stroke="#000000" stroke-width="2" points="231,-121.7 231,-297.7 445,-297.7 445,-121.7 231,-121.7"/>
</a>
</g>
</g>
<!-- entite_geol -->
<g id="node2" class="node">
<title>entite_geol</title>
<g id="a_node2"><a xlink:href="../../tables/entite_geol.html" xlink:title="entite_geol" target="_top">
<polygon fill="#ffffff" stroke="transparent" points="8,-38.2 8,-209.2 181,-209.2 181,-38.2 8,-38.2"/>
<polygon fill="#f5f5f5" stroke="transparent" points="8.5,-185.7 8.5,-208.7 181.5,-208.7 181.5,-185.7 8.5,-185.7"/>
<polygon fill="none" stroke="#000000" points="8.5,-185.7 8.5,-208.7 181.5,-208.7 181.5,-185.7 8.5,-185.7"/>
<text text-anchor="start" x="13.5" y="-194.8" font-family="Helvetica,sans-Serif" font-weight="bold" font-size="11.00" fill="#000000">entite_geol</text>
<text text-anchor="start" x="146.5437" y="-193.8" font-family="Helvetica,sans-Serif" font-size="11.00" fill="#000000">[table]</text>
<polygon fill="none" stroke="#000000" points="8.5,-163.7 8.5,-185.7 181.5,-185.7 181.5,-163.7 8.5,-163.7"/>
<image xlink:href="../../images/primaryKeys.png" width="11px" height="12px" preserveAspectRatio="xMinYMin meet" x="13.5" y="-180.7"/>
<text text-anchor="start" x="28.5" y="-170.8" font-family="Helvetica,sans-Serif" font-size="11.00" fill="#000000">id</text>
<polygon fill="#ffffff" stroke="transparent" points="8.5,-141.7 8.5,-163.7 181.5,-163.7 181.5,-141.7 8.5,-141.7"/>
<polygon fill="none" stroke="#000000" points="8.5,-141.7 8.5,-163.7 181.5,-163.7 181.5,-141.7 8.5,-141.7"/>
<text text-anchor="start" x="28.5" y="-148.8" font-family="Helvetica,sans-Serif" font-size="11.00" fill="#000000">geom</text>
<polygon fill="#ffffff" stroke="transparent" points="8.5,-119.7 8.5,-141.7 181.5,-141.7 181.5,-119.7 8.5,-119.7"/>
<polygon fill="none" stroke="#000000" points="8.5,-119.7 8.5,-141.7 181.5,-141.7 181.5,-119.7 8.5,-119.7"/>
<image xlink:href="../../images/foreignKeys.png" width="11px" height="12px" preserveAspectRatio="xMinYMin meet" x="13.5" y="-136.7"/>
<text text-anchor="start" x="28.5" y="-126.8" font-family="Helvetica,sans-Serif" font-size="11.00" fill="#000000">ere_geol_id</text>
<polygon fill="#ffffff" stroke="transparent" points="8.5,-97.7 8.5,-119.7 181.5,-119.7 181.5,-97.7 8.5,-97.7"/>
<polygon fill="none" stroke="#000000" points="8.5,-97.7 8.5,-119.7 181.5,-119.7 181.5,-97.7 8.5,-97.7"/>
<image xlink:href="../../images/foreignKeys.png" width="11px" height="12px" preserveAspectRatio="xMinYMin meet" x="13.5" y="-114.7"/>
<text text-anchor="start" x="28.5" y="-104.8" font-family="Helvetica,sans-Serif" font-size="11.00" fill="#000000">site_id</text>
<polygon fill="#ffffff" stroke="transparent" points="8.5,-75.7 8.5,-97.7 181.5,-97.7 181.5,-75.7 8.5,-75.7"/>
<polygon fill="none" stroke="#000000" points="8.5,-75.7 8.5,-97.7 181.5,-97.7 181.5,-75.7 8.5,-75.7"/>
<image xlink:href="../../images/foreignKeys.png" width="11px" height="12px" preserveAspectRatio="xMinYMin meet" x="13.5" y="-92.7"/>
<text text-anchor="start" x="28.5" y="-82.8" font-family="Helvetica,sans-Serif" font-size="11.00" fill="#000000">s_fgeol_id</text>
<polygon fill="none" stroke="#000000" points="8.5,-56.7 8.5,-75.7 181.5,-75.7 181.5,-56.7 8.5,-56.7"/>
<text text-anchor="start" x="11.5" y="-62.8" font-family="Helvetica,sans-Serif" font-size="11.00" fill="#000000">...</text>
<polygon fill="#ffffff" stroke="transparent" points="8.5,-37.7 8.5,-56.7 72.5,-56.7 72.5,-37.7 8.5,-37.7"/>
<polygon fill="none" stroke="#000000" points="8.5,-37.7 8.5,-56.7 72.5,-56.7 72.5,-37.7 8.5,-37.7"/>
<text text-anchor="start" x="11.5" y="-43.8" font-family="Helvetica,sans-Serif" font-size="11.00" fill="#000000">&lt; 3</text>
<polygon fill="#ffffff" stroke="transparent" points="72.5,-37.7 72.5,-56.7 138.5,-56.7 138.5,-37.7 72.5,-37.7"/>
<polygon fill="none" stroke="#000000" points="72.5,-37.7 72.5,-56.7 138.5,-56.7 138.5,-37.7 72.5,-37.7"/>
<text text-anchor="start" x="96.9956" y="-43.8" font-family="Helvetica,sans-Serif" font-size="11.00" fill="#000000">24 rows</text>
<polygon fill="#ffffff" stroke="transparent" points="138.5,-37.7 138.5,-56.7 181.5,-56.7 181.5,-37.7 138.5,-37.7"/>
<polygon fill="none" stroke="#000000" points="138.5,-37.7 138.5,-56.7 181.5,-56.7 181.5,-37.7 138.5,-37.7"/>
<text text-anchor="start" x="162.9053" y="-43.8" font-family="Helvetica,sans-Serif" font-size="11.00" fill="#000000">5 &gt;</text>
</a>
</g>
</g>
<!-- affleurement&#45;&gt;entite_geol -->
<g id="edge1" class="edge">
<title>affleurement:w&#45;&gt;entite_geol:e</title>
<path fill="none" stroke="#000000" d="M217.4203,-174.7C205.5435,-174.7 198.158,-174.7 181.5,-174.7"/>
<polygon fill="#000000" stroke="#000000" points="224,-174.7001 232,-178.3 228,-174.7 232,-174.7 232,-174.7 232,-174.7 228,-174.7 232,-171.1 224,-174.7001 224,-174.7001"/>
<ellipse fill="none" stroke="#000000" cx="220.8" cy="-174.7001" rx="3.2" ry="3.2"/>
</g>
</g>
</svg>
