<?xml version="1.0" encoding="UTF-8" standalone="no"?>
<!DOCTYPE svg PUBLIC "-//W3C//DTD SVG 1.1//EN"
 "http://www.w3.org/Graphics/SVG/1.1/DTD/svg11.dtd">
<!-- Generated by graphviz version 2.40.1 (20161225.0304)
 -->
<!-- Title: twoDegreesRelationshipsDiagram Pages: 1 -->
<svg width="722pt" height="458pt"
 viewBox="0.00 0.00 722.00 457.70" xmlns="http://www.w3.org/2000/svg" xmlns:xlink="http://www.w3.org/1999/xlink">
<g id="graph0" class="graph" transform="scale(1 1) rotate(0) translate(4 453.7)">
<title>twoDegreesRelationshipsDiagram</title>
<polygon fill="#ffffff" stroke="transparent" points="-4,4 -4,-453.7 718,-453.7 718,4 -4,4"/>
<text text-anchor="middle" x="72.4936" y="-7.3" font-family="Helvetica,sans-Serif" font-size="11.00" fill="#000000">Generated by SchemaSpy</text>
<!-- commentaire -->
<g id="node1" class="node">
<title>commentaire</title>
<g id="a_node1"><a xlink:href="../../tables/commentaire.html" xlink:title="commentaire" target="_top">
<polygon fill="#ffffff" stroke="transparent" points="391,-311.7 391,-445.7 580,-445.7 580,-311.7 391,-311.7"/>
<polygon fill="#f5f5f5" stroke="transparent" points="393.5,-420.7 393.5,-443.7 578.5,-443.7 578.5,-420.7 393.5,-420.7"/>
<polygon fill="none" stroke="#000000" points="393.5,-420.7 393.5,-443.7 578.5,-443.7 578.5,-420.7 393.5,-420.7"/>
<text text-anchor="start" x="398.5" y="-429.8" font-family="Helvetica,sans-Serif" font-weight="bold" font-size="11.00" fill="#000000">commentaire</text>
<text text-anchor="start" x="543.5437" y="-428.8" font-family="Helvetica,sans-Serif" font-size="11.00" fill="#000000">[table]</text>
<polygon fill="none" stroke="#000000" points="393.5,-398.7 393.5,-420.7 488.5,-420.7 488.5,-398.7 393.5,-398.7"/>
<image xlink:href="../../images/primaryKeys.png" width="11px" height="12px" preserveAspectRatio="xMinYMin meet" x="398.5" y="-415.7"/>
<text text-anchor="start" x="413.5" y="-405.8" font-family="Helvetica,sans-Serif" font-size="11.00" fill="#000000">id</text>
<polygon fill="none" stroke="#000000" points="488.5,-398.7 488.5,-420.7 578.5,-420.7 578.5,-398.7 488.5,-398.7"/>
<text text-anchor="start" x="491.5" y="-406.4" font-family="Helvetica,sans-Serif" font-size="11.00" fill="#000000">serial[10]</text>
<polygon fill="none" stroke="#000000" points="393.5,-376.7 393.5,-398.7 488.5,-398.7 488.5,-376.7 393.5,-376.7"/>
<text text-anchor="start" x="413.5" y="-383.8" font-family="Helvetica,sans-Serif" font-size="11.00" fill="#000000">rubrique</text>
<polygon fill="none" stroke="#000000" points="488.5,-376.7 488.5,-398.7 578.5,-398.7 578.5,-376.7 488.5,-376.7"/>
<text text-anchor="start" x="491.5" y="-384.4" font-family="Helvetica,sans-Serif" font-size="11.00" fill="#000000">varchar[50]</text>
<polygon fill="none" stroke="#000000" points="393.5,-354.7 393.5,-376.7 488.5,-376.7 488.5,-354.7 393.5,-354.7"/>
<text text-anchor="start" x="413.5" y="-361.8" font-family="Helvetica,sans-Serif" font-size="11.00" fill="#000000">commentaire</text>
<polygon fill="none" stroke="#000000" points="488.5,-354.7 488.5,-376.7 578.5,-376.7 578.5,-354.7 488.5,-354.7"/>
<text text-anchor="start" x="491.0043" y="-362.4" font-family="Helvetica,sans-Serif" font-size="11.00" fill="#000000">text[2147483647]</text>
<polygon fill="#ffffff" stroke="transparent" points="393.5,-332.7 393.5,-354.7 488.5,-354.7 488.5,-332.7 393.5,-332.7"/>
<polygon fill="none" stroke="#000000" points="393.5,-332.7 393.5,-354.7 488.5,-354.7 488.5,-332.7 393.5,-332.7"/>
<image xlink:href="../../images/foreignKeys.png" width="11px" height="12px" preserveAspectRatio="xMinYMin meet" x="398.5" y="-349.7"/>
<text text-anchor="start" x="413.5" y="-339.8" font-family="Helvetica,sans-Serif" font-size="11.00" fill="#000000">site_id</text>
<polygon fill="none" stroke="#000000" points="488.5,-332.7 488.5,-354.7 578.5,-354.7 578.5,-332.7 488.5,-332.7"/>
<text text-anchor="start" x="491.5" y="-340.4" font-family="Helvetica,sans-Serif" font-size="11.00" fill="#000000">int4[10]</text>
<polygon fill="#ffffff" stroke="transparent" points="393.5,-313.7 393.5,-332.7 432.5,-332.7 432.5,-313.7 393.5,-313.7"/>
<polygon fill="none" stroke="#000000" points="393.5,-313.7 393.5,-332.7 432.5,-332.7 432.5,-313.7 393.5,-313.7"/>
<text text-anchor="start" x="396.5" y="-319.8" font-family="Helvetica,sans-Serif" font-size="11.00" fill="#000000">&lt; 1</text>
<polygon fill="#ffffff" stroke="transparent" points="432.5,-313.7 432.5,-332.7 488.5,-332.7 488.5,-313.7 432.5,-313.7"/>
<polygon fill="none" stroke="#000000" points="432.5,-313.7 432.5,-332.7 488.5,-332.7 488.5,-313.7 432.5,-313.7"/>
<text text-anchor="start" x="453.1105" y="-319.8" font-family="Helvetica,sans-Serif" font-size="11.00" fill="#000000">2 rows</text>
<polygon fill="#ffffff" stroke="transparent" points="488.5,-313.7 488.5,-332.7 578.5,-332.7 578.5,-313.7 488.5,-313.7"/>
<polygon fill="none" stroke="#000000" points="488.5,-313.7 488.5,-332.7 578.5,-332.7 578.5,-313.7 488.5,-313.7"/>
<text text-anchor="start" x="559.9053" y="-319.8" font-family="Helvetica,sans-Serif" font-size="11.00" fill="#000000">0 &gt;</text>
<polygon fill="none" stroke="#000000" stroke-width="2" points="392,-312.7 392,-444.7 579,-444.7 579,-312.7 392,-312.7"/>
</a>
</g>
</g>
<!-- site -->
<g id="node2" class="node">
<title>site</title>
<g id="a_node2"><a xlink:href="../../tables/site.html" xlink:title="site" target="_top">
<polygon fill="#ffffff" stroke="transparent" points="178,-137.2 178,-264.2 342,-264.2 342,-137.2 178,-137.2"/>
<polygon fill="#f5f5f5" stroke="transparent" points="178,-240.7 178,-263.7 342,-263.7 342,-240.7 178,-240.7"/>
<polygon fill="none" stroke="#000000" points="178,-240.7 178,-263.7 342,-263.7 342,-240.7 178,-240.7"/>
<text text-anchor="start" x="183" y="-249.8" font-family="Helvetica,sans-Serif" font-weight="bold" font-size="11.00" fill="#000000">site</text>
<text text-anchor="start" x="307.0437" y="-248.8" font-family="Helvetica,sans-Serif" font-size="11.00" fill="#000000">[table]</text>
<polygon fill="none" stroke="#000000" points="178,-218.7 178,-240.7 342,-240.7 342,-218.7 178,-218.7"/>
<image xlink:href="../../images/primaryKeys.png" width="11px" height="12px" preserveAspectRatio="xMinYMin meet" x="183" y="-235.7"/>
<text text-anchor="start" x="198" y="-225.8" font-family="Helvetica,sans-Serif" font-size="11.00" fill="#000000">id</text>
<polygon fill="#ffffff" stroke="transparent" points="178,-196.7 178,-218.7 342,-218.7 342,-196.7 178,-196.7"/>
<polygon fill="none" stroke="#000000" points="178,-196.7 178,-218.7 342,-218.7 342,-196.7 178,-196.7"/>
<text text-anchor="start" x="198" y="-203.8" font-family="Helvetica,sans-Serif" font-size="11.00" fill="#000000">geom</text>
<polygon fill="#ffffff" stroke="transparent" points="178,-174.7 178,-196.7 342,-196.7 342,-174.7 178,-174.7"/>
<polygon fill="none" stroke="#000000" points="178,-174.7 178,-196.7 342,-196.7 342,-174.7 178,-174.7"/>
<image xlink:href="../../images/foreignKeys.png" width="11px" height="12px" preserveAspectRatio="xMinYMin meet" x="183" y="-191.7"/>
<text text-anchor="start" x="198" y="-181.8" font-family="Helvetica,sans-Serif" font-size="11.00" fill="#000000">ep_id</text>
<polygon fill="none" stroke="#000000" points="178,-155.7 178,-174.7 342,-174.7 342,-155.7 178,-155.7"/>
<text text-anchor="start" x="181" y="-161.8" font-family="Helvetica,sans-Serif" font-size="11.00" fill="#000000">...</text>
<polygon fill="#ffffff" stroke="transparent" points="178,-136.7 178,-155.7 238,-155.7 238,-136.7 178,-136.7"/>
<polygon fill="none" stroke="#000000" points="178,-136.7 178,-155.7 238,-155.7 238,-136.7 178,-136.7"/>
<text text-anchor="start" x="181" y="-142.8" font-family="Helvetica,sans-Serif" font-size="11.00" fill="#000000">&lt; 1</text>
<polygon fill="#ffffff" stroke="transparent" points="238,-136.7 238,-155.7 301,-155.7 301,-136.7 238,-136.7"/>
<polygon fill="none" stroke="#000000" points="238,-136.7 238,-155.7 301,-155.7 301,-136.7 238,-136.7"/>
<text text-anchor="start" x="259.4956" y="-142.8" font-family="Helvetica,sans-Serif" font-size="11.00" fill="#000000">10 rows</text>
<polygon fill="#ffffff" stroke="transparent" points="301,-136.7 301,-155.7 342,-155.7 342,-136.7 301,-136.7"/>
<polygon fill="none" stroke="#000000" points="301,-136.7 301,-155.7 342,-155.7 342,-136.7 301,-136.7"/>
<text text-anchor="start" x="323.4053" y="-142.8" font-family="Helvetica,sans-Serif" font-size="11.00" fill="#000000">5 &gt;</text>
</a>
</g>
</g>
<!-- commentaire&#45;&gt;site -->
<g id="edge1" class="edge">
<title>commentaire:w&#45;&gt;site:e</title>
<path fill="none" stroke="#000000" d="M379.4856,-340.1632C349.2123,-320.9212 391.7331,-229.7 342,-229.7"/>
<polygon fill="#000000" stroke="#000000" points="385.7432,-341.7424 392.6191,-347.1906 389.6216,-342.7212 393.5,-343.7 393.5,-343.7 393.5,-343.7 389.6216,-342.7212 394.3809,-340.2094 385.7432,-341.7424 385.7432,-341.7424"/>
<ellipse fill="none" stroke="#000000" cx="382.6405" cy="-340.9593" rx="3.2" ry="3.2"/>
</g>
<!-- espace_protege -->
<g id="node5" class="node">
<title>espace_protege</title>
<g id="a_node5"><a xlink:href="../../tables/espace_protege.html" xlink:title="espace_protege" target="_top">
<polygon fill="#ffffff" stroke="transparent" points="8,-158.2 8,-219.2 129,-219.2 129,-158.2 8,-158.2"/>
<polygon fill="#f5f5f5" stroke="transparent" points="8.5,-195.7 8.5,-218.7 129.5,-218.7 129.5,-195.7 8.5,-195.7"/>
<polygon fill="none" stroke="#000000" points="8.5,-195.7 8.5,-218.7 129.5,-218.7 129.5,-195.7 8.5,-195.7"/>
<text text-anchor="start" x="13.0661" y="-204.8" font-family="Helvetica,sans-Serif" font-weight="bold" font-size="11.00" fill="#000000">espace_protege</text>
<text text-anchor="start" x="95.0219" y="-203.8" font-family="Helvetica,sans-Serif" font-size="11.00" fill="#000000">[table]</text>
<polygon fill="none" stroke="#000000" points="8.5,-176.7 8.5,-195.7 129.5,-195.7 129.5,-176.7 8.5,-176.7"/>
<text text-anchor="start" x="11.5" y="-182.8" font-family="Helvetica,sans-Serif" font-size="11.00" fill="#000000">...</text>
<polygon fill="#ffffff" stroke="transparent" points="8.5,-157.7 8.5,-176.7 45.5,-176.7 45.5,-157.7 8.5,-157.7"/>
<polygon fill="none" stroke="#000000" points="8.5,-157.7 8.5,-176.7 45.5,-176.7 45.5,-157.7 8.5,-157.7"/>
<text text-anchor="start" x="11.5" y="-163.8" font-family="Helvetica,sans-Serif" font-size="11.00" fill="#000000"> &#160;</text>
<polygon fill="#ffffff" stroke="transparent" points="45.5,-157.7 45.5,-176.7 95.5,-176.7 95.5,-157.7 45.5,-157.7"/>
<polygon fill="none" stroke="#000000" points="45.5,-157.7 45.5,-176.7 95.5,-176.7 95.5,-157.7 45.5,-157.7"/>
<text text-anchor="start" x="60.1105" y="-163.8" font-family="Helvetica,sans-Serif" font-size="11.00" fill="#000000">7 rows</text>
<polygon fill="#ffffff" stroke="transparent" points="95.5,-157.7 95.5,-176.7 129.5,-176.7 129.5,-157.7 95.5,-157.7"/>
<polygon fill="none" stroke="#000000" points="95.5,-157.7 95.5,-176.7 129.5,-176.7 129.5,-157.7 95.5,-157.7"/>
<text text-anchor="start" x="110.9053" y="-163.8" font-family="Helvetica,sans-Serif" font-size="11.00" fill="#000000">1 &gt;</text>
</a>
</g>
</g>
<!-- site&#45;&gt;espace_protege -->
<g id="edge5" class="edge">
<title>site:w&#45;&gt;espace_protege:e</title>
<path fill="none" stroke="#000000" d="M163.2829,-185.7C152.2886,-185.7 145.1615,-185.7 129.5,-185.7"/>
<polygon fill="#000000" stroke="#000000" points="170,-185.7001 178,-189.3 174,-185.7 178,-185.7 178,-185.7 178,-185.7 174,-185.7 178,-182.1 170,-185.7001 170,-185.7001"/>
<ellipse fill="none" stroke="#000000" cx="166.8" cy="-185.7001" rx="3.2" ry="3.2"/>
</g>
<!-- entite_geol -->
<g id="node3" class="node">
<title>entite_geol</title>
<g id="a_node3"><a xlink:href="../../tables/entite_geol.html" xlink:title="entite_geol" target="_top">
<polygon fill="#ffffff" stroke="transparent" points="437.5,-202.2 437.5,-263.2 533.5,-263.2 533.5,-202.2 437.5,-202.2"/>
<polygon fill="#f5f5f5" stroke="transparent" points="437.5,-239.7 437.5,-262.7 533.5,-262.7 533.5,-239.7 437.5,-239.7"/>
<polygon fill="none" stroke="#000000" points="437.5,-239.7 437.5,-262.7 533.5,-262.7 533.5,-239.7 437.5,-239.7"/>
<text text-anchor="start" x="442.1001" y="-248.8" font-family="Helvetica,sans-Serif" font-weight="bold" font-size="11.00" fill="#000000">entite_geol</text>
<text text-anchor="start" x="499.0219" y="-247.8" font-family="Helvetica,sans-Serif" font-size="11.00" fill="#000000">[table]</text>
<polygon fill="none" stroke="#000000" points="437.5,-220.7 437.5,-239.7 533.5,-239.7 533.5,-220.7 437.5,-220.7"/>
<text text-anchor="start" x="440.5" y="-226.8" font-family="Helvetica,sans-Serif" font-size="11.00" fill="#000000">...</text>
<polygon fill="#ffffff" stroke="transparent" points="437.5,-201.7 437.5,-220.7 463.5,-220.7 463.5,-201.7 437.5,-201.7"/>
<polygon fill="none" stroke="#000000" points="437.5,-201.7 437.5,-220.7 463.5,-220.7 463.5,-201.7 437.5,-201.7"/>
<text text-anchor="start" x="440.5" y="-207.8" font-family="Helvetica,sans-Serif" font-size="11.00" fill="#000000">&lt; 3</text>
<polygon fill="#ffffff" stroke="transparent" points="463.5,-201.7 463.5,-220.7 509.5,-220.7 509.5,-201.7 463.5,-201.7"/>
<polygon fill="none" stroke="#000000" points="463.5,-201.7 463.5,-220.7 509.5,-220.7 509.5,-201.7 463.5,-201.7"/>
<text text-anchor="start" x="467.9956" y="-207.8" font-family="Helvetica,sans-Serif" font-size="11.00" fill="#000000">24 rows</text>
<polygon fill="#ffffff" stroke="transparent" points="509.5,-201.7 509.5,-220.7 533.5,-220.7 533.5,-201.7 509.5,-201.7"/>
<polygon fill="none" stroke="#000000" points="509.5,-201.7 509.5,-220.7 533.5,-220.7 533.5,-201.7 509.5,-201.7"/>
<text text-anchor="start" x="514.9053" y="-207.8" font-family="Helvetica,sans-Serif" font-size="11.00" fill="#000000">5 &gt;</text>
</a>
</g>
</g>
<!-- entite_geol&#45;&gt;site -->
<g id="edge2" class="edge">
<title>entite_geol:w&#45;&gt;site:e</title>
<path fill="none" stroke="#000000" d="M422.9512,-229.7C391.9054,-229.7 379.1389,-229.7 342,-229.7"/>
<polygon fill="#000000" stroke="#000000" points="429.5,-229.7001 437.5,-233.3 433.5,-229.7 437.5,-229.7 437.5,-229.7 437.5,-229.7 433.5,-229.7 437.5,-226.1 429.5,-229.7001 429.5,-229.7001"/>
<ellipse fill="none" stroke="#000000" cx="426.3" cy="-229.7001" rx="3.2" ry="3.2"/>
</g>
<!-- photo -->
<g id="node4" class="node">
<title>photo</title>
<g id="a_node4"><a xlink:href="../../tables/photo.html" xlink:title="photo" target="_top">
<polygon fill="#ffffff" stroke="transparent" points="629,-231.2 629,-292.2 706,-292.2 706,-231.2 629,-231.2"/>
<polygon fill="#f5f5f5" stroke="transparent" points="629.5,-268.7 629.5,-291.7 706.5,-291.7 706.5,-268.7 629.5,-268.7"/>
<polygon fill="none" stroke="#000000" points="629.5,-268.7 629.5,-291.7 706.5,-291.7 706.5,-268.7 629.5,-268.7"/>
<text text-anchor="start" x="634.5" y="-277.8" font-family="Helvetica,sans-Serif" font-weight="bold" font-size="11.00" fill="#000000">photo</text>
<text text-anchor="start" x="671.5437" y="-276.8" font-family="Helvetica,sans-Serif" font-size="11.00" fill="#000000">[table]</text>
<polygon fill="none" stroke="#000000" points="629.5,-249.7 629.5,-268.7 706.5,-268.7 706.5,-249.7 629.5,-249.7"/>
<text text-anchor="start" x="632.5" y="-255.8" font-family="Helvetica,sans-Serif" font-size="11.00" fill="#000000">...</text>
<polygon fill="#ffffff" stroke="transparent" points="629.5,-230.7 629.5,-249.7 650.5,-249.7 650.5,-230.7 629.5,-230.7"/>
<polygon fill="none" stroke="#000000" points="629.5,-230.7 629.5,-249.7 650.5,-249.7 650.5,-230.7 629.5,-230.7"/>
<text text-anchor="start" x="632.2026" y="-236.8" font-family="Helvetica,sans-Serif" font-size="11.00" fill="#000000">&lt; 2</text>
<polygon fill="#ffffff" stroke="transparent" points="650.5,-230.7 650.5,-249.7 694.5,-249.7 694.5,-230.7 650.5,-230.7"/>
<polygon fill="none" stroke="#000000" points="650.5,-230.7 650.5,-249.7 694.5,-249.7 694.5,-230.7 650.5,-230.7"/>
<text text-anchor="start" x="653.2478" y="-236.8" font-family="Helvetica,sans-Serif" font-size="11.00" fill="#000000">10 rows</text>
<polygon fill="#ffffff" stroke="transparent" points="694.5,-230.7 694.5,-249.7 706.5,-249.7 706.5,-230.7 694.5,-230.7"/>
<polygon fill="none" stroke="#000000" points="694.5,-230.7 694.5,-249.7 706.5,-249.7 706.5,-230.7 694.5,-230.7"/>
<text text-anchor="start" x="697.4431" y="-236.8" font-family="Helvetica,sans-Serif" font-size="11.00" fill="#000000"> &#160;</text>
</a>
</g>
</g>
<!-- photo&#45;&gt;site -->
<g id="edge4" class="edge">
<title>photo:w&#45;&gt;site:e</title>
<path fill="none" stroke="#000000" d="M615.0752,-261.4974C606.6461,-265.1561 601.2812,-271.3734 588,-273.7 498.2555,-289.4212 466.5476,-310.046 383,-273.7 358.4894,-263.037 368.7296,-229.7 342,-229.7"/>
<polygon fill="#000000" stroke="#000000" points="621.6463,-260.2231 630.1854,-262.2342 625.5732,-259.4616 629.5,-258.7 629.5,-258.7 629.5,-258.7 625.5732,-259.4616 628.8146,-255.1658 621.6463,-260.2231 621.6463,-260.2231"/>
<ellipse fill="none" stroke="#000000" cx="618.5048" cy="-260.8323" rx="3.2" ry="3.2"/>
</g>
<!-- photo&#45;&gt;entite_geol -->
<g id="edge3" class="edge">
<title>photo:w&#45;&gt;entite_geol:e</title>
<path fill="none" stroke="#000000" d="M614.8333,-257.5272C582.7151,-252.1018 572.6737,-229.7 533.5,-229.7"/>
<polygon fill="#000000" stroke="#000000" points="621.5255,-258.0623 629.213,-262.2885 625.5127,-258.3812 629.5,-258.7 629.5,-258.7 629.5,-258.7 625.5127,-258.3812 629.787,-255.1115 621.5255,-258.0623 621.5255,-258.0623"/>
<ellipse fill="none" stroke="#000000" cx="618.3356" cy="-257.8072" rx="3.2" ry="3.2"/>
</g>
<!-- site_ontology -->
<g id="node6" class="node">
<title>site_ontology</title>
<g id="a_node6"><a xlink:href="../../tables/site_ontology.html" xlink:title="site_ontology" target="_top">
<polygon fill="#ffffff" stroke="transparent" points="432,-120.2 432,-181.2 539,-181.2 539,-120.2 432,-120.2"/>
<polygon fill="#f5f5f5" stroke="transparent" points="432.5,-157.7 432.5,-180.7 539.5,-180.7 539.5,-157.7 432.5,-157.7"/>
<polygon fill="none" stroke="#000000" points="432.5,-157.7 432.5,-180.7 539.5,-180.7 539.5,-157.7 432.5,-157.7"/>
<text text-anchor="start" x="437.1001" y="-166.8" font-family="Helvetica,sans-Serif" font-weight="bold" font-size="11.00" fill="#000000">site_ontology</text>
<text text-anchor="start" x="505.0219" y="-165.8" font-family="Helvetica,sans-Serif" font-size="11.00" fill="#000000">[table]</text>
<polygon fill="none" stroke="#000000" points="432.5,-138.7 432.5,-157.7 539.5,-157.7 539.5,-138.7 432.5,-138.7"/>
<text text-anchor="start" x="435.5" y="-144.8" font-family="Helvetica,sans-Serif" font-size="11.00" fill="#000000">...</text>
<polygon fill="#ffffff" stroke="transparent" points="432.5,-119.7 432.5,-138.7 468.5,-138.7 468.5,-119.7 432.5,-119.7"/>
<polygon fill="none" stroke="#000000" points="432.5,-119.7 432.5,-138.7 468.5,-138.7 468.5,-119.7 432.5,-119.7"/>
<text text-anchor="start" x="435.5" y="-125.8" font-family="Helvetica,sans-Serif" font-size="11.00" fill="#000000">&lt; 2</text>
<polygon fill="#ffffff" stroke="transparent" points="468.5,-119.7 468.5,-138.7 519.5,-138.7 519.5,-119.7 468.5,-119.7"/>
<polygon fill="none" stroke="#000000" points="468.5,-119.7 468.5,-138.7 519.5,-138.7 519.5,-119.7 468.5,-119.7"/>
<text text-anchor="start" x="477.9956" y="-125.8" font-family="Helvetica,sans-Serif" font-size="11.00" fill="#000000">24 rows</text>
<polygon fill="#ffffff" stroke="transparent" points="519.5,-119.7 519.5,-138.7 539.5,-138.7 539.5,-119.7 519.5,-119.7"/>
<polygon fill="none" stroke="#000000" points="519.5,-119.7 519.5,-138.7 539.5,-138.7 539.5,-119.7 519.5,-119.7"/>
<text text-anchor="start" x="530.3862" y="-125.8" font-family="Helvetica,sans-Serif" font-size="11.00" fill="#000000"> &#160;</text>
</a>
</g>
</g>
<!-- site_ontology&#45;&gt;site -->
<g id="edge6" class="edge">
<title>site_ontology:w&#45;&gt;site:e</title>
<path fill="none" stroke="#000000" d="M417.9623,-150.4574C402.7973,-157.3551 400.3682,-175.9352 383,-191.7 364.6031,-208.3985 366.8452,-229.7 342,-229.7"/>
<polygon fill="#000000" stroke="#000000" points="424.6401,-149.1909 433.1709,-151.2369 428.5701,-148.4454 432.5,-147.7 432.5,-147.7 432.5,-147.7 428.5701,-148.4454 431.8291,-144.1631 424.6401,-149.1909 424.6401,-149.1909"/>
<ellipse fill="none" stroke="#000000" cx="421.4962" cy="-149.7872" rx="3.2" ry="3.2"/>
</g>
<!-- site_qcm -->
<g id="node7" class="node">
<title>site_qcm</title>
<g id="a_node7"><a xlink:href="../../tables/site_qcm.html" xlink:title="site_qcm" target="_top">
<polygon fill="#ffffff" stroke="transparent" points="442,-38.2 442,-99.2 529,-99.2 529,-38.2 442,-38.2"/>
<polygon fill="#f5f5f5" stroke="transparent" points="442.5,-75.7 442.5,-98.7 529.5,-98.7 529.5,-75.7 442.5,-75.7"/>
<polygon fill="none" stroke="#000000" points="442.5,-75.7 442.5,-98.7 529.5,-98.7 529.5,-75.7 442.5,-75.7"/>
<text text-anchor="start" x="447.4978" y="-84.8" font-family="Helvetica,sans-Serif" font-weight="bold" font-size="11.00" fill="#000000">site_qcm</text>
<text text-anchor="start" x="495.0219" y="-83.8" font-family="Helvetica,sans-Serif" font-size="11.00" fill="#000000">[table]</text>
<polygon fill="none" stroke="#000000" points="442.5,-56.7 442.5,-75.7 529.5,-75.7 529.5,-56.7 442.5,-56.7"/>
<text text-anchor="start" x="445.5" y="-62.8" font-family="Helvetica,sans-Serif" font-size="11.00" fill="#000000">...</text>
<polygon fill="#ffffff" stroke="transparent" points="442.5,-37.7 442.5,-56.7 468.5,-56.7 468.5,-37.7 442.5,-37.7"/>
<polygon fill="none" stroke="#000000" points="442.5,-37.7 442.5,-56.7 468.5,-56.7 468.5,-37.7 442.5,-37.7"/>
<text text-anchor="start" x="445.5" y="-43.8" font-family="Helvetica,sans-Serif" font-size="11.00" fill="#000000">&lt; 1</text>
<polygon fill="#ffffff" stroke="transparent" points="468.5,-37.7 468.5,-56.7 514.5,-56.7 514.5,-37.7 468.5,-37.7"/>
<polygon fill="none" stroke="#000000" points="468.5,-37.7 468.5,-56.7 514.5,-56.7 514.5,-37.7 468.5,-37.7"/>
<text text-anchor="start" x="472.9956" y="-43.8" font-family="Helvetica,sans-Serif" font-size="11.00" fill="#000000">40 rows</text>
<polygon fill="#ffffff" stroke="transparent" points="514.5,-37.7 514.5,-56.7 529.5,-56.7 529.5,-37.7 514.5,-37.7"/>
<polygon fill="none" stroke="#000000" points="514.5,-37.7 514.5,-56.7 529.5,-56.7 529.5,-37.7 514.5,-37.7"/>
<text text-anchor="start" x="520.3862" y="-43.8" font-family="Helvetica,sans-Serif" font-size="11.00" fill="#000000"> &#160;</text>
</a>
</g>
</g>
<!-- site_qcm&#45;&gt;site -->
<g id="edge7" class="edge">
<title>site_qcm:w&#45;&gt;site:e</title>
<path fill="none" stroke="#000000" d="M427.9222,-67.1378C406.8499,-71.8206 399.1584,-87.6147 383,-109.7 349.7208,-155.1862 398.3604,-229.7 342,-229.7"/>
<polygon fill="#000000" stroke="#000000" points="434.5386,-66.4853 442.8534,-69.2826 438.5193,-66.0926 442.5,-65.7 442.5,-65.7 442.5,-65.7 438.5193,-66.0926 442.1466,-62.1174 434.5386,-66.4853 434.5386,-66.4853"/>
<ellipse fill="none" stroke="#000000" cx="431.3541" cy="-66.7994" rx="3.2" ry="3.2"/>
</g>
</g>
</svg>
