<?xml version="1.0" encoding="UTF-8" standalone="no"?>
<!DOCTYPE svg PUBLIC "-//W3C//DTD SVG 1.1//EN"
 "http://www.w3.org/Graphics/SVG/1.1/DTD/svg11.dtd">
<!-- Generated by graphviz version 2.40.1 (20161225.0304)
 -->
<!-- Title: twoDegreesRelationshipsDiagram Pages: 1 -->
<svg width="626pt" height="517pt"
 viewBox="0.00 0.00 626.00 516.70" xmlns="http://www.w3.org/2000/svg" xmlns:xlink="http://www.w3.org/1999/xlink">
<g id="graph0" class="graph" transform="scale(1 1) rotate(0) translate(4 512.7)">
<title>twoDegreesRelationshipsDiagram</title>
<polygon fill="#ffffff" stroke="transparent" points="-4,4 -4,-512.7 622,-512.7 622,4 -4,4"/>
<text text-anchor="middle" x="72.4936" y="-7.3" font-family="Helvetica,sans-Serif" font-size="11.00" fill="#000000">Generated by SchemaSpy</text>
<!-- affleurement -->
<g id="node1" class="node">
<title>affleurement</title>
<g id="a_node1"><a xlink:href="../../tables/affleurement.html" xlink:title="affleurement" target="_top">
<polygon fill="#ffffff" stroke="transparent" points="453,-124.2 453,-185.2 557,-185.2 557,-124.2 453,-124.2"/>
<polygon fill="#f5f5f5" stroke="transparent" points="453,-161.7 453,-184.7 557,-184.7 557,-161.7 453,-161.7"/>
<polygon fill="none" stroke="#000000" points="453,-161.7 453,-184.7 557,-184.7 557,-161.7 453,-161.7"/>
<text text-anchor="start" x="457.9376" y="-170.8" font-family="Helvetica,sans-Serif" font-weight="bold" font-size="11.00" fill="#000000">affleurement</text>
<text text-anchor="start" x="522.5219" y="-169.8" font-family="Helvetica,sans-Serif" font-size="11.00" fill="#000000">[table]</text>
<polygon fill="none" stroke="#000000" points="453,-142.7 453,-161.7 557,-161.7 557,-142.7 453,-142.7"/>
<text text-anchor="start" x="456" y="-148.8" font-family="Helvetica,sans-Serif" font-size="11.00" fill="#000000">...</text>
<polygon fill="#ffffff" stroke="transparent" points="453,-123.7 453,-142.7 490,-142.7 490,-123.7 453,-123.7"/>
<polygon fill="none" stroke="#000000" points="453,-123.7 453,-142.7 490,-142.7 490,-123.7 453,-123.7"/>
<text text-anchor="start" x="456" y="-129.8" font-family="Helvetica,sans-Serif" font-size="11.00" fill="#000000">&lt; 1</text>
<polygon fill="#ffffff" stroke="transparent" points="490,-123.7 490,-142.7 536,-142.7 536,-123.7 490,-123.7"/>
<polygon fill="none" stroke="#000000" points="490,-123.7 490,-142.7 536,-142.7 536,-123.7 490,-123.7"/>
<text text-anchor="start" x="500.6105" y="-129.8" font-family="Helvetica,sans-Serif" font-size="11.00" fill="#000000">9 rows</text>
<polygon fill="#ffffff" stroke="transparent" points="536,-123.7 536,-142.7 557,-142.7 557,-123.7 536,-123.7"/>
<polygon fill="none" stroke="#000000" points="536,-123.7 536,-142.7 557,-142.7 557,-123.7 536,-123.7"/>
<text text-anchor="start" x="547.8862" y="-129.8" font-family="Helvetica,sans-Serif" font-size="11.00" fill="#000000"> &#160;</text>
</a>
</g>
</g>
<!-- entite_geol -->
<g id="node2" class="node">
<title>entite_geol</title>
<g id="a_node2"><a xlink:href="../../tables/entite_geol.html" xlink:title="entite_geol" target="_top">
<polygon fill="#ffffff" stroke="transparent" points="178,-98.2 178,-269.2 351,-269.2 351,-98.2 178,-98.2"/>
<polygon fill="#f5f5f5" stroke="transparent" points="178.5,-245.7 178.5,-268.7 351.5,-268.7 351.5,-245.7 178.5,-245.7"/>
<polygon fill="none" stroke="#000000" points="178.5,-245.7 178.5,-268.7 351.5,-268.7 351.5,-245.7 178.5,-245.7"/>
<text text-anchor="start" x="183.5" y="-254.8" font-family="Helvetica,sans-Serif" font-weight="bold" font-size="11.00" fill="#000000">entite_geol</text>
<text text-anchor="start" x="316.5437" y="-253.8" font-family="Helvetica,sans-Serif" font-size="11.00" fill="#000000">[table]</text>
<polygon fill="none" stroke="#000000" points="178.5,-223.7 178.5,-245.7 351.5,-245.7 351.5,-223.7 178.5,-223.7"/>
<image xlink:href="../../images/primaryKeys.png" width="11px" height="12px" preserveAspectRatio="xMinYMin meet" x="183.5" y="-240.7"/>
<text text-anchor="start" x="198.5" y="-230.8" font-family="Helvetica,sans-Serif" font-size="11.00" fill="#000000">id</text>
<polygon fill="#ffffff" stroke="transparent" points="178.5,-201.7 178.5,-223.7 351.5,-223.7 351.5,-201.7 178.5,-201.7"/>
<polygon fill="none" stroke="#000000" points="178.5,-201.7 178.5,-223.7 351.5,-223.7 351.5,-201.7 178.5,-201.7"/>
<text text-anchor="start" x="198.5" y="-208.8" font-family="Helvetica,sans-Serif" font-size="11.00" fill="#000000">geom</text>
<polygon fill="#ffffff" stroke="transparent" points="178.5,-179.7 178.5,-201.7 351.5,-201.7 351.5,-179.7 178.5,-179.7"/>
<polygon fill="none" stroke="#000000" points="178.5,-179.7 178.5,-201.7 351.5,-201.7 351.5,-179.7 178.5,-179.7"/>
<image xlink:href="../../images/foreignKeys.png" width="11px" height="12px" preserveAspectRatio="xMinYMin meet" x="183.5" y="-196.7"/>
<text text-anchor="start" x="198.5" y="-186.8" font-family="Helvetica,sans-Serif" font-size="11.00" fill="#000000">ere_geol_id</text>
<polygon fill="#ffffff" stroke="transparent" points="178.5,-157.7 178.5,-179.7 351.5,-179.7 351.5,-157.7 178.5,-157.7"/>
<polygon fill="none" stroke="#000000" points="178.5,-157.7 178.5,-179.7 351.5,-179.7 351.5,-157.7 178.5,-157.7"/>
<image xlink:href="../../images/foreignKeys.png" width="11px" height="12px" preserveAspectRatio="xMinYMin meet" x="183.5" y="-174.7"/>
<text text-anchor="start" x="198.5" y="-164.8" font-family="Helvetica,sans-Serif" font-size="11.00" fill="#000000">site_id</text>
<polygon fill="#ffffff" stroke="transparent" points="178.5,-135.7 178.5,-157.7 351.5,-157.7 351.5,-135.7 178.5,-135.7"/>
<polygon fill="none" stroke="#000000" points="178.5,-135.7 178.5,-157.7 351.5,-157.7 351.5,-135.7 178.5,-135.7"/>
<image xlink:href="../../images/foreignKeys.png" width="11px" height="12px" preserveAspectRatio="xMinYMin meet" x="183.5" y="-152.7"/>
<text text-anchor="start" x="198.5" y="-142.8" font-family="Helvetica,sans-Serif" font-size="11.00" fill="#000000">s_fgeol_id</text>
<polygon fill="none" stroke="#000000" points="178.5,-116.7 178.5,-135.7 351.5,-135.7 351.5,-116.7 178.5,-116.7"/>
<text text-anchor="start" x="181.5" y="-122.8" font-family="Helvetica,sans-Serif" font-size="11.00" fill="#000000">...</text>
<polygon fill="#ffffff" stroke="transparent" points="178.5,-97.7 178.5,-116.7 242.5,-116.7 242.5,-97.7 178.5,-97.7"/>
<polygon fill="none" stroke="#000000" points="178.5,-97.7 178.5,-116.7 242.5,-116.7 242.5,-97.7 178.5,-97.7"/>
<text text-anchor="start" x="181.5" y="-103.8" font-family="Helvetica,sans-Serif" font-size="11.00" fill="#000000">&lt; 3</text>
<polygon fill="#ffffff" stroke="transparent" points="242.5,-97.7 242.5,-116.7 308.5,-116.7 308.5,-97.7 242.5,-97.7"/>
<polygon fill="none" stroke="#000000" points="242.5,-97.7 242.5,-116.7 308.5,-116.7 308.5,-97.7 242.5,-97.7"/>
<text text-anchor="start" x="266.9956" y="-103.8" font-family="Helvetica,sans-Serif" font-size="11.00" fill="#000000">24 rows</text>
<polygon fill="#ffffff" stroke="transparent" points="308.5,-97.7 308.5,-116.7 351.5,-116.7 351.5,-97.7 308.5,-97.7"/>
<polygon fill="none" stroke="#000000" points="308.5,-97.7 308.5,-116.7 351.5,-116.7 351.5,-97.7 308.5,-97.7"/>
<text text-anchor="start" x="332.9053" y="-103.8" font-family="Helvetica,sans-Serif" font-size="11.00" fill="#000000">5 &gt;</text>
</a>
</g>
</g>
<!-- affleurement&#45;&gt;entite_geol -->
<g id="edge1" class="edge">
<title>affleurement:w&#45;&gt;entite_geol:e</title>
<path fill="none" stroke="#000000" d="M438.561,-153.4983C418.2595,-159.2513 413.3494,-177.8737 392,-195.7 372.8185,-211.7161 376.4889,-234.7 351.5,-234.7"/>
<polygon fill="#000000" stroke="#000000" points="445.0613,-152.6888 453.445,-155.2724 449.0307,-152.1944 453,-151.7 453,-151.7 453,-151.7 449.0307,-152.1944 452.555,-148.1276 445.0613,-152.6888 445.0613,-152.6888"/>
<ellipse fill="none" stroke="#000000" cx="441.8859" cy="-153.0843" rx="3.2" ry="3.2"/>
</g>
<!-- echelle_geol -->
<g id="node5" class="node">
<title>echelle_geol</title>
<g id="a_node5"><a xlink:href="../../tables/echelle_geol.html" xlink:title="echelle_geol" target="_top">
<polygon fill="#ffffff" stroke="transparent" points="16.5,-202.2 16.5,-263.2 120.5,-263.2 120.5,-202.2 16.5,-202.2"/>
<polygon fill="#f5f5f5" stroke="transparent" points="16.5,-239.7 16.5,-262.7 120.5,-262.7 120.5,-239.7 16.5,-239.7"/>
<polygon fill="none" stroke="#000000" points="16.5,-239.7 16.5,-262.7 120.5,-262.7 120.5,-239.7 16.5,-239.7"/>
<text text-anchor="start" x="21.1291" y="-248.8" font-family="Helvetica,sans-Serif" font-weight="bold" font-size="11.00" fill="#000000">echelle_geol</text>
<text text-anchor="start" x="86.0219" y="-247.8" font-family="Helvetica,sans-Serif" font-size="11.00" fill="#000000">[table]</text>
<polygon fill="none" stroke="#000000" points="16.5,-220.7 16.5,-239.7 120.5,-239.7 120.5,-220.7 16.5,-220.7"/>
<text text-anchor="start" x="19.5" y="-226.8" font-family="Helvetica,sans-Serif" font-size="11.00" fill="#000000">...</text>
<polygon fill="#ffffff" stroke="transparent" points="16.5,-201.7 16.5,-220.7 46.5,-220.7 46.5,-201.7 16.5,-201.7"/>
<polygon fill="none" stroke="#000000" points="16.5,-201.7 16.5,-220.7 46.5,-220.7 46.5,-201.7 16.5,-201.7"/>
<text text-anchor="start" x="19.5" y="-207.8" font-family="Helvetica,sans-Serif" font-size="11.00" fill="#000000">&lt; 1</text>
<polygon fill="#ffffff" stroke="transparent" points="46.5,-201.7 46.5,-220.7 94.5,-220.7 94.5,-201.7 46.5,-201.7"/>
<polygon fill="none" stroke="#000000" points="46.5,-201.7 46.5,-220.7 94.5,-220.7 94.5,-201.7 46.5,-201.7"/>
<text text-anchor="start" x="52.9956" y="-207.8" font-family="Helvetica,sans-Serif" font-size="11.00" fill="#000000">74 rows</text>
<polygon fill="#ffffff" stroke="transparent" points="94.5,-201.7 94.5,-220.7 120.5,-220.7 120.5,-201.7 94.5,-201.7"/>
<polygon fill="none" stroke="#000000" points="94.5,-201.7 94.5,-220.7 120.5,-220.7 120.5,-201.7 94.5,-201.7"/>
<text text-anchor="start" x="101.9053" y="-207.8" font-family="Helvetica,sans-Serif" font-size="11.00" fill="#000000">2 &gt;</text>
</a>
</g>
</g>
<!-- entite_geol&#45;&gt;echelle_geol -->
<g id="edge4" class="edge">
<title>entite_geol:w&#45;&gt;echelle_geol:e</title>
<path fill="none" stroke="#000000" d="M164.2744,-194.2991C147.747,-203.9539 145.7391,-229.7 120.5,-229.7"/>
<polygon fill="#000000" stroke="#000000" points="170.7444,-192.6622 179.383,-194.19 174.6222,-191.6811 178.5,-190.7 178.5,-190.7 178.5,-190.7 174.6222,-191.6811 177.617,-187.21 170.7444,-192.6622 170.7444,-192.6622"/>
<ellipse fill="none" stroke="#000000" cx="167.6421" cy="-193.4471" rx="3.2" ry="3.2"/>
</g>
<!-- infoterre.s_fgeol -->
<g id="node6" class="node">
<title>infoterre.s_fgeol</title>
<g id="a_node6"><a xlink:href="../../../infoterre/tables/s_fgeol.html" xlink:title="infoterre.s_fgeol" target="_top">
<polygon fill="#ffffff" stroke="transparent" points="8,-120.2 8,-181.2 129,-181.2 129,-120.2 8,-120.2"/>
<polygon fill="#f5f5f5" stroke="transparent" points="8.5,-157.7 8.5,-180.7 129.5,-180.7 129.5,-157.7 8.5,-157.7"/>
<polygon fill="none" stroke="#000000" points="8.5,-157.7 8.5,-180.7 129.5,-180.7 129.5,-157.7 8.5,-157.7"/>
<text text-anchor="start" x="13.0738" y="-166.8" font-family="Helvetica,sans-Serif" font-weight="bold" font-size="11.00" fill="#000000">infoterre.s_fgeol</text>
<text text-anchor="start" x="95.0219" y="-165.8" font-family="Helvetica,sans-Serif" font-size="11.00" fill="#000000">[table]</text>
<polygon fill="none" stroke="#000000" points="8.5,-138.7 8.5,-157.7 129.5,-157.7 129.5,-138.7 8.5,-138.7"/>
<text text-anchor="start" x="11.5" y="-144.8" font-family="Helvetica,sans-Serif" font-size="11.00" fill="#000000">...</text>
<polygon fill="#ffffff" stroke="transparent" points="8.5,-119.7 8.5,-138.7 45.5,-138.7 45.5,-119.7 8.5,-119.7"/>
<polygon fill="none" stroke="#000000" points="8.5,-119.7 8.5,-138.7 45.5,-138.7 45.5,-119.7 8.5,-119.7"/>
<text text-anchor="start" x="11.5" y="-125.8" font-family="Helvetica,sans-Serif" font-size="11.00" fill="#000000"> &#160;</text>
<polygon fill="#ffffff" stroke="transparent" points="45.5,-119.7 45.5,-138.7 95.5,-138.7 95.5,-119.7 45.5,-119.7"/>
<polygon fill="none" stroke="#000000" points="45.5,-119.7 45.5,-138.7 95.5,-138.7 95.5,-119.7 45.5,-119.7"/>
<text text-anchor="start" x="60.1105" y="-125.8" font-family="Helvetica,sans-Serif" font-size="11.00" fill="#000000">0 rows</text>
<polygon fill="#ffffff" stroke="transparent" points="95.5,-119.7 95.5,-138.7 129.5,-138.7 129.5,-119.7 95.5,-119.7"/>
<polygon fill="none" stroke="#000000" points="95.5,-119.7 95.5,-138.7 129.5,-138.7 129.5,-119.7 95.5,-119.7"/>
<text text-anchor="start" x="110.9053" y="-125.8" font-family="Helvetica,sans-Serif" font-size="11.00" fill="#000000">1 &gt;</text>
</a>
</g>
</g>
<!-- entite_geol&#45;&gt;infoterre.s_fgeol -->
<g id="edge5" class="edge">
<title>entite_geol:w&#45;&gt;infoterre.s_fgeol:e</title>
<path fill="none" stroke="#000000" d="M163.9896,-146.8742C152.6768,-147.1607 145.4964,-147.7 129.5,-147.7"/>
<polygon fill="#000000" stroke="#000000" points="170.5006,-146.7961 178.5432,-150.2997 174.5003,-146.748 178.5,-146.7 178.5,-146.7 178.5,-146.7 174.5003,-146.748 178.4568,-143.1003 170.5006,-146.7961 170.5006,-146.7961"/>
<ellipse fill="none" stroke="#000000" cx="167.3008" cy="-146.8345" rx="3.2" ry="3.2"/>
</g>
<!-- site -->
<g id="node7" class="node">
<title>site</title>
<g id="a_node7"><a xlink:href="../../tables/site.html" xlink:title="site" target="_top">
<polygon fill="#ffffff" stroke="transparent" points="25.5,-38.2 25.5,-99.2 111.5,-99.2 111.5,-38.2 25.5,-38.2"/>
<polygon fill="#f5f5f5" stroke="transparent" points="25.5,-75.7 25.5,-98.7 111.5,-98.7 111.5,-75.7 25.5,-75.7"/>
<polygon fill="none" stroke="#000000" points="25.5,-75.7 25.5,-98.7 111.5,-98.7 111.5,-75.7 25.5,-75.7"/>
<text text-anchor="start" x="30.5" y="-84.8" font-family="Helvetica,sans-Serif" font-weight="bold" font-size="11.00" fill="#000000">site</text>
<text text-anchor="start" x="76.5437" y="-83.8" font-family="Helvetica,sans-Serif" font-size="11.00" fill="#000000">[table]</text>
<polygon fill="none" stroke="#000000" points="25.5,-56.7 25.5,-75.7 111.5,-75.7 111.5,-56.7 25.5,-56.7"/>
<text text-anchor="start" x="28.5" y="-62.8" font-family="Helvetica,sans-Serif" font-size="11.00" fill="#000000">...</text>
<polygon fill="#ffffff" stroke="transparent" points="25.5,-37.7 25.5,-56.7 46.5,-56.7 46.5,-37.7 25.5,-37.7"/>
<polygon fill="none" stroke="#000000" points="25.5,-37.7 25.5,-56.7 46.5,-56.7 46.5,-37.7 25.5,-37.7"/>
<text text-anchor="start" x="28.2027" y="-43.8" font-family="Helvetica,sans-Serif" font-size="11.00" fill="#000000">&lt; 1</text>
<polygon fill="#ffffff" stroke="transparent" points="46.5,-37.7 46.5,-56.7 90.5,-56.7 90.5,-37.7 46.5,-37.7"/>
<polygon fill="none" stroke="#000000" points="46.5,-37.7 46.5,-56.7 90.5,-56.7 90.5,-37.7 46.5,-37.7"/>
<text text-anchor="start" x="49.2478" y="-43.8" font-family="Helvetica,sans-Serif" font-size="11.00" fill="#000000">10 rows</text>
<polygon fill="#ffffff" stroke="transparent" points="90.5,-37.7 90.5,-56.7 111.5,-56.7 111.5,-37.7 90.5,-37.7"/>
<polygon fill="none" stroke="#000000" points="90.5,-37.7 90.5,-56.7 111.5,-56.7 111.5,-37.7 90.5,-37.7"/>
<text text-anchor="start" x="93.2027" y="-43.8" font-family="Helvetica,sans-Serif" font-size="11.00" fill="#000000">5 &gt;</text>
</a>
</g>
</g>
<!-- entite_geol&#45;&gt;site -->
<g id="edge6" class="edge">
<title>entite_geol:w&#45;&gt;site:e</title>
<path fill="none" stroke="#000000" d="M164.225,-165.5045C131.7183,-148.1192 160.3509,-65.7 111.5,-65.7"/>
<polygon fill="#000000" stroke="#000000" points="170.6932,-166.9524 177.7136,-172.2131 174.5966,-167.8262 178.5,-168.7 178.5,-168.7 178.5,-168.7 174.5966,-167.8262 179.2864,-165.1869 170.6932,-166.9524 170.6932,-166.9524"/>
<ellipse fill="none" stroke="#000000" cx="167.5705" cy="-166.2533" rx="3.2" ry="3.2"/>
</g>
<!-- commentaire_eg -->
<g id="node3" class="node">
<title>commentaire_eg</title>
<g id="a_node3"><a xlink:href="../../tables/commentaire_eg.html" xlink:title="commentaire_eg" target="_top">
<polygon fill="#ffffff" stroke="transparent" points="400,-370.7 400,-504.7 610,-504.7 610,-370.7 400,-370.7"/>
<polygon fill="#f5f5f5" stroke="transparent" points="402,-479.7 402,-502.7 608,-502.7 608,-479.7 402,-479.7"/>
<polygon fill="none" stroke="#000000" points="402,-479.7 402,-502.7 608,-502.7 608,-479.7 402,-479.7"/>
<text text-anchor="start" x="407" y="-488.8" font-family="Helvetica,sans-Serif" font-weight="bold" font-size="11.00" fill="#000000">commentaire_eg</text>
<text text-anchor="start" x="573.0437" y="-487.8" font-family="Helvetica,sans-Serif" font-size="11.00" fill="#000000">[table]</text>
<polygon fill="none" stroke="#000000" points="402,-457.7 402,-479.7 518,-479.7 518,-457.7 402,-457.7"/>
<image xlink:href="../../images/primaryKeys.png" width="11px" height="12px" preserveAspectRatio="xMinYMin meet" x="407" y="-474.7"/>
<text text-anchor="start" x="422" y="-464.8" font-family="Helvetica,sans-Serif" font-size="11.00" fill="#000000">id</text>
<polygon fill="none" stroke="#000000" points="518,-457.7 518,-479.7 608,-479.7 608,-457.7 518,-457.7"/>
<text text-anchor="start" x="521" y="-465.4" font-family="Helvetica,sans-Serif" font-size="11.00" fill="#000000">serial[10]</text>
<polygon fill="none" stroke="#000000" points="402,-435.7 402,-457.7 518,-457.7 518,-435.7 402,-435.7"/>
<text text-anchor="start" x="422" y="-442.8" font-family="Helvetica,sans-Serif" font-size="11.00" fill="#000000">rubrique</text>
<polygon fill="none" stroke="#000000" points="518,-435.7 518,-457.7 608,-457.7 608,-435.7 518,-435.7"/>
<text text-anchor="start" x="521" y="-443.4" font-family="Helvetica,sans-Serif" font-size="11.00" fill="#000000">varchar[50]</text>
<polygon fill="none" stroke="#000000" points="402,-413.7 402,-435.7 518,-435.7 518,-413.7 402,-413.7"/>
<text text-anchor="start" x="422" y="-420.8" font-family="Helvetica,sans-Serif" font-size="11.00" fill="#000000">commentaire</text>
<polygon fill="none" stroke="#000000" points="518,-413.7 518,-435.7 608,-435.7 608,-413.7 518,-413.7"/>
<text text-anchor="start" x="520.5043" y="-421.4" font-family="Helvetica,sans-Serif" font-size="11.00" fill="#000000">text[2147483647]</text>
<polygon fill="#ffffff" stroke="transparent" points="402,-391.7 402,-413.7 518,-413.7 518,-391.7 402,-391.7"/>
<polygon fill="none" stroke="#000000" points="402,-391.7 402,-413.7 518,-413.7 518,-391.7 402,-391.7"/>
<image xlink:href="../../images/foreignKeys.png" width="11px" height="12px" preserveAspectRatio="xMinYMin meet" x="407" y="-408.7"/>
<text text-anchor="start" x="422" y="-398.8" font-family="Helvetica,sans-Serif" font-size="11.00" fill="#000000">entite_geol_id</text>
<polygon fill="none" stroke="#000000" points="518,-391.7 518,-413.7 608,-413.7 608,-391.7 518,-391.7"/>
<text text-anchor="start" x="521" y="-399.4" font-family="Helvetica,sans-Serif" font-size="11.00" fill="#000000">int4[10]</text>
<polygon fill="#ffffff" stroke="transparent" points="402,-372.7 402,-391.7 454,-391.7 454,-372.7 402,-372.7"/>
<polygon fill="none" stroke="#000000" points="402,-372.7 402,-391.7 454,-391.7 454,-372.7 402,-372.7"/>
<text text-anchor="start" x="405" y="-378.8" font-family="Helvetica,sans-Serif" font-size="11.00" fill="#000000">&lt; 1</text>
<polygon fill="#ffffff" stroke="transparent" points="454,-372.7 454,-391.7 518,-391.7 518,-372.7 454,-372.7"/>
<polygon fill="none" stroke="#000000" points="454,-372.7 454,-391.7 518,-391.7 518,-372.7 454,-372.7"/>
<text text-anchor="start" x="488.1105" y="-378.8" font-family="Helvetica,sans-Serif" font-size="11.00" fill="#000000">1 row</text>
<polygon fill="#ffffff" stroke="transparent" points="518,-372.7 518,-391.7 608,-391.7 608,-372.7 518,-372.7"/>
<polygon fill="none" stroke="#000000" points="518,-372.7 518,-391.7 608,-391.7 608,-372.7 518,-372.7"/>
<text text-anchor="start" x="589.4053" y="-378.8" font-family="Helvetica,sans-Serif" font-size="11.00" fill="#000000">0 &gt;</text>
<polygon fill="none" stroke="#000000" stroke-width="2" points="401,-371.7 401,-503.7 609,-503.7 609,-371.7 401,-371.7"/>
</a>
</g>
</g>
<!-- commentaire_eg&#45;&gt;entite_geol -->
<g id="edge2" class="edge">
<title>commentaire_eg:w&#45;&gt;entite_geol:e</title>
<path fill="none" stroke="#000000" d="M387.5209,-400.0611C338.6731,-378.6879 423.6805,-234.7 351.5,-234.7"/>
<polygon fill="#000000" stroke="#000000" points="394.1296,-401.2655 401.3545,-406.2417 398.0648,-401.9828 402,-402.7 402,-402.7 402,-402.7 398.0648,-401.9828 402.6455,-399.1583 394.1296,-401.2655 394.1296,-401.2655"/>
<ellipse fill="none" stroke="#000000" cx="390.9815" cy="-400.6918" rx="3.2" ry="3.2"/>
</g>
<!-- complement_eg -->
<g id="node4" class="node">
<title>complement_eg</title>
<g id="a_node4"><a xlink:href="../../tables/complement_eg.html" xlink:title="complement_eg" target="_top">
<polygon fill="#ffffff" stroke="transparent" points="444.5,-288.2 444.5,-349.2 565.5,-349.2 565.5,-288.2 444.5,-288.2"/>
<polygon fill="#f5f5f5" stroke="transparent" points="445,-325.7 445,-348.7 566,-348.7 566,-325.7 445,-325.7"/>
<polygon fill="none" stroke="#000000" points="445,-325.7 445,-348.7 566,-348.7 566,-325.7 445,-325.7"/>
<text text-anchor="start" x="449.8796" y="-334.8" font-family="Helvetica,sans-Serif" font-weight="bold" font-size="11.00" fill="#000000">complement_eg</text>
<text text-anchor="start" x="531.5219" y="-333.8" font-family="Helvetica,sans-Serif" font-size="11.00" fill="#000000">[table]</text>
<polygon fill="none" stroke="#000000" points="445,-306.7 445,-325.7 566,-325.7 566,-306.7 445,-306.7"/>
<text text-anchor="start" x="448" y="-312.8" font-family="Helvetica,sans-Serif" font-size="11.00" fill="#000000">...</text>
<polygon fill="#ffffff" stroke="transparent" points="445,-287.7 445,-306.7 491,-306.7 491,-287.7 445,-287.7"/>
<polygon fill="none" stroke="#000000" points="445,-287.7 445,-306.7 491,-306.7 491,-287.7 445,-287.7"/>
<text text-anchor="start" x="448" y="-293.8" font-family="Helvetica,sans-Serif" font-size="11.00" fill="#000000">&lt; 1</text>
<polygon fill="#ffffff" stroke="transparent" points="491,-287.7 491,-306.7 541,-306.7 541,-287.7 491,-287.7"/>
<polygon fill="none" stroke="#000000" points="491,-287.7 491,-306.7 541,-306.7 541,-287.7 491,-287.7"/>
<text text-anchor="start" x="505.6105" y="-293.8" font-family="Helvetica,sans-Serif" font-size="11.00" fill="#000000">2 rows</text>
<polygon fill="#ffffff" stroke="transparent" points="541,-287.7 541,-306.7 566,-306.7 566,-287.7 541,-287.7"/>
<polygon fill="none" stroke="#000000" points="541,-287.7 541,-306.7 566,-306.7 566,-287.7 541,-287.7"/>
<text text-anchor="start" x="556.8862" y="-293.8" font-family="Helvetica,sans-Serif" font-size="11.00" fill="#000000"> &#160;</text>
</a>
</g>
</g>
<!-- complement_eg&#45;&gt;entite_geol -->
<g id="edge3" class="edge">
<title>complement_eg:w&#45;&gt;entite_geol:e</title>
<path fill="none" stroke="#000000" d="M430.7365,-313.6748C414.408,-308.3043 409.555,-293.056 392,-277.7 372.2398,-260.415 377.7533,-234.7 351.5,-234.7"/>
<polygon fill="#000000" stroke="#000000" points="437.0794,-314.5754 444.4939,-319.2643 441.0397,-315.1377 445,-315.7 445,-315.7 445,-315.7 441.0397,-315.1377 445.5061,-312.1357 437.0794,-314.5754 437.0794,-314.5754"/>
<ellipse fill="none" stroke="#000000" cx="433.9112" cy="-314.1255" rx="3.2" ry="3.2"/>
</g>
<!-- entite_geol_qcm -->
<g id="node8" class="node">
<title>entite_geol_qcm</title>
<g id="a_node8"><a xlink:href="../../tables/entite_geol_qcm.html" xlink:title="entite_geol_qcm" target="_top">
<polygon fill="#ffffff" stroke="transparent" points="443.5,-206.2 443.5,-267.2 566.5,-267.2 566.5,-206.2 443.5,-206.2"/>
<polygon fill="#f5f5f5" stroke="transparent" points="444,-243.7 444,-266.7 567,-266.7 567,-243.7 444,-243.7"/>
<polygon fill="none" stroke="#000000" points="444,-243.7 444,-266.7 567,-266.7 567,-243.7 444,-243.7"/>
<text text-anchor="start" x="448.6542" y="-252.8" font-family="Helvetica,sans-Serif" font-weight="bold" font-size="11.00" fill="#000000">entite_geol_qcm</text>
<text text-anchor="start" x="532.5219" y="-251.8" font-family="Helvetica,sans-Serif" font-size="11.00" fill="#000000">[table]</text>
<polygon fill="none" stroke="#000000" points="444,-224.7 444,-243.7 567,-243.7 567,-224.7 444,-224.7"/>
<text text-anchor="start" x="447" y="-230.8" font-family="Helvetica,sans-Serif" font-size="11.00" fill="#000000">...</text>
<polygon fill="#ffffff" stroke="transparent" points="444,-205.7 444,-224.7 488,-224.7 488,-205.7 444,-205.7"/>
<polygon fill="none" stroke="#000000" points="444,-205.7 444,-224.7 488,-224.7 488,-205.7 444,-205.7"/>
<text text-anchor="start" x="447" y="-211.8" font-family="Helvetica,sans-Serif" font-size="11.00" fill="#000000">&lt; 2</text>
<polygon fill="#ffffff" stroke="transparent" points="488,-205.7 488,-224.7 543,-224.7 543,-205.7 488,-205.7"/>
<polygon fill="none" stroke="#000000" points="488,-205.7 488,-224.7 543,-224.7 543,-205.7 488,-205.7"/>
<text text-anchor="start" x="501.4956" y="-211.8" font-family="Helvetica,sans-Serif" font-size="11.00" fill="#000000">34 rows</text>
<polygon fill="#ffffff" stroke="transparent" points="543,-205.7 543,-224.7 567,-224.7 567,-205.7 543,-205.7"/>
<polygon fill="none" stroke="#000000" points="543,-205.7 543,-224.7 567,-224.7 567,-205.7 543,-205.7"/>
<text text-anchor="start" x="557.8862" y="-211.8" font-family="Helvetica,sans-Serif" font-size="11.00" fill="#000000"> &#160;</text>
</a>
</g>
</g>
<!-- entite_geol_qcm&#45;&gt;entite_geol -->
<g id="edge7" class="edge">
<title>entite_geol_qcm:w&#45;&gt;entite_geol:e</title>
<path fill="none" stroke="#000000" d="M429.5059,-233.7456C399.7255,-233.9412 387.3137,-234.7 351.5,-234.7"/>
<polygon fill="#000000" stroke="#000000" points="436,-233.7252 444.0113,-237.3 440,-233.7126 444,-233.7 444,-233.7 444,-233.7 440,-233.7126 443.9887,-230.1 436,-233.7252 436,-233.7252"/>
<ellipse fill="none" stroke="#000000" cx="432.8001" cy="-233.7353" rx="3.2" ry="3.2"/>
</g>
<!-- photo -->
<g id="node9" class="node">
<title>photo</title>
<g id="a_node9"><a xlink:href="../../tables/photo.html" xlink:title="photo" target="_top">
<polygon fill="#ffffff" stroke="transparent" points="466.5,-41.2 466.5,-102.2 543.5,-102.2 543.5,-41.2 466.5,-41.2"/>
<polygon fill="#f5f5f5" stroke="transparent" points="467,-78.7 467,-101.7 544,-101.7 544,-78.7 467,-78.7"/>
<polygon fill="none" stroke="#000000" points="467,-78.7 467,-101.7 544,-101.7 544,-78.7 467,-78.7"/>
<text text-anchor="start" x="472" y="-87.8" font-family="Helvetica,sans-Serif" font-weight="bold" font-size="11.00" fill="#000000">photo</text>
<text text-anchor="start" x="509.0437" y="-86.8" font-family="Helvetica,sans-Serif" font-size="11.00" fill="#000000">[table]</text>
<polygon fill="none" stroke="#000000" points="467,-59.7 467,-78.7 544,-78.7 544,-59.7 467,-59.7"/>
<text text-anchor="start" x="470" y="-65.8" font-family="Helvetica,sans-Serif" font-size="11.00" fill="#000000">...</text>
<polygon fill="#ffffff" stroke="transparent" points="467,-40.7 467,-59.7 488,-59.7 488,-40.7 467,-40.7"/>
<polygon fill="none" stroke="#000000" points="467,-40.7 467,-59.7 488,-59.7 488,-40.7 467,-40.7"/>
<text text-anchor="start" x="469.7027" y="-46.8" font-family="Helvetica,sans-Serif" font-size="11.00" fill="#000000">&lt; 2</text>
<polygon fill="#ffffff" stroke="transparent" points="488,-40.7 488,-59.7 532,-59.7 532,-40.7 488,-40.7"/>
<polygon fill="none" stroke="#000000" points="488,-40.7 488,-59.7 532,-59.7 532,-40.7 488,-40.7"/>
<text text-anchor="start" x="490.7478" y="-46.8" font-family="Helvetica,sans-Serif" font-size="11.00" fill="#000000">10 rows</text>
<polygon fill="#ffffff" stroke="transparent" points="532,-40.7 532,-59.7 544,-59.7 544,-40.7 532,-40.7"/>
<polygon fill="none" stroke="#000000" points="532,-40.7 532,-59.7 544,-59.7 544,-40.7 532,-40.7"/>
<text text-anchor="start" x="534.9431" y="-46.8" font-family="Helvetica,sans-Serif" font-size="11.00" fill="#000000"> &#160;</text>
</a>
</g>
</g>
<!-- photo&#45;&gt;entite_geol -->
<g id="edge8" class="edge">
<title>photo:w&#45;&gt;entite_geol:e</title>
<path fill="none" stroke="#000000" d="M452.4737,-69.5263C424.67,-73.0094 413.0146,-87.5361 392,-113.7 356.4875,-157.9144 408.2102,-234.7 351.5,-234.7"/>
<polygon fill="#000000" stroke="#000000" points="459.0129,-69.1544 467.2045,-72.2942 463.0065,-68.9272 467,-68.7 467,-68.7 467,-68.7 463.0065,-68.9272 466.7955,-65.1058 459.0129,-69.1544 459.0129,-69.1544"/>
<ellipse fill="none" stroke="#000000" cx="455.8181" cy="-69.3361" rx="3.2" ry="3.2"/>
</g>
<!-- photo&#45;&gt;site -->
<g id="edge9" class="edge">
<title>photo:w&#45;&gt;site:e</title>
<path fill="none" stroke="#000000" d="M452.527,-68.6914C306.4106,-68.5154 264.5679,-65.7 111.5,-65.7"/>
<polygon fill="#000000" stroke="#000000" points="459,-68.6952 466.9978,-72.3 463,-68.6976 467,-68.7 467,-68.7 467,-68.7 463,-68.6976 467.0022,-65.1 459,-68.6952 459,-68.6952"/>
<ellipse fill="none" stroke="#000000" cx="455.8" cy="-68.6933" rx="3.2" ry="3.2"/>
</g>
</g>
</svg>
