<?xml version="1.0" encoding="UTF-8" standalone="no"?>
<!DOCTYPE svg PUBLIC "-//W3C//DTD SVG 1.1//EN"
 "http://www.w3.org/Graphics/SVG/1.1/DTD/svg11.dtd">
<!-- Generated by graphviz version 2.40.1 (20161225.0304)
 -->
<!-- Title: oneDegreeRelationshipsDiagram Pages: 1 -->
<svg width="426pt" height="245pt"
 viewBox="0.00 0.00 426.00 244.70" xmlns="http://www.w3.org/2000/svg" xmlns:xlink="http://www.w3.org/1999/xlink">
<g id="graph0" class="graph" transform="scale(1 1) rotate(0) translate(4 240.7)">
<title>oneDegreeRelationshipsDiagram</title>
<polygon fill="#ffffff" stroke="transparent" points="-4,4 -4,-240.7 422,-240.7 422,4 -4,4"/>
<text text-anchor="middle" x="72.4936" y="-7.3" font-family="Helvetica,sans-Serif" font-size="11.00" fill="#000000">Generated by SchemaSpy</text>
<!-- commentaire -->
<g id="node1" class="node">
<title>commentaire</title>
<g id="a_node1"><a xlink:href="../../tables/commentaire.html" xlink:title="commentaire" target="_top">
<polygon fill="#ffffff" stroke="transparent" points="221,-98.7 221,-232.7 410,-232.7 410,-98.7 221,-98.7"/>
<polygon fill="#f5f5f5" stroke="transparent" points="223.5,-207.7 223.5,-230.7 408.5,-230.7 408.5,-207.7 223.5,-207.7"/>
<polygon fill="none" stroke="#000000" points="223.5,-207.7 223.5,-230.7 408.5,-230.7 408.5,-207.7 223.5,-207.7"/>
<text text-anchor="start" x="228.5" y="-216.8" font-family="Helvetica,sans-Serif" font-weight="bold" font-size="11.00" fill="#000000">commentaire</text>
<text text-anchor="start" x="373.5437" y="-215.8" font-family="Helvetica,sans-Serif" font-size="11.00" fill="#000000">[table]</text>
<polygon fill="none" stroke="#000000" points="223.5,-185.7 223.5,-207.7 318.5,-207.7 318.5,-185.7 223.5,-185.7"/>
<image xlink:href="../../images/primaryKeys.png" width="11px" height="12px" preserveAspectRatio="xMinYMin meet" x="228.5" y="-202.7"/>
<text text-anchor="start" x="243.5" y="-192.8" font-family="Helvetica,sans-Serif" font-size="11.00" fill="#000000">id</text>
<polygon fill="none" stroke="#000000" points="318.5,-185.7 318.5,-207.7 408.5,-207.7 408.5,-185.7 318.5,-185.7"/>
<text text-anchor="start" x="321.5" y="-193.4" font-family="Helvetica,sans-Serif" font-size="11.00" fill="#000000">serial[10]</text>
<polygon fill="none" stroke="#000000" points="223.5,-163.7 223.5,-185.7 318.5,-185.7 318.5,-163.7 223.5,-163.7"/>
<text text-anchor="start" x="243.5" y="-170.8" font-family="Helvetica,sans-Serif" font-size="11.00" fill="#000000">rubrique</text>
<polygon fill="none" stroke="#000000" points="318.5,-163.7 318.5,-185.7 408.5,-185.7 408.5,-163.7 318.5,-163.7"/>
<text text-anchor="start" x="321.5" y="-171.4" font-family="Helvetica,sans-Serif" font-size="11.00" fill="#000000">varchar[50]</text>
<polygon fill="none" stroke="#000000" points="223.5,-141.7 223.5,-163.7 318.5,-163.7 318.5,-141.7 223.5,-141.7"/>
<text text-anchor="start" x="243.5" y="-148.8" font-family="Helvetica,sans-Serif" font-size="11.00" fill="#000000">commentaire</text>
<polygon fill="none" stroke="#000000" points="318.5,-141.7 318.5,-163.7 408.5,-163.7 408.5,-141.7 318.5,-141.7"/>
<text text-anchor="start" x="321.0043" y="-149.4" font-family="Helvetica,sans-Serif" font-size="11.00" fill="#000000">text[2147483647]</text>
<polygon fill="#ffffff" stroke="transparent" points="223.5,-119.7 223.5,-141.7 318.5,-141.7 318.5,-119.7 223.5,-119.7"/>
<polygon fill="none" stroke="#000000" points="223.5,-119.7 223.5,-141.7 318.5,-141.7 318.5,-119.7 223.5,-119.7"/>
<image xlink:href="../../images/foreignKeys.png" width="11px" height="12px" preserveAspectRatio="xMinYMin meet" x="228.5" y="-136.7"/>
<text text-anchor="start" x="243.5" y="-126.8" font-family="Helvetica,sans-Serif" font-size="11.00" fill="#000000">site_id</text>
<polygon fill="none" stroke="#000000" points="318.5,-119.7 318.5,-141.7 408.5,-141.7 408.5,-119.7 318.5,-119.7"/>
<text text-anchor="start" x="321.5" y="-127.4" font-family="Helvetica,sans-Serif" font-size="11.00" fill="#000000">int4[10]</text>
<polygon fill="#ffffff" stroke="transparent" points="223.5,-100.7 223.5,-119.7 262.5,-119.7 262.5,-100.7 223.5,-100.7"/>
<polygon fill="none" stroke="#000000" points="223.5,-100.7 223.5,-119.7 262.5,-119.7 262.5,-100.7 223.5,-100.7"/>
<text text-anchor="start" x="226.5" y="-106.8" font-family="Helvetica,sans-Serif" font-size="11.00" fill="#000000">&lt; 1</text>
<polygon fill="#ffffff" stroke="transparent" points="262.5,-100.7 262.5,-119.7 318.5,-119.7 318.5,-100.7 262.5,-100.7"/>
<polygon fill="none" stroke="#000000" points="262.5,-100.7 262.5,-119.7 318.5,-119.7 318.5,-100.7 262.5,-100.7"/>
<text text-anchor="start" x="283.1105" y="-106.8" font-family="Helvetica,sans-Serif" font-size="11.00" fill="#000000">2 rows</text>
<polygon fill="#ffffff" stroke="transparent" points="318.5,-100.7 318.5,-119.7 408.5,-119.7 408.5,-100.7 318.5,-100.7"/>
<polygon fill="none" stroke="#000000" points="318.5,-100.7 318.5,-119.7 408.5,-119.7 408.5,-100.7 318.5,-100.7"/>
<text text-anchor="start" x="389.9053" y="-106.8" font-family="Helvetica,sans-Serif" font-size="11.00" fill="#000000">0 &gt;</text>
<polygon fill="none" stroke="#000000" stroke-width="2" points="222,-99.7 222,-231.7 409,-231.7 409,-99.7 222,-99.7"/>
</a>
</g>
</g>
<!-- site -->
<g id="node2" class="node">
<title>site</title>
<g id="a_node2"><a xlink:href="../../tables/site.html" xlink:title="site" target="_top">
<polygon fill="#ffffff" stroke="transparent" points="8,-38.2 8,-165.2 172,-165.2 172,-38.2 8,-38.2"/>
<polygon fill="#f5f5f5" stroke="transparent" points="8,-141.7 8,-164.7 172,-164.7 172,-141.7 8,-141.7"/>
<polygon fill="none" stroke="#000000" points="8,-141.7 8,-164.7 172,-164.7 172,-141.7 8,-141.7"/>
<text text-anchor="start" x="13" y="-150.8" font-family="Helvetica,sans-Serif" font-weight="bold" font-size="11.00" fill="#000000">site</text>
<text text-anchor="start" x="137.0437" y="-149.8" font-family="Helvetica,sans-Serif" font-size="11.00" fill="#000000">[table]</text>
<polygon fill="none" stroke="#000000" points="8,-119.7 8,-141.7 172,-141.7 172,-119.7 8,-119.7"/>
<image xlink:href="../../images/primaryKeys.png" width="11px" height="12px" preserveAspectRatio="xMinYMin meet" x="13" y="-136.7"/>
<text text-anchor="start" x="28" y="-126.8" font-family="Helvetica,sans-Serif" font-size="11.00" fill="#000000">id</text>
<polygon fill="#ffffff" stroke="transparent" points="8,-97.7 8,-119.7 172,-119.7 172,-97.7 8,-97.7"/>
<polygon fill="none" stroke="#000000" points="8,-97.7 8,-119.7 172,-119.7 172,-97.7 8,-97.7"/>
<text text-anchor="start" x="28" y="-104.8" font-family="Helvetica,sans-Serif" font-size="11.00" fill="#000000">geom</text>
<polygon fill="#ffffff" stroke="transparent" points="8,-75.7 8,-97.7 172,-97.7 172,-75.7 8,-75.7"/>
<polygon fill="none" stroke="#000000" points="8,-75.7 8,-97.7 172,-97.7 172,-75.7 8,-75.7"/>
<image xlink:href="../../images/foreignKeys.png" width="11px" height="12px" preserveAspectRatio="xMinYMin meet" x="13" y="-92.7"/>
<text text-anchor="start" x="28" y="-82.8" font-family="Helvetica,sans-Serif" font-size="11.00" fill="#000000">ep_id</text>
<polygon fill="none" stroke="#000000" points="8,-56.7 8,-75.7 172,-75.7 172,-56.7 8,-56.7"/>
<text text-anchor="start" x="11" y="-62.8" font-family="Helvetica,sans-Serif" font-size="11.00" fill="#000000">...</text>
<polygon fill="#ffffff" stroke="transparent" points="8,-37.7 8,-56.7 68,-56.7 68,-37.7 8,-37.7"/>
<polygon fill="none" stroke="#000000" points="8,-37.7 8,-56.7 68,-56.7 68,-37.7 8,-37.7"/>
<text text-anchor="start" x="11" y="-43.8" font-family="Helvetica,sans-Serif" font-size="11.00" fill="#000000">&lt; 1</text>
<polygon fill="#ffffff" stroke="transparent" points="68,-37.7 68,-56.7 131,-56.7 131,-37.7 68,-37.7"/>
<polygon fill="none" stroke="#000000" points="68,-37.7 68,-56.7 131,-56.7 131,-37.7 68,-37.7"/>
<text text-anchor="start" x="89.4956" y="-43.8" font-family="Helvetica,sans-Serif" font-size="11.00" fill="#000000">10 rows</text>
<polygon fill="#ffffff" stroke="transparent" points="131,-37.7 131,-56.7 172,-56.7 172,-37.7 131,-37.7"/>
<polygon fill="none" stroke="#000000" points="131,-37.7 131,-56.7 172,-56.7 172,-37.7 131,-37.7"/>
<text text-anchor="start" x="153.4053" y="-43.8" font-family="Helvetica,sans-Serif" font-size="11.00" fill="#000000">5 &gt;</text>
</a>
</g>
</g>
<!-- commentaire&#45;&gt;site -->
<g id="edge1" class="edge">
<title>commentaire:w&#45;&gt;site:e</title>
<path fill="none" stroke="#000000" d="M209.0156,-130.7C196.6771,-130.7 189.1667,-130.7 172,-130.7"/>
<polygon fill="#000000" stroke="#000000" points="215.5,-130.7001 223.5,-134.3 219.5,-130.7 223.5,-130.7 223.5,-130.7 223.5,-130.7 219.5,-130.7 223.5,-127.1 215.5,-130.7001 215.5,-130.7001"/>
<ellipse fill="none" stroke="#000000" cx="212.3" cy="-130.7001" rx="3.2" ry="3.2"/>
</g>
</g>
</svg>
