<?xml version="1.0" encoding="UTF-8" standalone="no"?>
<!DOCTYPE svg PUBLIC "-//W3C//DTD SVG 1.1//EN"
 "http://www.w3.org/Graphics/SVG/1.1/DTD/svg11.dtd">
<!-- Generated by graphviz version 2.40.1 (20161225.0304)
 -->
<!-- Title: oneDegreeRelationshipsDiagram Pages: 1 -->
<svg width="452pt" height="289pt"
 viewBox="0.00 0.00 452.00 288.70" xmlns="http://www.w3.org/2000/svg" xmlns:xlink="http://www.w3.org/1999/xlink">
<g id="graph0" class="graph" transform="scale(1 1) rotate(0) translate(4 284.7)">
<title>oneDegreeRelationshipsDiagram</title>
<polygon fill="#ffffff" stroke="transparent" points="-4,4 -4,-284.7 448,-284.7 448,4 -4,4"/>
<text text-anchor="middle" x="72.4936" y="-7.3" font-family="Helvetica,sans-Serif" font-size="11.00" fill="#000000">Generated by SchemaSpy</text>
<!-- complement_eg -->
<g id="node1" class="node">
<title>complement_eg</title>
<g id="a_node1"><a xlink:href="../../tables/complement_eg.html" xlink:title="complement_eg" target="_top">
<polygon fill="#ffffff" stroke="transparent" points="230,-142.7 230,-276.7 436,-276.7 436,-142.7 230,-142.7"/>
<polygon fill="#f5f5f5" stroke="transparent" points="232,-251.7 232,-274.7 434,-274.7 434,-251.7 232,-251.7"/>
<polygon fill="none" stroke="#000000" points="232,-251.7 232,-274.7 434,-274.7 434,-251.7 232,-251.7"/>
<text text-anchor="start" x="237" y="-260.8" font-family="Helvetica,sans-Serif" font-weight="bold" font-size="11.00" fill="#000000">complement_eg</text>
<text text-anchor="start" x="399.0437" y="-259.8" font-family="Helvetica,sans-Serif" font-size="11.00" fill="#000000">[table]</text>
<polygon fill="none" stroke="#000000" points="232,-229.7 232,-251.7 344,-251.7 344,-229.7 232,-229.7"/>
<image xlink:href="../../images/primaryKeys.png" width="11px" height="12px" preserveAspectRatio="xMinYMin meet" x="237" y="-246.7"/>
<text text-anchor="start" x="252" y="-236.8" font-family="Helvetica,sans-Serif" font-size="11.00" fill="#000000">id</text>
<polygon fill="none" stroke="#000000" points="344,-229.7 344,-251.7 434,-251.7 434,-229.7 344,-229.7"/>
<text text-anchor="start" x="347" y="-237.4" font-family="Helvetica,sans-Serif" font-size="11.00" fill="#000000">serial[10]</text>
<polygon fill="none" stroke="#000000" points="232,-207.7 232,-229.7 344,-229.7 344,-207.7 232,-207.7"/>
<text text-anchor="start" x="252" y="-214.8" font-family="Helvetica,sans-Serif" font-size="11.00" fill="#000000">question</text>
<polygon fill="none" stroke="#000000" points="344,-207.7 344,-229.7 434,-229.7 434,-207.7 344,-207.7"/>
<text text-anchor="start" x="347" y="-215.4" font-family="Helvetica,sans-Serif" font-size="11.00" fill="#000000">varchar[15]</text>
<polygon fill="none" stroke="#000000" points="232,-185.7 232,-207.7 344,-207.7 344,-185.7 232,-185.7"/>
<text text-anchor="start" x="252" y="-192.8" font-family="Helvetica,sans-Serif" font-size="11.00" fill="#000000">elements</text>
<polygon fill="none" stroke="#000000" points="344,-185.7 344,-207.7 434,-207.7 434,-185.7 344,-185.7"/>
<text text-anchor="start" x="346.5043" y="-193.4" font-family="Helvetica,sans-Serif" font-size="11.00" fill="#000000">text[2147483647]</text>
<polygon fill="#ffffff" stroke="transparent" points="232,-163.7 232,-185.7 344,-185.7 344,-163.7 232,-163.7"/>
<polygon fill="none" stroke="#000000" points="232,-163.7 232,-185.7 344,-185.7 344,-163.7 232,-163.7"/>
<image xlink:href="../../images/foreignKeys.png" width="11px" height="12px" preserveAspectRatio="xMinYMin meet" x="237" y="-180.7"/>
<text text-anchor="start" x="252" y="-170.8" font-family="Helvetica,sans-Serif" font-size="11.00" fill="#000000">entite_geol_id</text>
<polygon fill="none" stroke="#000000" points="344,-163.7 344,-185.7 434,-185.7 434,-163.7 344,-163.7"/>
<text text-anchor="start" x="347" y="-171.4" font-family="Helvetica,sans-Serif" font-size="11.00" fill="#000000">int4[10]</text>
<polygon fill="#ffffff" stroke="transparent" points="232,-144.7 232,-163.7 279,-163.7 279,-144.7 232,-144.7"/>
<polygon fill="none" stroke="#000000" points="232,-144.7 232,-163.7 279,-163.7 279,-144.7 232,-144.7"/>
<text text-anchor="start" x="235" y="-150.8" font-family="Helvetica,sans-Serif" font-size="11.00" fill="#000000">&lt; 1</text>
<polygon fill="#ffffff" stroke="transparent" points="279,-144.7 279,-163.7 344,-163.7 344,-144.7 279,-144.7"/>
<polygon fill="none" stroke="#000000" points="279,-144.7 279,-163.7 344,-163.7 344,-144.7 279,-144.7"/>
<text text-anchor="start" x="308.6105" y="-150.8" font-family="Helvetica,sans-Serif" font-size="11.00" fill="#000000">2 rows</text>
<polygon fill="#ffffff" stroke="transparent" points="344,-144.7 344,-163.7 434,-163.7 434,-144.7 344,-144.7"/>
<polygon fill="none" stroke="#000000" points="344,-144.7 344,-163.7 434,-163.7 434,-144.7 344,-144.7"/>
<text text-anchor="start" x="415.4053" y="-150.8" font-family="Helvetica,sans-Serif" font-size="11.00" fill="#000000">0 &gt;</text>
<polygon fill="none" stroke="#000000" stroke-width="2" points="231,-143.7 231,-275.7 435,-275.7 435,-143.7 231,-143.7"/>
</a>
</g>
</g>
<!-- entite_geol -->
<g id="node2" class="node">
<title>entite_geol</title>
<g id="a_node2"><a xlink:href="../../tables/entite_geol.html" xlink:title="entite_geol" target="_top">
<polygon fill="#ffffff" stroke="transparent" points="8,-38.2 8,-209.2 181,-209.2 181,-38.2 8,-38.2"/>
<polygon fill="#f5f5f5" stroke="transparent" points="8.5,-185.7 8.5,-208.7 181.5,-208.7 181.5,-185.7 8.5,-185.7"/>
<polygon fill="none" stroke="#000000" points="8.5,-185.7 8.5,-208.7 181.5,-208.7 181.5,-185.7 8.5,-185.7"/>
<text text-anchor="start" x="13.5" y="-194.8" font-family="Helvetica,sans-Serif" font-weight="bold" font-size="11.00" fill="#000000">entite_geol</text>
<text text-anchor="start" x="146.5437" y="-193.8" font-family="Helvetica,sans-Serif" font-size="11.00" fill="#000000">[table]</text>
<polygon fill="none" stroke="#000000" points="8.5,-163.7 8.5,-185.7 181.5,-185.7 181.5,-163.7 8.5,-163.7"/>
<image xlink:href="../../images/primaryKeys.png" width="11px" height="12px" preserveAspectRatio="xMinYMin meet" x="13.5" y="-180.7"/>
<text text-anchor="start" x="28.5" y="-170.8" font-family="Helvetica,sans-Serif" font-size="11.00" fill="#000000">id</text>
<polygon fill="#ffffff" stroke="transparent" points="8.5,-141.7 8.5,-163.7 181.5,-163.7 181.5,-141.7 8.5,-141.7"/>
<polygon fill="none" stroke="#000000" points="8.5,-141.7 8.5,-163.7 181.5,-163.7 181.5,-141.7 8.5,-141.7"/>
<text text-anchor="start" x="28.5" y="-148.8" font-family="Helvetica,sans-Serif" font-size="11.00" fill="#000000">geom</text>
<polygon fill="#ffffff" stroke="transparent" points="8.5,-119.7 8.5,-141.7 181.5,-141.7 181.5,-119.7 8.5,-119.7"/>
<polygon fill="none" stroke="#000000" points="8.5,-119.7 8.5,-141.7 181.5,-141.7 181.5,-119.7 8.5,-119.7"/>
<image xlink:href="../../images/foreignKeys.png" width="11px" height="12px" preserveAspectRatio="xMinYMin meet" x="13.5" y="-136.7"/>
<text text-anchor="start" x="28.5" y="-126.8" font-family="Helvetica,sans-Serif" font-size="11.00" fill="#000000">ere_geol_id</text>
<polygon fill="#ffffff" stroke="transparent" points="8.5,-97.7 8.5,-119.7 181.5,-119.7 181.5,-97.7 8.5,-97.7"/>
<polygon fill="none" stroke="#000000" points="8.5,-97.7 8.5,-119.7 181.5,-119.7 181.5,-97.7 8.5,-97.7"/>
<image xlink:href="../../images/foreignKeys.png" width="11px" height="12px" preserveAspectRatio="xMinYMin meet" x="13.5" y="-114.7"/>
<text text-anchor="start" x="28.5" y="-104.8" font-family="Helvetica,sans-Serif" font-size="11.00" fill="#000000">site_id</text>
<polygon fill="#ffffff" stroke="transparent" points="8.5,-75.7 8.5,-97.7 181.5,-97.7 181.5,-75.7 8.5,-75.7"/>
<polygon fill="none" stroke="#000000" points="8.5,-75.7 8.5,-97.7 181.5,-97.7 181.5,-75.7 8.5,-75.7"/>
<image xlink:href="../../images/foreignKeys.png" width="11px" height="12px" preserveAspectRatio="xMinYMin meet" x="13.5" y="-92.7"/>
<text text-anchor="start" x="28.5" y="-82.8" font-family="Helvetica,sans-Serif" font-size="11.00" fill="#000000">s_fgeol_id</text>
<polygon fill="none" stroke="#000000" points="8.5,-56.7 8.5,-75.7 181.5,-75.7 181.5,-56.7 8.5,-56.7"/>
<text text-anchor="start" x="11.5" y="-62.8" font-family="Helvetica,sans-Serif" font-size="11.00" fill="#000000">...</text>
<polygon fill="#ffffff" stroke="transparent" points="8.5,-37.7 8.5,-56.7 72.5,-56.7 72.5,-37.7 8.5,-37.7"/>
<polygon fill="none" stroke="#000000" points="8.5,-37.7 8.5,-56.7 72.5,-56.7 72.5,-37.7 8.5,-37.7"/>
<text text-anchor="start" x="11.5" y="-43.8" font-family="Helvetica,sans-Serif" font-size="11.00" fill="#000000">&lt; 3</text>
<polygon fill="#ffffff" stroke="transparent" points="72.5,-37.7 72.5,-56.7 138.5,-56.7 138.5,-37.7 72.5,-37.7"/>
<polygon fill="none" stroke="#000000" points="72.5,-37.7 72.5,-56.7 138.5,-56.7 138.5,-37.7 72.5,-37.7"/>
<text text-anchor="start" x="96.9956" y="-43.8" font-family="Helvetica,sans-Serif" font-size="11.00" fill="#000000">24 rows</text>
<polygon fill="#ffffff" stroke="transparent" points="138.5,-37.7 138.5,-56.7 181.5,-56.7 181.5,-37.7 138.5,-37.7"/>
<polygon fill="none" stroke="#000000" points="138.5,-37.7 138.5,-56.7 181.5,-56.7 181.5,-37.7 138.5,-37.7"/>
<text text-anchor="start" x="162.9053" y="-43.8" font-family="Helvetica,sans-Serif" font-size="11.00" fill="#000000">5 &gt;</text>
</a>
</g>
</g>
<!-- complement_eg&#45;&gt;entite_geol -->
<g id="edge1" class="edge">
<title>complement_eg:w&#45;&gt;entite_geol:e</title>
<path fill="none" stroke="#000000" d="M217.4203,-174.7C205.5435,-174.7 198.158,-174.7 181.5,-174.7"/>
<polygon fill="#000000" stroke="#000000" points="224,-174.7001 232,-178.3 228,-174.7 232,-174.7 232,-174.7 232,-174.7 228,-174.7 232,-171.1 224,-174.7001 224,-174.7001"/>
<ellipse fill="none" stroke="#000000" cx="220.8" cy="-174.7001" rx="3.2" ry="3.2"/>
</g>
</g>
</svg>
