<?xml version="1.0" encoding="UTF-8" standalone="no"?>
<!DOCTYPE svg PUBLIC "-//W3C//DTD SVG 1.1//EN"
 "http://www.w3.org/Graphics/SVG/1.1/DTD/svg11.dtd">
<!-- Generated by graphviz version 2.40.1 (20161225.0304)
 -->
<!-- Title: twoDegreesRelationshipsDiagram Pages: 1 -->
<svg width="622pt" height="517pt"
 viewBox="0.00 0.00 622.00 517.20" xmlns="http://www.w3.org/2000/svg" xmlns:xlink="http://www.w3.org/1999/xlink">
<g id="graph0" class="graph" transform="scale(1 1) rotate(0) translate(4 513.2)">
<title>twoDegreesRelationshipsDiagram</title>
<polygon fill="#ffffff" stroke="transparent" points="-4,4 -4,-513.2 618,-513.2 618,4 -4,4"/>
<text text-anchor="middle" x="72.4936" y="-7.3" font-family="Helvetica,sans-Serif" font-size="11.00" fill="#000000">Generated by SchemaSpy</text>
<!-- affleurement -->
<g id="node1" class="node">
<title>affleurement</title>
<g id="a_node1"><a xlink:href="../../tables/affleurement.html" xlink:title="affleurement" target="_top">
<polygon fill="#ffffff" stroke="transparent" points="451,-124.2 451,-185.2 555,-185.2 555,-124.2 451,-124.2"/>
<polygon fill="#f5f5f5" stroke="transparent" points="451,-161.7 451,-184.7 555,-184.7 555,-161.7 451,-161.7"/>
<polygon fill="none" stroke="#000000" points="451,-161.7 451,-184.7 555,-184.7 555,-161.7 451,-161.7"/>
<text text-anchor="start" x="455.9376" y="-170.8" font-family="Helvetica,sans-Serif" font-weight="bold" font-size="11.00" fill="#000000">affleurement</text>
<text text-anchor="start" x="520.5219" y="-169.8" font-family="Helvetica,sans-Serif" font-size="11.00" fill="#000000">[table]</text>
<polygon fill="none" stroke="#000000" points="451,-142.7 451,-161.7 555,-161.7 555,-142.7 451,-142.7"/>
<text text-anchor="start" x="454" y="-148.8" font-family="Helvetica,sans-Serif" font-size="11.00" fill="#000000">...</text>
<polygon fill="#ffffff" stroke="transparent" points="451,-123.7 451,-142.7 488,-142.7 488,-123.7 451,-123.7"/>
<polygon fill="none" stroke="#000000" points="451,-123.7 451,-142.7 488,-142.7 488,-123.7 451,-123.7"/>
<text text-anchor="start" x="454" y="-129.8" font-family="Helvetica,sans-Serif" font-size="11.00" fill="#000000">&lt; 1</text>
<polygon fill="#ffffff" stroke="transparent" points="488,-123.7 488,-142.7 534,-142.7 534,-123.7 488,-123.7"/>
<polygon fill="none" stroke="#000000" points="488,-123.7 488,-142.7 534,-142.7 534,-123.7 488,-123.7"/>
<text text-anchor="start" x="498.6105" y="-129.8" font-family="Helvetica,sans-Serif" font-size="11.00" fill="#000000">9 rows</text>
<polygon fill="#ffffff" stroke="transparent" points="534,-123.7 534,-142.7 555,-142.7 555,-123.7 534,-123.7"/>
<polygon fill="none" stroke="#000000" points="534,-123.7 534,-142.7 555,-142.7 555,-123.7 534,-123.7"/>
<text text-anchor="start" x="545.8862" y="-129.8" font-family="Helvetica,sans-Serif" font-size="11.00" fill="#000000"> &#160;</text>
</a>
</g>
</g>
<!-- entite_geol -->
<g id="node2" class="node">
<title>entite_geol</title>
<g id="a_node2"><a xlink:href="../../tables/entite_geol.html" xlink:title="entite_geol" target="_top">
<polygon fill="#ffffff" stroke="transparent" points="178,-98.2 178,-269.2 351,-269.2 351,-98.2 178,-98.2"/>
<polygon fill="#f5f5f5" stroke="transparent" points="178.5,-245.7 178.5,-268.7 351.5,-268.7 351.5,-245.7 178.5,-245.7"/>
<polygon fill="none" stroke="#000000" points="178.5,-245.7 178.5,-268.7 351.5,-268.7 351.5,-245.7 178.5,-245.7"/>
<text text-anchor="start" x="183.5" y="-254.8" font-family="Helvetica,sans-Serif" font-weight="bold" font-size="11.00" fill="#000000">entite_geol</text>
<text text-anchor="start" x="316.5437" y="-253.8" font-family="Helvetica,sans-Serif" font-size="11.00" fill="#000000">[table]</text>
<polygon fill="none" stroke="#000000" points="178.5,-223.7 178.5,-245.7 351.5,-245.7 351.5,-223.7 178.5,-223.7"/>
<image xlink:href="../../images/primaryKeys.png" width="11px" height="12px" preserveAspectRatio="xMinYMin meet" x="183.5" y="-240.7"/>
<text text-anchor="start" x="198.5" y="-230.8" font-family="Helvetica,sans-Serif" font-size="11.00" fill="#000000">id</text>
<polygon fill="#ffffff" stroke="transparent" points="178.5,-201.7 178.5,-223.7 351.5,-223.7 351.5,-201.7 178.5,-201.7"/>
<polygon fill="none" stroke="#000000" points="178.5,-201.7 178.5,-223.7 351.5,-223.7 351.5,-201.7 178.5,-201.7"/>
<text text-anchor="start" x="198.5" y="-208.8" font-family="Helvetica,sans-Serif" font-size="11.00" fill="#000000">geom</text>
<polygon fill="#ffffff" stroke="transparent" points="178.5,-179.7 178.5,-201.7 351.5,-201.7 351.5,-179.7 178.5,-179.7"/>
<polygon fill="none" stroke="#000000" points="178.5,-179.7 178.5,-201.7 351.5,-201.7 351.5,-179.7 178.5,-179.7"/>
<image xlink:href="../../images/foreignKeys.png" width="11px" height="12px" preserveAspectRatio="xMinYMin meet" x="183.5" y="-196.7"/>
<text text-anchor="start" x="198.5" y="-186.8" font-family="Helvetica,sans-Serif" font-size="11.00" fill="#000000">ere_geol_id</text>
<polygon fill="#ffffff" stroke="transparent" points="178.5,-157.7 178.5,-179.7 351.5,-179.7 351.5,-157.7 178.5,-157.7"/>
<polygon fill="none" stroke="#000000" points="178.5,-157.7 178.5,-179.7 351.5,-179.7 351.5,-157.7 178.5,-157.7"/>
<image xlink:href="../../images/foreignKeys.png" width="11px" height="12px" preserveAspectRatio="xMinYMin meet" x="183.5" y="-174.7"/>
<text text-anchor="start" x="198.5" y="-164.8" font-family="Helvetica,sans-Serif" font-size="11.00" fill="#000000">site_id</text>
<polygon fill="#ffffff" stroke="transparent" points="178.5,-135.7 178.5,-157.7 351.5,-157.7 351.5,-135.7 178.5,-135.7"/>
<polygon fill="none" stroke="#000000" points="178.5,-135.7 178.5,-157.7 351.5,-157.7 351.5,-135.7 178.5,-135.7"/>
<image xlink:href="../../images/foreignKeys.png" width="11px" height="12px" preserveAspectRatio="xMinYMin meet" x="183.5" y="-152.7"/>
<text text-anchor="start" x="198.5" y="-142.8" font-family="Helvetica,sans-Serif" font-size="11.00" fill="#000000">s_fgeol_id</text>
<polygon fill="none" stroke="#000000" points="178.5,-116.7 178.5,-135.7 351.5,-135.7 351.5,-116.7 178.5,-116.7"/>
<text text-anchor="start" x="181.5" y="-122.8" font-family="Helvetica,sans-Serif" font-size="11.00" fill="#000000">...</text>
<polygon fill="#ffffff" stroke="transparent" points="178.5,-97.7 178.5,-116.7 242.5,-116.7 242.5,-97.7 178.5,-97.7"/>
<polygon fill="none" stroke="#000000" points="178.5,-97.7 178.5,-116.7 242.5,-116.7 242.5,-97.7 178.5,-97.7"/>
<text text-anchor="start" x="181.5" y="-103.8" font-family="Helvetica,sans-Serif" font-size="11.00" fill="#000000">&lt; 3</text>
<polygon fill="#ffffff" stroke="transparent" points="242.5,-97.7 242.5,-116.7 308.5,-116.7 308.5,-97.7 242.5,-97.7"/>
<polygon fill="none" stroke="#000000" points="242.5,-97.7 242.5,-116.7 308.5,-116.7 308.5,-97.7 242.5,-97.7"/>
<text text-anchor="start" x="266.9956" y="-103.8" font-family="Helvetica,sans-Serif" font-size="11.00" fill="#000000">24 rows</text>
<polygon fill="#ffffff" stroke="transparent" points="308.5,-97.7 308.5,-116.7 351.5,-116.7 351.5,-97.7 308.5,-97.7"/>
<polygon fill="none" stroke="#000000" points="308.5,-97.7 308.5,-116.7 351.5,-116.7 351.5,-97.7 308.5,-97.7"/>
<text text-anchor="start" x="332.9053" y="-103.8" font-family="Helvetica,sans-Serif" font-size="11.00" fill="#000000">5 &gt;</text>
</a>
</g>
</g>
<!-- affleurement&#45;&gt;entite_geol -->
<g id="edge1" class="edge">
<title>affleurement:w&#45;&gt;entite_geol:e</title>
<path fill="none" stroke="#000000" d="M436.6338,-153.5993C417.1287,-159.5003 412.6548,-178.1731 392,-195.7 372.9465,-211.8681 376.4889,-234.7 351.5,-234.7"/>
<polygon fill="#000000" stroke="#000000" points="443.069,-152.7486 451.4719,-155.2689 447.0345,-152.2243 451,-151.7 451,-151.7 451,-151.7 447.0345,-152.2243 450.5281,-148.1311 443.069,-152.7486 443.069,-152.7486"/>
<ellipse fill="none" stroke="#000000" cx="439.8966" cy="-153.168" rx="3.2" ry="3.2"/>
</g>
<!-- echelle_geol -->
<g id="node5" class="node">
<title>echelle_geol</title>
<g id="a_node5"><a xlink:href="../../tables/echelle_geol.html" xlink:title="echelle_geol" target="_top">
<polygon fill="#ffffff" stroke="transparent" points="16.5,-202.2 16.5,-263.2 120.5,-263.2 120.5,-202.2 16.5,-202.2"/>
<polygon fill="#f5f5f5" stroke="transparent" points="16.5,-239.7 16.5,-262.7 120.5,-262.7 120.5,-239.7 16.5,-239.7"/>
<polygon fill="none" stroke="#000000" points="16.5,-239.7 16.5,-262.7 120.5,-262.7 120.5,-239.7 16.5,-239.7"/>
<text text-anchor="start" x="21.1291" y="-248.8" font-family="Helvetica,sans-Serif" font-weight="bold" font-size="11.00" fill="#000000">echelle_geol</text>
<text text-anchor="start" x="86.0219" y="-247.8" font-family="Helvetica,sans-Serif" font-size="11.00" fill="#000000">[table]</text>
<polygon fill="none" stroke="#000000" points="16.5,-220.7 16.5,-239.7 120.5,-239.7 120.5,-220.7 16.5,-220.7"/>
<text text-anchor="start" x="19.5" y="-226.8" font-family="Helvetica,sans-Serif" font-size="11.00" fill="#000000">...</text>
<polygon fill="#ffffff" stroke="transparent" points="16.5,-201.7 16.5,-220.7 46.5,-220.7 46.5,-201.7 16.5,-201.7"/>
<polygon fill="none" stroke="#000000" points="16.5,-201.7 16.5,-220.7 46.5,-220.7 46.5,-201.7 16.5,-201.7"/>
<text text-anchor="start" x="19.5" y="-207.8" font-family="Helvetica,sans-Serif" font-size="11.00" fill="#000000">&lt; 1</text>
<polygon fill="#ffffff" stroke="transparent" points="46.5,-201.7 46.5,-220.7 94.5,-220.7 94.5,-201.7 46.5,-201.7"/>
<polygon fill="none" stroke="#000000" points="46.5,-201.7 46.5,-220.7 94.5,-220.7 94.5,-201.7 46.5,-201.7"/>
<text text-anchor="start" x="52.9956" y="-207.8" font-family="Helvetica,sans-Serif" font-size="11.00" fill="#000000">74 rows</text>
<polygon fill="#ffffff" stroke="transparent" points="94.5,-201.7 94.5,-220.7 120.5,-220.7 120.5,-201.7 94.5,-201.7"/>
<polygon fill="none" stroke="#000000" points="94.5,-201.7 94.5,-220.7 120.5,-220.7 120.5,-201.7 94.5,-201.7"/>
<text text-anchor="start" x="101.9053" y="-207.8" font-family="Helvetica,sans-Serif" font-size="11.00" fill="#000000">2 &gt;</text>
</a>
</g>
</g>
<!-- entite_geol&#45;&gt;echelle_geol -->
<g id="edge4" class="edge">
<title>entite_geol:w&#45;&gt;echelle_geol:e</title>
<path fill="none" stroke="#000000" d="M164.2744,-194.2991C147.747,-203.9539 145.7391,-229.7 120.5,-229.7"/>
<polygon fill="#000000" stroke="#000000" points="170.7444,-192.6622 179.383,-194.19 174.6222,-191.6811 178.5,-190.7 178.5,-190.7 178.5,-190.7 174.6222,-191.6811 177.617,-187.21 170.7444,-192.6622 170.7444,-192.6622"/>
<ellipse fill="none" stroke="#000000" cx="167.6421" cy="-193.4471" rx="3.2" ry="3.2"/>
</g>
<!-- infoterre.s_fgeol -->
<g id="node6" class="node">
<title>infoterre.s_fgeol</title>
<g id="a_node6"><a xlink:href="../../../infoterre/tables/s_fgeol.html" xlink:title="infoterre.s_fgeol" target="_top">
<polygon fill="#ffffff" stroke="transparent" points="8,-120.2 8,-181.2 129,-181.2 129,-120.2 8,-120.2"/>
<polygon fill="#f5f5f5" stroke="transparent" points="8.5,-157.7 8.5,-180.7 129.5,-180.7 129.5,-157.7 8.5,-157.7"/>
<polygon fill="none" stroke="#000000" points="8.5,-157.7 8.5,-180.7 129.5,-180.7 129.5,-157.7 8.5,-157.7"/>
<text text-anchor="start" x="13.0738" y="-166.8" font-family="Helvetica,sans-Serif" font-weight="bold" font-size="11.00" fill="#000000">infoterre.s_fgeol</text>
<text text-anchor="start" x="95.0219" y="-165.8" font-family="Helvetica,sans-Serif" font-size="11.00" fill="#000000">[table]</text>
<polygon fill="none" stroke="#000000" points="8.5,-138.7 8.5,-157.7 129.5,-157.7 129.5,-138.7 8.5,-138.7"/>
<text text-anchor="start" x="11.5" y="-144.8" font-family="Helvetica,sans-Serif" font-size="11.00" fill="#000000">...</text>
<polygon fill="#ffffff" stroke="transparent" points="8.5,-119.7 8.5,-138.7 45.5,-138.7 45.5,-119.7 8.5,-119.7"/>
<polygon fill="none" stroke="#000000" points="8.5,-119.7 8.5,-138.7 45.5,-138.7 45.5,-119.7 8.5,-119.7"/>
<text text-anchor="start" x="11.5" y="-125.8" font-family="Helvetica,sans-Serif" font-size="11.00" fill="#000000"> &#160;</text>
<polygon fill="#ffffff" stroke="transparent" points="45.5,-119.7 45.5,-138.7 95.5,-138.7 95.5,-119.7 45.5,-119.7"/>
<polygon fill="none" stroke="#000000" points="45.5,-119.7 45.5,-138.7 95.5,-138.7 95.5,-119.7 45.5,-119.7"/>
<text text-anchor="start" x="60.1105" y="-125.8" font-family="Helvetica,sans-Serif" font-size="11.00" fill="#000000">0 rows</text>
<polygon fill="#ffffff" stroke="transparent" points="95.5,-119.7 95.5,-138.7 129.5,-138.7 129.5,-119.7 95.5,-119.7"/>
<polygon fill="none" stroke="#000000" points="95.5,-119.7 95.5,-138.7 129.5,-138.7 129.5,-119.7 95.5,-119.7"/>
<text text-anchor="start" x="110.9053" y="-125.8" font-family="Helvetica,sans-Serif" font-size="11.00" fill="#000000">1 &gt;</text>
</a>
</g>
</g>
<!-- entite_geol&#45;&gt;infoterre.s_fgeol -->
<g id="edge5" class="edge">
<title>entite_geol:w&#45;&gt;infoterre.s_fgeol:e</title>
<path fill="none" stroke="#000000" d="M163.9896,-146.8742C152.6768,-147.1607 145.4964,-147.7 129.5,-147.7"/>
<polygon fill="#000000" stroke="#000000" points="170.5006,-146.7961 178.5432,-150.2997 174.5003,-146.748 178.5,-146.7 178.5,-146.7 178.5,-146.7 174.5003,-146.748 178.4568,-143.1003 170.5006,-146.7961 170.5006,-146.7961"/>
<ellipse fill="none" stroke="#000000" cx="167.3008" cy="-146.8345" rx="3.2" ry="3.2"/>
</g>
<!-- site -->
<g id="node7" class="node">
<title>site</title>
<g id="a_node7"><a xlink:href="../../tables/site.html" xlink:title="site" target="_top">
<polygon fill="#ffffff" stroke="transparent" points="25.5,-38.2 25.5,-99.2 111.5,-99.2 111.5,-38.2 25.5,-38.2"/>
<polygon fill="#f5f5f5" stroke="transparent" points="25.5,-75.7 25.5,-98.7 111.5,-98.7 111.5,-75.7 25.5,-75.7"/>
<polygon fill="none" stroke="#000000" points="25.5,-75.7 25.5,-98.7 111.5,-98.7 111.5,-75.7 25.5,-75.7"/>
<text text-anchor="start" x="30.5" y="-84.8" font-family="Helvetica,sans-Serif" font-weight="bold" font-size="11.00" fill="#000000">site</text>
<text text-anchor="start" x="76.5437" y="-83.8" font-family="Helvetica,sans-Serif" font-size="11.00" fill="#000000">[table]</text>
<polygon fill="none" stroke="#000000" points="25.5,-56.7 25.5,-75.7 111.5,-75.7 111.5,-56.7 25.5,-56.7"/>
<text text-anchor="start" x="28.5" y="-62.8" font-family="Helvetica,sans-Serif" font-size="11.00" fill="#000000">...</text>
<polygon fill="#ffffff" stroke="transparent" points="25.5,-37.7 25.5,-56.7 46.5,-56.7 46.5,-37.7 25.5,-37.7"/>
<polygon fill="none" stroke="#000000" points="25.5,-37.7 25.5,-56.7 46.5,-56.7 46.5,-37.7 25.5,-37.7"/>
<text text-anchor="start" x="28.2027" y="-43.8" font-family="Helvetica,sans-Serif" font-size="11.00" fill="#000000">&lt; 1</text>
<polygon fill="#ffffff" stroke="transparent" points="46.5,-37.7 46.5,-56.7 90.5,-56.7 90.5,-37.7 46.5,-37.7"/>
<polygon fill="none" stroke="#000000" points="46.5,-37.7 46.5,-56.7 90.5,-56.7 90.5,-37.7 46.5,-37.7"/>
<text text-anchor="start" x="49.2478" y="-43.8" font-family="Helvetica,sans-Serif" font-size="11.00" fill="#000000">10 rows</text>
<polygon fill="#ffffff" stroke="transparent" points="90.5,-37.7 90.5,-56.7 111.5,-56.7 111.5,-37.7 90.5,-37.7"/>
<polygon fill="none" stroke="#000000" points="90.5,-37.7 90.5,-56.7 111.5,-56.7 111.5,-37.7 90.5,-37.7"/>
<text text-anchor="start" x="93.2027" y="-43.8" font-family="Helvetica,sans-Serif" font-size="11.00" fill="#000000">5 &gt;</text>
</a>
</g>
</g>
<!-- entite_geol&#45;&gt;site -->
<g id="edge6" class="edge">
<title>entite_geol:w&#45;&gt;site:e</title>
<path fill="none" stroke="#000000" d="M164.225,-165.5045C131.7183,-148.1192 160.3509,-65.7 111.5,-65.7"/>
<polygon fill="#000000" stroke="#000000" points="170.6932,-166.9524 177.7136,-172.2131 174.5966,-167.8262 178.5,-168.7 178.5,-168.7 178.5,-168.7 174.5966,-167.8262 179.2864,-165.1869 170.6932,-166.9524 170.6932,-166.9524"/>
<ellipse fill="none" stroke="#000000" cx="167.5705" cy="-166.2533" rx="3.2" ry="3.2"/>
</g>
<!-- commentaire_eg -->
<g id="node3" class="node">
<title>commentaire_eg</title>
<g id="a_node3"><a xlink:href="../../tables/commentaire_eg.html" xlink:title="commentaire_eg" target="_top">
<polygon fill="#ffffff" stroke="transparent" points="441,-444.2 441,-505.2 565,-505.2 565,-444.2 441,-444.2"/>
<polygon fill="#f5f5f5" stroke="transparent" points="441,-481.7 441,-504.7 565,-504.7 565,-481.7 441,-481.7"/>
<polygon fill="none" stroke="#000000" points="441,-481.7 441,-504.7 565,-504.7 565,-481.7 441,-481.7"/>
<text text-anchor="start" x="445.5487" y="-490.8" font-family="Helvetica,sans-Serif" font-weight="bold" font-size="11.00" fill="#000000">commentaire_eg</text>
<text text-anchor="start" x="530.5219" y="-489.8" font-family="Helvetica,sans-Serif" font-size="11.00" fill="#000000">[table]</text>
<polygon fill="none" stroke="#000000" points="441,-462.7 441,-481.7 565,-481.7 565,-462.7 441,-462.7"/>
<text text-anchor="start" x="444" y="-468.8" font-family="Helvetica,sans-Serif" font-size="11.00" fill="#000000">...</text>
<polygon fill="#ffffff" stroke="transparent" points="441,-443.7 441,-462.7 491,-462.7 491,-443.7 441,-443.7"/>
<polygon fill="none" stroke="#000000" points="441,-443.7 441,-462.7 491,-462.7 491,-443.7 441,-443.7"/>
<text text-anchor="start" x="444" y="-449.8" font-family="Helvetica,sans-Serif" font-size="11.00" fill="#000000">&lt; 1</text>
<polygon fill="#ffffff" stroke="transparent" points="491,-443.7 491,-462.7 538,-462.7 538,-443.7 491,-443.7"/>
<polygon fill="none" stroke="#000000" points="491,-443.7 491,-462.7 538,-462.7 538,-443.7 491,-443.7"/>
<text text-anchor="start" x="508.1105" y="-449.8" font-family="Helvetica,sans-Serif" font-size="11.00" fill="#000000">1 row</text>
<polygon fill="#ffffff" stroke="transparent" points="538,-443.7 538,-462.7 565,-462.7 565,-443.7 538,-443.7"/>
<polygon fill="none" stroke="#000000" points="538,-443.7 538,-462.7 565,-462.7 565,-443.7 538,-443.7"/>
<text text-anchor="start" x="555.8862" y="-449.8" font-family="Helvetica,sans-Serif" font-size="11.00" fill="#000000"> &#160;</text>
</a>
</g>
</g>
<!-- commentaire_eg&#45;&gt;entite_geol -->
<g id="edge2" class="edge">
<title>commentaire_eg:w&#45;&gt;entite_geol:e</title>
<path fill="none" stroke="#000000" d="M426.5265,-469.9423C410.3238,-465.4084 403.5904,-452.3536 392,-433.7 344.3649,-357.0363 441.7575,-234.7 351.5,-234.7"/>
<polygon fill="#000000" stroke="#000000" points="433.0584,-470.7355 440.566,-475.2737 437.0292,-471.2177 441,-471.7 441,-471.7 441,-471.7 437.0292,-471.2177 441.434,-468.1263 433.0584,-470.7355 433.0584,-470.7355"/>
<ellipse fill="none" stroke="#000000" cx="429.8817" cy="-470.3497" rx="3.2" ry="3.2"/>
</g>
<!-- complement_eg -->
<g id="node4" class="node">
<title>complement_eg</title>
<g id="a_node4"><a xlink:href="../../tables/complement_eg.html" xlink:title="complement_eg" target="_top">
<polygon fill="#ffffff" stroke="transparent" points="400,-288.7 400,-422.7 606,-422.7 606,-288.7 400,-288.7"/>
<polygon fill="#f5f5f5" stroke="transparent" points="402,-397.7 402,-420.7 604,-420.7 604,-397.7 402,-397.7"/>
<polygon fill="none" stroke="#000000" points="402,-397.7 402,-420.7 604,-420.7 604,-397.7 402,-397.7"/>
<text text-anchor="start" x="407" y="-406.8" font-family="Helvetica,sans-Serif" font-weight="bold" font-size="11.00" fill="#000000">complement_eg</text>
<text text-anchor="start" x="569.0437" y="-405.8" font-family="Helvetica,sans-Serif" font-size="11.00" fill="#000000">[table]</text>
<polygon fill="none" stroke="#000000" points="402,-375.7 402,-397.7 514,-397.7 514,-375.7 402,-375.7"/>
<image xlink:href="../../images/primaryKeys.png" width="11px" height="12px" preserveAspectRatio="xMinYMin meet" x="407" y="-392.7"/>
<text text-anchor="start" x="422" y="-382.8" font-family="Helvetica,sans-Serif" font-size="11.00" fill="#000000">id</text>
<polygon fill="none" stroke="#000000" points="514,-375.7 514,-397.7 604,-397.7 604,-375.7 514,-375.7"/>
<text text-anchor="start" x="517" y="-383.4" font-family="Helvetica,sans-Serif" font-size="11.00" fill="#000000">serial[10]</text>
<polygon fill="none" stroke="#000000" points="402,-353.7 402,-375.7 514,-375.7 514,-353.7 402,-353.7"/>
<text text-anchor="start" x="422" y="-360.8" font-family="Helvetica,sans-Serif" font-size="11.00" fill="#000000">question</text>
<polygon fill="none" stroke="#000000" points="514,-353.7 514,-375.7 604,-375.7 604,-353.7 514,-353.7"/>
<text text-anchor="start" x="517" y="-361.4" font-family="Helvetica,sans-Serif" font-size="11.00" fill="#000000">varchar[15]</text>
<polygon fill="none" stroke="#000000" points="402,-331.7 402,-353.7 514,-353.7 514,-331.7 402,-331.7"/>
<text text-anchor="start" x="422" y="-338.8" font-family="Helvetica,sans-Serif" font-size="11.00" fill="#000000">elements</text>
<polygon fill="none" stroke="#000000" points="514,-331.7 514,-353.7 604,-353.7 604,-331.7 514,-331.7"/>
<text text-anchor="start" x="516.5043" y="-339.4" font-family="Helvetica,sans-Serif" font-size="11.00" fill="#000000">text[2147483647]</text>
<polygon fill="#ffffff" stroke="transparent" points="402,-309.7 402,-331.7 514,-331.7 514,-309.7 402,-309.7"/>
<polygon fill="none" stroke="#000000" points="402,-309.7 402,-331.7 514,-331.7 514,-309.7 402,-309.7"/>
<image xlink:href="../../images/foreignKeys.png" width="11px" height="12px" preserveAspectRatio="xMinYMin meet" x="407" y="-326.7"/>
<text text-anchor="start" x="422" y="-316.8" font-family="Helvetica,sans-Serif" font-size="11.00" fill="#000000">entite_geol_id</text>
<polygon fill="none" stroke="#000000" points="514,-309.7 514,-331.7 604,-331.7 604,-309.7 514,-309.7"/>
<text text-anchor="start" x="517" y="-317.4" font-family="Helvetica,sans-Serif" font-size="11.00" fill="#000000">int4[10]</text>
<polygon fill="#ffffff" stroke="transparent" points="402,-290.7 402,-309.7 449,-309.7 449,-290.7 402,-290.7"/>
<polygon fill="none" stroke="#000000" points="402,-290.7 402,-309.7 449,-309.7 449,-290.7 402,-290.7"/>
<text text-anchor="start" x="405" y="-296.8" font-family="Helvetica,sans-Serif" font-size="11.00" fill="#000000">&lt; 1</text>
<polygon fill="#ffffff" stroke="transparent" points="449,-290.7 449,-309.7 514,-309.7 514,-290.7 449,-290.7"/>
<polygon fill="none" stroke="#000000" points="449,-290.7 449,-309.7 514,-309.7 514,-290.7 449,-290.7"/>
<text text-anchor="start" x="478.6105" y="-296.8" font-family="Helvetica,sans-Serif" font-size="11.00" fill="#000000">2 rows</text>
<polygon fill="#ffffff" stroke="transparent" points="514,-290.7 514,-309.7 604,-309.7 604,-290.7 514,-290.7"/>
<polygon fill="none" stroke="#000000" points="514,-290.7 514,-309.7 604,-309.7 604,-290.7 514,-290.7"/>
<text text-anchor="start" x="585.4053" y="-296.8" font-family="Helvetica,sans-Serif" font-size="11.00" fill="#000000">0 &gt;</text>
<polygon fill="none" stroke="#000000" stroke-width="2" points="401,-289.7 401,-421.7 605,-421.7 605,-289.7 401,-289.7"/>
</a>
</g>
</g>
<!-- complement_eg&#45;&gt;entite_geol -->
<g id="edge3" class="edge">
<title>complement_eg:w&#45;&gt;entite_geol:e</title>
<path fill="none" stroke="#000000" d="M388.0232,-316.317C366.5651,-298.7919 389.7648,-234.7 351.5,-234.7"/>
<polygon fill="#000000" stroke="#000000" points="394.3665,-318.3062 400.9228,-324.1351 398.1833,-319.5031 402,-320.7 402,-320.7 402,-320.7 398.1833,-319.5031 403.0772,-317.2649 394.3665,-318.3062 394.3665,-318.3062"/>
<ellipse fill="none" stroke="#000000" cx="391.3131" cy="-317.3487" rx="3.2" ry="3.2"/>
</g>
<!-- entite_geol_qcm -->
<g id="node8" class="node">
<title>entite_geol_qcm</title>
<g id="a_node8"><a xlink:href="../../tables/entite_geol_qcm.html" xlink:title="entite_geol_qcm" target="_top">
<polygon fill="#ffffff" stroke="transparent" points="441.5,-206.2 441.5,-267.2 564.5,-267.2 564.5,-206.2 441.5,-206.2"/>
<polygon fill="#f5f5f5" stroke="transparent" points="442,-243.7 442,-266.7 565,-266.7 565,-243.7 442,-243.7"/>
<polygon fill="none" stroke="#000000" points="442,-243.7 442,-266.7 565,-266.7 565,-243.7 442,-243.7"/>
<text text-anchor="start" x="446.6542" y="-252.8" font-family="Helvetica,sans-Serif" font-weight="bold" font-size="11.00" fill="#000000">entite_geol_qcm</text>
<text text-anchor="start" x="530.5219" y="-251.8" font-family="Helvetica,sans-Serif" font-size="11.00" fill="#000000">[table]</text>
<polygon fill="none" stroke="#000000" points="442,-224.7 442,-243.7 565,-243.7 565,-224.7 442,-224.7"/>
<text text-anchor="start" x="445" y="-230.8" font-family="Helvetica,sans-Serif" font-size="11.00" fill="#000000">...</text>
<polygon fill="#ffffff" stroke="transparent" points="442,-205.7 442,-224.7 486,-224.7 486,-205.7 442,-205.7"/>
<polygon fill="none" stroke="#000000" points="442,-205.7 442,-224.7 486,-224.7 486,-205.7 442,-205.7"/>
<text text-anchor="start" x="445" y="-211.8" font-family="Helvetica,sans-Serif" font-size="11.00" fill="#000000">&lt; 2</text>
<polygon fill="#ffffff" stroke="transparent" points="486,-205.7 486,-224.7 541,-224.7 541,-205.7 486,-205.7"/>
<polygon fill="none" stroke="#000000" points="486,-205.7 486,-224.7 541,-224.7 541,-205.7 486,-205.7"/>
<text text-anchor="start" x="499.4956" y="-211.8" font-family="Helvetica,sans-Serif" font-size="11.00" fill="#000000">34 rows</text>
<polygon fill="#ffffff" stroke="transparent" points="541,-205.7 541,-224.7 565,-224.7 565,-205.7 541,-205.7"/>
<polygon fill="none" stroke="#000000" points="541,-205.7 541,-224.7 565,-224.7 565,-205.7 541,-205.7"/>
<text text-anchor="start" x="555.8862" y="-211.8" font-family="Helvetica,sans-Serif" font-size="11.00" fill="#000000"> &#160;</text>
</a>
</g>
</g>
<!-- entite_geol_qcm&#45;&gt;entite_geol -->
<g id="edge7" class="edge">
<title>entite_geol_qcm:w&#45;&gt;entite_geol:e</title>
<path fill="none" stroke="#000000" d="M427.4283,-233.7482C398.5734,-233.948 386.3823,-234.7 351.5,-234.7"/>
<polygon fill="#000000" stroke="#000000" points="434,-233.7265 442.0119,-237.3 438,-233.7133 442,-233.7 442,-233.7 442,-233.7 438,-233.7133 441.9881,-230.1 434,-233.7265 434,-233.7265"/>
<ellipse fill="none" stroke="#000000" cx="430.8001" cy="-233.7371" rx="3.2" ry="3.2"/>
</g>
<!-- photo -->
<g id="node9" class="node">
<title>photo</title>
<g id="a_node9"><a xlink:href="../../tables/photo.html" xlink:title="photo" target="_top">
<polygon fill="#ffffff" stroke="transparent" points="464.5,-41.2 464.5,-102.2 541.5,-102.2 541.5,-41.2 464.5,-41.2"/>
<polygon fill="#f5f5f5" stroke="transparent" points="465,-78.7 465,-101.7 542,-101.7 542,-78.7 465,-78.7"/>
<polygon fill="none" stroke="#000000" points="465,-78.7 465,-101.7 542,-101.7 542,-78.7 465,-78.7"/>
<text text-anchor="start" x="470" y="-87.8" font-family="Helvetica,sans-Serif" font-weight="bold" font-size="11.00" fill="#000000">photo</text>
<text text-anchor="start" x="507.0437" y="-86.8" font-family="Helvetica,sans-Serif" font-size="11.00" fill="#000000">[table]</text>
<polygon fill="none" stroke="#000000" points="465,-59.7 465,-78.7 542,-78.7 542,-59.7 465,-59.7"/>
<text text-anchor="start" x="468" y="-65.8" font-family="Helvetica,sans-Serif" font-size="11.00" fill="#000000">...</text>
<polygon fill="#ffffff" stroke="transparent" points="465,-40.7 465,-59.7 486,-59.7 486,-40.7 465,-40.7"/>
<polygon fill="none" stroke="#000000" points="465,-40.7 465,-59.7 486,-59.7 486,-40.7 465,-40.7"/>
<text text-anchor="start" x="467.7027" y="-46.8" font-family="Helvetica,sans-Serif" font-size="11.00" fill="#000000">&lt; 2</text>
<polygon fill="#ffffff" stroke="transparent" points="486,-40.7 486,-59.7 530,-59.7 530,-40.7 486,-40.7"/>
<polygon fill="none" stroke="#000000" points="486,-40.7 486,-59.7 530,-59.7 530,-40.7 486,-40.7"/>
<text text-anchor="start" x="488.7478" y="-46.8" font-family="Helvetica,sans-Serif" font-size="11.00" fill="#000000">10 rows</text>
<polygon fill="#ffffff" stroke="transparent" points="530,-40.7 530,-59.7 542,-59.7 542,-40.7 530,-40.7"/>
<polygon fill="none" stroke="#000000" points="530,-40.7 530,-59.7 542,-59.7 542,-40.7 530,-40.7"/>
<text text-anchor="start" x="532.9431" y="-46.8" font-family="Helvetica,sans-Serif" font-size="11.00" fill="#000000"> &#160;</text>
</a>
</g>
</g>
<!-- photo&#45;&gt;entite_geol -->
<g id="edge8" class="edge">
<title>photo:w&#45;&gt;entite_geol:e</title>
<path fill="none" stroke="#000000" d="M450.4081,-69.5971C423.49,-73.2497 412.3572,-88.0408 392,-113.7 356.7534,-158.1266 408.2102,-234.7 351.5,-234.7"/>
<polygon fill="#000000" stroke="#000000" points="457.0151,-69.191 465.2209,-72.2932 461.0075,-68.9455 465,-68.7 465,-68.7 465,-68.7 461.0075,-68.9455 464.7791,-65.1068 457.0151,-69.191 457.0151,-69.191"/>
<ellipse fill="none" stroke="#000000" cx="453.8211" cy="-69.3874" rx="3.2" ry="3.2"/>
</g>
<!-- photo&#45;&gt;site -->
<g id="edge9" class="edge">
<title>photo:w&#45;&gt;site:e</title>
<path fill="none" stroke="#000000" d="M450.1693,-68.6909C305.23,-68.5098 263.5534,-65.7 111.5,-65.7"/>
<polygon fill="#000000" stroke="#000000" points="457,-68.695 464.9978,-72.3 461,-68.6975 465,-68.7 465,-68.7 465,-68.7 461,-68.6975 465.0022,-65.1 457,-68.695 457,-68.695"/>
<ellipse fill="none" stroke="#000000" cx="453.8" cy="-68.693" rx="3.2" ry="3.2"/>
</g>
</g>
</svg>
