<?xml version="1.0" encoding="UTF-8" standalone="no"?>
<!DOCTYPE svg PUBLIC "-//W3C//DTD SVG 1.1//EN"
 "http://www.w3.org/Graphics/SVG/1.1/DTD/svg11.dtd">
<!-- Generated by graphviz version 2.40.1 (20161225.0304)
 -->
<!-- Title: twoDegreesRelationshipsDiagram Pages: 1 -->
<svg width="628pt" height="443pt"
 viewBox="0.00 0.00 628.41 443.20" xmlns="http://www.w3.org/2000/svg" xmlns:xlink="http://www.w3.org/1999/xlink">
<g id="graph0" class="graph" transform="scale(1 1) rotate(0) translate(4 439.2)">
<title>twoDegreesRelationshipsDiagram</title>
<polygon fill="#ffffff" stroke="transparent" points="-4,4 -4,-439.2 624.4107,-439.2 624.4107,4 -4,4"/>
<text text-anchor="middle" x="72.4936" y="-7.3" font-family="Helvetica,sans-Serif" font-size="11.00" fill="#000000">Generated by SchemaSpy</text>
<!-- affleurement -->
<g id="node1" class="node">
<title>affleurement</title>
<g id="a_node1"><a xlink:href="../../tables/affleurement.html" xlink:title="affleurement" target="_top">
<polygon fill="#ffffff" stroke="transparent" points="498.4107,-124.2 498.4107,-185.2 602.4107,-185.2 602.4107,-124.2 498.4107,-124.2"/>
<polygon fill="#f5f5f5" stroke="transparent" points="498.4107,-161.7 498.4107,-184.7 602.4107,-184.7 602.4107,-161.7 498.4107,-161.7"/>
<polygon fill="none" stroke="#000000" points="498.4107,-161.7 498.4107,-184.7 602.4107,-184.7 602.4107,-161.7 498.4107,-161.7"/>
<text text-anchor="start" x="503.3483" y="-170.8" font-family="Helvetica,sans-Serif" font-weight="bold" font-size="11.00" fill="#000000">affleurement</text>
<text text-anchor="start" x="567.9326" y="-169.8" font-family="Helvetica,sans-Serif" font-size="11.00" fill="#000000">[table]</text>
<polygon fill="none" stroke="#000000" points="498.4107,-142.7 498.4107,-161.7 602.4107,-161.7 602.4107,-142.7 498.4107,-142.7"/>
<text text-anchor="start" x="501.4107" y="-148.8" font-family="Helvetica,sans-Serif" font-size="11.00" fill="#000000">...</text>
<polygon fill="#ffffff" stroke="transparent" points="498.4107,-123.7 498.4107,-142.7 535.4107,-142.7 535.4107,-123.7 498.4107,-123.7"/>
<polygon fill="none" stroke="#000000" points="498.4107,-123.7 498.4107,-142.7 535.4107,-142.7 535.4107,-123.7 498.4107,-123.7"/>
<text text-anchor="start" x="501.4107" y="-129.8" font-family="Helvetica,sans-Serif" font-size="11.00" fill="#000000">&lt; 1</text>
<polygon fill="#ffffff" stroke="transparent" points="535.4107,-123.7 535.4107,-142.7 581.4107,-142.7 581.4107,-123.7 535.4107,-123.7"/>
<polygon fill="none" stroke="#000000" points="535.4107,-123.7 535.4107,-142.7 581.4107,-142.7 581.4107,-123.7 535.4107,-123.7"/>
<text text-anchor="start" x="546.0212" y="-129.8" font-family="Helvetica,sans-Serif" font-size="11.00" fill="#000000">9 rows</text>
<polygon fill="#ffffff" stroke="transparent" points="581.4107,-123.7 581.4107,-142.7 602.4107,-142.7 602.4107,-123.7 581.4107,-123.7"/>
<polygon fill="none" stroke="#000000" points="581.4107,-123.7 581.4107,-142.7 602.4107,-142.7 602.4107,-123.7 581.4107,-123.7"/>
<text text-anchor="start" x="593.2969" y="-129.8" font-family="Helvetica,sans-Serif" font-size="11.00" fill="#000000"> &#160;</text>
</a>
</g>
</g>
<!-- entite_geol -->
<g id="node2" class="node">
<title>entite_geol</title>
<g id="a_node2"><a xlink:href="../../tables/entite_geol.html" xlink:title="entite_geol" target="_top">
<polygon fill="#ffffff" stroke="transparent" points="266.4107,-98.2 266.4107,-269.2 439.4107,-269.2 439.4107,-98.2 266.4107,-98.2"/>
<polygon fill="#f5f5f5" stroke="transparent" points="266.9107,-245.7 266.9107,-268.7 439.9107,-268.7 439.9107,-245.7 266.9107,-245.7"/>
<polygon fill="none" stroke="#000000" points="266.9107,-245.7 266.9107,-268.7 439.9107,-268.7 439.9107,-245.7 266.9107,-245.7"/>
<text text-anchor="start" x="271.9107" y="-254.8" font-family="Helvetica,sans-Serif" font-weight="bold" font-size="11.00" fill="#000000">entite_geol</text>
<text text-anchor="start" x="404.9544" y="-253.8" font-family="Helvetica,sans-Serif" font-size="11.00" fill="#000000">[table]</text>
<polygon fill="none" stroke="#000000" points="266.9107,-223.7 266.9107,-245.7 439.9107,-245.7 439.9107,-223.7 266.9107,-223.7"/>
<image xlink:href="../../images/primaryKeys.png" width="11px" height="12px" preserveAspectRatio="xMinYMin meet" x="271.911" y="-240.7"/>
<text text-anchor="start" x="286.9107" y="-230.8" font-family="Helvetica,sans-Serif" font-size="11.00" fill="#000000">id</text>
<polygon fill="#ffffff" stroke="transparent" points="266.9107,-201.7 266.9107,-223.7 439.9107,-223.7 439.9107,-201.7 266.9107,-201.7"/>
<polygon fill="none" stroke="#000000" points="266.9107,-201.7 266.9107,-223.7 439.9107,-223.7 439.9107,-201.7 266.9107,-201.7"/>
<text text-anchor="start" x="286.9107" y="-208.8" font-family="Helvetica,sans-Serif" font-size="11.00" fill="#000000">geom</text>
<polygon fill="#ffffff" stroke="transparent" points="266.9107,-179.7 266.9107,-201.7 439.9107,-201.7 439.9107,-179.7 266.9107,-179.7"/>
<polygon fill="none" stroke="#000000" points="266.9107,-179.7 266.9107,-201.7 439.9107,-201.7 439.9107,-179.7 266.9107,-179.7"/>
<image xlink:href="../../images/foreignKeys.png" width="11px" height="12px" preserveAspectRatio="xMinYMin meet" x="271.911" y="-196.7"/>
<text text-anchor="start" x="286.9107" y="-186.8" font-family="Helvetica,sans-Serif" font-size="11.00" fill="#000000">ere_geol_id</text>
<polygon fill="#ffffff" stroke="transparent" points="266.9107,-157.7 266.9107,-179.7 439.9107,-179.7 439.9107,-157.7 266.9107,-157.7"/>
<polygon fill="none" stroke="#000000" points="266.9107,-157.7 266.9107,-179.7 439.9107,-179.7 439.9107,-157.7 266.9107,-157.7"/>
<image xlink:href="../../images/foreignKeys.png" width="11px" height="12px" preserveAspectRatio="xMinYMin meet" x="271.911" y="-174.7"/>
<text text-anchor="start" x="286.9107" y="-164.8" font-family="Helvetica,sans-Serif" font-size="11.00" fill="#000000">site_id</text>
<polygon fill="#ffffff" stroke="transparent" points="266.9107,-135.7 266.9107,-157.7 439.9107,-157.7 439.9107,-135.7 266.9107,-135.7"/>
<polygon fill="none" stroke="#000000" points="266.9107,-135.7 266.9107,-157.7 439.9107,-157.7 439.9107,-135.7 266.9107,-135.7"/>
<image xlink:href="../../images/foreignKeys.png" width="11px" height="12px" preserveAspectRatio="xMinYMin meet" x="271.911" y="-152.7"/>
<text text-anchor="start" x="286.9107" y="-142.8" font-family="Helvetica,sans-Serif" font-size="11.00" fill="#000000">s_fgeol_id</text>
<polygon fill="none" stroke="#000000" points="266.9107,-116.7 266.9107,-135.7 439.9107,-135.7 439.9107,-116.7 266.9107,-116.7"/>
<text text-anchor="start" x="269.9107" y="-122.8" font-family="Helvetica,sans-Serif" font-size="11.00" fill="#000000">...</text>
<polygon fill="#ffffff" stroke="transparent" points="266.9107,-97.7 266.9107,-116.7 330.9107,-116.7 330.9107,-97.7 266.9107,-97.7"/>
<polygon fill="none" stroke="#000000" points="266.9107,-97.7 266.9107,-116.7 330.9107,-116.7 330.9107,-97.7 266.9107,-97.7"/>
<text text-anchor="start" x="269.9107" y="-103.8" font-family="Helvetica,sans-Serif" font-size="11.00" fill="#000000">&lt; 3</text>
<polygon fill="#ffffff" stroke="transparent" points="330.9107,-97.7 330.9107,-116.7 396.9107,-116.7 396.9107,-97.7 330.9107,-97.7"/>
<polygon fill="none" stroke="#000000" points="330.9107,-97.7 330.9107,-116.7 396.9107,-116.7 396.9107,-97.7 330.9107,-97.7"/>
<text text-anchor="start" x="355.4063" y="-103.8" font-family="Helvetica,sans-Serif" font-size="11.00" fill="#000000">24 rows</text>
<polygon fill="#ffffff" stroke="transparent" points="396.9107,-97.7 396.9107,-116.7 439.9107,-116.7 439.9107,-97.7 396.9107,-97.7"/>
<polygon fill="none" stroke="#000000" points="396.9107,-97.7 396.9107,-116.7 439.9107,-116.7 439.9107,-97.7 396.9107,-97.7"/>
<text text-anchor="start" x="421.316" y="-103.8" font-family="Helvetica,sans-Serif" font-size="11.00" fill="#000000">5 &gt;</text>
</a>
</g>
</g>
<!-- affleurement&#45;&gt;entite_geol -->
<g id="edge1" class="edge">
<title>affleurement:w&#45;&gt;entite_geol:e</title>
<path fill="none" stroke="#000000" d="M484.4615,-155.482C460.1907,-171.7192 479.2239,-234.7 439.9107,-234.7"/>
<polygon fill="#000000" stroke="#000000" points="490.6895,-153.7935 499.3528,-155.1746 494.5501,-152.7467 498.4107,-151.7 498.4107,-151.7 498.4107,-151.7 494.5501,-152.7467 497.4686,-148.2254 490.6895,-153.7935 490.6895,-153.7935"/>
<ellipse fill="none" stroke="#000000" cx="487.601" cy="-154.6309" rx="3.2" ry="3.2"/>
</g>
<!-- echelle_geol -->
<g id="node5" class="node">
<title>echelle_geol</title>
<g id="a_node5"><a xlink:href="../../tables/echelle_geol.html" xlink:title="echelle_geol" target="_top">
<polygon fill="#ffffff" stroke="transparent" points="33.4107,-202.7 33.4107,-358.7 217.4107,-358.7 217.4107,-202.7 33.4107,-202.7"/>
<polygon fill="#f5f5f5" stroke="transparent" points="35.4107,-333.7 35.4107,-356.7 215.4107,-356.7 215.4107,-333.7 35.4107,-333.7"/>
<polygon fill="none" stroke="#000000" points="35.4107,-333.7 35.4107,-356.7 215.4107,-356.7 215.4107,-333.7 35.4107,-333.7"/>
<text text-anchor="start" x="40.4107" y="-342.8" font-family="Helvetica,sans-Serif" font-weight="bold" font-size="11.00" fill="#000000">echelle_geol</text>
<text text-anchor="start" x="180.4544" y="-341.8" font-family="Helvetica,sans-Serif" font-size="11.00" fill="#000000">[table]</text>
<polygon fill="none" stroke="#000000" points="35.4107,-311.7 35.4107,-333.7 128.4107,-333.7 128.4107,-311.7 35.4107,-311.7"/>
<image xlink:href="../../images/primaryKeys.png" width="11px" height="12px" preserveAspectRatio="xMinYMin meet" x="40.4107" y="-328.7"/>
<text text-anchor="start" x="55.4107" y="-318.8" font-family="Helvetica,sans-Serif" font-size="11.00" fill="#000000">id</text>
<polygon fill="none" stroke="#000000" points="128.4107,-311.7 128.4107,-333.7 215.4107,-333.7 215.4107,-311.7 128.4107,-311.7"/>
<text text-anchor="start" x="131.4107" y="-319.4" font-family="Helvetica,sans-Serif" font-size="11.00" fill="#000000">int4[10]</text>
<polygon fill="none" stroke="#000000" points="35.4107,-289.7 35.4107,-311.7 128.4107,-311.7 128.4107,-289.7 35.4107,-289.7"/>
<text text-anchor="start" x="55.4107" y="-296.8" font-family="Helvetica,sans-Serif" font-size="11.00" fill="#000000">label</text>
<polygon fill="none" stroke="#000000" points="128.4107,-289.7 128.4107,-311.7 215.4107,-311.7 215.4107,-289.7 128.4107,-289.7"/>
<text text-anchor="start" x="131.4107" y="-297.4" font-family="Helvetica,sans-Serif" font-size="11.00" fill="#000000">varchar[150]</text>
<polygon fill="#ffffff" stroke="transparent" points="35.4107,-267.7 35.4107,-289.7 128.4107,-289.7 128.4107,-267.7 35.4107,-267.7"/>
<polygon fill="none" stroke="#000000" points="35.4107,-267.7 35.4107,-289.7 128.4107,-289.7 128.4107,-267.7 35.4107,-267.7"/>
<image xlink:href="../../images/foreignKeys.png" width="11px" height="12px" preserveAspectRatio="xMinYMin meet" x="40.4107" y="-284.7"/>
<text text-anchor="start" x="55.4107" y="-274.8" font-family="Helvetica,sans-Serif" font-size="11.00" fill="#000000">parent</text>
<polygon fill="none" stroke="#000000" points="128.4107,-267.7 128.4107,-289.7 215.4107,-289.7 215.4107,-267.7 128.4107,-267.7"/>
<text text-anchor="start" x="131.4107" y="-275.4" font-family="Helvetica,sans-Serif" font-size="11.00" fill="#000000">int4[10]</text>
<polygon fill="none" stroke="#000000" points="35.4107,-245.7 35.4107,-267.7 128.4107,-267.7 128.4107,-245.7 35.4107,-245.7"/>
<text text-anchor="start" x="55.4107" y="-252.8" font-family="Helvetica,sans-Serif" font-size="11.00" fill="#000000">date_deb</text>
<polygon fill="none" stroke="#000000" points="128.4107,-245.7 128.4107,-267.7 215.4107,-267.7 215.4107,-245.7 128.4107,-245.7"/>
<text text-anchor="start" x="130.9544" y="-253.4" font-family="Helvetica,sans-Serif" font-size="11.00" fill="#000000">numeric[131089]</text>
<polygon fill="none" stroke="#000000" points="35.4107,-223.7 35.4107,-245.7 128.4107,-245.7 128.4107,-223.7 35.4107,-223.7"/>
<text text-anchor="start" x="55.4107" y="-230.8" font-family="Helvetica,sans-Serif" font-size="11.00" fill="#000000">date_fin</text>
<polygon fill="none" stroke="#000000" points="128.4107,-223.7 128.4107,-245.7 215.4107,-245.7 215.4107,-223.7 128.4107,-223.7"/>
<text text-anchor="start" x="130.9544" y="-231.4" font-family="Helvetica,sans-Serif" font-size="11.00" fill="#000000">numeric[131089]</text>
<polygon fill="#ffffff" stroke="transparent" points="35.4107,-204.7 35.4107,-223.7 70.4107,-223.7 70.4107,-204.7 35.4107,-204.7"/>
<polygon fill="none" stroke="#000000" points="35.4107,-204.7 35.4107,-223.7 70.4107,-223.7 70.4107,-204.7 35.4107,-204.7"/>
<text text-anchor="start" x="38.4107" y="-210.8" font-family="Helvetica,sans-Serif" font-size="11.00" fill="#000000">&lt; 1</text>
<polygon fill="#ffffff" stroke="transparent" points="70.4107,-204.7 70.4107,-223.7 128.4107,-223.7 128.4107,-204.7 70.4107,-204.7"/>
<polygon fill="none" stroke="#000000" points="70.4107,-204.7 70.4107,-223.7 128.4107,-223.7 128.4107,-204.7 70.4107,-204.7"/>
<text text-anchor="start" x="86.9063" y="-210.8" font-family="Helvetica,sans-Serif" font-size="11.00" fill="#000000">74 rows</text>
<polygon fill="#ffffff" stroke="transparent" points="128.4107,-204.7 128.4107,-223.7 215.4107,-223.7 215.4107,-204.7 128.4107,-204.7"/>
<polygon fill="none" stroke="#000000" points="128.4107,-204.7 128.4107,-223.7 215.4107,-223.7 215.4107,-204.7 128.4107,-204.7"/>
<text text-anchor="start" x="196.816" y="-210.8" font-family="Helvetica,sans-Serif" font-size="11.00" fill="#000000">2 &gt;</text>
<polygon fill="none" stroke="#000000" stroke-width="2" points="34.4107,-203.7 34.4107,-357.7 216.4107,-357.7 216.4107,-203.7 34.4107,-203.7"/>
</a>
</g>
</g>
<!-- entite_geol&#45;&gt;echelle_geol -->
<g id="edge5" class="edge">
<title>entite_geol:w&#45;&gt;echelle_geol:e</title>
<path fill="none" stroke="#000000" d="M252.5963,-193.9629C216.6881,-214.2898 272.4806,-322.7 215.4107,-322.7"/>
<polygon fill="#000000" stroke="#000000" points="259.1108,-192.478 267.7108,-194.21 263.0108,-191.589 266.9107,-190.7 266.9107,-190.7 266.9107,-190.7 263.0108,-191.589 266.1106,-187.19 259.1108,-192.478 259.1108,-192.478"/>
<ellipse fill="none" stroke="#000000" cx="255.9908" cy="-193.1892" rx="3.2" ry="3.2"/>
</g>
<!-- infoterre.s_fgeol -->
<g id="node6" class="node">
<title>infoterre.s_fgeol</title>
<g id="a_node6"><a xlink:href="../../../infoterre/tables/s_fgeol.html" xlink:title="infoterre.s_fgeol" target="_top">
<polygon fill="#ffffff" stroke="transparent" points="64.9107,-120.2 64.9107,-181.2 185.9107,-181.2 185.9107,-120.2 64.9107,-120.2"/>
<polygon fill="#f5f5f5" stroke="transparent" points="65.4107,-157.7 65.4107,-180.7 186.4107,-180.7 186.4107,-157.7 65.4107,-157.7"/>
<polygon fill="none" stroke="#000000" points="65.4107,-157.7 65.4107,-180.7 186.4107,-180.7 186.4107,-157.7 65.4107,-157.7"/>
<text text-anchor="start" x="69.9845" y="-166.8" font-family="Helvetica,sans-Serif" font-weight="bold" font-size="11.00" fill="#000000">infoterre.s_fgeol</text>
<text text-anchor="start" x="151.9326" y="-165.8" font-family="Helvetica,sans-Serif" font-size="11.00" fill="#000000">[table]</text>
<polygon fill="none" stroke="#000000" points="65.4107,-138.7 65.4107,-157.7 186.4107,-157.7 186.4107,-138.7 65.4107,-138.7"/>
<text text-anchor="start" x="68.4107" y="-144.8" font-family="Helvetica,sans-Serif" font-size="11.00" fill="#000000">...</text>
<polygon fill="#ffffff" stroke="transparent" points="65.4107,-119.7 65.4107,-138.7 102.4107,-138.7 102.4107,-119.7 65.4107,-119.7"/>
<polygon fill="none" stroke="#000000" points="65.4107,-119.7 65.4107,-138.7 102.4107,-138.7 102.4107,-119.7 65.4107,-119.7"/>
<text text-anchor="start" x="68.4107" y="-125.8" font-family="Helvetica,sans-Serif" font-size="11.00" fill="#000000"> &#160;</text>
<polygon fill="#ffffff" stroke="transparent" points="102.4107,-119.7 102.4107,-138.7 152.4107,-138.7 152.4107,-119.7 102.4107,-119.7"/>
<polygon fill="none" stroke="#000000" points="102.4107,-119.7 102.4107,-138.7 152.4107,-138.7 152.4107,-119.7 102.4107,-119.7"/>
<text text-anchor="start" x="117.0212" y="-125.8" font-family="Helvetica,sans-Serif" font-size="11.00" fill="#000000">0 rows</text>
<polygon fill="#ffffff" stroke="transparent" points="152.4107,-119.7 152.4107,-138.7 186.4107,-138.7 186.4107,-119.7 152.4107,-119.7"/>
<polygon fill="none" stroke="#000000" points="152.4107,-119.7 152.4107,-138.7 186.4107,-138.7 186.4107,-119.7 152.4107,-119.7"/>
<text text-anchor="start" x="167.816" y="-125.8" font-family="Helvetica,sans-Serif" font-size="11.00" fill="#000000">1 &gt;</text>
</a>
</g>
</g>
<!-- entite_geol&#45;&gt;infoterre.s_fgeol -->
<g id="edge6" class="edge">
<title>entite_geol:w&#45;&gt;infoterre.s_fgeol:e</title>
<path fill="none" stroke="#000000" d="M252.237,-146.7626C227.7836,-146.9815 216.7403,-147.7 186.4107,-147.7"/>
<polygon fill="#000000" stroke="#000000" points="258.9108,-146.7342 266.9261,-150.3 262.9107,-146.7171 266.9107,-146.7 266.9107,-146.7 266.9107,-146.7 262.9107,-146.7171 266.8953,-143.1 258.9108,-146.7342 258.9108,-146.7342"/>
<ellipse fill="none" stroke="#000000" cx="255.7108" cy="-146.7478" rx="3.2" ry="3.2"/>
</g>
<!-- site -->
<g id="node7" class="node">
<title>site</title>
<g id="a_node7"><a xlink:href="../../tables/site.html" xlink:title="site" target="_top">
<polygon fill="#ffffff" stroke="transparent" points="82.4107,-38.2 82.4107,-99.2 168.4107,-99.2 168.4107,-38.2 82.4107,-38.2"/>
<polygon fill="#f5f5f5" stroke="transparent" points="82.4107,-75.7 82.4107,-98.7 168.4107,-98.7 168.4107,-75.7 82.4107,-75.7"/>
<polygon fill="none" stroke="#000000" points="82.4107,-75.7 82.4107,-98.7 168.4107,-98.7 168.4107,-75.7 82.4107,-75.7"/>
<text text-anchor="start" x="87.4107" y="-84.8" font-family="Helvetica,sans-Serif" font-weight="bold" font-size="11.00" fill="#000000">site</text>
<text text-anchor="start" x="133.4544" y="-83.8" font-family="Helvetica,sans-Serif" font-size="11.00" fill="#000000">[table]</text>
<polygon fill="none" stroke="#000000" points="82.4107,-56.7 82.4107,-75.7 168.4107,-75.7 168.4107,-56.7 82.4107,-56.7"/>
<text text-anchor="start" x="85.4107" y="-62.8" font-family="Helvetica,sans-Serif" font-size="11.00" fill="#000000">...</text>
<polygon fill="#ffffff" stroke="transparent" points="82.4107,-37.7 82.4107,-56.7 103.4107,-56.7 103.4107,-37.7 82.4107,-37.7"/>
<polygon fill="none" stroke="#000000" points="82.4107,-37.7 82.4107,-56.7 103.4107,-56.7 103.4107,-37.7 82.4107,-37.7"/>
<text text-anchor="start" x="85.1134" y="-43.8" font-family="Helvetica,sans-Serif" font-size="11.00" fill="#000000">&lt; 1</text>
<polygon fill="#ffffff" stroke="transparent" points="103.4107,-37.7 103.4107,-56.7 147.4107,-56.7 147.4107,-37.7 103.4107,-37.7"/>
<polygon fill="none" stroke="#000000" points="103.4107,-37.7 103.4107,-56.7 147.4107,-56.7 147.4107,-37.7 103.4107,-37.7"/>
<text text-anchor="start" x="106.1585" y="-43.8" font-family="Helvetica,sans-Serif" font-size="11.00" fill="#000000">10 rows</text>
<polygon fill="#ffffff" stroke="transparent" points="147.4107,-37.7 147.4107,-56.7 168.4107,-56.7 168.4107,-37.7 147.4107,-37.7"/>
<polygon fill="none" stroke="#000000" points="147.4107,-37.7 147.4107,-56.7 168.4107,-56.7 168.4107,-37.7 147.4107,-37.7"/>
<text text-anchor="start" x="150.1134" y="-43.8" font-family="Helvetica,sans-Serif" font-size="11.00" fill="#000000">5 &gt;</text>
</a>
</g>
</g>
<!-- entite_geol&#45;&gt;site -->
<g id="edge7" class="edge">
<title>entite_geol:w&#45;&gt;site:e</title>
<path fill="none" stroke="#000000" d="M252.657,-164.9606C238.4895,-155.1859 243.2431,-128.3421 225.4107,-109.7 203.2889,-86.5737 200.4138,-65.7 168.4107,-65.7"/>
<polygon fill="#000000" stroke="#000000" points="259.1726,-166.6699 265.9972,-172.1822 263.0416,-167.6849 266.9107,-168.7 266.9107,-168.7 266.9107,-168.7 263.0416,-167.6849 267.8243,-165.2178 259.1726,-166.6699 259.1726,-166.6699"/>
<ellipse fill="none" stroke="#000000" cx="256.0773" cy="-165.8578" rx="3.2" ry="3.2"/>
</g>
<!-- commentaire_eg -->
<g id="node3" class="node">
<title>commentaire_eg</title>
<g id="a_node3"><a xlink:href="../../tables/commentaire_eg.html" xlink:title="commentaire_eg" target="_top">
<polygon fill="#ffffff" stroke="transparent" points="488.4107,-370.2 488.4107,-431.2 612.4107,-431.2 612.4107,-370.2 488.4107,-370.2"/>
<polygon fill="#f5f5f5" stroke="transparent" points="488.4107,-407.7 488.4107,-430.7 612.4107,-430.7 612.4107,-407.7 488.4107,-407.7"/>
<polygon fill="none" stroke="#000000" points="488.4107,-407.7 488.4107,-430.7 612.4107,-430.7 612.4107,-407.7 488.4107,-407.7"/>
<text text-anchor="start" x="492.9594" y="-416.8" font-family="Helvetica,sans-Serif" font-weight="bold" font-size="11.00" fill="#000000">commentaire_eg</text>
<text text-anchor="start" x="577.9326" y="-415.8" font-family="Helvetica,sans-Serif" font-size="11.00" fill="#000000">[table]</text>
<polygon fill="none" stroke="#000000" points="488.4107,-388.7 488.4107,-407.7 612.4107,-407.7 612.4107,-388.7 488.4107,-388.7"/>
<text text-anchor="start" x="491.4107" y="-394.8" font-family="Helvetica,sans-Serif" font-size="11.00" fill="#000000">...</text>
<polygon fill="#ffffff" stroke="transparent" points="488.4107,-369.7 488.4107,-388.7 538.4107,-388.7 538.4107,-369.7 488.4107,-369.7"/>
<polygon fill="none" stroke="#000000" points="488.4107,-369.7 488.4107,-388.7 538.4107,-388.7 538.4107,-369.7 488.4107,-369.7"/>
<text text-anchor="start" x="491.4107" y="-375.8" font-family="Helvetica,sans-Serif" font-size="11.00" fill="#000000">&lt; 1</text>
<polygon fill="#ffffff" stroke="transparent" points="538.4107,-369.7 538.4107,-388.7 585.4107,-388.7 585.4107,-369.7 538.4107,-369.7"/>
<polygon fill="none" stroke="#000000" points="538.4107,-369.7 538.4107,-388.7 585.4107,-388.7 585.4107,-369.7 538.4107,-369.7"/>
<text text-anchor="start" x="555.5212" y="-375.8" font-family="Helvetica,sans-Serif" font-size="11.00" fill="#000000">1 row</text>
<polygon fill="#ffffff" stroke="transparent" points="585.4107,-369.7 585.4107,-388.7 612.4107,-388.7 612.4107,-369.7 585.4107,-369.7"/>
<polygon fill="none" stroke="#000000" points="585.4107,-369.7 585.4107,-388.7 612.4107,-388.7 612.4107,-369.7 585.4107,-369.7"/>
<text text-anchor="start" x="603.2969" y="-375.8" font-family="Helvetica,sans-Serif" font-size="11.00" fill="#000000"> &#160;</text>
</a>
</g>
</g>
<!-- commentaire_eg&#45;&gt;entite_geol -->
<g id="edge2" class="edge">
<title>commentaire_eg:w&#45;&gt;entite_geol:e</title>
<path fill="none" stroke="#000000" d="M474.0839,-395.0068C427.4338,-373.8137 509.7367,-234.7 439.9107,-234.7"/>
<polygon fill="#000000" stroke="#000000" points="480.5484,-396.222 487.7456,-401.238 484.4796,-396.961 488.4107,-397.7 488.4107,-397.7 488.4107,-397.7 484.4796,-396.961 489.0758,-394.162 480.5484,-396.222 480.5484,-396.222"/>
<ellipse fill="none" stroke="#000000" cx="477.4035" cy="-395.6308" rx="3.2" ry="3.2"/>
</g>
<!-- complement_eg -->
<g id="node4" class="node">
<title>complement_eg</title>
<g id="a_node4"><a xlink:href="../../tables/complement_eg.html" xlink:title="complement_eg" target="_top">
<polygon fill="#ffffff" stroke="transparent" points="489.9107,-288.2 489.9107,-349.2 610.9107,-349.2 610.9107,-288.2 489.9107,-288.2"/>
<polygon fill="#f5f5f5" stroke="transparent" points="490.4107,-325.7 490.4107,-348.7 611.4107,-348.7 611.4107,-325.7 490.4107,-325.7"/>
<polygon fill="none" stroke="#000000" points="490.4107,-325.7 490.4107,-348.7 611.4107,-348.7 611.4107,-325.7 490.4107,-325.7"/>
<text text-anchor="start" x="495.2903" y="-334.8" font-family="Helvetica,sans-Serif" font-weight="bold" font-size="11.00" fill="#000000">complement_eg</text>
<text text-anchor="start" x="576.9326" y="-333.8" font-family="Helvetica,sans-Serif" font-size="11.00" fill="#000000">[table]</text>
<polygon fill="none" stroke="#000000" points="490.4107,-306.7 490.4107,-325.7 611.4107,-325.7 611.4107,-306.7 490.4107,-306.7"/>
<text text-anchor="start" x="493.4107" y="-312.8" font-family="Helvetica,sans-Serif" font-size="11.00" fill="#000000">...</text>
<polygon fill="#ffffff" stroke="transparent" points="490.4107,-287.7 490.4107,-306.7 536.4107,-306.7 536.4107,-287.7 490.4107,-287.7"/>
<polygon fill="none" stroke="#000000" points="490.4107,-287.7 490.4107,-306.7 536.4107,-306.7 536.4107,-287.7 490.4107,-287.7"/>
<text text-anchor="start" x="493.4107" y="-293.8" font-family="Helvetica,sans-Serif" font-size="11.00" fill="#000000">&lt; 1</text>
<polygon fill="#ffffff" stroke="transparent" points="536.4107,-287.7 536.4107,-306.7 586.4107,-306.7 586.4107,-287.7 536.4107,-287.7"/>
<polygon fill="none" stroke="#000000" points="536.4107,-287.7 536.4107,-306.7 586.4107,-306.7 586.4107,-287.7 536.4107,-287.7"/>
<text text-anchor="start" x="551.0212" y="-293.8" font-family="Helvetica,sans-Serif" font-size="11.00" fill="#000000">2 rows</text>
<polygon fill="#ffffff" stroke="transparent" points="586.4107,-287.7 586.4107,-306.7 611.4107,-306.7 611.4107,-287.7 586.4107,-287.7"/>
<polygon fill="none" stroke="#000000" points="586.4107,-287.7 586.4107,-306.7 611.4107,-306.7 611.4107,-287.7 586.4107,-287.7"/>
<text text-anchor="start" x="602.2969" y="-293.8" font-family="Helvetica,sans-Serif" font-size="11.00" fill="#000000"> &#160;</text>
</a>
</g>
</g>
<!-- complement_eg&#45;&gt;entite_geol -->
<g id="edge3" class="edge">
<title>complement_eg:w&#45;&gt;entite_geol:e</title>
<path fill="none" stroke="#000000" d="M476.6408,-311.3451C456.1291,-294.5206 476.3684,-234.7 439.9107,-234.7"/>
<polygon fill="#000000" stroke="#000000" points="482.7831,-313.2876 489.3251,-319.1324 486.5969,-314.4938 490.4107,-315.7 490.4107,-315.7 490.4107,-315.7 486.5969,-314.4938 491.4963,-312.2676 482.7831,-313.2876 482.7831,-313.2876"/>
<ellipse fill="none" stroke="#000000" cx="479.732" cy="-312.3227" rx="3.2" ry="3.2"/>
</g>
<!-- echelle_geol&#45;&gt;echelle_geol -->
<g id="edge4" class="edge">
<title>echelle_geol:w&#45;&gt;echelle_geol:e</title>
<path fill="none" stroke="#000000" d="M23.246,-286.6911C-20.1951,-320.1762 -9.644,-375.7 125.4107,-375.7 271.9107,-375.7 271.9107,-354.3667 215.4107,-322.7"/>
<polygon fill="#000000" stroke="#000000" points="28.7243,-283.0924 37.3873,-281.7089 32.0675,-280.8962 35.4107,-278.7 35.4107,-278.7 35.4107,-278.7 32.0675,-280.8962 33.4342,-275.6911 28.7243,-283.0924 28.7243,-283.0924"/>
<ellipse fill="none" stroke="#000000" cx="26.0498" cy="-284.8493" rx="3.2" ry="3.2"/>
</g>
<!-- entite_geol_qcm -->
<g id="node8" class="node">
<title>entite_geol_qcm</title>
<g id="a_node8"><a xlink:href="../../tables/entite_geol_qcm.html" xlink:title="entite_geol_qcm" target="_top">
<polygon fill="#ffffff" stroke="transparent" points="488.9107,-206.2 488.9107,-267.2 611.9107,-267.2 611.9107,-206.2 488.9107,-206.2"/>
<polygon fill="#f5f5f5" stroke="transparent" points="489.4107,-243.7 489.4107,-266.7 612.4107,-266.7 612.4107,-243.7 489.4107,-243.7"/>
<polygon fill="none" stroke="#000000" points="489.4107,-243.7 489.4107,-266.7 612.4107,-266.7 612.4107,-243.7 489.4107,-243.7"/>
<text text-anchor="start" x="494.0649" y="-252.8" font-family="Helvetica,sans-Serif" font-weight="bold" font-size="11.00" fill="#000000">entite_geol_qcm</text>
<text text-anchor="start" x="577.9326" y="-251.8" font-family="Helvetica,sans-Serif" font-size="11.00" fill="#000000">[table]</text>
<polygon fill="none" stroke="#000000" points="489.4107,-224.7 489.4107,-243.7 612.4107,-243.7 612.4107,-224.7 489.4107,-224.7"/>
<text text-anchor="start" x="492.4107" y="-230.8" font-family="Helvetica,sans-Serif" font-size="11.00" fill="#000000">...</text>
<polygon fill="#ffffff" stroke="transparent" points="489.4107,-205.7 489.4107,-224.7 533.4107,-224.7 533.4107,-205.7 489.4107,-205.7"/>
<polygon fill="none" stroke="#000000" points="489.4107,-205.7 489.4107,-224.7 533.4107,-224.7 533.4107,-205.7 489.4107,-205.7"/>
<text text-anchor="start" x="492.4107" y="-211.8" font-family="Helvetica,sans-Serif" font-size="11.00" fill="#000000">&lt; 2</text>
<polygon fill="#ffffff" stroke="transparent" points="533.4107,-205.7 533.4107,-224.7 588.4107,-224.7 588.4107,-205.7 533.4107,-205.7"/>
<polygon fill="none" stroke="#000000" points="533.4107,-205.7 533.4107,-224.7 588.4107,-224.7 588.4107,-205.7 533.4107,-205.7"/>
<text text-anchor="start" x="546.9063" y="-211.8" font-family="Helvetica,sans-Serif" font-size="11.00" fill="#000000">34 rows</text>
<polygon fill="#ffffff" stroke="transparent" points="588.4107,-205.7 588.4107,-224.7 612.4107,-224.7 612.4107,-205.7 588.4107,-205.7"/>
<polygon fill="none" stroke="#000000" points="588.4107,-205.7 588.4107,-224.7 612.4107,-224.7 612.4107,-205.7 588.4107,-205.7"/>
<text text-anchor="start" x="603.2969" y="-211.8" font-family="Helvetica,sans-Serif" font-size="11.00" fill="#000000"> &#160;</text>
</a>
</g>
</g>
<!-- entite_geol_qcm&#45;&gt;entite_geol -->
<g id="edge8" class="edge">
<title>entite_geol_qcm:w&#45;&gt;entite_geol:e</title>
<path fill="none" stroke="#000000" d="M474.7523,-233.8742C463.324,-234.1607 456.0703,-234.7 439.9107,-234.7"/>
<polygon fill="#000000" stroke="#000000" points="481.4113,-233.7951 489.4535,-237.2997 485.411,-233.7476 489.4107,-233.7 489.4107,-233.7 489.4107,-233.7 485.411,-233.7476 489.3679,-230.1003 481.4113,-233.7951 481.4113,-233.7951"/>
<ellipse fill="none" stroke="#000000" cx="478.2115" cy="-233.8332" rx="3.2" ry="3.2"/>
</g>
<!-- photo -->
<g id="node9" class="node">
<title>photo</title>
<g id="a_node9"><a xlink:href="../../tables/photo.html" xlink:title="photo" target="_top">
<polygon fill="#ffffff" stroke="transparent" points="511.9107,-41.2 511.9107,-102.2 588.9107,-102.2 588.9107,-41.2 511.9107,-41.2"/>
<polygon fill="#f5f5f5" stroke="transparent" points="512.4107,-78.7 512.4107,-101.7 589.4107,-101.7 589.4107,-78.7 512.4107,-78.7"/>
<polygon fill="none" stroke="#000000" points="512.4107,-78.7 512.4107,-101.7 589.4107,-101.7 589.4107,-78.7 512.4107,-78.7"/>
<text text-anchor="start" x="517.4107" y="-87.8" font-family="Helvetica,sans-Serif" font-weight="bold" font-size="11.00" fill="#000000">photo</text>
<text text-anchor="start" x="554.4544" y="-86.8" font-family="Helvetica,sans-Serif" font-size="11.00" fill="#000000">[table]</text>
<polygon fill="none" stroke="#000000" points="512.4107,-59.7 512.4107,-78.7 589.4107,-78.7 589.4107,-59.7 512.4107,-59.7"/>
<text text-anchor="start" x="515.4107" y="-65.8" font-family="Helvetica,sans-Serif" font-size="11.00" fill="#000000">...</text>
<polygon fill="#ffffff" stroke="transparent" points="512.4107,-40.7 512.4107,-59.7 533.4107,-59.7 533.4107,-40.7 512.4107,-40.7"/>
<polygon fill="none" stroke="#000000" points="512.4107,-40.7 512.4107,-59.7 533.4107,-59.7 533.4107,-40.7 512.4107,-40.7"/>
<text text-anchor="start" x="515.1134" y="-46.8" font-family="Helvetica,sans-Serif" font-size="11.00" fill="#000000">&lt; 2</text>
<polygon fill="#ffffff" stroke="transparent" points="533.4107,-40.7 533.4107,-59.7 577.4107,-59.7 577.4107,-40.7 533.4107,-40.7"/>
<polygon fill="none" stroke="#000000" points="533.4107,-40.7 533.4107,-59.7 577.4107,-59.7 577.4107,-40.7 533.4107,-40.7"/>
<text text-anchor="start" x="536.1585" y="-46.8" font-family="Helvetica,sans-Serif" font-size="11.00" fill="#000000">10 rows</text>
<polygon fill="#ffffff" stroke="transparent" points="577.4107,-40.7 577.4107,-59.7 589.4107,-59.7 589.4107,-40.7 577.4107,-40.7"/>
<polygon fill="none" stroke="#000000" points="577.4107,-40.7 577.4107,-59.7 589.4107,-59.7 589.4107,-40.7 577.4107,-40.7"/>
<text text-anchor="start" x="580.3538" y="-46.8" font-family="Helvetica,sans-Serif" font-size="11.00" fill="#000000"> &#160;</text>
</a>
</g>
</g>
<!-- photo&#45;&gt;entite_geol -->
<g id="edge9" class="edge">
<title>photo:w&#45;&gt;entite_geol:e</title>
<path fill="none" stroke="#000000" d="M498.162,-70.9211C443.2151,-90.6196 514.9146,-234.7 439.9107,-234.7"/>
<polygon fill="#000000" stroke="#000000" points="504.5062,-69.9322 512.9652,-72.257 508.4584,-69.3161 512.4107,-68.7 512.4107,-68.7 512.4107,-68.7 508.4584,-69.3161 511.8562,-65.143 504.5062,-69.9322 504.5062,-69.9322"/>
<ellipse fill="none" stroke="#000000" cx="501.3444" cy="-70.4251" rx="3.2" ry="3.2"/>
</g>
<!-- photo&#45;&gt;site -->
<g id="edge10" class="edge">
<title>photo:w&#45;&gt;site:e</title>
<path fill="none" stroke="#000000" d="M497.9785,-68.6909C356.9341,-68.5098 316.3781,-65.7 168.4107,-65.7"/>
<polygon fill="#000000" stroke="#000000" points="504.4107,-68.6949 512.4084,-72.3 508.4107,-68.6974 512.4107,-68.7 512.4107,-68.7 512.4107,-68.7 508.4107,-68.6974 512.413,-65.1 504.4107,-68.6949 504.4107,-68.6949"/>
<ellipse fill="none" stroke="#000000" cx="501.2107" cy="-68.6928" rx="3.2" ry="3.2"/>
</g>
</g>
</svg>
