<?xml version="1.0" encoding="UTF-8" standalone="no"?>
<!DOCTYPE svg PUBLIC "-//W3C//DTD SVG 1.1//EN"
 "http://www.w3.org/Graphics/SVG/1.1/DTD/svg11.dtd">
<!-- Generated by graphviz version 2.40.1 (20161225.0304)
 -->
<!-- Title: oneDegreeRelationshipsDiagram Pages: 1 -->
<svg width="455pt" height="249pt"
 viewBox="0.00 0.00 455.41 248.70" xmlns="http://www.w3.org/2000/svg" xmlns:xlink="http://www.w3.org/1999/xlink">
<g id="graph0" class="graph" transform="scale(1 1) rotate(0) translate(4 244.7)">
<title>oneDegreeRelationshipsDiagram</title>
<polygon fill="#ffffff" stroke="transparent" points="-4,4 -4,-244.7 451.4107,-244.7 451.4107,4 -4,4"/>
<text text-anchor="middle" x="72.4936" y="-7.3" font-family="Helvetica,sans-Serif" font-size="11.00" fill="#000000">Generated by SchemaSpy</text>
<!-- echelle_geol -->
<g id="node1" class="node">
<title>echelle_geol</title>
<g id="a_node1"><a xlink:href="../../tables/echelle_geol.html" xlink:title="echelle_geol" target="_top">
<polygon fill="#ffffff" stroke="transparent" points="33.4107,-38.2 33.4107,-194.2 217.4107,-194.2 217.4107,-38.2 33.4107,-38.2"/>
<polygon fill="#f5f5f5" stroke="transparent" points="35.4107,-169.2 35.4107,-192.2 215.4107,-192.2 215.4107,-169.2 35.4107,-169.2"/>
<polygon fill="none" stroke="#000000" points="35.4107,-169.2 35.4107,-192.2 215.4107,-192.2 215.4107,-169.2 35.4107,-169.2"/>
<text text-anchor="start" x="40.4107" y="-178.3" font-family="Helvetica,sans-Serif" font-weight="bold" font-size="11.00" fill="#000000">echelle_geol</text>
<text text-anchor="start" x="180.4544" y="-177.3" font-family="Helvetica,sans-Serif" font-size="11.00" fill="#000000">[table]</text>
<polygon fill="none" stroke="#000000" points="35.4107,-147.2 35.4107,-169.2 128.4107,-169.2 128.4107,-147.2 35.4107,-147.2"/>
<image xlink:href="../../images/primaryKeys.png" width="11px" height="12px" preserveAspectRatio="xMinYMin meet" x="40.4107" y="-164.2"/>
<text text-anchor="start" x="55.4107" y="-154.3" font-family="Helvetica,sans-Serif" font-size="11.00" fill="#000000">id</text>
<polygon fill="none" stroke="#000000" points="128.4107,-147.2 128.4107,-169.2 215.4107,-169.2 215.4107,-147.2 128.4107,-147.2"/>
<text text-anchor="start" x="131.4107" y="-154.9" font-family="Helvetica,sans-Serif" font-size="11.00" fill="#000000">int4[10]</text>
<polygon fill="none" stroke="#000000" points="35.4107,-125.2 35.4107,-147.2 128.4107,-147.2 128.4107,-125.2 35.4107,-125.2"/>
<text text-anchor="start" x="55.4107" y="-132.3" font-family="Helvetica,sans-Serif" font-size="11.00" fill="#000000">label</text>
<polygon fill="none" stroke="#000000" points="128.4107,-125.2 128.4107,-147.2 215.4107,-147.2 215.4107,-125.2 128.4107,-125.2"/>
<text text-anchor="start" x="131.4107" y="-132.9" font-family="Helvetica,sans-Serif" font-size="11.00" fill="#000000">varchar[150]</text>
<polygon fill="#ffffff" stroke="transparent" points="35.4107,-103.2 35.4107,-125.2 128.4107,-125.2 128.4107,-103.2 35.4107,-103.2"/>
<polygon fill="none" stroke="#000000" points="35.4107,-103.2 35.4107,-125.2 128.4107,-125.2 128.4107,-103.2 35.4107,-103.2"/>
<image xlink:href="../../images/foreignKeys.png" width="11px" height="12px" preserveAspectRatio="xMinYMin meet" x="40.4107" y="-120.2"/>
<text text-anchor="start" x="55.4107" y="-110.3" font-family="Helvetica,sans-Serif" font-size="11.00" fill="#000000">parent</text>
<polygon fill="none" stroke="#000000" points="128.4107,-103.2 128.4107,-125.2 215.4107,-125.2 215.4107,-103.2 128.4107,-103.2"/>
<text text-anchor="start" x="131.4107" y="-110.9" font-family="Helvetica,sans-Serif" font-size="11.00" fill="#000000">int4[10]</text>
<polygon fill="none" stroke="#000000" points="35.4107,-81.2 35.4107,-103.2 128.4107,-103.2 128.4107,-81.2 35.4107,-81.2"/>
<text text-anchor="start" x="55.4107" y="-88.3" font-family="Helvetica,sans-Serif" font-size="11.00" fill="#000000">date_deb</text>
<polygon fill="none" stroke="#000000" points="128.4107,-81.2 128.4107,-103.2 215.4107,-103.2 215.4107,-81.2 128.4107,-81.2"/>
<text text-anchor="start" x="130.9544" y="-88.9" font-family="Helvetica,sans-Serif" font-size="11.00" fill="#000000">numeric[131089]</text>
<polygon fill="none" stroke="#000000" points="35.4107,-59.2 35.4107,-81.2 128.4107,-81.2 128.4107,-59.2 35.4107,-59.2"/>
<text text-anchor="start" x="55.4107" y="-66.3" font-family="Helvetica,sans-Serif" font-size="11.00" fill="#000000">date_fin</text>
<polygon fill="none" stroke="#000000" points="128.4107,-59.2 128.4107,-81.2 215.4107,-81.2 215.4107,-59.2 128.4107,-59.2"/>
<text text-anchor="start" x="130.9544" y="-66.9" font-family="Helvetica,sans-Serif" font-size="11.00" fill="#000000">numeric[131089]</text>
<polygon fill="#ffffff" stroke="transparent" points="35.4107,-40.2 35.4107,-59.2 70.4107,-59.2 70.4107,-40.2 35.4107,-40.2"/>
<polygon fill="none" stroke="#000000" points="35.4107,-40.2 35.4107,-59.2 70.4107,-59.2 70.4107,-40.2 35.4107,-40.2"/>
<text text-anchor="start" x="38.4107" y="-46.3" font-family="Helvetica,sans-Serif" font-size="11.00" fill="#000000">&lt; 1</text>
<polygon fill="#ffffff" stroke="transparent" points="70.4107,-40.2 70.4107,-59.2 128.4107,-59.2 128.4107,-40.2 70.4107,-40.2"/>
<polygon fill="none" stroke="#000000" points="70.4107,-40.2 70.4107,-59.2 128.4107,-59.2 128.4107,-40.2 70.4107,-40.2"/>
<text text-anchor="start" x="86.9063" y="-46.3" font-family="Helvetica,sans-Serif" font-size="11.00" fill="#000000">74 rows</text>
<polygon fill="#ffffff" stroke="transparent" points="128.4107,-40.2 128.4107,-59.2 215.4107,-59.2 215.4107,-40.2 128.4107,-40.2"/>
<polygon fill="none" stroke="#000000" points="128.4107,-40.2 128.4107,-59.2 215.4107,-59.2 215.4107,-40.2 128.4107,-40.2"/>
<text text-anchor="start" x="196.816" y="-46.3" font-family="Helvetica,sans-Serif" font-size="11.00" fill="#000000">2 &gt;</text>
<polygon fill="none" stroke="#000000" stroke-width="2" points="34.4107,-39.2 34.4107,-193.2 216.4107,-193.2 216.4107,-39.2 34.4107,-39.2"/>
</a>
</g>
</g>
<!-- echelle_geol&#45;&gt;echelle_geol -->
<g id="edge1" class="edge">
<title>echelle_geol:w&#45;&gt;echelle_geol:e</title>
<path fill="none" stroke="#000000" d="M23.246,-122.1911C-20.1951,-155.6762 -9.644,-211.2 125.4107,-211.2 271.9107,-211.2 271.9107,-189.8667 215.4107,-158.2"/>
<polygon fill="#000000" stroke="#000000" points="28.7243,-118.5924 37.3873,-117.2089 32.0675,-116.3962 35.4107,-114.2 35.4107,-114.2 35.4107,-114.2 32.0675,-116.3962 33.4342,-111.1911 28.7243,-118.5924 28.7243,-118.5924"/>
<ellipse fill="none" stroke="#000000" cx="26.0498" cy="-120.3493" rx="3.2" ry="3.2"/>
</g>
<!-- entite_geol -->
<g id="node2" class="node">
<title>entite_geol</title>
<g id="a_node2"><a xlink:href="../../tables/entite_geol.html" xlink:title="entite_geol" target="_top">
<polygon fill="#ffffff" stroke="transparent" points="266.4107,-65.7 266.4107,-236.7 439.4107,-236.7 439.4107,-65.7 266.4107,-65.7"/>
<polygon fill="#f5f5f5" stroke="transparent" points="266.9107,-213.2 266.9107,-236.2 439.9107,-236.2 439.9107,-213.2 266.9107,-213.2"/>
<polygon fill="none" stroke="#000000" points="266.9107,-213.2 266.9107,-236.2 439.9107,-236.2 439.9107,-213.2 266.9107,-213.2"/>
<text text-anchor="start" x="271.9107" y="-222.3" font-family="Helvetica,sans-Serif" font-weight="bold" font-size="11.00" fill="#000000">entite_geol</text>
<text text-anchor="start" x="404.9544" y="-221.3" font-family="Helvetica,sans-Serif" font-size="11.00" fill="#000000">[table]</text>
<polygon fill="none" stroke="#000000" points="266.9107,-191.2 266.9107,-213.2 439.9107,-213.2 439.9107,-191.2 266.9107,-191.2"/>
<image xlink:href="../../images/primaryKeys.png" width="11px" height="12px" preserveAspectRatio="xMinYMin meet" x="271.911" y="-208.2"/>
<text text-anchor="start" x="286.9107" y="-198.3" font-family="Helvetica,sans-Serif" font-size="11.00" fill="#000000">id</text>
<polygon fill="#ffffff" stroke="transparent" points="266.9107,-169.2 266.9107,-191.2 439.9107,-191.2 439.9107,-169.2 266.9107,-169.2"/>
<polygon fill="none" stroke="#000000" points="266.9107,-169.2 266.9107,-191.2 439.9107,-191.2 439.9107,-169.2 266.9107,-169.2"/>
<text text-anchor="start" x="286.9107" y="-176.3" font-family="Helvetica,sans-Serif" font-size="11.00" fill="#000000">geom</text>
<polygon fill="#ffffff" stroke="transparent" points="266.9107,-147.2 266.9107,-169.2 439.9107,-169.2 439.9107,-147.2 266.9107,-147.2"/>
<polygon fill="none" stroke="#000000" points="266.9107,-147.2 266.9107,-169.2 439.9107,-169.2 439.9107,-147.2 266.9107,-147.2"/>
<image xlink:href="../../images/foreignKeys.png" width="11px" height="12px" preserveAspectRatio="xMinYMin meet" x="271.911" y="-164.2"/>
<text text-anchor="start" x="286.9107" y="-154.3" font-family="Helvetica,sans-Serif" font-size="11.00" fill="#000000">ere_geol_id</text>
<polygon fill="#ffffff" stroke="transparent" points="266.9107,-125.2 266.9107,-147.2 439.9107,-147.2 439.9107,-125.2 266.9107,-125.2"/>
<polygon fill="none" stroke="#000000" points="266.9107,-125.2 266.9107,-147.2 439.9107,-147.2 439.9107,-125.2 266.9107,-125.2"/>
<image xlink:href="../../images/foreignKeys.png" width="11px" height="12px" preserveAspectRatio="xMinYMin meet" x="271.911" y="-142.2"/>
<text text-anchor="start" x="286.9107" y="-132.3" font-family="Helvetica,sans-Serif" font-size="11.00" fill="#000000">site_id</text>
<polygon fill="#ffffff" stroke="transparent" points="266.9107,-103.2 266.9107,-125.2 439.9107,-125.2 439.9107,-103.2 266.9107,-103.2"/>
<polygon fill="none" stroke="#000000" points="266.9107,-103.2 266.9107,-125.2 439.9107,-125.2 439.9107,-103.2 266.9107,-103.2"/>
<image xlink:href="../../images/foreignKeys.png" width="11px" height="12px" preserveAspectRatio="xMinYMin meet" x="271.911" y="-120.2"/>
<text text-anchor="start" x="286.9107" y="-110.3" font-family="Helvetica,sans-Serif" font-size="11.00" fill="#000000">s_fgeol_id</text>
<polygon fill="none" stroke="#000000" points="266.9107,-84.2 266.9107,-103.2 439.9107,-103.2 439.9107,-84.2 266.9107,-84.2"/>
<text text-anchor="start" x="269.9107" y="-90.3" font-family="Helvetica,sans-Serif" font-size="11.00" fill="#000000">...</text>
<polygon fill="#ffffff" stroke="transparent" points="266.9107,-65.2 266.9107,-84.2 330.9107,-84.2 330.9107,-65.2 266.9107,-65.2"/>
<polygon fill="none" stroke="#000000" points="266.9107,-65.2 266.9107,-84.2 330.9107,-84.2 330.9107,-65.2 266.9107,-65.2"/>
<text text-anchor="start" x="269.9107" y="-71.3" font-family="Helvetica,sans-Serif" font-size="11.00" fill="#000000">&lt; 3</text>
<polygon fill="#ffffff" stroke="transparent" points="330.9107,-65.2 330.9107,-84.2 396.9107,-84.2 396.9107,-65.2 330.9107,-65.2"/>
<polygon fill="none" stroke="#000000" points="330.9107,-65.2 330.9107,-84.2 396.9107,-84.2 396.9107,-65.2 330.9107,-65.2"/>
<text text-anchor="start" x="355.4063" y="-71.3" font-family="Helvetica,sans-Serif" font-size="11.00" fill="#000000">24 rows</text>
<polygon fill="#ffffff" stroke="transparent" points="396.9107,-65.2 396.9107,-84.2 439.9107,-84.2 439.9107,-65.2 396.9107,-65.2"/>
<polygon fill="none" stroke="#000000" points="396.9107,-65.2 396.9107,-84.2 439.9107,-84.2 439.9107,-65.2 396.9107,-65.2"/>
<text text-anchor="start" x="421.316" y="-71.3" font-family="Helvetica,sans-Serif" font-size="11.00" fill="#000000">5 &gt;</text>
</a>
</g>
</g>
<!-- entite_geol&#45;&gt;echelle_geol -->
<g id="edge2" class="edge">
<title>entite_geol:w&#45;&gt;echelle_geol:e</title>
<path fill="none" stroke="#000000" d="M252.4263,-158.2C240.0878,-158.2 232.5774,-158.2 215.4107,-158.2"/>
<polygon fill="#000000" stroke="#000000" points="258.9107,-158.2001 266.9107,-161.8 262.9107,-158.2 266.9107,-158.2 266.9107,-158.2 266.9107,-158.2 262.9107,-158.2 266.9107,-154.6 258.9107,-158.2001 258.9107,-158.2001"/>
<ellipse fill="none" stroke="#000000" cx="255.7107" cy="-158.2001" rx="3.2" ry="3.2"/>
</g>
</g>
</svg>
