<?xml version="1.0" encoding="UTF-8" standalone="no"?>
<!DOCTYPE svg PUBLIC "-//W3C//DTD SVG 1.1//EN"
 "http://www.w3.org/Graphics/SVG/1.1/DTD/svg11.dtd">
<!-- Generated by graphviz version 2.40.1 (20161225.0304)
 -->
<!-- Title: twoDegreesRelationshipsDiagram Pages: 1 -->
<svg width="658pt" height="667pt"
 viewBox="0.00 0.00 658.00 666.70" xmlns="http://www.w3.org/2000/svg" xmlns:xlink="http://www.w3.org/1999/xlink">
<g id="graph0" class="graph" transform="scale(1 1) rotate(0) translate(4 662.7)">
<title>twoDegreesRelationshipsDiagram</title>
<polygon fill="#ffffff" stroke="transparent" points="-4,4 -4,-662.7 654,-662.7 654,4 -4,4"/>
<text text-anchor="middle" x="72.4936" y="-7.3" font-family="Helvetica,sans-Serif" font-size="11.00" fill="#000000">Generated by SchemaSpy</text>
<!-- affleurement -->
<g id="node1" class="node">
<title>affleurement</title>
<g id="a_node1"><a xlink:href="../../tables/affleurement.html" xlink:title="affleurement" target="_top">
<polygon fill="#ffffff" stroke="transparent" points="469,-593.7 469,-654.7 573,-654.7 573,-593.7 469,-593.7"/>
<polygon fill="#f5f5f5" stroke="transparent" points="469,-631.2 469,-654.2 573,-654.2 573,-631.2 469,-631.2"/>
<polygon fill="none" stroke="#000000" points="469,-631.2 469,-654.2 573,-654.2 573,-631.2 469,-631.2"/>
<text text-anchor="start" x="473.9376" y="-640.3" font-family="Helvetica,sans-Serif" font-weight="bold" font-size="11.00" fill="#000000">affleurement</text>
<text text-anchor="start" x="538.5219" y="-639.3" font-family="Helvetica,sans-Serif" font-size="11.00" fill="#000000">[table]</text>
<polygon fill="none" stroke="#000000" points="469,-612.2 469,-631.2 573,-631.2 573,-612.2 469,-612.2"/>
<text text-anchor="start" x="472" y="-618.3" font-family="Helvetica,sans-Serif" font-size="11.00" fill="#000000">...</text>
<polygon fill="#ffffff" stroke="transparent" points="469,-593.2 469,-612.2 506,-612.2 506,-593.2 469,-593.2"/>
<polygon fill="none" stroke="#000000" points="469,-593.2 469,-612.2 506,-612.2 506,-593.2 469,-593.2"/>
<text text-anchor="start" x="472" y="-599.3" font-family="Helvetica,sans-Serif" font-size="11.00" fill="#000000">&lt; 1</text>
<polygon fill="#ffffff" stroke="transparent" points="506,-593.2 506,-612.2 552,-612.2 552,-593.2 506,-593.2"/>
<polygon fill="none" stroke="#000000" points="506,-593.2 506,-612.2 552,-612.2 552,-593.2 506,-593.2"/>
<text text-anchor="start" x="516.6105" y="-599.3" font-family="Helvetica,sans-Serif" font-size="11.00" fill="#000000">9 rows</text>
<polygon fill="#ffffff" stroke="transparent" points="552,-593.2 552,-612.2 573,-612.2 573,-593.2 552,-593.2"/>
<polygon fill="none" stroke="#000000" points="552,-593.2 552,-612.2 573,-612.2 573,-593.2 552,-593.2"/>
<text text-anchor="start" x="563.8862" y="-599.3" font-family="Helvetica,sans-Serif" font-size="11.00" fill="#000000"> &#160;</text>
</a>
</g>
</g>
<!-- entite_geol -->
<g id="node2" class="node">
<title>entite_geol</title>
<g id="a_node2"><a xlink:href="../../tables/entite_geol.html" xlink:title="entite_geol" target="_top">
<polygon fill="#ffffff" stroke="transparent" points="178,-361.7 178,-532.7 351,-532.7 351,-361.7 178,-361.7"/>
<polygon fill="#f5f5f5" stroke="transparent" points="178.5,-509.2 178.5,-532.2 351.5,-532.2 351.5,-509.2 178.5,-509.2"/>
<polygon fill="none" stroke="#000000" points="178.5,-509.2 178.5,-532.2 351.5,-532.2 351.5,-509.2 178.5,-509.2"/>
<text text-anchor="start" x="183.5" y="-518.3" font-family="Helvetica,sans-Serif" font-weight="bold" font-size="11.00" fill="#000000">entite_geol</text>
<text text-anchor="start" x="316.5437" y="-517.3" font-family="Helvetica,sans-Serif" font-size="11.00" fill="#000000">[table]</text>
<polygon fill="none" stroke="#000000" points="178.5,-487.2 178.5,-509.2 351.5,-509.2 351.5,-487.2 178.5,-487.2"/>
<image xlink:href="../../images/primaryKeys.png" width="11px" height="12px" preserveAspectRatio="xMinYMin meet" x="183.5" y="-504.2"/>
<text text-anchor="start" x="198.5" y="-494.3" font-family="Helvetica,sans-Serif" font-size="11.00" fill="#000000">id</text>
<polygon fill="#ffffff" stroke="transparent" points="178.5,-465.2 178.5,-487.2 351.5,-487.2 351.5,-465.2 178.5,-465.2"/>
<polygon fill="none" stroke="#000000" points="178.5,-465.2 178.5,-487.2 351.5,-487.2 351.5,-465.2 178.5,-465.2"/>
<text text-anchor="start" x="198.5" y="-472.3" font-family="Helvetica,sans-Serif" font-size="11.00" fill="#000000">geom</text>
<polygon fill="#ffffff" stroke="transparent" points="178.5,-443.2 178.5,-465.2 351.5,-465.2 351.5,-443.2 178.5,-443.2"/>
<polygon fill="none" stroke="#000000" points="178.5,-443.2 178.5,-465.2 351.5,-465.2 351.5,-443.2 178.5,-443.2"/>
<image xlink:href="../../images/foreignKeys.png" width="11px" height="12px" preserveAspectRatio="xMinYMin meet" x="183.5" y="-460.2"/>
<text text-anchor="start" x="198.5" y="-450.3" font-family="Helvetica,sans-Serif" font-size="11.00" fill="#000000">ere_geol_id</text>
<polygon fill="#ffffff" stroke="transparent" points="178.5,-421.2 178.5,-443.2 351.5,-443.2 351.5,-421.2 178.5,-421.2"/>
<polygon fill="none" stroke="#000000" points="178.5,-421.2 178.5,-443.2 351.5,-443.2 351.5,-421.2 178.5,-421.2"/>
<image xlink:href="../../images/foreignKeys.png" width="11px" height="12px" preserveAspectRatio="xMinYMin meet" x="183.5" y="-438.2"/>
<text text-anchor="start" x="198.5" y="-428.3" font-family="Helvetica,sans-Serif" font-size="11.00" fill="#000000">site_id</text>
<polygon fill="#ffffff" stroke="transparent" points="178.5,-399.2 178.5,-421.2 351.5,-421.2 351.5,-399.2 178.5,-399.2"/>
<polygon fill="none" stroke="#000000" points="178.5,-399.2 178.5,-421.2 351.5,-421.2 351.5,-399.2 178.5,-399.2"/>
<image xlink:href="../../images/foreignKeys.png" width="11px" height="12px" preserveAspectRatio="xMinYMin meet" x="183.5" y="-416.2"/>
<text text-anchor="start" x="198.5" y="-406.3" font-family="Helvetica,sans-Serif" font-size="11.00" fill="#000000">s_fgeol_id</text>
<polygon fill="none" stroke="#000000" points="178.5,-380.2 178.5,-399.2 351.5,-399.2 351.5,-380.2 178.5,-380.2"/>
<text text-anchor="start" x="181.5" y="-386.3" font-family="Helvetica,sans-Serif" font-size="11.00" fill="#000000">...</text>
<polygon fill="#ffffff" stroke="transparent" points="178.5,-361.2 178.5,-380.2 242.5,-380.2 242.5,-361.2 178.5,-361.2"/>
<polygon fill="none" stroke="#000000" points="178.5,-361.2 178.5,-380.2 242.5,-380.2 242.5,-361.2 178.5,-361.2"/>
<text text-anchor="start" x="181.5" y="-367.3" font-family="Helvetica,sans-Serif" font-size="11.00" fill="#000000">&lt; 3</text>
<polygon fill="#ffffff" stroke="transparent" points="242.5,-361.2 242.5,-380.2 308.5,-380.2 308.5,-361.2 242.5,-361.2"/>
<polygon fill="none" stroke="#000000" points="242.5,-361.2 242.5,-380.2 308.5,-380.2 308.5,-361.2 242.5,-361.2"/>
<text text-anchor="start" x="266.9956" y="-367.3" font-family="Helvetica,sans-Serif" font-size="11.00" fill="#000000">24 rows</text>
<polygon fill="#ffffff" stroke="transparent" points="308.5,-361.2 308.5,-380.2 351.5,-380.2 351.5,-361.2 308.5,-361.2"/>
<polygon fill="none" stroke="#000000" points="308.5,-361.2 308.5,-380.2 351.5,-380.2 351.5,-361.2 308.5,-361.2"/>
<text text-anchor="start" x="332.9053" y="-367.3" font-family="Helvetica,sans-Serif" font-size="11.00" fill="#000000">5 &gt;</text>
</a>
</g>
</g>
<!-- affleurement&#45;&gt;entite_geol -->
<g id="edge1" class="edge">
<title>affleurement:w&#45;&gt;entite_geol:e</title>
<path fill="none" stroke="#000000" d="M454.3362,-620.5422C427.1595,-617.8311 415.0299,-606.5497 392,-583.2 362.6145,-553.4064 393.3469,-498.2 351.5,-498.2"/>
<polygon fill="#000000" stroke="#000000" points="461.008,-620.8414 468.8386,-624.7964 465.004,-621.0207 469,-621.2 469,-621.2 469,-621.2 465.004,-621.0207 469.1614,-617.6036 461.008,-620.8414 461.008,-620.8414"/>
<ellipse fill="none" stroke="#000000" cx="457.8113" cy="-620.698" rx="3.2" ry="3.2"/>
</g>
<!-- echelle_geol -->
<g id="node5" class="node">
<title>echelle_geol</title>
<g id="a_node5"><a xlink:href="../../tables/echelle_geol.html" xlink:title="echelle_geol" target="_top">
<polygon fill="#ffffff" stroke="transparent" points="16.5,-467.7 16.5,-528.7 120.5,-528.7 120.5,-467.7 16.5,-467.7"/>
<polygon fill="#f5f5f5" stroke="transparent" points="16.5,-505.2 16.5,-528.2 120.5,-528.2 120.5,-505.2 16.5,-505.2"/>
<polygon fill="none" stroke="#000000" points="16.5,-505.2 16.5,-528.2 120.5,-528.2 120.5,-505.2 16.5,-505.2"/>
<text text-anchor="start" x="21.1291" y="-514.3" font-family="Helvetica,sans-Serif" font-weight="bold" font-size="11.00" fill="#000000">echelle_geol</text>
<text text-anchor="start" x="86.0219" y="-513.3" font-family="Helvetica,sans-Serif" font-size="11.00" fill="#000000">[table]</text>
<polygon fill="none" stroke="#000000" points="16.5,-486.2 16.5,-505.2 120.5,-505.2 120.5,-486.2 16.5,-486.2"/>
<text text-anchor="start" x="19.5" y="-492.3" font-family="Helvetica,sans-Serif" font-size="11.00" fill="#000000">...</text>
<polygon fill="#ffffff" stroke="transparent" points="16.5,-467.2 16.5,-486.2 46.5,-486.2 46.5,-467.2 16.5,-467.2"/>
<polygon fill="none" stroke="#000000" points="16.5,-467.2 16.5,-486.2 46.5,-486.2 46.5,-467.2 16.5,-467.2"/>
<text text-anchor="start" x="19.5" y="-473.3" font-family="Helvetica,sans-Serif" font-size="11.00" fill="#000000">&lt; 1</text>
<polygon fill="#ffffff" stroke="transparent" points="46.5,-467.2 46.5,-486.2 94.5,-486.2 94.5,-467.2 46.5,-467.2"/>
<polygon fill="none" stroke="#000000" points="46.5,-467.2 46.5,-486.2 94.5,-486.2 94.5,-467.2 46.5,-467.2"/>
<text text-anchor="start" x="52.9956" y="-473.3" font-family="Helvetica,sans-Serif" font-size="11.00" fill="#000000">74 rows</text>
<polygon fill="#ffffff" stroke="transparent" points="94.5,-467.2 94.5,-486.2 120.5,-486.2 120.5,-467.2 94.5,-467.2"/>
<polygon fill="none" stroke="#000000" points="94.5,-467.2 94.5,-486.2 120.5,-486.2 120.5,-467.2 94.5,-467.2"/>
<text text-anchor="start" x="101.9053" y="-473.3" font-family="Helvetica,sans-Serif" font-size="11.00" fill="#000000">2 &gt;</text>
</a>
</g>
</g>
<!-- entite_geol&#45;&gt;echelle_geol -->
<g id="edge4" class="edge">
<title>entite_geol:w&#45;&gt;echelle_geol:e</title>
<path fill="none" stroke="#000000" d="M164.1302,-457.9837C147.5676,-468.1336 146.1491,-495.2 120.5,-495.2"/>
<polygon fill="#000000" stroke="#000000" points="170.7637,-456.2371 179.4167,-457.6813 174.6318,-455.2185 178.5,-454.2 178.5,-454.2 178.5,-454.2 174.6318,-455.2185 177.5833,-450.7187 170.7637,-456.2371 170.7637,-456.2371"/>
<ellipse fill="none" stroke="#000000" cx="167.6692" cy="-457.0519" rx="3.2" ry="3.2"/>
</g>
<!-- infoterre.s_fgeol -->
<g id="node6" class="node">
<title>infoterre.s_fgeol</title>
<g id="a_node6"><a xlink:href="../../../infoterre/tables/s_fgeol.html" xlink:title="infoterre.s_fgeol" target="_top">
<polygon fill="#ffffff" stroke="transparent" points="8,-385.7 8,-446.7 129,-446.7 129,-385.7 8,-385.7"/>
<polygon fill="#f5f5f5" stroke="transparent" points="8.5,-423.2 8.5,-446.2 129.5,-446.2 129.5,-423.2 8.5,-423.2"/>
<polygon fill="none" stroke="#000000" points="8.5,-423.2 8.5,-446.2 129.5,-446.2 129.5,-423.2 8.5,-423.2"/>
<text text-anchor="start" x="13.0738" y="-432.3" font-family="Helvetica,sans-Serif" font-weight="bold" font-size="11.00" fill="#000000">infoterre.s_fgeol</text>
<text text-anchor="start" x="95.0219" y="-431.3" font-family="Helvetica,sans-Serif" font-size="11.00" fill="#000000">[table]</text>
<polygon fill="none" stroke="#000000" points="8.5,-404.2 8.5,-423.2 129.5,-423.2 129.5,-404.2 8.5,-404.2"/>
<text text-anchor="start" x="11.5" y="-410.3" font-family="Helvetica,sans-Serif" font-size="11.00" fill="#000000">...</text>
<polygon fill="#ffffff" stroke="transparent" points="8.5,-385.2 8.5,-404.2 45.5,-404.2 45.5,-385.2 8.5,-385.2"/>
<polygon fill="none" stroke="#000000" points="8.5,-385.2 8.5,-404.2 45.5,-404.2 45.5,-385.2 8.5,-385.2"/>
<text text-anchor="start" x="11.5" y="-391.3" font-family="Helvetica,sans-Serif" font-size="11.00" fill="#000000"> &#160;</text>
<polygon fill="#ffffff" stroke="transparent" points="45.5,-385.2 45.5,-404.2 95.5,-404.2 95.5,-385.2 45.5,-385.2"/>
<polygon fill="none" stroke="#000000" points="45.5,-385.2 45.5,-404.2 95.5,-404.2 95.5,-385.2 45.5,-385.2"/>
<text text-anchor="start" x="60.1105" y="-391.3" font-family="Helvetica,sans-Serif" font-size="11.00" fill="#000000">0 rows</text>
<polygon fill="#ffffff" stroke="transparent" points="95.5,-385.2 95.5,-404.2 129.5,-404.2 129.5,-385.2 95.5,-385.2"/>
<polygon fill="none" stroke="#000000" points="95.5,-385.2 95.5,-404.2 129.5,-404.2 129.5,-385.2 95.5,-385.2"/>
<text text-anchor="start" x="110.9053" y="-391.3" font-family="Helvetica,sans-Serif" font-size="11.00" fill="#000000">1 &gt;</text>
</a>
</g>
</g>
<!-- entite_geol&#45;&gt;infoterre.s_fgeol -->
<g id="edge5" class="edge">
<title>entite_geol:w&#45;&gt;infoterre.s_fgeol:e</title>
<path fill="none" stroke="#000000" d="M163.9797,-410.7226C152.6714,-411.5821 145.523,-413.2 129.5,-413.2"/>
<polygon fill="#000000" stroke="#000000" points="170.5052,-410.4878 178.6295,-413.7977 174.5026,-410.3439 178.5,-410.2 178.5,-410.2 178.5,-410.2 174.5026,-410.3439 178.3705,-406.6023 170.5052,-410.4878 170.5052,-410.4878"/>
<ellipse fill="none" stroke="#000000" cx="167.3072" cy="-410.6029" rx="3.2" ry="3.2"/>
</g>
<!-- site -->
<g id="node7" class="node">
<title>site</title>
<g id="a_node7"><a xlink:href="../../tables/site.html" xlink:title="site" target="_top">
<polygon fill="#ffffff" stroke="transparent" points="25.5,-303.7 25.5,-364.7 111.5,-364.7 111.5,-303.7 25.5,-303.7"/>
<polygon fill="#f5f5f5" stroke="transparent" points="25.5,-341.2 25.5,-364.2 111.5,-364.2 111.5,-341.2 25.5,-341.2"/>
<polygon fill="none" stroke="#000000" points="25.5,-341.2 25.5,-364.2 111.5,-364.2 111.5,-341.2 25.5,-341.2"/>
<text text-anchor="start" x="30.5" y="-350.3" font-family="Helvetica,sans-Serif" font-weight="bold" font-size="11.00" fill="#000000">site</text>
<text text-anchor="start" x="76.5437" y="-349.3" font-family="Helvetica,sans-Serif" font-size="11.00" fill="#000000">[table]</text>
<polygon fill="none" stroke="#000000" points="25.5,-322.2 25.5,-341.2 111.5,-341.2 111.5,-322.2 25.5,-322.2"/>
<text text-anchor="start" x="28.5" y="-328.3" font-family="Helvetica,sans-Serif" font-size="11.00" fill="#000000">...</text>
<polygon fill="#ffffff" stroke="transparent" points="25.5,-303.2 25.5,-322.2 46.5,-322.2 46.5,-303.2 25.5,-303.2"/>
<polygon fill="none" stroke="#000000" points="25.5,-303.2 25.5,-322.2 46.5,-322.2 46.5,-303.2 25.5,-303.2"/>
<text text-anchor="start" x="28.2027" y="-309.3" font-family="Helvetica,sans-Serif" font-size="11.00" fill="#000000">&lt; 1</text>
<polygon fill="#ffffff" stroke="transparent" points="46.5,-303.2 46.5,-322.2 90.5,-322.2 90.5,-303.2 46.5,-303.2"/>
<polygon fill="none" stroke="#000000" points="46.5,-303.2 46.5,-322.2 90.5,-322.2 90.5,-303.2 46.5,-303.2"/>
<text text-anchor="start" x="49.2478" y="-309.3" font-family="Helvetica,sans-Serif" font-size="11.00" fill="#000000">10 rows</text>
<polygon fill="#ffffff" stroke="transparent" points="90.5,-303.2 90.5,-322.2 111.5,-322.2 111.5,-303.2 90.5,-303.2"/>
<polygon fill="none" stroke="#000000" points="90.5,-303.2 90.5,-322.2 111.5,-322.2 111.5,-303.2 90.5,-303.2"/>
<text text-anchor="start" x="93.2027" y="-309.3" font-family="Helvetica,sans-Serif" font-size="11.00" fill="#000000">5 &gt;</text>
</a>
</g>
</g>
<!-- entite_geol&#45;&gt;site -->
<g id="edge6" class="edge">
<title>entite_geol:w&#45;&gt;site:e</title>
<path fill="none" stroke="#000000" d="M164.3909,-429.0665C132.1726,-412.0188 159.6863,-331.2 111.5,-331.2"/>
<polygon fill="#000000" stroke="#000000" points="170.6903,-430.4655 177.7195,-435.7144 174.5951,-431.3327 178.5,-432.2 178.5,-432.2 178.5,-432.2 174.5951,-431.3327 179.2805,-428.6856 170.6903,-430.4655 170.6903,-430.4655"/>
<ellipse fill="none" stroke="#000000" cx="167.5664" cy="-429.7717" rx="3.2" ry="3.2"/>
</g>
<!-- commentaire_eg -->
<g id="node3" class="node">
<title>commentaire_eg</title>
<g id="a_node3"><a xlink:href="../../tables/commentaire_eg.html" xlink:title="commentaire_eg" target="_top">
<polygon fill="#ffffff" stroke="transparent" points="459,-511.7 459,-572.7 583,-572.7 583,-511.7 459,-511.7"/>
<polygon fill="#f5f5f5" stroke="transparent" points="459,-549.2 459,-572.2 583,-572.2 583,-549.2 459,-549.2"/>
<polygon fill="none" stroke="#000000" points="459,-549.2 459,-572.2 583,-572.2 583,-549.2 459,-549.2"/>
<text text-anchor="start" x="463.5487" y="-558.3" font-family="Helvetica,sans-Serif" font-weight="bold" font-size="11.00" fill="#000000">commentaire_eg</text>
<text text-anchor="start" x="548.5219" y="-557.3" font-family="Helvetica,sans-Serif" font-size="11.00" fill="#000000">[table]</text>
<polygon fill="none" stroke="#000000" points="459,-530.2 459,-549.2 583,-549.2 583,-530.2 459,-530.2"/>
<text text-anchor="start" x="462" y="-536.3" font-family="Helvetica,sans-Serif" font-size="11.00" fill="#000000">...</text>
<polygon fill="#ffffff" stroke="transparent" points="459,-511.2 459,-530.2 509,-530.2 509,-511.2 459,-511.2"/>
<polygon fill="none" stroke="#000000" points="459,-511.2 459,-530.2 509,-530.2 509,-511.2 459,-511.2"/>
<text text-anchor="start" x="462" y="-517.3" font-family="Helvetica,sans-Serif" font-size="11.00" fill="#000000">&lt; 1</text>
<polygon fill="#ffffff" stroke="transparent" points="509,-511.2 509,-530.2 556,-530.2 556,-511.2 509,-511.2"/>
<polygon fill="none" stroke="#000000" points="509,-511.2 509,-530.2 556,-530.2 556,-511.2 509,-511.2"/>
<text text-anchor="start" x="526.1105" y="-517.3" font-family="Helvetica,sans-Serif" font-size="11.00" fill="#000000">1 row</text>
<polygon fill="#ffffff" stroke="transparent" points="556,-511.2 556,-530.2 583,-530.2 583,-511.2 556,-511.2"/>
<polygon fill="none" stroke="#000000" points="556,-511.2 556,-530.2 583,-530.2 583,-511.2 556,-511.2"/>
<text text-anchor="start" x="573.8862" y="-517.3" font-family="Helvetica,sans-Serif" font-size="11.00" fill="#000000"> &#160;</text>
</a>
</g>
</g>
<!-- commentaire_eg&#45;&gt;entite_geol -->
<g id="edge2" class="edge">
<title>commentaire_eg:w&#45;&gt;entite_geol:e</title>
<path fill="none" stroke="#000000" d="M444.2448,-537.928C406.2513,-531.0076 397.2417,-498.2 351.5,-498.2"/>
<polygon fill="#000000" stroke="#000000" points="451.0296,-538.5128 458.6908,-542.7867 455.0148,-538.8564 459,-539.2 459,-539.2 459,-539.2 455.0148,-538.8564 459.3092,-535.6133 451.0296,-538.5128 451.0296,-538.5128"/>
<ellipse fill="none" stroke="#000000" cx="447.8414" cy="-538.238" rx="3.2" ry="3.2"/>
</g>
<!-- complement_eg -->
<g id="node4" class="node">
<title>complement_eg</title>
<g id="a_node4"><a xlink:href="../../tables/complement_eg.html" xlink:title="complement_eg" target="_top">
<polygon fill="#ffffff" stroke="transparent" points="460.5,-429.7 460.5,-490.7 581.5,-490.7 581.5,-429.7 460.5,-429.7"/>
<polygon fill="#f5f5f5" stroke="transparent" points="461,-467.2 461,-490.2 582,-490.2 582,-467.2 461,-467.2"/>
<polygon fill="none" stroke="#000000" points="461,-467.2 461,-490.2 582,-490.2 582,-467.2 461,-467.2"/>
<text text-anchor="start" x="465.8796" y="-476.3" font-family="Helvetica,sans-Serif" font-weight="bold" font-size="11.00" fill="#000000">complement_eg</text>
<text text-anchor="start" x="547.5219" y="-475.3" font-family="Helvetica,sans-Serif" font-size="11.00" fill="#000000">[table]</text>
<polygon fill="none" stroke="#000000" points="461,-448.2 461,-467.2 582,-467.2 582,-448.2 461,-448.2"/>
<text text-anchor="start" x="464" y="-454.3" font-family="Helvetica,sans-Serif" font-size="11.00" fill="#000000">...</text>
<polygon fill="#ffffff" stroke="transparent" points="461,-429.2 461,-448.2 507,-448.2 507,-429.2 461,-429.2"/>
<polygon fill="none" stroke="#000000" points="461,-429.2 461,-448.2 507,-448.2 507,-429.2 461,-429.2"/>
<text text-anchor="start" x="464" y="-435.3" font-family="Helvetica,sans-Serif" font-size="11.00" fill="#000000">&lt; 1</text>
<polygon fill="#ffffff" stroke="transparent" points="507,-429.2 507,-448.2 557,-448.2 557,-429.2 507,-429.2"/>
<polygon fill="none" stroke="#000000" points="507,-429.2 507,-448.2 557,-448.2 557,-429.2 507,-429.2"/>
<text text-anchor="start" x="521.6105" y="-435.3" font-family="Helvetica,sans-Serif" font-size="11.00" fill="#000000">2 rows</text>
<polygon fill="#ffffff" stroke="transparent" points="557,-429.2 557,-448.2 582,-448.2 582,-429.2 557,-429.2"/>
<polygon fill="none" stroke="#000000" points="557,-429.2 557,-448.2 582,-448.2 582,-429.2 557,-429.2"/>
<text text-anchor="start" x="572.8862" y="-435.3" font-family="Helvetica,sans-Serif" font-size="11.00" fill="#000000"> &#160;</text>
</a>
</g>
</g>
<!-- complement_eg&#45;&gt;entite_geol -->
<g id="edge3" class="edge">
<title>complement_eg:w&#45;&gt;entite_geol:e</title>
<path fill="none" stroke="#000000" d="M446.5051,-458.3828C407.4242,-465.1052 398.1885,-498.2 351.5,-498.2"/>
<polygon fill="#000000" stroke="#000000" points="453.0265,-457.8507 461.2928,-460.7881 457.0133,-457.5254 461,-457.2 461,-457.2 461,-457.2 457.0133,-457.5254 460.7072,-453.6119 453.0265,-457.8507 453.0265,-457.8507"/>
<ellipse fill="none" stroke="#000000" cx="449.8371" cy="-458.111" rx="3.2" ry="3.2"/>
</g>
<!-- entite_geol_qcm -->
<g id="node8" class="node">
<title>entite_geol_qcm</title>
<g id="a_node8"><a xlink:href="../../tables/entite_geol_qcm.html" xlink:title="entite_geol_qcm" target="_top">
<polygon fill="#ffffff" stroke="transparent" points="400,-38.2 400,-326.2 642,-326.2 642,-38.2 400,-38.2"/>
<polygon fill="#f5f5f5" stroke="transparent" points="402,-301.2 402,-324.2 640,-324.2 640,-301.2 402,-301.2"/>
<polygon fill="none" stroke="#000000" points="402,-301.2 402,-324.2 640,-324.2 640,-301.2 402,-301.2"/>
<text text-anchor="start" x="407" y="-310.3" font-family="Helvetica,sans-Serif" font-weight="bold" font-size="11.00" fill="#000000">entite_geol_qcm</text>
<text text-anchor="start" x="605.0437" y="-309.3" font-family="Helvetica,sans-Serif" font-size="11.00" fill="#000000">[table]</text>
<polygon fill="none" stroke="#000000" points="402,-279.2 402,-301.2 541,-301.2 541,-279.2 402,-279.2"/>
<image xlink:href="../../images/primaryKeys.png" width="11px" height="12px" preserveAspectRatio="xMinYMin meet" x="407" y="-296.2"/>
<text text-anchor="start" x="422" y="-286.3" font-family="Helvetica,sans-Serif" font-size="11.00" fill="#000000">id</text>
<polygon fill="none" stroke="#000000" points="541,-279.2 541,-301.2 640,-301.2 640,-279.2 541,-279.2"/>
<text text-anchor="start" x="544" y="-286.9" font-family="Helvetica,sans-Serif" font-size="11.00" fill="#000000">serial[10]</text>
<polygon fill="none" stroke="#000000" points="402,-257.2 402,-279.2 541,-279.2 541,-257.2 402,-257.2"/>
<text text-anchor="start" x="422" y="-264.3" font-family="Helvetica,sans-Serif" font-size="11.00" fill="#000000">info_complement</text>
<polygon fill="none" stroke="#000000" points="541,-257.2 541,-279.2 640,-279.2 640,-257.2 541,-257.2"/>
<text text-anchor="start" x="544" y="-264.9" font-family="Helvetica,sans-Serif" font-size="11.00" fill="#000000">varchar[255]</text>
<polygon fill="none" stroke="#000000" points="402,-235.2 402,-257.2 541,-257.2 541,-235.2 402,-235.2"/>
<text text-anchor="start" x="422" y="-242.3" font-family="Helvetica,sans-Serif" font-size="11.00" fill="#000000">remarquable</text>
<polygon fill="none" stroke="#000000" points="541,-235.2 541,-257.2 640,-257.2 640,-235.2 541,-235.2"/>
<text text-anchor="start" x="544" y="-242.9" font-family="Helvetica,sans-Serif" font-size="11.00" fill="#000000">bool[1]</text>
<polygon fill="#ffffff" stroke="transparent" points="402,-213.2 402,-235.2 541,-235.2 541,-213.2 402,-213.2"/>
<polygon fill="none" stroke="#000000" points="402,-213.2 402,-235.2 541,-235.2 541,-213.2 402,-213.2"/>
<image xlink:href="../../images/foreignKeys.png" width="11px" height="12px" preserveAspectRatio="xMinYMin meet" x="407" y="-230.2"/>
<text text-anchor="start" x="422" y="-220.3" font-family="Helvetica,sans-Serif" font-size="11.00" fill="#000000">entite_geol_id</text>
<polygon fill="none" stroke="#000000" points="541,-213.2 541,-235.2 640,-235.2 640,-213.2 541,-213.2"/>
<text text-anchor="start" x="544" y="-220.9" font-family="Helvetica,sans-Serif" font-size="11.00" fill="#000000">int4[10]</text>
<polygon fill="#ffffff" stroke="transparent" points="402,-191.2 402,-213.2 541,-213.2 541,-191.2 402,-191.2"/>
<polygon fill="none" stroke="#000000" points="402,-191.2 402,-213.2 541,-213.2 541,-191.2 402,-191.2"/>
<image xlink:href="../../images/foreignKeys.png" width="11px" height="12px" preserveAspectRatio="xMinYMin meet" x="407" y="-208.2"/>
<text text-anchor="start" x="422" y="-198.3" font-family="Helvetica,sans-Serif" font-size="11.00" fill="#000000">qcm_id</text>
<polygon fill="none" stroke="#000000" points="541,-191.2 541,-213.2 640,-213.2 640,-191.2 541,-191.2"/>
<text text-anchor="start" x="544" y="-198.9" font-family="Helvetica,sans-Serif" font-size="11.00" fill="#000000">int4[10]</text>
<polygon fill="none" stroke="#000000" points="402,-169.2 402,-191.2 541,-191.2 541,-169.2 402,-169.2"/>
<text text-anchor="start" x="422" y="-176.3" font-family="Helvetica,sans-Serif" font-size="11.00" fill="#000000">interet_scientifique</text>
<polygon fill="none" stroke="#000000" points="541,-169.2 541,-191.2 640,-191.2 640,-169.2 541,-169.2"/>
<text text-anchor="start" x="544" y="-176.9" font-family="Helvetica,sans-Serif" font-size="11.00" fill="#000000">bool[1]</text>
<polygon fill="none" stroke="#000000" points="402,-147.2 402,-169.2 541,-169.2 541,-147.2 402,-147.2"/>
<text text-anchor="start" x="422" y="-154.3" font-family="Helvetica,sans-Serif" font-size="11.00" fill="#000000">interet_pedagogique</text>
<polygon fill="none" stroke="#000000" points="541,-147.2 541,-169.2 640,-169.2 640,-147.2 541,-147.2"/>
<text text-anchor="start" x="544" y="-154.9" font-family="Helvetica,sans-Serif" font-size="11.00" fill="#000000">bool[1]</text>
<polygon fill="none" stroke="#000000" points="402,-125.2 402,-147.2 541,-147.2 541,-125.2 402,-125.2"/>
<text text-anchor="start" x="422" y="-132.3" font-family="Helvetica,sans-Serif" font-size="11.00" fill="#000000">interet_esthetique</text>
<polygon fill="none" stroke="#000000" points="541,-125.2 541,-147.2 640,-147.2 640,-125.2 541,-125.2"/>
<text text-anchor="start" x="544" y="-132.9" font-family="Helvetica,sans-Serif" font-size="11.00" fill="#000000">bool[1]</text>
<polygon fill="none" stroke="#000000" points="402,-103.2 402,-125.2 541,-125.2 541,-103.2 402,-103.2"/>
<text text-anchor="start" x="422" y="-110.3" font-family="Helvetica,sans-Serif" font-size="11.00" fill="#000000">interet_historique</text>
<polygon fill="none" stroke="#000000" points="541,-103.2 541,-125.2 640,-125.2 640,-103.2 541,-103.2"/>
<text text-anchor="start" x="544" y="-110.9" font-family="Helvetica,sans-Serif" font-size="11.00" fill="#000000">bool[1]</text>
<polygon fill="none" stroke="#000000" points="402,-81.2 402,-103.2 541,-103.2 541,-81.2 402,-81.2"/>
<text text-anchor="start" x="422" y="-88.3" font-family="Helvetica,sans-Serif" font-size="11.00" fill="#000000">remarquable_info</text>
<polygon fill="none" stroke="#000000" points="541,-81.2 541,-103.2 640,-103.2 640,-81.2 541,-81.2"/>
<text text-anchor="start" x="544" y="-88.9" font-family="Helvetica,sans-Serif" font-size="11.00" fill="#000000">text[2147483647]</text>
<polygon fill="none" stroke="#000000" points="402,-59.2 402,-81.2 541,-81.2 541,-59.2 402,-59.2"/>
<text text-anchor="start" x="422" y="-66.3" font-family="Helvetica,sans-Serif" font-size="11.00" fill="#000000">geom</text>
<polygon fill="none" stroke="#000000" points="541,-59.2 541,-81.2 640,-81.2 640,-59.2 541,-59.2"/>
<text text-anchor="start" x="543.7258" y="-66.9" font-family="Helvetica,sans-Serif" font-size="11.00" fill="#000000">jsonb[2147483647]</text>
<polygon fill="#ffffff" stroke="transparent" points="402,-40.2 402,-59.2 460,-59.2 460,-40.2 402,-40.2"/>
<polygon fill="none" stroke="#000000" points="402,-40.2 402,-59.2 460,-59.2 460,-40.2 402,-40.2"/>
<text text-anchor="start" x="405" y="-46.3" font-family="Helvetica,sans-Serif" font-size="11.00" fill="#000000">&lt; 2</text>
<polygon fill="#ffffff" stroke="transparent" points="460,-40.2 460,-59.2 541,-59.2 541,-40.2 460,-40.2"/>
<polygon fill="none" stroke="#000000" points="460,-40.2 460,-59.2 541,-59.2 541,-40.2 460,-40.2"/>
<text text-anchor="start" x="499.4956" y="-46.3" font-family="Helvetica,sans-Serif" font-size="11.00" fill="#000000">34 rows</text>
<polygon fill="#ffffff" stroke="transparent" points="541,-40.2 541,-59.2 640,-59.2 640,-40.2 541,-40.2"/>
<polygon fill="none" stroke="#000000" points="541,-40.2 541,-59.2 640,-59.2 640,-40.2 541,-40.2"/>
<text text-anchor="start" x="621.4053" y="-46.3" font-family="Helvetica,sans-Serif" font-size="11.00" fill="#000000">0 &gt;</text>
<polygon fill="none" stroke="#000000" stroke-width="2" points="401,-39.2 401,-325.2 641,-325.2 641,-39.2 401,-39.2"/>
</a>
</g>
</g>
<!-- entite_geol_qcm&#45;&gt;entite_geol -->
<g id="edge7" class="edge">
<title>entite_geol_qcm:w&#45;&gt;entite_geol:e</title>
<path fill="none" stroke="#000000" d="M388.6254,-230.1777C351.9307,-270.2475 407.9727,-498.2 351.5,-498.2"/>
<polygon fill="#000000" stroke="#000000" points="394.6963,-227.4644 403.469,-227.4867 398.3481,-225.8322 402,-224.2 402,-224.2 402,-224.2 398.3481,-225.8322 400.531,-220.9133 394.6963,-227.4644 394.6963,-227.4644"/>
<ellipse fill="none" stroke="#000000" cx="391.7748" cy="-228.7701" rx="3.2" ry="3.2"/>
</g>
<!-- qcm -->
<g id="node9" class="node">
<title>qcm</title>
<g id="a_node9"><a xlink:href="../../tables/qcm.html" xlink:title="qcm" target="_top">
<polygon fill="#ffffff" stroke="transparent" points="196,-109.7 196,-236.7 333,-236.7 333,-109.7 196,-109.7"/>
<polygon fill="#f5f5f5" stroke="transparent" points="196.5,-213.2 196.5,-236.2 333.5,-236.2 333.5,-213.2 196.5,-213.2"/>
<polygon fill="none" stroke="#000000" points="196.5,-213.2 196.5,-236.2 333.5,-236.2 333.5,-213.2 196.5,-213.2"/>
<text text-anchor="start" x="201.5" y="-222.3" font-family="Helvetica,sans-Serif" font-weight="bold" font-size="11.00" fill="#000000">qcm</text>
<text text-anchor="start" x="298.5437" y="-221.3" font-family="Helvetica,sans-Serif" font-size="11.00" fill="#000000">[table]</text>
<polygon fill="none" stroke="#000000" points="196.5,-191.2 196.5,-213.2 333.5,-213.2 333.5,-191.2 196.5,-191.2"/>
<image xlink:href="../../images/primaryKeys.png" width="11px" height="12px" preserveAspectRatio="xMinYMin meet" x="201.5" y="-208.2"/>
<text text-anchor="start" x="216.5" y="-198.3" font-family="Helvetica,sans-Serif" font-size="11.00" fill="#000000">id</text>
<polygon fill="#ffffff" stroke="transparent" points="196.5,-169.2 196.5,-191.2 333.5,-191.2 333.5,-169.2 196.5,-169.2"/>
<polygon fill="none" stroke="#000000" points="196.5,-169.2 196.5,-191.2 333.5,-191.2 333.5,-169.2 196.5,-169.2"/>
<text text-anchor="start" x="216.5" y="-176.3" font-family="Helvetica,sans-Serif" font-size="11.00" fill="#000000">question</text>
<polygon fill="#ffffff" stroke="transparent" points="196.5,-147.2 196.5,-169.2 333.5,-169.2 333.5,-147.2 196.5,-147.2"/>
<polygon fill="none" stroke="#000000" points="196.5,-147.2 196.5,-169.2 333.5,-169.2 333.5,-147.2 196.5,-147.2"/>
<text text-anchor="start" x="216.5" y="-154.3" font-family="Helvetica,sans-Serif" font-size="11.00" fill="#000000">rubrique</text>
<polygon fill="none" stroke="#000000" points="196.5,-128.2 196.5,-147.2 333.5,-147.2 333.5,-128.2 196.5,-128.2"/>
<text text-anchor="start" x="199.5" y="-134.3" font-family="Helvetica,sans-Serif" font-size="11.00" fill="#000000">...</text>
<polygon fill="#ffffff" stroke="transparent" points="196.5,-109.2 196.5,-128.2 228.5,-128.2 228.5,-109.2 196.5,-109.2"/>
<polygon fill="none" stroke="#000000" points="196.5,-109.2 196.5,-128.2 228.5,-128.2 228.5,-109.2 196.5,-109.2"/>
<text text-anchor="start" x="199.5" y="-115.3" font-family="Helvetica,sans-Serif" font-size="11.00" fill="#000000"> &#160;</text>
<polygon fill="#ffffff" stroke="transparent" points="228.5,-109.2 228.5,-128.2 301.5,-128.2 301.5,-109.2 228.5,-109.2"/>
<polygon fill="none" stroke="#000000" points="228.5,-109.2 228.5,-128.2 301.5,-128.2 301.5,-109.2 228.5,-109.2"/>
<text text-anchor="start" x="241.047" y="-115.3" font-family="Helvetica,sans-Serif" font-size="11.00" fill="#000000">1 012 rows</text>
<polygon fill="#ffffff" stroke="transparent" points="301.5,-109.2 301.5,-128.2 333.5,-128.2 333.5,-109.2 301.5,-109.2"/>
<polygon fill="none" stroke="#000000" points="301.5,-109.2 301.5,-128.2 333.5,-128.2 333.5,-109.2 301.5,-109.2"/>
<text text-anchor="start" x="314.9053" y="-115.3" font-family="Helvetica,sans-Serif" font-size="11.00" fill="#000000">1 &gt;</text>
</a>
</g>
</g>
<!-- entite_geol_qcm&#45;&gt;qcm -->
<g id="edge8" class="edge">
<title>entite_geol_qcm:w&#45;&gt;qcm:e</title>
<path fill="none" stroke="#000000" d="M387.5353,-202.2C368.0831,-202.2 358.474,-202.2 333.5,-202.2"/>
<polygon fill="#000000" stroke="#000000" points="394,-202.2001 402,-205.8 398,-202.2 402,-202.2 402,-202.2 402,-202.2 398,-202.2 402,-198.6 394,-202.2001 394,-202.2001"/>
<ellipse fill="none" stroke="#000000" cx="390.8" cy="-202.2001" rx="3.2" ry="3.2"/>
</g>
<!-- photo -->
<g id="node10" class="node">
<title>photo</title>
<g id="a_node10"><a xlink:href="../../tables/photo.html" xlink:title="photo" target="_top">
<polygon fill="#ffffff" stroke="transparent" points="482.5,-347.7 482.5,-408.7 559.5,-408.7 559.5,-347.7 482.5,-347.7"/>
<polygon fill="#f5f5f5" stroke="transparent" points="483,-385.2 483,-408.2 560,-408.2 560,-385.2 483,-385.2"/>
<polygon fill="none" stroke="#000000" points="483,-385.2 483,-408.2 560,-408.2 560,-385.2 483,-385.2"/>
<text text-anchor="start" x="488" y="-394.3" font-family="Helvetica,sans-Serif" font-weight="bold" font-size="11.00" fill="#000000">photo</text>
<text text-anchor="start" x="525.0437" y="-393.3" font-family="Helvetica,sans-Serif" font-size="11.00" fill="#000000">[table]</text>
<polygon fill="none" stroke="#000000" points="483,-366.2 483,-385.2 560,-385.2 560,-366.2 483,-366.2"/>
<text text-anchor="start" x="486" y="-372.3" font-family="Helvetica,sans-Serif" font-size="11.00" fill="#000000">...</text>
<polygon fill="#ffffff" stroke="transparent" points="483,-347.2 483,-366.2 504,-366.2 504,-347.2 483,-347.2"/>
<polygon fill="none" stroke="#000000" points="483,-347.2 483,-366.2 504,-366.2 504,-347.2 483,-347.2"/>
<text text-anchor="start" x="485.7027" y="-353.3" font-family="Helvetica,sans-Serif" font-size="11.00" fill="#000000">&lt; 2</text>
<polygon fill="#ffffff" stroke="transparent" points="504,-347.2 504,-366.2 548,-366.2 548,-347.2 504,-347.2"/>
<polygon fill="none" stroke="#000000" points="504,-347.2 504,-366.2 548,-366.2 548,-347.2 504,-347.2"/>
<text text-anchor="start" x="506.7478" y="-353.3" font-family="Helvetica,sans-Serif" font-size="11.00" fill="#000000">10 rows</text>
<polygon fill="#ffffff" stroke="transparent" points="548,-347.2 548,-366.2 560,-366.2 560,-347.2 548,-347.2"/>
<polygon fill="none" stroke="#000000" points="548,-347.2 548,-366.2 560,-366.2 560,-347.2 548,-347.2"/>
<text text-anchor="start" x="550.9431" y="-353.3" font-family="Helvetica,sans-Serif" font-size="11.00" fill="#000000"> &#160;</text>
</a>
</g>
</g>
<!-- photo&#45;&gt;entite_geol -->
<g id="edge9" class="edge">
<title>photo:w&#45;&gt;entite_geol:e</title>
<path fill="none" stroke="#000000" d="M468.4037,-375.7293C434.5586,-378.4127 420.369,-391.4858 392,-419.2 363.7765,-446.7721 390.9562,-498.2 351.5,-498.2"/>
<polygon fill="#000000" stroke="#000000" points="475.0053,-375.49 483.1305,-378.7976 479.0026,-375.345 483,-375.2 483,-375.2 483,-375.2 479.0026,-375.345 482.8695,-371.6024 475.0053,-375.49 475.0053,-375.49"/>
<ellipse fill="none" stroke="#000000" cx="471.8074" cy="-375.606" rx="3.2" ry="3.2"/>
</g>
<!-- photo&#45;&gt;site -->
<g id="edge10" class="edge">
<title>photo:w&#45;&gt;site:e</title>
<path fill="none" stroke="#000000" d="M468.5832,-374.805C424.2517,-372.2642 409.5108,-358.1074 359,-351.2 249.6591,-336.2474 221.8586,-331.2 111.5,-331.2"/>
<polygon fill="#000000" stroke="#000000" points="475.003,-374.9809 482.9014,-378.7986 479.0015,-375.0904 483,-375.2 483,-375.2 483,-375.2 479.0015,-375.0904 483.0986,-371.6014 475.003,-374.9809 475.003,-374.9809"/>
<ellipse fill="none" stroke="#000000" cx="471.8042" cy="-374.8932" rx="3.2" ry="3.2"/>
</g>
</g>
</svg>
