<?xml version="1.0" encoding="UTF-8" standalone="no"?>
<!DOCTYPE svg PUBLIC "-//W3C//DTD SVG 1.1//EN"
 "http://www.w3.org/Graphics/SVG/1.1/DTD/svg11.dtd">
<!-- Generated by graphviz version 2.40.1 (20161225.0304)
 -->
<!-- Title: oneDegreeRelationshipsDiagram Pages: 1 -->
<svg width="488pt" height="369pt"
 viewBox="0.00 0.00 488.00 369.20" xmlns="http://www.w3.org/2000/svg" xmlns:xlink="http://www.w3.org/1999/xlink">
<g id="graph0" class="graph" transform="scale(1 1) rotate(0) translate(4 365.2)">
<title>oneDegreeRelationshipsDiagram</title>
<polygon fill="#ffffff" stroke="transparent" points="-4,4 -4,-365.2 484,-365.2 484,4 -4,4"/>
<text text-anchor="middle" x="72.4936" y="-7.3" font-family="Helvetica,sans-Serif" font-size="11.00" fill="#000000">Generated by SchemaSpy</text>
<!-- entite_geol_qcm -->
<g id="node1" class="node">
<title>entite_geol_qcm</title>
<g id="a_node1"><a xlink:href="../../tables/entite_geol_qcm.html" xlink:title="entite_geol_qcm" target="_top">
<polygon fill="#ffffff" stroke="transparent" points="230,-51.7 230,-339.7 472,-339.7 472,-51.7 230,-51.7"/>
<polygon fill="#f5f5f5" stroke="transparent" points="232,-314.7 232,-337.7 470,-337.7 470,-314.7 232,-314.7"/>
<polygon fill="none" stroke="#000000" points="232,-314.7 232,-337.7 470,-337.7 470,-314.7 232,-314.7"/>
<text text-anchor="start" x="237" y="-323.8" font-family="Helvetica,sans-Serif" font-weight="bold" font-size="11.00" fill="#000000">entite_geol_qcm</text>
<text text-anchor="start" x="435.0437" y="-322.8" font-family="Helvetica,sans-Serif" font-size="11.00" fill="#000000">[table]</text>
<polygon fill="none" stroke="#000000" points="232,-292.7 232,-314.7 371,-314.7 371,-292.7 232,-292.7"/>
<image xlink:href="../../images/primaryKeys.png" width="11px" height="12px" preserveAspectRatio="xMinYMin meet" x="237" y="-309.7"/>
<text text-anchor="start" x="252" y="-299.8" font-family="Helvetica,sans-Serif" font-size="11.00" fill="#000000">id</text>
<polygon fill="none" stroke="#000000" points="371,-292.7 371,-314.7 470,-314.7 470,-292.7 371,-292.7"/>
<text text-anchor="start" x="374" y="-300.4" font-family="Helvetica,sans-Serif" font-size="11.00" fill="#000000">serial[10]</text>
<polygon fill="none" stroke="#000000" points="232,-270.7 232,-292.7 371,-292.7 371,-270.7 232,-270.7"/>
<text text-anchor="start" x="252" y="-277.8" font-family="Helvetica,sans-Serif" font-size="11.00" fill="#000000">info_complement</text>
<polygon fill="none" stroke="#000000" points="371,-270.7 371,-292.7 470,-292.7 470,-270.7 371,-270.7"/>
<text text-anchor="start" x="374" y="-278.4" font-family="Helvetica,sans-Serif" font-size="11.00" fill="#000000">varchar[255]</text>
<polygon fill="none" stroke="#000000" points="232,-248.7 232,-270.7 371,-270.7 371,-248.7 232,-248.7"/>
<text text-anchor="start" x="252" y="-255.8" font-family="Helvetica,sans-Serif" font-size="11.00" fill="#000000">remarquable</text>
<polygon fill="none" stroke="#000000" points="371,-248.7 371,-270.7 470,-270.7 470,-248.7 371,-248.7"/>
<text text-anchor="start" x="374" y="-256.4" font-family="Helvetica,sans-Serif" font-size="11.00" fill="#000000">bool[1]</text>
<polygon fill="#ffffff" stroke="transparent" points="232,-226.7 232,-248.7 371,-248.7 371,-226.7 232,-226.7"/>
<polygon fill="none" stroke="#000000" points="232,-226.7 232,-248.7 371,-248.7 371,-226.7 232,-226.7"/>
<image xlink:href="../../images/foreignKeys.png" width="11px" height="12px" preserveAspectRatio="xMinYMin meet" x="237" y="-243.7"/>
<text text-anchor="start" x="252" y="-233.8" font-family="Helvetica,sans-Serif" font-size="11.00" fill="#000000">entite_geol_id</text>
<polygon fill="none" stroke="#000000" points="371,-226.7 371,-248.7 470,-248.7 470,-226.7 371,-226.7"/>
<text text-anchor="start" x="374" y="-234.4" font-family="Helvetica,sans-Serif" font-size="11.00" fill="#000000">int4[10]</text>
<polygon fill="#ffffff" stroke="transparent" points="232,-204.7 232,-226.7 371,-226.7 371,-204.7 232,-204.7"/>
<polygon fill="none" stroke="#000000" points="232,-204.7 232,-226.7 371,-226.7 371,-204.7 232,-204.7"/>
<image xlink:href="../../images/foreignKeys.png" width="11px" height="12px" preserveAspectRatio="xMinYMin meet" x="237" y="-221.7"/>
<text text-anchor="start" x="252" y="-211.8" font-family="Helvetica,sans-Serif" font-size="11.00" fill="#000000">qcm_id</text>
<polygon fill="none" stroke="#000000" points="371,-204.7 371,-226.7 470,-226.7 470,-204.7 371,-204.7"/>
<text text-anchor="start" x="374" y="-212.4" font-family="Helvetica,sans-Serif" font-size="11.00" fill="#000000">int4[10]</text>
<polygon fill="none" stroke="#000000" points="232,-182.7 232,-204.7 371,-204.7 371,-182.7 232,-182.7"/>
<text text-anchor="start" x="252" y="-189.8" font-family="Helvetica,sans-Serif" font-size="11.00" fill="#000000">interet_scientifique</text>
<polygon fill="none" stroke="#000000" points="371,-182.7 371,-204.7 470,-204.7 470,-182.7 371,-182.7"/>
<text text-anchor="start" x="374" y="-190.4" font-family="Helvetica,sans-Serif" font-size="11.00" fill="#000000">bool[1]</text>
<polygon fill="none" stroke="#000000" points="232,-160.7 232,-182.7 371,-182.7 371,-160.7 232,-160.7"/>
<text text-anchor="start" x="252" y="-167.8" font-family="Helvetica,sans-Serif" font-size="11.00" fill="#000000">interet_pedagogique</text>
<polygon fill="none" stroke="#000000" points="371,-160.7 371,-182.7 470,-182.7 470,-160.7 371,-160.7"/>
<text text-anchor="start" x="374" y="-168.4" font-family="Helvetica,sans-Serif" font-size="11.00" fill="#000000">bool[1]</text>
<polygon fill="none" stroke="#000000" points="232,-138.7 232,-160.7 371,-160.7 371,-138.7 232,-138.7"/>
<text text-anchor="start" x="252" y="-145.8" font-family="Helvetica,sans-Serif" font-size="11.00" fill="#000000">interet_esthetique</text>
<polygon fill="none" stroke="#000000" points="371,-138.7 371,-160.7 470,-160.7 470,-138.7 371,-138.7"/>
<text text-anchor="start" x="374" y="-146.4" font-family="Helvetica,sans-Serif" font-size="11.00" fill="#000000">bool[1]</text>
<polygon fill="none" stroke="#000000" points="232,-116.7 232,-138.7 371,-138.7 371,-116.7 232,-116.7"/>
<text text-anchor="start" x="252" y="-123.8" font-family="Helvetica,sans-Serif" font-size="11.00" fill="#000000">interet_historique</text>
<polygon fill="none" stroke="#000000" points="371,-116.7 371,-138.7 470,-138.7 470,-116.7 371,-116.7"/>
<text text-anchor="start" x="374" y="-124.4" font-family="Helvetica,sans-Serif" font-size="11.00" fill="#000000">bool[1]</text>
<polygon fill="none" stroke="#000000" points="232,-94.7 232,-116.7 371,-116.7 371,-94.7 232,-94.7"/>
<text text-anchor="start" x="252" y="-101.8" font-family="Helvetica,sans-Serif" font-size="11.00" fill="#000000">remarquable_info</text>
<polygon fill="none" stroke="#000000" points="371,-94.7 371,-116.7 470,-116.7 470,-94.7 371,-94.7"/>
<text text-anchor="start" x="374" y="-102.4" font-family="Helvetica,sans-Serif" font-size="11.00" fill="#000000">text[2147483647]</text>
<polygon fill="none" stroke="#000000" points="232,-72.7 232,-94.7 371,-94.7 371,-72.7 232,-72.7"/>
<text text-anchor="start" x="252" y="-79.8" font-family="Helvetica,sans-Serif" font-size="11.00" fill="#000000">geom</text>
<polygon fill="none" stroke="#000000" points="371,-72.7 371,-94.7 470,-94.7 470,-72.7 371,-72.7"/>
<text text-anchor="start" x="373.7258" y="-80.4" font-family="Helvetica,sans-Serif" font-size="11.00" fill="#000000">jsonb[2147483647]</text>
<polygon fill="#ffffff" stroke="transparent" points="232,-53.7 232,-72.7 290,-72.7 290,-53.7 232,-53.7"/>
<polygon fill="none" stroke="#000000" points="232,-53.7 232,-72.7 290,-72.7 290,-53.7 232,-53.7"/>
<text text-anchor="start" x="235" y="-59.8" font-family="Helvetica,sans-Serif" font-size="11.00" fill="#000000">&lt; 2</text>
<polygon fill="#ffffff" stroke="transparent" points="290,-53.7 290,-72.7 371,-72.7 371,-53.7 290,-53.7"/>
<polygon fill="none" stroke="#000000" points="290,-53.7 290,-72.7 371,-72.7 371,-53.7 290,-53.7"/>
<text text-anchor="start" x="329.4956" y="-59.8" font-family="Helvetica,sans-Serif" font-size="11.00" fill="#000000">34 rows</text>
<polygon fill="#ffffff" stroke="transparent" points="371,-53.7 371,-72.7 470,-72.7 470,-53.7 371,-53.7"/>
<polygon fill="none" stroke="#000000" points="371,-53.7 371,-72.7 470,-72.7 470,-53.7 371,-53.7"/>
<text text-anchor="start" x="451.4053" y="-59.8" font-family="Helvetica,sans-Serif" font-size="11.00" fill="#000000">0 &gt;</text>
<polygon fill="none" stroke="#000000" stroke-width="2" points="231,-52.7 231,-338.7 471,-338.7 471,-52.7 231,-52.7"/>
</a>
</g>
</g>
<!-- entite_geol -->
<g id="node2" class="node">
<title>entite_geol</title>
<g id="a_node2"><a xlink:href="../../tables/entite_geol.html" xlink:title="entite_geol" target="_top">
<polygon fill="#ffffff" stroke="transparent" points="8,-186.2 8,-357.2 181,-357.2 181,-186.2 8,-186.2"/>
<polygon fill="#f5f5f5" stroke="transparent" points="8.5,-333.7 8.5,-356.7 181.5,-356.7 181.5,-333.7 8.5,-333.7"/>
<polygon fill="none" stroke="#000000" points="8.5,-333.7 8.5,-356.7 181.5,-356.7 181.5,-333.7 8.5,-333.7"/>
<text text-anchor="start" x="13.5" y="-342.8" font-family="Helvetica,sans-Serif" font-weight="bold" font-size="11.00" fill="#000000">entite_geol</text>
<text text-anchor="start" x="146.5437" y="-341.8" font-family="Helvetica,sans-Serif" font-size="11.00" fill="#000000">[table]</text>
<polygon fill="none" stroke="#000000" points="8.5,-311.7 8.5,-333.7 181.5,-333.7 181.5,-311.7 8.5,-311.7"/>
<image xlink:href="../../images/primaryKeys.png" width="11px" height="12px" preserveAspectRatio="xMinYMin meet" x="13.5" y="-328.7"/>
<text text-anchor="start" x="28.5" y="-318.8" font-family="Helvetica,sans-Serif" font-size="11.00" fill="#000000">id</text>
<polygon fill="#ffffff" stroke="transparent" points="8.5,-289.7 8.5,-311.7 181.5,-311.7 181.5,-289.7 8.5,-289.7"/>
<polygon fill="none" stroke="#000000" points="8.5,-289.7 8.5,-311.7 181.5,-311.7 181.5,-289.7 8.5,-289.7"/>
<text text-anchor="start" x="28.5" y="-296.8" font-family="Helvetica,sans-Serif" font-size="11.00" fill="#000000">geom</text>
<polygon fill="#ffffff" stroke="transparent" points="8.5,-267.7 8.5,-289.7 181.5,-289.7 181.5,-267.7 8.5,-267.7"/>
<polygon fill="none" stroke="#000000" points="8.5,-267.7 8.5,-289.7 181.5,-289.7 181.5,-267.7 8.5,-267.7"/>
<image xlink:href="../../images/foreignKeys.png" width="11px" height="12px" preserveAspectRatio="xMinYMin meet" x="13.5" y="-284.7"/>
<text text-anchor="start" x="28.5" y="-274.8" font-family="Helvetica,sans-Serif" font-size="11.00" fill="#000000">ere_geol_id</text>
<polygon fill="#ffffff" stroke="transparent" points="8.5,-245.7 8.5,-267.7 181.5,-267.7 181.5,-245.7 8.5,-245.7"/>
<polygon fill="none" stroke="#000000" points="8.5,-245.7 8.5,-267.7 181.5,-267.7 181.5,-245.7 8.5,-245.7"/>
<image xlink:href="../../images/foreignKeys.png" width="11px" height="12px" preserveAspectRatio="xMinYMin meet" x="13.5" y="-262.7"/>
<text text-anchor="start" x="28.5" y="-252.8" font-family="Helvetica,sans-Serif" font-size="11.00" fill="#000000">site_id</text>
<polygon fill="#ffffff" stroke="transparent" points="8.5,-223.7 8.5,-245.7 181.5,-245.7 181.5,-223.7 8.5,-223.7"/>
<polygon fill="none" stroke="#000000" points="8.5,-223.7 8.5,-245.7 181.5,-245.7 181.5,-223.7 8.5,-223.7"/>
<image xlink:href="../../images/foreignKeys.png" width="11px" height="12px" preserveAspectRatio="xMinYMin meet" x="13.5" y="-240.7"/>
<text text-anchor="start" x="28.5" y="-230.8" font-family="Helvetica,sans-Serif" font-size="11.00" fill="#000000">s_fgeol_id</text>
<polygon fill="none" stroke="#000000" points="8.5,-204.7 8.5,-223.7 181.5,-223.7 181.5,-204.7 8.5,-204.7"/>
<text text-anchor="start" x="11.5" y="-210.8" font-family="Helvetica,sans-Serif" font-size="11.00" fill="#000000">...</text>
<polygon fill="#ffffff" stroke="transparent" points="8.5,-185.7 8.5,-204.7 72.5,-204.7 72.5,-185.7 8.5,-185.7"/>
<polygon fill="none" stroke="#000000" points="8.5,-185.7 8.5,-204.7 72.5,-204.7 72.5,-185.7 8.5,-185.7"/>
<text text-anchor="start" x="11.5" y="-191.8" font-family="Helvetica,sans-Serif" font-size="11.00" fill="#000000">&lt; 3</text>
<polygon fill="#ffffff" stroke="transparent" points="72.5,-185.7 72.5,-204.7 138.5,-204.7 138.5,-185.7 72.5,-185.7"/>
<polygon fill="none" stroke="#000000" points="72.5,-185.7 72.5,-204.7 138.5,-204.7 138.5,-185.7 72.5,-185.7"/>
<text text-anchor="start" x="96.9956" y="-191.8" font-family="Helvetica,sans-Serif" font-size="11.00" fill="#000000">24 rows</text>
<polygon fill="#ffffff" stroke="transparent" points="138.5,-185.7 138.5,-204.7 181.5,-204.7 181.5,-185.7 138.5,-185.7"/>
<polygon fill="none" stroke="#000000" points="138.5,-185.7 138.5,-204.7 181.5,-204.7 181.5,-185.7 138.5,-185.7"/>
<text text-anchor="start" x="162.9053" y="-191.8" font-family="Helvetica,sans-Serif" font-size="11.00" fill="#000000">5 &gt;</text>
</a>
</g>
</g>
<!-- entite_geol_qcm&#45;&gt;entite_geol -->
<g id="edge1" class="edge">
<title>entite_geol_qcm:w&#45;&gt;entite_geol:e</title>
<path fill="none" stroke="#000000" d="M218.1216,-242.032C196.76,-259.3534 219.4344,-322.7 181.5,-322.7"/>
<polygon fill="#000000" stroke="#000000" points="224.3634,-240.0837 233.0727,-241.1365 228.1817,-238.8919 232,-237.7 232,-237.7 232,-237.7 228.1817,-238.8919 230.9273,-234.2635 224.3634,-240.0837 224.3634,-240.0837"/>
<ellipse fill="none" stroke="#000000" cx="221.3087" cy="-241.0372" rx="3.2" ry="3.2"/>
</g>
<!-- qcm -->
<g id="node3" class="node">
<title>qcm</title>
<g id="a_node3"><a xlink:href="../../tables/qcm.html" xlink:title="qcm" target="_top">
<polygon fill="#ffffff" stroke="transparent" points="26,-38.2 26,-165.2 163,-165.2 163,-38.2 26,-38.2"/>
<polygon fill="#f5f5f5" stroke="transparent" points="26.5,-141.7 26.5,-164.7 163.5,-164.7 163.5,-141.7 26.5,-141.7"/>
<polygon fill="none" stroke="#000000" points="26.5,-141.7 26.5,-164.7 163.5,-164.7 163.5,-141.7 26.5,-141.7"/>
<text text-anchor="start" x="31.5" y="-150.8" font-family="Helvetica,sans-Serif" font-weight="bold" font-size="11.00" fill="#000000">qcm</text>
<text text-anchor="start" x="128.5437" y="-149.8" font-family="Helvetica,sans-Serif" font-size="11.00" fill="#000000">[table]</text>
<polygon fill="none" stroke="#000000" points="26.5,-119.7 26.5,-141.7 163.5,-141.7 163.5,-119.7 26.5,-119.7"/>
<image xlink:href="../../images/primaryKeys.png" width="11px" height="12px" preserveAspectRatio="xMinYMin meet" x="31.5" y="-136.7"/>
<text text-anchor="start" x="46.5" y="-126.8" font-family="Helvetica,sans-Serif" font-size="11.00" fill="#000000">id</text>
<polygon fill="#ffffff" stroke="transparent" points="26.5,-97.7 26.5,-119.7 163.5,-119.7 163.5,-97.7 26.5,-97.7"/>
<polygon fill="none" stroke="#000000" points="26.5,-97.7 26.5,-119.7 163.5,-119.7 163.5,-97.7 26.5,-97.7"/>
<text text-anchor="start" x="46.5" y="-104.8" font-family="Helvetica,sans-Serif" font-size="11.00" fill="#000000">question</text>
<polygon fill="#ffffff" stroke="transparent" points="26.5,-75.7 26.5,-97.7 163.5,-97.7 163.5,-75.7 26.5,-75.7"/>
<polygon fill="none" stroke="#000000" points="26.5,-75.7 26.5,-97.7 163.5,-97.7 163.5,-75.7 26.5,-75.7"/>
<text text-anchor="start" x="46.5" y="-82.8" font-family="Helvetica,sans-Serif" font-size="11.00" fill="#000000">rubrique</text>
<polygon fill="none" stroke="#000000" points="26.5,-56.7 26.5,-75.7 163.5,-75.7 163.5,-56.7 26.5,-56.7"/>
<text text-anchor="start" x="29.5" y="-62.8" font-family="Helvetica,sans-Serif" font-size="11.00" fill="#000000">...</text>
<polygon fill="#ffffff" stroke="transparent" points="26.5,-37.7 26.5,-56.7 58.5,-56.7 58.5,-37.7 26.5,-37.7"/>
<polygon fill="none" stroke="#000000" points="26.5,-37.7 26.5,-56.7 58.5,-56.7 58.5,-37.7 26.5,-37.7"/>
<text text-anchor="start" x="29.5" y="-43.8" font-family="Helvetica,sans-Serif" font-size="11.00" fill="#000000"> &#160;</text>
<polygon fill="#ffffff" stroke="transparent" points="58.5,-37.7 58.5,-56.7 131.5,-56.7 131.5,-37.7 58.5,-37.7"/>
<polygon fill="none" stroke="#000000" points="58.5,-37.7 58.5,-56.7 131.5,-56.7 131.5,-37.7 58.5,-37.7"/>
<text text-anchor="start" x="71.047" y="-43.8" font-family="Helvetica,sans-Serif" font-size="11.00" fill="#000000">1 012 rows</text>
<polygon fill="#ffffff" stroke="transparent" points="131.5,-37.7 131.5,-56.7 163.5,-56.7 163.5,-37.7 131.5,-37.7"/>
<polygon fill="none" stroke="#000000" points="131.5,-37.7 131.5,-56.7 163.5,-56.7 163.5,-37.7 131.5,-37.7"/>
<text text-anchor="start" x="144.9053" y="-43.8" font-family="Helvetica,sans-Serif" font-size="11.00" fill="#000000">1 &gt;</text>
</a>
</g>
</g>
<!-- entite_geol_qcm&#45;&gt;qcm -->
<g id="edge2" class="edge">
<title>entite_geol_qcm:w&#45;&gt;qcm:e</title>
<path fill="none" stroke="#000000" d="M217.8693,-212.4717C189.1118,-196.9454 206.3326,-130.7 163.5,-130.7"/>
<polygon fill="#000000" stroke="#000000" points="224.2009,-213.9182 231.1982,-219.2096 228.1005,-214.8091 232,-215.7 232,-215.7 232,-215.7 228.1005,-214.8091 232.8018,-212.1904 224.2009,-213.9182 224.2009,-213.9182"/>
<ellipse fill="none" stroke="#000000" cx="221.0813" cy="-213.2054" rx="3.2" ry="3.2"/>
</g>
</g>
</svg>
