<?xml version="1.0" encoding="UTF-8" standalone="no"?>
<!DOCTYPE svg PUBLIC "-//W3C//DTD SVG 1.1//EN"
 "http://www.w3.org/Graphics/SVG/1.1/DTD/svg11.dtd">
<!-- Generated by graphviz version 2.40.1 (20161225.0304)
 -->
<!-- Title: oneDegreeRelationshipsDiagram Pages: 1 -->
<svg width="721pt" height="823pt"
 viewBox="0.00 0.00 721.00 823.20" xmlns="http://www.w3.org/2000/svg" xmlns:xlink="http://www.w3.org/1999/xlink">
<g id="graph0" class="graph" transform="scale(1 1) rotate(0) translate(4 819.2)">
<title>oneDegreeRelationshipsDiagram</title>
<polygon fill="#ffffff" stroke="transparent" points="-4,4 -4,-819.2 717,-819.2 717,4 -4,4"/>
<text text-anchor="middle" x="72.4936" y="-7.3" font-family="Helvetica,sans-Serif" font-size="11.00" fill="#000000">Generated by SchemaSpy</text>
<!-- affleurement -->
<g id="node1" class="node">
<title>affleurement</title>
<g id="a_node1"><a xlink:href="../../tables/affleurement.html" xlink:title="affleurement" target="_top">
<polygon fill="#ffffff" stroke="transparent" points="583.5,-306.2 583.5,-411.2 687.5,-411.2 687.5,-306.2 583.5,-306.2"/>
<polygon fill="#f5f5f5" stroke="transparent" points="583.5,-387.7 583.5,-410.7 687.5,-410.7 687.5,-387.7 583.5,-387.7"/>
<polygon fill="none" stroke="#000000" points="583.5,-387.7 583.5,-410.7 687.5,-410.7 687.5,-387.7 583.5,-387.7"/>
<text text-anchor="start" x="588.4376" y="-396.8" font-family="Helvetica,sans-Serif" font-weight="bold" font-size="11.00" fill="#000000">affleurement</text>
<text text-anchor="start" x="653.0219" y="-395.8" font-family="Helvetica,sans-Serif" font-size="11.00" fill="#000000">[table]</text>
<polygon fill="none" stroke="#000000" points="583.5,-365.7 583.5,-387.7 687.5,-387.7 687.5,-365.7 583.5,-365.7"/>
<image xlink:href="../../images/primaryKeys.png" width="11px" height="12px" preserveAspectRatio="xMinYMin meet" x="588.5" y="-382.7"/>
<text text-anchor="start" x="609.5" y="-372.8" font-family="Helvetica,sans-Serif" font-size="11.00" fill="#000000">id</text>
<polygon fill="#ffffff" stroke="transparent" points="583.5,-343.7 583.5,-365.7 687.5,-365.7 687.5,-343.7 583.5,-343.7"/>
<polygon fill="none" stroke="#000000" points="583.5,-343.7 583.5,-365.7 687.5,-365.7 687.5,-343.7 583.5,-343.7"/>
<image xlink:href="../../images/foreignKeys.png" width="11px" height="12px" preserveAspectRatio="xMinYMin meet" x="588.5" y="-360.7"/>
<text text-anchor="start" x="609.5" y="-350.8" font-family="Helvetica,sans-Serif" font-size="11.00" fill="#000000">eg_id</text>
<polygon fill="none" stroke="#000000" points="583.5,-324.7 583.5,-343.7 687.5,-343.7 687.5,-324.7 583.5,-324.7"/>
<text text-anchor="start" x="586.5" y="-330.8" font-family="Helvetica,sans-Serif" font-size="11.00" fill="#000000">...</text>
<polygon fill="#ffffff" stroke="transparent" points="583.5,-305.7 583.5,-324.7 620.5,-324.7 620.5,-305.7 583.5,-305.7"/>
<polygon fill="none" stroke="#000000" points="583.5,-305.7 583.5,-324.7 620.5,-324.7 620.5,-305.7 583.5,-305.7"/>
<text text-anchor="start" x="586.5" y="-311.8" font-family="Helvetica,sans-Serif" font-size="11.00" fill="#000000">&lt; 1</text>
<polygon fill="#ffffff" stroke="transparent" points="620.5,-305.7 620.5,-324.7 666.5,-324.7 666.5,-305.7 620.5,-305.7"/>
<polygon fill="none" stroke="#000000" points="620.5,-305.7 620.5,-324.7 666.5,-324.7 666.5,-305.7 620.5,-305.7"/>
<text text-anchor="start" x="631.1105" y="-311.8" font-family="Helvetica,sans-Serif" font-size="11.00" fill="#000000">9 rows</text>
<polygon fill="#ffffff" stroke="transparent" points="666.5,-305.7 666.5,-324.7 687.5,-324.7 687.5,-305.7 666.5,-305.7"/>
<polygon fill="none" stroke="#000000" points="666.5,-305.7 666.5,-324.7 687.5,-324.7 687.5,-305.7 666.5,-305.7"/>
<text text-anchor="start" x="678.3862" y="-311.8" font-family="Helvetica,sans-Serif" font-size="11.00" fill="#000000"> &#160;</text>
</a>
</g>
</g>
<!-- entite_geol -->
<g id="node2" class="node">
<title>entite_geol</title>
<g id="a_node2"><a xlink:href="../../tables/entite_geol.html" xlink:title="entite_geol" target="_top">
<polygon fill="#ffffff" stroke="transparent" points="221,-176.7 221,-574.7 517,-574.7 517,-176.7 221,-176.7"/>
<polygon fill="#f5f5f5" stroke="transparent" points="223,-549.7 223,-572.7 515,-572.7 515,-549.7 223,-549.7"/>
<polygon fill="none" stroke="#000000" points="223,-549.7 223,-572.7 515,-572.7 515,-549.7 223,-549.7"/>
<text text-anchor="start" x="228" y="-558.8" font-family="Helvetica,sans-Serif" font-weight="bold" font-size="11.00" fill="#000000">entite_geol</text>
<text text-anchor="start" x="480.0437" y="-557.8" font-family="Helvetica,sans-Serif" font-size="11.00" fill="#000000">[table]</text>
<polygon fill="none" stroke="#000000" points="223,-527.7 223,-549.7 396,-549.7 396,-527.7 223,-527.7"/>
<image xlink:href="../../images/primaryKeys.png" width="11px" height="12px" preserveAspectRatio="xMinYMin meet" x="228" y="-544.7"/>
<text text-anchor="start" x="243" y="-534.8" font-family="Helvetica,sans-Serif" font-size="11.00" fill="#000000">id</text>
<polygon fill="none" stroke="#000000" points="396,-527.7 396,-549.7 515,-549.7 515,-527.7 396,-527.7"/>
<text text-anchor="start" x="399" y="-535.4" font-family="Helvetica,sans-Serif" font-size="11.00" fill="#000000">serial[10]</text>
<polygon fill="none" stroke="#000000" points="223,-505.7 223,-527.7 396,-527.7 396,-505.7 223,-505.7"/>
<text text-anchor="start" x="243" y="-512.8" font-family="Helvetica,sans-Serif" font-size="11.00" fill="#000000">intitule</text>
<polygon fill="none" stroke="#000000" points="396,-505.7 396,-527.7 515,-527.7 515,-505.7 396,-505.7"/>
<text text-anchor="start" x="399" y="-513.4" font-family="Helvetica,sans-Serif" font-size="11.00" fill="#000000">varchar[255]</text>
<polygon fill="none" stroke="#000000" points="223,-483.7 223,-505.7 396,-505.7 396,-483.7 223,-483.7"/>
<text text-anchor="start" x="243" y="-490.8" font-family="Helvetica,sans-Serif" font-size="11.00" fill="#000000">code</text>
<polygon fill="none" stroke="#000000" points="396,-483.7 396,-505.7 515,-505.7 515,-483.7 396,-483.7"/>
<text text-anchor="start" x="399" y="-491.4" font-family="Helvetica,sans-Serif" font-size="11.00" fill="#000000">varchar[10]</text>
<polygon fill="none" stroke="#000000" points="223,-461.7 223,-483.7 396,-483.7 396,-461.7 223,-461.7"/>
<text text-anchor="start" x="243" y="-468.8" font-family="Helvetica,sans-Serif" font-size="11.00" fill="#000000">quantite_affleurements</text>
<polygon fill="none" stroke="#000000" points="396,-461.7 396,-483.7 515,-483.7 515,-461.7 396,-461.7"/>
<text text-anchor="start" x="399" y="-469.4" font-family="Helvetica,sans-Serif" font-size="11.00" fill="#000000">varchar[50]</text>
<polygon fill="none" stroke="#000000" points="223,-439.7 223,-461.7 396,-461.7 396,-439.7 223,-439.7"/>
<text text-anchor="start" x="243" y="-446.8" font-family="Helvetica,sans-Serif" font-size="11.00" fill="#000000">affleurements_accessibles</text>
<polygon fill="none" stroke="#000000" points="396,-439.7 396,-461.7 515,-461.7 515,-439.7 396,-439.7"/>
<text text-anchor="start" x="399" y="-447.4" font-family="Helvetica,sans-Serif" font-size="11.00" fill="#000000">bool[1]</text>
<polygon fill="none" stroke="#000000" points="223,-417.7 223,-439.7 396,-439.7 396,-417.7 223,-417.7"/>
<text text-anchor="start" x="243" y="-424.8" font-family="Helvetica,sans-Serif" font-size="11.00" fill="#000000">permeabilite</text>
<polygon fill="none" stroke="#000000" points="396,-417.7 396,-439.7 515,-439.7 515,-417.7 396,-417.7"/>
<text text-anchor="start" x="399" y="-425.4" font-family="Helvetica,sans-Serif" font-size="11.00" fill="#000000">varchar[50]</text>
<polygon fill="none" stroke="#000000" points="223,-395.7 223,-417.7 396,-417.7 396,-395.7 223,-395.7"/>
<text text-anchor="start" x="243" y="-402.8" font-family="Helvetica,sans-Serif" font-size="11.00" fill="#000000">presence_aquifere</text>
<polygon fill="none" stroke="#000000" points="396,-395.7 396,-417.7 515,-417.7 515,-395.7 396,-395.7"/>
<text text-anchor="start" x="399" y="-403.4" font-family="Helvetica,sans-Serif" font-size="11.00" fill="#000000">bool[1]</text>
<polygon fill="none" stroke="#000000" points="223,-373.7 223,-395.7 396,-395.7 396,-373.7 223,-373.7"/>
<text text-anchor="start" x="243" y="-380.8" font-family="Helvetica,sans-Serif" font-size="11.00" fill="#000000">niveau_sources</text>
<polygon fill="none" stroke="#000000" points="396,-373.7 396,-395.7 515,-395.7 515,-373.7 396,-373.7"/>
<text text-anchor="start" x="399" y="-381.4" font-family="Helvetica,sans-Serif" font-size="11.00" fill="#000000">bool[1]</text>
<polygon fill="none" stroke="#000000" points="223,-351.7 223,-373.7 396,-373.7 396,-351.7 223,-351.7"/>
<text text-anchor="start" x="243" y="-358.8" font-family="Helvetica,sans-Serif" font-size="11.00" fill="#000000">complements</text>
<polygon fill="none" stroke="#000000" points="396,-351.7 396,-373.7 515,-373.7 515,-351.7 396,-351.7"/>
<text text-anchor="start" x="399" y="-359.4" font-family="Helvetica,sans-Serif" font-size="11.00" fill="#000000">text[2147483647]</text>
<polygon fill="#ffffff" stroke="transparent" points="223,-329.7 223,-351.7 396,-351.7 396,-329.7 223,-329.7"/>
<polygon fill="none" stroke="#000000" points="223,-329.7 223,-351.7 396,-351.7 396,-329.7 223,-329.7"/>
<text text-anchor="start" x="243" y="-336.8" font-family="Helvetica,sans-Serif" font-size="11.00" fill="#000000">geom</text>
<polygon fill="none" stroke="#000000" points="396,-329.7 396,-351.7 515,-351.7 515,-329.7 396,-329.7"/>
<text text-anchor="start" x="398.9485" y="-337.4" font-family="Helvetica,sans-Serif" font-size="11.00" fill="#000000">geometry[2147483647]</text>
<polygon fill="#ffffff" stroke="transparent" points="223,-307.7 223,-329.7 396,-329.7 396,-307.7 223,-307.7"/>
<polygon fill="none" stroke="#000000" points="223,-307.7 223,-329.7 396,-329.7 396,-307.7 223,-307.7"/>
<image xlink:href="../../images/foreignKeys.png" width="11px" height="12px" preserveAspectRatio="xMinYMin meet" x="228" y="-324.7"/>
<text text-anchor="start" x="243" y="-314.8" font-family="Helvetica,sans-Serif" font-size="11.00" fill="#000000">ere_geol_id</text>
<polygon fill="none" stroke="#000000" points="396,-307.7 396,-329.7 515,-329.7 515,-307.7 396,-307.7"/>
<text text-anchor="start" x="399" y="-315.4" font-family="Helvetica,sans-Serif" font-size="11.00" fill="#000000">int4[10]</text>
<polygon fill="#ffffff" stroke="transparent" points="223,-285.7 223,-307.7 396,-307.7 396,-285.7 223,-285.7"/>
<polygon fill="none" stroke="#000000" points="223,-285.7 223,-307.7 396,-307.7 396,-285.7 223,-285.7"/>
<image xlink:href="../../images/foreignKeys.png" width="11px" height="12px" preserveAspectRatio="xMinYMin meet" x="228" y="-302.7"/>
<text text-anchor="start" x="243" y="-292.8" font-family="Helvetica,sans-Serif" font-size="11.00" fill="#000000">site_id</text>
<polygon fill="none" stroke="#000000" points="396,-285.7 396,-307.7 515,-307.7 515,-285.7 396,-285.7"/>
<text text-anchor="start" x="399" y="-293.4" font-family="Helvetica,sans-Serif" font-size="11.00" fill="#000000">int4[10]</text>
<polygon fill="none" stroke="#000000" points="223,-263.7 223,-285.7 396,-285.7 396,-263.7 223,-263.7"/>
<text text-anchor="start" x="243" y="-270.8" font-family="Helvetica,sans-Serif" font-size="11.00" fill="#000000">last_modified</text>
<polygon fill="none" stroke="#000000" points="396,-263.7 396,-285.7 515,-285.7 515,-263.7 396,-263.7"/>
<text text-anchor="start" x="399" y="-271.4" font-family="Helvetica,sans-Serif" font-size="11.00" fill="#000000">timestamptz[35,6]</text>
<polygon fill="none" stroke="#000000" points="223,-241.7 223,-263.7 396,-263.7 396,-241.7 223,-241.7"/>
<text text-anchor="start" x="243" y="-248.8" font-family="Helvetica,sans-Serif" font-size="11.00" fill="#000000">modified_by_userid</text>
<polygon fill="none" stroke="#000000" points="396,-241.7 396,-263.7 515,-263.7 515,-241.7 396,-241.7"/>
<text text-anchor="start" x="399" y="-249.4" font-family="Helvetica,sans-Serif" font-size="11.00" fill="#000000">int4[10]</text>
<polygon fill="none" stroke="#000000" points="223,-219.7 223,-241.7 396,-241.7 396,-219.7 223,-219.7"/>
<text text-anchor="start" x="243" y="-226.8" font-family="Helvetica,sans-Serif" font-size="11.00" fill="#000000">nom_carte</text>
<polygon fill="none" stroke="#000000" points="396,-219.7 396,-241.7 515,-241.7 515,-219.7 396,-219.7"/>
<text text-anchor="start" x="399" y="-227.4" font-family="Helvetica,sans-Serif" font-size="11.00" fill="#000000">varchar[254]</text>
<polygon fill="#ffffff" stroke="transparent" points="223,-197.7 223,-219.7 396,-219.7 396,-197.7 223,-197.7"/>
<polygon fill="none" stroke="#000000" points="223,-197.7 223,-219.7 396,-219.7 396,-197.7 223,-197.7"/>
<image xlink:href="../../images/foreignKeys.png" width="11px" height="12px" preserveAspectRatio="xMinYMin meet" x="228" y="-214.7"/>
<text text-anchor="start" x="243" y="-204.8" font-family="Helvetica,sans-Serif" font-size="11.00" fill="#000000">s_fgeol_id</text>
<polygon fill="none" stroke="#000000" points="396,-197.7 396,-219.7 515,-219.7 515,-197.7 396,-197.7"/>
<text text-anchor="start" x="399" y="-205.4" font-family="Helvetica,sans-Serif" font-size="11.00" fill="#000000">int4[10]</text>
<polygon fill="#ffffff" stroke="transparent" points="223,-178.7 223,-197.7 298,-197.7 298,-178.7 223,-178.7"/>
<polygon fill="none" stroke="#000000" points="223,-178.7 223,-197.7 298,-197.7 298,-178.7 223,-178.7"/>
<text text-anchor="start" x="226" y="-184.8" font-family="Helvetica,sans-Serif" font-size="11.00" fill="#000000">&lt; 3</text>
<polygon fill="#ffffff" stroke="transparent" points="298,-178.7 298,-197.7 396,-197.7 396,-178.7 298,-178.7"/>
<polygon fill="none" stroke="#000000" points="298,-178.7 298,-197.7 396,-197.7 396,-178.7 298,-178.7"/>
<text text-anchor="start" x="354.4956" y="-184.8" font-family="Helvetica,sans-Serif" font-size="11.00" fill="#000000">24 rows</text>
<polygon fill="#ffffff" stroke="transparent" points="396,-178.7 396,-197.7 515,-197.7 515,-178.7 396,-178.7"/>
<polygon fill="none" stroke="#000000" points="396,-178.7 396,-197.7 515,-197.7 515,-178.7 396,-178.7"/>
<text text-anchor="start" x="496.4053" y="-184.8" font-family="Helvetica,sans-Serif" font-size="11.00" fill="#000000">5 &gt;</text>
<polygon fill="none" stroke="#000000" stroke-width="2" points="222,-177.7 222,-573.7 516,-573.7 516,-177.7 222,-177.7"/>
</a>
</g>
</g>
<!-- affleurement&#45;&gt;entite_geol -->
<g id="edge1" class="edge">
<title>affleurement:w&#45;&gt;entite_geol:e</title>
<path fill="none" stroke="#000000" d="M568.9326,-356.8946C509.103,-377.6544 596.6367,-538.7 515,-538.7"/>
<polygon fill="#000000" stroke="#000000" points="575.5893,-355.8918 584.0363,-358.2598 579.5446,-355.2959 583.5,-354.7 583.5,-354.7 583.5,-354.7 579.5446,-355.2959 582.9637,-351.1402 575.5893,-355.8918 575.5893,-355.8918"/>
<ellipse fill="none" stroke="#000000" cx="572.425" cy="-356.3685" rx="3.2" ry="3.2"/>
</g>
<!-- echelle_geol -->
<g id="node5" class="node">
<title>echelle_geol</title>
<g id="a_node5"><a xlink:href="../../tables/echelle_geol.html" xlink:title="echelle_geol" target="_top">
<polygon fill="#ffffff" stroke="transparent" points="38,-268.2 38,-373.2 142,-373.2 142,-268.2 38,-268.2"/>
<polygon fill="#f5f5f5" stroke="transparent" points="38,-349.7 38,-372.7 142,-372.7 142,-349.7 38,-349.7"/>
<polygon fill="none" stroke="#000000" points="38,-349.7 38,-372.7 142,-372.7 142,-349.7 38,-349.7"/>
<text text-anchor="start" x="42.6291" y="-358.8" font-family="Helvetica,sans-Serif" font-weight="bold" font-size="11.00" fill="#000000">echelle_geol</text>
<text text-anchor="start" x="107.5219" y="-357.8" font-family="Helvetica,sans-Serif" font-size="11.00" fill="#000000">[table]</text>
<polygon fill="none" stroke="#000000" points="38,-327.7 38,-349.7 142,-349.7 142,-327.7 38,-327.7"/>
<image xlink:href="../../images/primaryKeys.png" width="11px" height="12px" preserveAspectRatio="xMinYMin meet" x="43" y="-344.7"/>
<text text-anchor="start" x="64" y="-334.8" font-family="Helvetica,sans-Serif" font-size="11.00" fill="#000000">id</text>
<polygon fill="#ffffff" stroke="transparent" points="38,-305.7 38,-327.7 142,-327.7 142,-305.7 38,-305.7"/>
<polygon fill="none" stroke="#000000" points="38,-305.7 38,-327.7 142,-327.7 142,-305.7 38,-305.7"/>
<image xlink:href="../../images/foreignKeys.png" width="11px" height="12px" preserveAspectRatio="xMinYMin meet" x="43" y="-322.7"/>
<text text-anchor="start" x="64" y="-312.8" font-family="Helvetica,sans-Serif" font-size="11.00" fill="#000000">parent</text>
<polygon fill="none" stroke="#000000" points="38,-286.7 38,-305.7 142,-305.7 142,-286.7 38,-286.7"/>
<text text-anchor="start" x="41" y="-292.8" font-family="Helvetica,sans-Serif" font-size="11.00" fill="#000000">...</text>
<polygon fill="#ffffff" stroke="transparent" points="38,-267.7 38,-286.7 68,-286.7 68,-267.7 38,-267.7"/>
<polygon fill="none" stroke="#000000" points="38,-267.7 38,-286.7 68,-286.7 68,-267.7 38,-267.7"/>
<text text-anchor="start" x="41" y="-273.8" font-family="Helvetica,sans-Serif" font-size="11.00" fill="#000000">&lt; 1</text>
<polygon fill="#ffffff" stroke="transparent" points="68,-267.7 68,-286.7 116,-286.7 116,-267.7 68,-267.7"/>
<polygon fill="none" stroke="#000000" points="68,-267.7 68,-286.7 116,-286.7 116,-267.7 68,-267.7"/>
<text text-anchor="start" x="74.4956" y="-273.8" font-family="Helvetica,sans-Serif" font-size="11.00" fill="#000000">74 rows</text>
<polygon fill="#ffffff" stroke="transparent" points="116,-267.7 116,-286.7 142,-286.7 142,-267.7 116,-267.7"/>
<polygon fill="none" stroke="#000000" points="116,-267.7 116,-286.7 142,-286.7 142,-267.7 116,-267.7"/>
<text text-anchor="start" x="123.4053" y="-273.8" font-family="Helvetica,sans-Serif" font-size="11.00" fill="#000000">2 &gt;</text>
</a>
</g>
</g>
<!-- entite_geol&#45;&gt;echelle_geol -->
<g id="edge4" class="edge">
<title>entite_geol:w&#45;&gt;echelle_geol:e</title>
<path fill="none" stroke="#000000" d="M208.6345,-319.8326C183.3106,-324.0635 173.7218,-338.7 142,-338.7"/>
<polygon fill="#000000" stroke="#000000" points="215.0247,-319.3288 223.283,-322.2889 219.0124,-319.0144 223,-318.7 223,-318.7 223,-318.7 219.0124,-319.0144 222.717,-315.1111 215.0247,-319.3288 215.0247,-319.3288"/>
<ellipse fill="none" stroke="#000000" cx="211.8346" cy="-319.5804" rx="3.2" ry="3.2"/>
</g>
<!-- infoterre.s_fgeol -->
<g id="node6" class="node">
<title>infoterre.s_fgeol</title>
<g id="a_node6"><a xlink:href="../../../infoterre/tables/s_fgeol.html" xlink:title="infoterre.s_fgeol" target="_top">
<polygon fill="#ffffff" stroke="transparent" points="29.5,-186.2 29.5,-247.2 150.5,-247.2 150.5,-186.2 29.5,-186.2"/>
<polygon fill="#f5f5f5" stroke="transparent" points="30,-223.7 30,-246.7 151,-246.7 151,-223.7 30,-223.7"/>
<polygon fill="none" stroke="#000000" points="30,-223.7 30,-246.7 151,-246.7 151,-223.7 30,-223.7"/>
<text text-anchor="start" x="34.5738" y="-232.8" font-family="Helvetica,sans-Serif" font-weight="bold" font-size="11.00" fill="#000000">infoterre.s_fgeol</text>
<text text-anchor="start" x="116.5219" y="-231.8" font-family="Helvetica,sans-Serif" font-size="11.00" fill="#000000">[table]</text>
<polygon fill="none" stroke="#000000" points="30,-204.7 30,-223.7 151,-223.7 151,-204.7 30,-204.7"/>
<text text-anchor="start" x="33" y="-210.8" font-family="Helvetica,sans-Serif" font-size="11.00" fill="#000000">...</text>
<polygon fill="#ffffff" stroke="transparent" points="30,-185.7 30,-204.7 67,-204.7 67,-185.7 30,-185.7"/>
<polygon fill="none" stroke="#000000" points="30,-185.7 30,-204.7 67,-204.7 67,-185.7 30,-185.7"/>
<text text-anchor="start" x="33" y="-191.8" font-family="Helvetica,sans-Serif" font-size="11.00" fill="#000000"> &#160;</text>
<polygon fill="#ffffff" stroke="transparent" points="67,-185.7 67,-204.7 117,-204.7 117,-185.7 67,-185.7"/>
<polygon fill="none" stroke="#000000" points="67,-185.7 67,-204.7 117,-204.7 117,-185.7 67,-185.7"/>
<text text-anchor="start" x="81.6105" y="-191.8" font-family="Helvetica,sans-Serif" font-size="11.00" fill="#000000">0 rows</text>
<polygon fill="#ffffff" stroke="transparent" points="117,-185.7 117,-204.7 151,-204.7 151,-185.7 117,-185.7"/>
<polygon fill="none" stroke="#000000" points="117,-185.7 117,-204.7 151,-204.7 151,-185.7 117,-185.7"/>
<text text-anchor="start" x="132.4053" y="-191.8" font-family="Helvetica,sans-Serif" font-size="11.00" fill="#000000">1 &gt;</text>
</a>
</g>
</g>
<!-- entite_geol&#45;&gt;infoterre.s_fgeol -->
<g id="edge5" class="edge">
<title>entite_geol:w&#45;&gt;infoterre.s_fgeol:e</title>
<path fill="none" stroke="#000000" d="M208.5362,-208.8457C191.8618,-209.1681 174.6275,-209.9927 158.6394,-210.9925"/>
<polygon fill="#000000" stroke="#000000" points="215.0004,-208.7807 223.0363,-212.2998 219.0002,-208.7403 223,-208.7 223,-208.7 223,-208.7 219.0002,-208.7403 222.9637,-205.1002 215.0004,-208.7807 215.0004,-208.7807"/>
<ellipse fill="none" stroke="#000000" cx="211.8006" cy="-208.8129" rx="3.2" ry="3.2"/>
</g>
<!-- site -->
<g id="node7" class="node">
<title>site</title>
<g id="a_node7"><a xlink:href="../../tables/site.html" xlink:title="site" target="_top">
<polygon fill="#ffffff" stroke="transparent" points="8,-38.2 8,-165.2 172,-165.2 172,-38.2 8,-38.2"/>
<polygon fill="#f5f5f5" stroke="transparent" points="8,-141.7 8,-164.7 172,-164.7 172,-141.7 8,-141.7"/>
<polygon fill="none" stroke="#000000" points="8,-141.7 8,-164.7 172,-164.7 172,-141.7 8,-141.7"/>
<text text-anchor="start" x="13" y="-150.8" font-family="Helvetica,sans-Serif" font-weight="bold" font-size="11.00" fill="#000000">site</text>
<text text-anchor="start" x="137.0437" y="-149.8" font-family="Helvetica,sans-Serif" font-size="11.00" fill="#000000">[table]</text>
<polygon fill="none" stroke="#000000" points="8,-119.7 8,-141.7 172,-141.7 172,-119.7 8,-119.7"/>
<image xlink:href="../../images/primaryKeys.png" width="11px" height="12px" preserveAspectRatio="xMinYMin meet" x="13" y="-136.7"/>
<text text-anchor="start" x="28" y="-126.8" font-family="Helvetica,sans-Serif" font-size="11.00" fill="#000000">id</text>
<polygon fill="#ffffff" stroke="transparent" points="8,-97.7 8,-119.7 172,-119.7 172,-97.7 8,-97.7"/>
<polygon fill="none" stroke="#000000" points="8,-97.7 8,-119.7 172,-119.7 172,-97.7 8,-97.7"/>
<text text-anchor="start" x="28" y="-104.8" font-family="Helvetica,sans-Serif" font-size="11.00" fill="#000000">geom</text>
<polygon fill="#ffffff" stroke="transparent" points="8,-75.7 8,-97.7 172,-97.7 172,-75.7 8,-75.7"/>
<polygon fill="none" stroke="#000000" points="8,-75.7 8,-97.7 172,-97.7 172,-75.7 8,-75.7"/>
<image xlink:href="../../images/foreignKeys.png" width="11px" height="12px" preserveAspectRatio="xMinYMin meet" x="13" y="-92.7"/>
<text text-anchor="start" x="28" y="-82.8" font-family="Helvetica,sans-Serif" font-size="11.00" fill="#000000">ep_id</text>
<polygon fill="none" stroke="#000000" points="8,-56.7 8,-75.7 172,-75.7 172,-56.7 8,-56.7"/>
<text text-anchor="start" x="11" y="-62.8" font-family="Helvetica,sans-Serif" font-size="11.00" fill="#000000">...</text>
<polygon fill="#ffffff" stroke="transparent" points="8,-37.7 8,-56.7 68,-56.7 68,-37.7 8,-37.7"/>
<polygon fill="none" stroke="#000000" points="8,-37.7 8,-56.7 68,-56.7 68,-37.7 8,-37.7"/>
<text text-anchor="start" x="11" y="-43.8" font-family="Helvetica,sans-Serif" font-size="11.00" fill="#000000">&lt; 1</text>
<polygon fill="#ffffff" stroke="transparent" points="68,-37.7 68,-56.7 131,-56.7 131,-37.7 68,-37.7"/>
<polygon fill="none" stroke="#000000" points="68,-37.7 68,-56.7 131,-56.7 131,-37.7 68,-37.7"/>
<text text-anchor="start" x="89.4956" y="-43.8" font-family="Helvetica,sans-Serif" font-size="11.00" fill="#000000">10 rows</text>
<polygon fill="#ffffff" stroke="transparent" points="131,-37.7 131,-56.7 172,-56.7 172,-37.7 131,-37.7"/>
<polygon fill="none" stroke="#000000" points="131,-37.7 131,-56.7 172,-56.7 172,-37.7 131,-37.7"/>
<text text-anchor="start" x="153.4053" y="-43.8" font-family="Helvetica,sans-Serif" font-size="11.00" fill="#000000">5 &gt;</text>
</a>
</g>
</g>
<!-- entite_geol&#45;&gt;site -->
<g id="edge6" class="edge">
<title>entite_geol:w&#45;&gt;site:e</title>
<path fill="none" stroke="#000000" d="M208.651,-294.0925C160.1671,-272.9738 243.4529,-130.7 172,-130.7"/>
<polygon fill="#000000" stroke="#000000" points="215.1289,-295.2696 222.3563,-300.242 219.0645,-295.9848 223,-296.7 223,-296.7 223,-296.7 219.0645,-295.9848 223.6437,-293.158 215.1289,-295.2696 215.1289,-295.2696"/>
<ellipse fill="none" stroke="#000000" cx="211.9805" cy="-294.6975" rx="3.2" ry="3.2"/>
</g>
<!-- commentaire_eg -->
<g id="node3" class="node">
<title>commentaire_eg</title>
<g id="a_node3"><a xlink:href="../../tables/commentaire_eg.html" xlink:title="commentaire_eg" target="_top">
<polygon fill="#ffffff" stroke="transparent" points="573.5,-706.2 573.5,-811.2 697.5,-811.2 697.5,-706.2 573.5,-706.2"/>
<polygon fill="#f5f5f5" stroke="transparent" points="573.5,-787.7 573.5,-810.7 697.5,-810.7 697.5,-787.7 573.5,-787.7"/>
<polygon fill="none" stroke="#000000" points="573.5,-787.7 573.5,-810.7 697.5,-810.7 697.5,-787.7 573.5,-787.7"/>
<text text-anchor="start" x="578.0486" y="-796.8" font-family="Helvetica,sans-Serif" font-weight="bold" font-size="11.00" fill="#000000">commentaire_eg</text>
<text text-anchor="start" x="663.0219" y="-795.8" font-family="Helvetica,sans-Serif" font-size="11.00" fill="#000000">[table]</text>
<polygon fill="none" stroke="#000000" points="573.5,-765.7 573.5,-787.7 697.5,-787.7 697.5,-765.7 573.5,-765.7"/>
<image xlink:href="../../images/primaryKeys.png" width="11px" height="12px" preserveAspectRatio="xMinYMin meet" x="578.5" y="-782.7"/>
<text text-anchor="start" x="597.5" y="-772.8" font-family="Helvetica,sans-Serif" font-size="11.00" fill="#000000">id</text>
<polygon fill="#ffffff" stroke="transparent" points="573.5,-743.7 573.5,-765.7 697.5,-765.7 697.5,-743.7 573.5,-743.7"/>
<polygon fill="none" stroke="#000000" points="573.5,-743.7 573.5,-765.7 697.5,-765.7 697.5,-743.7 573.5,-743.7"/>
<image xlink:href="../../images/foreignKeys.png" width="11px" height="12px" preserveAspectRatio="xMinYMin meet" x="578.5" y="-760.7"/>
<text text-anchor="start" x="597.5" y="-750.8" font-family="Helvetica,sans-Serif" font-size="11.00" fill="#000000">entite_geol_id</text>
<polygon fill="none" stroke="#000000" points="573.5,-724.7 573.5,-743.7 697.5,-743.7 697.5,-724.7 573.5,-724.7"/>
<text text-anchor="start" x="576.5" y="-730.8" font-family="Helvetica,sans-Serif" font-size="11.00" fill="#000000">...</text>
<polygon fill="#ffffff" stroke="transparent" points="573.5,-705.7 573.5,-724.7 623.5,-724.7 623.5,-705.7 573.5,-705.7"/>
<polygon fill="none" stroke="#000000" points="573.5,-705.7 573.5,-724.7 623.5,-724.7 623.5,-705.7 573.5,-705.7"/>
<text text-anchor="start" x="576.5" y="-711.8" font-family="Helvetica,sans-Serif" font-size="11.00" fill="#000000">&lt; 1</text>
<polygon fill="#ffffff" stroke="transparent" points="623.5,-705.7 623.5,-724.7 670.5,-724.7 670.5,-705.7 623.5,-705.7"/>
<polygon fill="none" stroke="#000000" points="623.5,-705.7 623.5,-724.7 670.5,-724.7 670.5,-705.7 623.5,-705.7"/>
<text text-anchor="start" x="640.6105" y="-711.8" font-family="Helvetica,sans-Serif" font-size="11.00" fill="#000000">1 row</text>
<polygon fill="#ffffff" stroke="transparent" points="670.5,-705.7 670.5,-724.7 697.5,-724.7 697.5,-705.7 670.5,-705.7"/>
<polygon fill="none" stroke="#000000" points="670.5,-705.7 670.5,-724.7 697.5,-724.7 697.5,-705.7 670.5,-705.7"/>
<text text-anchor="start" x="688.3862" y="-711.8" font-family="Helvetica,sans-Serif" font-size="11.00" fill="#000000"> &#160;</text>
</a>
</g>
</g>
<!-- commentaire_eg&#45;&gt;entite_geol -->
<g id="edge2" class="edge">
<title>commentaire_eg:w&#45;&gt;entite_geol:e</title>
<path fill="none" stroke="#000000" d="M558.8213,-752.6996C489.1785,-730.9242 608.8251,-538.7 515,-538.7"/>
<polygon fill="#000000" stroke="#000000" points="565.5733,-753.6197 573.0139,-758.267 569.5366,-754.1599 573.5,-754.7 573.5,-754.7 573.5,-754.7 569.5366,-754.1599 573.9861,-751.133 565.5733,-753.6197 565.5733,-753.6197"/>
<ellipse fill="none" stroke="#000000" cx="562.4026" cy="-753.1876" rx="3.2" ry="3.2"/>
</g>
<!-- complement_eg -->
<g id="node4" class="node">
<title>complement_eg</title>
<g id="a_node4"><a xlink:href="../../tables/complement_eg.html" xlink:title="complement_eg" target="_top">
<polygon fill="#ffffff" stroke="transparent" points="575,-580.2 575,-685.2 696,-685.2 696,-580.2 575,-580.2"/>
<polygon fill="#f5f5f5" stroke="transparent" points="575.5,-661.7 575.5,-684.7 696.5,-684.7 696.5,-661.7 575.5,-661.7"/>
<polygon fill="none" stroke="#000000" points="575.5,-661.7 575.5,-684.7 696.5,-684.7 696.5,-661.7 575.5,-661.7"/>
<text text-anchor="start" x="580.3796" y="-670.8" font-family="Helvetica,sans-Serif" font-weight="bold" font-size="11.00" fill="#000000">complement_eg</text>
<text text-anchor="start" x="662.0219" y="-669.8" font-family="Helvetica,sans-Serif" font-size="11.00" fill="#000000">[table]</text>
<polygon fill="none" stroke="#000000" points="575.5,-639.7 575.5,-661.7 696.5,-661.7 696.5,-639.7 575.5,-639.7"/>
<image xlink:href="../../images/primaryKeys.png" width="11px" height="12px" preserveAspectRatio="xMinYMin meet" x="580.5" y="-656.7"/>
<text text-anchor="start" x="600.5" y="-646.8" font-family="Helvetica,sans-Serif" font-size="11.00" fill="#000000">id</text>
<polygon fill="#ffffff" stroke="transparent" points="575.5,-617.7 575.5,-639.7 696.5,-639.7 696.5,-617.7 575.5,-617.7"/>
<polygon fill="none" stroke="#000000" points="575.5,-617.7 575.5,-639.7 696.5,-639.7 696.5,-617.7 575.5,-617.7"/>
<image xlink:href="../../images/foreignKeys.png" width="11px" height="12px" preserveAspectRatio="xMinYMin meet" x="580.5" y="-634.7"/>
<text text-anchor="start" x="600.5" y="-624.8" font-family="Helvetica,sans-Serif" font-size="11.00" fill="#000000">entite_geol_id</text>
<polygon fill="none" stroke="#000000" points="575.5,-598.7 575.5,-617.7 696.5,-617.7 696.5,-598.7 575.5,-598.7"/>
<text text-anchor="start" x="578.5" y="-604.8" font-family="Helvetica,sans-Serif" font-size="11.00" fill="#000000">...</text>
<polygon fill="#ffffff" stroke="transparent" points="575.5,-579.7 575.5,-598.7 621.5,-598.7 621.5,-579.7 575.5,-579.7"/>
<polygon fill="none" stroke="#000000" points="575.5,-579.7 575.5,-598.7 621.5,-598.7 621.5,-579.7 575.5,-579.7"/>
<text text-anchor="start" x="578.5" y="-585.8" font-family="Helvetica,sans-Serif" font-size="11.00" fill="#000000">&lt; 1</text>
<polygon fill="#ffffff" stroke="transparent" points="621.5,-579.7 621.5,-598.7 671.5,-598.7 671.5,-579.7 621.5,-579.7"/>
<polygon fill="none" stroke="#000000" points="621.5,-579.7 621.5,-598.7 671.5,-598.7 671.5,-579.7 621.5,-579.7"/>
<text text-anchor="start" x="636.1105" y="-585.8" font-family="Helvetica,sans-Serif" font-size="11.00" fill="#000000">2 rows</text>
<polygon fill="#ffffff" stroke="transparent" points="671.5,-579.7 671.5,-598.7 696.5,-598.7 696.5,-579.7 671.5,-579.7"/>
<polygon fill="none" stroke="#000000" points="671.5,-579.7 671.5,-598.7 696.5,-598.7 696.5,-579.7 671.5,-579.7"/>
<text text-anchor="start" x="687.3862" y="-585.8" font-family="Helvetica,sans-Serif" font-size="11.00" fill="#000000"> &#160;</text>
</a>
</g>
</g>
<!-- complement_eg&#45;&gt;entite_geol -->
<g id="edge3" class="edge">
<title>complement_eg:w&#45;&gt;entite_geol:e</title>
<path fill="none" stroke="#000000" d="M561.3914,-625.0604C534.7626,-608.2229 557.3612,-538.7 515,-538.7"/>
<polygon fill="#000000" stroke="#000000" points="567.7536,-626.7016 574.6007,-632.1859 571.6268,-627.7008 575.5,-628.7 575.5,-628.7 575.5,-628.7 571.6268,-627.7008 576.3993,-625.2141 567.7536,-626.7016 567.7536,-626.7016"/>
<ellipse fill="none" stroke="#000000" cx="564.655" cy="-625.9023" rx="3.2" ry="3.2"/>
</g>
<!-- entite_geol_qcm -->
<g id="node8" class="node">
<title>entite_geol_qcm</title>
<g id="a_node8"><a xlink:href="../../tables/entite_geol_qcm.html" xlink:title="entite_geol_qcm" target="_top">
<polygon fill="#ffffff" stroke="transparent" points="566,-432.2 566,-559.2 705,-559.2 705,-432.2 566,-432.2"/>
<polygon fill="#f5f5f5" stroke="transparent" points="566.5,-535.7 566.5,-558.7 705.5,-558.7 705.5,-535.7 566.5,-535.7"/>
<polygon fill="none" stroke="#000000" points="566.5,-535.7 566.5,-558.7 705.5,-558.7 705.5,-535.7 566.5,-535.7"/>
<text text-anchor="start" x="571.5" y="-544.8" font-family="Helvetica,sans-Serif" font-weight="bold" font-size="11.00" fill="#000000">entite_geol_qcm</text>
<text text-anchor="start" x="670.5437" y="-543.8" font-family="Helvetica,sans-Serif" font-size="11.00" fill="#000000">[table]</text>
<polygon fill="none" stroke="#000000" points="566.5,-513.7 566.5,-535.7 705.5,-535.7 705.5,-513.7 566.5,-513.7"/>
<image xlink:href="../../images/primaryKeys.png" width="11px" height="12px" preserveAspectRatio="xMinYMin meet" x="571.5" y="-530.7"/>
<text text-anchor="start" x="586.5" y="-520.8" font-family="Helvetica,sans-Serif" font-size="11.00" fill="#000000">id</text>
<polygon fill="#ffffff" stroke="transparent" points="566.5,-491.7 566.5,-513.7 705.5,-513.7 705.5,-491.7 566.5,-491.7"/>
<polygon fill="none" stroke="#000000" points="566.5,-491.7 566.5,-513.7 705.5,-513.7 705.5,-491.7 566.5,-491.7"/>
<image xlink:href="../../images/foreignKeys.png" width="11px" height="12px" preserveAspectRatio="xMinYMin meet" x="571.5" y="-508.7"/>
<text text-anchor="start" x="586.5" y="-498.8" font-family="Helvetica,sans-Serif" font-size="11.00" fill="#000000">entite_geol_id</text>
<polygon fill="#ffffff" stroke="transparent" points="566.5,-469.7 566.5,-491.7 705.5,-491.7 705.5,-469.7 566.5,-469.7"/>
<polygon fill="none" stroke="#000000" points="566.5,-469.7 566.5,-491.7 705.5,-491.7 705.5,-469.7 566.5,-469.7"/>
<image xlink:href="../../images/foreignKeys.png" width="11px" height="12px" preserveAspectRatio="xMinYMin meet" x="571.5" y="-486.7"/>
<text text-anchor="start" x="586.5" y="-476.8" font-family="Helvetica,sans-Serif" font-size="11.00" fill="#000000">qcm_id</text>
<polygon fill="none" stroke="#000000" points="566.5,-450.7 566.5,-469.7 705.5,-469.7 705.5,-450.7 566.5,-450.7"/>
<text text-anchor="start" x="569.5" y="-456.8" font-family="Helvetica,sans-Serif" font-size="11.00" fill="#000000">...</text>
<polygon fill="#ffffff" stroke="transparent" points="566.5,-431.7 566.5,-450.7 618.5,-450.7 618.5,-431.7 566.5,-431.7"/>
<polygon fill="none" stroke="#000000" points="566.5,-431.7 566.5,-450.7 618.5,-450.7 618.5,-431.7 566.5,-431.7"/>
<text text-anchor="start" x="569.5" y="-437.8" font-family="Helvetica,sans-Serif" font-size="11.00" fill="#000000">&lt; 2</text>
<polygon fill="#ffffff" stroke="transparent" points="618.5,-431.7 618.5,-450.7 677.5,-450.7 677.5,-431.7 618.5,-431.7"/>
<polygon fill="none" stroke="#000000" points="618.5,-431.7 618.5,-450.7 677.5,-450.7 677.5,-431.7 618.5,-431.7"/>
<text text-anchor="start" x="635.9956" y="-437.8" font-family="Helvetica,sans-Serif" font-size="11.00" fill="#000000">34 rows</text>
<polygon fill="#ffffff" stroke="transparent" points="677.5,-431.7 677.5,-450.7 705.5,-450.7 705.5,-431.7 677.5,-431.7"/>
<polygon fill="none" stroke="#000000" points="677.5,-431.7 677.5,-450.7 705.5,-450.7 705.5,-431.7 677.5,-431.7"/>
<text text-anchor="start" x="696.3862" y="-437.8" font-family="Helvetica,sans-Serif" font-size="11.00" fill="#000000"> &#160;</text>
</a>
</g>
</g>
<!-- entite_geol_qcm&#45;&gt;entite_geol -->
<g id="edge7" class="edge">
<title>entite_geol_qcm:w&#45;&gt;entite_geol:e</title>
<path fill="none" stroke="#000000" d="M552.5306,-506.8297C538.9736,-516.2857 537.0359,-538.7 515,-538.7"/>
<polygon fill="#000000" stroke="#000000" points="558.8282,-504.968 567.5206,-506.1523 562.6641,-503.834 566.5,-502.7 566.5,-502.7 566.5,-502.7 562.6641,-503.834 565.4794,-499.2477 558.8282,-504.968 558.8282,-504.968"/>
<ellipse fill="none" stroke="#000000" cx="555.7595" cy="-505.8752" rx="3.2" ry="3.2"/>
</g>
<!-- photo -->
<g id="node9" class="node">
<title>photo</title>
<g id="a_node9"><a xlink:href="../../tables/photo.html" xlink:title="photo" target="_top">
<polygon fill="#ffffff" stroke="transparent" points="593,-80.2 593,-229.2 678,-229.2 678,-80.2 593,-80.2"/>
<polygon fill="#f5f5f5" stroke="transparent" points="593.5,-205.7 593.5,-228.7 678.5,-228.7 678.5,-205.7 593.5,-205.7"/>
<polygon fill="none" stroke="#000000" points="593.5,-205.7 593.5,-228.7 678.5,-228.7 678.5,-205.7 593.5,-205.7"/>
<text text-anchor="start" x="598.5" y="-214.8" font-family="Helvetica,sans-Serif" font-weight="bold" font-size="11.00" fill="#000000">photo</text>
<text text-anchor="start" x="643.5437" y="-213.8" font-family="Helvetica,sans-Serif" font-size="11.00" fill="#000000">[table]</text>
<polygon fill="none" stroke="#000000" points="593.5,-183.7 593.5,-205.7 678.5,-205.7 678.5,-183.7 593.5,-183.7"/>
<image xlink:href="../../images/primaryKeys.png" width="11px" height="12px" preserveAspectRatio="xMinYMin meet" x="598.5" y="-200.7"/>
<text text-anchor="start" x="613.5" y="-190.8" font-family="Helvetica,sans-Serif" font-size="11.00" fill="#000000">id</text>
<polygon fill="#ffffff" stroke="transparent" points="593.5,-161.7 593.5,-183.7 678.5,-183.7 678.5,-161.7 593.5,-161.7"/>
<polygon fill="none" stroke="#000000" points="593.5,-161.7 593.5,-183.7 678.5,-183.7 678.5,-161.7 593.5,-161.7"/>
<image xlink:href="../../images/foreignKeys.png" width="11px" height="12px" preserveAspectRatio="xMinYMin meet" x="598.5" y="-178.7"/>
<text text-anchor="start" x="613.5" y="-168.8" font-family="Helvetica,sans-Serif" font-size="11.00" fill="#000000">site_id</text>
<polygon fill="#ffffff" stroke="transparent" points="593.5,-139.7 593.5,-161.7 678.5,-161.7 678.5,-139.7 593.5,-139.7"/>
<polygon fill="none" stroke="#000000" points="593.5,-139.7 593.5,-161.7 678.5,-161.7 678.5,-139.7 593.5,-139.7"/>
<image xlink:href="../../images/foreignKeys.png" width="11px" height="12px" preserveAspectRatio="xMinYMin meet" x="598.5" y="-156.7"/>
<text text-anchor="start" x="613.5" y="-146.8" font-family="Helvetica,sans-Serif" font-size="11.00" fill="#000000">eg_id</text>
<polygon fill="#ffffff" stroke="transparent" points="593.5,-117.7 593.5,-139.7 678.5,-139.7 678.5,-117.7 593.5,-117.7"/>
<polygon fill="none" stroke="#000000" points="593.5,-117.7 593.5,-139.7 678.5,-139.7 678.5,-117.7 593.5,-117.7"/>
<text text-anchor="start" x="613.5" y="-124.8" font-family="Helvetica,sans-Serif" font-size="11.00" fill="#000000">mimetype</text>
<polygon fill="none" stroke="#000000" points="593.5,-98.7 593.5,-117.7 678.5,-117.7 678.5,-98.7 593.5,-98.7"/>
<text text-anchor="start" x="596.5" y="-104.8" font-family="Helvetica,sans-Serif" font-size="11.00" fill="#000000">...</text>
<polygon fill="#ffffff" stroke="transparent" points="593.5,-79.7 593.5,-98.7 618.5,-98.7 618.5,-79.7 593.5,-79.7"/>
<polygon fill="none" stroke="#000000" points="593.5,-79.7 593.5,-98.7 618.5,-98.7 618.5,-79.7 593.5,-79.7"/>
<text text-anchor="start" x="596.5" y="-85.8" font-family="Helvetica,sans-Serif" font-size="11.00" fill="#000000">&lt; 2</text>
<polygon fill="#ffffff" stroke="transparent" points="618.5,-79.7 618.5,-98.7 664.5,-98.7 664.5,-79.7 618.5,-79.7"/>
<polygon fill="none" stroke="#000000" points="618.5,-79.7 618.5,-98.7 664.5,-98.7 664.5,-79.7 618.5,-79.7"/>
<text text-anchor="start" x="622.9956" y="-85.8" font-family="Helvetica,sans-Serif" font-size="11.00" fill="#000000">10 rows</text>
<polygon fill="#ffffff" stroke="transparent" points="664.5,-79.7 664.5,-98.7 678.5,-98.7 678.5,-79.7 664.5,-79.7"/>
<polygon fill="none" stroke="#000000" points="664.5,-79.7 664.5,-98.7 678.5,-98.7 678.5,-79.7 664.5,-79.7"/>
<text text-anchor="start" x="669.3862" y="-85.8" font-family="Helvetica,sans-Serif" font-size="11.00" fill="#000000"> &#160;</text>
</a>
</g>
</g>
<!-- photo&#45;&gt;entite_geol -->
<g id="edge8" class="edge">
<title>photo:w&#45;&gt;entite_geol:e</title>
<path fill="none" stroke="#000000" d="M579.478,-154.7949C516.6503,-196.262 597.6429,-538.7 515,-538.7"/>
<polygon fill="#000000" stroke="#000000" points="585.8208,-152.9426 594.5092,-154.1557 589.6604,-151.8213 593.5,-150.7 593.5,-150.7 593.5,-150.7 589.6604,-151.8213 592.4908,-147.2443 585.8208,-152.9426 585.8208,-152.9426"/>
<ellipse fill="none" stroke="#000000" cx="582.7491" cy="-153.8397" rx="3.2" ry="3.2"/>
</g>
<!-- photo&#45;&gt;site -->
<g id="edge9" class="edge">
<title>photo:w&#45;&gt;site:e</title>
<path fill="none" stroke="#000000" d="M578.9782,-172.3467C559.4778,-171.314 549.9778,-168.2145 525,-165.7 368.1347,-149.9084 329.6582,-130.7 172,-130.7"/>
<polygon fill="#000000" stroke="#000000" points="585.5024,-172.5054 593.4124,-176.2989 589.5012,-172.6027 593.5,-172.7 593.5,-172.7 593.5,-172.7 589.5012,-172.6027 593.5876,-169.1011 585.5024,-172.5054 585.5024,-172.5054"/>
<ellipse fill="none" stroke="#000000" cx="582.3033" cy="-172.4276" rx="3.2" ry="3.2"/>
</g>
</g>
</svg>
