<?xml version="1.0" encoding="UTF-8" standalone="no"?>
<!DOCTYPE svg PUBLIC "-//W3C//DTD SVG 1.1//EN"
 "http://www.w3.org/Graphics/SVG/1.1/DTD/svg11.dtd">
<!-- Generated by graphviz version 2.40.1 (20161225.0304)
 -->
<!-- Title: twoDegreesRelationshipsDiagram Pages: 1 -->
<svg width="764pt" height="468pt"
 viewBox="0.00 0.00 764.00 467.70" xmlns="http://www.w3.org/2000/svg" xmlns:xlink="http://www.w3.org/1999/xlink">
<g id="graph0" class="graph" transform="scale(1 1) rotate(0) translate(4 463.7)">
<title>twoDegreesRelationshipsDiagram</title>
<polygon fill="#ffffff" stroke="transparent" points="-4,4 -4,-463.7 760,-463.7 760,4 -4,4"/>
<text text-anchor="middle" x="72.4936" y="-7.3" font-family="Helvetica,sans-Serif" font-size="11.00" fill="#000000">Generated by SchemaSpy</text>
<!-- commentaire -->
<g id="node1" class="node">
<title>commentaire</title>
<g id="a_node1"><a xlink:href="../../tables/commentaire.html" xlink:title="commentaire" target="_top">
<polygon fill="#ffffff" stroke="transparent" points="515.5,-394.7 515.5,-455.7 621.5,-455.7 621.5,-394.7 515.5,-394.7"/>
<polygon fill="#f5f5f5" stroke="transparent" points="515.5,-432.2 515.5,-455.2 621.5,-455.2 621.5,-432.2 515.5,-432.2"/>
<polygon fill="none" stroke="#000000" points="515.5,-432.2 515.5,-455.2 621.5,-455.2 621.5,-432.2 515.5,-432.2"/>
<text text-anchor="start" x="520.221" y="-441.3" font-family="Helvetica,sans-Serif" font-weight="bold" font-size="11.00" fill="#000000">commentaire</text>
<text text-anchor="start" x="587.0219" y="-440.3" font-family="Helvetica,sans-Serif" font-size="11.00" fill="#000000">[table]</text>
<polygon fill="none" stroke="#000000" points="515.5,-413.2 515.5,-432.2 621.5,-432.2 621.5,-413.2 515.5,-413.2"/>
<text text-anchor="start" x="518.5" y="-419.3" font-family="Helvetica,sans-Serif" font-size="11.00" fill="#000000">...</text>
<polygon fill="#ffffff" stroke="transparent" points="515.5,-394.2 515.5,-413.2 553.5,-413.2 553.5,-394.2 515.5,-394.2"/>
<polygon fill="none" stroke="#000000" points="515.5,-394.2 515.5,-413.2 553.5,-413.2 553.5,-394.2 515.5,-394.2"/>
<text text-anchor="start" x="518.5" y="-400.3" font-family="Helvetica,sans-Serif" font-size="11.00" fill="#000000">&lt; 1</text>
<polygon fill="#ffffff" stroke="transparent" points="553.5,-394.2 553.5,-413.2 600.5,-413.2 600.5,-394.2 553.5,-394.2"/>
<polygon fill="none" stroke="#000000" points="553.5,-394.2 553.5,-413.2 600.5,-413.2 600.5,-394.2 553.5,-394.2"/>
<text text-anchor="start" x="565.1105" y="-400.3" font-family="Helvetica,sans-Serif" font-size="11.00" fill="#000000">2 rows</text>
<polygon fill="#ffffff" stroke="transparent" points="600.5,-394.2 600.5,-413.2 621.5,-413.2 621.5,-394.2 600.5,-394.2"/>
<polygon fill="none" stroke="#000000" points="600.5,-394.2 600.5,-413.2 621.5,-413.2 621.5,-394.2 600.5,-394.2"/>
<text text-anchor="start" x="612.3862" y="-400.3" font-family="Helvetica,sans-Serif" font-size="11.00" fill="#000000"> &#160;</text>
</a>
</g>
</g>
<!-- site -->
<g id="node2" class="node">
<title>site</title>
<g id="a_node2"><a xlink:href="../../tables/site.html" xlink:title="site" target="_top">
<polygon fill="#ffffff" stroke="transparent" points="302,-219.7 302,-346.7 466,-346.7 466,-219.7 302,-219.7"/>
<polygon fill="#f5f5f5" stroke="transparent" points="302,-323.2 302,-346.2 466,-346.2 466,-323.2 302,-323.2"/>
<polygon fill="none" stroke="#000000" points="302,-323.2 302,-346.2 466,-346.2 466,-323.2 302,-323.2"/>
<text text-anchor="start" x="307" y="-332.3" font-family="Helvetica,sans-Serif" font-weight="bold" font-size="11.00" fill="#000000">site</text>
<text text-anchor="start" x="431.0437" y="-331.3" font-family="Helvetica,sans-Serif" font-size="11.00" fill="#000000">[table]</text>
<polygon fill="none" stroke="#000000" points="302,-301.2 302,-323.2 466,-323.2 466,-301.2 302,-301.2"/>
<image xlink:href="../../images/primaryKeys.png" width="11px" height="12px" preserveAspectRatio="xMinYMin meet" x="307" y="-318.2"/>
<text text-anchor="start" x="322" y="-308.3" font-family="Helvetica,sans-Serif" font-size="11.00" fill="#000000">id</text>
<polygon fill="#ffffff" stroke="transparent" points="302,-279.2 302,-301.2 466,-301.2 466,-279.2 302,-279.2"/>
<polygon fill="none" stroke="#000000" points="302,-279.2 302,-301.2 466,-301.2 466,-279.2 302,-279.2"/>
<text text-anchor="start" x="322" y="-286.3" font-family="Helvetica,sans-Serif" font-size="11.00" fill="#000000">geom</text>
<polygon fill="#ffffff" stroke="transparent" points="302,-257.2 302,-279.2 466,-279.2 466,-257.2 302,-257.2"/>
<polygon fill="none" stroke="#000000" points="302,-257.2 302,-279.2 466,-279.2 466,-257.2 302,-257.2"/>
<image xlink:href="../../images/foreignKeys.png" width="11px" height="12px" preserveAspectRatio="xMinYMin meet" x="307" y="-274.2"/>
<text text-anchor="start" x="322" y="-264.3" font-family="Helvetica,sans-Serif" font-size="11.00" fill="#000000">ep_id</text>
<polygon fill="none" stroke="#000000" points="302,-238.2 302,-257.2 466,-257.2 466,-238.2 302,-238.2"/>
<text text-anchor="start" x="305" y="-244.3" font-family="Helvetica,sans-Serif" font-size="11.00" fill="#000000">...</text>
<polygon fill="#ffffff" stroke="transparent" points="302,-219.2 302,-238.2 362,-238.2 362,-219.2 302,-219.2"/>
<polygon fill="none" stroke="#000000" points="302,-219.2 302,-238.2 362,-238.2 362,-219.2 302,-219.2"/>
<text text-anchor="start" x="305" y="-225.3" font-family="Helvetica,sans-Serif" font-size="11.00" fill="#000000">&lt; 1</text>
<polygon fill="#ffffff" stroke="transparent" points="362,-219.2 362,-238.2 425,-238.2 425,-219.2 362,-219.2"/>
<polygon fill="none" stroke="#000000" points="362,-219.2 362,-238.2 425,-238.2 425,-219.2 362,-219.2"/>
<text text-anchor="start" x="383.4956" y="-225.3" font-family="Helvetica,sans-Serif" font-size="11.00" fill="#000000">10 rows</text>
<polygon fill="#ffffff" stroke="transparent" points="425,-219.2 425,-238.2 466,-238.2 466,-219.2 425,-219.2"/>
<polygon fill="none" stroke="#000000" points="425,-219.2 425,-238.2 466,-238.2 466,-219.2 425,-219.2"/>
<text text-anchor="start" x="447.4053" y="-225.3" font-family="Helvetica,sans-Serif" font-size="11.00" fill="#000000">5 &gt;</text>
</a>
</g>
</g>
<!-- commentaire&#45;&gt;site -->
<g id="edge1" class="edge">
<title>commentaire:w&#45;&gt;site:e</title>
<path fill="none" stroke="#000000" d="M501.2431,-418.285C473.538,-398.6897 513.5377,-312.2 466,-312.2"/>
<polygon fill="#000000" stroke="#000000" points="507.7856,-420.0816 514.5467,-425.6715 511.6428,-421.1408 515.5,-422.2 515.5,-422.2 515.5,-422.2 511.6428,-421.1408 516.4533,-418.7285 507.7856,-420.0816 507.7856,-420.0816"/>
<ellipse fill="none" stroke="#000000" cx="504.6998" cy="-419.2342" rx="3.2" ry="3.2"/>
</g>
<!-- espace_protege -->
<g id="node5" class="node">
<title>espace_protege</title>
<g id="a_node5"><a xlink:href="../../tables/espace_protege.html" xlink:title="espace_protege" target="_top">
<polygon fill="#ffffff" stroke="transparent" points="8,-38.2 8,-304.2 253,-304.2 253,-38.2 8,-38.2"/>
<polygon fill="#f5f5f5" stroke="transparent" points="10.5,-279.2 10.5,-302.2 251.5,-302.2 251.5,-279.2 10.5,-279.2"/>
<polygon fill="none" stroke="#000000" points="10.5,-279.2 10.5,-302.2 251.5,-302.2 251.5,-279.2 10.5,-279.2"/>
<text text-anchor="start" x="15.5" y="-288.3" font-family="Helvetica,sans-Serif" font-weight="bold" font-size="11.00" fill="#000000">espace_protege</text>
<text text-anchor="start" x="216.5437" y="-287.3" font-family="Helvetica,sans-Serif" font-size="11.00" fill="#000000">[table]</text>
<polygon fill="none" stroke="#000000" points="10.5,-257.2 10.5,-279.2 132.5,-279.2 132.5,-257.2 10.5,-257.2"/>
<image xlink:href="../../images/primaryKeys.png" width="11px" height="12px" preserveAspectRatio="xMinYMin meet" x="15.5" y="-274.2"/>
<text text-anchor="start" x="30.5" y="-264.3" font-family="Helvetica,sans-Serif" font-size="11.00" fill="#000000">id</text>
<polygon fill="none" stroke="#000000" points="132.5,-257.2 132.5,-279.2 251.5,-279.2 251.5,-257.2 132.5,-257.2"/>
<text text-anchor="start" x="135.5" y="-264.9" font-family="Helvetica,sans-Serif" font-size="11.00" fill="#000000">serial[10]</text>
<polygon fill="#ffffff" stroke="transparent" points="10.5,-235.2 10.5,-257.2 132.5,-257.2 132.5,-235.2 10.5,-235.2"/>
<polygon fill="none" stroke="#000000" points="10.5,-235.2 10.5,-257.2 132.5,-257.2 132.5,-235.2 10.5,-235.2"/>
<text text-anchor="start" x="30.5" y="-242.3" font-family="Helvetica,sans-Serif" font-size="11.00" fill="#000000">code_national_ep</text>
<polygon fill="none" stroke="#000000" points="132.5,-235.2 132.5,-257.2 251.5,-257.2 251.5,-235.2 132.5,-235.2"/>
<text text-anchor="start" x="135.5" y="-242.9" font-family="Helvetica,sans-Serif" font-size="11.00" fill="#000000">varchar[50]</text>
<polygon fill="none" stroke="#000000" points="10.5,-213.2 10.5,-235.2 132.5,-235.2 132.5,-213.2 10.5,-213.2"/>
<text text-anchor="start" x="30.5" y="-220.3" font-family="Helvetica,sans-Serif" font-size="11.00" fill="#000000">nom</text>
<polygon fill="none" stroke="#000000" points="132.5,-213.2 132.5,-235.2 251.5,-235.2 251.5,-213.2 132.5,-213.2"/>
<text text-anchor="start" x="135.5" y="-220.9" font-family="Helvetica,sans-Serif" font-size="11.00" fill="#000000">varchar[150]</text>
<polygon fill="none" stroke="#000000" points="10.5,-191.2 10.5,-213.2 132.5,-213.2 132.5,-191.2 10.5,-191.2"/>
<text text-anchor="start" x="30.5" y="-198.3" font-family="Helvetica,sans-Serif" font-size="11.00" fill="#000000">type</text>
<polygon fill="none" stroke="#000000" points="132.5,-191.2 132.5,-213.2 251.5,-213.2 251.5,-191.2 132.5,-191.2"/>
<text text-anchor="start" x="135.5" y="-198.9" font-family="Helvetica,sans-Serif" font-size="11.00" fill="#000000">varchar[255]</text>
<polygon fill="none" stroke="#000000" points="10.5,-169.2 10.5,-191.2 132.5,-191.2 132.5,-169.2 10.5,-169.2"/>
<text text-anchor="start" x="30.5" y="-176.3" font-family="Helvetica,sans-Serif" font-size="11.00" fill="#000000">sous_type</text>
<polygon fill="none" stroke="#000000" points="132.5,-169.2 132.5,-191.2 251.5,-191.2 251.5,-169.2 132.5,-169.2"/>
<text text-anchor="start" x="135.5" y="-176.9" font-family="Helvetica,sans-Serif" font-size="11.00" fill="#000000">varchar[255]</text>
<polygon fill="none" stroke="#000000" points="10.5,-147.2 10.5,-169.2 132.5,-169.2 132.5,-147.2 10.5,-147.2"/>
<text text-anchor="start" x="30.5" y="-154.3" font-family="Helvetica,sans-Serif" font-size="11.00" fill="#000000">numero</text>
<polygon fill="none" stroke="#000000" points="132.5,-147.2 132.5,-169.2 251.5,-169.2 251.5,-147.2 132.5,-147.2"/>
<text text-anchor="start" x="135.5" y="-154.9" font-family="Helvetica,sans-Serif" font-size="11.00" fill="#000000">int4[10]</text>
<polygon fill="none" stroke="#000000" points="10.5,-125.2 10.5,-147.2 132.5,-147.2 132.5,-125.2 10.5,-125.2"/>
<text text-anchor="start" x="30.5" y="-132.3" font-family="Helvetica,sans-Serif" font-size="11.00" fill="#000000">surface</text>
<polygon fill="none" stroke="#000000" points="132.5,-125.2 132.5,-147.2 251.5,-147.2 251.5,-125.2 132.5,-125.2"/>
<text text-anchor="start" x="135.5" y="-132.9" font-family="Helvetica,sans-Serif" font-size="11.00" fill="#000000">float8[17,17]</text>
<polygon fill="#ffffff" stroke="transparent" points="10.5,-103.2 10.5,-125.2 132.5,-125.2 132.5,-103.2 10.5,-103.2"/>
<polygon fill="none" stroke="#000000" points="10.5,-103.2 10.5,-125.2 132.5,-125.2 132.5,-103.2 10.5,-103.2"/>
<text text-anchor="start" x="30.5" y="-110.3" font-family="Helvetica,sans-Serif" font-size="11.00" fill="#000000">geom</text>
<polygon fill="none" stroke="#000000" points="132.5,-103.2 132.5,-125.2 251.5,-125.2 251.5,-103.2 132.5,-103.2"/>
<text text-anchor="start" x="135.4485" y="-110.9" font-family="Helvetica,sans-Serif" font-size="11.00" fill="#000000">geometry[2147483647]</text>
<polygon fill="none" stroke="#000000" points="10.5,-81.2 10.5,-103.2 132.5,-103.2 132.5,-81.2 10.5,-81.2"/>
<text text-anchor="start" x="30.5" y="-88.3" font-family="Helvetica,sans-Serif" font-size="11.00" fill="#000000">monosite</text>
<polygon fill="none" stroke="#000000" points="132.5,-81.2 132.5,-103.2 251.5,-103.2 251.5,-81.2 132.5,-81.2"/>
<text text-anchor="start" x="135.5" y="-88.9" font-family="Helvetica,sans-Serif" font-size="11.00" fill="#000000">bool[1]</text>
<polygon fill="none" stroke="#000000" points="10.5,-59.2 10.5,-81.2 132.5,-81.2 132.5,-59.2 10.5,-59.2"/>
<text text-anchor="start" x="30.5" y="-66.3" font-family="Helvetica,sans-Serif" font-size="11.00" fill="#000000">group_id</text>
<polygon fill="none" stroke="#000000" points="132.5,-59.2 132.5,-81.2 251.5,-81.2 251.5,-59.2 132.5,-59.2"/>
<text text-anchor="start" x="135.5" y="-66.9" font-family="Helvetica,sans-Serif" font-size="11.00" fill="#000000">int4[10]</text>
<polygon fill="#ffffff" stroke="transparent" points="10.5,-40.2 10.5,-59.2 62.5,-59.2 62.5,-40.2 10.5,-40.2"/>
<polygon fill="none" stroke="#000000" points="10.5,-40.2 10.5,-59.2 62.5,-59.2 62.5,-40.2 10.5,-40.2"/>
<text text-anchor="start" x="13.5" y="-46.3" font-family="Helvetica,sans-Serif" font-size="11.00" fill="#000000">&lt; 0</text>
<polygon fill="#ffffff" stroke="transparent" points="62.5,-40.2 62.5,-59.2 132.5,-59.2 132.5,-40.2 62.5,-40.2"/>
<polygon fill="none" stroke="#000000" points="62.5,-40.2 62.5,-59.2 132.5,-59.2 132.5,-40.2 62.5,-40.2"/>
<text text-anchor="start" x="97.1105" y="-46.3" font-family="Helvetica,sans-Serif" font-size="11.00" fill="#000000">7 rows</text>
<polygon fill="#ffffff" stroke="transparent" points="132.5,-40.2 132.5,-59.2 251.5,-59.2 251.5,-40.2 132.5,-40.2"/>
<polygon fill="none" stroke="#000000" points="132.5,-40.2 132.5,-59.2 251.5,-59.2 251.5,-40.2 132.5,-40.2"/>
<text text-anchor="start" x="232.9053" y="-46.3" font-family="Helvetica,sans-Serif" font-size="11.00" fill="#000000">1 &gt;</text>
<polygon fill="none" stroke="#000000" stroke-width="2" points="9,-39.2 9,-303.2 252,-303.2 252,-39.2 9,-39.2"/>
</a>
</g>
</g>
<!-- site&#45;&gt;espace_protege -->
<g id="edge5" class="edge">
<title>site:w&#45;&gt;espace_protege:e</title>
<path fill="none" stroke="#000000" d="M287.4203,-268.2C275.5435,-268.2 268.158,-268.2 251.5,-268.2"/>
<polygon fill="#000000" stroke="#000000" points="294,-268.2001 302,-271.8 298,-268.2 302,-268.2 302,-268.2 302,-268.2 298,-268.2 302,-264.6 294,-268.2001 294,-268.2001"/>
<ellipse fill="none" stroke="#000000" cx="290.8" cy="-268.2001" rx="3.2" ry="3.2"/>
</g>
<!-- entite_geol -->
<g id="node3" class="node">
<title>entite_geol</title>
<g id="a_node3"><a xlink:href="../../tables/entite_geol.html" xlink:title="entite_geol" target="_top">
<polygon fill="#ffffff" stroke="transparent" points="520.5,-284.7 520.5,-345.7 616.5,-345.7 616.5,-284.7 520.5,-284.7"/>
<polygon fill="#f5f5f5" stroke="transparent" points="520.5,-322.2 520.5,-345.2 616.5,-345.2 616.5,-322.2 520.5,-322.2"/>
<polygon fill="none" stroke="#000000" points="520.5,-322.2 520.5,-345.2 616.5,-345.2 616.5,-322.2 520.5,-322.2"/>
<text text-anchor="start" x="525.1001" y="-331.3" font-family="Helvetica,sans-Serif" font-weight="bold" font-size="11.00" fill="#000000">entite_geol</text>
<text text-anchor="start" x="582.0219" y="-330.3" font-family="Helvetica,sans-Serif" font-size="11.00" fill="#000000">[table]</text>
<polygon fill="none" stroke="#000000" points="520.5,-303.2 520.5,-322.2 616.5,-322.2 616.5,-303.2 520.5,-303.2"/>
<text text-anchor="start" x="523.5" y="-309.3" font-family="Helvetica,sans-Serif" font-size="11.00" fill="#000000">...</text>
<polygon fill="#ffffff" stroke="transparent" points="520.5,-284.2 520.5,-303.2 546.5,-303.2 546.5,-284.2 520.5,-284.2"/>
<polygon fill="none" stroke="#000000" points="520.5,-284.2 520.5,-303.2 546.5,-303.2 546.5,-284.2 520.5,-284.2"/>
<text text-anchor="start" x="523.5" y="-290.3" font-family="Helvetica,sans-Serif" font-size="11.00" fill="#000000">&lt; 3</text>
<polygon fill="#ffffff" stroke="transparent" points="546.5,-284.2 546.5,-303.2 592.5,-303.2 592.5,-284.2 546.5,-284.2"/>
<polygon fill="none" stroke="#000000" points="546.5,-284.2 546.5,-303.2 592.5,-303.2 592.5,-284.2 546.5,-284.2"/>
<text text-anchor="start" x="550.9956" y="-290.3" font-family="Helvetica,sans-Serif" font-size="11.00" fill="#000000">24 rows</text>
<polygon fill="#ffffff" stroke="transparent" points="592.5,-284.2 592.5,-303.2 616.5,-303.2 616.5,-284.2 592.5,-284.2"/>
<polygon fill="none" stroke="#000000" points="592.5,-284.2 592.5,-303.2 616.5,-303.2 616.5,-284.2 592.5,-284.2"/>
<text text-anchor="start" x="597.9053" y="-290.3" font-family="Helvetica,sans-Serif" font-size="11.00" fill="#000000">5 &gt;</text>
</a>
</g>
</g>
<!-- entite_geol&#45;&gt;site -->
<g id="edge2" class="edge">
<title>entite_geol:w&#45;&gt;site:e</title>
<path fill="none" stroke="#000000" d="M505.9947,-312.2C492.4413,-312.2 484.5451,-312.2 466,-312.2"/>
<polygon fill="#000000" stroke="#000000" points="512.5,-312.2001 520.5,-315.8 516.5,-312.2 520.5,-312.2 520.5,-312.2 520.5,-312.2 516.5,-312.2 520.5,-308.6 512.5,-312.2001 512.5,-312.2001"/>
<ellipse fill="none" stroke="#000000" cx="509.3" cy="-312.2001" rx="3.2" ry="3.2"/>
</g>
<!-- photo -->
<g id="node4" class="node">
<title>photo</title>
<g id="a_node4"><a xlink:href="../../tables/photo.html" xlink:title="photo" target="_top">
<polygon fill="#ffffff" stroke="transparent" points="671,-313.7 671,-374.7 748,-374.7 748,-313.7 671,-313.7"/>
<polygon fill="#f5f5f5" stroke="transparent" points="671.5,-351.2 671.5,-374.2 748.5,-374.2 748.5,-351.2 671.5,-351.2"/>
<polygon fill="none" stroke="#000000" points="671.5,-351.2 671.5,-374.2 748.5,-374.2 748.5,-351.2 671.5,-351.2"/>
<text text-anchor="start" x="676.5" y="-360.3" font-family="Helvetica,sans-Serif" font-weight="bold" font-size="11.00" fill="#000000">photo</text>
<text text-anchor="start" x="713.5437" y="-359.3" font-family="Helvetica,sans-Serif" font-size="11.00" fill="#000000">[table]</text>
<polygon fill="none" stroke="#000000" points="671.5,-332.2 671.5,-351.2 748.5,-351.2 748.5,-332.2 671.5,-332.2"/>
<text text-anchor="start" x="674.5" y="-338.3" font-family="Helvetica,sans-Serif" font-size="11.00" fill="#000000">...</text>
<polygon fill="#ffffff" stroke="transparent" points="671.5,-313.2 671.5,-332.2 692.5,-332.2 692.5,-313.2 671.5,-313.2"/>
<polygon fill="none" stroke="#000000" points="671.5,-313.2 671.5,-332.2 692.5,-332.2 692.5,-313.2 671.5,-313.2"/>
<text text-anchor="start" x="674.2026" y="-319.3" font-family="Helvetica,sans-Serif" font-size="11.00" fill="#000000">&lt; 2</text>
<polygon fill="#ffffff" stroke="transparent" points="692.5,-313.2 692.5,-332.2 736.5,-332.2 736.5,-313.2 692.5,-313.2"/>
<polygon fill="none" stroke="#000000" points="692.5,-313.2 692.5,-332.2 736.5,-332.2 736.5,-313.2 692.5,-313.2"/>
<text text-anchor="start" x="695.2478" y="-319.3" font-family="Helvetica,sans-Serif" font-size="11.00" fill="#000000">10 rows</text>
<polygon fill="#ffffff" stroke="transparent" points="736.5,-313.2 736.5,-332.2 748.5,-332.2 748.5,-313.2 736.5,-313.2"/>
<polygon fill="none" stroke="#000000" points="736.5,-313.2 736.5,-332.2 748.5,-332.2 748.5,-313.2 736.5,-313.2"/>
<text text-anchor="start" x="739.4431" y="-319.3" font-family="Helvetica,sans-Serif" font-size="11.00" fill="#000000"> &#160;</text>
</a>
</g>
</g>
<!-- photo&#45;&gt;site -->
<g id="edge4" class="edge">
<title>photo:w&#45;&gt;site:e</title>
<path fill="none" stroke="#000000" d="M657.0752,-343.9974C648.6461,-347.6561 643.2812,-353.8734 630,-356.2 576.1533,-365.6327 557.1286,-378.0076 507,-356.2 482.4894,-345.537 492.7296,-312.2 466,-312.2"/>
<polygon fill="#000000" stroke="#000000" points="663.6463,-342.7231 672.1854,-344.7342 667.5732,-341.9616 671.5,-341.2 671.5,-341.2 671.5,-341.2 667.5732,-341.9616 670.8146,-337.6658 663.6463,-342.7231 663.6463,-342.7231"/>
<ellipse fill="none" stroke="#000000" cx="660.5048" cy="-343.3323" rx="3.2" ry="3.2"/>
</g>
<!-- photo&#45;&gt;entite_geol -->
<g id="edge3" class="edge">
<title>photo:w&#45;&gt;entite_geol:e</title>
<path fill="none" stroke="#000000" d="M657.2135,-337.8733C642.7375,-330.256 638.3052,-312.2 616.5,-312.2"/>
<polygon fill="#000000" stroke="#000000" points="663.7084,-339.3857 670.6835,-344.7062 667.6042,-340.2928 671.5,-341.2 671.5,-341.2 671.5,-341.2 667.6042,-340.2928 672.3165,-337.6938 663.7084,-339.3857 663.7084,-339.3857"/>
<ellipse fill="none" stroke="#000000" cx="660.5918" cy="-338.6599" rx="3.2" ry="3.2"/>
</g>
<!-- site_ontology -->
<g id="node6" class="node">
<title>site_ontology</title>
<g id="a_node6"><a xlink:href="../../tables/site_ontology.html" xlink:title="site_ontology" target="_top">
<polygon fill="#ffffff" stroke="transparent" points="515,-202.7 515,-263.7 622,-263.7 622,-202.7 515,-202.7"/>
<polygon fill="#f5f5f5" stroke="transparent" points="515.5,-240.2 515.5,-263.2 622.5,-263.2 622.5,-240.2 515.5,-240.2"/>
<polygon fill="none" stroke="#000000" points="515.5,-240.2 515.5,-263.2 622.5,-263.2 622.5,-240.2 515.5,-240.2"/>
<text text-anchor="start" x="520.1001" y="-249.3" font-family="Helvetica,sans-Serif" font-weight="bold" font-size="11.00" fill="#000000">site_ontology</text>
<text text-anchor="start" x="588.0219" y="-248.3" font-family="Helvetica,sans-Serif" font-size="11.00" fill="#000000">[table]</text>
<polygon fill="none" stroke="#000000" points="515.5,-221.2 515.5,-240.2 622.5,-240.2 622.5,-221.2 515.5,-221.2"/>
<text text-anchor="start" x="518.5" y="-227.3" font-family="Helvetica,sans-Serif" font-size="11.00" fill="#000000">...</text>
<polygon fill="#ffffff" stroke="transparent" points="515.5,-202.2 515.5,-221.2 551.5,-221.2 551.5,-202.2 515.5,-202.2"/>
<polygon fill="none" stroke="#000000" points="515.5,-202.2 515.5,-221.2 551.5,-221.2 551.5,-202.2 515.5,-202.2"/>
<text text-anchor="start" x="518.5" y="-208.3" font-family="Helvetica,sans-Serif" font-size="11.00" fill="#000000">&lt; 2</text>
<polygon fill="#ffffff" stroke="transparent" points="551.5,-202.2 551.5,-221.2 602.5,-221.2 602.5,-202.2 551.5,-202.2"/>
<polygon fill="none" stroke="#000000" points="551.5,-202.2 551.5,-221.2 602.5,-221.2 602.5,-202.2 551.5,-202.2"/>
<text text-anchor="start" x="560.9956" y="-208.3" font-family="Helvetica,sans-Serif" font-size="11.00" fill="#000000">24 rows</text>
<polygon fill="#ffffff" stroke="transparent" points="602.5,-202.2 602.5,-221.2 622.5,-221.2 622.5,-202.2 602.5,-202.2"/>
<polygon fill="none" stroke="#000000" points="602.5,-202.2 602.5,-221.2 622.5,-221.2 622.5,-202.2 602.5,-202.2"/>
<text text-anchor="start" x="613.3862" y="-208.3" font-family="Helvetica,sans-Serif" font-size="11.00" fill="#000000"> &#160;</text>
</a>
</g>
</g>
<!-- site_ontology&#45;&gt;site -->
<g id="edge6" class="edge">
<title>site_ontology:w&#45;&gt;site:e</title>
<path fill="none" stroke="#000000" d="M501.7457,-234.6087C481.4072,-251.6409 502.5835,-312.2 466,-312.2"/>
<polygon fill="#000000" stroke="#000000" points="507.8818,-232.6419 516.5989,-233.6282 511.6909,-231.421 515.5,-230.2 515.5,-230.2 515.5,-230.2 511.6909,-231.421 514.4011,-226.7718 507.8818,-232.6419 507.8818,-232.6419"/>
<ellipse fill="none" stroke="#000000" cx="504.8345" cy="-233.6187" rx="3.2" ry="3.2"/>
</g>
<!-- site_qcm -->
<g id="node7" class="node">
<title>site_qcm</title>
<g id="a_node7"><a xlink:href="../../tables/site_qcm.html" xlink:title="site_qcm" target="_top">
<polygon fill="#ffffff" stroke="transparent" points="525,-120.7 525,-181.7 612,-181.7 612,-120.7 525,-120.7"/>
<polygon fill="#f5f5f5" stroke="transparent" points="525.5,-158.2 525.5,-181.2 612.5,-181.2 612.5,-158.2 525.5,-158.2"/>
<polygon fill="none" stroke="#000000" points="525.5,-158.2 525.5,-181.2 612.5,-181.2 612.5,-158.2 525.5,-158.2"/>
<text text-anchor="start" x="530.4978" y="-167.3" font-family="Helvetica,sans-Serif" font-weight="bold" font-size="11.00" fill="#000000">site_qcm</text>
<text text-anchor="start" x="578.0219" y="-166.3" font-family="Helvetica,sans-Serif" font-size="11.00" fill="#000000">[table]</text>
<polygon fill="none" stroke="#000000" points="525.5,-139.2 525.5,-158.2 612.5,-158.2 612.5,-139.2 525.5,-139.2"/>
<text text-anchor="start" x="528.5" y="-145.3" font-family="Helvetica,sans-Serif" font-size="11.00" fill="#000000">...</text>
<polygon fill="#ffffff" stroke="transparent" points="525.5,-120.2 525.5,-139.2 551.5,-139.2 551.5,-120.2 525.5,-120.2"/>
<polygon fill="none" stroke="#000000" points="525.5,-120.2 525.5,-139.2 551.5,-139.2 551.5,-120.2 525.5,-120.2"/>
<text text-anchor="start" x="528.5" y="-126.3" font-family="Helvetica,sans-Serif" font-size="11.00" fill="#000000">&lt; 1</text>
<polygon fill="#ffffff" stroke="transparent" points="551.5,-120.2 551.5,-139.2 597.5,-139.2 597.5,-120.2 551.5,-120.2"/>
<polygon fill="none" stroke="#000000" points="551.5,-120.2 551.5,-139.2 597.5,-139.2 597.5,-120.2 551.5,-120.2"/>
<text text-anchor="start" x="555.9956" y="-126.3" font-family="Helvetica,sans-Serif" font-size="11.00" fill="#000000">40 rows</text>
<polygon fill="#ffffff" stroke="transparent" points="597.5,-120.2 597.5,-139.2 612.5,-139.2 612.5,-120.2 597.5,-120.2"/>
<polygon fill="none" stroke="#000000" points="597.5,-120.2 597.5,-139.2 612.5,-139.2 612.5,-120.2 597.5,-120.2"/>
<text text-anchor="start" x="603.3862" y="-126.3" font-family="Helvetica,sans-Serif" font-size="11.00" fill="#000000"> &#160;</text>
</a>
</g>
</g>
<!-- site_qcm&#45;&gt;site -->
<g id="edge7" class="edge">
<title>site_qcm:w&#45;&gt;site:e</title>
<path fill="none" stroke="#000000" d="M511.2716,-150.6456C460.8719,-171.0467 537.9344,-312.2 466,-312.2"/>
<polygon fill="#000000" stroke="#000000" points="517.6156,-149.5552 526.1098,-151.748 521.5578,-148.8776 525.5,-148.2 525.5,-148.2 525.5,-148.2 521.5578,-148.8776 524.8902,-144.652 517.6156,-149.5552 517.6156,-149.5552"/>
<ellipse fill="none" stroke="#000000" cx="514.4619" cy="-150.0973" rx="3.2" ry="3.2"/>
</g>
</g>
</svg>
