<?xml version="1.0" encoding="UTF-8" standalone="no"?>
<!DOCTYPE svg PUBLIC "-//W3C//DTD SVG 1.1//EN"
 "http://www.w3.org/Graphics/SVG/1.1/DTD/svg11.dtd">
<!-- Generated by graphviz version 2.40.1 (20161225.0304)
 -->
<!-- Title: oneDegreeRelationshipsDiagram Pages: 1 -->
<svg width="482pt" height="359pt"
 viewBox="0.00 0.00 482.00 358.70" xmlns="http://www.w3.org/2000/svg" xmlns:xlink="http://www.w3.org/1999/xlink">
<g id="graph0" class="graph" transform="scale(1 1) rotate(0) translate(4 354.7)">
<title>oneDegreeRelationshipsDiagram</title>
<polygon fill="#ffffff" stroke="transparent" points="-4,4 -4,-354.7 478,-354.7 478,4 -4,4"/>
<text text-anchor="middle" x="72.4936" y="-7.3" font-family="Helvetica,sans-Serif" font-size="11.00" fill="#000000">Generated by SchemaSpy</text>
<!-- site -->
<g id="node1" class="node">
<title>site</title>
<g id="a_node1"><a xlink:href="../../tables/site.html" xlink:title="site" target="_top">
<polygon fill="#ffffff" stroke="transparent" points="302,-219.7 302,-346.7 466,-346.7 466,-219.7 302,-219.7"/>
<polygon fill="#f5f5f5" stroke="transparent" points="302,-323.2 302,-346.2 466,-346.2 466,-323.2 302,-323.2"/>
<polygon fill="none" stroke="#000000" points="302,-323.2 302,-346.2 466,-346.2 466,-323.2 302,-323.2"/>
<text text-anchor="start" x="307" y="-332.3" font-family="Helvetica,sans-Serif" font-weight="bold" font-size="11.00" fill="#000000">site</text>
<text text-anchor="start" x="431.0437" y="-331.3" font-family="Helvetica,sans-Serif" font-size="11.00" fill="#000000">[table]</text>
<polygon fill="none" stroke="#000000" points="302,-301.2 302,-323.2 466,-323.2 466,-301.2 302,-301.2"/>
<image xlink:href="../../images/primaryKeys.png" width="11px" height="12px" preserveAspectRatio="xMinYMin meet" x="307" y="-318.2"/>
<text text-anchor="start" x="322" y="-308.3" font-family="Helvetica,sans-Serif" font-size="11.00" fill="#000000">id</text>
<polygon fill="#ffffff" stroke="transparent" points="302,-279.2 302,-301.2 466,-301.2 466,-279.2 302,-279.2"/>
<polygon fill="none" stroke="#000000" points="302,-279.2 302,-301.2 466,-301.2 466,-279.2 302,-279.2"/>
<text text-anchor="start" x="322" y="-286.3" font-family="Helvetica,sans-Serif" font-size="11.00" fill="#000000">geom</text>
<polygon fill="#ffffff" stroke="transparent" points="302,-257.2 302,-279.2 466,-279.2 466,-257.2 302,-257.2"/>
<polygon fill="none" stroke="#000000" points="302,-257.2 302,-279.2 466,-279.2 466,-257.2 302,-257.2"/>
<image xlink:href="../../images/foreignKeys.png" width="11px" height="12px" preserveAspectRatio="xMinYMin meet" x="307" y="-274.2"/>
<text text-anchor="start" x="322" y="-264.3" font-family="Helvetica,sans-Serif" font-size="11.00" fill="#000000">ep_id</text>
<polygon fill="none" stroke="#000000" points="302,-238.2 302,-257.2 466,-257.2 466,-238.2 302,-238.2"/>
<text text-anchor="start" x="305" y="-244.3" font-family="Helvetica,sans-Serif" font-size="11.00" fill="#000000">...</text>
<polygon fill="#ffffff" stroke="transparent" points="302,-219.2 302,-238.2 362,-238.2 362,-219.2 302,-219.2"/>
<polygon fill="none" stroke="#000000" points="302,-219.2 302,-238.2 362,-238.2 362,-219.2 302,-219.2"/>
<text text-anchor="start" x="305" y="-225.3" font-family="Helvetica,sans-Serif" font-size="11.00" fill="#000000">&lt; 1</text>
<polygon fill="#ffffff" stroke="transparent" points="362,-219.2 362,-238.2 425,-238.2 425,-219.2 362,-219.2"/>
<polygon fill="none" stroke="#000000" points="362,-219.2 362,-238.2 425,-238.2 425,-219.2 362,-219.2"/>
<text text-anchor="start" x="383.4956" y="-225.3" font-family="Helvetica,sans-Serif" font-size="11.00" fill="#000000">10 rows</text>
<polygon fill="#ffffff" stroke="transparent" points="425,-219.2 425,-238.2 466,-238.2 466,-219.2 425,-219.2"/>
<polygon fill="none" stroke="#000000" points="425,-219.2 425,-238.2 466,-238.2 466,-219.2 425,-219.2"/>
<text text-anchor="start" x="447.4053" y="-225.3" font-family="Helvetica,sans-Serif" font-size="11.00" fill="#000000">5 &gt;</text>
</a>
</g>
</g>
<!-- espace_protege -->
<g id="node2" class="node">
<title>espace_protege</title>
<g id="a_node2"><a xlink:href="../../tables/espace_protege.html" xlink:title="espace_protege" target="_top">
<polygon fill="#ffffff" stroke="transparent" points="8,-38.2 8,-304.2 253,-304.2 253,-38.2 8,-38.2"/>
<polygon fill="#f5f5f5" stroke="transparent" points="10.5,-279.2 10.5,-302.2 251.5,-302.2 251.5,-279.2 10.5,-279.2"/>
<polygon fill="none" stroke="#000000" points="10.5,-279.2 10.5,-302.2 251.5,-302.2 251.5,-279.2 10.5,-279.2"/>
<text text-anchor="start" x="15.5" y="-288.3" font-family="Helvetica,sans-Serif" font-weight="bold" font-size="11.00" fill="#000000">espace_protege</text>
<text text-anchor="start" x="216.5437" y="-287.3" font-family="Helvetica,sans-Serif" font-size="11.00" fill="#000000">[table]</text>
<polygon fill="none" stroke="#000000" points="10.5,-257.2 10.5,-279.2 132.5,-279.2 132.5,-257.2 10.5,-257.2"/>
<image xlink:href="../../images/primaryKeys.png" width="11px" height="12px" preserveAspectRatio="xMinYMin meet" x="15.5" y="-274.2"/>
<text text-anchor="start" x="30.5" y="-264.3" font-family="Helvetica,sans-Serif" font-size="11.00" fill="#000000">id</text>
<polygon fill="none" stroke="#000000" points="132.5,-257.2 132.5,-279.2 251.5,-279.2 251.5,-257.2 132.5,-257.2"/>
<text text-anchor="start" x="135.5" y="-264.9" font-family="Helvetica,sans-Serif" font-size="11.00" fill="#000000">serial[10]</text>
<polygon fill="#ffffff" stroke="transparent" points="10.5,-235.2 10.5,-257.2 132.5,-257.2 132.5,-235.2 10.5,-235.2"/>
<polygon fill="none" stroke="#000000" points="10.5,-235.2 10.5,-257.2 132.5,-257.2 132.5,-235.2 10.5,-235.2"/>
<text text-anchor="start" x="30.5" y="-242.3" font-family="Helvetica,sans-Serif" font-size="11.00" fill="#000000">code_national_ep</text>
<polygon fill="none" stroke="#000000" points="132.5,-235.2 132.5,-257.2 251.5,-257.2 251.5,-235.2 132.5,-235.2"/>
<text text-anchor="start" x="135.5" y="-242.9" font-family="Helvetica,sans-Serif" font-size="11.00" fill="#000000">varchar[50]</text>
<polygon fill="none" stroke="#000000" points="10.5,-213.2 10.5,-235.2 132.5,-235.2 132.5,-213.2 10.5,-213.2"/>
<text text-anchor="start" x="30.5" y="-220.3" font-family="Helvetica,sans-Serif" font-size="11.00" fill="#000000">nom</text>
<polygon fill="none" stroke="#000000" points="132.5,-213.2 132.5,-235.2 251.5,-235.2 251.5,-213.2 132.5,-213.2"/>
<text text-anchor="start" x="135.5" y="-220.9" font-family="Helvetica,sans-Serif" font-size="11.00" fill="#000000">varchar[150]</text>
<polygon fill="none" stroke="#000000" points="10.5,-191.2 10.5,-213.2 132.5,-213.2 132.5,-191.2 10.5,-191.2"/>
<text text-anchor="start" x="30.5" y="-198.3" font-family="Helvetica,sans-Serif" font-size="11.00" fill="#000000">type</text>
<polygon fill="none" stroke="#000000" points="132.5,-191.2 132.5,-213.2 251.5,-213.2 251.5,-191.2 132.5,-191.2"/>
<text text-anchor="start" x="135.5" y="-198.9" font-family="Helvetica,sans-Serif" font-size="11.00" fill="#000000">varchar[255]</text>
<polygon fill="none" stroke="#000000" points="10.5,-169.2 10.5,-191.2 132.5,-191.2 132.5,-169.2 10.5,-169.2"/>
<text text-anchor="start" x="30.5" y="-176.3" font-family="Helvetica,sans-Serif" font-size="11.00" fill="#000000">sous_type</text>
<polygon fill="none" stroke="#000000" points="132.5,-169.2 132.5,-191.2 251.5,-191.2 251.5,-169.2 132.5,-169.2"/>
<text text-anchor="start" x="135.5" y="-176.9" font-family="Helvetica,sans-Serif" font-size="11.00" fill="#000000">varchar[255]</text>
<polygon fill="none" stroke="#000000" points="10.5,-147.2 10.5,-169.2 132.5,-169.2 132.5,-147.2 10.5,-147.2"/>
<text text-anchor="start" x="30.5" y="-154.3" font-family="Helvetica,sans-Serif" font-size="11.00" fill="#000000">numero</text>
<polygon fill="none" stroke="#000000" points="132.5,-147.2 132.5,-169.2 251.5,-169.2 251.5,-147.2 132.5,-147.2"/>
<text text-anchor="start" x="135.5" y="-154.9" font-family="Helvetica,sans-Serif" font-size="11.00" fill="#000000">int4[10]</text>
<polygon fill="none" stroke="#000000" points="10.5,-125.2 10.5,-147.2 132.5,-147.2 132.5,-125.2 10.5,-125.2"/>
<text text-anchor="start" x="30.5" y="-132.3" font-family="Helvetica,sans-Serif" font-size="11.00" fill="#000000">surface</text>
<polygon fill="none" stroke="#000000" points="132.5,-125.2 132.5,-147.2 251.5,-147.2 251.5,-125.2 132.5,-125.2"/>
<text text-anchor="start" x="135.5" y="-132.9" font-family="Helvetica,sans-Serif" font-size="11.00" fill="#000000">float8[17,17]</text>
<polygon fill="#ffffff" stroke="transparent" points="10.5,-103.2 10.5,-125.2 132.5,-125.2 132.5,-103.2 10.5,-103.2"/>
<polygon fill="none" stroke="#000000" points="10.5,-103.2 10.5,-125.2 132.5,-125.2 132.5,-103.2 10.5,-103.2"/>
<text text-anchor="start" x="30.5" y="-110.3" font-family="Helvetica,sans-Serif" font-size="11.00" fill="#000000">geom</text>
<polygon fill="none" stroke="#000000" points="132.5,-103.2 132.5,-125.2 251.5,-125.2 251.5,-103.2 132.5,-103.2"/>
<text text-anchor="start" x="135.4485" y="-110.9" font-family="Helvetica,sans-Serif" font-size="11.00" fill="#000000">geometry[2147483647]</text>
<polygon fill="none" stroke="#000000" points="10.5,-81.2 10.5,-103.2 132.5,-103.2 132.5,-81.2 10.5,-81.2"/>
<text text-anchor="start" x="30.5" y="-88.3" font-family="Helvetica,sans-Serif" font-size="11.00" fill="#000000">monosite</text>
<polygon fill="none" stroke="#000000" points="132.5,-81.2 132.5,-103.2 251.5,-103.2 251.5,-81.2 132.5,-81.2"/>
<text text-anchor="start" x="135.5" y="-88.9" font-family="Helvetica,sans-Serif" font-size="11.00" fill="#000000">bool[1]</text>
<polygon fill="none" stroke="#000000" points="10.5,-59.2 10.5,-81.2 132.5,-81.2 132.5,-59.2 10.5,-59.2"/>
<text text-anchor="start" x="30.5" y="-66.3" font-family="Helvetica,sans-Serif" font-size="11.00" fill="#000000">group_id</text>
<polygon fill="none" stroke="#000000" points="132.5,-59.2 132.5,-81.2 251.5,-81.2 251.5,-59.2 132.5,-59.2"/>
<text text-anchor="start" x="135.5" y="-66.9" font-family="Helvetica,sans-Serif" font-size="11.00" fill="#000000">int4[10]</text>
<polygon fill="#ffffff" stroke="transparent" points="10.5,-40.2 10.5,-59.2 62.5,-59.2 62.5,-40.2 10.5,-40.2"/>
<polygon fill="none" stroke="#000000" points="10.5,-40.2 10.5,-59.2 62.5,-59.2 62.5,-40.2 10.5,-40.2"/>
<text text-anchor="start" x="13.5" y="-46.3" font-family="Helvetica,sans-Serif" font-size="11.00" fill="#000000">&lt; 0</text>
<polygon fill="#ffffff" stroke="transparent" points="62.5,-40.2 62.5,-59.2 132.5,-59.2 132.5,-40.2 62.5,-40.2"/>
<polygon fill="none" stroke="#000000" points="62.5,-40.2 62.5,-59.2 132.5,-59.2 132.5,-40.2 62.5,-40.2"/>
<text text-anchor="start" x="97.1105" y="-46.3" font-family="Helvetica,sans-Serif" font-size="11.00" fill="#000000">7 rows</text>
<polygon fill="#ffffff" stroke="transparent" points="132.5,-40.2 132.5,-59.2 251.5,-59.2 251.5,-40.2 132.5,-40.2"/>
<polygon fill="none" stroke="#000000" points="132.5,-40.2 132.5,-59.2 251.5,-59.2 251.5,-40.2 132.5,-40.2"/>
<text text-anchor="start" x="232.9053" y="-46.3" font-family="Helvetica,sans-Serif" font-size="11.00" fill="#000000">1 &gt;</text>
<polygon fill="none" stroke="#000000" stroke-width="2" points="9,-39.2 9,-303.2 252,-303.2 252,-39.2 9,-39.2"/>
</a>
</g>
</g>
<!-- site&#45;&gt;espace_protege -->
<g id="edge1" class="edge">
<title>site:w&#45;&gt;espace_protege:e</title>
<path fill="none" stroke="#000000" d="M287.4203,-268.2C275.5435,-268.2 268.158,-268.2 251.5,-268.2"/>
<polygon fill="#000000" stroke="#000000" points="294,-268.2001 302,-271.8 298,-268.2 302,-268.2 302,-268.2 302,-268.2 298,-268.2 302,-264.6 294,-268.2001 294,-268.2001"/>
<ellipse fill="none" stroke="#000000" cx="290.8" cy="-268.2001" rx="3.2" ry="3.2"/>
</g>
</g>
</svg>
