<?xml version="1.0" encoding="UTF-8" standalone="no"?>
<!DOCTYPE svg PUBLIC "-//W3C//DTD SVG 1.1//EN"
 "http://www.w3.org/Graphics/SVG/1.1/DTD/svg11.dtd">
<!-- Generated by graphviz version 2.40.1 (20161225.0304)
 -->
<!-- Title: twoDegreesRelationshipsDiagramImplied Pages: 1 -->
<svg width="435pt" height="358pt"
 viewBox="0.00 0.00 435.00 357.70" xmlns="http://www.w3.org/2000/svg" xmlns:xlink="http://www.w3.org/1999/xlink">
<g id="graph0" class="graph" transform="scale(1 1) rotate(0) translate(4 353.7)">
<title>twoDegreesRelationshipsDiagramImplied</title>
<polygon fill="#ffffff" stroke="transparent" points="-4,4 -4,-353.7 431,-353.7 431,4 -4,4"/>
<text text-anchor="middle" x="72.4936" y="-7.3" font-family="Helvetica,sans-Serif" font-size="11.00" fill="#000000">Generated by SchemaSpy</text>
<!-- geography_columns -->
<g id="node1" class="node">
<title>geography_columns</title>
<g id="a_node1"><a xlink:href="../../tables/geography_columns.html" xlink:title="geography_columns" target="_top">
<polygon fill="#ffffff" stroke="transparent" points="173,-164.7 173,-345.7 419,-345.7 419,-164.7 173,-164.7"/>
<polygon fill="#f5f5f5" stroke="transparent" points="175,-320.2 175,-343.2 417,-343.2 417,-320.2 175,-320.2"/>
<polygon fill="none" stroke="#000000" points="175,-320.2 175,-343.2 417,-343.2 417,-320.2 175,-320.2"/>
<text text-anchor="start" x="180" y="-329.3" font-family="Helvetica,sans-Serif" font-weight="bold" font-size="11.00" fill="#000000">geography_columns</text>
<text text-anchor="start" x="383.8895" y="-328.3" font-family="Helvetica,sans-Serif" font-size="11.00" fill="#000000">[view]</text>
<polygon fill="none" stroke="#000000" points="175,-298.2 175,-320.2 317,-320.2 317,-298.2 175,-298.2"/>
<text text-anchor="start" x="195" y="-305.3" font-family="Helvetica,sans-Serif" font-size="11.00" fill="#000000">f_table_catalog</text>
<polygon fill="none" stroke="#000000" points="317,-298.2 317,-320.2 417,-320.2 417,-298.2 317,-298.2"/>
<text text-anchor="start" x="319.6153" y="-305.9" font-family="Helvetica,sans-Serif" font-size="11.00" fill="#000000">name[2147483647]</text>
<polygon fill="none" stroke="#000000" points="175,-276.2 175,-298.2 317,-298.2 317,-276.2 175,-276.2"/>
<text text-anchor="start" x="195" y="-283.3" font-family="Helvetica,sans-Serif" font-size="11.00" fill="#000000">f_table_schema</text>
<polygon fill="none" stroke="#000000" points="317,-276.2 317,-298.2 417,-298.2 417,-276.2 317,-276.2"/>
<text text-anchor="start" x="319.6153" y="-283.9" font-family="Helvetica,sans-Serif" font-size="11.00" fill="#000000">name[2147483647]</text>
<polygon fill="none" stroke="#000000" points="175,-254.2 175,-276.2 317,-276.2 317,-254.2 175,-254.2"/>
<text text-anchor="start" x="195" y="-261.3" font-family="Helvetica,sans-Serif" font-size="11.00" fill="#000000">f_table_name</text>
<polygon fill="none" stroke="#000000" points="317,-254.2 317,-276.2 417,-276.2 417,-254.2 317,-254.2"/>
<text text-anchor="start" x="319.6153" y="-261.9" font-family="Helvetica,sans-Serif" font-size="11.00" fill="#000000">name[2147483647]</text>
<polygon fill="none" stroke="#000000" points="175,-232.2 175,-254.2 317,-254.2 317,-232.2 175,-232.2"/>
<text text-anchor="start" x="195" y="-239.3" font-family="Helvetica,sans-Serif" font-size="11.00" fill="#000000">f_geography_column</text>
<polygon fill="none" stroke="#000000" points="317,-232.2 317,-254.2 417,-254.2 417,-232.2 317,-232.2"/>
<text text-anchor="start" x="319.6153" y="-239.9" font-family="Helvetica,sans-Serif" font-size="11.00" fill="#000000">name[2147483647]</text>
<polygon fill="none" stroke="#000000" points="175,-210.2 175,-232.2 317,-232.2 317,-210.2 175,-210.2"/>
<text text-anchor="start" x="195" y="-217.3" font-family="Helvetica,sans-Serif" font-size="11.00" fill="#000000">coord_dimension</text>
<polygon fill="none" stroke="#000000" points="317,-210.2 317,-232.2 417,-232.2 417,-210.2 317,-210.2"/>
<text text-anchor="start" x="320" y="-217.9" font-family="Helvetica,sans-Serif" font-size="11.00" fill="#000000">int4[10]</text>
<polygon fill="none" stroke="#000000" points="175,-188.2 175,-210.2 317,-210.2 317,-188.2 175,-188.2"/>
<image xlink:href="../../images/foreignKeys.png" width="11px" height="12px" preserveAspectRatio="xMinYMin meet" x="180" y="-205.2"/>
<text text-anchor="start" x="195" y="-195.3" font-family="Helvetica,sans-Serif" font-size="11.00" fill="#000000">srid</text>
<polygon fill="none" stroke="#000000" points="317,-188.2 317,-210.2 417,-210.2 417,-188.2 317,-188.2"/>
<text text-anchor="start" x="320" y="-195.9" font-family="Helvetica,sans-Serif" font-size="11.00" fill="#000000">int4[10]</text>
<polygon fill="none" stroke="#000000" points="175,-166.2 175,-188.2 317,-188.2 317,-166.2 175,-166.2"/>
<text text-anchor="start" x="195" y="-173.3" font-family="Helvetica,sans-Serif" font-size="11.00" fill="#000000">type</text>
<polygon fill="none" stroke="#000000" points="317,-166.2 317,-188.2 417,-188.2 417,-166.2 317,-166.2"/>
<text text-anchor="start" x="320" y="-173.9" font-family="Helvetica,sans-Serif" font-size="11.00" fill="#000000">text[2147483647]</text>
<polygon fill="none" stroke="#000000" stroke-width="2" points="174,-165.7 174,-344.7 418,-344.7 418,-165.7 174,-165.7"/>
</a>
</g>
</g>
<!-- spatial_ref_sys -->
<g id="node2" class="node">
<title>spatial_ref_sys</title>
<g id="a_node2"><a xlink:href="../../tables/spatial_ref_sys.html" xlink:title="spatial_ref_sys" target="_top">
<polygon fill="#ffffff" stroke="transparent" points="8,-61.7 8,-144.7 124,-144.7 124,-61.7 8,-61.7"/>
<polygon fill="#f5f5f5" stroke="transparent" points="8,-121.2 8,-144.2 124,-144.2 124,-121.2 8,-121.2"/>
<polygon fill="none" stroke="#000000" points="8,-121.2 8,-144.2 124,-144.2 124,-121.2 8,-121.2"/>
<text text-anchor="start" x="12.8266" y="-130.3" font-family="Helvetica,sans-Serif" font-weight="bold" font-size="11.00" fill="#000000">spatial_ref_sys</text>
<text text-anchor="start" x="89.5219" y="-129.3" font-family="Helvetica,sans-Serif" font-size="11.00" fill="#000000">[table]</text>
<polygon fill="none" stroke="#000000" points="8,-99.2 8,-121.2 124,-121.2 124,-99.2 8,-99.2"/>
<image xlink:href="../../images/primaryKeys.png" width="11px" height="12px" preserveAspectRatio="xMinYMin meet" x="13" y="-116.2"/>
<text text-anchor="start" x="33" y="-106.3" font-family="Helvetica,sans-Serif" font-size="11.00" fill="#000000">srid</text>
<polygon fill="none" stroke="#000000" points="8,-80.2 8,-99.2 124,-99.2 124,-80.2 8,-80.2"/>
<text text-anchor="start" x="11" y="-86.3" font-family="Helvetica,sans-Serif" font-size="11.00" fill="#000000">...</text>
<polygon fill="#ffffff" stroke="transparent" points="8,-61.2 8,-80.2 30,-80.2 30,-61.2 8,-61.2"/>
<polygon fill="none" stroke="#000000" points="8,-61.2 8,-80.2 30,-80.2 30,-61.2 8,-61.2"/>
<text text-anchor="start" x="11" y="-67.3" font-family="Helvetica,sans-Serif" font-size="11.00" fill="#000000"> &#160;</text>
<polygon fill="#ffffff" stroke="transparent" points="30,-61.2 30,-80.2 98,-80.2 98,-61.2 30,-61.2"/>
<polygon fill="none" stroke="#000000" points="30,-61.2 30,-80.2 98,-80.2 98,-61.2 30,-61.2"/>
<text text-anchor="start" x="37.547" y="-67.3" font-family="Helvetica,sans-Serif" font-size="11.00" fill="#000000">5 536 rows</text>
<polygon fill="#ffffff" stroke="transparent" points="98,-61.2 98,-80.2 124,-80.2 124,-61.2 98,-61.2"/>
<polygon fill="none" stroke="#000000" points="98,-61.2 98,-80.2 124,-80.2 124,-61.2 98,-61.2"/>
<text text-anchor="start" x="105.4053" y="-67.3" font-family="Helvetica,sans-Serif" font-size="11.00" fill="#000000">3 &gt;</text>
</a>
</g>
</g>
<!-- geography_columns&#45;&gt;spatial_ref_sys -->
<g id="edge1" class="edge">
<title>geography_columns:w&#45;&gt;spatial_ref_sys:e</title>
<path fill="none" stroke="#000000" stroke-dasharray="5,2" d="M160.9722,-194.9073C138.5701,-177.1293 163.5348,-110.2 124,-110.2"/>
<polygon fill="#000000" stroke="#000000" points="167.3502,-196.859 173.9466,-202.6424 171.1751,-198.0295 175,-199.2 175,-199.2 175,-199.2 171.1751,-198.0295 176.0534,-195.7576 167.3502,-196.859 167.3502,-196.859"/>
<ellipse fill="none" stroke="#000000" cx="164.2902" cy="-195.9226" rx="3.2" ry="3.2"/>
</g>
<!-- geometry_columns -->
<g id="node3" class="node">
<title>geometry_columns</title>
<g id="a_node3"><a xlink:href="../../tables/geometry_columns.html" xlink:title="geometry_columns" target="_top">
<polygon fill="#ffffff" stroke="transparent" points="229,-101.2 229,-143.2 363,-143.2 363,-101.2 229,-101.2"/>
<polygon fill="#f5f5f5" stroke="transparent" points="229,-120.2 229,-143.2 363,-143.2 363,-120.2 229,-120.2"/>
<polygon fill="none" stroke="#000000" points="229,-120.2 229,-143.2 363,-143.2 363,-120.2 229,-120.2"/>
<text text-anchor="start" x="233.5487" y="-129.3" font-family="Helvetica,sans-Serif" font-weight="bold" font-size="11.00" fill="#000000">geometry_columns</text>
<text text-anchor="start" x="329.9448" y="-128.3" font-family="Helvetica,sans-Serif" font-size="11.00" fill="#000000">[view]</text>
<polygon fill="none" stroke="#000000" points="229,-101.2 229,-120.2 363,-120.2 363,-101.2 229,-101.2"/>
<text text-anchor="start" x="232" y="-107.3" font-family="Helvetica,sans-Serif" font-size="11.00" fill="#000000">...</text>
</a>
</g>
</g>
<!-- geometry_columns&#45;&gt;spatial_ref_sys -->
<g id="edge2" class="edge">
<title>geometry_columns:w&#45;&gt;spatial_ref_sys:e</title>
<path fill="none" stroke="#000000" stroke-dasharray="5,2" d="M214.3863,-110.2C179.241,-110.2 165.3802,-110.2 124,-110.2"/>
<polygon fill="#000000" stroke="#000000" points="221,-110.2001 229,-113.8 225,-110.2 229,-110.2 229,-110.2 229,-110.2 225,-110.2 229,-106.6 221,-110.2001 221,-110.2001"/>
<ellipse fill="none" stroke="#000000" cx="217.8" cy="-110.2001" rx="3.2" ry="3.2"/>
</g>
<!-- raster_columns -->
<g id="node4" class="node">
<title>raster_columns</title>
<g id="a_node4"><a xlink:href="../../tables/raster_columns.html" xlink:title="raster_columns" target="_top">
<polygon fill="#ffffff" stroke="transparent" points="237.5,-38.2 237.5,-80.2 354.5,-80.2 354.5,-38.2 237.5,-38.2"/>
<polygon fill="#f5f5f5" stroke="transparent" points="238,-57.2 238,-80.2 355,-80.2 355,-57.2 238,-57.2"/>
<polygon fill="none" stroke="#000000" points="238,-57.2 238,-80.2 355,-80.2 355,-57.2 238,-57.2"/>
<text text-anchor="start" x="242.9136" y="-66.3" font-family="Helvetica,sans-Serif" font-weight="bold" font-size="11.00" fill="#000000">raster_columns</text>
<text text-anchor="start" x="321.9448" y="-65.3" font-family="Helvetica,sans-Serif" font-size="11.00" fill="#000000">[view]</text>
<polygon fill="none" stroke="#000000" points="238,-38.2 238,-57.2 355,-57.2 355,-38.2 238,-38.2"/>
<text text-anchor="start" x="241" y="-44.3" font-family="Helvetica,sans-Serif" font-size="11.00" fill="#000000">...</text>
</a>
</g>
</g>
<!-- raster_columns&#45;&gt;spatial_ref_sys -->
<g id="edge3" class="edge">
<title>raster_columns:w&#45;&gt;spatial_ref_sys:e</title>
<path fill="none" stroke="#000000" stroke-dasharray="5,2" d="M223.9114,-50.7677C193.4035,-64.0949 148.761,-110.2 124,-110.2"/>
<polygon fill="#000000" stroke="#000000" points="230.2448,-49.1639 238.8838,-50.6898 234.1224,-48.182 238,-47.2 238,-47.2 238,-47.2 234.1224,-48.182 237.1162,-43.7102 230.2448,-49.1639 230.2448,-49.1639"/>
<ellipse fill="none" stroke="#000000" cx="227.1427" cy="-49.9495" rx="3.2" ry="3.2"/>
</g>
</g>
</svg>
