<?xml version="1.0" encoding="UTF-8" standalone="no"?>
<!DOCTYPE svg PUBLIC "-//W3C//DTD SVG 1.1//EN"
 "http://www.w3.org/Graphics/SVG/1.1/DTD/svg11.dtd">
<!-- Generated by graphviz version 2.40.1 (20161225.0304)
 -->
<!-- Title: oneDegreeRelationshipsDiagram Pages: 1 -->
<svg width="270pt" height="231pt"
 viewBox="0.00 0.00 270.00 231.20" xmlns="http://www.w3.org/2000/svg" xmlns:xlink="http://www.w3.org/1999/xlink">
<g id="graph0" class="graph" transform="scale(1 1) rotate(0) translate(4 227.2)">
<title>oneDegreeRelationshipsDiagram</title>
<polygon fill="#ffffff" stroke="transparent" points="-4,4 -4,-227.2 266,-227.2 266,4 -4,4"/>
<text text-anchor="middle" x="72.4936" y="-7.3" font-family="Helvetica,sans-Serif" font-size="11.00" fill="#000000">Generated by SchemaSpy</text>
<!-- geography_columns -->
<g id="node1" class="node">
<title>geography_columns</title>
<g id="a_node1"><a xlink:href="../../tables/geography_columns.html" xlink:title="geography_columns" target="_top">
<polygon fill="#ffffff" stroke="transparent" points="8,-38.2 8,-219.2 254,-219.2 254,-38.2 8,-38.2"/>
<polygon fill="#f5f5f5" stroke="transparent" points="10,-193.7 10,-216.7 252,-216.7 252,-193.7 10,-193.7"/>
<polygon fill="none" stroke="#000000" points="10,-193.7 10,-216.7 252,-216.7 252,-193.7 10,-193.7"/>
<text text-anchor="start" x="15" y="-202.8" font-family="Helvetica,sans-Serif" font-weight="bold" font-size="11.00" fill="#000000">geography_columns</text>
<text text-anchor="start" x="218.8895" y="-201.8" font-family="Helvetica,sans-Serif" font-size="11.00" fill="#000000">[view]</text>
<polygon fill="none" stroke="#000000" points="10,-171.7 10,-193.7 152,-193.7 152,-171.7 10,-171.7"/>
<text text-anchor="start" x="30" y="-178.8" font-family="Helvetica,sans-Serif" font-size="11.00" fill="#000000">f_table_catalog</text>
<polygon fill="none" stroke="#000000" points="152,-171.7 152,-193.7 252,-193.7 252,-171.7 152,-171.7"/>
<text text-anchor="start" x="154.6153" y="-179.4" font-family="Helvetica,sans-Serif" font-size="11.00" fill="#000000">name[2147483647]</text>
<polygon fill="none" stroke="#000000" points="10,-149.7 10,-171.7 152,-171.7 152,-149.7 10,-149.7"/>
<text text-anchor="start" x="30" y="-156.8" font-family="Helvetica,sans-Serif" font-size="11.00" fill="#000000">f_table_schema</text>
<polygon fill="none" stroke="#000000" points="152,-149.7 152,-171.7 252,-171.7 252,-149.7 152,-149.7"/>
<text text-anchor="start" x="154.6153" y="-157.4" font-family="Helvetica,sans-Serif" font-size="11.00" fill="#000000">name[2147483647]</text>
<polygon fill="none" stroke="#000000" points="10,-127.7 10,-149.7 152,-149.7 152,-127.7 10,-127.7"/>
<text text-anchor="start" x="30" y="-134.8" font-family="Helvetica,sans-Serif" font-size="11.00" fill="#000000">f_table_name</text>
<polygon fill="none" stroke="#000000" points="152,-127.7 152,-149.7 252,-149.7 252,-127.7 152,-127.7"/>
<text text-anchor="start" x="154.6153" y="-135.4" font-family="Helvetica,sans-Serif" font-size="11.00" fill="#000000">name[2147483647]</text>
<polygon fill="none" stroke="#000000" points="10,-105.7 10,-127.7 152,-127.7 152,-105.7 10,-105.7"/>
<text text-anchor="start" x="30" y="-112.8" font-family="Helvetica,sans-Serif" font-size="11.00" fill="#000000">f_geography_column</text>
<polygon fill="none" stroke="#000000" points="152,-105.7 152,-127.7 252,-127.7 252,-105.7 152,-105.7"/>
<text text-anchor="start" x="154.6153" y="-113.4" font-family="Helvetica,sans-Serif" font-size="11.00" fill="#000000">name[2147483647]</text>
<polygon fill="none" stroke="#000000" points="10,-83.7 10,-105.7 152,-105.7 152,-83.7 10,-83.7"/>
<text text-anchor="start" x="30" y="-90.8" font-family="Helvetica,sans-Serif" font-size="11.00" fill="#000000">coord_dimension</text>
<polygon fill="none" stroke="#000000" points="152,-83.7 152,-105.7 252,-105.7 252,-83.7 152,-83.7"/>
<text text-anchor="start" x="155" y="-91.4" font-family="Helvetica,sans-Serif" font-size="11.00" fill="#000000">int4[10]</text>
<polygon fill="none" stroke="#000000" points="10,-61.7 10,-83.7 152,-83.7 152,-61.7 10,-61.7"/>
<image xlink:href="../../images/foreignKeys.png" width="11px" height="12px" preserveAspectRatio="xMinYMin meet" x="15" y="-78.7"/>
<text text-anchor="start" x="30" y="-68.8" font-family="Helvetica,sans-Serif" font-size="11.00" fill="#000000">srid</text>
<polygon fill="none" stroke="#000000" points="152,-61.7 152,-83.7 252,-83.7 252,-61.7 152,-61.7"/>
<text text-anchor="start" x="155" y="-69.4" font-family="Helvetica,sans-Serif" font-size="11.00" fill="#000000">int4[10]</text>
<polygon fill="none" stroke="#000000" points="10,-39.7 10,-61.7 152,-61.7 152,-39.7 10,-39.7"/>
<text text-anchor="start" x="30" y="-46.8" font-family="Helvetica,sans-Serif" font-size="11.00" fill="#000000">type</text>
<polygon fill="none" stroke="#000000" points="152,-39.7 152,-61.7 252,-61.7 252,-39.7 152,-39.7"/>
<text text-anchor="start" x="155" y="-47.4" font-family="Helvetica,sans-Serif" font-size="11.00" fill="#000000">text[2147483647]</text>
<polygon fill="none" stroke="#000000" stroke-width="2" points="9,-39.2 9,-218.2 253,-218.2 253,-39.2 9,-39.2"/>
</a>
</g>
</g>
</g>
</svg>
