<?xml version="1.0" encoding="UTF-8" standalone="no"?>
<!DOCTYPE svg PUBLIC "-//W3C//DTD SVG 1.1//EN"
 "http://www.w3.org/Graphics/SVG/1.1/DTD/svg11.dtd">
<!-- Generated by graphviz version 2.40.1 (20161225.0304)
 -->
<!-- Title: oneDegreeRelationshipsDiagramImplied Pages: 1 -->
<svg width="435pt" height="245pt"
 viewBox="0.00 0.00 435.00 245.20" xmlns="http://www.w3.org/2000/svg" xmlns:xlink="http://www.w3.org/1999/xlink">
<g id="graph0" class="graph" transform="scale(1 1) rotate(0) translate(4 241.2)">
<title>oneDegreeRelationshipsDiagramImplied</title>
<polygon fill="#ffffff" stroke="transparent" points="-4,4 -4,-241.2 431,-241.2 431,4 -4,4"/>
<text text-anchor="middle" x="72.4936" y="-7.3" font-family="Helvetica,sans-Serif" font-size="11.00" fill="#000000">Generated by SchemaSpy</text>
<!-- geography_columns -->
<g id="node1" class="node">
<title>geography_columns</title>
<g id="a_node1"><a xlink:href="../../tables/geography_columns.html" xlink:title="geography_columns" target="_top">
<polygon fill="#ffffff" stroke="transparent" points="173,-52.2 173,-233.2 419,-233.2 419,-52.2 173,-52.2"/>
<polygon fill="#f5f5f5" stroke="transparent" points="175,-207.7 175,-230.7 417,-230.7 417,-207.7 175,-207.7"/>
<polygon fill="none" stroke="#000000" points="175,-207.7 175,-230.7 417,-230.7 417,-207.7 175,-207.7"/>
<text text-anchor="start" x="180" y="-216.8" font-family="Helvetica,sans-Serif" font-weight="bold" font-size="11.00" fill="#000000">geography_columns</text>
<text text-anchor="start" x="383.8895" y="-215.8" font-family="Helvetica,sans-Serif" font-size="11.00" fill="#000000">[view]</text>
<polygon fill="none" stroke="#000000" points="175,-185.7 175,-207.7 317,-207.7 317,-185.7 175,-185.7"/>
<text text-anchor="start" x="195" y="-192.8" font-family="Helvetica,sans-Serif" font-size="11.00" fill="#000000">f_table_catalog</text>
<polygon fill="none" stroke="#000000" points="317,-185.7 317,-207.7 417,-207.7 417,-185.7 317,-185.7"/>
<text text-anchor="start" x="319.6153" y="-193.4" font-family="Helvetica,sans-Serif" font-size="11.00" fill="#000000">name[2147483647]</text>
<polygon fill="none" stroke="#000000" points="175,-163.7 175,-185.7 317,-185.7 317,-163.7 175,-163.7"/>
<text text-anchor="start" x="195" y="-170.8" font-family="Helvetica,sans-Serif" font-size="11.00" fill="#000000">f_table_schema</text>
<polygon fill="none" stroke="#000000" points="317,-163.7 317,-185.7 417,-185.7 417,-163.7 317,-163.7"/>
<text text-anchor="start" x="319.6153" y="-171.4" font-family="Helvetica,sans-Serif" font-size="11.00" fill="#000000">name[2147483647]</text>
<polygon fill="none" stroke="#000000" points="175,-141.7 175,-163.7 317,-163.7 317,-141.7 175,-141.7"/>
<text text-anchor="start" x="195" y="-148.8" font-family="Helvetica,sans-Serif" font-size="11.00" fill="#000000">f_table_name</text>
<polygon fill="none" stroke="#000000" points="317,-141.7 317,-163.7 417,-163.7 417,-141.7 317,-141.7"/>
<text text-anchor="start" x="319.6153" y="-149.4" font-family="Helvetica,sans-Serif" font-size="11.00" fill="#000000">name[2147483647]</text>
<polygon fill="none" stroke="#000000" points="175,-119.7 175,-141.7 317,-141.7 317,-119.7 175,-119.7"/>
<text text-anchor="start" x="195" y="-126.8" font-family="Helvetica,sans-Serif" font-size="11.00" fill="#000000">f_geography_column</text>
<polygon fill="none" stroke="#000000" points="317,-119.7 317,-141.7 417,-141.7 417,-119.7 317,-119.7"/>
<text text-anchor="start" x="319.6153" y="-127.4" font-family="Helvetica,sans-Serif" font-size="11.00" fill="#000000">name[2147483647]</text>
<polygon fill="none" stroke="#000000" points="175,-97.7 175,-119.7 317,-119.7 317,-97.7 175,-97.7"/>
<text text-anchor="start" x="195" y="-104.8" font-family="Helvetica,sans-Serif" font-size="11.00" fill="#000000">coord_dimension</text>
<polygon fill="none" stroke="#000000" points="317,-97.7 317,-119.7 417,-119.7 417,-97.7 317,-97.7"/>
<text text-anchor="start" x="320" y="-105.4" font-family="Helvetica,sans-Serif" font-size="11.00" fill="#000000">int4[10]</text>
<polygon fill="none" stroke="#000000" points="175,-75.7 175,-97.7 317,-97.7 317,-75.7 175,-75.7"/>
<image xlink:href="../../images/foreignKeys.png" width="11px" height="12px" preserveAspectRatio="xMinYMin meet" x="180" y="-92.7"/>
<text text-anchor="start" x="195" y="-82.8" font-family="Helvetica,sans-Serif" font-size="11.00" fill="#000000">srid</text>
<polygon fill="none" stroke="#000000" points="317,-75.7 317,-97.7 417,-97.7 417,-75.7 317,-75.7"/>
<text text-anchor="start" x="320" y="-83.4" font-family="Helvetica,sans-Serif" font-size="11.00" fill="#000000">int4[10]</text>
<polygon fill="none" stroke="#000000" points="175,-53.7 175,-75.7 317,-75.7 317,-53.7 175,-53.7"/>
<text text-anchor="start" x="195" y="-60.8" font-family="Helvetica,sans-Serif" font-size="11.00" fill="#000000">type</text>
<polygon fill="none" stroke="#000000" points="317,-53.7 317,-75.7 417,-75.7 417,-53.7 317,-53.7"/>
<text text-anchor="start" x="320" y="-61.4" font-family="Helvetica,sans-Serif" font-size="11.00" fill="#000000">text[2147483647]</text>
<polygon fill="none" stroke="#000000" stroke-width="2" points="174,-53.2 174,-232.2 418,-232.2 418,-53.2 174,-53.2"/>
</a>
</g>
</g>
<!-- spatial_ref_sys -->
<g id="node2" class="node">
<title>spatial_ref_sys</title>
<g id="a_node2"><a xlink:href="../../tables/spatial_ref_sys.html" xlink:title="spatial_ref_sys" target="_top">
<polygon fill="#ffffff" stroke="transparent" points="8,-38.2 8,-121.2 124,-121.2 124,-38.2 8,-38.2"/>
<polygon fill="#f5f5f5" stroke="transparent" points="8,-97.7 8,-120.7 124,-120.7 124,-97.7 8,-97.7"/>
<polygon fill="none" stroke="#000000" points="8,-97.7 8,-120.7 124,-120.7 124,-97.7 8,-97.7"/>
<text text-anchor="start" x="12.8266" y="-106.8" font-family="Helvetica,sans-Serif" font-weight="bold" font-size="11.00" fill="#000000">spatial_ref_sys</text>
<text text-anchor="start" x="89.5219" y="-105.8" font-family="Helvetica,sans-Serif" font-size="11.00" fill="#000000">[table]</text>
<polygon fill="none" stroke="#000000" points="8,-75.7 8,-97.7 124,-97.7 124,-75.7 8,-75.7"/>
<image xlink:href="../../images/primaryKeys.png" width="11px" height="12px" preserveAspectRatio="xMinYMin meet" x="13" y="-92.7"/>
<text text-anchor="start" x="33" y="-82.8" font-family="Helvetica,sans-Serif" font-size="11.00" fill="#000000">srid</text>
<polygon fill="none" stroke="#000000" points="8,-56.7 8,-75.7 124,-75.7 124,-56.7 8,-56.7"/>
<text text-anchor="start" x="11" y="-62.8" font-family="Helvetica,sans-Serif" font-size="11.00" fill="#000000">...</text>
<polygon fill="#ffffff" stroke="transparent" points="8,-37.7 8,-56.7 30,-56.7 30,-37.7 8,-37.7"/>
<polygon fill="none" stroke="#000000" points="8,-37.7 8,-56.7 30,-56.7 30,-37.7 8,-37.7"/>
<text text-anchor="start" x="11" y="-43.8" font-family="Helvetica,sans-Serif" font-size="11.00" fill="#000000"> &#160;</text>
<polygon fill="#ffffff" stroke="transparent" points="30,-37.7 30,-56.7 98,-56.7 98,-37.7 30,-37.7"/>
<polygon fill="none" stroke="#000000" points="30,-37.7 30,-56.7 98,-56.7 98,-37.7 30,-37.7"/>
<text text-anchor="start" x="37.547" y="-43.8" font-family="Helvetica,sans-Serif" font-size="11.00" fill="#000000">5 536 rows</text>
<polygon fill="#ffffff" stroke="transparent" points="98,-37.7 98,-56.7 124,-56.7 124,-37.7 98,-37.7"/>
<polygon fill="none" stroke="#000000" points="98,-37.7 98,-56.7 124,-56.7 124,-37.7 98,-37.7"/>
<text text-anchor="start" x="105.4053" y="-43.8" font-family="Helvetica,sans-Serif" font-size="11.00" fill="#000000">3 &gt;</text>
</a>
</g>
</g>
<!-- geography_columns&#45;&gt;spatial_ref_sys -->
<g id="edge1" class="edge">
<title>geography_columns:w&#45;&gt;spatial_ref_sys:e</title>
<path fill="none" stroke="#000000" stroke-dasharray="5,2" d="M160.276,-86.7C148.2815,-86.7 140.8229,-86.7 124,-86.7"/>
<polygon fill="#000000" stroke="#000000" points="167,-86.7001 175,-90.3 171,-86.7 175,-86.7 175,-86.7 175,-86.7 171,-86.7 175,-83.1 167,-86.7001 167,-86.7001"/>
<ellipse fill="none" stroke="#000000" cx="163.8" cy="-86.7001" rx="3.2" ry="3.2"/>
</g>
</g>
</svg>
