<?xml version="1.0" encoding="UTF-8" standalone="no"?>
<!DOCTYPE svg PUBLIC "-//W3C//DTD SVG 1.1//EN"
 "http://www.w3.org/Graphics/SVG/1.1/DTD/svg11.dtd">
<!-- Generated by graphviz version 2.40.1 (20161225.0304)
 -->
<!-- Title: twoDegreesRelationshipsDiagramImplied Pages: 1 -->
<svg width="428pt" height="358pt"
 viewBox="0.00 0.00 428.00 358.20" xmlns="http://www.w3.org/2000/svg" xmlns:xlink="http://www.w3.org/1999/xlink">
<g id="graph0" class="graph" transform="scale(1 1) rotate(0) translate(4 354.2)">
<title>twoDegreesRelationshipsDiagramImplied</title>
<polygon fill="#ffffff" stroke="transparent" points="-4,4 -4,-354.2 424,-354.2 424,4 -4,4"/>
<text text-anchor="middle" x="72.4936" y="-7.3" font-family="Helvetica,sans-Serif" font-size="11.00" fill="#000000">Generated by SchemaSpy</text>
<!-- geography_columns -->
<g id="node1" class="node">
<title>geography_columns</title>
<g id="a_node1"><a xlink:href="../../tables/geography_columns.html" xlink:title="geography_columns" target="_top">
<polygon fill="#ffffff" stroke="transparent" points="222,-304.2 222,-346.2 363,-346.2 363,-304.2 222,-304.2"/>
<polygon fill="#f5f5f5" stroke="transparent" points="222.5,-323.2 222.5,-346.2 363.5,-346.2 363.5,-323.2 222.5,-323.2"/>
<polygon fill="none" stroke="#000000" points="222.5,-323.2 222.5,-346.2 363.5,-346.2 363.5,-323.2 222.5,-323.2"/>
<text text-anchor="start" x="227.4857" y="-332.3" font-family="Helvetica,sans-Serif" font-weight="bold" font-size="11.00" fill="#000000">geography_columns</text>
<text text-anchor="start" x="330.4448" y="-331.3" font-family="Helvetica,sans-Serif" font-size="11.00" fill="#000000">[view]</text>
<polygon fill="none" stroke="#000000" points="222.5,-304.2 222.5,-323.2 363.5,-323.2 363.5,-304.2 222.5,-304.2"/>
<text text-anchor="start" x="225.5" y="-310.3" font-family="Helvetica,sans-Serif" font-size="11.00" fill="#000000">...</text>
</a>
</g>
</g>
<!-- spatial_ref_sys -->
<g id="node2" class="node">
<title>spatial_ref_sys</title>
<g id="a_node2"><a xlink:href="../../tables/spatial_ref_sys.html" xlink:title="spatial_ref_sys" target="_top">
<polygon fill="#ffffff" stroke="transparent" points="8,-87.7 8,-170.7 124,-170.7 124,-87.7 8,-87.7"/>
<polygon fill="#f5f5f5" stroke="transparent" points="8,-147.2 8,-170.2 124,-170.2 124,-147.2 8,-147.2"/>
<polygon fill="none" stroke="#000000" points="8,-147.2 8,-170.2 124,-170.2 124,-147.2 8,-147.2"/>
<text text-anchor="start" x="12.8266" y="-156.3" font-family="Helvetica,sans-Serif" font-weight="bold" font-size="11.00" fill="#000000">spatial_ref_sys</text>
<text text-anchor="start" x="89.5219" y="-155.3" font-family="Helvetica,sans-Serif" font-size="11.00" fill="#000000">[table]</text>
<polygon fill="none" stroke="#000000" points="8,-125.2 8,-147.2 124,-147.2 124,-125.2 8,-125.2"/>
<image xlink:href="../../images/primaryKeys.png" width="11px" height="12px" preserveAspectRatio="xMinYMin meet" x="13" y="-142.2"/>
<text text-anchor="start" x="33" y="-132.3" font-family="Helvetica,sans-Serif" font-size="11.00" fill="#000000">srid</text>
<polygon fill="none" stroke="#000000" points="8,-106.2 8,-125.2 124,-125.2 124,-106.2 8,-106.2"/>
<text text-anchor="start" x="11" y="-112.3" font-family="Helvetica,sans-Serif" font-size="11.00" fill="#000000">...</text>
<polygon fill="#ffffff" stroke="transparent" points="8,-87.2 8,-106.2 30,-106.2 30,-87.2 8,-87.2"/>
<polygon fill="none" stroke="#000000" points="8,-87.2 8,-106.2 30,-106.2 30,-87.2 8,-87.2"/>
<text text-anchor="start" x="11" y="-93.3" font-family="Helvetica,sans-Serif" font-size="11.00" fill="#000000"> &#160;</text>
<polygon fill="#ffffff" stroke="transparent" points="30,-87.2 30,-106.2 98,-106.2 98,-87.2 30,-87.2"/>
<polygon fill="none" stroke="#000000" points="30,-87.2 30,-106.2 98,-106.2 98,-87.2 30,-87.2"/>
<text text-anchor="start" x="37.547" y="-93.3" font-family="Helvetica,sans-Serif" font-size="11.00" fill="#000000">5 536 rows</text>
<polygon fill="#ffffff" stroke="transparent" points="98,-87.2 98,-106.2 124,-106.2 124,-87.2 98,-87.2"/>
<polygon fill="none" stroke="#000000" points="98,-87.2 98,-106.2 124,-106.2 124,-87.2 98,-87.2"/>
<text text-anchor="start" x="105.4053" y="-93.3" font-family="Helvetica,sans-Serif" font-size="11.00" fill="#000000">3 &gt;</text>
</a>
</g>
</g>
<!-- geography_columns&#45;&gt;spatial_ref_sys -->
<g id="edge1" class="edge">
<title>geography_columns:w&#45;&gt;spatial_ref_sys:e</title>
<path fill="none" stroke="#000000" stroke-dasharray="5,2" d="M207.9438,-313.03C190.379,-312.3666 179.7016,-309.1161 165,-293.2 116.0663,-240.2237 196.1179,-136.2 124,-136.2"/>
<polygon fill="#000000" stroke="#000000" points="214.5005,-313.1065 222.4579,-316.7998 218.5003,-313.1533 222.5,-313.2 222.5,-313.2 222.5,-313.2 218.5003,-313.1533 222.5421,-309.6002 214.5005,-313.1065 214.5005,-313.1065"/>
<ellipse fill="none" stroke="#000000" cx="211.3008" cy="-313.0691" rx="3.2" ry="3.2"/>
</g>
<!-- geometry_columns -->
<g id="node3" class="node">
<title>geometry_columns</title>
<g id="a_node3"><a xlink:href="../../tables/geometry_columns.html" xlink:title="geometry_columns" target="_top">
<polygon fill="#ffffff" stroke="transparent" points="173,-101.7 173,-282.7 412,-282.7 412,-101.7 173,-101.7"/>
<polygon fill="#f5f5f5" stroke="transparent" points="175.5,-257.2 175.5,-280.2 410.5,-280.2 410.5,-257.2 175.5,-257.2"/>
<polygon fill="none" stroke="#000000" points="175.5,-257.2 175.5,-280.2 410.5,-280.2 410.5,-257.2 175.5,-257.2"/>
<text text-anchor="start" x="180.5" y="-266.3" font-family="Helvetica,sans-Serif" font-weight="bold" font-size="11.00" fill="#000000">geometry_columns</text>
<text text-anchor="start" x="377.3895" y="-265.3" font-family="Helvetica,sans-Serif" font-size="11.00" fill="#000000">[view]</text>
<polygon fill="none" stroke="#000000" points="175.5,-235.2 175.5,-257.2 310.5,-257.2 310.5,-235.2 175.5,-235.2"/>
<text text-anchor="start" x="195.5" y="-242.3" font-family="Helvetica,sans-Serif" font-size="11.00" fill="#000000">f_table_catalog</text>
<polygon fill="none" stroke="#000000" points="310.5,-235.2 310.5,-257.2 410.5,-257.2 410.5,-235.2 310.5,-235.2"/>
<text text-anchor="start" x="313.5" y="-242.9" font-family="Helvetica,sans-Serif" font-size="11.00" fill="#000000">varchar[256]</text>
<polygon fill="none" stroke="#000000" points="175.5,-213.2 175.5,-235.2 310.5,-235.2 310.5,-213.2 175.5,-213.2"/>
<text text-anchor="start" x="195.5" y="-220.3" font-family="Helvetica,sans-Serif" font-size="11.00" fill="#000000">f_table_schema</text>
<polygon fill="none" stroke="#000000" points="310.5,-213.2 310.5,-235.2 410.5,-235.2 410.5,-213.2 310.5,-213.2"/>
<text text-anchor="start" x="313.1153" y="-220.9" font-family="Helvetica,sans-Serif" font-size="11.00" fill="#000000">name[2147483647]</text>
<polygon fill="none" stroke="#000000" points="175.5,-191.2 175.5,-213.2 310.5,-213.2 310.5,-191.2 175.5,-191.2"/>
<text text-anchor="start" x="195.5" y="-198.3" font-family="Helvetica,sans-Serif" font-size="11.00" fill="#000000">f_table_name</text>
<polygon fill="none" stroke="#000000" points="310.5,-191.2 310.5,-213.2 410.5,-213.2 410.5,-191.2 310.5,-191.2"/>
<text text-anchor="start" x="313.1153" y="-198.9" font-family="Helvetica,sans-Serif" font-size="11.00" fill="#000000">name[2147483647]</text>
<polygon fill="none" stroke="#000000" points="175.5,-169.2 175.5,-191.2 310.5,-191.2 310.5,-169.2 175.5,-169.2"/>
<text text-anchor="start" x="195.5" y="-176.3" font-family="Helvetica,sans-Serif" font-size="11.00" fill="#000000">f_geometry_column</text>
<polygon fill="none" stroke="#000000" points="310.5,-169.2 310.5,-191.2 410.5,-191.2 410.5,-169.2 310.5,-169.2"/>
<text text-anchor="start" x="313.1153" y="-176.9" font-family="Helvetica,sans-Serif" font-size="11.00" fill="#000000">name[2147483647]</text>
<polygon fill="none" stroke="#000000" points="175.5,-147.2 175.5,-169.2 310.5,-169.2 310.5,-147.2 175.5,-147.2"/>
<text text-anchor="start" x="195.5" y="-154.3" font-family="Helvetica,sans-Serif" font-size="11.00" fill="#000000">coord_dimension</text>
<polygon fill="none" stroke="#000000" points="310.5,-147.2 310.5,-169.2 410.5,-169.2 410.5,-147.2 310.5,-147.2"/>
<text text-anchor="start" x="313.5" y="-154.9" font-family="Helvetica,sans-Serif" font-size="11.00" fill="#000000">int4[10]</text>
<polygon fill="none" stroke="#000000" points="175.5,-125.2 175.5,-147.2 310.5,-147.2 310.5,-125.2 175.5,-125.2"/>
<image xlink:href="../../images/foreignKeys.png" width="11px" height="12px" preserveAspectRatio="xMinYMin meet" x="180.5" y="-142.2"/>
<text text-anchor="start" x="195.5" y="-132.3" font-family="Helvetica,sans-Serif" font-size="11.00" fill="#000000">srid</text>
<polygon fill="none" stroke="#000000" points="310.5,-125.2 310.5,-147.2 410.5,-147.2 410.5,-125.2 310.5,-125.2"/>
<text text-anchor="start" x="313.5" y="-132.9" font-family="Helvetica,sans-Serif" font-size="11.00" fill="#000000">int4[10]</text>
<polygon fill="none" stroke="#000000" points="175.5,-103.2 175.5,-125.2 310.5,-125.2 310.5,-103.2 175.5,-103.2"/>
<text text-anchor="start" x="195.5" y="-110.3" font-family="Helvetica,sans-Serif" font-size="11.00" fill="#000000">type</text>
<polygon fill="none" stroke="#000000" points="310.5,-103.2 310.5,-125.2 410.5,-125.2 410.5,-103.2 310.5,-103.2"/>
<text text-anchor="start" x="313.5" y="-110.9" font-family="Helvetica,sans-Serif" font-size="11.00" fill="#000000">varchar[30]</text>
<polygon fill="none" stroke="#000000" stroke-width="2" points="174,-102.7 174,-281.7 411,-281.7 411,-102.7 174,-102.7"/>
</a>
</g>
</g>
<!-- geometry_columns&#45;&gt;spatial_ref_sys -->
<g id="edge2" class="edge">
<title>geometry_columns:w&#45;&gt;spatial_ref_sys:e</title>
<path fill="none" stroke="#000000" stroke-dasharray="5,2" d="M161.0156,-136.2C148.6771,-136.2 141.1667,-136.2 124,-136.2"/>
<polygon fill="#000000" stroke="#000000" points="167.5,-136.2001 175.5,-139.8 171.5,-136.2 175.5,-136.2 175.5,-136.2 175.5,-136.2 171.5,-136.2 175.5,-132.6 167.5,-136.2001 167.5,-136.2001"/>
<ellipse fill="none" stroke="#000000" cx="164.3" cy="-136.2001" rx="3.2" ry="3.2"/>
</g>
<!-- raster_columns -->
<g id="node4" class="node">
<title>raster_columns</title>
<g id="a_node4"><a xlink:href="../../tables/raster_columns.html" xlink:title="raster_columns" target="_top">
<polygon fill="#ffffff" stroke="transparent" points="234,-38.2 234,-80.2 351,-80.2 351,-38.2 234,-38.2"/>
<polygon fill="#f5f5f5" stroke="transparent" points="234.5,-57.2 234.5,-80.2 351.5,-80.2 351.5,-57.2 234.5,-57.2"/>
<polygon fill="none" stroke="#000000" points="234.5,-57.2 234.5,-80.2 351.5,-80.2 351.5,-57.2 234.5,-57.2"/>
<text text-anchor="start" x="239.4136" y="-66.3" font-family="Helvetica,sans-Serif" font-weight="bold" font-size="11.00" fill="#000000">raster_columns</text>
<text text-anchor="start" x="318.4448" y="-65.3" font-family="Helvetica,sans-Serif" font-size="11.00" fill="#000000">[view]</text>
<polygon fill="none" stroke="#000000" points="234.5,-38.2 234.5,-57.2 351.5,-57.2 351.5,-38.2 234.5,-38.2"/>
<text text-anchor="start" x="237.5" y="-44.3" font-family="Helvetica,sans-Serif" font-size="11.00" fill="#000000">...</text>
</a>
</g>
</g>
<!-- raster_columns&#45;&gt;spatial_ref_sys -->
<g id="edge3" class="edge">
<title>raster_columns:w&#45;&gt;spatial_ref_sys:e</title>
<path fill="none" stroke="#000000" stroke-dasharray="5,2" d="M220.1314,-48.4979C195.9676,-53.3521 188.8484,-71.1886 165,-91.2 144.2737,-108.5916 151.0564,-136.2 124,-136.2"/>
<polygon fill="#000000" stroke="#000000" points="226.5324,-47.9197 234.8239,-50.7854 230.5162,-47.5599 234.5,-47.2 234.5,-47.2 234.5,-47.2 230.5162,-47.5599 234.1761,-43.6146 226.5324,-47.9197 226.5324,-47.9197"/>
<ellipse fill="none" stroke="#000000" cx="223.3454" cy="-48.2076" rx="3.2" ry="3.2"/>
</g>
</g>
</svg>
