<?xml version="1.0" encoding="UTF-8" standalone="no"?>
<!DOCTYPE svg PUBLIC "-//W3C//DTD SVG 1.1//EN"
 "http://www.w3.org/Graphics/SVG/1.1/DTD/svg11.dtd">
<!-- Generated by graphviz version 2.40.1 (20161225.0304)
 -->
<!-- Title: twoDegreesRelationshipsDiagram Pages: 1 -->
<svg width="416pt" height="395pt"
 viewBox="0.00 0.00 416.26 394.70" xmlns="http://www.w3.org/2000/svg" xmlns:xlink="http://www.w3.org/1999/xlink">
<g id="graph0" class="graph" transform="scale(1 1) rotate(0) translate(4 390.7)">
<title>twoDegreesRelationshipsDiagram</title>
<polygon fill="#ffffff" stroke="transparent" points="-4,4 -4,-390.7 412.2633,-390.7 412.2633,4 -4,4"/>
<text text-anchor="middle" x="72.4936" y="-7.3" font-family="Helvetica,sans-Serif" font-size="11.00" fill="#000000">Generated by SchemaSpy</text>
<!-- ontology -->
<g id="node1" class="node">
<title>ontology</title>
<g id="a_node1"><a xlink:href="../../tables/ontology.html" xlink:title="ontology" target="_top">
<polygon fill="#ffffff" stroke="transparent" points="30.2633,-120.7 30.2633,-364.7 212.2633,-364.7 212.2633,-120.7 30.2633,-120.7"/>
<polygon fill="#f5f5f5" stroke="transparent" points="32.2633,-339.7 32.2633,-362.7 210.2633,-362.7 210.2633,-339.7 32.2633,-339.7"/>
<polygon fill="none" stroke="#000000" points="32.2633,-339.7 32.2633,-362.7 210.2633,-362.7 210.2633,-339.7 32.2633,-339.7"/>
<text text-anchor="start" x="37.2633" y="-348.8" font-family="Helvetica,sans-Serif" font-weight="bold" font-size="11.00" fill="#000000">ontology</text>
<text text-anchor="start" x="175.307" y="-347.8" font-family="Helvetica,sans-Serif" font-size="11.00" fill="#000000">[table]</text>
<polygon fill="none" stroke="#000000" points="32.2633,-317.7 32.2633,-339.7 120.2633,-339.7 120.2633,-317.7 32.2633,-317.7"/>
<image xlink:href="../../images/primaryKeys.png" width="11px" height="12px" preserveAspectRatio="xMinYMin meet" x="37.2633" y="-334.7"/>
<text text-anchor="start" x="52.2633" y="-324.8" font-family="Helvetica,sans-Serif" font-size="11.00" fill="#000000">id</text>
<polygon fill="none" stroke="#000000" points="120.2633,-317.7 120.2633,-339.7 210.2633,-339.7 210.2633,-317.7 120.2633,-317.7"/>
<text text-anchor="start" x="123.2633" y="-325.4" font-family="Helvetica,sans-Serif" font-size="11.00" fill="#000000">serial[10]</text>
<polygon fill="none" stroke="#000000" points="32.2633,-295.7 32.2633,-317.7 120.2633,-317.7 120.2633,-295.7 32.2633,-295.7"/>
<text text-anchor="start" x="52.2633" y="-302.8" font-family="Helvetica,sans-Serif" font-size="11.00" fill="#000000">label</text>
<polygon fill="none" stroke="#000000" points="120.2633,-295.7 120.2633,-317.7 210.2633,-317.7 210.2633,-295.7 120.2633,-295.7"/>
<text text-anchor="start" x="123.2633" y="-303.4" font-family="Helvetica,sans-Serif" font-size="11.00" fill="#000000">varchar[255]</text>
<polygon fill="none" stroke="#000000" points="32.2633,-273.7 32.2633,-295.7 120.2633,-295.7 120.2633,-273.7 32.2633,-273.7"/>
<text text-anchor="start" x="52.2633" y="-280.8" font-family="Helvetica,sans-Serif" font-size="11.00" fill="#000000">definition</text>
<polygon fill="none" stroke="#000000" points="120.2633,-273.7 120.2633,-295.7 210.2633,-295.7 210.2633,-273.7 120.2633,-273.7"/>
<text text-anchor="start" x="122.7676" y="-281.4" font-family="Helvetica,sans-Serif" font-size="11.00" fill="#000000">text[2147483647]</text>
<polygon fill="#ffffff" stroke="transparent" points="32.2633,-251.7 32.2633,-273.7 120.2633,-273.7 120.2633,-251.7 32.2633,-251.7"/>
<polygon fill="none" stroke="#000000" points="32.2633,-251.7 32.2633,-273.7 120.2633,-273.7 120.2633,-251.7 32.2633,-251.7"/>
<image xlink:href="../../images/foreignKeys.png" width="11px" height="12px" preserveAspectRatio="xMinYMin meet" x="37.2633" y="-268.7"/>
<text text-anchor="start" x="52.2633" y="-258.8" font-family="Helvetica,sans-Serif" font-size="11.00" fill="#000000">id_parent</text>
<polygon fill="none" stroke="#000000" points="120.2633,-251.7 120.2633,-273.7 210.2633,-273.7 210.2633,-251.7 120.2633,-251.7"/>
<text text-anchor="start" x="123.2633" y="-259.4" font-family="Helvetica,sans-Serif" font-size="11.00" fill="#000000">int4[10]</text>
<polygon fill="none" stroke="#000000" points="32.2633,-229.7 32.2633,-251.7 120.2633,-251.7 120.2633,-229.7 32.2633,-229.7"/>
<text text-anchor="start" x="52.2633" y="-236.8" font-family="Helvetica,sans-Serif" font-size="11.00" fill="#000000">description</text>
<polygon fill="none" stroke="#000000" points="120.2633,-229.7 120.2633,-251.7 210.2633,-251.7 210.2633,-229.7 120.2633,-229.7"/>
<text text-anchor="start" x="122.7676" y="-237.4" font-family="Helvetica,sans-Serif" font-size="11.00" fill="#000000">text[2147483647]</text>
<polygon fill="none" stroke="#000000" points="32.2633,-207.7 32.2633,-229.7 120.2633,-229.7 120.2633,-207.7 32.2633,-207.7"/>
<text text-anchor="start" x="52.2633" y="-214.8" font-family="Helvetica,sans-Serif" font-size="11.00" fill="#000000">checkable</text>
<polygon fill="none" stroke="#000000" points="120.2633,-207.7 120.2633,-229.7 210.2633,-229.7 210.2633,-207.7 120.2633,-207.7"/>
<text text-anchor="start" x="123.2633" y="-215.4" font-family="Helvetica,sans-Serif" font-size="11.00" fill="#000000">bool[1]</text>
<polygon fill="none" stroke="#000000" points="32.2633,-185.7 32.2633,-207.7 120.2633,-207.7 120.2633,-185.7 32.2633,-185.7"/>
<text text-anchor="start" x="52.2633" y="-192.8" font-family="Helvetica,sans-Serif" font-size="11.00" fill="#000000">nullying</text>
<polygon fill="none" stroke="#000000" points="120.2633,-185.7 120.2633,-207.7 210.2633,-207.7 210.2633,-185.7 120.2633,-185.7"/>
<text text-anchor="start" x="123.2633" y="-193.4" font-family="Helvetica,sans-Serif" font-size="11.00" fill="#000000">bool[1]</text>
<polygon fill="none" stroke="#000000" points="32.2633,-163.7 32.2633,-185.7 120.2633,-185.7 120.2633,-163.7 32.2633,-163.7"/>
<text text-anchor="start" x="52.2633" y="-170.8" font-family="Helvetica,sans-Serif" font-size="11.00" fill="#000000">class</text>
<polygon fill="none" stroke="#000000" points="120.2633,-163.7 120.2633,-185.7 210.2633,-185.7 210.2633,-163.7 120.2633,-163.7"/>
<text text-anchor="start" x="123.2633" y="-171.4" font-family="Helvetica,sans-Serif" font-size="11.00" fill="#000000">varchar[124]</text>
<polygon fill="none" stroke="#000000" points="32.2633,-141.7 32.2633,-163.7 120.2633,-163.7 120.2633,-141.7 32.2633,-141.7"/>
<text text-anchor="start" x="52.2633" y="-148.8" font-family="Helvetica,sans-Serif" font-size="11.00" fill="#000000">attached_to</text>
<polygon fill="none" stroke="#000000" points="120.2633,-141.7 120.2633,-163.7 210.2633,-163.7 210.2633,-141.7 120.2633,-141.7"/>
<text text-anchor="start" x="123.2633" y="-149.4" font-family="Helvetica,sans-Serif" font-size="11.00" fill="#000000">varchar[124]</text>
<polygon fill="#ffffff" stroke="transparent" points="32.2633,-122.7 32.2633,-141.7 55.2633,-141.7 55.2633,-122.7 32.2633,-122.7"/>
<polygon fill="none" stroke="#000000" points="32.2633,-122.7 32.2633,-141.7 55.2633,-141.7 55.2633,-122.7 32.2633,-122.7"/>
<text text-anchor="start" x="35.2633" y="-128.8" font-family="Helvetica,sans-Serif" font-size="11.00" fill="#000000">&lt; 1</text>
<polygon fill="#ffffff" stroke="transparent" points="55.2633,-122.7 55.2633,-141.7 120.2633,-141.7 120.2633,-122.7 55.2633,-122.7"/>
<polygon fill="none" stroke="#000000" points="55.2633,-122.7 55.2633,-141.7 120.2633,-141.7 120.2633,-122.7 55.2633,-122.7"/>
<text text-anchor="start" x="59.8103" y="-128.8" font-family="Helvetica,sans-Serif" font-size="11.00" fill="#000000">1 021 rows</text>
<polygon fill="#ffffff" stroke="transparent" points="120.2633,-122.7 120.2633,-141.7 210.2633,-141.7 210.2633,-122.7 120.2633,-122.7"/>
<polygon fill="none" stroke="#000000" points="120.2633,-122.7 120.2633,-141.7 210.2633,-141.7 210.2633,-122.7 120.2633,-122.7"/>
<text text-anchor="start" x="191.6686" y="-128.8" font-family="Helvetica,sans-Serif" font-size="11.00" fill="#000000">2 &gt;</text>
<polygon fill="none" stroke="#000000" stroke-width="2" points="31.2633,-121.7 31.2633,-363.7 211.2633,-363.7 211.2633,-121.7 31.2633,-121.7"/>
</a>
</g>
</g>
<!-- ontology&#45;&gt;ontology -->
<g id="edge1" class="edge">
<title>ontology:w&#45;&gt;ontology:e</title>
<path fill="none" stroke="#000000" d="M21.8381,-273.1201C-19.0003,-319.1564 -9.5472,-381.7 121.2633,-381.7 262.2633,-381.7 262.2633,-373.0333 210.2633,-328.7"/>
<polygon fill="#000000" stroke="#000000" points="26.6051,-268.3555 34.8083,-265.2462 29.4342,-265.5278 32.2633,-262.7 32.2633,-262.7 32.2633,-262.7 29.4342,-265.5278 29.7183,-260.1538 26.6051,-268.3555 26.6051,-268.3555"/>
<ellipse fill="none" stroke="#000000" cx="24.3418" cy="-270.6177" rx="3.2" ry="3.2"/>
</g>
<!-- site_ontology -->
<g id="node2" class="node">
<title>site_ontology</title>
<g id="a_node2"><a xlink:href="../../tables/site_ontology.html" xlink:title="site_ontology" target="_top">
<polygon fill="#ffffff" stroke="transparent" points="261.2633,-137.2 261.2633,-242.2 400.2633,-242.2 400.2633,-137.2 261.2633,-137.2"/>
<polygon fill="#f5f5f5" stroke="transparent" points="261.7633,-218.7 261.7633,-241.7 400.7633,-241.7 400.7633,-218.7 261.7633,-218.7"/>
<polygon fill="none" stroke="#000000" points="261.7633,-218.7 261.7633,-241.7 400.7633,-241.7 400.7633,-218.7 261.7633,-218.7"/>
<text text-anchor="start" x="266.7633" y="-227.8" font-family="Helvetica,sans-Serif" font-weight="bold" font-size="11.00" fill="#000000">site_ontology</text>
<text text-anchor="start" x="365.807" y="-226.8" font-family="Helvetica,sans-Serif" font-size="11.00" fill="#000000">[table]</text>
<polygon fill="none" stroke="#000000" points="261.7633,-196.7 261.7633,-218.7 400.7633,-218.7 400.7633,-196.7 261.7633,-196.7"/>
<image xlink:href="../../images/primaryKeys.png" width="11px" height="12px" preserveAspectRatio="xMinYMin meet" x="266.763" y="-213.7"/>
<text text-anchor="start" x="281.7633" y="-203.8" font-family="Helvetica,sans-Serif" font-size="11.00" fill="#000000">qcm_id</text>
<polygon fill="none" stroke="#000000" points="261.7633,-174.7 261.7633,-196.7 400.7633,-196.7 400.7633,-174.7 261.7633,-174.7"/>
<image xlink:href="../../images/primaryKeys.png" width="11px" height="12px" preserveAspectRatio="xMinYMin meet" x="266.763" y="-191.7"/>
<text text-anchor="start" x="281.7633" y="-181.8" font-family="Helvetica,sans-Serif" font-size="11.00" fill="#000000">site_id</text>
<polygon fill="none" stroke="#000000" points="261.7633,-155.7 261.7633,-174.7 400.7633,-174.7 400.7633,-155.7 261.7633,-155.7"/>
<text text-anchor="start" x="264.7633" y="-161.8" font-family="Helvetica,sans-Serif" font-size="11.00" fill="#000000">...</text>
<polygon fill="#ffffff" stroke="transparent" points="261.7633,-136.7 261.7633,-155.7 313.7633,-155.7 313.7633,-136.7 261.7633,-136.7"/>
<polygon fill="none" stroke="#000000" points="261.7633,-136.7 261.7633,-155.7 313.7633,-155.7 313.7633,-136.7 261.7633,-136.7"/>
<text text-anchor="start" x="264.7633" y="-142.8" font-family="Helvetica,sans-Serif" font-size="11.00" fill="#000000">&lt; 2</text>
<polygon fill="#ffffff" stroke="transparent" points="313.7633,-136.7 313.7633,-155.7 372.7633,-155.7 372.7633,-136.7 313.7633,-136.7"/>
<polygon fill="none" stroke="#000000" points="313.7633,-136.7 313.7633,-155.7 372.7633,-155.7 372.7633,-136.7 313.7633,-136.7"/>
<text text-anchor="start" x="331.2589" y="-142.8" font-family="Helvetica,sans-Serif" font-size="11.00" fill="#000000">24 rows</text>
<polygon fill="#ffffff" stroke="transparent" points="372.7633,-136.7 372.7633,-155.7 400.7633,-155.7 400.7633,-136.7 372.7633,-136.7"/>
<polygon fill="none" stroke="#000000" points="372.7633,-136.7 372.7633,-155.7 400.7633,-155.7 400.7633,-136.7 372.7633,-136.7"/>
<text text-anchor="start" x="391.6495" y="-142.8" font-family="Helvetica,sans-Serif" font-size="11.00" fill="#000000"> &#160;</text>
</a>
</g>
</g>
<!-- site_ontology&#45;&gt;ontology -->
<g id="edge2" class="edge">
<title>site_ontology:w&#45;&gt;ontology:e</title>
<path fill="none" stroke="#000000" d="M247.5282,-211.1908C215.3226,-231.03 262.7735,-328.7 210.2633,-328.7"/>
<polygon fill="#000000" stroke="#000000" points="253.9935,-209.6054 262.6207,-211.1964 257.8784,-208.6527 261.7633,-207.7 261.7633,-207.7 261.7633,-207.7 257.8784,-208.6527 260.9059,-204.2036 253.9935,-209.6054 253.9935,-209.6054"/>
<ellipse fill="none" stroke="#000000" cx="250.8856" cy="-210.3675" rx="3.2" ry="3.2"/>
</g>
<!-- site -->
<g id="node3" class="node">
<title>site</title>
<g id="a_node3"><a xlink:href="../../tables/site.html" xlink:title="site" target="_top">
<polygon fill="#ffffff" stroke="transparent" points="78.2633,-38.2 78.2633,-99.2 164.2633,-99.2 164.2633,-38.2 78.2633,-38.2"/>
<polygon fill="#f5f5f5" stroke="transparent" points="78.2633,-75.7 78.2633,-98.7 164.2633,-98.7 164.2633,-75.7 78.2633,-75.7"/>
<polygon fill="none" stroke="#000000" points="78.2633,-75.7 78.2633,-98.7 164.2633,-98.7 164.2633,-75.7 78.2633,-75.7"/>
<text text-anchor="start" x="83.2633" y="-84.8" font-family="Helvetica,sans-Serif" font-weight="bold" font-size="11.00" fill="#000000">site</text>
<text text-anchor="start" x="129.307" y="-83.8" font-family="Helvetica,sans-Serif" font-size="11.00" fill="#000000">[table]</text>
<polygon fill="none" stroke="#000000" points="78.2633,-56.7 78.2633,-75.7 164.2633,-75.7 164.2633,-56.7 78.2633,-56.7"/>
<text text-anchor="start" x="81.2633" y="-62.8" font-family="Helvetica,sans-Serif" font-size="11.00" fill="#000000">...</text>
<polygon fill="#ffffff" stroke="transparent" points="78.2633,-37.7 78.2633,-56.7 99.2633,-56.7 99.2633,-37.7 78.2633,-37.7"/>
<polygon fill="none" stroke="#000000" points="78.2633,-37.7 78.2633,-56.7 99.2633,-56.7 99.2633,-37.7 78.2633,-37.7"/>
<text text-anchor="start" x="80.966" y="-43.8" font-family="Helvetica,sans-Serif" font-size="11.00" fill="#000000">&lt; 1</text>
<polygon fill="#ffffff" stroke="transparent" points="99.2633,-37.7 99.2633,-56.7 143.2633,-56.7 143.2633,-37.7 99.2633,-37.7"/>
<polygon fill="none" stroke="#000000" points="99.2633,-37.7 99.2633,-56.7 143.2633,-56.7 143.2633,-37.7 99.2633,-37.7"/>
<text text-anchor="start" x="102.0111" y="-43.8" font-family="Helvetica,sans-Serif" font-size="11.00" fill="#000000">10 rows</text>
<polygon fill="#ffffff" stroke="transparent" points="143.2633,-37.7 143.2633,-56.7 164.2633,-56.7 164.2633,-37.7 143.2633,-37.7"/>
<polygon fill="none" stroke="#000000" points="143.2633,-37.7 143.2633,-56.7 164.2633,-56.7 164.2633,-37.7 143.2633,-37.7"/>
<text text-anchor="start" x="145.966" y="-43.8" font-family="Helvetica,sans-Serif" font-size="11.00" fill="#000000">5 &gt;</text>
</a>
</g>
</g>
<!-- site_ontology&#45;&gt;site -->
<g id="edge3" class="edge">
<title>site_ontology:w&#45;&gt;site:e</title>
<path fill="none" stroke="#000000" d="M247.332,-182.2736C229.3708,-171.104 240.7702,-135.0645 220.2633,-110.7 199.7029,-86.272 196.1922,-65.7 164.2633,-65.7"/>
<polygon fill="#000000" stroke="#000000" points="253.9797,-183.8519 260.9317,-189.2026 257.8715,-184.776 261.7633,-185.7 261.7633,-185.7 261.7633,-185.7 257.8715,-184.776 262.595,-182.1974 253.9797,-183.8519 253.9797,-183.8519"/>
<ellipse fill="none" stroke="#000000" cx="250.8662" cy="-183.1127" rx="3.2" ry="3.2"/>
</g>
</g>
</svg>
