<?xml version="1.0" encoding="UTF-8" standalone="no"?>
<!DOCTYPE svg PUBLIC "-//W3C//DTD SVG 1.1//EN"
 "http://www.w3.org/Graphics/SVG/1.1/DTD/svg11.dtd">
<!-- Generated by graphviz version 2.40.1 (20161225.0304)
 -->
<!-- Title: oneDegreeRelationshipsDiagram Pages: 1 -->
<svg width="416pt" height="312pt"
 viewBox="0.00 0.00 416.26 312.20" xmlns="http://www.w3.org/2000/svg" xmlns:xlink="http://www.w3.org/1999/xlink">
<g id="graph0" class="graph" transform="scale(1 1) rotate(0) translate(4 308.2)">
<title>oneDegreeRelationshipsDiagram</title>
<polygon fill="#ffffff" stroke="transparent" points="-4,4 -4,-308.2 412.2633,-308.2 412.2633,4 -4,4"/>
<text text-anchor="middle" x="72.4936" y="-7.3" font-family="Helvetica,sans-Serif" font-size="11.00" fill="#000000">Generated by SchemaSpy</text>
<!-- ontology -->
<g id="node1" class="node">
<title>ontology</title>
<g id="a_node1"><a xlink:href="../../tables/ontology.html" xlink:title="ontology" target="_top">
<polygon fill="#ffffff" stroke="transparent" points="30.2633,-38.2 30.2633,-282.2 212.2633,-282.2 212.2633,-38.2 30.2633,-38.2"/>
<polygon fill="#f5f5f5" stroke="transparent" points="32.2633,-257.2 32.2633,-280.2 210.2633,-280.2 210.2633,-257.2 32.2633,-257.2"/>
<polygon fill="none" stroke="#000000" points="32.2633,-257.2 32.2633,-280.2 210.2633,-280.2 210.2633,-257.2 32.2633,-257.2"/>
<text text-anchor="start" x="37.2633" y="-266.3" font-family="Helvetica,sans-Serif" font-weight="bold" font-size="11.00" fill="#000000">ontology</text>
<text text-anchor="start" x="175.307" y="-265.3" font-family="Helvetica,sans-Serif" font-size="11.00" fill="#000000">[table]</text>
<polygon fill="none" stroke="#000000" points="32.2633,-235.2 32.2633,-257.2 120.2633,-257.2 120.2633,-235.2 32.2633,-235.2"/>
<image xlink:href="../../images/primaryKeys.png" width="11px" height="12px" preserveAspectRatio="xMinYMin meet" x="37.2633" y="-252.2"/>
<text text-anchor="start" x="52.2633" y="-242.3" font-family="Helvetica,sans-Serif" font-size="11.00" fill="#000000">id</text>
<polygon fill="none" stroke="#000000" points="120.2633,-235.2 120.2633,-257.2 210.2633,-257.2 210.2633,-235.2 120.2633,-235.2"/>
<text text-anchor="start" x="123.2633" y="-242.9" font-family="Helvetica,sans-Serif" font-size="11.00" fill="#000000">serial[10]</text>
<polygon fill="none" stroke="#000000" points="32.2633,-213.2 32.2633,-235.2 120.2633,-235.2 120.2633,-213.2 32.2633,-213.2"/>
<text text-anchor="start" x="52.2633" y="-220.3" font-family="Helvetica,sans-Serif" font-size="11.00" fill="#000000">label</text>
<polygon fill="none" stroke="#000000" points="120.2633,-213.2 120.2633,-235.2 210.2633,-235.2 210.2633,-213.2 120.2633,-213.2"/>
<text text-anchor="start" x="123.2633" y="-220.9" font-family="Helvetica,sans-Serif" font-size="11.00" fill="#000000">varchar[255]</text>
<polygon fill="none" stroke="#000000" points="32.2633,-191.2 32.2633,-213.2 120.2633,-213.2 120.2633,-191.2 32.2633,-191.2"/>
<text text-anchor="start" x="52.2633" y="-198.3" font-family="Helvetica,sans-Serif" font-size="11.00" fill="#000000">definition</text>
<polygon fill="none" stroke="#000000" points="120.2633,-191.2 120.2633,-213.2 210.2633,-213.2 210.2633,-191.2 120.2633,-191.2"/>
<text text-anchor="start" x="122.7676" y="-198.9" font-family="Helvetica,sans-Serif" font-size="11.00" fill="#000000">text[2147483647]</text>
<polygon fill="#ffffff" stroke="transparent" points="32.2633,-169.2 32.2633,-191.2 120.2633,-191.2 120.2633,-169.2 32.2633,-169.2"/>
<polygon fill="none" stroke="#000000" points="32.2633,-169.2 32.2633,-191.2 120.2633,-191.2 120.2633,-169.2 32.2633,-169.2"/>
<image xlink:href="../../images/foreignKeys.png" width="11px" height="12px" preserveAspectRatio="xMinYMin meet" x="37.2633" y="-186.2"/>
<text text-anchor="start" x="52.2633" y="-176.3" font-family="Helvetica,sans-Serif" font-size="11.00" fill="#000000">id_parent</text>
<polygon fill="none" stroke="#000000" points="120.2633,-169.2 120.2633,-191.2 210.2633,-191.2 210.2633,-169.2 120.2633,-169.2"/>
<text text-anchor="start" x="123.2633" y="-176.9" font-family="Helvetica,sans-Serif" font-size="11.00" fill="#000000">int4[10]</text>
<polygon fill="none" stroke="#000000" points="32.2633,-147.2 32.2633,-169.2 120.2633,-169.2 120.2633,-147.2 32.2633,-147.2"/>
<text text-anchor="start" x="52.2633" y="-154.3" font-family="Helvetica,sans-Serif" font-size="11.00" fill="#000000">description</text>
<polygon fill="none" stroke="#000000" points="120.2633,-147.2 120.2633,-169.2 210.2633,-169.2 210.2633,-147.2 120.2633,-147.2"/>
<text text-anchor="start" x="122.7676" y="-154.9" font-family="Helvetica,sans-Serif" font-size="11.00" fill="#000000">text[2147483647]</text>
<polygon fill="none" stroke="#000000" points="32.2633,-125.2 32.2633,-147.2 120.2633,-147.2 120.2633,-125.2 32.2633,-125.2"/>
<text text-anchor="start" x="52.2633" y="-132.3" font-family="Helvetica,sans-Serif" font-size="11.00" fill="#000000">checkable</text>
<polygon fill="none" stroke="#000000" points="120.2633,-125.2 120.2633,-147.2 210.2633,-147.2 210.2633,-125.2 120.2633,-125.2"/>
<text text-anchor="start" x="123.2633" y="-132.9" font-family="Helvetica,sans-Serif" font-size="11.00" fill="#000000">bool[1]</text>
<polygon fill="none" stroke="#000000" points="32.2633,-103.2 32.2633,-125.2 120.2633,-125.2 120.2633,-103.2 32.2633,-103.2"/>
<text text-anchor="start" x="52.2633" y="-110.3" font-family="Helvetica,sans-Serif" font-size="11.00" fill="#000000">nullying</text>
<polygon fill="none" stroke="#000000" points="120.2633,-103.2 120.2633,-125.2 210.2633,-125.2 210.2633,-103.2 120.2633,-103.2"/>
<text text-anchor="start" x="123.2633" y="-110.9" font-family="Helvetica,sans-Serif" font-size="11.00" fill="#000000">bool[1]</text>
<polygon fill="none" stroke="#000000" points="32.2633,-81.2 32.2633,-103.2 120.2633,-103.2 120.2633,-81.2 32.2633,-81.2"/>
<text text-anchor="start" x="52.2633" y="-88.3" font-family="Helvetica,sans-Serif" font-size="11.00" fill="#000000">class</text>
<polygon fill="none" stroke="#000000" points="120.2633,-81.2 120.2633,-103.2 210.2633,-103.2 210.2633,-81.2 120.2633,-81.2"/>
<text text-anchor="start" x="123.2633" y="-88.9" font-family="Helvetica,sans-Serif" font-size="11.00" fill="#000000">varchar[124]</text>
<polygon fill="none" stroke="#000000" points="32.2633,-59.2 32.2633,-81.2 120.2633,-81.2 120.2633,-59.2 32.2633,-59.2"/>
<text text-anchor="start" x="52.2633" y="-66.3" font-family="Helvetica,sans-Serif" font-size="11.00" fill="#000000">attached_to</text>
<polygon fill="none" stroke="#000000" points="120.2633,-59.2 120.2633,-81.2 210.2633,-81.2 210.2633,-59.2 120.2633,-59.2"/>
<text text-anchor="start" x="123.2633" y="-66.9" font-family="Helvetica,sans-Serif" font-size="11.00" fill="#000000">varchar[124]</text>
<polygon fill="#ffffff" stroke="transparent" points="32.2633,-40.2 32.2633,-59.2 55.2633,-59.2 55.2633,-40.2 32.2633,-40.2"/>
<polygon fill="none" stroke="#000000" points="32.2633,-40.2 32.2633,-59.2 55.2633,-59.2 55.2633,-40.2 32.2633,-40.2"/>
<text text-anchor="start" x="35.2633" y="-46.3" font-family="Helvetica,sans-Serif" font-size="11.00" fill="#000000">&lt; 1</text>
<polygon fill="#ffffff" stroke="transparent" points="55.2633,-40.2 55.2633,-59.2 120.2633,-59.2 120.2633,-40.2 55.2633,-40.2"/>
<polygon fill="none" stroke="#000000" points="55.2633,-40.2 55.2633,-59.2 120.2633,-59.2 120.2633,-40.2 55.2633,-40.2"/>
<text text-anchor="start" x="59.8103" y="-46.3" font-family="Helvetica,sans-Serif" font-size="11.00" fill="#000000">1 021 rows</text>
<polygon fill="#ffffff" stroke="transparent" points="120.2633,-40.2 120.2633,-59.2 210.2633,-59.2 210.2633,-40.2 120.2633,-40.2"/>
<polygon fill="none" stroke="#000000" points="120.2633,-40.2 120.2633,-59.2 210.2633,-59.2 210.2633,-40.2 120.2633,-40.2"/>
<text text-anchor="start" x="191.6686" y="-46.3" font-family="Helvetica,sans-Serif" font-size="11.00" fill="#000000">2 &gt;</text>
<polygon fill="none" stroke="#000000" stroke-width="2" points="31.2633,-39.2 31.2633,-281.2 211.2633,-281.2 211.2633,-39.2 31.2633,-39.2"/>
</a>
</g>
</g>
<!-- ontology&#45;&gt;ontology -->
<g id="edge1" class="edge">
<title>ontology:w&#45;&gt;ontology:e</title>
<path fill="none" stroke="#000000" d="M21.8381,-190.6201C-19.0003,-236.6564 -9.5472,-299.2 121.2633,-299.2 262.2633,-299.2 262.2633,-290.5333 210.2633,-246.2"/>
<polygon fill="#000000" stroke="#000000" points="26.6051,-185.8555 34.8083,-182.7462 29.4342,-183.0278 32.2633,-180.2 32.2633,-180.2 32.2633,-180.2 29.4342,-183.0278 29.7183,-177.6538 26.6051,-185.8555 26.6051,-185.8555"/>
<ellipse fill="none" stroke="#000000" cx="24.3418" cy="-188.1177" rx="3.2" ry="3.2"/>
</g>
<!-- site_ontology -->
<g id="node2" class="node">
<title>site_ontology</title>
<g id="a_node2"><a xlink:href="../../tables/site_ontology.html" xlink:title="site_ontology" target="_top">
<polygon fill="#ffffff" stroke="transparent" points="261.2633,-175.7 261.2633,-280.7 400.2633,-280.7 400.2633,-175.7 261.2633,-175.7"/>
<polygon fill="#f5f5f5" stroke="transparent" points="261.7633,-257.2 261.7633,-280.2 400.7633,-280.2 400.7633,-257.2 261.7633,-257.2"/>
<polygon fill="none" stroke="#000000" points="261.7633,-257.2 261.7633,-280.2 400.7633,-280.2 400.7633,-257.2 261.7633,-257.2"/>
<text text-anchor="start" x="266.7633" y="-266.3" font-family="Helvetica,sans-Serif" font-weight="bold" font-size="11.00" fill="#000000">site_ontology</text>
<text text-anchor="start" x="365.807" y="-265.3" font-family="Helvetica,sans-Serif" font-size="11.00" fill="#000000">[table]</text>
<polygon fill="none" stroke="#000000" points="261.7633,-235.2 261.7633,-257.2 400.7633,-257.2 400.7633,-235.2 261.7633,-235.2"/>
<image xlink:href="../../images/primaryKeys.png" width="11px" height="12px" preserveAspectRatio="xMinYMin meet" x="266.763" y="-252.2"/>
<text text-anchor="start" x="281.7633" y="-242.3" font-family="Helvetica,sans-Serif" font-size="11.00" fill="#000000">qcm_id</text>
<polygon fill="none" stroke="#000000" points="261.7633,-213.2 261.7633,-235.2 400.7633,-235.2 400.7633,-213.2 261.7633,-213.2"/>
<image xlink:href="../../images/primaryKeys.png" width="11px" height="12px" preserveAspectRatio="xMinYMin meet" x="266.763" y="-230.2"/>
<text text-anchor="start" x="281.7633" y="-220.3" font-family="Helvetica,sans-Serif" font-size="11.00" fill="#000000">site_id</text>
<polygon fill="none" stroke="#000000" points="261.7633,-194.2 261.7633,-213.2 400.7633,-213.2 400.7633,-194.2 261.7633,-194.2"/>
<text text-anchor="start" x="264.7633" y="-200.3" font-family="Helvetica,sans-Serif" font-size="11.00" fill="#000000">...</text>
<polygon fill="#ffffff" stroke="transparent" points="261.7633,-175.2 261.7633,-194.2 313.7633,-194.2 313.7633,-175.2 261.7633,-175.2"/>
<polygon fill="none" stroke="#000000" points="261.7633,-175.2 261.7633,-194.2 313.7633,-194.2 313.7633,-175.2 261.7633,-175.2"/>
<text text-anchor="start" x="264.7633" y="-181.3" font-family="Helvetica,sans-Serif" font-size="11.00" fill="#000000">&lt; 2</text>
<polygon fill="#ffffff" stroke="transparent" points="313.7633,-175.2 313.7633,-194.2 372.7633,-194.2 372.7633,-175.2 313.7633,-175.2"/>
<polygon fill="none" stroke="#000000" points="313.7633,-175.2 313.7633,-194.2 372.7633,-194.2 372.7633,-175.2 313.7633,-175.2"/>
<text text-anchor="start" x="331.2589" y="-181.3" font-family="Helvetica,sans-Serif" font-size="11.00" fill="#000000">24 rows</text>
<polygon fill="#ffffff" stroke="transparent" points="372.7633,-175.2 372.7633,-194.2 400.7633,-194.2 400.7633,-175.2 372.7633,-175.2"/>
<polygon fill="none" stroke="#000000" points="372.7633,-175.2 372.7633,-194.2 400.7633,-194.2 400.7633,-175.2 372.7633,-175.2"/>
<text text-anchor="start" x="391.6495" y="-181.3" font-family="Helvetica,sans-Serif" font-size="11.00" fill="#000000"> &#160;</text>
</a>
</g>
</g>
<!-- site_ontology&#45;&gt;ontology -->
<g id="edge2" class="edge">
<title>site_ontology:w&#45;&gt;ontology:e</title>
<path fill="none" stroke="#000000" d="M247.2789,-246.2C234.9404,-246.2 227.43,-246.2 210.2633,-246.2"/>
<polygon fill="#000000" stroke="#000000" points="253.7633,-246.2001 261.7633,-249.8 257.7633,-246.2 261.7633,-246.2 261.7633,-246.2 261.7633,-246.2 257.7633,-246.2 261.7633,-242.6 253.7633,-246.2001 253.7633,-246.2001"/>
<ellipse fill="none" stroke="#000000" cx="250.5633" cy="-246.2001" rx="3.2" ry="3.2"/>
</g>
</g>
</svg>
