<?xml version="1.0" encoding="UTF-8" standalone="no"?>
<!DOCTYPE svg PUBLIC "-//W3C//DTD SVG 1.1//EN"
 "http://www.w3.org/Graphics/SVG/1.1/DTD/svg11.dtd">
<!-- Generated by graphviz version 2.40.1 (20161225.0304)
 -->
<!-- Title: oneDegreeRelationshipsDiagram Pages: 1 -->
<svg width="638pt" height="329pt"
 viewBox="0.00 0.00 638.00 328.70" xmlns="http://www.w3.org/2000/svg" xmlns:xlink="http://www.w3.org/1999/xlink">
<g id="graph0" class="graph" transform="scale(1 1) rotate(0) translate(4 324.7)">
<title>oneDegreeRelationshipsDiagram</title>
<polygon fill="#ffffff" stroke="transparent" points="-4,4 -4,-324.7 634,-324.7 634,4 -4,4"/>
<text text-anchor="middle" x="72.4936" y="-7.3" font-family="Helvetica,sans-Serif" font-size="11.00" fill="#000000">Generated by SchemaSpy</text>
<!-- entite_geol -->
<g id="node1" class="node">
<title>entite_geol</title>
<g id="a_node1"><a xlink:href="../../tables/entite_geol.html" xlink:title="entite_geol" target="_top">
<polygon fill="#ffffff" stroke="transparent" points="221,-38.2 221,-209.2 394,-209.2 394,-38.2 221,-38.2"/>
<polygon fill="#f5f5f5" stroke="transparent" points="221.5,-185.7 221.5,-208.7 394.5,-208.7 394.5,-185.7 221.5,-185.7"/>
<polygon fill="none" stroke="#000000" points="221.5,-185.7 221.5,-208.7 394.5,-208.7 394.5,-185.7 221.5,-185.7"/>
<text text-anchor="start" x="226.5" y="-194.8" font-family="Helvetica,sans-Serif" font-weight="bold" font-size="11.00" fill="#000000">entite_geol</text>
<text text-anchor="start" x="359.5437" y="-193.8" font-family="Helvetica,sans-Serif" font-size="11.00" fill="#000000">[table]</text>
<polygon fill="none" stroke="#000000" points="221.5,-163.7 221.5,-185.7 394.5,-185.7 394.5,-163.7 221.5,-163.7"/>
<image xlink:href="../../images/primaryKeys.png" width="11px" height="12px" preserveAspectRatio="xMinYMin meet" x="226.5" y="-180.7"/>
<text text-anchor="start" x="241.5" y="-170.8" font-family="Helvetica,sans-Serif" font-size="11.00" fill="#000000">id</text>
<polygon fill="#ffffff" stroke="transparent" points="221.5,-141.7 221.5,-163.7 394.5,-163.7 394.5,-141.7 221.5,-141.7"/>
<polygon fill="none" stroke="#000000" points="221.5,-141.7 221.5,-163.7 394.5,-163.7 394.5,-141.7 221.5,-141.7"/>
<text text-anchor="start" x="241.5" y="-148.8" font-family="Helvetica,sans-Serif" font-size="11.00" fill="#000000">geom</text>
<polygon fill="#ffffff" stroke="transparent" points="221.5,-119.7 221.5,-141.7 394.5,-141.7 394.5,-119.7 221.5,-119.7"/>
<polygon fill="none" stroke="#000000" points="221.5,-119.7 221.5,-141.7 394.5,-141.7 394.5,-119.7 221.5,-119.7"/>
<image xlink:href="../../images/foreignKeys.png" width="11px" height="12px" preserveAspectRatio="xMinYMin meet" x="226.5" y="-136.7"/>
<text text-anchor="start" x="241.5" y="-126.8" font-family="Helvetica,sans-Serif" font-size="11.00" fill="#000000">ere_geol_id</text>
<polygon fill="#ffffff" stroke="transparent" points="221.5,-97.7 221.5,-119.7 394.5,-119.7 394.5,-97.7 221.5,-97.7"/>
<polygon fill="none" stroke="#000000" points="221.5,-97.7 221.5,-119.7 394.5,-119.7 394.5,-97.7 221.5,-97.7"/>
<image xlink:href="../../images/foreignKeys.png" width="11px" height="12px" preserveAspectRatio="xMinYMin meet" x="226.5" y="-114.7"/>
<text text-anchor="start" x="241.5" y="-104.8" font-family="Helvetica,sans-Serif" font-size="11.00" fill="#000000">site_id</text>
<polygon fill="#ffffff" stroke="transparent" points="221.5,-75.7 221.5,-97.7 394.5,-97.7 394.5,-75.7 221.5,-75.7"/>
<polygon fill="none" stroke="#000000" points="221.5,-75.7 221.5,-97.7 394.5,-97.7 394.5,-75.7 221.5,-75.7"/>
<image xlink:href="../../images/foreignKeys.png" width="11px" height="12px" preserveAspectRatio="xMinYMin meet" x="226.5" y="-92.7"/>
<text text-anchor="start" x="241.5" y="-82.8" font-family="Helvetica,sans-Serif" font-size="11.00" fill="#000000">s_fgeol_id</text>
<polygon fill="none" stroke="#000000" points="221.5,-56.7 221.5,-75.7 394.5,-75.7 394.5,-56.7 221.5,-56.7"/>
<text text-anchor="start" x="224.5" y="-62.8" font-family="Helvetica,sans-Serif" font-size="11.00" fill="#000000">...</text>
<polygon fill="#ffffff" stroke="transparent" points="221.5,-37.7 221.5,-56.7 285.5,-56.7 285.5,-37.7 221.5,-37.7"/>
<polygon fill="none" stroke="#000000" points="221.5,-37.7 221.5,-56.7 285.5,-56.7 285.5,-37.7 221.5,-37.7"/>
<text text-anchor="start" x="224.5" y="-43.8" font-family="Helvetica,sans-Serif" font-size="11.00" fill="#000000">&lt; 3</text>
<polygon fill="#ffffff" stroke="transparent" points="285.5,-37.7 285.5,-56.7 351.5,-56.7 351.5,-37.7 285.5,-37.7"/>
<polygon fill="none" stroke="#000000" points="285.5,-37.7 285.5,-56.7 351.5,-56.7 351.5,-37.7 285.5,-37.7"/>
<text text-anchor="start" x="309.9956" y="-43.8" font-family="Helvetica,sans-Serif" font-size="11.00" fill="#000000">24 rows</text>
<polygon fill="#ffffff" stroke="transparent" points="351.5,-37.7 351.5,-56.7 394.5,-56.7 394.5,-37.7 351.5,-37.7"/>
<polygon fill="none" stroke="#000000" points="351.5,-37.7 351.5,-56.7 394.5,-56.7 394.5,-37.7 351.5,-37.7"/>
<text text-anchor="start" x="375.9053" y="-43.8" font-family="Helvetica,sans-Serif" font-size="11.00" fill="#000000">5 &gt;</text>
</a>
</g>
</g>
<!-- site -->
<g id="node2" class="node">
<title>site</title>
<g id="a_node2"><a xlink:href="../../tables/site.html" xlink:title="site" target="_top">
<polygon fill="#ffffff" stroke="transparent" points="8,-78.2 8,-205.2 172,-205.2 172,-78.2 8,-78.2"/>
<polygon fill="#f5f5f5" stroke="transparent" points="8,-181.7 8,-204.7 172,-204.7 172,-181.7 8,-181.7"/>
<polygon fill="none" stroke="#000000" points="8,-181.7 8,-204.7 172,-204.7 172,-181.7 8,-181.7"/>
<text text-anchor="start" x="13" y="-190.8" font-family="Helvetica,sans-Serif" font-weight="bold" font-size="11.00" fill="#000000">site</text>
<text text-anchor="start" x="137.0437" y="-189.8" font-family="Helvetica,sans-Serif" font-size="11.00" fill="#000000">[table]</text>
<polygon fill="none" stroke="#000000" points="8,-159.7 8,-181.7 172,-181.7 172,-159.7 8,-159.7"/>
<image xlink:href="../../images/primaryKeys.png" width="11px" height="12px" preserveAspectRatio="xMinYMin meet" x="13" y="-176.7"/>
<text text-anchor="start" x="28" y="-166.8" font-family="Helvetica,sans-Serif" font-size="11.00" fill="#000000">id</text>
<polygon fill="#ffffff" stroke="transparent" points="8,-137.7 8,-159.7 172,-159.7 172,-137.7 8,-137.7"/>
<polygon fill="none" stroke="#000000" points="8,-137.7 8,-159.7 172,-159.7 172,-137.7 8,-137.7"/>
<text text-anchor="start" x="28" y="-144.8" font-family="Helvetica,sans-Serif" font-size="11.00" fill="#000000">geom</text>
<polygon fill="#ffffff" stroke="transparent" points="8,-115.7 8,-137.7 172,-137.7 172,-115.7 8,-115.7"/>
<polygon fill="none" stroke="#000000" points="8,-115.7 8,-137.7 172,-137.7 172,-115.7 8,-115.7"/>
<image xlink:href="../../images/foreignKeys.png" width="11px" height="12px" preserveAspectRatio="xMinYMin meet" x="13" y="-132.7"/>
<text text-anchor="start" x="28" y="-122.8" font-family="Helvetica,sans-Serif" font-size="11.00" fill="#000000">ep_id</text>
<polygon fill="none" stroke="#000000" points="8,-96.7 8,-115.7 172,-115.7 172,-96.7 8,-96.7"/>
<text text-anchor="start" x="11" y="-102.8" font-family="Helvetica,sans-Serif" font-size="11.00" fill="#000000">...</text>
<polygon fill="#ffffff" stroke="transparent" points="8,-77.7 8,-96.7 68,-96.7 68,-77.7 8,-77.7"/>
<polygon fill="none" stroke="#000000" points="8,-77.7 8,-96.7 68,-96.7 68,-77.7 8,-77.7"/>
<text text-anchor="start" x="11" y="-83.8" font-family="Helvetica,sans-Serif" font-size="11.00" fill="#000000">&lt; 1</text>
<polygon fill="#ffffff" stroke="transparent" points="68,-77.7 68,-96.7 131,-96.7 131,-77.7 68,-77.7"/>
<polygon fill="none" stroke="#000000" points="68,-77.7 68,-96.7 131,-96.7 131,-77.7 68,-77.7"/>
<text text-anchor="start" x="89.4956" y="-83.8" font-family="Helvetica,sans-Serif" font-size="11.00" fill="#000000">10 rows</text>
<polygon fill="#ffffff" stroke="transparent" points="131,-77.7 131,-96.7 172,-96.7 172,-77.7 131,-77.7"/>
<polygon fill="none" stroke="#000000" points="131,-77.7 131,-96.7 172,-96.7 172,-77.7 131,-77.7"/>
<text text-anchor="start" x="153.4053" y="-83.8" font-family="Helvetica,sans-Serif" font-size="11.00" fill="#000000">5 &gt;</text>
</a>
</g>
</g>
<!-- entite_geol&#45;&gt;site -->
<g id="edge1" class="edge">
<title>entite_geol:w&#45;&gt;site:e</title>
<path fill="none" stroke="#000000" d="M207.7351,-113.565C191.8028,-128.181 201.2002,-170.7 172,-170.7"/>
<polygon fill="#000000" stroke="#000000" points="213.9573,-111.3659 222.6997,-112.0942 217.7286,-110.033 221.5,-108.7 221.5,-108.7 221.5,-108.7 217.7286,-110.033 220.3003,-105.3058 213.9573,-111.3659 213.9573,-111.3659"/>
<ellipse fill="none" stroke="#000000" cx="210.9402" cy="-112.4323" rx="3.2" ry="3.2"/>
</g>
<!-- photo -->
<g id="node3" class="node">
<title>photo</title>
<g id="a_node3"><a xlink:href="../../tables/photo.html" xlink:title="photo" target="_top">
<polygon fill="#ffffff" stroke="transparent" points="443,-138.7 443,-316.7 622,-316.7 622,-138.7 443,-138.7"/>
<polygon fill="#f5f5f5" stroke="transparent" points="445.5,-291.7 445.5,-314.7 620.5,-314.7 620.5,-291.7 445.5,-291.7"/>
<polygon fill="none" stroke="#000000" points="445.5,-291.7 445.5,-314.7 620.5,-314.7 620.5,-291.7 445.5,-291.7"/>
<text text-anchor="start" x="450.5" y="-300.8" font-family="Helvetica,sans-Serif" font-weight="bold" font-size="11.00" fill="#000000">photo</text>
<text text-anchor="start" x="585.5437" y="-299.8" font-family="Helvetica,sans-Serif" font-size="11.00" fill="#000000">[table]</text>
<polygon fill="none" stroke="#000000" points="445.5,-269.7 445.5,-291.7 530.5,-291.7 530.5,-269.7 445.5,-269.7"/>
<image xlink:href="../../images/primaryKeys.png" width="11px" height="12px" preserveAspectRatio="xMinYMin meet" x="450.5" y="-286.7"/>
<text text-anchor="start" x="465.5" y="-276.8" font-family="Helvetica,sans-Serif" font-size="11.00" fill="#000000">id</text>
<polygon fill="none" stroke="#000000" points="530.5,-269.7 530.5,-291.7 620.5,-291.7 620.5,-269.7 530.5,-269.7"/>
<text text-anchor="start" x="533.5" y="-277.4" font-family="Helvetica,sans-Serif" font-size="11.00" fill="#000000">serial[10]</text>
<polygon fill="none" stroke="#000000" points="445.5,-247.7 445.5,-269.7 530.5,-269.7 530.5,-247.7 445.5,-247.7"/>
<text text-anchor="start" x="465.5" y="-254.8" font-family="Helvetica,sans-Serif" font-size="11.00" fill="#000000">url</text>
<polygon fill="none" stroke="#000000" points="530.5,-247.7 530.5,-269.7 620.5,-269.7 620.5,-247.7 530.5,-247.7"/>
<text text-anchor="start" x="533.5" y="-255.4" font-family="Helvetica,sans-Serif" font-size="11.00" fill="#000000">varchar[255]</text>
<polygon fill="none" stroke="#000000" points="445.5,-225.7 445.5,-247.7 530.5,-247.7 530.5,-225.7 445.5,-225.7"/>
<text text-anchor="start" x="465.5" y="-232.8" font-family="Helvetica,sans-Serif" font-size="11.00" fill="#000000">description</text>
<polygon fill="none" stroke="#000000" points="530.5,-225.7 530.5,-247.7 620.5,-247.7 620.5,-225.7 530.5,-225.7"/>
<text text-anchor="start" x="533.0043" y="-233.4" font-family="Helvetica,sans-Serif" font-size="11.00" fill="#000000">text[2147483647]</text>
<polygon fill="#ffffff" stroke="transparent" points="445.5,-203.7 445.5,-225.7 530.5,-225.7 530.5,-203.7 445.5,-203.7"/>
<polygon fill="none" stroke="#000000" points="445.5,-203.7 445.5,-225.7 530.5,-225.7 530.5,-203.7 445.5,-203.7"/>
<image xlink:href="../../images/foreignKeys.png" width="11px" height="12px" preserveAspectRatio="xMinYMin meet" x="450.5" y="-220.7"/>
<text text-anchor="start" x="465.5" y="-210.8" font-family="Helvetica,sans-Serif" font-size="11.00" fill="#000000">site_id</text>
<polygon fill="none" stroke="#000000" points="530.5,-203.7 530.5,-225.7 620.5,-225.7 620.5,-203.7 530.5,-203.7"/>
<text text-anchor="start" x="533.5" y="-211.4" font-family="Helvetica,sans-Serif" font-size="11.00" fill="#000000">int4[10]</text>
<polygon fill="#ffffff" stroke="transparent" points="445.5,-181.7 445.5,-203.7 530.5,-203.7 530.5,-181.7 445.5,-181.7"/>
<polygon fill="none" stroke="#000000" points="445.5,-181.7 445.5,-203.7 530.5,-203.7 530.5,-181.7 445.5,-181.7"/>
<image xlink:href="../../images/foreignKeys.png" width="11px" height="12px" preserveAspectRatio="xMinYMin meet" x="450.5" y="-198.7"/>
<text text-anchor="start" x="465.5" y="-188.8" font-family="Helvetica,sans-Serif" font-size="11.00" fill="#000000">eg_id</text>
<polygon fill="none" stroke="#000000" points="530.5,-181.7 530.5,-203.7 620.5,-203.7 620.5,-181.7 530.5,-181.7"/>
<text text-anchor="start" x="533.5" y="-189.4" font-family="Helvetica,sans-Serif" font-size="11.00" fill="#000000">int4[10]</text>
<polygon fill="#ffffff" stroke="transparent" points="445.5,-159.7 445.5,-181.7 530.5,-181.7 530.5,-159.7 445.5,-159.7"/>
<polygon fill="none" stroke="#000000" points="445.5,-159.7 445.5,-181.7 530.5,-181.7 530.5,-159.7 445.5,-159.7"/>
<text text-anchor="start" x="465.5" y="-166.8" font-family="Helvetica,sans-Serif" font-size="11.00" fill="#000000">mimetype</text>
<polygon fill="none" stroke="#000000" points="530.5,-159.7 530.5,-181.7 620.5,-181.7 620.5,-159.7 530.5,-159.7"/>
<text text-anchor="start" x="533.5" y="-167.4" font-family="Helvetica,sans-Serif" font-size="11.00" fill="#000000">varchar[50]</text>
<polygon fill="#ffffff" stroke="transparent" points="445.5,-140.7 445.5,-159.7 476.5,-159.7 476.5,-140.7 445.5,-140.7"/>
<polygon fill="none" stroke="#000000" points="445.5,-140.7 445.5,-159.7 476.5,-159.7 476.5,-140.7 445.5,-140.7"/>
<text text-anchor="start" x="448.5" y="-146.8" font-family="Helvetica,sans-Serif" font-size="11.00" fill="#000000">&lt; 2</text>
<polygon fill="#ffffff" stroke="transparent" points="476.5,-140.7 476.5,-159.7 530.5,-159.7 530.5,-140.7 476.5,-140.7"/>
<polygon fill="none" stroke="#000000" points="476.5,-140.7 476.5,-159.7 530.5,-159.7 530.5,-140.7 476.5,-140.7"/>
<text text-anchor="start" x="488.9956" y="-146.8" font-family="Helvetica,sans-Serif" font-size="11.00" fill="#000000">10 rows</text>
<polygon fill="#ffffff" stroke="transparent" points="530.5,-140.7 530.5,-159.7 620.5,-159.7 620.5,-140.7 530.5,-140.7"/>
<polygon fill="none" stroke="#000000" points="530.5,-140.7 530.5,-159.7 620.5,-159.7 620.5,-140.7 530.5,-140.7"/>
<text text-anchor="start" x="601.9053" y="-146.8" font-family="Helvetica,sans-Serif" font-size="11.00" fill="#000000">0 &gt;</text>
<polygon fill="none" stroke="#000000" stroke-width="2" points="444,-139.7 444,-315.7 621,-315.7 621,-139.7 444,-139.7"/>
</a>
</g>
</g>
<!-- photo&#45;&gt;entite_geol -->
<g id="edge2" class="edge">
<title>photo:w&#45;&gt;entite_geol:e</title>
<path fill="none" stroke="#000000" d="M431.1506,-190.044C418.8075,-185.037 412.7155,-174.7 394.5,-174.7"/>
<polygon fill="#000000" stroke="#000000" points="437.6336,-191.2439 444.8448,-196.2399 441.5668,-191.972 445.5,-192.7 445.5,-192.7 445.5,-192.7 441.5668,-191.972 446.1552,-189.1601 437.6336,-191.2439 437.6336,-191.2439"/>
<ellipse fill="none" stroke="#000000" cx="434.4871" cy="-190.6615" rx="3.2" ry="3.2"/>
</g>
<!-- photo&#45;&gt;site -->
<g id="edge3" class="edge">
<title>photo:w&#45;&gt;site:e</title>
<path fill="none" stroke="#000000" d="M431.0084,-215.5941C421.8542,-216.8111 415.5091,-218.9262 402,-219.7 318.1375,-224.5039 289.1052,-255.2528 213,-219.7 187.273,-207.6815 200.3958,-170.7 172,-170.7"/>
<polygon fill="#000000" stroke="#000000" points="437.5152,-215.1927 445.7217,-218.2932 441.5076,-214.9464 445.5,-214.7 445.5,-214.7 445.5,-214.7 441.5076,-214.9464 445.2783,-211.1068 437.5152,-215.1927 437.5152,-215.1927"/>
<ellipse fill="none" stroke="#000000" cx="434.3213" cy="-215.3898" rx="3.2" ry="3.2"/>
</g>
</g>
</svg>
