<?xml version="1.0" encoding="UTF-8" standalone="no"?>
<!DOCTYPE svg PUBLIC "-//W3C//DTD SVG 1.1//EN"
 "http://www.w3.org/Graphics/SVG/1.1/DTD/svg11.dtd">
<!-- Generated by graphviz version 2.40.1 (20161225.0304)
 -->
<!-- Title: twoDegreesRelationshipsDiagram Pages: 1 -->
<svg width="808pt" height="712pt"
 viewBox="0.00 0.00 808.00 712.20" xmlns="http://www.w3.org/2000/svg" xmlns:xlink="http://www.w3.org/1999/xlink">
<g id="graph0" class="graph" transform="scale(1 1) rotate(0) translate(4 708.2)">
<title>twoDegreesRelationshipsDiagram</title>
<polygon fill="#ffffff" stroke="transparent" points="-4,4 -4,-708.2 804,-708.2 804,4 -4,4"/>
<text text-anchor="middle" x="72.4936" y="-7.3" font-family="Helvetica,sans-Serif" font-size="11.00" fill="#000000">Generated by SchemaSpy</text>
<!-- affleurement -->
<g id="node1" class="node">
<title>affleurement</title>
<g id="a_node1"><a xlink:href="../../tables/affleurement.html" xlink:title="affleurement" target="_top">
<polygon fill="#ffffff" stroke="transparent" points="650.5,-393.2 650.5,-454.2 754.5,-454.2 754.5,-393.2 650.5,-393.2"/>
<polygon fill="#f5f5f5" stroke="transparent" points="650.5,-430.7 650.5,-453.7 754.5,-453.7 754.5,-430.7 650.5,-430.7"/>
<polygon fill="none" stroke="#000000" points="650.5,-430.7 650.5,-453.7 754.5,-453.7 754.5,-430.7 650.5,-430.7"/>
<text text-anchor="start" x="655.4376" y="-439.8" font-family="Helvetica,sans-Serif" font-weight="bold" font-size="11.00" fill="#000000">affleurement</text>
<text text-anchor="start" x="720.0219" y="-438.8" font-family="Helvetica,sans-Serif" font-size="11.00" fill="#000000">[table]</text>
<polygon fill="none" stroke="#000000" points="650.5,-411.7 650.5,-430.7 754.5,-430.7 754.5,-411.7 650.5,-411.7"/>
<text text-anchor="start" x="653.5" y="-417.8" font-family="Helvetica,sans-Serif" font-size="11.00" fill="#000000">...</text>
<polygon fill="#ffffff" stroke="transparent" points="650.5,-392.7 650.5,-411.7 687.5,-411.7 687.5,-392.7 650.5,-392.7"/>
<polygon fill="none" stroke="#000000" points="650.5,-392.7 650.5,-411.7 687.5,-411.7 687.5,-392.7 650.5,-392.7"/>
<text text-anchor="start" x="653.5" y="-398.8" font-family="Helvetica,sans-Serif" font-size="11.00" fill="#000000">&lt; 1</text>
<polygon fill="#ffffff" stroke="transparent" points="687.5,-392.7 687.5,-411.7 733.5,-411.7 733.5,-392.7 687.5,-392.7"/>
<polygon fill="none" stroke="#000000" points="687.5,-392.7 687.5,-411.7 733.5,-411.7 733.5,-392.7 687.5,-392.7"/>
<text text-anchor="start" x="698.1105" y="-398.8" font-family="Helvetica,sans-Serif" font-size="11.00" fill="#000000">9 rows</text>
<polygon fill="#ffffff" stroke="transparent" points="733.5,-392.7 733.5,-411.7 754.5,-411.7 754.5,-392.7 733.5,-392.7"/>
<polygon fill="none" stroke="#000000" points="733.5,-392.7 733.5,-411.7 754.5,-411.7 754.5,-392.7 733.5,-392.7"/>
<text text-anchor="start" x="745.3862" y="-398.8" font-family="Helvetica,sans-Serif" font-size="11.00" fill="#000000"> &#160;</text>
</a>
</g>
</g>
<!-- entite_geol -->
<g id="node2" class="node">
<title>entite_geol</title>
<g id="a_node2"><a xlink:href="../../tables/entite_geol.html" xlink:title="entite_geol" target="_top">
<polygon fill="#ffffff" stroke="transparent" points="391,-348.2 391,-519.2 564,-519.2 564,-348.2 391,-348.2"/>
<polygon fill="#f5f5f5" stroke="transparent" points="391.5,-495.7 391.5,-518.7 564.5,-518.7 564.5,-495.7 391.5,-495.7"/>
<polygon fill="none" stroke="#000000" points="391.5,-495.7 391.5,-518.7 564.5,-518.7 564.5,-495.7 391.5,-495.7"/>
<text text-anchor="start" x="396.5" y="-504.8" font-family="Helvetica,sans-Serif" font-weight="bold" font-size="11.00" fill="#000000">entite_geol</text>
<text text-anchor="start" x="529.5437" y="-503.8" font-family="Helvetica,sans-Serif" font-size="11.00" fill="#000000">[table]</text>
<polygon fill="none" stroke="#000000" points="391.5,-473.7 391.5,-495.7 564.5,-495.7 564.5,-473.7 391.5,-473.7"/>
<image xlink:href="../../images/primaryKeys.png" width="11px" height="12px" preserveAspectRatio="xMinYMin meet" x="396.5" y="-490.7"/>
<text text-anchor="start" x="411.5" y="-480.8" font-family="Helvetica,sans-Serif" font-size="11.00" fill="#000000">id</text>
<polygon fill="#ffffff" stroke="transparent" points="391.5,-451.7 391.5,-473.7 564.5,-473.7 564.5,-451.7 391.5,-451.7"/>
<polygon fill="none" stroke="#000000" points="391.5,-451.7 391.5,-473.7 564.5,-473.7 564.5,-451.7 391.5,-451.7"/>
<text text-anchor="start" x="411.5" y="-458.8" font-family="Helvetica,sans-Serif" font-size="11.00" fill="#000000">geom</text>
<polygon fill="#ffffff" stroke="transparent" points="391.5,-429.7 391.5,-451.7 564.5,-451.7 564.5,-429.7 391.5,-429.7"/>
<polygon fill="none" stroke="#000000" points="391.5,-429.7 391.5,-451.7 564.5,-451.7 564.5,-429.7 391.5,-429.7"/>
<image xlink:href="../../images/foreignKeys.png" width="11px" height="12px" preserveAspectRatio="xMinYMin meet" x="396.5" y="-446.7"/>
<text text-anchor="start" x="411.5" y="-436.8" font-family="Helvetica,sans-Serif" font-size="11.00" fill="#000000">ere_geol_id</text>
<polygon fill="#ffffff" stroke="transparent" points="391.5,-407.7 391.5,-429.7 564.5,-429.7 564.5,-407.7 391.5,-407.7"/>
<polygon fill="none" stroke="#000000" points="391.5,-407.7 391.5,-429.7 564.5,-429.7 564.5,-407.7 391.5,-407.7"/>
<image xlink:href="../../images/foreignKeys.png" width="11px" height="12px" preserveAspectRatio="xMinYMin meet" x="396.5" y="-424.7"/>
<text text-anchor="start" x="411.5" y="-414.8" font-family="Helvetica,sans-Serif" font-size="11.00" fill="#000000">site_id</text>
<polygon fill="#ffffff" stroke="transparent" points="391.5,-385.7 391.5,-407.7 564.5,-407.7 564.5,-385.7 391.5,-385.7"/>
<polygon fill="none" stroke="#000000" points="391.5,-385.7 391.5,-407.7 564.5,-407.7 564.5,-385.7 391.5,-385.7"/>
<image xlink:href="../../images/foreignKeys.png" width="11px" height="12px" preserveAspectRatio="xMinYMin meet" x="396.5" y="-402.7"/>
<text text-anchor="start" x="411.5" y="-392.8" font-family="Helvetica,sans-Serif" font-size="11.00" fill="#000000">s_fgeol_id</text>
<polygon fill="none" stroke="#000000" points="391.5,-366.7 391.5,-385.7 564.5,-385.7 564.5,-366.7 391.5,-366.7"/>
<text text-anchor="start" x="394.5" y="-372.8" font-family="Helvetica,sans-Serif" font-size="11.00" fill="#000000">...</text>
<polygon fill="#ffffff" stroke="transparent" points="391.5,-347.7 391.5,-366.7 455.5,-366.7 455.5,-347.7 391.5,-347.7"/>
<polygon fill="none" stroke="#000000" points="391.5,-347.7 391.5,-366.7 455.5,-366.7 455.5,-347.7 391.5,-347.7"/>
<text text-anchor="start" x="394.5" y="-353.8" font-family="Helvetica,sans-Serif" font-size="11.00" fill="#000000">&lt; 3</text>
<polygon fill="#ffffff" stroke="transparent" points="455.5,-347.7 455.5,-366.7 521.5,-366.7 521.5,-347.7 455.5,-347.7"/>
<polygon fill="none" stroke="#000000" points="455.5,-347.7 455.5,-366.7 521.5,-366.7 521.5,-347.7 455.5,-347.7"/>
<text text-anchor="start" x="479.9956" y="-353.8" font-family="Helvetica,sans-Serif" font-size="11.00" fill="#000000">24 rows</text>
<polygon fill="#ffffff" stroke="transparent" points="521.5,-347.7 521.5,-366.7 564.5,-366.7 564.5,-347.7 521.5,-347.7"/>
<polygon fill="none" stroke="#000000" points="521.5,-347.7 521.5,-366.7 564.5,-366.7 564.5,-347.7 521.5,-347.7"/>
<text text-anchor="start" x="545.9053" y="-353.8" font-family="Helvetica,sans-Serif" font-size="11.00" fill="#000000">5 &gt;</text>
</a>
</g>
</g>
<!-- affleurement&#45;&gt;entite_geol -->
<g id="edge1" class="edge">
<title>affleurement:w&#45;&gt;entite_geol:e</title>
<path fill="none" stroke="#000000" d="M635.9123,-423.1307C604.2506,-434.8211 606.5614,-484.7 564.5,-484.7"/>
<polygon fill="#000000" stroke="#000000" points="642.6088,-422.0149 651.0917,-424.251 646.5544,-421.3575 650.5,-420.7 650.5,-420.7 650.5,-420.7 646.5544,-421.3575 649.9083,-417.149 642.6088,-422.0149 642.6088,-422.0149"/>
<ellipse fill="none" stroke="#000000" cx="639.4523" cy="-422.5409" rx="3.2" ry="3.2"/>
</g>
<!-- site -->
<g id="node4" class="node">
<title>site</title>
<g id="a_node4"><a xlink:href="../../tables/site.html" xlink:title="site" target="_top">
<polygon fill="#ffffff" stroke="transparent" points="178,-137.2 178,-264.2 342,-264.2 342,-137.2 178,-137.2"/>
<polygon fill="#f5f5f5" stroke="transparent" points="178,-240.7 178,-263.7 342,-263.7 342,-240.7 178,-240.7"/>
<polygon fill="none" stroke="#000000" points="178,-240.7 178,-263.7 342,-263.7 342,-240.7 178,-240.7"/>
<text text-anchor="start" x="183" y="-249.8" font-family="Helvetica,sans-Serif" font-weight="bold" font-size="11.00" fill="#000000">site</text>
<text text-anchor="start" x="307.0437" y="-248.8" font-family="Helvetica,sans-Serif" font-size="11.00" fill="#000000">[table]</text>
<polygon fill="none" stroke="#000000" points="178,-218.7 178,-240.7 342,-240.7 342,-218.7 178,-218.7"/>
<image xlink:href="../../images/primaryKeys.png" width="11px" height="12px" preserveAspectRatio="xMinYMin meet" x="183" y="-235.7"/>
<text text-anchor="start" x="198" y="-225.8" font-family="Helvetica,sans-Serif" font-size="11.00" fill="#000000">id</text>
<polygon fill="#ffffff" stroke="transparent" points="178,-196.7 178,-218.7 342,-218.7 342,-196.7 178,-196.7"/>
<polygon fill="none" stroke="#000000" points="178,-196.7 178,-218.7 342,-218.7 342,-196.7 178,-196.7"/>
<text text-anchor="start" x="198" y="-203.8" font-family="Helvetica,sans-Serif" font-size="11.00" fill="#000000">geom</text>
<polygon fill="#ffffff" stroke="transparent" points="178,-174.7 178,-196.7 342,-196.7 342,-174.7 178,-174.7"/>
<polygon fill="none" stroke="#000000" points="178,-174.7 178,-196.7 342,-196.7 342,-174.7 178,-174.7"/>
<image xlink:href="../../images/foreignKeys.png" width="11px" height="12px" preserveAspectRatio="xMinYMin meet" x="183" y="-191.7"/>
<text text-anchor="start" x="198" y="-181.8" font-family="Helvetica,sans-Serif" font-size="11.00" fill="#000000">ep_id</text>
<polygon fill="none" stroke="#000000" points="178,-155.7 178,-174.7 342,-174.7 342,-155.7 178,-155.7"/>
<text text-anchor="start" x="181" y="-161.8" font-family="Helvetica,sans-Serif" font-size="11.00" fill="#000000">...</text>
<polygon fill="#ffffff" stroke="transparent" points="178,-136.7 178,-155.7 238,-155.7 238,-136.7 178,-136.7"/>
<polygon fill="none" stroke="#000000" points="178,-136.7 178,-155.7 238,-155.7 238,-136.7 178,-136.7"/>
<text text-anchor="start" x="181" y="-142.8" font-family="Helvetica,sans-Serif" font-size="11.00" fill="#000000">&lt; 1</text>
<polygon fill="#ffffff" stroke="transparent" points="238,-136.7 238,-155.7 301,-155.7 301,-136.7 238,-136.7"/>
<polygon fill="none" stroke="#000000" points="238,-136.7 238,-155.7 301,-155.7 301,-136.7 238,-136.7"/>
<text text-anchor="start" x="259.4956" y="-142.8" font-family="Helvetica,sans-Serif" font-size="11.00" fill="#000000">10 rows</text>
<polygon fill="#ffffff" stroke="transparent" points="301,-136.7 301,-155.7 342,-155.7 342,-136.7 301,-136.7"/>
<polygon fill="none" stroke="#000000" points="301,-136.7 301,-155.7 342,-155.7 342,-136.7 301,-136.7"/>
<text text-anchor="start" x="323.4053" y="-142.8" font-family="Helvetica,sans-Serif" font-size="11.00" fill="#000000">5 &gt;</text>
</a>
</g>
</g>
<!-- entite_geol&#45;&gt;site -->
<g id="edge7" class="edge">
<title>entite_geol:w&#45;&gt;site:e</title>
<path fill="none" stroke="#000000" d="M377.2266,-416.4458C319.7961,-395.1219 423.2365,-229.7 342,-229.7"/>
<polygon fill="#000000" stroke="#000000" points="383.5979,-417.452 390.9384,-422.2559 387.549,-418.076 391.5,-418.7 391.5,-418.7 391.5,-418.7 387.549,-418.076 392.0616,-415.1441 383.5979,-417.452 383.5979,-417.452"/>
<ellipse fill="none" stroke="#000000" cx="380.4371" cy="-416.9528" rx="3.2" ry="3.2"/>
</g>
<!-- echelle_geol -->
<g id="node7" class="node">
<title>echelle_geol</title>
<g id="a_node7"><a xlink:href="../../tables/echelle_geol.html" xlink:title="echelle_geol" target="_top">
<polygon fill="#ffffff" stroke="transparent" points="208,-432.2 208,-493.2 312,-493.2 312,-432.2 208,-432.2"/>
<polygon fill="#f5f5f5" stroke="transparent" points="208,-469.7 208,-492.7 312,-492.7 312,-469.7 208,-469.7"/>
<polygon fill="none" stroke="#000000" points="208,-469.7 208,-492.7 312,-492.7 312,-469.7 208,-469.7"/>
<text text-anchor="start" x="212.6291" y="-478.8" font-family="Helvetica,sans-Serif" font-weight="bold" font-size="11.00" fill="#000000">echelle_geol</text>
<text text-anchor="start" x="277.5219" y="-477.8" font-family="Helvetica,sans-Serif" font-size="11.00" fill="#000000">[table]</text>
<polygon fill="none" stroke="#000000" points="208,-450.7 208,-469.7 312,-469.7 312,-450.7 208,-450.7"/>
<text text-anchor="start" x="211" y="-456.8" font-family="Helvetica,sans-Serif" font-size="11.00" fill="#000000">...</text>
<polygon fill="#ffffff" stroke="transparent" points="208,-431.7 208,-450.7 238,-450.7 238,-431.7 208,-431.7"/>
<polygon fill="none" stroke="#000000" points="208,-431.7 208,-450.7 238,-450.7 238,-431.7 208,-431.7"/>
<text text-anchor="start" x="211" y="-437.8" font-family="Helvetica,sans-Serif" font-size="11.00" fill="#000000">&lt; 1</text>
<polygon fill="#ffffff" stroke="transparent" points="238,-431.7 238,-450.7 286,-450.7 286,-431.7 238,-431.7"/>
<polygon fill="none" stroke="#000000" points="238,-431.7 238,-450.7 286,-450.7 286,-431.7 238,-431.7"/>
<text text-anchor="start" x="244.4956" y="-437.8" font-family="Helvetica,sans-Serif" font-size="11.00" fill="#000000">74 rows</text>
<polygon fill="#ffffff" stroke="transparent" points="286,-431.7 286,-450.7 312,-450.7 312,-431.7 286,-431.7"/>
<polygon fill="none" stroke="#000000" points="286,-431.7 286,-450.7 312,-450.7 312,-431.7 286,-431.7"/>
<text text-anchor="start" x="293.4053" y="-437.8" font-family="Helvetica,sans-Serif" font-size="11.00" fill="#000000">2 &gt;</text>
</a>
</g>
</g>
<!-- entite_geol&#45;&gt;echelle_geol -->
<g id="edge5" class="edge">
<title>entite_geol:w&#45;&gt;echelle_geol:e</title>
<path fill="none" stroke="#000000" d="M377.0786,-441.8316C352.4904,-445.922 342.9359,-459.7 312,-459.7"/>
<polygon fill="#000000" stroke="#000000" points="383.5245,-441.3259 391.7816,-444.289 387.5123,-441.0129 391.5,-440.7 391.5,-440.7 391.5,-440.7 387.5123,-441.0129 391.2184,-437.111 383.5245,-441.3259 383.5245,-441.3259"/>
<ellipse fill="none" stroke="#000000" cx="380.3343" cy="-441.5762" rx="3.2" ry="3.2"/>
</g>
<!-- infoterre.s_fgeol -->
<g id="node8" class="node">
<title>infoterre.s_fgeol</title>
<g id="a_node8"><a xlink:href="../../../infoterre/tables/s_fgeol.html" xlink:title="infoterre.s_fgeol" target="_top">
<polygon fill="#ffffff" stroke="transparent" points="199.5,-350.2 199.5,-411.2 320.5,-411.2 320.5,-350.2 199.5,-350.2"/>
<polygon fill="#f5f5f5" stroke="transparent" points="200,-387.7 200,-410.7 321,-410.7 321,-387.7 200,-387.7"/>
<polygon fill="none" stroke="#000000" points="200,-387.7 200,-410.7 321,-410.7 321,-387.7 200,-387.7"/>
<text text-anchor="start" x="204.5738" y="-396.8" font-family="Helvetica,sans-Serif" font-weight="bold" font-size="11.00" fill="#000000">infoterre.s_fgeol</text>
<text text-anchor="start" x="286.5219" y="-395.8" font-family="Helvetica,sans-Serif" font-size="11.00" fill="#000000">[table]</text>
<polygon fill="none" stroke="#000000" points="200,-368.7 200,-387.7 321,-387.7 321,-368.7 200,-368.7"/>
<text text-anchor="start" x="203" y="-374.8" font-family="Helvetica,sans-Serif" font-size="11.00" fill="#000000">...</text>
<polygon fill="#ffffff" stroke="transparent" points="200,-349.7 200,-368.7 237,-368.7 237,-349.7 200,-349.7"/>
<polygon fill="none" stroke="#000000" points="200,-349.7 200,-368.7 237,-368.7 237,-349.7 200,-349.7"/>
<text text-anchor="start" x="203" y="-355.8" font-family="Helvetica,sans-Serif" font-size="11.00" fill="#000000"> &#160;</text>
<polygon fill="#ffffff" stroke="transparent" points="237,-349.7 237,-368.7 287,-368.7 287,-349.7 237,-349.7"/>
<polygon fill="none" stroke="#000000" points="237,-349.7 237,-368.7 287,-368.7 287,-349.7 237,-349.7"/>
<text text-anchor="start" x="251.6105" y="-355.8" font-family="Helvetica,sans-Serif" font-size="11.00" fill="#000000">0 rows</text>
<polygon fill="#ffffff" stroke="transparent" points="287,-349.7 287,-368.7 321,-368.7 321,-349.7 287,-349.7"/>
<polygon fill="none" stroke="#000000" points="287,-349.7 287,-368.7 321,-368.7 321,-349.7 287,-349.7"/>
<text text-anchor="start" x="302.4053" y="-355.8" font-family="Helvetica,sans-Serif" font-size="11.00" fill="#000000">1 &gt;</text>
</a>
</g>
</g>
<!-- entite_geol&#45;&gt;infoterre.s_fgeol -->
<g id="edge6" class="edge">
<title>entite_geol:w&#45;&gt;infoterre.s_fgeol:e</title>
<path fill="none" stroke="#000000" d="M377.166,-395.2719C356.4107,-390.8532 348.0005,-377.7 321,-377.7"/>
<polygon fill="#000000" stroke="#000000" points="383.5394,-395.9068 391.1431,-400.2823 387.5197,-396.3034 391.5,-396.7 391.5,-396.7 391.5,-396.7 387.5197,-396.3034 391.8569,-393.1177 383.5394,-395.9068 383.5394,-395.9068"/>
<ellipse fill="none" stroke="#000000" cx="380.3552" cy="-395.5896" rx="3.2" ry="3.2"/>
</g>
<!-- commentaire -->
<g id="node3" class="node">
<title>commentaire</title>
<g id="a_node3"><a xlink:href="../../tables/commentaire.html" xlink:title="commentaire" target="_top">
<polygon fill="#ffffff" stroke="transparent" points="424.5,-38.2 424.5,-99.2 530.5,-99.2 530.5,-38.2 424.5,-38.2"/>
<polygon fill="#f5f5f5" stroke="transparent" points="424.5,-75.7 424.5,-98.7 530.5,-98.7 530.5,-75.7 424.5,-75.7"/>
<polygon fill="none" stroke="#000000" points="424.5,-75.7 424.5,-98.7 530.5,-98.7 530.5,-75.7 424.5,-75.7"/>
<text text-anchor="start" x="429.221" y="-84.8" font-family="Helvetica,sans-Serif" font-weight="bold" font-size="11.00" fill="#000000">commentaire</text>
<text text-anchor="start" x="496.0219" y="-83.8" font-family="Helvetica,sans-Serif" font-size="11.00" fill="#000000">[table]</text>
<polygon fill="none" stroke="#000000" points="424.5,-56.7 424.5,-75.7 530.5,-75.7 530.5,-56.7 424.5,-56.7"/>
<text text-anchor="start" x="427.5" y="-62.8" font-family="Helvetica,sans-Serif" font-size="11.00" fill="#000000">...</text>
<polygon fill="#ffffff" stroke="transparent" points="424.5,-37.7 424.5,-56.7 462.5,-56.7 462.5,-37.7 424.5,-37.7"/>
<polygon fill="none" stroke="#000000" points="424.5,-37.7 424.5,-56.7 462.5,-56.7 462.5,-37.7 424.5,-37.7"/>
<text text-anchor="start" x="427.5" y="-43.8" font-family="Helvetica,sans-Serif" font-size="11.00" fill="#000000">&lt; 1</text>
<polygon fill="#ffffff" stroke="transparent" points="462.5,-37.7 462.5,-56.7 509.5,-56.7 509.5,-37.7 462.5,-37.7"/>
<polygon fill="none" stroke="#000000" points="462.5,-37.7 462.5,-56.7 509.5,-56.7 509.5,-37.7 462.5,-37.7"/>
<text text-anchor="start" x="474.1105" y="-43.8" font-family="Helvetica,sans-Serif" font-size="11.00" fill="#000000">2 rows</text>
<polygon fill="#ffffff" stroke="transparent" points="509.5,-37.7 509.5,-56.7 530.5,-56.7 530.5,-37.7 509.5,-37.7"/>
<polygon fill="none" stroke="#000000" points="509.5,-37.7 509.5,-56.7 530.5,-56.7 530.5,-37.7 509.5,-37.7"/>
<text text-anchor="start" x="521.3862" y="-43.8" font-family="Helvetica,sans-Serif" font-size="11.00" fill="#000000"> &#160;</text>
</a>
</g>
</g>
<!-- commentaire&#45;&gt;site -->
<g id="edge2" class="edge">
<title>commentaire:w&#45;&gt;site:e</title>
<path fill="none" stroke="#000000" d="M410.2011,-68.5136C396.6675,-74.9767 393.8461,-91.7163 383,-109.7 353.8927,-157.9624 398.3604,-229.7 342,-229.7"/>
<polygon fill="#000000" stroke="#000000" points="416.6505,-67.2446 425.1951,-69.2323 420.5753,-66.4723 424.5,-65.7 424.5,-65.7 424.5,-65.7 420.5753,-66.4723 423.8049,-62.1677 416.6505,-67.2446 416.6505,-67.2446"/>
<ellipse fill="none" stroke="#000000" cx="413.5107" cy="-67.8624" rx="3.2" ry="3.2"/>
</g>
<!-- espace_protege -->
<g id="node11" class="node">
<title>espace_protege</title>
<g id="a_node11"><a xlink:href="../../tables/espace_protege.html" xlink:title="espace_protege" target="_top">
<polygon fill="#ffffff" stroke="transparent" points="8,-158.2 8,-219.2 129,-219.2 129,-158.2 8,-158.2"/>
<polygon fill="#f5f5f5" stroke="transparent" points="8.5,-195.7 8.5,-218.7 129.5,-218.7 129.5,-195.7 8.5,-195.7"/>
<polygon fill="none" stroke="#000000" points="8.5,-195.7 8.5,-218.7 129.5,-218.7 129.5,-195.7 8.5,-195.7"/>
<text text-anchor="start" x="13.0661" y="-204.8" font-family="Helvetica,sans-Serif" font-weight="bold" font-size="11.00" fill="#000000">espace_protege</text>
<text text-anchor="start" x="95.0219" y="-203.8" font-family="Helvetica,sans-Serif" font-size="11.00" fill="#000000">[table]</text>
<polygon fill="none" stroke="#000000" points="8.5,-176.7 8.5,-195.7 129.5,-195.7 129.5,-176.7 8.5,-176.7"/>
<text text-anchor="start" x="11.5" y="-182.8" font-family="Helvetica,sans-Serif" font-size="11.00" fill="#000000">...</text>
<polygon fill="#ffffff" stroke="transparent" points="8.5,-157.7 8.5,-176.7 45.5,-176.7 45.5,-157.7 8.5,-157.7"/>
<polygon fill="none" stroke="#000000" points="8.5,-157.7 8.5,-176.7 45.5,-176.7 45.5,-157.7 8.5,-157.7"/>
<text text-anchor="start" x="11.5" y="-163.8" font-family="Helvetica,sans-Serif" font-size="11.00" fill="#000000"> &#160;</text>
<polygon fill="#ffffff" stroke="transparent" points="45.5,-157.7 45.5,-176.7 95.5,-176.7 95.5,-157.7 45.5,-157.7"/>
<polygon fill="none" stroke="#000000" points="45.5,-157.7 45.5,-176.7 95.5,-176.7 95.5,-157.7 45.5,-157.7"/>
<text text-anchor="start" x="60.1105" y="-163.8" font-family="Helvetica,sans-Serif" font-size="11.00" fill="#000000">7 rows</text>
<polygon fill="#ffffff" stroke="transparent" points="95.5,-157.7 95.5,-176.7 129.5,-176.7 129.5,-157.7 95.5,-157.7"/>
<polygon fill="none" stroke="#000000" points="95.5,-157.7 95.5,-176.7 129.5,-176.7 129.5,-157.7 95.5,-157.7"/>
<text text-anchor="start" x="110.9053" y="-163.8" font-family="Helvetica,sans-Serif" font-size="11.00" fill="#000000">1 &gt;</text>
</a>
</g>
</g>
<!-- site&#45;&gt;espace_protege -->
<g id="edge11" class="edge">
<title>site:w&#45;&gt;espace_protege:e</title>
<path fill="none" stroke="#000000" d="M163.2829,-185.7C152.2886,-185.7 145.1615,-185.7 129.5,-185.7"/>
<polygon fill="#000000" stroke="#000000" points="170,-185.7001 178,-189.3 174,-185.7 178,-185.7 178,-185.7 178,-185.7 174,-185.7 178,-182.1 170,-185.7001 170,-185.7001"/>
<ellipse fill="none" stroke="#000000" cx="166.8" cy="-185.7001" rx="3.2" ry="3.2"/>
</g>
<!-- commentaire_eg -->
<g id="node5" class="node">
<title>commentaire_eg</title>
<g id="a_node5"><a xlink:href="../../tables/commentaire_eg.html" xlink:title="commentaire_eg" target="_top">
<polygon fill="#ffffff" stroke="transparent" points="640.5,-639.2 640.5,-700.2 764.5,-700.2 764.5,-639.2 640.5,-639.2"/>
<polygon fill="#f5f5f5" stroke="transparent" points="640.5,-676.7 640.5,-699.7 764.5,-699.7 764.5,-676.7 640.5,-676.7"/>
<polygon fill="none" stroke="#000000" points="640.5,-676.7 640.5,-699.7 764.5,-699.7 764.5,-676.7 640.5,-676.7"/>
<text text-anchor="start" x="645.0486" y="-685.8" font-family="Helvetica,sans-Serif" font-weight="bold" font-size="11.00" fill="#000000">commentaire_eg</text>
<text text-anchor="start" x="730.0219" y="-684.8" font-family="Helvetica,sans-Serif" font-size="11.00" fill="#000000">[table]</text>
<polygon fill="none" stroke="#000000" points="640.5,-657.7 640.5,-676.7 764.5,-676.7 764.5,-657.7 640.5,-657.7"/>
<text text-anchor="start" x="643.5" y="-663.8" font-family="Helvetica,sans-Serif" font-size="11.00" fill="#000000">...</text>
<polygon fill="#ffffff" stroke="transparent" points="640.5,-638.7 640.5,-657.7 690.5,-657.7 690.5,-638.7 640.5,-638.7"/>
<polygon fill="none" stroke="#000000" points="640.5,-638.7 640.5,-657.7 690.5,-657.7 690.5,-638.7 640.5,-638.7"/>
<text text-anchor="start" x="643.5" y="-644.8" font-family="Helvetica,sans-Serif" font-size="11.00" fill="#000000">&lt; 1</text>
<polygon fill="#ffffff" stroke="transparent" points="690.5,-638.7 690.5,-657.7 737.5,-657.7 737.5,-638.7 690.5,-638.7"/>
<polygon fill="none" stroke="#000000" points="690.5,-638.7 690.5,-657.7 737.5,-657.7 737.5,-638.7 690.5,-638.7"/>
<text text-anchor="start" x="707.6105" y="-644.8" font-family="Helvetica,sans-Serif" font-size="11.00" fill="#000000">1 row</text>
<polygon fill="#ffffff" stroke="transparent" points="737.5,-638.7 737.5,-657.7 764.5,-657.7 764.5,-638.7 737.5,-638.7"/>
<polygon fill="none" stroke="#000000" points="737.5,-638.7 737.5,-657.7 764.5,-657.7 764.5,-638.7 737.5,-638.7"/>
<text text-anchor="start" x="755.3862" y="-644.8" font-family="Helvetica,sans-Serif" font-size="11.00" fill="#000000"> &#160;</text>
</a>
</g>
</g>
<!-- commentaire_eg&#45;&gt;entite_geol -->
<g id="edge3" class="edge">
<title>commentaire_eg:w&#45;&gt;entite_geol:e</title>
<path fill="none" stroke="#000000" d="M626.1639,-664.6561C564.526,-644.6609 646.6795,-484.7 564.5,-484.7"/>
<polygon fill="#000000" stroke="#000000" points="632.5801,-665.5708 639.9919,-670.264 636.54,-666.1354 640.5,-666.7 640.5,-666.7 640.5,-666.7 636.54,-666.1354 641.0081,-663.136 632.5801,-665.5708 632.5801,-665.5708"/>
<ellipse fill="none" stroke="#000000" cx="629.4121" cy="-665.1191" rx="3.2" ry="3.2"/>
</g>
<!-- complement_eg -->
<g id="node6" class="node">
<title>complement_eg</title>
<g id="a_node6"><a xlink:href="../../tables/complement_eg.html" xlink:title="complement_eg" target="_top">
<polygon fill="#ffffff" stroke="transparent" points="642,-557.2 642,-618.2 763,-618.2 763,-557.2 642,-557.2"/>
<polygon fill="#f5f5f5" stroke="transparent" points="642.5,-594.7 642.5,-617.7 763.5,-617.7 763.5,-594.7 642.5,-594.7"/>
<polygon fill="none" stroke="#000000" points="642.5,-594.7 642.5,-617.7 763.5,-617.7 763.5,-594.7 642.5,-594.7"/>
<text text-anchor="start" x="647.3796" y="-603.8" font-family="Helvetica,sans-Serif" font-weight="bold" font-size="11.00" fill="#000000">complement_eg</text>
<text text-anchor="start" x="729.0219" y="-602.8" font-family="Helvetica,sans-Serif" font-size="11.00" fill="#000000">[table]</text>
<polygon fill="none" stroke="#000000" points="642.5,-575.7 642.5,-594.7 763.5,-594.7 763.5,-575.7 642.5,-575.7"/>
<text text-anchor="start" x="645.5" y="-581.8" font-family="Helvetica,sans-Serif" font-size="11.00" fill="#000000">...</text>
<polygon fill="#ffffff" stroke="transparent" points="642.5,-556.7 642.5,-575.7 688.5,-575.7 688.5,-556.7 642.5,-556.7"/>
<polygon fill="none" stroke="#000000" points="642.5,-556.7 642.5,-575.7 688.5,-575.7 688.5,-556.7 642.5,-556.7"/>
<text text-anchor="start" x="645.5" y="-562.8" font-family="Helvetica,sans-Serif" font-size="11.00" fill="#000000">&lt; 1</text>
<polygon fill="#ffffff" stroke="transparent" points="688.5,-556.7 688.5,-575.7 738.5,-575.7 738.5,-556.7 688.5,-556.7"/>
<polygon fill="none" stroke="#000000" points="688.5,-556.7 688.5,-575.7 738.5,-575.7 738.5,-556.7 688.5,-556.7"/>
<text text-anchor="start" x="703.1105" y="-562.8" font-family="Helvetica,sans-Serif" font-size="11.00" fill="#000000">2 rows</text>
<polygon fill="#ffffff" stroke="transparent" points="738.5,-556.7 738.5,-575.7 763.5,-575.7 763.5,-556.7 738.5,-556.7"/>
<polygon fill="none" stroke="#000000" points="738.5,-556.7 738.5,-575.7 763.5,-575.7 763.5,-556.7 738.5,-556.7"/>
<text text-anchor="start" x="754.3862" y="-562.8" font-family="Helvetica,sans-Serif" font-size="11.00" fill="#000000"> &#160;</text>
</a>
</g>
</g>
<!-- complement_eg&#45;&gt;entite_geol -->
<g id="edge4" class="edge">
<title>complement_eg:w&#45;&gt;entite_geol:e</title>
<path fill="none" stroke="#000000" d="M628.4031,-581.1584C618.2868,-574.7001 616.0557,-560.4078 605,-546.7 584.3372,-521.0805 597.4137,-484.7 564.5,-484.7"/>
<polygon fill="#000000" stroke="#000000" points="634.7411,-582.7507 641.6228,-588.1915 638.6206,-583.7253 642.5,-584.7 642.5,-584.7 642.5,-584.7 638.6206,-583.7253 643.3772,-581.2085 634.7411,-582.7507 634.7411,-582.7507"/>
<ellipse fill="none" stroke="#000000" cx="631.6376" cy="-581.971" rx="3.2" ry="3.2"/>
</g>
<!-- entite_geol_qcm -->
<g id="node9" class="node">
<title>entite_geol_qcm</title>
<g id="a_node9"><a xlink:href="../../tables/entite_geol_qcm.html" xlink:title="entite_geol_qcm" target="_top">
<polygon fill="#ffffff" stroke="transparent" points="641,-475.2 641,-536.2 764,-536.2 764,-475.2 641,-475.2"/>
<polygon fill="#f5f5f5" stroke="transparent" points="641.5,-512.7 641.5,-535.7 764.5,-535.7 764.5,-512.7 641.5,-512.7"/>
<polygon fill="none" stroke="#000000" points="641.5,-512.7 641.5,-535.7 764.5,-535.7 764.5,-512.7 641.5,-512.7"/>
<text text-anchor="start" x="646.1542" y="-521.8" font-family="Helvetica,sans-Serif" font-weight="bold" font-size="11.00" fill="#000000">entite_geol_qcm</text>
<text text-anchor="start" x="730.0219" y="-520.8" font-family="Helvetica,sans-Serif" font-size="11.00" fill="#000000">[table]</text>
<polygon fill="none" stroke="#000000" points="641.5,-493.7 641.5,-512.7 764.5,-512.7 764.5,-493.7 641.5,-493.7"/>
<text text-anchor="start" x="644.5" y="-499.8" font-family="Helvetica,sans-Serif" font-size="11.00" fill="#000000">...</text>
<polygon fill="#ffffff" stroke="transparent" points="641.5,-474.7 641.5,-493.7 685.5,-493.7 685.5,-474.7 641.5,-474.7"/>
<polygon fill="none" stroke="#000000" points="641.5,-474.7 641.5,-493.7 685.5,-493.7 685.5,-474.7 641.5,-474.7"/>
<text text-anchor="start" x="644.5" y="-480.8" font-family="Helvetica,sans-Serif" font-size="11.00" fill="#000000">&lt; 2</text>
<polygon fill="#ffffff" stroke="transparent" points="685.5,-474.7 685.5,-493.7 740.5,-493.7 740.5,-474.7 685.5,-474.7"/>
<polygon fill="none" stroke="#000000" points="685.5,-474.7 685.5,-493.7 740.5,-493.7 740.5,-474.7 685.5,-474.7"/>
<text text-anchor="start" x="698.9956" y="-480.8" font-family="Helvetica,sans-Serif" font-size="11.00" fill="#000000">34 rows</text>
<polygon fill="#ffffff" stroke="transparent" points="740.5,-474.7 740.5,-493.7 764.5,-493.7 764.5,-474.7 740.5,-474.7"/>
<polygon fill="none" stroke="#000000" points="740.5,-474.7 740.5,-493.7 764.5,-493.7 764.5,-474.7 740.5,-474.7"/>
<text text-anchor="start" x="755.3862" y="-480.8" font-family="Helvetica,sans-Serif" font-size="11.00" fill="#000000"> &#160;</text>
</a>
</g>
</g>
<!-- entite_geol_qcm&#45;&gt;entite_geol -->
<g id="edge8" class="edge">
<title>entite_geol_qcm:w&#45;&gt;entite_geol:e</title>
<path fill="none" stroke="#000000" d="M626.8915,-501.519C603.564,-497.5145 594.1535,-484.7 564.5,-484.7"/>
<polygon fill="#000000" stroke="#000000" points="633.526,-502.0553 641.2099,-506.2883 637.513,-502.3776 641.5,-502.7 641.5,-502.7 641.5,-502.7 637.513,-502.3776 641.7901,-499.1117 633.526,-502.0553 633.526,-502.0553"/>
<ellipse fill="none" stroke="#000000" cx="630.3364" cy="-501.7974" rx="3.2" ry="3.2"/>
</g>
<!-- photo -->
<g id="node10" class="node">
<title>photo</title>
<g id="a_node10"><a xlink:href="../../tables/photo.html" xlink:title="photo" target="_top">
<polygon fill="#ffffff" stroke="transparent" points="613,-193.7 613,-371.7 792,-371.7 792,-193.7 613,-193.7"/>
<polygon fill="#f5f5f5" stroke="transparent" points="615.5,-346.7 615.5,-369.7 790.5,-369.7 790.5,-346.7 615.5,-346.7"/>
<polygon fill="none" stroke="#000000" points="615.5,-346.7 615.5,-369.7 790.5,-369.7 790.5,-346.7 615.5,-346.7"/>
<text text-anchor="start" x="620.5" y="-355.8" font-family="Helvetica,sans-Serif" font-weight="bold" font-size="11.00" fill="#000000">photo</text>
<text text-anchor="start" x="755.5437" y="-354.8" font-family="Helvetica,sans-Serif" font-size="11.00" fill="#000000">[table]</text>
<polygon fill="none" stroke="#000000" points="615.5,-324.7 615.5,-346.7 700.5,-346.7 700.5,-324.7 615.5,-324.7"/>
<image xlink:href="../../images/primaryKeys.png" width="11px" height="12px" preserveAspectRatio="xMinYMin meet" x="620.5" y="-341.7"/>
<text text-anchor="start" x="635.5" y="-331.8" font-family="Helvetica,sans-Serif" font-size="11.00" fill="#000000">id</text>
<polygon fill="none" stroke="#000000" points="700.5,-324.7 700.5,-346.7 790.5,-346.7 790.5,-324.7 700.5,-324.7"/>
<text text-anchor="start" x="703.5" y="-332.4" font-family="Helvetica,sans-Serif" font-size="11.00" fill="#000000">serial[10]</text>
<polygon fill="none" stroke="#000000" points="615.5,-302.7 615.5,-324.7 700.5,-324.7 700.5,-302.7 615.5,-302.7"/>
<text text-anchor="start" x="635.5" y="-309.8" font-family="Helvetica,sans-Serif" font-size="11.00" fill="#000000">url</text>
<polygon fill="none" stroke="#000000" points="700.5,-302.7 700.5,-324.7 790.5,-324.7 790.5,-302.7 700.5,-302.7"/>
<text text-anchor="start" x="703.5" y="-310.4" font-family="Helvetica,sans-Serif" font-size="11.00" fill="#000000">varchar[255]</text>
<polygon fill="none" stroke="#000000" points="615.5,-280.7 615.5,-302.7 700.5,-302.7 700.5,-280.7 615.5,-280.7"/>
<text text-anchor="start" x="635.5" y="-287.8" font-family="Helvetica,sans-Serif" font-size="11.00" fill="#000000">description</text>
<polygon fill="none" stroke="#000000" points="700.5,-280.7 700.5,-302.7 790.5,-302.7 790.5,-280.7 700.5,-280.7"/>
<text text-anchor="start" x="703.0043" y="-288.4" font-family="Helvetica,sans-Serif" font-size="11.00" fill="#000000">text[2147483647]</text>
<polygon fill="#ffffff" stroke="transparent" points="615.5,-258.7 615.5,-280.7 700.5,-280.7 700.5,-258.7 615.5,-258.7"/>
<polygon fill="none" stroke="#000000" points="615.5,-258.7 615.5,-280.7 700.5,-280.7 700.5,-258.7 615.5,-258.7"/>
<image xlink:href="../../images/foreignKeys.png" width="11px" height="12px" preserveAspectRatio="xMinYMin meet" x="620.5" y="-275.7"/>
<text text-anchor="start" x="635.5" y="-265.8" font-family="Helvetica,sans-Serif" font-size="11.00" fill="#000000">site_id</text>
<polygon fill="none" stroke="#000000" points="700.5,-258.7 700.5,-280.7 790.5,-280.7 790.5,-258.7 700.5,-258.7"/>
<text text-anchor="start" x="703.5" y="-266.4" font-family="Helvetica,sans-Serif" font-size="11.00" fill="#000000">int4[10]</text>
<polygon fill="#ffffff" stroke="transparent" points="615.5,-236.7 615.5,-258.7 700.5,-258.7 700.5,-236.7 615.5,-236.7"/>
<polygon fill="none" stroke="#000000" points="615.5,-236.7 615.5,-258.7 700.5,-258.7 700.5,-236.7 615.5,-236.7"/>
<image xlink:href="../../images/foreignKeys.png" width="11px" height="12px" preserveAspectRatio="xMinYMin meet" x="620.5" y="-253.7"/>
<text text-anchor="start" x="635.5" y="-243.8" font-family="Helvetica,sans-Serif" font-size="11.00" fill="#000000">eg_id</text>
<polygon fill="none" stroke="#000000" points="700.5,-236.7 700.5,-258.7 790.5,-258.7 790.5,-236.7 700.5,-236.7"/>
<text text-anchor="start" x="703.5" y="-244.4" font-family="Helvetica,sans-Serif" font-size="11.00" fill="#000000">int4[10]</text>
<polygon fill="#ffffff" stroke="transparent" points="615.5,-214.7 615.5,-236.7 700.5,-236.7 700.5,-214.7 615.5,-214.7"/>
<polygon fill="none" stroke="#000000" points="615.5,-214.7 615.5,-236.7 700.5,-236.7 700.5,-214.7 615.5,-214.7"/>
<text text-anchor="start" x="635.5" y="-221.8" font-family="Helvetica,sans-Serif" font-size="11.00" fill="#000000">mimetype</text>
<polygon fill="none" stroke="#000000" points="700.5,-214.7 700.5,-236.7 790.5,-236.7 790.5,-214.7 700.5,-214.7"/>
<text text-anchor="start" x="703.5" y="-222.4" font-family="Helvetica,sans-Serif" font-size="11.00" fill="#000000">varchar[50]</text>
<polygon fill="#ffffff" stroke="transparent" points="615.5,-195.7 615.5,-214.7 646.5,-214.7 646.5,-195.7 615.5,-195.7"/>
<polygon fill="none" stroke="#000000" points="615.5,-195.7 615.5,-214.7 646.5,-214.7 646.5,-195.7 615.5,-195.7"/>
<text text-anchor="start" x="618.5" y="-201.8" font-family="Helvetica,sans-Serif" font-size="11.00" fill="#000000">&lt; 2</text>
<polygon fill="#ffffff" stroke="transparent" points="646.5,-195.7 646.5,-214.7 700.5,-214.7 700.5,-195.7 646.5,-195.7"/>
<polygon fill="none" stroke="#000000" points="646.5,-195.7 646.5,-214.7 700.5,-214.7 700.5,-195.7 646.5,-195.7"/>
<text text-anchor="start" x="658.9956" y="-201.8" font-family="Helvetica,sans-Serif" font-size="11.00" fill="#000000">10 rows</text>
<polygon fill="#ffffff" stroke="transparent" points="700.5,-195.7 700.5,-214.7 790.5,-214.7 790.5,-195.7 700.5,-195.7"/>
<polygon fill="none" stroke="#000000" points="700.5,-195.7 700.5,-214.7 790.5,-214.7 790.5,-195.7 700.5,-195.7"/>
<text text-anchor="start" x="771.9053" y="-201.8" font-family="Helvetica,sans-Serif" font-size="11.00" fill="#000000">0 &gt;</text>
<polygon fill="none" stroke="#000000" stroke-width="2" points="614,-194.7 614,-370.7 791,-370.7 791,-194.7 614,-194.7"/>
</a>
</g>
</g>
<!-- photo&#45;&gt;entite_geol -->
<g id="edge9" class="edge">
<title>photo:w&#45;&gt;entite_geol:e</title>
<path fill="none" stroke="#000000" d="M601.1205,-249.4714C523.7594,-271.1592 666.7732,-484.7 564.5,-484.7"/>
<polygon fill="#000000" stroke="#000000" points="607.56,-248.6782 615.9402,-251.273 611.53,-248.1891 615.5,-247.7 615.5,-247.7 615.5,-247.7 611.53,-248.1891 615.0598,-244.127 607.56,-248.6782 607.56,-248.6782"/>
<ellipse fill="none" stroke="#000000" cx="604.384" cy="-249.0694" rx="3.2" ry="3.2"/>
</g>
<!-- photo&#45;&gt;site -->
<g id="edge10" class="edge">
<title>photo:w&#45;&gt;site:e</title>
<path fill="none" stroke="#000000" d="M601.0219,-270.4154C591.8617,-271.3891 585.4852,-273.0813 572,-273.7 488.0883,-277.5499 460.0268,-307.2093 383,-273.7 358.4894,-263.037 368.7296,-229.7 342,-229.7"/>
<polygon fill="#000000" stroke="#000000" points="607.5097,-270.0949 615.6777,-273.2956 611.5049,-269.8974 615.5,-269.7 615.5,-269.7 615.5,-269.7 611.5049,-269.8974 615.3223,-266.1044 607.5097,-270.0949 607.5097,-270.0949"/>
<ellipse fill="none" stroke="#000000" cx="604.3136" cy="-270.2528" rx="3.2" ry="3.2"/>
</g>
<!-- site_ontology -->
<g id="node12" class="node">
<title>site_ontology</title>
<g id="a_node12"><a xlink:href="../../tables/site_ontology.html" xlink:title="site_ontology" target="_top">
<polygon fill="#ffffff" stroke="transparent" points="424,-202.2 424,-263.2 531,-263.2 531,-202.2 424,-202.2"/>
<polygon fill="#f5f5f5" stroke="transparent" points="424.5,-239.7 424.5,-262.7 531.5,-262.7 531.5,-239.7 424.5,-239.7"/>
<polygon fill="none" stroke="#000000" points="424.5,-239.7 424.5,-262.7 531.5,-262.7 531.5,-239.7 424.5,-239.7"/>
<text text-anchor="start" x="429.1001" y="-248.8" font-family="Helvetica,sans-Serif" font-weight="bold" font-size="11.00" fill="#000000">site_ontology</text>
<text text-anchor="start" x="497.0219" y="-247.8" font-family="Helvetica,sans-Serif" font-size="11.00" fill="#000000">[table]</text>
<polygon fill="none" stroke="#000000" points="424.5,-220.7 424.5,-239.7 531.5,-239.7 531.5,-220.7 424.5,-220.7"/>
<text text-anchor="start" x="427.5" y="-226.8" font-family="Helvetica,sans-Serif" font-size="11.00" fill="#000000">...</text>
<polygon fill="#ffffff" stroke="transparent" points="424.5,-201.7 424.5,-220.7 460.5,-220.7 460.5,-201.7 424.5,-201.7"/>
<polygon fill="none" stroke="#000000" points="424.5,-201.7 424.5,-220.7 460.5,-220.7 460.5,-201.7 424.5,-201.7"/>
<text text-anchor="start" x="427.5" y="-207.8" font-family="Helvetica,sans-Serif" font-size="11.00" fill="#000000">&lt; 2</text>
<polygon fill="#ffffff" stroke="transparent" points="460.5,-201.7 460.5,-220.7 511.5,-220.7 511.5,-201.7 460.5,-201.7"/>
<polygon fill="none" stroke="#000000" points="460.5,-201.7 460.5,-220.7 511.5,-220.7 511.5,-201.7 460.5,-201.7"/>
<text text-anchor="start" x="469.9956" y="-207.8" font-family="Helvetica,sans-Serif" font-size="11.00" fill="#000000">24 rows</text>
<polygon fill="#ffffff" stroke="transparent" points="511.5,-201.7 511.5,-220.7 531.5,-220.7 531.5,-201.7 511.5,-201.7"/>
<polygon fill="none" stroke="#000000" points="511.5,-201.7 511.5,-220.7 531.5,-220.7 531.5,-201.7 511.5,-201.7"/>
<text text-anchor="start" x="522.3862" y="-207.8" font-family="Helvetica,sans-Serif" font-size="11.00" fill="#000000"> &#160;</text>
</a>
</g>
</g>
<!-- site_ontology&#45;&gt;site -->
<g id="edge12" class="edge">
<title>site_ontology:w&#45;&gt;site:e</title>
<path fill="none" stroke="#000000" d="M409.8098,-229.7C384.5061,-229.7 373.224,-229.7 342,-229.7"/>
<polygon fill="#000000" stroke="#000000" points="416.5,-229.7001 424.5,-233.3 420.5,-229.7 424.5,-229.7 424.5,-229.7 424.5,-229.7 420.5,-229.7 424.5,-226.1 416.5,-229.7001 416.5,-229.7001"/>
<ellipse fill="none" stroke="#000000" cx="413.3" cy="-229.7001" rx="3.2" ry="3.2"/>
</g>
<!-- site_qcm -->
<g id="node13" class="node">
<title>site_qcm</title>
<g id="a_node13"><a xlink:href="../../tables/site_qcm.html" xlink:title="site_qcm" target="_top">
<polygon fill="#ffffff" stroke="transparent" points="434,-120.2 434,-181.2 521,-181.2 521,-120.2 434,-120.2"/>
<polygon fill="#f5f5f5" stroke="transparent" points="434.5,-157.7 434.5,-180.7 521.5,-180.7 521.5,-157.7 434.5,-157.7"/>
<polygon fill="none" stroke="#000000" points="434.5,-157.7 434.5,-180.7 521.5,-180.7 521.5,-157.7 434.5,-157.7"/>
<text text-anchor="start" x="439.4978" y="-166.8" font-family="Helvetica,sans-Serif" font-weight="bold" font-size="11.00" fill="#000000">site_qcm</text>
<text text-anchor="start" x="487.0219" y="-165.8" font-family="Helvetica,sans-Serif" font-size="11.00" fill="#000000">[table]</text>
<polygon fill="none" stroke="#000000" points="434.5,-138.7 434.5,-157.7 521.5,-157.7 521.5,-138.7 434.5,-138.7"/>
<text text-anchor="start" x="437.5" y="-144.8" font-family="Helvetica,sans-Serif" font-size="11.00" fill="#000000">...</text>
<polygon fill="#ffffff" stroke="transparent" points="434.5,-119.7 434.5,-138.7 460.5,-138.7 460.5,-119.7 434.5,-119.7"/>
<polygon fill="none" stroke="#000000" points="434.5,-119.7 434.5,-138.7 460.5,-138.7 460.5,-119.7 434.5,-119.7"/>
<text text-anchor="start" x="437.5" y="-125.8" font-family="Helvetica,sans-Serif" font-size="11.00" fill="#000000">&lt; 1</text>
<polygon fill="#ffffff" stroke="transparent" points="460.5,-119.7 460.5,-138.7 506.5,-138.7 506.5,-119.7 460.5,-119.7"/>
<polygon fill="none" stroke="#000000" points="460.5,-119.7 460.5,-138.7 506.5,-138.7 506.5,-119.7 460.5,-119.7"/>
<text text-anchor="start" x="464.9956" y="-125.8" font-family="Helvetica,sans-Serif" font-size="11.00" fill="#000000">40 rows</text>
<polygon fill="#ffffff" stroke="transparent" points="506.5,-119.7 506.5,-138.7 521.5,-138.7 521.5,-119.7 506.5,-119.7"/>
<polygon fill="none" stroke="#000000" points="506.5,-119.7 506.5,-138.7 521.5,-138.7 521.5,-119.7 506.5,-119.7"/>
<text text-anchor="start" x="512.3862" y="-125.8" font-family="Helvetica,sans-Serif" font-size="11.00" fill="#000000"> &#160;</text>
</a>
</g>
</g>
<!-- site_qcm&#45;&gt;site -->
<g id="edge13" class="edge">
<title>site_qcm:w&#45;&gt;site:e</title>
<path fill="none" stroke="#000000" d="M420.0226,-150.2367C403.9226,-156.918 401.0967,-175.5949 383,-191.7 364.4402,-208.2172 366.8452,-229.7 342,-229.7"/>
<polygon fill="#000000" stroke="#000000" points="426.62,-149.0807 435.1213,-151.246 430.56,-148.3904 434.5,-147.7 434.5,-147.7 434.5,-147.7 430.56,-148.3904 433.8787,-144.154 426.62,-149.0807 426.62,-149.0807"/>
<ellipse fill="none" stroke="#000000" cx="423.4681" cy="-149.633" rx="3.2" ry="3.2"/>
</g>
</g>
</svg>
