<?xml version="1.0" encoding="UTF-8" standalone="no"?>
<!DOCTYPE svg PUBLIC "-//W3C//DTD SVG 1.1//EN"
 "http://www.w3.org/Graphics/SVG/1.1/DTD/svg11.dtd">
<!-- Generated by graphviz version 2.40.1 (20161225.0304)
 -->
<!-- Title: twoDegreesRelationshipsDiagram Pages: 1 -->
<svg width="443pt" height="399pt"
 viewBox="0.00 0.00 443.00 398.70" xmlns="http://www.w3.org/2000/svg" xmlns:xlink="http://www.w3.org/1999/xlink">
<g id="graph0" class="graph" transform="scale(1 1) rotate(0) translate(4 394.7)">
<title>twoDegreesRelationshipsDiagram</title>
<polygon fill="#ffffff" stroke="transparent" points="-4,4 -4,-394.7 439,-394.7 439,4 -4,4"/>
<text text-anchor="middle" x="72.4936" y="-7.3" font-family="Helvetica,sans-Serif" font-size="11.00" fill="#000000">Generated by SchemaSpy</text>
<!-- entite_geol_qcm -->
<g id="node1" class="node">
<title>entite_geol_qcm</title>
<g id="a_node1"><a xlink:href="../../tables/entite_geol_qcm.html" xlink:title="entite_geol_qcm" target="_top">
<polygon fill="#ffffff" stroke="transparent" points="288,-250.7 288,-377.7 427,-377.7 427,-250.7 288,-250.7"/>
<polygon fill="#f5f5f5" stroke="transparent" points="288.5,-354.2 288.5,-377.2 427.5,-377.2 427.5,-354.2 288.5,-354.2"/>
<polygon fill="none" stroke="#000000" points="288.5,-354.2 288.5,-377.2 427.5,-377.2 427.5,-354.2 288.5,-354.2"/>
<text text-anchor="start" x="293.5" y="-363.3" font-family="Helvetica,sans-Serif" font-weight="bold" font-size="11.00" fill="#000000">entite_geol_qcm</text>
<text text-anchor="start" x="392.5437" y="-362.3" font-family="Helvetica,sans-Serif" font-size="11.00" fill="#000000">[table]</text>
<polygon fill="none" stroke="#000000" points="288.5,-332.2 288.5,-354.2 427.5,-354.2 427.5,-332.2 288.5,-332.2"/>
<image xlink:href="../../images/primaryKeys.png" width="11px" height="12px" preserveAspectRatio="xMinYMin meet" x="293.5" y="-349.2"/>
<text text-anchor="start" x="308.5" y="-339.3" font-family="Helvetica,sans-Serif" font-size="11.00" fill="#000000">id</text>
<polygon fill="#ffffff" stroke="transparent" points="288.5,-310.2 288.5,-332.2 427.5,-332.2 427.5,-310.2 288.5,-310.2"/>
<polygon fill="none" stroke="#000000" points="288.5,-310.2 288.5,-332.2 427.5,-332.2 427.5,-310.2 288.5,-310.2"/>
<image xlink:href="../../images/foreignKeys.png" width="11px" height="12px" preserveAspectRatio="xMinYMin meet" x="293.5" y="-327.2"/>
<text text-anchor="start" x="308.5" y="-317.3" font-family="Helvetica,sans-Serif" font-size="11.00" fill="#000000">entite_geol_id</text>
<polygon fill="#ffffff" stroke="transparent" points="288.5,-288.2 288.5,-310.2 427.5,-310.2 427.5,-288.2 288.5,-288.2"/>
<polygon fill="none" stroke="#000000" points="288.5,-288.2 288.5,-310.2 427.5,-310.2 427.5,-288.2 288.5,-288.2"/>
<image xlink:href="../../images/foreignKeys.png" width="11px" height="12px" preserveAspectRatio="xMinYMin meet" x="293.5" y="-305.2"/>
<text text-anchor="start" x="308.5" y="-295.3" font-family="Helvetica,sans-Serif" font-size="11.00" fill="#000000">qcm_id</text>
<polygon fill="none" stroke="#000000" points="288.5,-269.2 288.5,-288.2 427.5,-288.2 427.5,-269.2 288.5,-269.2"/>
<text text-anchor="start" x="291.5" y="-275.3" font-family="Helvetica,sans-Serif" font-size="11.00" fill="#000000">...</text>
<polygon fill="#ffffff" stroke="transparent" points="288.5,-250.2 288.5,-269.2 340.5,-269.2 340.5,-250.2 288.5,-250.2"/>
<polygon fill="none" stroke="#000000" points="288.5,-250.2 288.5,-269.2 340.5,-269.2 340.5,-250.2 288.5,-250.2"/>
<text text-anchor="start" x="291.5" y="-256.3" font-family="Helvetica,sans-Serif" font-size="11.00" fill="#000000">&lt; 2</text>
<polygon fill="#ffffff" stroke="transparent" points="340.5,-250.2 340.5,-269.2 399.5,-269.2 399.5,-250.2 340.5,-250.2"/>
<polygon fill="none" stroke="#000000" points="340.5,-250.2 340.5,-269.2 399.5,-269.2 399.5,-250.2 340.5,-250.2"/>
<text text-anchor="start" x="357.9956" y="-256.3" font-family="Helvetica,sans-Serif" font-size="11.00" fill="#000000">34 rows</text>
<polygon fill="#ffffff" stroke="transparent" points="399.5,-250.2 399.5,-269.2 427.5,-269.2 427.5,-250.2 399.5,-250.2"/>
<polygon fill="none" stroke="#000000" points="399.5,-250.2 399.5,-269.2 427.5,-269.2 427.5,-250.2 399.5,-250.2"/>
<text text-anchor="start" x="418.3862" y="-256.3" font-family="Helvetica,sans-Serif" font-size="11.00" fill="#000000"> &#160;</text>
</a>
</g>
</g>
<!-- entite_geol -->
<g id="node2" class="node">
<title>entite_geol</title>
<g id="a_node2"><a xlink:href="../../tables/entite_geol.html" xlink:title="entite_geol" target="_top">
<polygon fill="#ffffff" stroke="transparent" points="75.5,-325.7 75.5,-386.7 171.5,-386.7 171.5,-325.7 75.5,-325.7"/>
<polygon fill="#f5f5f5" stroke="transparent" points="75.5,-363.2 75.5,-386.2 171.5,-386.2 171.5,-363.2 75.5,-363.2"/>
<polygon fill="none" stroke="#000000" points="75.5,-363.2 75.5,-386.2 171.5,-386.2 171.5,-363.2 75.5,-363.2"/>
<text text-anchor="start" x="80.1001" y="-372.3" font-family="Helvetica,sans-Serif" font-weight="bold" font-size="11.00" fill="#000000">entite_geol</text>
<text text-anchor="start" x="137.0219" y="-371.3" font-family="Helvetica,sans-Serif" font-size="11.00" fill="#000000">[table]</text>
<polygon fill="none" stroke="#000000" points="75.5,-344.2 75.5,-363.2 171.5,-363.2 171.5,-344.2 75.5,-344.2"/>
<text text-anchor="start" x="78.5" y="-350.3" font-family="Helvetica,sans-Serif" font-size="11.00" fill="#000000">...</text>
<polygon fill="#ffffff" stroke="transparent" points="75.5,-325.2 75.5,-344.2 101.5,-344.2 101.5,-325.2 75.5,-325.2"/>
<polygon fill="none" stroke="#000000" points="75.5,-325.2 75.5,-344.2 101.5,-344.2 101.5,-325.2 75.5,-325.2"/>
<text text-anchor="start" x="78.5" y="-331.3" font-family="Helvetica,sans-Serif" font-size="11.00" fill="#000000">&lt; 3</text>
<polygon fill="#ffffff" stroke="transparent" points="101.5,-325.2 101.5,-344.2 147.5,-344.2 147.5,-325.2 101.5,-325.2"/>
<polygon fill="none" stroke="#000000" points="101.5,-325.2 101.5,-344.2 147.5,-344.2 147.5,-325.2 101.5,-325.2"/>
<text text-anchor="start" x="105.9956" y="-331.3" font-family="Helvetica,sans-Serif" font-size="11.00" fill="#000000">24 rows</text>
<polygon fill="#ffffff" stroke="transparent" points="147.5,-325.2 147.5,-344.2 171.5,-344.2 171.5,-325.2 147.5,-325.2"/>
<polygon fill="none" stroke="#000000" points="147.5,-325.2 147.5,-344.2 171.5,-344.2 171.5,-325.2 147.5,-325.2"/>
<text text-anchor="start" x="152.9053" y="-331.3" font-family="Helvetica,sans-Serif" font-size="11.00" fill="#000000">5 &gt;</text>
</a>
</g>
</g>
<!-- entite_geol_qcm&#45;&gt;entite_geol -->
<g id="edge1" class="edge">
<title>entite_geol_qcm:w&#45;&gt;entite_geol:e</title>
<path fill="none" stroke="#000000" d="M273.9025,-322.0559C232.3706,-327.1448 220.1452,-353.2 171.5,-353.2"/>
<polygon fill="#000000" stroke="#000000" points="280.5137,-321.6683 288.7107,-324.7938 284.5069,-321.4342 288.5,-321.2 288.5,-321.2 288.5,-321.2 284.5069,-321.4342 288.2893,-317.6062 280.5137,-321.6683 280.5137,-321.6683"/>
<ellipse fill="none" stroke="#000000" cx="277.3192" cy="-321.8557" rx="3.2" ry="3.2"/>
</g>
<!-- qcm -->
<g id="node3" class="node">
<title>qcm</title>
<g id="a_node3"><a xlink:href="../../tables/qcm.html" xlink:title="qcm" target="_top">
<polygon fill="#ffffff" stroke="transparent" points="8,-38.2 8,-304.2 239,-304.2 239,-38.2 8,-38.2"/>
<polygon fill="#f5f5f5" stroke="transparent" points="10.5,-279.2 10.5,-302.2 237.5,-302.2 237.5,-279.2 10.5,-279.2"/>
<polygon fill="none" stroke="#000000" points="10.5,-279.2 10.5,-302.2 237.5,-302.2 237.5,-279.2 10.5,-279.2"/>
<text text-anchor="start" x="15.5" y="-288.3" font-family="Helvetica,sans-Serif" font-weight="bold" font-size="11.00" fill="#000000">qcm</text>
<text text-anchor="start" x="202.5437" y="-287.3" font-family="Helvetica,sans-Serif" font-size="11.00" fill="#000000">[table]</text>
<polygon fill="none" stroke="#000000" points="10.5,-257.2 10.5,-279.2 147.5,-279.2 147.5,-257.2 10.5,-257.2"/>
<image xlink:href="../../images/primaryKeys.png" width="11px" height="12px" preserveAspectRatio="xMinYMin meet" x="15.5" y="-274.2"/>
<text text-anchor="start" x="30.5" y="-264.3" font-family="Helvetica,sans-Serif" font-size="11.00" fill="#000000">id</text>
<polygon fill="none" stroke="#000000" points="147.5,-257.2 147.5,-279.2 237.5,-279.2 237.5,-257.2 147.5,-257.2"/>
<text text-anchor="start" x="150.5" y="-264.9" font-family="Helvetica,sans-Serif" font-size="11.00" fill="#000000">serial[10]</text>
<polygon fill="#ffffff" stroke="transparent" points="10.5,-235.2 10.5,-257.2 147.5,-257.2 147.5,-235.2 10.5,-235.2"/>
<polygon fill="none" stroke="#000000" points="10.5,-235.2 10.5,-257.2 147.5,-257.2 147.5,-235.2 10.5,-235.2"/>
<text text-anchor="start" x="30.5" y="-242.3" font-family="Helvetica,sans-Serif" font-size="11.00" fill="#000000">question</text>
<polygon fill="none" stroke="#000000" points="147.5,-235.2 147.5,-257.2 237.5,-257.2 237.5,-235.2 147.5,-235.2"/>
<text text-anchor="start" x="150.5" y="-242.9" font-family="Helvetica,sans-Serif" font-size="11.00" fill="#000000">varchar[10]</text>
<polygon fill="none" stroke="#000000" points="10.5,-213.2 10.5,-235.2 147.5,-235.2 147.5,-213.2 10.5,-213.2"/>
<text text-anchor="start" x="30.5" y="-220.3" font-family="Helvetica,sans-Serif" font-size="11.00" fill="#000000">label</text>
<polygon fill="none" stroke="#000000" points="147.5,-213.2 147.5,-235.2 237.5,-235.2 237.5,-213.2 147.5,-213.2"/>
<text text-anchor="start" x="150.5" y="-220.9" font-family="Helvetica,sans-Serif" font-size="11.00" fill="#000000">varchar[255]</text>
<polygon fill="none" stroke="#000000" points="10.5,-191.2 10.5,-213.2 147.5,-213.2 147.5,-191.2 10.5,-191.2"/>
<text text-anchor="start" x="30.5" y="-198.3" font-family="Helvetica,sans-Serif" font-size="11.00" fill="#000000">description</text>
<polygon fill="none" stroke="#000000" points="147.5,-191.2 147.5,-213.2 237.5,-213.2 237.5,-191.2 147.5,-191.2"/>
<text text-anchor="start" x="150.0042" y="-198.9" font-family="Helvetica,sans-Serif" font-size="11.00" fill="#000000">text[2147483647]</text>
<polygon fill="none" stroke="#000000" points="10.5,-169.2 10.5,-191.2 147.5,-191.2 147.5,-169.2 10.5,-169.2"/>
<text text-anchor="start" x="30.5" y="-176.3" font-family="Helvetica,sans-Serif" font-size="11.00" fill="#000000">ordre_par_question</text>
<polygon fill="none" stroke="#000000" points="147.5,-169.2 147.5,-191.2 237.5,-191.2 237.5,-169.2 147.5,-169.2"/>
<text text-anchor="start" x="150.5" y="-176.9" font-family="Helvetica,sans-Serif" font-size="11.00" fill="#000000">int4[10]</text>
<polygon fill="none" stroke="#000000" points="10.5,-147.2 10.5,-169.2 147.5,-169.2 147.5,-147.2 10.5,-147.2"/>
<text text-anchor="start" x="30.5" y="-154.3" font-family="Helvetica,sans-Serif" font-size="11.00" fill="#000000">hierarchie</text>
<polygon fill="none" stroke="#000000" points="147.5,-147.2 147.5,-169.2 237.5,-169.2 237.5,-147.2 147.5,-147.2"/>
<text text-anchor="start" x="150.5" y="-154.9" font-family="Helvetica,sans-Serif" font-size="11.00" fill="#000000">varchar[255]</text>
<polygon fill="#ffffff" stroke="transparent" points="10.5,-125.2 10.5,-147.2 147.5,-147.2 147.5,-125.2 10.5,-125.2"/>
<polygon fill="none" stroke="#000000" points="10.5,-125.2 10.5,-147.2 147.5,-147.2 147.5,-125.2 10.5,-125.2"/>
<text text-anchor="start" x="30.5" y="-132.3" font-family="Helvetica,sans-Serif" font-size="11.00" fill="#000000">rubrique</text>
<polygon fill="none" stroke="#000000" points="147.5,-125.2 147.5,-147.2 237.5,-147.2 237.5,-125.2 147.5,-125.2"/>
<text text-anchor="start" x="150.5" y="-132.9" font-family="Helvetica,sans-Serif" font-size="11.00" fill="#000000">varchar[100]</text>
<polygon fill="none" stroke="#000000" points="10.5,-103.2 10.5,-125.2 147.5,-125.2 147.5,-103.2 10.5,-103.2"/>
<text text-anchor="start" x="30.5" y="-110.3" font-family="Helvetica,sans-Serif" font-size="11.00" fill="#000000">page_dico</text>
<polygon fill="none" stroke="#000000" points="147.5,-103.2 147.5,-125.2 237.5,-125.2 237.5,-103.2 147.5,-103.2"/>
<text text-anchor="start" x="150.5" y="-110.9" font-family="Helvetica,sans-Serif" font-size="11.00" fill="#000000">int4[10]</text>
<polygon fill="none" stroke="#000000" points="10.5,-81.2 10.5,-103.2 147.5,-103.2 147.5,-81.2 10.5,-81.2"/>
<text text-anchor="start" x="30.5" y="-88.3" font-family="Helvetica,sans-Serif" font-size="11.00" fill="#000000">intitule_complement</text>
<polygon fill="none" stroke="#000000" points="147.5,-81.2 147.5,-103.2 237.5,-103.2 237.5,-81.2 147.5,-81.2"/>
<text text-anchor="start" x="150.5" y="-88.9" font-family="Helvetica,sans-Serif" font-size="11.00" fill="#000000">varchar[45]</text>
<polygon fill="none" stroke="#000000" points="10.5,-59.2 10.5,-81.2 147.5,-81.2 147.5,-59.2 10.5,-59.2"/>
<text text-anchor="start" x="30.5" y="-66.3" font-family="Helvetica,sans-Serif" font-size="11.00" fill="#000000">parent</text>
<polygon fill="none" stroke="#000000" points="147.5,-59.2 147.5,-81.2 237.5,-81.2 237.5,-59.2 147.5,-59.2"/>
<text text-anchor="start" x="150.5" y="-66.9" font-family="Helvetica,sans-Serif" font-size="11.00" fill="#000000">int4[10]</text>
<polygon fill="#ffffff" stroke="transparent" points="10.5,-40.2 10.5,-59.2 57.5,-59.2 57.5,-40.2 10.5,-40.2"/>
<polygon fill="none" stroke="#000000" points="10.5,-40.2 10.5,-59.2 57.5,-59.2 57.5,-40.2 10.5,-40.2"/>
<text text-anchor="start" x="13.5" y="-46.3" font-family="Helvetica,sans-Serif" font-size="11.00" fill="#000000">&lt; 0</text>
<polygon fill="#ffffff" stroke="transparent" points="57.5,-40.2 57.5,-59.2 147.5,-59.2 147.5,-40.2 57.5,-40.2"/>
<polygon fill="none" stroke="#000000" points="57.5,-40.2 57.5,-59.2 147.5,-59.2 147.5,-40.2 57.5,-40.2"/>
<text text-anchor="start" x="87.047" y="-46.3" font-family="Helvetica,sans-Serif" font-size="11.00" fill="#000000">1 012 rows</text>
<polygon fill="#ffffff" stroke="transparent" points="147.5,-40.2 147.5,-59.2 237.5,-59.2 237.5,-40.2 147.5,-40.2"/>
<polygon fill="none" stroke="#000000" points="147.5,-40.2 147.5,-59.2 237.5,-59.2 237.5,-40.2 147.5,-40.2"/>
<text text-anchor="start" x="218.9053" y="-46.3" font-family="Helvetica,sans-Serif" font-size="11.00" fill="#000000">1 &gt;</text>
<polygon fill="none" stroke="#000000" stroke-width="2" points="9,-39.2 9,-303.2 238,-303.2 238,-39.2 9,-39.2"/>
</a>
</g>
</g>
<!-- entite_geol_qcm&#45;&gt;qcm -->
<g id="edge2" class="edge">
<title>entite_geol_qcm:w&#45;&gt;qcm:e</title>
<path fill="none" stroke="#000000" d="M274.5967,-295.3988C261.5044,-287.1209 258.2231,-268.2 237.5,-268.2"/>
<polygon fill="#000000" stroke="#000000" points="280.7832,-297.0902 287.5506,-302.6726 284.6416,-298.1451 288.5,-299.2 288.5,-299.2 288.5,-299.2 284.6416,-298.1451 289.4494,-295.7274 280.7832,-297.0902 280.7832,-297.0902"/>
<ellipse fill="none" stroke="#000000" cx="277.6965" cy="-296.2462" rx="3.2" ry="3.2"/>
</g>
</g>
</svg>
