<?xml version="1.0" encoding="UTF-8" standalone="no"?>
<!DOCTYPE svg PUBLIC "-//W3C//DTD SVG 1.1//EN"
 "http://www.w3.org/Graphics/SVG/1.1/DTD/svg11.dtd">
<!-- Generated by graphviz version 2.40.1 (20161225.0304)
 -->
<!-- Title: oneDegreeRelationshipsDiagram Pages: 1 -->
<svg width="264pt" height="451pt"
 viewBox="0.00 0.00 264.00 451.20" xmlns="http://www.w3.org/2000/svg" xmlns:xlink="http://www.w3.org/1999/xlink">
<g id="graph0" class="graph" transform="scale(1 1) rotate(0) translate(4 447.2)">
<title>oneDegreeRelationshipsDiagram</title>
<polygon fill="#ffffff" stroke="transparent" points="-4,4 -4,-447.2 260,-447.2 260,4 -4,4"/>
<text text-anchor="middle" x="72.4936" y="-7.3" font-family="Helvetica,sans-Serif" font-size="11.00" fill="#000000">Generated by SchemaSpy</text>
<!-- raster_columns -->
<g id="node1" class="node">
<title>raster_columns</title>
<g id="a_node1"><a xlink:href="../../tables/raster_columns.html" xlink:title="raster_columns" target="_top">
<polygon fill="#ffffff" stroke="transparent" points="8,-38.2 8,-439.2 248,-439.2 248,-38.2 8,-38.2"/>
<polygon fill="#f5f5f5" stroke="transparent" points="10,-413.7 10,-436.7 246,-436.7 246,-413.7 10,-413.7"/>
<polygon fill="none" stroke="#000000" points="10,-413.7 10,-436.7 246,-436.7 246,-413.7 10,-413.7"/>
<text text-anchor="start" x="15" y="-422.8" font-family="Helvetica,sans-Serif" font-weight="bold" font-size="11.00" fill="#000000">raster_columns</text>
<text text-anchor="start" x="212.8895" y="-421.8" font-family="Helvetica,sans-Serif" font-size="11.00" fill="#000000">[view]</text>
<polygon fill="none" stroke="#000000" points="10,-391.7 10,-413.7 127,-413.7 127,-391.7 10,-391.7"/>
<text text-anchor="start" x="30" y="-398.8" font-family="Helvetica,sans-Serif" font-size="11.00" fill="#000000">r_table_catalog</text>
<polygon fill="none" stroke="#000000" points="127,-391.7 127,-413.7 246,-413.7 246,-391.7 127,-391.7"/>
<text text-anchor="start" x="130" y="-399.4" font-family="Helvetica,sans-Serif" font-size="11.00" fill="#000000">name[2147483647]</text>
<polygon fill="none" stroke="#000000" points="10,-369.7 10,-391.7 127,-391.7 127,-369.7 10,-369.7"/>
<text text-anchor="start" x="30" y="-376.8" font-family="Helvetica,sans-Serif" font-size="11.00" fill="#000000">r_table_schema</text>
<polygon fill="none" stroke="#000000" points="127,-369.7 127,-391.7 246,-391.7 246,-369.7 127,-369.7"/>
<text text-anchor="start" x="130" y="-377.4" font-family="Helvetica,sans-Serif" font-size="11.00" fill="#000000">name[2147483647]</text>
<polygon fill="none" stroke="#000000" points="10,-347.7 10,-369.7 127,-369.7 127,-347.7 10,-347.7"/>
<text text-anchor="start" x="30" y="-354.8" font-family="Helvetica,sans-Serif" font-size="11.00" fill="#000000">r_table_name</text>
<polygon fill="none" stroke="#000000" points="127,-347.7 127,-369.7 246,-369.7 246,-347.7 127,-347.7"/>
<text text-anchor="start" x="130" y="-355.4" font-family="Helvetica,sans-Serif" font-size="11.00" fill="#000000">name[2147483647]</text>
<polygon fill="none" stroke="#000000" points="10,-325.7 10,-347.7 127,-347.7 127,-325.7 10,-325.7"/>
<text text-anchor="start" x="30" y="-332.8" font-family="Helvetica,sans-Serif" font-size="11.00" fill="#000000">r_raster_column</text>
<polygon fill="none" stroke="#000000" points="127,-325.7 127,-347.7 246,-347.7 246,-325.7 127,-325.7"/>
<text text-anchor="start" x="130" y="-333.4" font-family="Helvetica,sans-Serif" font-size="11.00" fill="#000000">name[2147483647]</text>
<polygon fill="none" stroke="#000000" points="10,-303.7 10,-325.7 127,-325.7 127,-303.7 10,-303.7"/>
<image xlink:href="../../images/foreignKeys.png" width="11px" height="12px" preserveAspectRatio="xMinYMin meet" x="15" y="-320.7"/>
<text text-anchor="start" x="30" y="-310.8" font-family="Helvetica,sans-Serif" font-size="11.00" fill="#000000">srid</text>
<polygon fill="none" stroke="#000000" points="127,-303.7 127,-325.7 246,-325.7 246,-303.7 127,-303.7"/>
<text text-anchor="start" x="130" y="-311.4" font-family="Helvetica,sans-Serif" font-size="11.00" fill="#000000">int4[10]</text>
<polygon fill="none" stroke="#000000" points="10,-281.7 10,-303.7 127,-303.7 127,-281.7 10,-281.7"/>
<text text-anchor="start" x="30" y="-288.8" font-family="Helvetica,sans-Serif" font-size="11.00" fill="#000000">scale_x</text>
<polygon fill="none" stroke="#000000" points="127,-281.7 127,-303.7 246,-303.7 246,-281.7 127,-281.7"/>
<text text-anchor="start" x="130" y="-289.4" font-family="Helvetica,sans-Serif" font-size="11.00" fill="#000000">float8[17,17]</text>
<polygon fill="none" stroke="#000000" points="10,-259.7 10,-281.7 127,-281.7 127,-259.7 10,-259.7"/>
<text text-anchor="start" x="30" y="-266.8" font-family="Helvetica,sans-Serif" font-size="11.00" fill="#000000">scale_y</text>
<polygon fill="none" stroke="#000000" points="127,-259.7 127,-281.7 246,-281.7 246,-259.7 127,-259.7"/>
<text text-anchor="start" x="130" y="-267.4" font-family="Helvetica,sans-Serif" font-size="11.00" fill="#000000">float8[17,17]</text>
<polygon fill="none" stroke="#000000" points="10,-237.7 10,-259.7 127,-259.7 127,-237.7 10,-237.7"/>
<text text-anchor="start" x="30" y="-244.8" font-family="Helvetica,sans-Serif" font-size="11.00" fill="#000000">blocksize_x</text>
<polygon fill="none" stroke="#000000" points="127,-237.7 127,-259.7 246,-259.7 246,-237.7 127,-237.7"/>
<text text-anchor="start" x="130" y="-245.4" font-family="Helvetica,sans-Serif" font-size="11.00" fill="#000000">int4[10]</text>
<polygon fill="none" stroke="#000000" points="10,-215.7 10,-237.7 127,-237.7 127,-215.7 10,-215.7"/>
<text text-anchor="start" x="30" y="-222.8" font-family="Helvetica,sans-Serif" font-size="11.00" fill="#000000">blocksize_y</text>
<polygon fill="none" stroke="#000000" points="127,-215.7 127,-237.7 246,-237.7 246,-215.7 127,-215.7"/>
<text text-anchor="start" x="130" y="-223.4" font-family="Helvetica,sans-Serif" font-size="11.00" fill="#000000">int4[10]</text>
<polygon fill="none" stroke="#000000" points="10,-193.7 10,-215.7 127,-215.7 127,-193.7 10,-193.7"/>
<text text-anchor="start" x="30" y="-200.8" font-family="Helvetica,sans-Serif" font-size="11.00" fill="#000000">same_alignment</text>
<polygon fill="none" stroke="#000000" points="127,-193.7 127,-215.7 246,-215.7 246,-193.7 127,-193.7"/>
<text text-anchor="start" x="130" y="-201.4" font-family="Helvetica,sans-Serif" font-size="11.00" fill="#000000">bool[1]</text>
<polygon fill="none" stroke="#000000" points="10,-171.7 10,-193.7 127,-193.7 127,-171.7 10,-171.7"/>
<text text-anchor="start" x="30" y="-178.8" font-family="Helvetica,sans-Serif" font-size="11.00" fill="#000000">regular_blocking</text>
<polygon fill="none" stroke="#000000" points="127,-171.7 127,-193.7 246,-193.7 246,-171.7 127,-171.7"/>
<text text-anchor="start" x="130" y="-179.4" font-family="Helvetica,sans-Serif" font-size="11.00" fill="#000000">bool[1]</text>
<polygon fill="none" stroke="#000000" points="10,-149.7 10,-171.7 127,-171.7 127,-149.7 10,-149.7"/>
<text text-anchor="start" x="30" y="-156.8" font-family="Helvetica,sans-Serif" font-size="11.00" fill="#000000">num_bands</text>
<polygon fill="none" stroke="#000000" points="127,-149.7 127,-171.7 246,-171.7 246,-149.7 127,-149.7"/>
<text text-anchor="start" x="130" y="-157.4" font-family="Helvetica,sans-Serif" font-size="11.00" fill="#000000">int4[10]</text>
<polygon fill="none" stroke="#000000" points="10,-127.7 10,-149.7 127,-149.7 127,-127.7 10,-127.7"/>
<text text-anchor="start" x="30" y="-134.8" font-family="Helvetica,sans-Serif" font-size="11.00" fill="#000000">pixel_types</text>
<polygon fill="none" stroke="#000000" points="127,-127.7 127,-149.7 246,-149.7 246,-127.7 127,-127.7"/>
<text text-anchor="start" x="130" y="-135.4" font-family="Helvetica,sans-Serif" font-size="11.00" fill="#000000">_text[2147483647]</text>
<polygon fill="none" stroke="#000000" points="10,-105.7 10,-127.7 127,-127.7 127,-105.7 10,-105.7"/>
<text text-anchor="start" x="30" y="-112.8" font-family="Helvetica,sans-Serif" font-size="11.00" fill="#000000">nodata_values</text>
<polygon fill="none" stroke="#000000" points="127,-105.7 127,-127.7 246,-127.7 246,-105.7 127,-105.7"/>
<text text-anchor="start" x="130" y="-113.4" font-family="Helvetica,sans-Serif" font-size="11.00" fill="#000000">_float8[17,17]</text>
<polygon fill="none" stroke="#000000" points="10,-83.7 10,-105.7 127,-105.7 127,-83.7 10,-83.7"/>
<text text-anchor="start" x="30" y="-90.8" font-family="Helvetica,sans-Serif" font-size="11.00" fill="#000000">out_db</text>
<polygon fill="none" stroke="#000000" points="127,-83.7 127,-105.7 246,-105.7 246,-83.7 127,-83.7"/>
<text text-anchor="start" x="130" y="-91.4" font-family="Helvetica,sans-Serif" font-size="11.00" fill="#000000">_bool[1]</text>
<polygon fill="none" stroke="#000000" points="10,-61.7 10,-83.7 127,-83.7 127,-61.7 10,-61.7"/>
<text text-anchor="start" x="30" y="-68.8" font-family="Helvetica,sans-Serif" font-size="11.00" fill="#000000">extent</text>
<polygon fill="none" stroke="#000000" points="127,-61.7 127,-83.7 246,-83.7 246,-61.7 127,-61.7"/>
<text text-anchor="start" x="129.9485" y="-69.4" font-family="Helvetica,sans-Serif" font-size="11.00" fill="#000000">geometry[2147483647]</text>
<polygon fill="none" stroke="#000000" points="10,-39.7 10,-61.7 127,-61.7 127,-39.7 10,-39.7"/>
<text text-anchor="start" x="30" y="-46.8" font-family="Helvetica,sans-Serif" font-size="11.00" fill="#000000">spatial_index</text>
<polygon fill="none" stroke="#000000" points="127,-39.7 127,-61.7 246,-61.7 246,-39.7 127,-39.7"/>
<text text-anchor="start" x="130" y="-47.4" font-family="Helvetica,sans-Serif" font-size="11.00" fill="#000000">bool[1]</text>
<polygon fill="none" stroke="#000000" stroke-width="2" points="9,-39.2 9,-438.2 247,-438.2 247,-39.2 9,-39.2"/>
</a>
</g>
</g>
</g>
</svg>
