<?xml version="1.0" encoding="UTF-8" standalone="no"?>
<!DOCTYPE svg PUBLIC "-//W3C//DTD SVG 1.1//EN"
 "http://www.w3.org/Graphics/SVG/1.1/DTD/svg11.dtd">
<!-- Generated by graphviz version 2.40.1 (20161225.0304)
 -->
<!-- Title: twoDegreesRelationshipsDiagramImplied Pages: 1 -->
<svg width="429pt" height="578pt"
 viewBox="0.00 0.00 429.00 577.70" xmlns="http://www.w3.org/2000/svg" xmlns:xlink="http://www.w3.org/1999/xlink">
<g id="graph0" class="graph" transform="scale(1 1) rotate(0) translate(4 573.7)">
<title>twoDegreesRelationshipsDiagramImplied</title>
<polygon fill="#ffffff" stroke="transparent" points="-4,4 -4,-573.7 425,-573.7 425,4 -4,4"/>
<text text-anchor="middle" x="72.4936" y="-7.3" font-family="Helvetica,sans-Serif" font-size="11.00" fill="#000000">Generated by SchemaSpy</text>
<!-- geography_columns -->
<g id="node1" class="node">
<title>geography_columns</title>
<g id="a_node1"><a xlink:href="../../tables/geography_columns.html" xlink:title="geography_columns" target="_top">
<polygon fill="#ffffff" stroke="transparent" points="222.5,-523.7 222.5,-565.7 363.5,-565.7 363.5,-523.7 222.5,-523.7"/>
<polygon fill="#f5f5f5" stroke="transparent" points="223,-542.7 223,-565.7 364,-565.7 364,-542.7 223,-542.7"/>
<polygon fill="none" stroke="#000000" points="223,-542.7 223,-565.7 364,-565.7 364,-542.7 223,-542.7"/>
<text text-anchor="start" x="227.9857" y="-551.8" font-family="Helvetica,sans-Serif" font-weight="bold" font-size="11.00" fill="#000000">geography_columns</text>
<text text-anchor="start" x="330.9448" y="-550.8" font-family="Helvetica,sans-Serif" font-size="11.00" fill="#000000">[view]</text>
<polygon fill="none" stroke="#000000" points="223,-523.7 223,-542.7 364,-542.7 364,-523.7 223,-523.7"/>
<text text-anchor="start" x="226" y="-529.8" font-family="Helvetica,sans-Serif" font-size="11.00" fill="#000000">...</text>
</a>
</g>
</g>
<!-- spatial_ref_sys -->
<g id="node2" class="node">
<title>spatial_ref_sys</title>
<g id="a_node2"><a xlink:href="../../tables/spatial_ref_sys.html" xlink:title="spatial_ref_sys" target="_top">
<polygon fill="#ffffff" stroke="transparent" points="8,-421.2 8,-504.2 124,-504.2 124,-421.2 8,-421.2"/>
<polygon fill="#f5f5f5" stroke="transparent" points="8,-480.7 8,-503.7 124,-503.7 124,-480.7 8,-480.7"/>
<polygon fill="none" stroke="#000000" points="8,-480.7 8,-503.7 124,-503.7 124,-480.7 8,-480.7"/>
<text text-anchor="start" x="12.8266" y="-489.8" font-family="Helvetica,sans-Serif" font-weight="bold" font-size="11.00" fill="#000000">spatial_ref_sys</text>
<text text-anchor="start" x="89.5219" y="-488.8" font-family="Helvetica,sans-Serif" font-size="11.00" fill="#000000">[table]</text>
<polygon fill="none" stroke="#000000" points="8,-458.7 8,-480.7 124,-480.7 124,-458.7 8,-458.7"/>
<image xlink:href="../../images/primaryKeys.png" width="11px" height="12px" preserveAspectRatio="xMinYMin meet" x="13" y="-475.7"/>
<text text-anchor="start" x="33" y="-465.8" font-family="Helvetica,sans-Serif" font-size="11.00" fill="#000000">srid</text>
<polygon fill="none" stroke="#000000" points="8,-439.7 8,-458.7 124,-458.7 124,-439.7 8,-439.7"/>
<text text-anchor="start" x="11" y="-445.8" font-family="Helvetica,sans-Serif" font-size="11.00" fill="#000000">...</text>
<polygon fill="#ffffff" stroke="transparent" points="8,-420.7 8,-439.7 30,-439.7 30,-420.7 8,-420.7"/>
<polygon fill="none" stroke="#000000" points="8,-420.7 8,-439.7 30,-439.7 30,-420.7 8,-420.7"/>
<text text-anchor="start" x="11" y="-426.8" font-family="Helvetica,sans-Serif" font-size="11.00" fill="#000000"> &#160;</text>
<polygon fill="#ffffff" stroke="transparent" points="30,-420.7 30,-439.7 98,-439.7 98,-420.7 30,-420.7"/>
<polygon fill="none" stroke="#000000" points="30,-420.7 30,-439.7 98,-439.7 98,-420.7 30,-420.7"/>
<text text-anchor="start" x="37.547" y="-426.8" font-family="Helvetica,sans-Serif" font-size="11.00" fill="#000000">5 536 rows</text>
<polygon fill="#ffffff" stroke="transparent" points="98,-420.7 98,-439.7 124,-439.7 124,-420.7 98,-420.7"/>
<polygon fill="none" stroke="#000000" points="98,-420.7 98,-439.7 124,-439.7 124,-420.7 98,-420.7"/>
<text text-anchor="start" x="105.4053" y="-426.8" font-family="Helvetica,sans-Serif" font-size="11.00" fill="#000000">3 &gt;</text>
</a>
</g>
</g>
<!-- geography_columns&#45;&gt;spatial_ref_sys -->
<g id="edge1" class="edge">
<title>geography_columns:w&#45;&gt;spatial_ref_sys:e</title>
<path fill="none" stroke="#000000" stroke-dasharray="5,2" d="M208.551,-532.1074C192.0051,-530.4937 183.2144,-525.3395 165,-513.7 142.4765,-499.3069 150.7296,-469.7 124,-469.7"/>
<polygon fill="#000000" stroke="#000000" points="215.0067,-532.3721 222.8525,-536.297 219.0034,-532.5361 223,-532.7 223,-532.7 223,-532.7 219.0034,-532.5361 223.1475,-529.103 215.0067,-532.3721 215.0067,-532.3721"/>
<ellipse fill="none" stroke="#000000" cx="211.8094" cy="-532.241" rx="3.2" ry="3.2"/>
</g>
<!-- geometry_columns -->
<g id="node3" class="node">
<title>geometry_columns</title>
<g id="a_node3"><a xlink:href="../../tables/geometry_columns.html" xlink:title="geometry_columns" target="_top">
<polygon fill="#ffffff" stroke="transparent" points="226,-460.7 226,-502.7 360,-502.7 360,-460.7 226,-460.7"/>
<polygon fill="#f5f5f5" stroke="transparent" points="226,-479.7 226,-502.7 360,-502.7 360,-479.7 226,-479.7"/>
<polygon fill="none" stroke="#000000" points="226,-479.7 226,-502.7 360,-502.7 360,-479.7 226,-479.7"/>
<text text-anchor="start" x="230.5487" y="-488.8" font-family="Helvetica,sans-Serif" font-weight="bold" font-size="11.00" fill="#000000">geometry_columns</text>
<text text-anchor="start" x="326.9448" y="-487.8" font-family="Helvetica,sans-Serif" font-size="11.00" fill="#000000">[view]</text>
<polygon fill="none" stroke="#000000" points="226,-460.7 226,-479.7 360,-479.7 360,-460.7 226,-460.7"/>
<text text-anchor="start" x="229" y="-466.8" font-family="Helvetica,sans-Serif" font-size="11.00" fill="#000000">...</text>
</a>
</g>
</g>
<!-- geometry_columns&#45;&gt;spatial_ref_sys -->
<g id="edge2" class="edge">
<title>geometry_columns:w&#45;&gt;spatial_ref_sys:e</title>
<path fill="none" stroke="#000000" stroke-dasharray="5,2" d="M211.3538,-469.7C177.5435,-469.7 164.0208,-469.7 124,-469.7"/>
<polygon fill="#000000" stroke="#000000" points="218,-469.7001 226,-473.3 222,-469.7 226,-469.7 226,-469.7 226,-469.7 222,-469.7 226,-466.1 218,-469.7001 218,-469.7001"/>
<ellipse fill="none" stroke="#000000" cx="214.8" cy="-469.7001" rx="3.2" ry="3.2"/>
</g>
<!-- raster_columns -->
<g id="node4" class="node">
<title>raster_columns</title>
<g id="a_node4"><a xlink:href="../../tables/raster_columns.html" xlink:title="raster_columns" target="_top">
<polygon fill="#ffffff" stroke="transparent" points="173,-38.2 173,-439.2 413,-439.2 413,-38.2 173,-38.2"/>
<polygon fill="#f5f5f5" stroke="transparent" points="175,-413.7 175,-436.7 411,-436.7 411,-413.7 175,-413.7"/>
<polygon fill="none" stroke="#000000" points="175,-413.7 175,-436.7 411,-436.7 411,-413.7 175,-413.7"/>
<text text-anchor="start" x="180" y="-422.8" font-family="Helvetica,sans-Serif" font-weight="bold" font-size="11.00" fill="#000000">raster_columns</text>
<text text-anchor="start" x="377.8895" y="-421.8" font-family="Helvetica,sans-Serif" font-size="11.00" fill="#000000">[view]</text>
<polygon fill="none" stroke="#000000" points="175,-391.7 175,-413.7 292,-413.7 292,-391.7 175,-391.7"/>
<text text-anchor="start" x="195" y="-398.8" font-family="Helvetica,sans-Serif" font-size="11.00" fill="#000000">r_table_catalog</text>
<polygon fill="none" stroke="#000000" points="292,-391.7 292,-413.7 411,-413.7 411,-391.7 292,-391.7"/>
<text text-anchor="start" x="295" y="-399.4" font-family="Helvetica,sans-Serif" font-size="11.00" fill="#000000">name[2147483647]</text>
<polygon fill="none" stroke="#000000" points="175,-369.7 175,-391.7 292,-391.7 292,-369.7 175,-369.7"/>
<text text-anchor="start" x="195" y="-376.8" font-family="Helvetica,sans-Serif" font-size="11.00" fill="#000000">r_table_schema</text>
<polygon fill="none" stroke="#000000" points="292,-369.7 292,-391.7 411,-391.7 411,-369.7 292,-369.7"/>
<text text-anchor="start" x="295" y="-377.4" font-family="Helvetica,sans-Serif" font-size="11.00" fill="#000000">name[2147483647]</text>
<polygon fill="none" stroke="#000000" points="175,-347.7 175,-369.7 292,-369.7 292,-347.7 175,-347.7"/>
<text text-anchor="start" x="195" y="-354.8" font-family="Helvetica,sans-Serif" font-size="11.00" fill="#000000">r_table_name</text>
<polygon fill="none" stroke="#000000" points="292,-347.7 292,-369.7 411,-369.7 411,-347.7 292,-347.7"/>
<text text-anchor="start" x="295" y="-355.4" font-family="Helvetica,sans-Serif" font-size="11.00" fill="#000000">name[2147483647]</text>
<polygon fill="none" stroke="#000000" points="175,-325.7 175,-347.7 292,-347.7 292,-325.7 175,-325.7"/>
<text text-anchor="start" x="195" y="-332.8" font-family="Helvetica,sans-Serif" font-size="11.00" fill="#000000">r_raster_column</text>
<polygon fill="none" stroke="#000000" points="292,-325.7 292,-347.7 411,-347.7 411,-325.7 292,-325.7"/>
<text text-anchor="start" x="295" y="-333.4" font-family="Helvetica,sans-Serif" font-size="11.00" fill="#000000">name[2147483647]</text>
<polygon fill="none" stroke="#000000" points="175,-303.7 175,-325.7 292,-325.7 292,-303.7 175,-303.7"/>
<image xlink:href="../../images/foreignKeys.png" width="11px" height="12px" preserveAspectRatio="xMinYMin meet" x="180" y="-320.7"/>
<text text-anchor="start" x="195" y="-310.8" font-family="Helvetica,sans-Serif" font-size="11.00" fill="#000000">srid</text>
<polygon fill="none" stroke="#000000" points="292,-303.7 292,-325.7 411,-325.7 411,-303.7 292,-303.7"/>
<text text-anchor="start" x="295" y="-311.4" font-family="Helvetica,sans-Serif" font-size="11.00" fill="#000000">int4[10]</text>
<polygon fill="none" stroke="#000000" points="175,-281.7 175,-303.7 292,-303.7 292,-281.7 175,-281.7"/>
<text text-anchor="start" x="195" y="-288.8" font-family="Helvetica,sans-Serif" font-size="11.00" fill="#000000">scale_x</text>
<polygon fill="none" stroke="#000000" points="292,-281.7 292,-303.7 411,-303.7 411,-281.7 292,-281.7"/>
<text text-anchor="start" x="295" y="-289.4" font-family="Helvetica,sans-Serif" font-size="11.00" fill="#000000">float8[17,17]</text>
<polygon fill="none" stroke="#000000" points="175,-259.7 175,-281.7 292,-281.7 292,-259.7 175,-259.7"/>
<text text-anchor="start" x="195" y="-266.8" font-family="Helvetica,sans-Serif" font-size="11.00" fill="#000000">scale_y</text>
<polygon fill="none" stroke="#000000" points="292,-259.7 292,-281.7 411,-281.7 411,-259.7 292,-259.7"/>
<text text-anchor="start" x="295" y="-267.4" font-family="Helvetica,sans-Serif" font-size="11.00" fill="#000000">float8[17,17]</text>
<polygon fill="none" stroke="#000000" points="175,-237.7 175,-259.7 292,-259.7 292,-237.7 175,-237.7"/>
<text text-anchor="start" x="195" y="-244.8" font-family="Helvetica,sans-Serif" font-size="11.00" fill="#000000">blocksize_x</text>
<polygon fill="none" stroke="#000000" points="292,-237.7 292,-259.7 411,-259.7 411,-237.7 292,-237.7"/>
<text text-anchor="start" x="295" y="-245.4" font-family="Helvetica,sans-Serif" font-size="11.00" fill="#000000">int4[10]</text>
<polygon fill="none" stroke="#000000" points="175,-215.7 175,-237.7 292,-237.7 292,-215.7 175,-215.7"/>
<text text-anchor="start" x="195" y="-222.8" font-family="Helvetica,sans-Serif" font-size="11.00" fill="#000000">blocksize_y</text>
<polygon fill="none" stroke="#000000" points="292,-215.7 292,-237.7 411,-237.7 411,-215.7 292,-215.7"/>
<text text-anchor="start" x="295" y="-223.4" font-family="Helvetica,sans-Serif" font-size="11.00" fill="#000000">int4[10]</text>
<polygon fill="none" stroke="#000000" points="175,-193.7 175,-215.7 292,-215.7 292,-193.7 175,-193.7"/>
<text text-anchor="start" x="195" y="-200.8" font-family="Helvetica,sans-Serif" font-size="11.00" fill="#000000">same_alignment</text>
<polygon fill="none" stroke="#000000" points="292,-193.7 292,-215.7 411,-215.7 411,-193.7 292,-193.7"/>
<text text-anchor="start" x="295" y="-201.4" font-family="Helvetica,sans-Serif" font-size="11.00" fill="#000000">bool[1]</text>
<polygon fill="none" stroke="#000000" points="175,-171.7 175,-193.7 292,-193.7 292,-171.7 175,-171.7"/>
<text text-anchor="start" x="195" y="-178.8" font-family="Helvetica,sans-Serif" font-size="11.00" fill="#000000">regular_blocking</text>
<polygon fill="none" stroke="#000000" points="292,-171.7 292,-193.7 411,-193.7 411,-171.7 292,-171.7"/>
<text text-anchor="start" x="295" y="-179.4" font-family="Helvetica,sans-Serif" font-size="11.00" fill="#000000">bool[1]</text>
<polygon fill="none" stroke="#000000" points="175,-149.7 175,-171.7 292,-171.7 292,-149.7 175,-149.7"/>
<text text-anchor="start" x="195" y="-156.8" font-family="Helvetica,sans-Serif" font-size="11.00" fill="#000000">num_bands</text>
<polygon fill="none" stroke="#000000" points="292,-149.7 292,-171.7 411,-171.7 411,-149.7 292,-149.7"/>
<text text-anchor="start" x="295" y="-157.4" font-family="Helvetica,sans-Serif" font-size="11.00" fill="#000000">int4[10]</text>
<polygon fill="none" stroke="#000000" points="175,-127.7 175,-149.7 292,-149.7 292,-127.7 175,-127.7"/>
<text text-anchor="start" x="195" y="-134.8" font-family="Helvetica,sans-Serif" font-size="11.00" fill="#000000">pixel_types</text>
<polygon fill="none" stroke="#000000" points="292,-127.7 292,-149.7 411,-149.7 411,-127.7 292,-127.7"/>
<text text-anchor="start" x="295" y="-135.4" font-family="Helvetica,sans-Serif" font-size="11.00" fill="#000000">_text[2147483647]</text>
<polygon fill="none" stroke="#000000" points="175,-105.7 175,-127.7 292,-127.7 292,-105.7 175,-105.7"/>
<text text-anchor="start" x="195" y="-112.8" font-family="Helvetica,sans-Serif" font-size="11.00" fill="#000000">nodata_values</text>
<polygon fill="none" stroke="#000000" points="292,-105.7 292,-127.7 411,-127.7 411,-105.7 292,-105.7"/>
<text text-anchor="start" x="295" y="-113.4" font-family="Helvetica,sans-Serif" font-size="11.00" fill="#000000">_float8[17,17]</text>
<polygon fill="none" stroke="#000000" points="175,-83.7 175,-105.7 292,-105.7 292,-83.7 175,-83.7"/>
<text text-anchor="start" x="195" y="-90.8" font-family="Helvetica,sans-Serif" font-size="11.00" fill="#000000">out_db</text>
<polygon fill="none" stroke="#000000" points="292,-83.7 292,-105.7 411,-105.7 411,-83.7 292,-83.7"/>
<text text-anchor="start" x="295" y="-91.4" font-family="Helvetica,sans-Serif" font-size="11.00" fill="#000000">_bool[1]</text>
<polygon fill="none" stroke="#000000" points="175,-61.7 175,-83.7 292,-83.7 292,-61.7 175,-61.7"/>
<text text-anchor="start" x="195" y="-68.8" font-family="Helvetica,sans-Serif" font-size="11.00" fill="#000000">extent</text>
<polygon fill="none" stroke="#000000" points="292,-61.7 292,-83.7 411,-83.7 411,-61.7 292,-61.7"/>
<text text-anchor="start" x="294.9485" y="-69.4" font-family="Helvetica,sans-Serif" font-size="11.00" fill="#000000">geometry[2147483647]</text>
<polygon fill="none" stroke="#000000" points="175,-39.7 175,-61.7 292,-61.7 292,-39.7 175,-39.7"/>
<text text-anchor="start" x="195" y="-46.8" font-family="Helvetica,sans-Serif" font-size="11.00" fill="#000000">spatial_index</text>
<polygon fill="none" stroke="#000000" points="292,-39.7 292,-61.7 411,-61.7 411,-39.7 292,-39.7"/>
<text text-anchor="start" x="295" y="-47.4" font-family="Helvetica,sans-Serif" font-size="11.00" fill="#000000">bool[1]</text>
<polygon fill="none" stroke="#000000" stroke-width="2" points="174,-39.2 174,-438.2 412,-438.2 412,-39.2 174,-39.2"/>
</a>
</g>
</g>
<!-- raster_columns&#45;&gt;spatial_ref_sys -->
<g id="edge3" class="edge">
<title>raster_columns:w&#45;&gt;spatial_ref_sys:e</title>
<path fill="none" stroke="#000000" stroke-dasharray="5,2" d="M160.611,-317.5226C116.4716,-338.5303 190.7147,-469.7 124,-469.7"/>
<polygon fill="#000000" stroke="#000000" points="167.1496,-316.24 175.693,-318.2327 171.0748,-315.47 175,-314.7 175,-314.7 175,-314.7 171.0748,-315.47 174.307,-311.1673 167.1496,-316.24 167.1496,-316.24"/>
<ellipse fill="none" stroke="#000000" cx="164.0095" cy="-316.856" rx="3.2" ry="3.2"/>
</g>
</g>
</svg>
