<?xml version="1.0" encoding="UTF-8" standalone="no"?>
<!DOCTYPE svg PUBLIC "-//W3C//DTD SVG 1.1//EN"
 "http://www.w3.org/Graphics/SVG/1.1/DTD/svg11.dtd">
<!-- Generated by graphviz version 2.40.1 (20161225.0304)
 -->
<!-- Title: oneDegreeRelationshipsDiagramImplied Pages: 1 -->
<svg width="429pt" height="451pt"
 viewBox="0.00 0.00 429.00 451.20" xmlns="http://www.w3.org/2000/svg" xmlns:xlink="http://www.w3.org/1999/xlink">
<g id="graph0" class="graph" transform="scale(1 1) rotate(0) translate(4 447.2)">
<title>oneDegreeRelationshipsDiagramImplied</title>
<polygon fill="#ffffff" stroke="transparent" points="-4,4 -4,-447.2 425,-447.2 425,4 -4,4"/>
<text text-anchor="middle" x="72.4936" y="-7.3" font-family="Helvetica,sans-Serif" font-size="11.00" fill="#000000">Generated by SchemaSpy</text>
<!-- raster_columns -->
<g id="node1" class="node">
<title>raster_columns</title>
<g id="a_node1"><a xlink:href="../../tables/raster_columns.html" xlink:title="raster_columns" target="_top">
<polygon fill="#ffffff" stroke="transparent" points="173,-38.2 173,-439.2 413,-439.2 413,-38.2 173,-38.2"/>
<polygon fill="#f5f5f5" stroke="transparent" points="175,-413.7 175,-436.7 411,-436.7 411,-413.7 175,-413.7"/>
<polygon fill="none" stroke="#000000" points="175,-413.7 175,-436.7 411,-436.7 411,-413.7 175,-413.7"/>
<text text-anchor="start" x="180" y="-422.8" font-family="Helvetica,sans-Serif" font-weight="bold" font-size="11.00" fill="#000000">raster_columns</text>
<text text-anchor="start" x="377.8895" y="-421.8" font-family="Helvetica,sans-Serif" font-size="11.00" fill="#000000">[view]</text>
<polygon fill="none" stroke="#000000" points="175,-391.7 175,-413.7 292,-413.7 292,-391.7 175,-391.7"/>
<text text-anchor="start" x="195" y="-398.8" font-family="Helvetica,sans-Serif" font-size="11.00" fill="#000000">r_table_catalog</text>
<polygon fill="none" stroke="#000000" points="292,-391.7 292,-413.7 411,-413.7 411,-391.7 292,-391.7"/>
<text text-anchor="start" x="295" y="-399.4" font-family="Helvetica,sans-Serif" font-size="11.00" fill="#000000">name[2147483647]</text>
<polygon fill="none" stroke="#000000" points="175,-369.7 175,-391.7 292,-391.7 292,-369.7 175,-369.7"/>
<text text-anchor="start" x="195" y="-376.8" font-family="Helvetica,sans-Serif" font-size="11.00" fill="#000000">r_table_schema</text>
<polygon fill="none" stroke="#000000" points="292,-369.7 292,-391.7 411,-391.7 411,-369.7 292,-369.7"/>
<text text-anchor="start" x="295" y="-377.4" font-family="Helvetica,sans-Serif" font-size="11.00" fill="#000000">name[2147483647]</text>
<polygon fill="none" stroke="#000000" points="175,-347.7 175,-369.7 292,-369.7 292,-347.7 175,-347.7"/>
<text text-anchor="start" x="195" y="-354.8" font-family="Helvetica,sans-Serif" font-size="11.00" fill="#000000">r_table_name</text>
<polygon fill="none" stroke="#000000" points="292,-347.7 292,-369.7 411,-369.7 411,-347.7 292,-347.7"/>
<text text-anchor="start" x="295" y="-355.4" font-family="Helvetica,sans-Serif" font-size="11.00" fill="#000000">name[2147483647]</text>
<polygon fill="none" stroke="#000000" points="175,-325.7 175,-347.7 292,-347.7 292,-325.7 175,-325.7"/>
<text text-anchor="start" x="195" y="-332.8" font-family="Helvetica,sans-Serif" font-size="11.00" fill="#000000">r_raster_column</text>
<polygon fill="none" stroke="#000000" points="292,-325.7 292,-347.7 411,-347.7 411,-325.7 292,-325.7"/>
<text text-anchor="start" x="295" y="-333.4" font-family="Helvetica,sans-Serif" font-size="11.00" fill="#000000">name[2147483647]</text>
<polygon fill="none" stroke="#000000" points="175,-303.7 175,-325.7 292,-325.7 292,-303.7 175,-303.7"/>
<image xlink:href="../../images/foreignKeys.png" width="11px" height="12px" preserveAspectRatio="xMinYMin meet" x="180" y="-320.7"/>
<text text-anchor="start" x="195" y="-310.8" font-family="Helvetica,sans-Serif" font-size="11.00" fill="#000000">srid</text>
<polygon fill="none" stroke="#000000" points="292,-303.7 292,-325.7 411,-325.7 411,-303.7 292,-303.7"/>
<text text-anchor="start" x="295" y="-311.4" font-family="Helvetica,sans-Serif" font-size="11.00" fill="#000000">int4[10]</text>
<polygon fill="none" stroke="#000000" points="175,-281.7 175,-303.7 292,-303.7 292,-281.7 175,-281.7"/>
<text text-anchor="start" x="195" y="-288.8" font-family="Helvetica,sans-Serif" font-size="11.00" fill="#000000">scale_x</text>
<polygon fill="none" stroke="#000000" points="292,-281.7 292,-303.7 411,-303.7 411,-281.7 292,-281.7"/>
<text text-anchor="start" x="295" y="-289.4" font-family="Helvetica,sans-Serif" font-size="11.00" fill="#000000">float8[17,17]</text>
<polygon fill="none" stroke="#000000" points="175,-259.7 175,-281.7 292,-281.7 292,-259.7 175,-259.7"/>
<text text-anchor="start" x="195" y="-266.8" font-family="Helvetica,sans-Serif" font-size="11.00" fill="#000000">scale_y</text>
<polygon fill="none" stroke="#000000" points="292,-259.7 292,-281.7 411,-281.7 411,-259.7 292,-259.7"/>
<text text-anchor="start" x="295" y="-267.4" font-family="Helvetica,sans-Serif" font-size="11.00" fill="#000000">float8[17,17]</text>
<polygon fill="none" stroke="#000000" points="175,-237.7 175,-259.7 292,-259.7 292,-237.7 175,-237.7"/>
<text text-anchor="start" x="195" y="-244.8" font-family="Helvetica,sans-Serif" font-size="11.00" fill="#000000">blocksize_x</text>
<polygon fill="none" stroke="#000000" points="292,-237.7 292,-259.7 411,-259.7 411,-237.7 292,-237.7"/>
<text text-anchor="start" x="295" y="-245.4" font-family="Helvetica,sans-Serif" font-size="11.00" fill="#000000">int4[10]</text>
<polygon fill="none" stroke="#000000" points="175,-215.7 175,-237.7 292,-237.7 292,-215.7 175,-215.7"/>
<text text-anchor="start" x="195" y="-222.8" font-family="Helvetica,sans-Serif" font-size="11.00" fill="#000000">blocksize_y</text>
<polygon fill="none" stroke="#000000" points="292,-215.7 292,-237.7 411,-237.7 411,-215.7 292,-215.7"/>
<text text-anchor="start" x="295" y="-223.4" font-family="Helvetica,sans-Serif" font-size="11.00" fill="#000000">int4[10]</text>
<polygon fill="none" stroke="#000000" points="175,-193.7 175,-215.7 292,-215.7 292,-193.7 175,-193.7"/>
<text text-anchor="start" x="195" y="-200.8" font-family="Helvetica,sans-Serif" font-size="11.00" fill="#000000">same_alignment</text>
<polygon fill="none" stroke="#000000" points="292,-193.7 292,-215.7 411,-215.7 411,-193.7 292,-193.7"/>
<text text-anchor="start" x="295" y="-201.4" font-family="Helvetica,sans-Serif" font-size="11.00" fill="#000000">bool[1]</text>
<polygon fill="none" stroke="#000000" points="175,-171.7 175,-193.7 292,-193.7 292,-171.7 175,-171.7"/>
<text text-anchor="start" x="195" y="-178.8" font-family="Helvetica,sans-Serif" font-size="11.00" fill="#000000">regular_blocking</text>
<polygon fill="none" stroke="#000000" points="292,-171.7 292,-193.7 411,-193.7 411,-171.7 292,-171.7"/>
<text text-anchor="start" x="295" y="-179.4" font-family="Helvetica,sans-Serif" font-size="11.00" fill="#000000">bool[1]</text>
<polygon fill="none" stroke="#000000" points="175,-149.7 175,-171.7 292,-171.7 292,-149.7 175,-149.7"/>
<text text-anchor="start" x="195" y="-156.8" font-family="Helvetica,sans-Serif" font-size="11.00" fill="#000000">num_bands</text>
<polygon fill="none" stroke="#000000" points="292,-149.7 292,-171.7 411,-171.7 411,-149.7 292,-149.7"/>
<text text-anchor="start" x="295" y="-157.4" font-family="Helvetica,sans-Serif" font-size="11.00" fill="#000000">int4[10]</text>
<polygon fill="none" stroke="#000000" points="175,-127.7 175,-149.7 292,-149.7 292,-127.7 175,-127.7"/>
<text text-anchor="start" x="195" y="-134.8" font-family="Helvetica,sans-Serif" font-size="11.00" fill="#000000">pixel_types</text>
<polygon fill="none" stroke="#000000" points="292,-127.7 292,-149.7 411,-149.7 411,-127.7 292,-127.7"/>
<text text-anchor="start" x="295" y="-135.4" font-family="Helvetica,sans-Serif" font-size="11.00" fill="#000000">_text[2147483647]</text>
<polygon fill="none" stroke="#000000" points="175,-105.7 175,-127.7 292,-127.7 292,-105.7 175,-105.7"/>
<text text-anchor="start" x="195" y="-112.8" font-family="Helvetica,sans-Serif" font-size="11.00" fill="#000000">nodata_values</text>
<polygon fill="none" stroke="#000000" points="292,-105.7 292,-127.7 411,-127.7 411,-105.7 292,-105.7"/>
<text text-anchor="start" x="295" y="-113.4" font-family="Helvetica,sans-Serif" font-size="11.00" fill="#000000">_float8[17,17]</text>
<polygon fill="none" stroke="#000000" points="175,-83.7 175,-105.7 292,-105.7 292,-83.7 175,-83.7"/>
<text text-anchor="start" x="195" y="-90.8" font-family="Helvetica,sans-Serif" font-size="11.00" fill="#000000">out_db</text>
<polygon fill="none" stroke="#000000" points="292,-83.7 292,-105.7 411,-105.7 411,-83.7 292,-83.7"/>
<text text-anchor="start" x="295" y="-91.4" font-family="Helvetica,sans-Serif" font-size="11.00" fill="#000000">_bool[1]</text>
<polygon fill="none" stroke="#000000" points="175,-61.7 175,-83.7 292,-83.7 292,-61.7 175,-61.7"/>
<text text-anchor="start" x="195" y="-68.8" font-family="Helvetica,sans-Serif" font-size="11.00" fill="#000000">extent</text>
<polygon fill="none" stroke="#000000" points="292,-61.7 292,-83.7 411,-83.7 411,-61.7 292,-61.7"/>
<text text-anchor="start" x="294.9485" y="-69.4" font-family="Helvetica,sans-Serif" font-size="11.00" fill="#000000">geometry[2147483647]</text>
<polygon fill="none" stroke="#000000" points="175,-39.7 175,-61.7 292,-61.7 292,-39.7 175,-39.7"/>
<text text-anchor="start" x="195" y="-46.8" font-family="Helvetica,sans-Serif" font-size="11.00" fill="#000000">spatial_index</text>
<polygon fill="none" stroke="#000000" points="292,-39.7 292,-61.7 411,-61.7 411,-39.7 292,-39.7"/>
<text text-anchor="start" x="295" y="-47.4" font-family="Helvetica,sans-Serif" font-size="11.00" fill="#000000">bool[1]</text>
<polygon fill="none" stroke="#000000" stroke-width="2" points="174,-39.2 174,-438.2 412,-438.2 412,-39.2 174,-39.2"/>
</a>
</g>
</g>
<!-- spatial_ref_sys -->
<g id="node2" class="node">
<title>spatial_ref_sys</title>
<g id="a_node2"><a xlink:href="../../tables/spatial_ref_sys.html" xlink:title="spatial_ref_sys" target="_top">
<polygon fill="#ffffff" stroke="transparent" points="8,-266.2 8,-349.2 124,-349.2 124,-266.2 8,-266.2"/>
<polygon fill="#f5f5f5" stroke="transparent" points="8,-325.7 8,-348.7 124,-348.7 124,-325.7 8,-325.7"/>
<polygon fill="none" stroke="#000000" points="8,-325.7 8,-348.7 124,-348.7 124,-325.7 8,-325.7"/>
<text text-anchor="start" x="12.8266" y="-334.8" font-family="Helvetica,sans-Serif" font-weight="bold" font-size="11.00" fill="#000000">spatial_ref_sys</text>
<text text-anchor="start" x="89.5219" y="-333.8" font-family="Helvetica,sans-Serif" font-size="11.00" fill="#000000">[table]</text>
<polygon fill="none" stroke="#000000" points="8,-303.7 8,-325.7 124,-325.7 124,-303.7 8,-303.7"/>
<image xlink:href="../../images/primaryKeys.png" width="11px" height="12px" preserveAspectRatio="xMinYMin meet" x="13" y="-320.7"/>
<text text-anchor="start" x="33" y="-310.8" font-family="Helvetica,sans-Serif" font-size="11.00" fill="#000000">srid</text>
<polygon fill="none" stroke="#000000" points="8,-284.7 8,-303.7 124,-303.7 124,-284.7 8,-284.7"/>
<text text-anchor="start" x="11" y="-290.8" font-family="Helvetica,sans-Serif" font-size="11.00" fill="#000000">...</text>
<polygon fill="#ffffff" stroke="transparent" points="8,-265.7 8,-284.7 30,-284.7 30,-265.7 8,-265.7"/>
<polygon fill="none" stroke="#000000" points="8,-265.7 8,-284.7 30,-284.7 30,-265.7 8,-265.7"/>
<text text-anchor="start" x="11" y="-271.8" font-family="Helvetica,sans-Serif" font-size="11.00" fill="#000000"> &#160;</text>
<polygon fill="#ffffff" stroke="transparent" points="30,-265.7 30,-284.7 98,-284.7 98,-265.7 30,-265.7"/>
<polygon fill="none" stroke="#000000" points="30,-265.7 30,-284.7 98,-284.7 98,-265.7 30,-265.7"/>
<text text-anchor="start" x="37.547" y="-271.8" font-family="Helvetica,sans-Serif" font-size="11.00" fill="#000000">5 536 rows</text>
<polygon fill="#ffffff" stroke="transparent" points="98,-265.7 98,-284.7 124,-284.7 124,-265.7 98,-265.7"/>
<polygon fill="none" stroke="#000000" points="98,-265.7 98,-284.7 124,-284.7 124,-265.7 98,-265.7"/>
<text text-anchor="start" x="105.4053" y="-271.8" font-family="Helvetica,sans-Serif" font-size="11.00" fill="#000000">3 &gt;</text>
</a>
</g>
</g>
<!-- raster_columns&#45;&gt;spatial_ref_sys -->
<g id="edge1" class="edge">
<title>raster_columns:w&#45;&gt;spatial_ref_sys:e</title>
<path fill="none" stroke="#000000" stroke-dasharray="5,2" d="M160.276,-314.7C148.2815,-314.7 140.8229,-314.7 124,-314.7"/>
<polygon fill="#000000" stroke="#000000" points="167,-314.7001 175,-318.3 171,-314.7 175,-314.7 175,-314.7 175,-314.7 171,-314.7 175,-311.1 167,-314.7001 167,-314.7001"/>
<ellipse fill="none" stroke="#000000" cx="163.8" cy="-314.7001" rx="3.2" ry="3.2"/>
</g>
</g>
</svg>
