<?xml version="1.0" encoding="UTF-8" standalone="no"?>
<!DOCTYPE svg PUBLIC "-//W3C//DTD SVG 1.1//EN"
 "http://www.w3.org/Graphics/SVG/1.1/DTD/svg11.dtd">
<!-- Generated by graphviz version 2.40.1 (20161225.0304)
 -->
<!-- Title: twoDegreesRelationshipsDiagram Pages: 1 -->
<svg width="766pt" height="581pt"
 viewBox="0.00 0.00 766.00 580.96" xmlns="http://www.w3.org/2000/svg" xmlns:xlink="http://www.w3.org/1999/xlink">
<g id="graph0" class="graph" transform="scale(1 1) rotate(0) translate(4 576.9603)">
<title>twoDegreesRelationshipsDiagram</title>
<polygon fill="#ffffff" stroke="transparent" points="-4,4 -4,-576.9603 762,-576.9603 762,4 -4,4"/>
<text text-anchor="middle" x="72.4936" y="-7.3" font-family="Helvetica,sans-Serif" font-size="11.00" fill="#000000">Generated by SchemaSpy</text>
<!-- commentaire -->
<g id="node1" class="node">
<title>commentaire</title>
<g id="a_node1"><a xlink:href="../../tables/commentaire.html" xlink:title="commentaire" target="_top">
<polygon fill="#ffffff" stroke="transparent" points="454.5,-303.7 454.5,-364.7 560.5,-364.7 560.5,-303.7 454.5,-303.7"/>
<polygon fill="#f5f5f5" stroke="transparent" points="454.5,-341.2 454.5,-364.2 560.5,-364.2 560.5,-341.2 454.5,-341.2"/>
<polygon fill="none" stroke="#000000" points="454.5,-341.2 454.5,-364.2 560.5,-364.2 560.5,-341.2 454.5,-341.2"/>
<text text-anchor="start" x="459.221" y="-350.3" font-family="Helvetica,sans-Serif" font-weight="bold" font-size="11.00" fill="#000000">commentaire</text>
<text text-anchor="start" x="526.0219" y="-349.3" font-family="Helvetica,sans-Serif" font-size="11.00" fill="#000000">[table]</text>
<polygon fill="none" stroke="#000000" points="454.5,-322.2 454.5,-341.2 560.5,-341.2 560.5,-322.2 454.5,-322.2"/>
<text text-anchor="start" x="457.5" y="-328.3" font-family="Helvetica,sans-Serif" font-size="11.00" fill="#000000">...</text>
<polygon fill="#ffffff" stroke="transparent" points="454.5,-303.2 454.5,-322.2 492.5,-322.2 492.5,-303.2 454.5,-303.2"/>
<polygon fill="none" stroke="#000000" points="454.5,-303.2 454.5,-322.2 492.5,-322.2 492.5,-303.2 454.5,-303.2"/>
<text text-anchor="start" x="457.5" y="-309.3" font-family="Helvetica,sans-Serif" font-size="11.00" fill="#000000">&lt; 1</text>
<polygon fill="#ffffff" stroke="transparent" points="492.5,-303.2 492.5,-322.2 539.5,-322.2 539.5,-303.2 492.5,-303.2"/>
<polygon fill="none" stroke="#000000" points="492.5,-303.2 492.5,-322.2 539.5,-322.2 539.5,-303.2 492.5,-303.2"/>
<text text-anchor="start" x="504.1105" y="-309.3" font-family="Helvetica,sans-Serif" font-size="11.00" fill="#000000">2 rows</text>
<polygon fill="#ffffff" stroke="transparent" points="539.5,-303.2 539.5,-322.2 560.5,-322.2 560.5,-303.2 539.5,-303.2"/>
<polygon fill="none" stroke="#000000" points="539.5,-303.2 539.5,-322.2 560.5,-322.2 560.5,-303.2 539.5,-303.2"/>
<text text-anchor="start" x="551.3862" y="-309.3" font-family="Helvetica,sans-Serif" font-size="11.00" fill="#000000"> &#160;</text>
</a>
</g>
</g>
<!-- site -->
<g id="node2" class="node">
<title>site</title>
<g id="a_node2"><a xlink:href="../../tables/site.html" xlink:title="site" target="_top">
<polygon fill="#ffffff" stroke="transparent" points="178,-320.7 178,-447.7 342,-447.7 342,-320.7 178,-320.7"/>
<polygon fill="#f5f5f5" stroke="transparent" points="178,-424.2 178,-447.2 342,-447.2 342,-424.2 178,-424.2"/>
<polygon fill="none" stroke="#000000" points="178,-424.2 178,-447.2 342,-447.2 342,-424.2 178,-424.2"/>
<text text-anchor="start" x="183" y="-433.3" font-family="Helvetica,sans-Serif" font-weight="bold" font-size="11.00" fill="#000000">site</text>
<text text-anchor="start" x="307.0437" y="-432.3" font-family="Helvetica,sans-Serif" font-size="11.00" fill="#000000">[table]</text>
<polygon fill="none" stroke="#000000" points="178,-402.2 178,-424.2 342,-424.2 342,-402.2 178,-402.2"/>
<image xlink:href="../../images/primaryKeys.png" width="11px" height="12px" preserveAspectRatio="xMinYMin meet" x="183" y="-419.2"/>
<text text-anchor="start" x="198" y="-409.3" font-family="Helvetica,sans-Serif" font-size="11.00" fill="#000000">id</text>
<polygon fill="#ffffff" stroke="transparent" points="178,-380.2 178,-402.2 342,-402.2 342,-380.2 178,-380.2"/>
<polygon fill="none" stroke="#000000" points="178,-380.2 178,-402.2 342,-402.2 342,-380.2 178,-380.2"/>
<text text-anchor="start" x="198" y="-387.3" font-family="Helvetica,sans-Serif" font-size="11.00" fill="#000000">geom</text>
<polygon fill="#ffffff" stroke="transparent" points="178,-358.2 178,-380.2 342,-380.2 342,-358.2 178,-358.2"/>
<polygon fill="none" stroke="#000000" points="178,-358.2 178,-380.2 342,-380.2 342,-358.2 178,-358.2"/>
<image xlink:href="../../images/foreignKeys.png" width="11px" height="12px" preserveAspectRatio="xMinYMin meet" x="183" y="-375.2"/>
<text text-anchor="start" x="198" y="-365.3" font-family="Helvetica,sans-Serif" font-size="11.00" fill="#000000">ep_id</text>
<polygon fill="none" stroke="#000000" points="178,-339.2 178,-358.2 342,-358.2 342,-339.2 178,-339.2"/>
<text text-anchor="start" x="181" y="-345.3" font-family="Helvetica,sans-Serif" font-size="11.00" fill="#000000">...</text>
<polygon fill="#ffffff" stroke="transparent" points="178,-320.2 178,-339.2 238,-339.2 238,-320.2 178,-320.2"/>
<polygon fill="none" stroke="#000000" points="178,-320.2 178,-339.2 238,-339.2 238,-320.2 178,-320.2"/>
<text text-anchor="start" x="181" y="-326.3" font-family="Helvetica,sans-Serif" font-size="11.00" fill="#000000">&lt; 1</text>
<polygon fill="#ffffff" stroke="transparent" points="238,-320.2 238,-339.2 301,-339.2 301,-320.2 238,-320.2"/>
<polygon fill="none" stroke="#000000" points="238,-320.2 238,-339.2 301,-339.2 301,-320.2 238,-320.2"/>
<text text-anchor="start" x="259.4956" y="-326.3" font-family="Helvetica,sans-Serif" font-size="11.00" fill="#000000">10 rows</text>
<polygon fill="#ffffff" stroke="transparent" points="301,-320.2 301,-339.2 342,-339.2 342,-320.2 301,-320.2"/>
<polygon fill="none" stroke="#000000" points="301,-320.2 301,-339.2 342,-339.2 342,-320.2 301,-320.2"/>
<text text-anchor="start" x="323.4053" y="-326.3" font-family="Helvetica,sans-Serif" font-size="11.00" fill="#000000">5 &gt;</text>
</a>
</g>
</g>
<!-- commentaire&#45;&gt;site -->
<g id="edge1" class="edge">
<title>commentaire:w&#45;&gt;site:e</title>
<path fill="none" stroke="#000000" d="M439.8649,-332.5503C415.3031,-337.5877 408.3036,-355.9821 383,-375.2 363.2144,-390.227 366.8452,-413.2 342,-413.2"/>
<polygon fill="#000000" stroke="#000000" points="446.5338,-331.935 454.8308,-334.7848 450.5169,-331.5675 454.5,-331.2 454.5,-331.2 454.5,-331.2 450.5169,-331.5675 454.1692,-327.6152 446.5338,-331.935 446.5338,-331.935"/>
<ellipse fill="none" stroke="#000000" cx="443.3474" cy="-332.2291" rx="3.2" ry="3.2"/>
</g>
<!-- espace_protege -->
<g id="node5" class="node">
<title>espace_protege</title>
<g id="a_node5"><a xlink:href="../../tables/espace_protege.html" xlink:title="espace_protege" target="_top">
<polygon fill="#ffffff" stroke="transparent" points="8,-341.7 8,-402.7 129,-402.7 129,-341.7 8,-341.7"/>
<polygon fill="#f5f5f5" stroke="transparent" points="8.5,-379.2 8.5,-402.2 129.5,-402.2 129.5,-379.2 8.5,-379.2"/>
<polygon fill="none" stroke="#000000" points="8.5,-379.2 8.5,-402.2 129.5,-402.2 129.5,-379.2 8.5,-379.2"/>
<text text-anchor="start" x="13.0661" y="-388.3" font-family="Helvetica,sans-Serif" font-weight="bold" font-size="11.00" fill="#000000">espace_protege</text>
<text text-anchor="start" x="95.0219" y="-387.3" font-family="Helvetica,sans-Serif" font-size="11.00" fill="#000000">[table]</text>
<polygon fill="none" stroke="#000000" points="8.5,-360.2 8.5,-379.2 129.5,-379.2 129.5,-360.2 8.5,-360.2"/>
<text text-anchor="start" x="11.5" y="-366.3" font-family="Helvetica,sans-Serif" font-size="11.00" fill="#000000">...</text>
<polygon fill="#ffffff" stroke="transparent" points="8.5,-341.2 8.5,-360.2 45.5,-360.2 45.5,-341.2 8.5,-341.2"/>
<polygon fill="none" stroke="#000000" points="8.5,-341.2 8.5,-360.2 45.5,-360.2 45.5,-341.2 8.5,-341.2"/>
<text text-anchor="start" x="11.5" y="-347.3" font-family="Helvetica,sans-Serif" font-size="11.00" fill="#000000"> &#160;</text>
<polygon fill="#ffffff" stroke="transparent" points="45.5,-341.2 45.5,-360.2 95.5,-360.2 95.5,-341.2 45.5,-341.2"/>
<polygon fill="none" stroke="#000000" points="45.5,-341.2 45.5,-360.2 95.5,-360.2 95.5,-341.2 45.5,-341.2"/>
<text text-anchor="start" x="60.1105" y="-347.3" font-family="Helvetica,sans-Serif" font-size="11.00" fill="#000000">7 rows</text>
<polygon fill="#ffffff" stroke="transparent" points="95.5,-341.2 95.5,-360.2 129.5,-360.2 129.5,-341.2 95.5,-341.2"/>
<polygon fill="none" stroke="#000000" points="95.5,-341.2 95.5,-360.2 129.5,-360.2 129.5,-341.2 95.5,-341.2"/>
<text text-anchor="start" x="110.9053" y="-347.3" font-family="Helvetica,sans-Serif" font-size="11.00" fill="#000000">1 &gt;</text>
</a>
</g>
</g>
<!-- site&#45;&gt;espace_protege -->
<g id="edge5" class="edge">
<title>site:w&#45;&gt;espace_protege:e</title>
<path fill="none" stroke="#000000" d="M163.2829,-369.2C152.2886,-369.2 145.1615,-369.2 129.5,-369.2"/>
<polygon fill="#000000" stroke="#000000" points="170,-369.2001 178,-372.8 174,-369.2 178,-369.2 178,-369.2 178,-369.2 174,-369.2 178,-365.6 170,-369.2001 170,-369.2001"/>
<ellipse fill="none" stroke="#000000" cx="166.8" cy="-369.2001" rx="3.2" ry="3.2"/>
</g>
<!-- entite_geol -->
<g id="node3" class="node">
<title>entite_geol</title>
<g id="a_node3"><a xlink:href="../../tables/entite_geol.html" xlink:title="entite_geol" target="_top">
<polygon fill="#ffffff" stroke="transparent" points="459.5,-467.7 459.5,-528.7 555.5,-528.7 555.5,-467.7 459.5,-467.7"/>
<polygon fill="#f5f5f5" stroke="transparent" points="459.5,-505.2 459.5,-528.2 555.5,-528.2 555.5,-505.2 459.5,-505.2"/>
<polygon fill="none" stroke="#000000" points="459.5,-505.2 459.5,-528.2 555.5,-528.2 555.5,-505.2 459.5,-505.2"/>
<text text-anchor="start" x="464.1001" y="-514.3" font-family="Helvetica,sans-Serif" font-weight="bold" font-size="11.00" fill="#000000">entite_geol</text>
<text text-anchor="start" x="521.0219" y="-513.3" font-family="Helvetica,sans-Serif" font-size="11.00" fill="#000000">[table]</text>
<polygon fill="none" stroke="#000000" points="459.5,-486.2 459.5,-505.2 555.5,-505.2 555.5,-486.2 459.5,-486.2"/>
<text text-anchor="start" x="462.5" y="-492.3" font-family="Helvetica,sans-Serif" font-size="11.00" fill="#000000">...</text>
<polygon fill="#ffffff" stroke="transparent" points="459.5,-467.2 459.5,-486.2 485.5,-486.2 485.5,-467.2 459.5,-467.2"/>
<polygon fill="none" stroke="#000000" points="459.5,-467.2 459.5,-486.2 485.5,-486.2 485.5,-467.2 459.5,-467.2"/>
<text text-anchor="start" x="462.5" y="-473.3" font-family="Helvetica,sans-Serif" font-size="11.00" fill="#000000">&lt; 3</text>
<polygon fill="#ffffff" stroke="transparent" points="485.5,-467.2 485.5,-486.2 531.5,-486.2 531.5,-467.2 485.5,-467.2"/>
<polygon fill="none" stroke="#000000" points="485.5,-467.2 485.5,-486.2 531.5,-486.2 531.5,-467.2 485.5,-467.2"/>
<text text-anchor="start" x="489.9956" y="-473.3" font-family="Helvetica,sans-Serif" font-size="11.00" fill="#000000">24 rows</text>
<polygon fill="#ffffff" stroke="transparent" points="531.5,-467.2 531.5,-486.2 555.5,-486.2 555.5,-467.2 531.5,-467.2"/>
<polygon fill="none" stroke="#000000" points="531.5,-467.2 531.5,-486.2 555.5,-486.2 555.5,-467.2 531.5,-467.2"/>
<text text-anchor="start" x="536.9053" y="-473.3" font-family="Helvetica,sans-Serif" font-size="11.00" fill="#000000">5 &gt;</text>
</a>
</g>
</g>
<!-- entite_geol&#45;&gt;site -->
<g id="edge2" class="edge">
<title>entite_geol:w&#45;&gt;site:e</title>
<path fill="none" stroke="#000000" d="M445.1104,-494.3142C418.8153,-490.75 409.1517,-476.7058 383,-457.2 361.574,-441.2189 368.7296,-413.2 342,-413.2"/>
<polygon fill="#000000" stroke="#000000" points="451.5151,-494.7084 459.2788,-498.7932 455.5076,-494.9542 459.5,-495.2 459.5,-495.2 459.5,-495.2 455.5076,-494.9542 459.7212,-491.6068 451.5151,-494.7084 451.5151,-494.7084"/>
<ellipse fill="none" stroke="#000000" cx="448.3212" cy="-494.5117" rx="3.2" ry="3.2"/>
</g>
<!-- photo -->
<g id="node4" class="node">
<title>photo</title>
<g id="a_node4"><a xlink:href="../../tables/photo.html" xlink:title="photo" target="_top">
<polygon fill="#ffffff" stroke="transparent" points="673,-496.7 673,-557.7 750,-557.7 750,-496.7 673,-496.7"/>
<polygon fill="#f5f5f5" stroke="transparent" points="673.5,-534.2 673.5,-557.2 750.5,-557.2 750.5,-534.2 673.5,-534.2"/>
<polygon fill="none" stroke="#000000" points="673.5,-534.2 673.5,-557.2 750.5,-557.2 750.5,-534.2 673.5,-534.2"/>
<text text-anchor="start" x="678.5" y="-543.3" font-family="Helvetica,sans-Serif" font-weight="bold" font-size="11.00" fill="#000000">photo</text>
<text text-anchor="start" x="715.5437" y="-542.3" font-family="Helvetica,sans-Serif" font-size="11.00" fill="#000000">[table]</text>
<polygon fill="none" stroke="#000000" points="673.5,-515.2 673.5,-534.2 750.5,-534.2 750.5,-515.2 673.5,-515.2"/>
<text text-anchor="start" x="676.5" y="-521.3" font-family="Helvetica,sans-Serif" font-size="11.00" fill="#000000">...</text>
<polygon fill="#ffffff" stroke="transparent" points="673.5,-496.2 673.5,-515.2 694.5,-515.2 694.5,-496.2 673.5,-496.2"/>
<polygon fill="none" stroke="#000000" points="673.5,-496.2 673.5,-515.2 694.5,-515.2 694.5,-496.2 673.5,-496.2"/>
<text text-anchor="start" x="676.2026" y="-502.3" font-family="Helvetica,sans-Serif" font-size="11.00" fill="#000000">&lt; 2</text>
<polygon fill="#ffffff" stroke="transparent" points="694.5,-496.2 694.5,-515.2 738.5,-515.2 738.5,-496.2 694.5,-496.2"/>
<polygon fill="none" stroke="#000000" points="694.5,-496.2 694.5,-515.2 738.5,-515.2 738.5,-496.2 694.5,-496.2"/>
<text text-anchor="start" x="697.2478" y="-502.3" font-family="Helvetica,sans-Serif" font-size="11.00" fill="#000000">10 rows</text>
<polygon fill="#ffffff" stroke="transparent" points="738.5,-496.2 738.5,-515.2 750.5,-515.2 750.5,-496.2 738.5,-496.2"/>
<polygon fill="none" stroke="#000000" points="738.5,-496.2 738.5,-515.2 750.5,-515.2 750.5,-496.2 738.5,-496.2"/>
<text text-anchor="start" x="741.4431" y="-502.3" font-family="Helvetica,sans-Serif" font-size="11.00" fill="#000000"> &#160;</text>
</a>
</g>
</g>
<!-- photo&#45;&gt;site -->
<g id="edge4" class="edge">
<title>photo:w&#45;&gt;site:e</title>
<path fill="none" stroke="#000000" d="M659.0752,-526.9974C650.6461,-530.6561 645.2812,-536.8734 632,-539.2 522.9932,-558.2955 472.5452,-604.2289 383,-539.2 335.3494,-504.5955 400.8901,-413.2 342,-413.2"/>
<polygon fill="#000000" stroke="#000000" points="665.6463,-525.7231 674.1854,-527.7342 669.5732,-524.9616 673.5,-524.2 673.5,-524.2 673.5,-524.2 669.5732,-524.9616 672.8146,-520.6658 665.6463,-525.7231 665.6463,-525.7231"/>
<ellipse fill="none" stroke="#000000" cx="662.5048" cy="-526.3323" rx="3.2" ry="3.2"/>
</g>
<!-- photo&#45;&gt;entite_geol -->
<g id="edge3" class="edge">
<title>photo:w&#45;&gt;entite_geol:e</title>
<path fill="none" stroke="#000000" d="M658.8555,-523.4243C617.124,-518.8125 604.2311,-495.2 555.5,-495.2"/>
<polygon fill="#000000" stroke="#000000" points="665.5112,-523.7768 673.3096,-527.795 669.5056,-523.9884 673.5,-524.2 673.5,-524.2 673.5,-524.2 669.5056,-523.9884 673.6904,-520.605 665.5112,-523.7768 665.5112,-523.7768"/>
<ellipse fill="none" stroke="#000000" cx="662.3157" cy="-523.6075" rx="3.2" ry="3.2"/>
</g>
<!-- site_ontology -->
<g id="node6" class="node">
<title>site_ontology</title>
<g id="a_node6"><a xlink:href="../../tables/site_ontology.html" xlink:title="site_ontology" target="_top">
<polygon fill="#ffffff" stroke="transparent" points="391,-38.2 391,-282.2 624,-282.2 624,-38.2 391,-38.2"/>
<polygon fill="#f5f5f5" stroke="transparent" points="393.5,-257.2 393.5,-280.2 622.5,-280.2 622.5,-257.2 393.5,-257.2"/>
<polygon fill="none" stroke="#000000" points="393.5,-257.2 393.5,-280.2 622.5,-280.2 622.5,-257.2 393.5,-257.2"/>
<text text-anchor="start" x="398.5" y="-266.3" font-family="Helvetica,sans-Serif" font-weight="bold" font-size="11.00" fill="#000000">site_ontology</text>
<text text-anchor="start" x="587.5437" y="-265.3" font-family="Helvetica,sans-Serif" font-size="11.00" fill="#000000">[table]</text>
<polygon fill="none" stroke="#000000" points="393.5,-235.2 393.5,-257.2 532.5,-257.2 532.5,-235.2 393.5,-235.2"/>
<text text-anchor="start" x="413.5" y="-242.3" font-family="Helvetica,sans-Serif" font-size="11.00" fill="#000000">info_complement</text>
<polygon fill="none" stroke="#000000" points="532.5,-235.2 532.5,-257.2 622.5,-257.2 622.5,-235.2 532.5,-235.2"/>
<text text-anchor="start" x="535.5" y="-242.9" font-family="Helvetica,sans-Serif" font-size="11.00" fill="#000000">varchar[255]</text>
<polygon fill="none" stroke="#000000" points="393.5,-213.2 393.5,-235.2 532.5,-235.2 532.5,-213.2 393.5,-213.2"/>
<text text-anchor="start" x="413.5" y="-220.3" font-family="Helvetica,sans-Serif" font-size="11.00" fill="#000000">remarquable</text>
<polygon fill="none" stroke="#000000" points="532.5,-213.2 532.5,-235.2 622.5,-235.2 622.5,-213.2 532.5,-213.2"/>
<text text-anchor="start" x="535.5" y="-220.9" font-family="Helvetica,sans-Serif" font-size="11.00" fill="#000000">bool[1]</text>
<polygon fill="none" stroke="#000000" points="393.5,-191.2 393.5,-213.2 532.5,-213.2 532.5,-191.2 393.5,-191.2"/>
<image xlink:href="../../images/primaryKeys.png" width="11px" height="12px" preserveAspectRatio="xMinYMin meet" x="398.5" y="-208.2"/>
<text text-anchor="start" x="413.5" y="-198.3" font-family="Helvetica,sans-Serif" font-size="11.00" fill="#000000">qcm_id</text>
<polygon fill="none" stroke="#000000" points="532.5,-191.2 532.5,-213.2 622.5,-213.2 622.5,-191.2 532.5,-191.2"/>
<text text-anchor="start" x="535.5" y="-198.9" font-family="Helvetica,sans-Serif" font-size="11.00" fill="#000000">int4[10]</text>
<polygon fill="none" stroke="#000000" points="393.5,-169.2 393.5,-191.2 532.5,-191.2 532.5,-169.2 393.5,-169.2"/>
<image xlink:href="../../images/primaryKeys.png" width="11px" height="12px" preserveAspectRatio="xMinYMin meet" x="398.5" y="-186.2"/>
<text text-anchor="start" x="413.5" y="-176.3" font-family="Helvetica,sans-Serif" font-size="11.00" fill="#000000">site_id</text>
<polygon fill="none" stroke="#000000" points="532.5,-169.2 532.5,-191.2 622.5,-191.2 622.5,-169.2 532.5,-169.2"/>
<text text-anchor="start" x="535.5" y="-176.9" font-family="Helvetica,sans-Serif" font-size="11.00" fill="#000000">int4[10]</text>
<polygon fill="none" stroke="#000000" points="393.5,-147.2 393.5,-169.2 532.5,-169.2 532.5,-147.2 393.5,-147.2"/>
<text text-anchor="start" x="413.5" y="-154.3" font-family="Helvetica,sans-Serif" font-size="11.00" fill="#000000">interet_scientifique</text>
<polygon fill="none" stroke="#000000" points="532.5,-147.2 532.5,-169.2 622.5,-169.2 622.5,-147.2 532.5,-147.2"/>
<text text-anchor="start" x="535.5" y="-154.9" font-family="Helvetica,sans-Serif" font-size="11.00" fill="#000000">bool[1]</text>
<polygon fill="none" stroke="#000000" points="393.5,-125.2 393.5,-147.2 532.5,-147.2 532.5,-125.2 393.5,-125.2"/>
<text text-anchor="start" x="413.5" y="-132.3" font-family="Helvetica,sans-Serif" font-size="11.00" fill="#000000">interet_pedagogique</text>
<polygon fill="none" stroke="#000000" points="532.5,-125.2 532.5,-147.2 622.5,-147.2 622.5,-125.2 532.5,-125.2"/>
<text text-anchor="start" x="535.5" y="-132.9" font-family="Helvetica,sans-Serif" font-size="11.00" fill="#000000">bool[1]</text>
<polygon fill="none" stroke="#000000" points="393.5,-103.2 393.5,-125.2 532.5,-125.2 532.5,-103.2 393.5,-103.2"/>
<text text-anchor="start" x="413.5" y="-110.3" font-family="Helvetica,sans-Serif" font-size="11.00" fill="#000000">interet_esthetique</text>
<polygon fill="none" stroke="#000000" points="532.5,-103.2 532.5,-125.2 622.5,-125.2 622.5,-103.2 532.5,-103.2"/>
<text text-anchor="start" x="535.5" y="-110.9" font-family="Helvetica,sans-Serif" font-size="11.00" fill="#000000">bool[1]</text>
<polygon fill="none" stroke="#000000" points="393.5,-81.2 393.5,-103.2 532.5,-103.2 532.5,-81.2 393.5,-81.2"/>
<text text-anchor="start" x="413.5" y="-88.3" font-family="Helvetica,sans-Serif" font-size="11.00" fill="#000000">interet_historique</text>
<polygon fill="none" stroke="#000000" points="532.5,-81.2 532.5,-103.2 622.5,-103.2 622.5,-81.2 532.5,-81.2"/>
<text text-anchor="start" x="535.5" y="-88.9" font-family="Helvetica,sans-Serif" font-size="11.00" fill="#000000">bool[1]</text>
<polygon fill="none" stroke="#000000" points="393.5,-59.2 393.5,-81.2 532.5,-81.2 532.5,-59.2 393.5,-59.2"/>
<text text-anchor="start" x="413.5" y="-66.3" font-family="Helvetica,sans-Serif" font-size="11.00" fill="#000000">remarquable_info</text>
<polygon fill="none" stroke="#000000" points="532.5,-59.2 532.5,-81.2 622.5,-81.2 622.5,-59.2 532.5,-59.2"/>
<text text-anchor="start" x="535.0043" y="-66.9" font-family="Helvetica,sans-Serif" font-size="11.00" fill="#000000">text[2147483647]</text>
<polygon fill="#ffffff" stroke="transparent" points="393.5,-40.2 393.5,-59.2 451.5,-59.2 451.5,-40.2 393.5,-40.2"/>
<polygon fill="none" stroke="#000000" points="393.5,-40.2 393.5,-59.2 451.5,-59.2 451.5,-40.2 393.5,-40.2"/>
<text text-anchor="start" x="396.5" y="-46.3" font-family="Helvetica,sans-Serif" font-size="11.00" fill="#000000">&lt; 2</text>
<polygon fill="#ffffff" stroke="transparent" points="451.5,-40.2 451.5,-59.2 532.5,-59.2 532.5,-40.2 451.5,-40.2"/>
<polygon fill="none" stroke="#000000" points="451.5,-40.2 451.5,-59.2 532.5,-59.2 532.5,-40.2 451.5,-40.2"/>
<text text-anchor="start" x="490.9956" y="-46.3" font-family="Helvetica,sans-Serif" font-size="11.00" fill="#000000">24 rows</text>
<polygon fill="#ffffff" stroke="transparent" points="532.5,-40.2 532.5,-59.2 622.5,-59.2 622.5,-40.2 532.5,-40.2"/>
<polygon fill="none" stroke="#000000" points="532.5,-40.2 532.5,-59.2 622.5,-59.2 622.5,-40.2 532.5,-40.2"/>
<text text-anchor="start" x="603.9053" y="-46.3" font-family="Helvetica,sans-Serif" font-size="11.00" fill="#000000">0 &gt;</text>
<polygon fill="none" stroke="#000000" stroke-width="2" points="392,-39.2 392,-281.2 623,-281.2 623,-39.2 392,-39.2"/>
</a>
</g>
</g>
<!-- site_ontology&#45;&gt;site -->
<g id="edge7" class="edge">
<title>site_ontology:w&#45;&gt;site:e</title>
<path fill="none" stroke="#000000" d="M378.8683,-182.0755C303.6428,-204.1263 442.4622,-413.2 342,-413.2"/>
<polygon fill="#000000" stroke="#000000" points="385.5649,-181.2172 393.9577,-183.7708 389.5325,-180.7086 393.5,-180.2 393.5,-180.2 393.5,-180.2 389.5325,-180.7086 393.0423,-176.6292 385.5649,-181.2172 385.5649,-181.2172"/>
<ellipse fill="none" stroke="#000000" cx="382.3909" cy="-181.6241" rx="3.2" ry="3.2"/>
</g>
<!-- ontology -->
<g id="node7" class="node">
<title>ontology</title>
<g id="a_node7"><a xlink:href="../../tables/ontology.html" xlink:title="ontology" target="_top">
<polygon fill="#ffffff" stroke="transparent" points="207.5,-131.7 207.5,-236.7 312.5,-236.7 312.5,-131.7 207.5,-131.7"/>
<polygon fill="#f5f5f5" stroke="transparent" points="208,-213.2 208,-236.2 313,-236.2 313,-213.2 208,-213.2"/>
<polygon fill="none" stroke="#000000" points="208,-213.2 208,-236.2 313,-236.2 313,-213.2 208,-213.2"/>
<text text-anchor="start" x="213" y="-222.3" font-family="Helvetica,sans-Serif" font-weight="bold" font-size="11.00" fill="#000000">ontology</text>
<text text-anchor="start" x="278.0437" y="-221.3" font-family="Helvetica,sans-Serif" font-size="11.00" fill="#000000">[table]</text>
<polygon fill="none" stroke="#000000" points="208,-191.2 208,-213.2 313,-213.2 313,-191.2 208,-191.2"/>
<image xlink:href="../../images/primaryKeys.png" width="11px" height="12px" preserveAspectRatio="xMinYMin meet" x="213" y="-208.2"/>
<text text-anchor="start" x="237" y="-198.3" font-family="Helvetica,sans-Serif" font-size="11.00" fill="#000000">id</text>
<polygon fill="#ffffff" stroke="transparent" points="208,-169.2 208,-191.2 313,-191.2 313,-169.2 208,-169.2"/>
<polygon fill="none" stroke="#000000" points="208,-169.2 208,-191.2 313,-191.2 313,-169.2 208,-169.2"/>
<image xlink:href="../../images/foreignKeys.png" width="11px" height="12px" preserveAspectRatio="xMinYMin meet" x="213" y="-186.2"/>
<text text-anchor="start" x="237" y="-176.3" font-family="Helvetica,sans-Serif" font-size="11.00" fill="#000000">id_parent</text>
<polygon fill="none" stroke="#000000" points="208,-150.2 208,-169.2 313,-169.2 313,-150.2 208,-150.2"/>
<text text-anchor="start" x="211" y="-156.3" font-family="Helvetica,sans-Serif" font-size="11.00" fill="#000000">...</text>
<polygon fill="#ffffff" stroke="transparent" points="208,-131.2 208,-150.2 229,-150.2 229,-131.2 208,-131.2"/>
<polygon fill="none" stroke="#000000" points="208,-131.2 208,-150.2 229,-150.2 229,-131.2 208,-131.2"/>
<text text-anchor="start" x="210.7027" y="-137.3" font-family="Helvetica,sans-Serif" font-size="11.00" fill="#000000">&lt; 1</text>
<polygon fill="#ffffff" stroke="transparent" points="229,-131.2 229,-150.2 292,-150.2 292,-131.2 229,-131.2"/>
<polygon fill="none" stroke="#000000" points="229,-131.2 229,-150.2 292,-150.2 292,-131.2 229,-131.2"/>
<text text-anchor="start" x="231.7735" y="-137.3" font-family="Helvetica,sans-Serif" font-size="11.00" fill="#000000">1 021 rows</text>
<polygon fill="#ffffff" stroke="transparent" points="292,-131.2 292,-150.2 313,-150.2 313,-131.2 292,-131.2"/>
<polygon fill="none" stroke="#000000" points="292,-131.2 292,-150.2 313,-150.2 313,-131.2 292,-131.2"/>
<text text-anchor="start" x="294.7027" y="-137.3" font-family="Helvetica,sans-Serif" font-size="11.00" fill="#000000">2 &gt;</text>
</a>
</g>
</g>
<!-- site_ontology&#45;&gt;ontology -->
<g id="edge6" class="edge">
<title>site_ontology:w&#45;&gt;ontology:e</title>
<path fill="none" stroke="#000000" d="M378.827,-202.2C354.3742,-202.2 343.3273,-202.2 313,-202.2"/>
<polygon fill="#000000" stroke="#000000" points="385.5,-202.2001 393.5,-205.8 389.5,-202.2 393.5,-202.2 393.5,-202.2 393.5,-202.2 389.5,-202.2 393.5,-198.6 385.5,-202.2001 385.5,-202.2001"/>
<ellipse fill="none" stroke="#000000" cx="382.3" cy="-202.2001" rx="3.2" ry="3.2"/>
</g>
<!-- site_qcm -->
<g id="node8" class="node">
<title>site_qcm</title>
<g id="a_node8"><a xlink:href="../../tables/site_qcm.html" xlink:title="site_qcm" target="_top">
<polygon fill="#ffffff" stroke="transparent" points="464,-385.7 464,-446.7 551,-446.7 551,-385.7 464,-385.7"/>
<polygon fill="#f5f5f5" stroke="transparent" points="464.5,-423.2 464.5,-446.2 551.5,-446.2 551.5,-423.2 464.5,-423.2"/>
<polygon fill="none" stroke="#000000" points="464.5,-423.2 464.5,-446.2 551.5,-446.2 551.5,-423.2 464.5,-423.2"/>
<text text-anchor="start" x="469.4978" y="-432.3" font-family="Helvetica,sans-Serif" font-weight="bold" font-size="11.00" fill="#000000">site_qcm</text>
<text text-anchor="start" x="517.0219" y="-431.3" font-family="Helvetica,sans-Serif" font-size="11.00" fill="#000000">[table]</text>
<polygon fill="none" stroke="#000000" points="464.5,-404.2 464.5,-423.2 551.5,-423.2 551.5,-404.2 464.5,-404.2"/>
<text text-anchor="start" x="467.5" y="-410.3" font-family="Helvetica,sans-Serif" font-size="11.00" fill="#000000">...</text>
<polygon fill="#ffffff" stroke="transparent" points="464.5,-385.2 464.5,-404.2 490.5,-404.2 490.5,-385.2 464.5,-385.2"/>
<polygon fill="none" stroke="#000000" points="464.5,-385.2 464.5,-404.2 490.5,-404.2 490.5,-385.2 464.5,-385.2"/>
<text text-anchor="start" x="467.5" y="-391.3" font-family="Helvetica,sans-Serif" font-size="11.00" fill="#000000">&lt; 1</text>
<polygon fill="#ffffff" stroke="transparent" points="490.5,-385.2 490.5,-404.2 536.5,-404.2 536.5,-385.2 490.5,-385.2"/>
<polygon fill="none" stroke="#000000" points="490.5,-385.2 490.5,-404.2 536.5,-404.2 536.5,-385.2 490.5,-385.2"/>
<text text-anchor="start" x="494.9956" y="-391.3" font-family="Helvetica,sans-Serif" font-size="11.00" fill="#000000">40 rows</text>
<polygon fill="#ffffff" stroke="transparent" points="536.5,-385.2 536.5,-404.2 551.5,-404.2 551.5,-385.2 536.5,-385.2"/>
<polygon fill="none" stroke="#000000" points="536.5,-385.2 536.5,-404.2 551.5,-404.2 551.5,-385.2 536.5,-385.2"/>
<text text-anchor="start" x="542.3862" y="-391.3" font-family="Helvetica,sans-Serif" font-size="11.00" fill="#000000"> &#160;</text>
</a>
</g>
</g>
<!-- site_qcm&#45;&gt;site -->
<g id="edge8" class="edge">
<title>site_qcm:w&#45;&gt;site:e</title>
<path fill="none" stroke="#000000" d="M449.9189,-413.2C407.0763,-413.2 391.2339,-413.2 342,-413.2"/>
<polygon fill="#000000" stroke="#000000" points="456.5,-413.2001 464.5,-416.8 460.5,-413.2 464.5,-413.2 464.5,-413.2 464.5,-413.2 460.5,-413.2 464.5,-409.6 456.5,-413.2001 456.5,-413.2001"/>
<ellipse fill="none" stroke="#000000" cx="453.3" cy="-413.2001" rx="3.2" ry="3.2"/>
</g>
</g>
</svg>
