<?xml version="1.0" encoding="UTF-8" standalone="no"?>
<!DOCTYPE svg PUBLIC "-//W3C//DTD SVG 1.1//EN"
 "http://www.w3.org/Graphics/SVG/1.1/DTD/svg11.dtd">
<!-- Generated by graphviz version 2.40.1 (20161225.0304)
 -->
<!-- Title: oneDegreeRelationshipsDiagram Pages: 1 -->
<svg width="470pt" height="303pt"
 viewBox="0.00 0.00 470.00 303.20" xmlns="http://www.w3.org/2000/svg" xmlns:xlink="http://www.w3.org/1999/xlink">
<g id="graph0" class="graph" transform="scale(1 1) rotate(0) translate(4 299.2)">
<title>oneDegreeRelationshipsDiagram</title>
<polygon fill="#ffffff" stroke="transparent" points="-4,4 -4,-299.2 466,-299.2 466,4 -4,4"/>
<text text-anchor="middle" x="72.4936" y="-7.3" font-family="Helvetica,sans-Serif" font-size="11.00" fill="#000000">Generated by SchemaSpy</text>
<!-- site_ontology -->
<g id="node1" class="node">
<title>site_ontology</title>
<g id="a_node1"><a xlink:href="../../tables/site_ontology.html" xlink:title="site_ontology" target="_top">
<polygon fill="#ffffff" stroke="transparent" points="221,-40.7 221,-284.7 454,-284.7 454,-40.7 221,-40.7"/>
<polygon fill="#f5f5f5" stroke="transparent" points="223.5,-259.7 223.5,-282.7 452.5,-282.7 452.5,-259.7 223.5,-259.7"/>
<polygon fill="none" stroke="#000000" points="223.5,-259.7 223.5,-282.7 452.5,-282.7 452.5,-259.7 223.5,-259.7"/>
<text text-anchor="start" x="228.5" y="-268.8" font-family="Helvetica,sans-Serif" font-weight="bold" font-size="11.00" fill="#000000">site_ontology</text>
<text text-anchor="start" x="417.5437" y="-267.8" font-family="Helvetica,sans-Serif" font-size="11.00" fill="#000000">[table]</text>
<polygon fill="none" stroke="#000000" points="223.5,-237.7 223.5,-259.7 362.5,-259.7 362.5,-237.7 223.5,-237.7"/>
<text text-anchor="start" x="243.5" y="-244.8" font-family="Helvetica,sans-Serif" font-size="11.00" fill="#000000">info_complement</text>
<polygon fill="none" stroke="#000000" points="362.5,-237.7 362.5,-259.7 452.5,-259.7 452.5,-237.7 362.5,-237.7"/>
<text text-anchor="start" x="365.5" y="-245.4" font-family="Helvetica,sans-Serif" font-size="11.00" fill="#000000">varchar[255]</text>
<polygon fill="none" stroke="#000000" points="223.5,-215.7 223.5,-237.7 362.5,-237.7 362.5,-215.7 223.5,-215.7"/>
<text text-anchor="start" x="243.5" y="-222.8" font-family="Helvetica,sans-Serif" font-size="11.00" fill="#000000">remarquable</text>
<polygon fill="none" stroke="#000000" points="362.5,-215.7 362.5,-237.7 452.5,-237.7 452.5,-215.7 362.5,-215.7"/>
<text text-anchor="start" x="365.5" y="-223.4" font-family="Helvetica,sans-Serif" font-size="11.00" fill="#000000">bool[1]</text>
<polygon fill="none" stroke="#000000" points="223.5,-193.7 223.5,-215.7 362.5,-215.7 362.5,-193.7 223.5,-193.7"/>
<image xlink:href="../../images/primaryKeys.png" width="11px" height="12px" preserveAspectRatio="xMinYMin meet" x="228.5" y="-210.7"/>
<text text-anchor="start" x="243.5" y="-200.8" font-family="Helvetica,sans-Serif" font-size="11.00" fill="#000000">qcm_id</text>
<polygon fill="none" stroke="#000000" points="362.5,-193.7 362.5,-215.7 452.5,-215.7 452.5,-193.7 362.5,-193.7"/>
<text text-anchor="start" x="365.5" y="-201.4" font-family="Helvetica,sans-Serif" font-size="11.00" fill="#000000">int4[10]</text>
<polygon fill="none" stroke="#000000" points="223.5,-171.7 223.5,-193.7 362.5,-193.7 362.5,-171.7 223.5,-171.7"/>
<image xlink:href="../../images/primaryKeys.png" width="11px" height="12px" preserveAspectRatio="xMinYMin meet" x="228.5" y="-188.7"/>
<text text-anchor="start" x="243.5" y="-178.8" font-family="Helvetica,sans-Serif" font-size="11.00" fill="#000000">site_id</text>
<polygon fill="none" stroke="#000000" points="362.5,-171.7 362.5,-193.7 452.5,-193.7 452.5,-171.7 362.5,-171.7"/>
<text text-anchor="start" x="365.5" y="-179.4" font-family="Helvetica,sans-Serif" font-size="11.00" fill="#000000">int4[10]</text>
<polygon fill="none" stroke="#000000" points="223.5,-149.7 223.5,-171.7 362.5,-171.7 362.5,-149.7 223.5,-149.7"/>
<text text-anchor="start" x="243.5" y="-156.8" font-family="Helvetica,sans-Serif" font-size="11.00" fill="#000000">interet_scientifique</text>
<polygon fill="none" stroke="#000000" points="362.5,-149.7 362.5,-171.7 452.5,-171.7 452.5,-149.7 362.5,-149.7"/>
<text text-anchor="start" x="365.5" y="-157.4" font-family="Helvetica,sans-Serif" font-size="11.00" fill="#000000">bool[1]</text>
<polygon fill="none" stroke="#000000" points="223.5,-127.7 223.5,-149.7 362.5,-149.7 362.5,-127.7 223.5,-127.7"/>
<text text-anchor="start" x="243.5" y="-134.8" font-family="Helvetica,sans-Serif" font-size="11.00" fill="#000000">interet_pedagogique</text>
<polygon fill="none" stroke="#000000" points="362.5,-127.7 362.5,-149.7 452.5,-149.7 452.5,-127.7 362.5,-127.7"/>
<text text-anchor="start" x="365.5" y="-135.4" font-family="Helvetica,sans-Serif" font-size="11.00" fill="#000000">bool[1]</text>
<polygon fill="none" stroke="#000000" points="223.5,-105.7 223.5,-127.7 362.5,-127.7 362.5,-105.7 223.5,-105.7"/>
<text text-anchor="start" x="243.5" y="-112.8" font-family="Helvetica,sans-Serif" font-size="11.00" fill="#000000">interet_esthetique</text>
<polygon fill="none" stroke="#000000" points="362.5,-105.7 362.5,-127.7 452.5,-127.7 452.5,-105.7 362.5,-105.7"/>
<text text-anchor="start" x="365.5" y="-113.4" font-family="Helvetica,sans-Serif" font-size="11.00" fill="#000000">bool[1]</text>
<polygon fill="none" stroke="#000000" points="223.5,-83.7 223.5,-105.7 362.5,-105.7 362.5,-83.7 223.5,-83.7"/>
<text text-anchor="start" x="243.5" y="-90.8" font-family="Helvetica,sans-Serif" font-size="11.00" fill="#000000">interet_historique</text>
<polygon fill="none" stroke="#000000" points="362.5,-83.7 362.5,-105.7 452.5,-105.7 452.5,-83.7 362.5,-83.7"/>
<text text-anchor="start" x="365.5" y="-91.4" font-family="Helvetica,sans-Serif" font-size="11.00" fill="#000000">bool[1]</text>
<polygon fill="none" stroke="#000000" points="223.5,-61.7 223.5,-83.7 362.5,-83.7 362.5,-61.7 223.5,-61.7"/>
<text text-anchor="start" x="243.5" y="-68.8" font-family="Helvetica,sans-Serif" font-size="11.00" fill="#000000">remarquable_info</text>
<polygon fill="none" stroke="#000000" points="362.5,-61.7 362.5,-83.7 452.5,-83.7 452.5,-61.7 362.5,-61.7"/>
<text text-anchor="start" x="365.0043" y="-69.4" font-family="Helvetica,sans-Serif" font-size="11.00" fill="#000000">text[2147483647]</text>
<polygon fill="#ffffff" stroke="transparent" points="223.5,-42.7 223.5,-61.7 281.5,-61.7 281.5,-42.7 223.5,-42.7"/>
<polygon fill="none" stroke="#000000" points="223.5,-42.7 223.5,-61.7 281.5,-61.7 281.5,-42.7 223.5,-42.7"/>
<text text-anchor="start" x="226.5" y="-48.8" font-family="Helvetica,sans-Serif" font-size="11.00" fill="#000000">&lt; 2</text>
<polygon fill="#ffffff" stroke="transparent" points="281.5,-42.7 281.5,-61.7 362.5,-61.7 362.5,-42.7 281.5,-42.7"/>
<polygon fill="none" stroke="#000000" points="281.5,-42.7 281.5,-61.7 362.5,-61.7 362.5,-42.7 281.5,-42.7"/>
<text text-anchor="start" x="320.9956" y="-48.8" font-family="Helvetica,sans-Serif" font-size="11.00" fill="#000000">24 rows</text>
<polygon fill="#ffffff" stroke="transparent" points="362.5,-42.7 362.5,-61.7 452.5,-61.7 452.5,-42.7 362.5,-42.7"/>
<polygon fill="none" stroke="#000000" points="362.5,-42.7 362.5,-61.7 452.5,-61.7 452.5,-42.7 362.5,-42.7"/>
<text text-anchor="start" x="433.9053" y="-48.8" font-family="Helvetica,sans-Serif" font-size="11.00" fill="#000000">0 &gt;</text>
<polygon fill="none" stroke="#000000" stroke-width="2" points="222,-41.7 222,-283.7 453,-283.7 453,-41.7 222,-41.7"/>
</a>
</g>
</g>
<!-- ontology -->
<g id="node2" class="node">
<title>ontology</title>
<g id="a_node2"><a xlink:href="../../tables/ontology.html" xlink:title="ontology" target="_top">
<polygon fill="#ffffff" stroke="transparent" points="37.5,-186.2 37.5,-291.2 142.5,-291.2 142.5,-186.2 37.5,-186.2"/>
<polygon fill="#f5f5f5" stroke="transparent" points="38,-267.7 38,-290.7 143,-290.7 143,-267.7 38,-267.7"/>
<polygon fill="none" stroke="#000000" points="38,-267.7 38,-290.7 143,-290.7 143,-267.7 38,-267.7"/>
<text text-anchor="start" x="43" y="-276.8" font-family="Helvetica,sans-Serif" font-weight="bold" font-size="11.00" fill="#000000">ontology</text>
<text text-anchor="start" x="108.0437" y="-275.8" font-family="Helvetica,sans-Serif" font-size="11.00" fill="#000000">[table]</text>
<polygon fill="none" stroke="#000000" points="38,-245.7 38,-267.7 143,-267.7 143,-245.7 38,-245.7"/>
<image xlink:href="../../images/primaryKeys.png" width="11px" height="12px" preserveAspectRatio="xMinYMin meet" x="43" y="-262.7"/>
<text text-anchor="start" x="67" y="-252.8" font-family="Helvetica,sans-Serif" font-size="11.00" fill="#000000">id</text>
<polygon fill="#ffffff" stroke="transparent" points="38,-223.7 38,-245.7 143,-245.7 143,-223.7 38,-223.7"/>
<polygon fill="none" stroke="#000000" points="38,-223.7 38,-245.7 143,-245.7 143,-223.7 38,-223.7"/>
<image xlink:href="../../images/foreignKeys.png" width="11px" height="12px" preserveAspectRatio="xMinYMin meet" x="43" y="-240.7"/>
<text text-anchor="start" x="67" y="-230.8" font-family="Helvetica,sans-Serif" font-size="11.00" fill="#000000">id_parent</text>
<polygon fill="none" stroke="#000000" points="38,-204.7 38,-223.7 143,-223.7 143,-204.7 38,-204.7"/>
<text text-anchor="start" x="41" y="-210.8" font-family="Helvetica,sans-Serif" font-size="11.00" fill="#000000">...</text>
<polygon fill="#ffffff" stroke="transparent" points="38,-185.7 38,-204.7 59,-204.7 59,-185.7 38,-185.7"/>
<polygon fill="none" stroke="#000000" points="38,-185.7 38,-204.7 59,-204.7 59,-185.7 38,-185.7"/>
<text text-anchor="start" x="40.7027" y="-191.8" font-family="Helvetica,sans-Serif" font-size="11.00" fill="#000000">&lt; 1</text>
<polygon fill="#ffffff" stroke="transparent" points="59,-185.7 59,-204.7 122,-204.7 122,-185.7 59,-185.7"/>
<polygon fill="none" stroke="#000000" points="59,-185.7 59,-204.7 122,-204.7 122,-185.7 59,-185.7"/>
<text text-anchor="start" x="61.7735" y="-191.8" font-family="Helvetica,sans-Serif" font-size="11.00" fill="#000000">1 021 rows</text>
<polygon fill="#ffffff" stroke="transparent" points="122,-185.7 122,-204.7 143,-204.7 143,-185.7 122,-185.7"/>
<polygon fill="none" stroke="#000000" points="122,-185.7 122,-204.7 143,-204.7 143,-185.7 122,-185.7"/>
<text text-anchor="start" x="124.7027" y="-191.8" font-family="Helvetica,sans-Serif" font-size="11.00" fill="#000000">2 &gt;</text>
</a>
</g>
</g>
<!-- site_ontology&#45;&gt;ontology -->
<g id="edge1" class="edge">
<title>site_ontology:w&#45;&gt;ontology:e</title>
<path fill="none" stroke="#000000" d="M209.1828,-207.0695C181.3294,-217.2422 180.1026,-256.7 143,-256.7"/>
<polygon fill="#000000" stroke="#000000" points="215.6074,-206.0063 224.0878,-208.2517 219.5537,-205.3531 223.5,-204.7 223.5,-204.7 223.5,-204.7 219.5537,-205.3531 222.9122,-201.1483 215.6074,-206.0063 215.6074,-206.0063"/>
<ellipse fill="none" stroke="#000000" cx="212.4503" cy="-206.5288" rx="3.2" ry="3.2"/>
</g>
<!-- site -->
<g id="node3" class="node">
<title>site</title>
<g id="a_node3"><a xlink:href="../../tables/site.html" xlink:title="site" target="_top">
<polygon fill="#ffffff" stroke="transparent" points="8,-38.2 8,-165.2 172,-165.2 172,-38.2 8,-38.2"/>
<polygon fill="#f5f5f5" stroke="transparent" points="8,-141.7 8,-164.7 172,-164.7 172,-141.7 8,-141.7"/>
<polygon fill="none" stroke="#000000" points="8,-141.7 8,-164.7 172,-164.7 172,-141.7 8,-141.7"/>
<text text-anchor="start" x="13" y="-150.8" font-family="Helvetica,sans-Serif" font-weight="bold" font-size="11.00" fill="#000000">site</text>
<text text-anchor="start" x="137.0437" y="-149.8" font-family="Helvetica,sans-Serif" font-size="11.00" fill="#000000">[table]</text>
<polygon fill="none" stroke="#000000" points="8,-119.7 8,-141.7 172,-141.7 172,-119.7 8,-119.7"/>
<image xlink:href="../../images/primaryKeys.png" width="11px" height="12px" preserveAspectRatio="xMinYMin meet" x="13" y="-136.7"/>
<text text-anchor="start" x="28" y="-126.8" font-family="Helvetica,sans-Serif" font-size="11.00" fill="#000000">id</text>
<polygon fill="#ffffff" stroke="transparent" points="8,-97.7 8,-119.7 172,-119.7 172,-97.7 8,-97.7"/>
<polygon fill="none" stroke="#000000" points="8,-97.7 8,-119.7 172,-119.7 172,-97.7 8,-97.7"/>
<text text-anchor="start" x="28" y="-104.8" font-family="Helvetica,sans-Serif" font-size="11.00" fill="#000000">geom</text>
<polygon fill="#ffffff" stroke="transparent" points="8,-75.7 8,-97.7 172,-97.7 172,-75.7 8,-75.7"/>
<polygon fill="none" stroke="#000000" points="8,-75.7 8,-97.7 172,-97.7 172,-75.7 8,-75.7"/>
<image xlink:href="../../images/foreignKeys.png" width="11px" height="12px" preserveAspectRatio="xMinYMin meet" x="13" y="-92.7"/>
<text text-anchor="start" x="28" y="-82.8" font-family="Helvetica,sans-Serif" font-size="11.00" fill="#000000">ep_id</text>
<polygon fill="none" stroke="#000000" points="8,-56.7 8,-75.7 172,-75.7 172,-56.7 8,-56.7"/>
<text text-anchor="start" x="11" y="-62.8" font-family="Helvetica,sans-Serif" font-size="11.00" fill="#000000">...</text>
<polygon fill="#ffffff" stroke="transparent" points="8,-37.7 8,-56.7 68,-56.7 68,-37.7 8,-37.7"/>
<polygon fill="none" stroke="#000000" points="8,-37.7 8,-56.7 68,-56.7 68,-37.7 8,-37.7"/>
<text text-anchor="start" x="11" y="-43.8" font-family="Helvetica,sans-Serif" font-size="11.00" fill="#000000">&lt; 1</text>
<polygon fill="#ffffff" stroke="transparent" points="68,-37.7 68,-56.7 131,-56.7 131,-37.7 68,-37.7"/>
<polygon fill="none" stroke="#000000" points="68,-37.7 68,-56.7 131,-56.7 131,-37.7 68,-37.7"/>
<text text-anchor="start" x="89.4956" y="-43.8" font-family="Helvetica,sans-Serif" font-size="11.00" fill="#000000">10 rows</text>
<polygon fill="#ffffff" stroke="transparent" points="131,-37.7 131,-56.7 172,-56.7 172,-37.7 131,-37.7"/>
<polygon fill="none" stroke="#000000" points="131,-37.7 131,-56.7 172,-56.7 172,-37.7 131,-37.7"/>
<text text-anchor="start" x="153.4053" y="-43.8" font-family="Helvetica,sans-Serif" font-size="11.00" fill="#000000">5 &gt;</text>
</a>
</g>
</g>
<!-- site_ontology&#45;&gt;site -->
<g id="edge2" class="edge">
<title>site_ontology:w&#45;&gt;site:e</title>
<path fill="none" stroke="#000000" d="M209.4561,-177.9012C194.4356,-165.0281 198.4284,-130.7 172,-130.7"/>
<polygon fill="#000000" stroke="#000000" points="215.9297,-180.1132 222.3359,-186.1066 219.7149,-181.4066 223.5,-182.7 223.5,-182.7 223.5,-182.7 219.7149,-181.4066 224.6641,-179.2934 215.9297,-180.1132 215.9297,-180.1132"/>
<ellipse fill="none" stroke="#000000" cx="212.9016" cy="-179.0785" rx="3.2" ry="3.2"/>
</g>
</g>
</svg>
