<?xml version="1.0" encoding="UTF-8" standalone="no"?>
<!DOCTYPE svg PUBLIC "-//W3C//DTD SVG 1.1//EN"
 "http://www.w3.org/Graphics/SVG/1.1/DTD/svg11.dtd">
<!-- Generated by graphviz version 2.40.1 (20161225.0304)
 -->
<!-- Title: oneDegreeRelationshipsDiagram Pages: 1 -->
<svg width="838pt" height="639pt"
 viewBox="0.00 0.00 838.00 639.20" xmlns="http://www.w3.org/2000/svg" xmlns:xlink="http://www.w3.org/1999/xlink">
<g id="graph0" class="graph" transform="scale(1 1) rotate(0) translate(4 635.2)">
<title>oneDegreeRelationshipsDiagram</title>
<polygon fill="#ffffff" stroke="transparent" points="-4,4 -4,-635.2 834,-635.2 834,4 -4,4"/>
<text text-anchor="middle" x="72.4936" y="-7.3" font-family="Helvetica,sans-Serif" font-size="11.00" fill="#000000">Generated by SchemaSpy</text>
<!-- commentaire -->
<g id="node1" class="node">
<title>commentaire</title>
<g id="a_node1"><a xlink:href="../../tables/commentaire.html" xlink:title="commentaire" target="_top">
<polygon fill="#ffffff" stroke="transparent" points="548.5,-522.2 548.5,-627.2 654.5,-627.2 654.5,-522.2 548.5,-522.2"/>
<polygon fill="#f5f5f5" stroke="transparent" points="548.5,-603.7 548.5,-626.7 654.5,-626.7 654.5,-603.7 548.5,-603.7"/>
<polygon fill="none" stroke="#000000" points="548.5,-603.7 548.5,-626.7 654.5,-626.7 654.5,-603.7 548.5,-603.7"/>
<text text-anchor="start" x="553.221" y="-612.8" font-family="Helvetica,sans-Serif" font-weight="bold" font-size="11.00" fill="#000000">commentaire</text>
<text text-anchor="start" x="620.0219" y="-611.8" font-family="Helvetica,sans-Serif" font-size="11.00" fill="#000000">[table]</text>
<polygon fill="none" stroke="#000000" points="548.5,-581.7 548.5,-603.7 654.5,-603.7 654.5,-581.7 548.5,-581.7"/>
<image xlink:href="../../images/primaryKeys.png" width="11px" height="12px" preserveAspectRatio="xMinYMin meet" x="553.5" y="-598.7"/>
<text text-anchor="start" x="574.5" y="-588.8" font-family="Helvetica,sans-Serif" font-size="11.00" fill="#000000">id</text>
<polygon fill="#ffffff" stroke="transparent" points="548.5,-559.7 548.5,-581.7 654.5,-581.7 654.5,-559.7 548.5,-559.7"/>
<polygon fill="none" stroke="#000000" points="548.5,-559.7 548.5,-581.7 654.5,-581.7 654.5,-559.7 548.5,-559.7"/>
<image xlink:href="../../images/foreignKeys.png" width="11px" height="12px" preserveAspectRatio="xMinYMin meet" x="553.5" y="-576.7"/>
<text text-anchor="start" x="574.5" y="-566.8" font-family="Helvetica,sans-Serif" font-size="11.00" fill="#000000">site_id</text>
<polygon fill="none" stroke="#000000" points="548.5,-540.7 548.5,-559.7 654.5,-559.7 654.5,-540.7 548.5,-540.7"/>
<text text-anchor="start" x="551.5" y="-546.8" font-family="Helvetica,sans-Serif" font-size="11.00" fill="#000000">...</text>
<polygon fill="#ffffff" stroke="transparent" points="548.5,-521.7 548.5,-540.7 586.5,-540.7 586.5,-521.7 548.5,-521.7"/>
<polygon fill="none" stroke="#000000" points="548.5,-521.7 548.5,-540.7 586.5,-540.7 586.5,-521.7 548.5,-521.7"/>
<text text-anchor="start" x="551.5" y="-527.8" font-family="Helvetica,sans-Serif" font-size="11.00" fill="#000000">&lt; 1</text>
<polygon fill="#ffffff" stroke="transparent" points="586.5,-521.7 586.5,-540.7 633.5,-540.7 633.5,-521.7 586.5,-521.7"/>
<polygon fill="none" stroke="#000000" points="586.5,-521.7 586.5,-540.7 633.5,-540.7 633.5,-521.7 586.5,-521.7"/>
<text text-anchor="start" x="598.1105" y="-527.8" font-family="Helvetica,sans-Serif" font-size="11.00" fill="#000000">2 rows</text>
<polygon fill="#ffffff" stroke="transparent" points="633.5,-521.7 633.5,-540.7 654.5,-540.7 654.5,-521.7 633.5,-521.7"/>
<polygon fill="none" stroke="#000000" points="633.5,-521.7 633.5,-540.7 654.5,-540.7 654.5,-521.7 633.5,-521.7"/>
<text text-anchor="start" x="645.3862" y="-527.8" font-family="Helvetica,sans-Serif" font-size="11.00" fill="#000000"> &#160;</text>
</a>
</g>
</g>
<!-- site -->
<g id="node2" class="node">
<title>site</title>
<g id="a_node2"><a xlink:href="../../tables/site.html" xlink:title="site" target="_top">
<polygon fill="#ffffff" stroke="transparent" points="179,-54.7 179,-408.7 466,-408.7 466,-54.7 179,-54.7"/>
<polygon fill="#f5f5f5" stroke="transparent" points="181.5,-383.7 181.5,-406.7 464.5,-406.7 464.5,-383.7 181.5,-383.7"/>
<polygon fill="none" stroke="#000000" points="181.5,-383.7 181.5,-406.7 464.5,-406.7 464.5,-383.7 181.5,-383.7"/>
<text text-anchor="start" x="186.5" y="-392.8" font-family="Helvetica,sans-Serif" font-weight="bold" font-size="11.00" fill="#000000">site</text>
<text text-anchor="start" x="429.5437" y="-391.8" font-family="Helvetica,sans-Serif" font-size="11.00" fill="#000000">[table]</text>
<polygon fill="none" stroke="#000000" points="181.5,-361.7 181.5,-383.7 345.5,-383.7 345.5,-361.7 181.5,-361.7"/>
<image xlink:href="../../images/primaryKeys.png" width="11px" height="12px" preserveAspectRatio="xMinYMin meet" x="186.5" y="-378.7"/>
<text text-anchor="start" x="201.5" y="-368.8" font-family="Helvetica,sans-Serif" font-size="11.00" fill="#000000">id</text>
<polygon fill="none" stroke="#000000" points="345.5,-361.7 345.5,-383.7 464.5,-383.7 464.5,-361.7 345.5,-361.7"/>
<text text-anchor="start" x="348.5" y="-369.4" font-family="Helvetica,sans-Serif" font-size="11.00" fill="#000000">serial[10]</text>
<polygon fill="none" stroke="#000000" points="181.5,-339.7 181.5,-361.7 345.5,-361.7 345.5,-339.7 181.5,-339.7"/>
<text text-anchor="start" x="201.5" y="-346.8" font-family="Helvetica,sans-Serif" font-size="11.00" fill="#000000">nom</text>
<polygon fill="none" stroke="#000000" points="345.5,-339.7 345.5,-361.7 464.5,-361.7 464.5,-339.7 345.5,-339.7"/>
<text text-anchor="start" x="348.5" y="-347.4" font-family="Helvetica,sans-Serif" font-size="11.00" fill="#000000">varchar[255]</text>
<polygon fill="none" stroke="#000000" points="181.5,-317.7 181.5,-339.7 345.5,-339.7 345.5,-317.7 181.5,-317.7"/>
<text text-anchor="start" x="201.5" y="-324.8" font-family="Helvetica,sans-Serif" font-size="11.00" fill="#000000">altitude_max</text>
<polygon fill="none" stroke="#000000" points="345.5,-317.7 345.5,-339.7 464.5,-339.7 464.5,-317.7 345.5,-317.7"/>
<text text-anchor="start" x="348.5" y="-325.4" font-family="Helvetica,sans-Serif" font-size="11.00" fill="#000000">float8[17,17]</text>
<polygon fill="none" stroke="#000000" points="181.5,-295.7 181.5,-317.7 345.5,-317.7 345.5,-295.7 181.5,-295.7"/>
<text text-anchor="start" x="201.5" y="-302.8" font-family="Helvetica,sans-Serif" font-size="11.00" fill="#000000">altitude_min</text>
<polygon fill="none" stroke="#000000" points="345.5,-295.7 345.5,-317.7 464.5,-317.7 464.5,-295.7 345.5,-295.7"/>
<text text-anchor="start" x="348.5" y="-303.4" font-family="Helvetica,sans-Serif" font-size="11.00" fill="#000000">float8[17,17]</text>
<polygon fill="none" stroke="#000000" points="181.5,-273.7 181.5,-295.7 345.5,-295.7 345.5,-273.7 181.5,-273.7"/>
<text text-anchor="start" x="201.5" y="-280.8" font-family="Helvetica,sans-Serif" font-size="11.00" fill="#000000">bassin_hydro_general</text>
<polygon fill="none" stroke="#000000" points="345.5,-273.7 345.5,-295.7 464.5,-295.7 464.5,-273.7 345.5,-273.7"/>
<text text-anchor="start" x="348.5" y="-281.4" font-family="Helvetica,sans-Serif" font-size="11.00" fill="#000000">varchar[255]</text>
<polygon fill="none" stroke="#000000" points="181.5,-251.7 181.5,-273.7 345.5,-273.7 345.5,-251.7 181.5,-251.7"/>
<text text-anchor="start" x="201.5" y="-258.8" font-family="Helvetica,sans-Serif" font-size="11.00" fill="#000000">bassin_hydro_rapproche</text>
<polygon fill="none" stroke="#000000" points="345.5,-251.7 345.5,-273.7 464.5,-273.7 464.5,-251.7 345.5,-251.7"/>
<text text-anchor="start" x="348.5" y="-259.4" font-family="Helvetica,sans-Serif" font-size="11.00" fill="#000000">varchar[255]</text>
<polygon fill="none" stroke="#000000" points="181.5,-229.7 181.5,-251.7 345.5,-251.7 345.5,-229.7 181.5,-229.7"/>
<text text-anchor="start" x="201.5" y="-236.8" font-family="Helvetica,sans-Serif" font-size="11.00" fill="#000000">observations_in_situ</text>
<polygon fill="none" stroke="#000000" points="345.5,-229.7 345.5,-251.7 464.5,-251.7 464.5,-229.7 345.5,-229.7"/>
<text text-anchor="start" x="348.5" y="-237.4" font-family="Helvetica,sans-Serif" font-size="11.00" fill="#000000">text[2147483647]</text>
<polygon fill="none" stroke="#000000" points="181.5,-207.7 181.5,-229.7 345.5,-229.7 345.5,-207.7 181.5,-207.7"/>
<text text-anchor="start" x="201.5" y="-214.8" font-family="Helvetica,sans-Serif" font-size="11.00" fill="#000000">liste_docs_geol</text>
<polygon fill="none" stroke="#000000" points="345.5,-207.7 345.5,-229.7 464.5,-229.7 464.5,-207.7 345.5,-207.7"/>
<text text-anchor="start" x="348.5" y="-215.4" font-family="Helvetica,sans-Serif" font-size="11.00" fill="#000000">text[2147483647]</text>
<polygon fill="none" stroke="#000000" points="181.5,-185.7 181.5,-207.7 345.5,-207.7 345.5,-185.7 181.5,-185.7"/>
<text text-anchor="start" x="201.5" y="-192.8" font-family="Helvetica,sans-Serif" font-size="11.00" fill="#000000">autres_cartes_geol</text>
<polygon fill="none" stroke="#000000" points="345.5,-185.7 345.5,-207.7 464.5,-207.7 464.5,-185.7 345.5,-185.7"/>
<text text-anchor="start" x="348.5" y="-193.4" font-family="Helvetica,sans-Serif" font-size="11.00" fill="#000000">text[2147483647]</text>
<polygon fill="none" stroke="#000000" points="181.5,-163.7 181.5,-185.7 345.5,-185.7 345.5,-163.7 181.5,-163.7"/>
<text text-anchor="start" x="201.5" y="-170.8" font-family="Helvetica,sans-Serif" font-size="11.00" fill="#000000">statut_validation</text>
<polygon fill="none" stroke="#000000" points="345.5,-163.7 345.5,-185.7 464.5,-185.7 464.5,-163.7 345.5,-163.7"/>
<text text-anchor="start" x="348.5" y="-171.4" font-family="Helvetica,sans-Serif" font-size="11.00" fill="#000000">varchar[20]</text>
<polygon fill="#ffffff" stroke="transparent" points="181.5,-141.7 181.5,-163.7 345.5,-163.7 345.5,-141.7 181.5,-141.7"/>
<polygon fill="none" stroke="#000000" points="181.5,-141.7 181.5,-163.7 345.5,-163.7 345.5,-141.7 181.5,-141.7"/>
<text text-anchor="start" x="201.5" y="-148.8" font-family="Helvetica,sans-Serif" font-size="11.00" fill="#000000">geom</text>
<polygon fill="none" stroke="#000000" points="345.5,-141.7 345.5,-163.7 464.5,-163.7 464.5,-141.7 345.5,-141.7"/>
<text text-anchor="start" x="348.4485" y="-149.4" font-family="Helvetica,sans-Serif" font-size="11.00" fill="#000000">geometry[2147483647]</text>
<polygon fill="#ffffff" stroke="transparent" points="181.5,-119.7 181.5,-141.7 345.5,-141.7 345.5,-119.7 181.5,-119.7"/>
<polygon fill="none" stroke="#000000" points="181.5,-119.7 181.5,-141.7 345.5,-141.7 345.5,-119.7 181.5,-119.7"/>
<image xlink:href="../../images/foreignKeys.png" width="11px" height="12px" preserveAspectRatio="xMinYMin meet" x="186.5" y="-136.7"/>
<text text-anchor="start" x="201.5" y="-126.8" font-family="Helvetica,sans-Serif" font-size="11.00" fill="#000000">ep_id</text>
<polygon fill="none" stroke="#000000" points="345.5,-119.7 345.5,-141.7 464.5,-141.7 464.5,-119.7 345.5,-119.7"/>
<text text-anchor="start" x="348.5" y="-127.4" font-family="Helvetica,sans-Serif" font-size="11.00" fill="#000000">int4[10]</text>
<polygon fill="none" stroke="#000000" points="181.5,-97.7 181.5,-119.7 345.5,-119.7 345.5,-97.7 181.5,-97.7"/>
<text text-anchor="start" x="201.5" y="-104.8" font-family="Helvetica,sans-Serif" font-size="11.00" fill="#000000">last_modified</text>
<polygon fill="none" stroke="#000000" points="345.5,-97.7 345.5,-119.7 464.5,-119.7 464.5,-97.7 345.5,-97.7"/>
<text text-anchor="start" x="348.5" y="-105.4" font-family="Helvetica,sans-Serif" font-size="11.00" fill="#000000">timestamptz[35,6]</text>
<polygon fill="none" stroke="#000000" points="181.5,-75.7 181.5,-97.7 345.5,-97.7 345.5,-75.7 181.5,-75.7"/>
<text text-anchor="start" x="201.5" y="-82.8" font-family="Helvetica,sans-Serif" font-size="11.00" fill="#000000">modified_by_userid</text>
<polygon fill="none" stroke="#000000" points="345.5,-75.7 345.5,-97.7 464.5,-97.7 464.5,-75.7 345.5,-75.7"/>
<text text-anchor="start" x="348.5" y="-83.4" font-family="Helvetica,sans-Serif" font-size="11.00" fill="#000000">int4[10]</text>
<polygon fill="#ffffff" stroke="transparent" points="181.5,-56.7 181.5,-75.7 251.5,-75.7 251.5,-56.7 181.5,-56.7"/>
<polygon fill="none" stroke="#000000" points="181.5,-56.7 181.5,-75.7 251.5,-75.7 251.5,-56.7 181.5,-56.7"/>
<text text-anchor="start" x="184.5" y="-62.8" font-family="Helvetica,sans-Serif" font-size="11.00" fill="#000000">&lt; 1</text>
<polygon fill="#ffffff" stroke="transparent" points="251.5,-56.7 251.5,-75.7 345.5,-75.7 345.5,-56.7 251.5,-56.7"/>
<polygon fill="none" stroke="#000000" points="251.5,-56.7 251.5,-75.7 345.5,-75.7 345.5,-56.7 251.5,-56.7"/>
<text text-anchor="start" x="303.9956" y="-62.8" font-family="Helvetica,sans-Serif" font-size="11.00" fill="#000000">10 rows</text>
<polygon fill="#ffffff" stroke="transparent" points="345.5,-56.7 345.5,-75.7 464.5,-75.7 464.5,-56.7 345.5,-56.7"/>
<polygon fill="none" stroke="#000000" points="345.5,-56.7 345.5,-75.7 464.5,-75.7 464.5,-56.7 345.5,-56.7"/>
<text text-anchor="start" x="445.9053" y="-62.8" font-family="Helvetica,sans-Serif" font-size="11.00" fill="#000000">5 &gt;</text>
<polygon fill="none" stroke="#000000" stroke-width="2" points="180,-55.7 180,-407.7 465,-407.7 465,-55.7 180,-55.7"/>
</a>
</g>
</g>
<!-- commentaire&#45;&gt;site -->
<g id="edge1" class="edge">
<title>commentaire:w&#45;&gt;site:e</title>
<path fill="none" stroke="#000000" d="M534.1921,-567.8581C516.586,-559.2728 518.8644,-532.6589 507,-507.7 479.9945,-450.889 527.403,-372.7 464.5,-372.7"/>
<polygon fill="#000000" stroke="#000000" points="540.6533,-569.1414 547.7986,-574.231 544.5766,-569.9207 548.5,-570.7 548.5,-570.7 548.5,-570.7 544.5766,-569.9207 549.2014,-567.169 540.6533,-569.1414 540.6533,-569.1414"/>
<ellipse fill="none" stroke="#000000" cx="537.5146" cy="-568.5179" rx="3.2" ry="3.2"/>
</g>
<!-- espace_protege -->
<g id="node5" class="node">
<title>espace_protege</title>
<g id="a_node5"><a xlink:href="../../tables/espace_protege.html" xlink:title="espace_protege" target="_top">
<polygon fill="#ffffff" stroke="transparent" points="8,-38.2 8,-165.2 130,-165.2 130,-38.2 8,-38.2"/>
<polygon fill="#f5f5f5" stroke="transparent" points="8,-141.7 8,-164.7 130,-164.7 130,-141.7 8,-141.7"/>
<polygon fill="none" stroke="#000000" points="8,-141.7 8,-164.7 130,-164.7 130,-141.7 8,-141.7"/>
<text text-anchor="start" x="13" y="-150.8" font-family="Helvetica,sans-Serif" font-weight="bold" font-size="11.00" fill="#000000">espace_protege</text>
<text text-anchor="start" x="95.5219" y="-149.8" font-family="Helvetica,sans-Serif" font-size="11.00" fill="#000000">[table]</text>
<polygon fill="none" stroke="#000000" points="8,-119.7 8,-141.7 130,-141.7 130,-119.7 8,-119.7"/>
<image xlink:href="../../images/primaryKeys.png" width="11px" height="12px" preserveAspectRatio="xMinYMin meet" x="13" y="-136.7"/>
<text text-anchor="start" x="28" y="-126.8" font-family="Helvetica,sans-Serif" font-size="11.00" fill="#000000">id</text>
<polygon fill="#ffffff" stroke="transparent" points="8,-97.7 8,-119.7 130,-119.7 130,-97.7 8,-97.7"/>
<polygon fill="none" stroke="#000000" points="8,-97.7 8,-119.7 130,-119.7 130,-97.7 8,-97.7"/>
<text text-anchor="start" x="28" y="-104.8" font-family="Helvetica,sans-Serif" font-size="11.00" fill="#000000">code_national_ep</text>
<polygon fill="#ffffff" stroke="transparent" points="8,-75.7 8,-97.7 130,-97.7 130,-75.7 8,-75.7"/>
<polygon fill="none" stroke="#000000" points="8,-75.7 8,-97.7 130,-97.7 130,-75.7 8,-75.7"/>
<text text-anchor="start" x="28" y="-82.8" font-family="Helvetica,sans-Serif" font-size="11.00" fill="#000000">geom</text>
<polygon fill="none" stroke="#000000" points="8,-56.7 8,-75.7 130,-75.7 130,-56.7 8,-56.7"/>
<text text-anchor="start" x="11" y="-62.8" font-family="Helvetica,sans-Serif" font-size="11.00" fill="#000000">...</text>
<polygon fill="#ffffff" stroke="transparent" points="8,-37.7 8,-56.7 45,-56.7 45,-37.7 8,-37.7"/>
<polygon fill="none" stroke="#000000" points="8,-37.7 8,-56.7 45,-56.7 45,-37.7 8,-37.7"/>
<text text-anchor="start" x="11" y="-43.8" font-family="Helvetica,sans-Serif" font-size="11.00" fill="#000000"> &#160;</text>
<polygon fill="#ffffff" stroke="transparent" points="45,-37.7 45,-56.7 96,-56.7 96,-37.7 45,-37.7"/>
<polygon fill="none" stroke="#000000" points="45,-37.7 45,-56.7 96,-56.7 96,-37.7 45,-37.7"/>
<text text-anchor="start" x="60.6105" y="-43.8" font-family="Helvetica,sans-Serif" font-size="11.00" fill="#000000">7 rows</text>
<polygon fill="#ffffff" stroke="transparent" points="96,-37.7 96,-56.7 130,-56.7 130,-37.7 96,-37.7"/>
<polygon fill="none" stroke="#000000" points="96,-37.7 96,-56.7 130,-56.7 130,-37.7 96,-37.7"/>
<text text-anchor="start" x="111.4053" y="-43.8" font-family="Helvetica,sans-Serif" font-size="11.00" fill="#000000">1 &gt;</text>
</a>
</g>
</g>
<!-- site&#45;&gt;espace_protege -->
<g id="edge5" class="edge">
<title>site:w&#45;&gt;espace_protege:e</title>
<path fill="none" stroke="#000000" d="M167.0156,-130.7C154.6771,-130.7 147.1667,-130.7 130,-130.7"/>
<polygon fill="#000000" stroke="#000000" points="173.5,-130.7001 181.5,-134.3 177.5,-130.7 181.5,-130.7 181.5,-130.7 181.5,-130.7 177.5,-130.7 181.5,-127.1 173.5,-130.7001 173.5,-130.7001"/>
<ellipse fill="none" stroke="#000000" cx="170.3" cy="-130.7001" rx="3.2" ry="3.2"/>
</g>
<!-- entite_geol -->
<g id="node3" class="node">
<title>entite_geol</title>
<g id="a_node3"><a xlink:href="../../tables/entite_geol.html" xlink:title="entite_geol" target="_top">
<polygon fill="#ffffff" stroke="transparent" points="515,-302.2 515,-473.2 688,-473.2 688,-302.2 515,-302.2"/>
<polygon fill="#f5f5f5" stroke="transparent" points="515.5,-449.7 515.5,-472.7 688.5,-472.7 688.5,-449.7 515.5,-449.7"/>
<polygon fill="none" stroke="#000000" points="515.5,-449.7 515.5,-472.7 688.5,-472.7 688.5,-449.7 515.5,-449.7"/>
<text text-anchor="start" x="520.5" y="-458.8" font-family="Helvetica,sans-Serif" font-weight="bold" font-size="11.00" fill="#000000">entite_geol</text>
<text text-anchor="start" x="653.5437" y="-457.8" font-family="Helvetica,sans-Serif" font-size="11.00" fill="#000000">[table]</text>
<polygon fill="none" stroke="#000000" points="515.5,-427.7 515.5,-449.7 688.5,-449.7 688.5,-427.7 515.5,-427.7"/>
<image xlink:href="../../images/primaryKeys.png" width="11px" height="12px" preserveAspectRatio="xMinYMin meet" x="520.5" y="-444.7"/>
<text text-anchor="start" x="535.5" y="-434.8" font-family="Helvetica,sans-Serif" font-size="11.00" fill="#000000">id</text>
<polygon fill="#ffffff" stroke="transparent" points="515.5,-405.7 515.5,-427.7 688.5,-427.7 688.5,-405.7 515.5,-405.7"/>
<polygon fill="none" stroke="#000000" points="515.5,-405.7 515.5,-427.7 688.5,-427.7 688.5,-405.7 515.5,-405.7"/>
<text text-anchor="start" x="535.5" y="-412.8" font-family="Helvetica,sans-Serif" font-size="11.00" fill="#000000">geom</text>
<polygon fill="#ffffff" stroke="transparent" points="515.5,-383.7 515.5,-405.7 688.5,-405.7 688.5,-383.7 515.5,-383.7"/>
<polygon fill="none" stroke="#000000" points="515.5,-383.7 515.5,-405.7 688.5,-405.7 688.5,-383.7 515.5,-383.7"/>
<image xlink:href="../../images/foreignKeys.png" width="11px" height="12px" preserveAspectRatio="xMinYMin meet" x="520.5" y="-400.7"/>
<text text-anchor="start" x="535.5" y="-390.8" font-family="Helvetica,sans-Serif" font-size="11.00" fill="#000000">ere_geol_id</text>
<polygon fill="#ffffff" stroke="transparent" points="515.5,-361.7 515.5,-383.7 688.5,-383.7 688.5,-361.7 515.5,-361.7"/>
<polygon fill="none" stroke="#000000" points="515.5,-361.7 515.5,-383.7 688.5,-383.7 688.5,-361.7 515.5,-361.7"/>
<image xlink:href="../../images/foreignKeys.png" width="11px" height="12px" preserveAspectRatio="xMinYMin meet" x="520.5" y="-378.7"/>
<text text-anchor="start" x="535.5" y="-368.8" font-family="Helvetica,sans-Serif" font-size="11.00" fill="#000000">site_id</text>
<polygon fill="#ffffff" stroke="transparent" points="515.5,-339.7 515.5,-361.7 688.5,-361.7 688.5,-339.7 515.5,-339.7"/>
<polygon fill="none" stroke="#000000" points="515.5,-339.7 515.5,-361.7 688.5,-361.7 688.5,-339.7 515.5,-339.7"/>
<image xlink:href="../../images/foreignKeys.png" width="11px" height="12px" preserveAspectRatio="xMinYMin meet" x="520.5" y="-356.7"/>
<text text-anchor="start" x="535.5" y="-346.8" font-family="Helvetica,sans-Serif" font-size="11.00" fill="#000000">s_fgeol_id</text>
<polygon fill="none" stroke="#000000" points="515.5,-320.7 515.5,-339.7 688.5,-339.7 688.5,-320.7 515.5,-320.7"/>
<text text-anchor="start" x="518.5" y="-326.8" font-family="Helvetica,sans-Serif" font-size="11.00" fill="#000000">...</text>
<polygon fill="#ffffff" stroke="transparent" points="515.5,-301.7 515.5,-320.7 579.5,-320.7 579.5,-301.7 515.5,-301.7"/>
<polygon fill="none" stroke="#000000" points="515.5,-301.7 515.5,-320.7 579.5,-320.7 579.5,-301.7 515.5,-301.7"/>
<text text-anchor="start" x="518.5" y="-307.8" font-family="Helvetica,sans-Serif" font-size="11.00" fill="#000000">&lt; 3</text>
<polygon fill="#ffffff" stroke="transparent" points="579.5,-301.7 579.5,-320.7 645.5,-320.7 645.5,-301.7 579.5,-301.7"/>
<polygon fill="none" stroke="#000000" points="579.5,-301.7 579.5,-320.7 645.5,-320.7 645.5,-301.7 579.5,-301.7"/>
<text text-anchor="start" x="603.9956" y="-307.8" font-family="Helvetica,sans-Serif" font-size="11.00" fill="#000000">24 rows</text>
<polygon fill="#ffffff" stroke="transparent" points="645.5,-301.7 645.5,-320.7 688.5,-320.7 688.5,-301.7 645.5,-301.7"/>
<polygon fill="none" stroke="#000000" points="645.5,-301.7 645.5,-320.7 688.5,-320.7 688.5,-301.7 645.5,-301.7"/>
<text text-anchor="start" x="669.9053" y="-307.8" font-family="Helvetica,sans-Serif" font-size="11.00" fill="#000000">5 &gt;</text>
</a>
</g>
</g>
<!-- entite_geol&#45;&gt;site -->
<g id="edge2" class="edge">
<title>entite_geol:w&#45;&gt;site:e</title>
<path fill="none" stroke="#000000" d="M500.776,-372.7C488.7815,-372.7 481.3229,-372.7 464.5,-372.7"/>
<polygon fill="#000000" stroke="#000000" points="507.5,-372.7001 515.5,-376.3 511.5,-372.7 515.5,-372.7 515.5,-372.7 515.5,-372.7 511.5,-372.7 515.5,-369.1 507.5,-372.7001 507.5,-372.7001"/>
<ellipse fill="none" stroke="#000000" cx="504.3" cy="-372.7001" rx="3.2" ry="3.2"/>
</g>
<!-- photo -->
<g id="node4" class="node">
<title>photo</title>
<g id="a_node4"><a xlink:href="../../tables/photo.html" xlink:title="photo" target="_top">
<polygon fill="#ffffff" stroke="transparent" points="737,-386.2 737,-535.2 822,-535.2 822,-386.2 737,-386.2"/>
<polygon fill="#f5f5f5" stroke="transparent" points="737.5,-511.7 737.5,-534.7 822.5,-534.7 822.5,-511.7 737.5,-511.7"/>
<polygon fill="none" stroke="#000000" points="737.5,-511.7 737.5,-534.7 822.5,-534.7 822.5,-511.7 737.5,-511.7"/>
<text text-anchor="start" x="742.5" y="-520.8" font-family="Helvetica,sans-Serif" font-weight="bold" font-size="11.00" fill="#000000">photo</text>
<text text-anchor="start" x="787.5437" y="-519.8" font-family="Helvetica,sans-Serif" font-size="11.00" fill="#000000">[table]</text>
<polygon fill="none" stroke="#000000" points="737.5,-489.7 737.5,-511.7 822.5,-511.7 822.5,-489.7 737.5,-489.7"/>
<image xlink:href="../../images/primaryKeys.png" width="11px" height="12px" preserveAspectRatio="xMinYMin meet" x="742.5" y="-506.7"/>
<text text-anchor="start" x="757.5" y="-496.8" font-family="Helvetica,sans-Serif" font-size="11.00" fill="#000000">id</text>
<polygon fill="#ffffff" stroke="transparent" points="737.5,-467.7 737.5,-489.7 822.5,-489.7 822.5,-467.7 737.5,-467.7"/>
<polygon fill="none" stroke="#000000" points="737.5,-467.7 737.5,-489.7 822.5,-489.7 822.5,-467.7 737.5,-467.7"/>
<image xlink:href="../../images/foreignKeys.png" width="11px" height="12px" preserveAspectRatio="xMinYMin meet" x="742.5" y="-484.7"/>
<text text-anchor="start" x="757.5" y="-474.8" font-family="Helvetica,sans-Serif" font-size="11.00" fill="#000000">site_id</text>
<polygon fill="#ffffff" stroke="transparent" points="737.5,-445.7 737.5,-467.7 822.5,-467.7 822.5,-445.7 737.5,-445.7"/>
<polygon fill="none" stroke="#000000" points="737.5,-445.7 737.5,-467.7 822.5,-467.7 822.5,-445.7 737.5,-445.7"/>
<image xlink:href="../../images/foreignKeys.png" width="11px" height="12px" preserveAspectRatio="xMinYMin meet" x="742.5" y="-462.7"/>
<text text-anchor="start" x="757.5" y="-452.8" font-family="Helvetica,sans-Serif" font-size="11.00" fill="#000000">eg_id</text>
<polygon fill="#ffffff" stroke="transparent" points="737.5,-423.7 737.5,-445.7 822.5,-445.7 822.5,-423.7 737.5,-423.7"/>
<polygon fill="none" stroke="#000000" points="737.5,-423.7 737.5,-445.7 822.5,-445.7 822.5,-423.7 737.5,-423.7"/>
<text text-anchor="start" x="757.5" y="-430.8" font-family="Helvetica,sans-Serif" font-size="11.00" fill="#000000">mimetype</text>
<polygon fill="none" stroke="#000000" points="737.5,-404.7 737.5,-423.7 822.5,-423.7 822.5,-404.7 737.5,-404.7"/>
<text text-anchor="start" x="740.5" y="-410.8" font-family="Helvetica,sans-Serif" font-size="11.00" fill="#000000">...</text>
<polygon fill="#ffffff" stroke="transparent" points="737.5,-385.7 737.5,-404.7 762.5,-404.7 762.5,-385.7 737.5,-385.7"/>
<polygon fill="none" stroke="#000000" points="737.5,-385.7 737.5,-404.7 762.5,-404.7 762.5,-385.7 737.5,-385.7"/>
<text text-anchor="start" x="740.5" y="-391.8" font-family="Helvetica,sans-Serif" font-size="11.00" fill="#000000">&lt; 2</text>
<polygon fill="#ffffff" stroke="transparent" points="762.5,-385.7 762.5,-404.7 808.5,-404.7 808.5,-385.7 762.5,-385.7"/>
<polygon fill="none" stroke="#000000" points="762.5,-385.7 762.5,-404.7 808.5,-404.7 808.5,-385.7 762.5,-385.7"/>
<text text-anchor="start" x="766.9956" y="-391.8" font-family="Helvetica,sans-Serif" font-size="11.00" fill="#000000">10 rows</text>
<polygon fill="#ffffff" stroke="transparent" points="808.5,-385.7 808.5,-404.7 822.5,-404.7 822.5,-385.7 808.5,-385.7"/>
<polygon fill="none" stroke="#000000" points="808.5,-385.7 808.5,-404.7 822.5,-404.7 822.5,-385.7 808.5,-385.7"/>
<text text-anchor="start" x="813.3862" y="-391.8" font-family="Helvetica,sans-Serif" font-size="11.00" fill="#000000"> &#160;</text>
</a>
</g>
</g>
<!-- photo&#45;&gt;site -->
<g id="edge4" class="edge">
<title>photo:w&#45;&gt;site:e</title>
<path fill="none" stroke="#000000" d="M723.0864,-479.6775C714.6642,-480.9054 708.6044,-482.9434 696,-483.7 612.1509,-488.733 576.2062,-531.3077 507,-483.7 463.4777,-453.7605 517.3258,-372.7 464.5,-372.7"/>
<polygon fill="#000000" stroke="#000000" points="729.5183,-479.2413 737.7436,-482.2917 733.5092,-478.9707 737.5,-478.7 737.5,-478.7 737.5,-478.7 733.5092,-478.9707 737.2564,-475.1083 729.5183,-479.2413 729.5183,-479.2413"/>
<ellipse fill="none" stroke="#000000" cx="726.3257" cy="-479.4579" rx="3.2" ry="3.2"/>
</g>
<!-- photo&#45;&gt;entite_geol -->
<g id="edge3" class="edge">
<title>photo:w&#45;&gt;entite_geol:e</title>
<path fill="none" stroke="#000000" d="M723.3186,-453.8875C711.7124,-448.825 705.9005,-438.7 688.5,-438.7"/>
<polygon fill="#000000" stroke="#000000" points="729.6528,-455.1437 736.7997,-460.2312 733.5764,-455.9218 737.5,-456.7 737.5,-456.7 737.5,-456.7 733.5764,-455.9218 738.2003,-453.1688 729.6528,-455.1437 729.6528,-455.1437"/>
<ellipse fill="none" stroke="#000000" cx="726.514" cy="-454.5212" rx="3.2" ry="3.2"/>
</g>
<!-- site_ontology -->
<g id="node6" class="node">
<title>site_ontology</title>
<g id="a_node6"><a xlink:href="../../tables/site_ontology.html" xlink:title="site_ontology" target="_top">
<polygon fill="#ffffff" stroke="transparent" points="532,-176.2 532,-281.2 671,-281.2 671,-176.2 532,-176.2"/>
<polygon fill="#f5f5f5" stroke="transparent" points="532.5,-257.7 532.5,-280.7 671.5,-280.7 671.5,-257.7 532.5,-257.7"/>
<polygon fill="none" stroke="#000000" points="532.5,-257.7 532.5,-280.7 671.5,-280.7 671.5,-257.7 532.5,-257.7"/>
<text text-anchor="start" x="537.5" y="-266.8" font-family="Helvetica,sans-Serif" font-weight="bold" font-size="11.00" fill="#000000">site_ontology</text>
<text text-anchor="start" x="636.5437" y="-265.8" font-family="Helvetica,sans-Serif" font-size="11.00" fill="#000000">[table]</text>
<polygon fill="none" stroke="#000000" points="532.5,-235.7 532.5,-257.7 671.5,-257.7 671.5,-235.7 532.5,-235.7"/>
<image xlink:href="../../images/primaryKeys.png" width="11px" height="12px" preserveAspectRatio="xMinYMin meet" x="537.5" y="-252.7"/>
<text text-anchor="start" x="552.5" y="-242.8" font-family="Helvetica,sans-Serif" font-size="11.00" fill="#000000">qcm_id</text>
<polygon fill="none" stroke="#000000" points="532.5,-213.7 532.5,-235.7 671.5,-235.7 671.5,-213.7 532.5,-213.7"/>
<image xlink:href="../../images/primaryKeys.png" width="11px" height="12px" preserveAspectRatio="xMinYMin meet" x="537.5" y="-230.7"/>
<text text-anchor="start" x="552.5" y="-220.8" font-family="Helvetica,sans-Serif" font-size="11.00" fill="#000000">site_id</text>
<polygon fill="none" stroke="#000000" points="532.5,-194.7 532.5,-213.7 671.5,-213.7 671.5,-194.7 532.5,-194.7"/>
<text text-anchor="start" x="535.5" y="-200.8" font-family="Helvetica,sans-Serif" font-size="11.00" fill="#000000">...</text>
<polygon fill="#ffffff" stroke="transparent" points="532.5,-175.7 532.5,-194.7 584.5,-194.7 584.5,-175.7 532.5,-175.7"/>
<polygon fill="none" stroke="#000000" points="532.5,-175.7 532.5,-194.7 584.5,-194.7 584.5,-175.7 532.5,-175.7"/>
<text text-anchor="start" x="535.5" y="-181.8" font-family="Helvetica,sans-Serif" font-size="11.00" fill="#000000">&lt; 2</text>
<polygon fill="#ffffff" stroke="transparent" points="584.5,-175.7 584.5,-194.7 643.5,-194.7 643.5,-175.7 584.5,-175.7"/>
<polygon fill="none" stroke="#000000" points="584.5,-175.7 584.5,-194.7 643.5,-194.7 643.5,-175.7 584.5,-175.7"/>
<text text-anchor="start" x="601.9956" y="-181.8" font-family="Helvetica,sans-Serif" font-size="11.00" fill="#000000">24 rows</text>
<polygon fill="#ffffff" stroke="transparent" points="643.5,-175.7 643.5,-194.7 671.5,-194.7 671.5,-175.7 643.5,-175.7"/>
<polygon fill="none" stroke="#000000" points="643.5,-175.7 643.5,-194.7 671.5,-194.7 671.5,-175.7 643.5,-175.7"/>
<text text-anchor="start" x="662.3862" y="-181.8" font-family="Helvetica,sans-Serif" font-size="11.00" fill="#000000"> &#160;</text>
</a>
</g>
</g>
<!-- site_ontology&#45;&gt;site -->
<g id="edge6" class="edge">
<title>site_ontology:w&#45;&gt;site:e</title>
<path fill="none" stroke="#000000" d="M518.123,-227.2688C471.1975,-246.9217 531.2332,-372.7 464.5,-372.7"/>
<polygon fill="#000000" stroke="#000000" points="524.6247,-226.1072 533.1332,-228.2439 528.5624,-225.4036 532.5,-224.7 532.5,-224.7 532.5,-224.7 528.5624,-225.4036 531.8668,-221.1561 524.6247,-226.1072 524.6247,-226.1072"/>
<ellipse fill="none" stroke="#000000" cx="521.4746" cy="-226.67" rx="3.2" ry="3.2"/>
</g>
<!-- site_qcm -->
<g id="node7" class="node">
<title>site_qcm</title>
<g id="a_node7"><a xlink:href="../../tables/site_qcm.html" xlink:title="site_qcm" target="_top">
<polygon fill="#ffffff" stroke="transparent" points="532,-50.2 532,-155.2 671,-155.2 671,-50.2 532,-50.2"/>
<polygon fill="#f5f5f5" stroke="transparent" points="532.5,-131.7 532.5,-154.7 671.5,-154.7 671.5,-131.7 532.5,-131.7"/>
<polygon fill="none" stroke="#000000" points="532.5,-131.7 532.5,-154.7 671.5,-154.7 671.5,-131.7 532.5,-131.7"/>
<text text-anchor="start" x="537.5" y="-140.8" font-family="Helvetica,sans-Serif" font-weight="bold" font-size="11.00" fill="#000000">site_qcm</text>
<text text-anchor="start" x="636.5437" y="-139.8" font-family="Helvetica,sans-Serif" font-size="11.00" fill="#000000">[table]</text>
<polygon fill="none" stroke="#000000" points="532.5,-109.7 532.5,-131.7 671.5,-131.7 671.5,-109.7 532.5,-109.7"/>
<image xlink:href="../../images/primaryKeys.png" width="11px" height="12px" preserveAspectRatio="xMinYMin meet" x="537.5" y="-126.7"/>
<text text-anchor="start" x="552.5" y="-116.8" font-family="Helvetica,sans-Serif" font-size="11.00" fill="#000000">qcm_id</text>
<polygon fill="none" stroke="#000000" points="532.5,-87.7 532.5,-109.7 671.5,-109.7 671.5,-87.7 532.5,-87.7"/>
<image xlink:href="../../images/primaryKeys.png" width="11px" height="12px" preserveAspectRatio="xMinYMin meet" x="537.5" y="-104.7"/>
<text text-anchor="start" x="552.5" y="-94.8" font-family="Helvetica,sans-Serif" font-size="11.00" fill="#000000">site_id</text>
<polygon fill="none" stroke="#000000" points="532.5,-68.7 532.5,-87.7 671.5,-87.7 671.5,-68.7 532.5,-68.7"/>
<text text-anchor="start" x="535.5" y="-74.8" font-family="Helvetica,sans-Serif" font-size="11.00" fill="#000000">...</text>
<polygon fill="#ffffff" stroke="transparent" points="532.5,-49.7 532.5,-68.7 584.5,-68.7 584.5,-49.7 532.5,-49.7"/>
<polygon fill="none" stroke="#000000" points="532.5,-49.7 532.5,-68.7 584.5,-68.7 584.5,-49.7 532.5,-49.7"/>
<text text-anchor="start" x="535.5" y="-55.8" font-family="Helvetica,sans-Serif" font-size="11.00" fill="#000000">&lt; 1</text>
<polygon fill="#ffffff" stroke="transparent" points="584.5,-49.7 584.5,-68.7 643.5,-68.7 643.5,-49.7 584.5,-49.7"/>
<polygon fill="none" stroke="#000000" points="584.5,-49.7 584.5,-68.7 643.5,-68.7 643.5,-49.7 584.5,-49.7"/>
<text text-anchor="start" x="601.9956" y="-55.8" font-family="Helvetica,sans-Serif" font-size="11.00" fill="#000000">40 rows</text>
<polygon fill="#ffffff" stroke="transparent" points="643.5,-49.7 643.5,-68.7 671.5,-68.7 671.5,-49.7 643.5,-49.7"/>
<polygon fill="none" stroke="#000000" points="643.5,-49.7 643.5,-68.7 671.5,-68.7 671.5,-49.7 643.5,-49.7"/>
<text text-anchor="start" x="662.3862" y="-55.8" font-family="Helvetica,sans-Serif" font-size="11.00" fill="#000000"> &#160;</text>
</a>
</g>
</g>
<!-- site_qcm&#45;&gt;site -->
<g id="edge7" class="edge">
<title>site_qcm:w&#45;&gt;site:e</title>
<path fill="none" stroke="#000000" d="M519.0947,-104.1733C478.5696,-142.7908 521.9671,-372.7 464.5,-372.7"/>
<polygon fill="#000000" stroke="#000000" points="525.0935,-101.724 533.8608,-102.0329 528.7968,-100.212 532.5,-98.7 532.5,-98.7 532.5,-98.7 528.7968,-100.212 531.1392,-95.3671 525.0935,-101.724 525.0935,-101.724"/>
<ellipse fill="none" stroke="#000000" cx="522.131" cy="-102.9336" rx="3.2" ry="3.2"/>
</g>
</g>
</svg>
