<?xml version="1.0" encoding="UTF-8" standalone="no"?>
<!DOCTYPE svg PUBLIC "-//W3C//DTD SVG 1.1//EN"
 "http://www.w3.org/Graphics/SVG/1.1/DTD/svg11.dtd">
<!-- Generated by graphviz version 2.40.1 (20161225.0304)
 -->
<!-- Title: twoDegreesRelationshipsDiagram Pages: 1 -->
<svg width="775pt" height="613pt"
 viewBox="0.00 0.00 775.00 612.70" xmlns="http://www.w3.org/2000/svg" xmlns:xlink="http://www.w3.org/1999/xlink">
<g id="graph0" class="graph" transform="scale(1 1) rotate(0) translate(4 608.7)">
<title>twoDegreesRelationshipsDiagram</title>
<polygon fill="#ffffff" stroke="transparent" points="-4,4 -4,-608.7 771,-608.7 771,4 -4,4"/>
<text text-anchor="middle" x="72.4936" y="-7.3" font-family="Helvetica,sans-Serif" font-size="11.00" fill="#000000">Generated by SchemaSpy</text>
<!-- commentaire -->
<g id="node1" class="node">
<title>commentaire</title>
<g id="a_node1"><a xlink:href="../../tables/commentaire.html" xlink:title="commentaire" target="_top">
<polygon fill="#ffffff" stroke="transparent" points="459,-539.7 459,-600.7 565,-600.7 565,-539.7 459,-539.7"/>
<polygon fill="#f5f5f5" stroke="transparent" points="459,-577.2 459,-600.2 565,-600.2 565,-577.2 459,-577.2"/>
<polygon fill="none" stroke="#000000" points="459,-577.2 459,-600.2 565,-600.2 565,-577.2 459,-577.2"/>
<text text-anchor="start" x="463.721" y="-586.3" font-family="Helvetica,sans-Serif" font-weight="bold" font-size="11.00" fill="#000000">commentaire</text>
<text text-anchor="start" x="530.5219" y="-585.3" font-family="Helvetica,sans-Serif" font-size="11.00" fill="#000000">[table]</text>
<polygon fill="none" stroke="#000000" points="459,-558.2 459,-577.2 565,-577.2 565,-558.2 459,-558.2"/>
<text text-anchor="start" x="462" y="-564.3" font-family="Helvetica,sans-Serif" font-size="11.00" fill="#000000">...</text>
<polygon fill="#ffffff" stroke="transparent" points="459,-539.2 459,-558.2 497,-558.2 497,-539.2 459,-539.2"/>
<polygon fill="none" stroke="#000000" points="459,-539.2 459,-558.2 497,-558.2 497,-539.2 459,-539.2"/>
<text text-anchor="start" x="462" y="-545.3" font-family="Helvetica,sans-Serif" font-size="11.00" fill="#000000">&lt; 1</text>
<polygon fill="#ffffff" stroke="transparent" points="497,-539.2 497,-558.2 544,-558.2 544,-539.2 497,-539.2"/>
<polygon fill="none" stroke="#000000" points="497,-539.2 497,-558.2 544,-558.2 544,-539.2 497,-539.2"/>
<text text-anchor="start" x="508.6105" y="-545.3" font-family="Helvetica,sans-Serif" font-size="11.00" fill="#000000">2 rows</text>
<polygon fill="#ffffff" stroke="transparent" points="544,-539.2 544,-558.2 565,-558.2 565,-539.2 544,-539.2"/>
<polygon fill="none" stroke="#000000" points="544,-539.2 544,-558.2 565,-558.2 565,-539.2 544,-539.2"/>
<text text-anchor="start" x="555.8862" y="-545.3" font-family="Helvetica,sans-Serif" font-size="11.00" fill="#000000"> &#160;</text>
</a>
</g>
</g>
<!-- site -->
<g id="node2" class="node">
<title>site</title>
<g id="a_node2"><a xlink:href="../../tables/site.html" xlink:title="site" target="_top">
<polygon fill="#ffffff" stroke="transparent" points="178,-364.7 178,-491.7 342,-491.7 342,-364.7 178,-364.7"/>
<polygon fill="#f5f5f5" stroke="transparent" points="178,-468.2 178,-491.2 342,-491.2 342,-468.2 178,-468.2"/>
<polygon fill="none" stroke="#000000" points="178,-468.2 178,-491.2 342,-491.2 342,-468.2 178,-468.2"/>
<text text-anchor="start" x="183" y="-477.3" font-family="Helvetica,sans-Serif" font-weight="bold" font-size="11.00" fill="#000000">site</text>
<text text-anchor="start" x="307.0437" y="-476.3" font-family="Helvetica,sans-Serif" font-size="11.00" fill="#000000">[table]</text>
<polygon fill="none" stroke="#000000" points="178,-446.2 178,-468.2 342,-468.2 342,-446.2 178,-446.2"/>
<image xlink:href="../../images/primaryKeys.png" width="11px" height="12px" preserveAspectRatio="xMinYMin meet" x="183" y="-463.2"/>
<text text-anchor="start" x="198" y="-453.3" font-family="Helvetica,sans-Serif" font-size="11.00" fill="#000000">id</text>
<polygon fill="#ffffff" stroke="transparent" points="178,-424.2 178,-446.2 342,-446.2 342,-424.2 178,-424.2"/>
<polygon fill="none" stroke="#000000" points="178,-424.2 178,-446.2 342,-446.2 342,-424.2 178,-424.2"/>
<text text-anchor="start" x="198" y="-431.3" font-family="Helvetica,sans-Serif" font-size="11.00" fill="#000000">geom</text>
<polygon fill="#ffffff" stroke="transparent" points="178,-402.2 178,-424.2 342,-424.2 342,-402.2 178,-402.2"/>
<polygon fill="none" stroke="#000000" points="178,-402.2 178,-424.2 342,-424.2 342,-402.2 178,-402.2"/>
<image xlink:href="../../images/foreignKeys.png" width="11px" height="12px" preserveAspectRatio="xMinYMin meet" x="183" y="-419.2"/>
<text text-anchor="start" x="198" y="-409.3" font-family="Helvetica,sans-Serif" font-size="11.00" fill="#000000">ep_id</text>
<polygon fill="none" stroke="#000000" points="178,-383.2 178,-402.2 342,-402.2 342,-383.2 178,-383.2"/>
<text text-anchor="start" x="181" y="-389.3" font-family="Helvetica,sans-Serif" font-size="11.00" fill="#000000">...</text>
<polygon fill="#ffffff" stroke="transparent" points="178,-364.2 178,-383.2 238,-383.2 238,-364.2 178,-364.2"/>
<polygon fill="none" stroke="#000000" points="178,-364.2 178,-383.2 238,-383.2 238,-364.2 178,-364.2"/>
<text text-anchor="start" x="181" y="-370.3" font-family="Helvetica,sans-Serif" font-size="11.00" fill="#000000">&lt; 1</text>
<polygon fill="#ffffff" stroke="transparent" points="238,-364.2 238,-383.2 301,-383.2 301,-364.2 238,-364.2"/>
<polygon fill="none" stroke="#000000" points="238,-364.2 238,-383.2 301,-383.2 301,-364.2 238,-364.2"/>
<text text-anchor="start" x="259.4956" y="-370.3" font-family="Helvetica,sans-Serif" font-size="11.00" fill="#000000">10 rows</text>
<polygon fill="#ffffff" stroke="transparent" points="301,-364.2 301,-383.2 342,-383.2 342,-364.2 301,-364.2"/>
<polygon fill="none" stroke="#000000" points="301,-364.2 301,-383.2 342,-383.2 342,-364.2 301,-364.2"/>
<text text-anchor="start" x="323.4053" y="-370.3" font-family="Helvetica,sans-Serif" font-size="11.00" fill="#000000">5 &gt;</text>
</a>
</g>
</g>
<!-- commentaire&#45;&gt;site -->
<g id="edge1" class="edge">
<title>commentaire:w&#45;&gt;site:e</title>
<path fill="none" stroke="#000000" d="M444.3071,-566.3067C417.3453,-562.6883 406.8896,-548.2051 383,-525.2 357.5796,-500.7207 377.2907,-457.2 342,-457.2"/>
<polygon fill="#000000" stroke="#000000" points="451.0147,-566.7145 458.7815,-570.7934 455.0074,-566.9572 459,-567.2 459,-567.2 459,-567.2 455.0074,-566.9572 459.2185,-563.6066 451.0147,-566.7145 451.0147,-566.7145"/>
<ellipse fill="none" stroke="#000000" cx="447.8206" cy="-566.5202" rx="3.2" ry="3.2"/>
</g>
<!-- espace_protege -->
<g id="node5" class="node">
<title>espace_protege</title>
<g id="a_node5"><a xlink:href="../../tables/espace_protege.html" xlink:title="espace_protege" target="_top">
<polygon fill="#ffffff" stroke="transparent" points="8,-385.7 8,-446.7 129,-446.7 129,-385.7 8,-385.7"/>
<polygon fill="#f5f5f5" stroke="transparent" points="8.5,-423.2 8.5,-446.2 129.5,-446.2 129.5,-423.2 8.5,-423.2"/>
<polygon fill="none" stroke="#000000" points="8.5,-423.2 8.5,-446.2 129.5,-446.2 129.5,-423.2 8.5,-423.2"/>
<text text-anchor="start" x="13.0661" y="-432.3" font-family="Helvetica,sans-Serif" font-weight="bold" font-size="11.00" fill="#000000">espace_protege</text>
<text text-anchor="start" x="95.0219" y="-431.3" font-family="Helvetica,sans-Serif" font-size="11.00" fill="#000000">[table]</text>
<polygon fill="none" stroke="#000000" points="8.5,-404.2 8.5,-423.2 129.5,-423.2 129.5,-404.2 8.5,-404.2"/>
<text text-anchor="start" x="11.5" y="-410.3" font-family="Helvetica,sans-Serif" font-size="11.00" fill="#000000">...</text>
<polygon fill="#ffffff" stroke="transparent" points="8.5,-385.2 8.5,-404.2 45.5,-404.2 45.5,-385.2 8.5,-385.2"/>
<polygon fill="none" stroke="#000000" points="8.5,-385.2 8.5,-404.2 45.5,-404.2 45.5,-385.2 8.5,-385.2"/>
<text text-anchor="start" x="11.5" y="-391.3" font-family="Helvetica,sans-Serif" font-size="11.00" fill="#000000"> &#160;</text>
<polygon fill="#ffffff" stroke="transparent" points="45.5,-385.2 45.5,-404.2 95.5,-404.2 95.5,-385.2 45.5,-385.2"/>
<polygon fill="none" stroke="#000000" points="45.5,-385.2 45.5,-404.2 95.5,-404.2 95.5,-385.2 45.5,-385.2"/>
<text text-anchor="start" x="60.1105" y="-391.3" font-family="Helvetica,sans-Serif" font-size="11.00" fill="#000000">7 rows</text>
<polygon fill="#ffffff" stroke="transparent" points="95.5,-385.2 95.5,-404.2 129.5,-404.2 129.5,-385.2 95.5,-385.2"/>
<polygon fill="none" stroke="#000000" points="95.5,-385.2 95.5,-404.2 129.5,-404.2 129.5,-385.2 95.5,-385.2"/>
<text text-anchor="start" x="110.9053" y="-391.3" font-family="Helvetica,sans-Serif" font-size="11.00" fill="#000000">1 &gt;</text>
</a>
</g>
</g>
<!-- site&#45;&gt;espace_protege -->
<g id="edge5" class="edge">
<title>site:w&#45;&gt;espace_protege:e</title>
<path fill="none" stroke="#000000" d="M163.2829,-413.2C152.2886,-413.2 145.1615,-413.2 129.5,-413.2"/>
<polygon fill="#000000" stroke="#000000" points="170,-413.2001 178,-416.8 174,-413.2 178,-413.2 178,-413.2 178,-413.2 174,-413.2 178,-409.6 170,-413.2001 170,-413.2001"/>
<ellipse fill="none" stroke="#000000" cx="166.8" cy="-413.2001" rx="3.2" ry="3.2"/>
</g>
<!-- entite_geol -->
<g id="node3" class="node">
<title>entite_geol</title>
<g id="a_node3"><a xlink:href="../../tables/entite_geol.html" xlink:title="entite_geol" target="_top">
<polygon fill="#ffffff" stroke="transparent" points="464,-429.7 464,-490.7 560,-490.7 560,-429.7 464,-429.7"/>
<polygon fill="#f5f5f5" stroke="transparent" points="464,-467.2 464,-490.2 560,-490.2 560,-467.2 464,-467.2"/>
<polygon fill="none" stroke="#000000" points="464,-467.2 464,-490.2 560,-490.2 560,-467.2 464,-467.2"/>
<text text-anchor="start" x="468.6001" y="-476.3" font-family="Helvetica,sans-Serif" font-weight="bold" font-size="11.00" fill="#000000">entite_geol</text>
<text text-anchor="start" x="525.5219" y="-475.3" font-family="Helvetica,sans-Serif" font-size="11.00" fill="#000000">[table]</text>
<polygon fill="none" stroke="#000000" points="464,-448.2 464,-467.2 560,-467.2 560,-448.2 464,-448.2"/>
<text text-anchor="start" x="467" y="-454.3" font-family="Helvetica,sans-Serif" font-size="11.00" fill="#000000">...</text>
<polygon fill="#ffffff" stroke="transparent" points="464,-429.2 464,-448.2 490,-448.2 490,-429.2 464,-429.2"/>
<polygon fill="none" stroke="#000000" points="464,-429.2 464,-448.2 490,-448.2 490,-429.2 464,-429.2"/>
<text text-anchor="start" x="467" y="-435.3" font-family="Helvetica,sans-Serif" font-size="11.00" fill="#000000">&lt; 3</text>
<polygon fill="#ffffff" stroke="transparent" points="490,-429.2 490,-448.2 536,-448.2 536,-429.2 490,-429.2"/>
<polygon fill="none" stroke="#000000" points="490,-429.2 490,-448.2 536,-448.2 536,-429.2 490,-429.2"/>
<text text-anchor="start" x="494.4956" y="-435.3" font-family="Helvetica,sans-Serif" font-size="11.00" fill="#000000">24 rows</text>
<polygon fill="#ffffff" stroke="transparent" points="536,-429.2 536,-448.2 560,-448.2 560,-429.2 536,-429.2"/>
<polygon fill="none" stroke="#000000" points="536,-429.2 536,-448.2 560,-448.2 560,-429.2 536,-429.2"/>
<text text-anchor="start" x="541.4053" y="-435.3" font-family="Helvetica,sans-Serif" font-size="11.00" fill="#000000">5 &gt;</text>
</a>
</g>
</g>
<!-- entite_geol&#45;&gt;site -->
<g id="edge2" class="edge">
<title>entite_geol:w&#45;&gt;site:e</title>
<path fill="none" stroke="#000000" d="M449.4784,-457.2C406.8107,-457.2 391.033,-457.2 342,-457.2"/>
<polygon fill="#000000" stroke="#000000" points="456,-457.2001 464,-460.8 460,-457.2 464,-457.2 464,-457.2 464,-457.2 460,-457.2 464,-453.6 456,-457.2001 456,-457.2001"/>
<ellipse fill="none" stroke="#000000" cx="452.8" cy="-457.2001" rx="3.2" ry="3.2"/>
</g>
<!-- photo -->
<g id="node4" class="node">
<title>photo</title>
<g id="a_node4"><a xlink:href="../../tables/photo.html" xlink:title="photo" target="_top">
<polygon fill="#ffffff" stroke="transparent" points="682,-458.7 682,-519.7 759,-519.7 759,-458.7 682,-458.7"/>
<polygon fill="#f5f5f5" stroke="transparent" points="682.5,-496.2 682.5,-519.2 759.5,-519.2 759.5,-496.2 682.5,-496.2"/>
<polygon fill="none" stroke="#000000" points="682.5,-496.2 682.5,-519.2 759.5,-519.2 759.5,-496.2 682.5,-496.2"/>
<text text-anchor="start" x="687.5" y="-505.3" font-family="Helvetica,sans-Serif" font-weight="bold" font-size="11.00" fill="#000000">photo</text>
<text text-anchor="start" x="724.5437" y="-504.3" font-family="Helvetica,sans-Serif" font-size="11.00" fill="#000000">[table]</text>
<polygon fill="none" stroke="#000000" points="682.5,-477.2 682.5,-496.2 759.5,-496.2 759.5,-477.2 682.5,-477.2"/>
<text text-anchor="start" x="685.5" y="-483.3" font-family="Helvetica,sans-Serif" font-size="11.00" fill="#000000">...</text>
<polygon fill="#ffffff" stroke="transparent" points="682.5,-458.2 682.5,-477.2 703.5,-477.2 703.5,-458.2 682.5,-458.2"/>
<polygon fill="none" stroke="#000000" points="682.5,-458.2 682.5,-477.2 703.5,-477.2 703.5,-458.2 682.5,-458.2"/>
<text text-anchor="start" x="685.2026" y="-464.3" font-family="Helvetica,sans-Serif" font-size="11.00" fill="#000000">&lt; 2</text>
<polygon fill="#ffffff" stroke="transparent" points="703.5,-458.2 703.5,-477.2 747.5,-477.2 747.5,-458.2 703.5,-458.2"/>
<polygon fill="none" stroke="#000000" points="703.5,-458.2 703.5,-477.2 747.5,-477.2 747.5,-458.2 703.5,-458.2"/>
<text text-anchor="start" x="706.2478" y="-464.3" font-family="Helvetica,sans-Serif" font-size="11.00" fill="#000000">10 rows</text>
<polygon fill="#ffffff" stroke="transparent" points="747.5,-458.2 747.5,-477.2 759.5,-477.2 759.5,-458.2 747.5,-458.2"/>
<polygon fill="none" stroke="#000000" points="747.5,-458.2 747.5,-477.2 759.5,-477.2 759.5,-458.2 747.5,-458.2"/>
<text text-anchor="start" x="750.4431" y="-464.3" font-family="Helvetica,sans-Serif" font-size="11.00" fill="#000000"> &#160;</text>
</a>
</g>
</g>
<!-- photo&#45;&gt;site -->
<g id="edge4" class="edge">
<title>photo:w&#45;&gt;site:e</title>
<path fill="none" stroke="#000000" d="M668.0752,-488.9974C659.6461,-492.6561 654.2812,-498.8734 641,-501.2 528.0532,-520.9857 488.1477,-546.9428 383,-501.2 358.4894,-490.537 368.7296,-457.2 342,-457.2"/>
<polygon fill="#000000" stroke="#000000" points="674.6463,-487.7231 683.1854,-489.7342 678.5732,-486.9616 682.5,-486.2 682.5,-486.2 682.5,-486.2 678.5732,-486.9616 681.8146,-482.6658 674.6463,-487.7231 674.6463,-487.7231"/>
<ellipse fill="none" stroke="#000000" cx="671.5048" cy="-488.3323" rx="3.2" ry="3.2"/>
</g>
<!-- photo&#45;&gt;entite_geol -->
<g id="edge3" class="edge">
<title>photo:w&#45;&gt;entite_geol:e</title>
<path fill="none" stroke="#000000" d="M667.8852,-485.4831C624.1644,-481.0174 610.704,-457.2 560,-457.2"/>
<polygon fill="#000000" stroke="#000000" points="674.5096,-485.808 682.3236,-489.7957 678.5048,-486.004 682.5,-486.2 682.5,-486.2 682.5,-486.2 678.5048,-486.004 682.6764,-482.6043 674.5096,-485.808 674.5096,-485.808"/>
<ellipse fill="none" stroke="#000000" cx="671.3134" cy="-485.6512" rx="3.2" ry="3.2"/>
</g>
<!-- site_ontology -->
<g id="node6" class="node">
<title>site_ontology</title>
<g id="a_node6"><a xlink:href="../../tables/site_ontology.html" xlink:title="site_ontology" target="_top">
<polygon fill="#ffffff" stroke="transparent" points="458.5,-347.7 458.5,-408.7 565.5,-408.7 565.5,-347.7 458.5,-347.7"/>
<polygon fill="#f5f5f5" stroke="transparent" points="459,-385.2 459,-408.2 566,-408.2 566,-385.2 459,-385.2"/>
<polygon fill="none" stroke="#000000" points="459,-385.2 459,-408.2 566,-408.2 566,-385.2 459,-385.2"/>
<text text-anchor="start" x="463.6001" y="-394.3" font-family="Helvetica,sans-Serif" font-weight="bold" font-size="11.00" fill="#000000">site_ontology</text>
<text text-anchor="start" x="531.5219" y="-393.3" font-family="Helvetica,sans-Serif" font-size="11.00" fill="#000000">[table]</text>
<polygon fill="none" stroke="#000000" points="459,-366.2 459,-385.2 566,-385.2 566,-366.2 459,-366.2"/>
<text text-anchor="start" x="462" y="-372.3" font-family="Helvetica,sans-Serif" font-size="11.00" fill="#000000">...</text>
<polygon fill="#ffffff" stroke="transparent" points="459,-347.2 459,-366.2 495,-366.2 495,-347.2 459,-347.2"/>
<polygon fill="none" stroke="#000000" points="459,-347.2 459,-366.2 495,-366.2 495,-347.2 459,-347.2"/>
<text text-anchor="start" x="462" y="-353.3" font-family="Helvetica,sans-Serif" font-size="11.00" fill="#000000">&lt; 2</text>
<polygon fill="#ffffff" stroke="transparent" points="495,-347.2 495,-366.2 546,-366.2 546,-347.2 495,-347.2"/>
<polygon fill="none" stroke="#000000" points="495,-347.2 495,-366.2 546,-366.2 546,-347.2 495,-347.2"/>
<text text-anchor="start" x="504.4956" y="-353.3" font-family="Helvetica,sans-Serif" font-size="11.00" fill="#000000">24 rows</text>
<polygon fill="#ffffff" stroke="transparent" points="546,-347.2 546,-366.2 566,-366.2 566,-347.2 546,-347.2"/>
<polygon fill="none" stroke="#000000" points="546,-347.2 546,-366.2 566,-366.2 566,-347.2 546,-347.2"/>
<text text-anchor="start" x="556.8862" y="-353.3" font-family="Helvetica,sans-Serif" font-size="11.00" fill="#000000"> &#160;</text>
</a>
</g>
</g>
<!-- site_ontology&#45;&gt;site -->
<g id="edge6" class="edge">
<title>site_ontology:w&#45;&gt;site:e</title>
<path fill="none" stroke="#000000" d="M444.3541,-376.3835C417.8916,-381.1006 409.9811,-399.2737 383,-419.2 363.0143,-433.96 366.8452,-457.2 342,-457.2"/>
<polygon fill="#000000" stroke="#000000" points="451.026,-375.8444 459.29,-378.7883 455.013,-375.5222 459,-375.2 459,-375.2 459,-375.2 455.013,-375.5222 458.71,-371.6117 451.026,-375.8444 451.026,-375.8444"/>
<ellipse fill="none" stroke="#000000" cx="447.8364" cy="-376.1022" rx="3.2" ry="3.2"/>
</g>
<!-- site_qcm -->
<g id="node7" class="node">
<title>site_qcm</title>
<g id="a_node7"><a xlink:href="../../tables/site_qcm.html" xlink:title="site_qcm" target="_top">
<polygon fill="#ffffff" stroke="transparent" points="391,-38.2 391,-326.2 633,-326.2 633,-38.2 391,-38.2"/>
<polygon fill="#f5f5f5" stroke="transparent" points="393,-301.2 393,-324.2 631,-324.2 631,-301.2 393,-301.2"/>
<polygon fill="none" stroke="#000000" points="393,-301.2 393,-324.2 631,-324.2 631,-301.2 393,-301.2"/>
<text text-anchor="start" x="398" y="-310.3" font-family="Helvetica,sans-Serif" font-weight="bold" font-size="11.00" fill="#000000">site_qcm</text>
<text text-anchor="start" x="596.0437" y="-309.3" font-family="Helvetica,sans-Serif" font-size="11.00" fill="#000000">[table]</text>
<polygon fill="none" stroke="#000000" points="393,-279.2 393,-301.2 532,-301.2 532,-279.2 393,-279.2"/>
<text text-anchor="start" x="413" y="-286.3" font-family="Helvetica,sans-Serif" font-size="11.00" fill="#000000">id</text>
<polygon fill="none" stroke="#000000" points="532,-279.2 532,-301.2 631,-301.2 631,-279.2 532,-279.2"/>
<text text-anchor="start" x="535" y="-286.9" font-family="Helvetica,sans-Serif" font-size="11.00" fill="#000000">serial[10]</text>
<polygon fill="none" stroke="#000000" points="393,-257.2 393,-279.2 532,-279.2 532,-257.2 393,-257.2"/>
<text text-anchor="start" x="413" y="-264.3" font-family="Helvetica,sans-Serif" font-size="11.00" fill="#000000">info_complement</text>
<polygon fill="none" stroke="#000000" points="532,-257.2 532,-279.2 631,-279.2 631,-257.2 532,-257.2"/>
<text text-anchor="start" x="535" y="-264.9" font-family="Helvetica,sans-Serif" font-size="11.00" fill="#000000">varchar[255]</text>
<polygon fill="none" stroke="#000000" points="393,-235.2 393,-257.2 532,-257.2 532,-235.2 393,-235.2"/>
<text text-anchor="start" x="413" y="-242.3" font-family="Helvetica,sans-Serif" font-size="11.00" fill="#000000">remarquable</text>
<polygon fill="none" stroke="#000000" points="532,-235.2 532,-257.2 631,-257.2 631,-235.2 532,-235.2"/>
<text text-anchor="start" x="535" y="-242.9" font-family="Helvetica,sans-Serif" font-size="11.00" fill="#000000">bool[1]</text>
<polygon fill="none" stroke="#000000" points="393,-213.2 393,-235.2 532,-235.2 532,-213.2 393,-213.2"/>
<image xlink:href="../../images/primaryKeys.png" width="11px" height="12px" preserveAspectRatio="xMinYMin meet" x="398" y="-230.2"/>
<text text-anchor="start" x="413" y="-220.3" font-family="Helvetica,sans-Serif" font-size="11.00" fill="#000000">qcm_id</text>
<polygon fill="none" stroke="#000000" points="532,-213.2 532,-235.2 631,-235.2 631,-213.2 532,-213.2"/>
<text text-anchor="start" x="535" y="-220.9" font-family="Helvetica,sans-Serif" font-size="11.00" fill="#000000">int4[10]</text>
<polygon fill="none" stroke="#000000" points="393,-191.2 393,-213.2 532,-213.2 532,-191.2 393,-191.2"/>
<image xlink:href="../../images/primaryKeys.png" width="11px" height="12px" preserveAspectRatio="xMinYMin meet" x="398" y="-208.2"/>
<text text-anchor="start" x="413" y="-198.3" font-family="Helvetica,sans-Serif" font-size="11.00" fill="#000000">site_id</text>
<polygon fill="none" stroke="#000000" points="532,-191.2 532,-213.2 631,-213.2 631,-191.2 532,-191.2"/>
<text text-anchor="start" x="535" y="-198.9" font-family="Helvetica,sans-Serif" font-size="11.00" fill="#000000">int4[10]</text>
<polygon fill="none" stroke="#000000" points="393,-169.2 393,-191.2 532,-191.2 532,-169.2 393,-169.2"/>
<text text-anchor="start" x="413" y="-176.3" font-family="Helvetica,sans-Serif" font-size="11.00" fill="#000000">interet_scientifique</text>
<polygon fill="none" stroke="#000000" points="532,-169.2 532,-191.2 631,-191.2 631,-169.2 532,-169.2"/>
<text text-anchor="start" x="535" y="-176.9" font-family="Helvetica,sans-Serif" font-size="11.00" fill="#000000">bool[1]</text>
<polygon fill="none" stroke="#000000" points="393,-147.2 393,-169.2 532,-169.2 532,-147.2 393,-147.2"/>
<text text-anchor="start" x="413" y="-154.3" font-family="Helvetica,sans-Serif" font-size="11.00" fill="#000000">interet_pedagogique</text>
<polygon fill="none" stroke="#000000" points="532,-147.2 532,-169.2 631,-169.2 631,-147.2 532,-147.2"/>
<text text-anchor="start" x="535" y="-154.9" font-family="Helvetica,sans-Serif" font-size="11.00" fill="#000000">bool[1]</text>
<polygon fill="none" stroke="#000000" points="393,-125.2 393,-147.2 532,-147.2 532,-125.2 393,-125.2"/>
<text text-anchor="start" x="413" y="-132.3" font-family="Helvetica,sans-Serif" font-size="11.00" fill="#000000">interet_esthetique</text>
<polygon fill="none" stroke="#000000" points="532,-125.2 532,-147.2 631,-147.2 631,-125.2 532,-125.2"/>
<text text-anchor="start" x="535" y="-132.9" font-family="Helvetica,sans-Serif" font-size="11.00" fill="#000000">bool[1]</text>
<polygon fill="none" stroke="#000000" points="393,-103.2 393,-125.2 532,-125.2 532,-103.2 393,-103.2"/>
<text text-anchor="start" x="413" y="-110.3" font-family="Helvetica,sans-Serif" font-size="11.00" fill="#000000">interet_historique</text>
<polygon fill="none" stroke="#000000" points="532,-103.2 532,-125.2 631,-125.2 631,-103.2 532,-103.2"/>
<text text-anchor="start" x="535" y="-110.9" font-family="Helvetica,sans-Serif" font-size="11.00" fill="#000000">bool[1]</text>
<polygon fill="none" stroke="#000000" points="393,-81.2 393,-103.2 532,-103.2 532,-81.2 393,-81.2"/>
<text text-anchor="start" x="413" y="-88.3" font-family="Helvetica,sans-Serif" font-size="11.00" fill="#000000">remarquable_info</text>
<polygon fill="none" stroke="#000000" points="532,-81.2 532,-103.2 631,-103.2 631,-81.2 532,-81.2"/>
<text text-anchor="start" x="535" y="-88.9" font-family="Helvetica,sans-Serif" font-size="11.00" fill="#000000">text[2147483647]</text>
<polygon fill="none" stroke="#000000" points="393,-59.2 393,-81.2 532,-81.2 532,-59.2 393,-59.2"/>
<text text-anchor="start" x="413" y="-66.3" font-family="Helvetica,sans-Serif" font-size="11.00" fill="#000000">geom</text>
<polygon fill="none" stroke="#000000" points="532,-59.2 532,-81.2 631,-81.2 631,-59.2 532,-59.2"/>
<text text-anchor="start" x="534.7258" y="-66.9" font-family="Helvetica,sans-Serif" font-size="11.00" fill="#000000">jsonb[2147483647]</text>
<polygon fill="#ffffff" stroke="transparent" points="393,-40.2 393,-59.2 451,-59.2 451,-40.2 393,-40.2"/>
<polygon fill="none" stroke="#000000" points="393,-40.2 393,-59.2 451,-59.2 451,-40.2 393,-40.2"/>
<text text-anchor="start" x="396" y="-46.3" font-family="Helvetica,sans-Serif" font-size="11.00" fill="#000000">&lt; 1</text>
<polygon fill="#ffffff" stroke="transparent" points="451,-40.2 451,-59.2 532,-59.2 532,-40.2 451,-40.2"/>
<polygon fill="none" stroke="#000000" points="451,-40.2 451,-59.2 532,-59.2 532,-40.2 451,-40.2"/>
<text text-anchor="start" x="490.4956" y="-46.3" font-family="Helvetica,sans-Serif" font-size="11.00" fill="#000000">40 rows</text>
<polygon fill="#ffffff" stroke="transparent" points="532,-40.2 532,-59.2 631,-59.2 631,-40.2 532,-40.2"/>
<polygon fill="none" stroke="#000000" points="532,-40.2 532,-59.2 631,-59.2 631,-40.2 532,-40.2"/>
<text text-anchor="start" x="612.4053" y="-46.3" font-family="Helvetica,sans-Serif" font-size="11.00" fill="#000000">0 &gt;</text>
<polygon fill="none" stroke="#000000" stroke-width="2" points="392,-39.2 392,-325.2 632,-325.2 632,-39.2 392,-39.2"/>
</a>
</g>
</g>
<!-- site_qcm&#45;&gt;site -->
<g id="edge7" class="edge">
<title>site_qcm:w&#45;&gt;site:e</title>
<path fill="none" stroke="#000000" d="M378.6354,-203.8284C293.662,-225.5459 452.1601,-457.2 342,-457.2"/>
<polygon fill="#000000" stroke="#000000" points="385.0509,-203.1012 393.4055,-205.7771 389.0255,-202.6506 393,-202.2 393,-202.2 393,-202.2 389.0255,-202.6506 392.5945,-198.6229 385.0509,-203.1012 385.0509,-203.1012"/>
<ellipse fill="none" stroke="#000000" cx="381.8713" cy="-203.4616" rx="3.2" ry="3.2"/>
</g>
</g>
</svg>
