<?xml version="1.0" encoding="UTF-8" standalone="no"?>
<!DOCTYPE svg PUBLIC "-//W3C//DTD SVG 1.1//EN"
 "http://www.w3.org/Graphics/SVG/1.1/DTD/svg11.dtd">
<!-- Generated by graphviz version 2.40.1 (20161225.0304)
 -->
<!-- Title: oneDegreeRelationshipsDiagram Pages: 1 -->
<svg width="479pt" height="338pt"
 viewBox="0.00 0.00 479.00 338.20" xmlns="http://www.w3.org/2000/svg" xmlns:xlink="http://www.w3.org/1999/xlink">
<g id="graph0" class="graph" transform="scale(1 1) rotate(0) translate(4 334.2)">
<title>oneDegreeRelationshipsDiagram</title>
<polygon fill="#ffffff" stroke="transparent" points="-4,4 -4,-334.2 475,-334.2 475,4 -4,4"/>
<text text-anchor="middle" x="72.4936" y="-7.3" font-family="Helvetica,sans-Serif" font-size="11.00" fill="#000000">Generated by SchemaSpy</text>
<!-- site_qcm -->
<g id="node1" class="node">
<title>site_qcm</title>
<g id="a_node1"><a xlink:href="../../tables/site_qcm.html" xlink:title="site_qcm" target="_top">
<polygon fill="#ffffff" stroke="transparent" points="221,-38.2 221,-326.2 463,-326.2 463,-38.2 221,-38.2"/>
<polygon fill="#f5f5f5" stroke="transparent" points="223,-301.2 223,-324.2 461,-324.2 461,-301.2 223,-301.2"/>
<polygon fill="none" stroke="#000000" points="223,-301.2 223,-324.2 461,-324.2 461,-301.2 223,-301.2"/>
<text text-anchor="start" x="228" y="-310.3" font-family="Helvetica,sans-Serif" font-weight="bold" font-size="11.00" fill="#000000">site_qcm</text>
<text text-anchor="start" x="426.0437" y="-309.3" font-family="Helvetica,sans-Serif" font-size="11.00" fill="#000000">[table]</text>
<polygon fill="none" stroke="#000000" points="223,-279.2 223,-301.2 362,-301.2 362,-279.2 223,-279.2"/>
<text text-anchor="start" x="243" y="-286.3" font-family="Helvetica,sans-Serif" font-size="11.00" fill="#000000">id</text>
<polygon fill="none" stroke="#000000" points="362,-279.2 362,-301.2 461,-301.2 461,-279.2 362,-279.2"/>
<text text-anchor="start" x="365" y="-286.9" font-family="Helvetica,sans-Serif" font-size="11.00" fill="#000000">serial[10]</text>
<polygon fill="none" stroke="#000000" points="223,-257.2 223,-279.2 362,-279.2 362,-257.2 223,-257.2"/>
<text text-anchor="start" x="243" y="-264.3" font-family="Helvetica,sans-Serif" font-size="11.00" fill="#000000">info_complement</text>
<polygon fill="none" stroke="#000000" points="362,-257.2 362,-279.2 461,-279.2 461,-257.2 362,-257.2"/>
<text text-anchor="start" x="365" y="-264.9" font-family="Helvetica,sans-Serif" font-size="11.00" fill="#000000">varchar[255]</text>
<polygon fill="none" stroke="#000000" points="223,-235.2 223,-257.2 362,-257.2 362,-235.2 223,-235.2"/>
<text text-anchor="start" x="243" y="-242.3" font-family="Helvetica,sans-Serif" font-size="11.00" fill="#000000">remarquable</text>
<polygon fill="none" stroke="#000000" points="362,-235.2 362,-257.2 461,-257.2 461,-235.2 362,-235.2"/>
<text text-anchor="start" x="365" y="-242.9" font-family="Helvetica,sans-Serif" font-size="11.00" fill="#000000">bool[1]</text>
<polygon fill="none" stroke="#000000" points="223,-213.2 223,-235.2 362,-235.2 362,-213.2 223,-213.2"/>
<image xlink:href="../../images/primaryKeys.png" width="11px" height="12px" preserveAspectRatio="xMinYMin meet" x="228" y="-230.2"/>
<text text-anchor="start" x="243" y="-220.3" font-family="Helvetica,sans-Serif" font-size="11.00" fill="#000000">qcm_id</text>
<polygon fill="none" stroke="#000000" points="362,-213.2 362,-235.2 461,-235.2 461,-213.2 362,-213.2"/>
<text text-anchor="start" x="365" y="-220.9" font-family="Helvetica,sans-Serif" font-size="11.00" fill="#000000">int4[10]</text>
<polygon fill="none" stroke="#000000" points="223,-191.2 223,-213.2 362,-213.2 362,-191.2 223,-191.2"/>
<image xlink:href="../../images/primaryKeys.png" width="11px" height="12px" preserveAspectRatio="xMinYMin meet" x="228" y="-208.2"/>
<text text-anchor="start" x="243" y="-198.3" font-family="Helvetica,sans-Serif" font-size="11.00" fill="#000000">site_id</text>
<polygon fill="none" stroke="#000000" points="362,-191.2 362,-213.2 461,-213.2 461,-191.2 362,-191.2"/>
<text text-anchor="start" x="365" y="-198.9" font-family="Helvetica,sans-Serif" font-size="11.00" fill="#000000">int4[10]</text>
<polygon fill="none" stroke="#000000" points="223,-169.2 223,-191.2 362,-191.2 362,-169.2 223,-169.2"/>
<text text-anchor="start" x="243" y="-176.3" font-family="Helvetica,sans-Serif" font-size="11.00" fill="#000000">interet_scientifique</text>
<polygon fill="none" stroke="#000000" points="362,-169.2 362,-191.2 461,-191.2 461,-169.2 362,-169.2"/>
<text text-anchor="start" x="365" y="-176.9" font-family="Helvetica,sans-Serif" font-size="11.00" fill="#000000">bool[1]</text>
<polygon fill="none" stroke="#000000" points="223,-147.2 223,-169.2 362,-169.2 362,-147.2 223,-147.2"/>
<text text-anchor="start" x="243" y="-154.3" font-family="Helvetica,sans-Serif" font-size="11.00" fill="#000000">interet_pedagogique</text>
<polygon fill="none" stroke="#000000" points="362,-147.2 362,-169.2 461,-169.2 461,-147.2 362,-147.2"/>
<text text-anchor="start" x="365" y="-154.9" font-family="Helvetica,sans-Serif" font-size="11.00" fill="#000000">bool[1]</text>
<polygon fill="none" stroke="#000000" points="223,-125.2 223,-147.2 362,-147.2 362,-125.2 223,-125.2"/>
<text text-anchor="start" x="243" y="-132.3" font-family="Helvetica,sans-Serif" font-size="11.00" fill="#000000">interet_esthetique</text>
<polygon fill="none" stroke="#000000" points="362,-125.2 362,-147.2 461,-147.2 461,-125.2 362,-125.2"/>
<text text-anchor="start" x="365" y="-132.9" font-family="Helvetica,sans-Serif" font-size="11.00" fill="#000000">bool[1]</text>
<polygon fill="none" stroke="#000000" points="223,-103.2 223,-125.2 362,-125.2 362,-103.2 223,-103.2"/>
<text text-anchor="start" x="243" y="-110.3" font-family="Helvetica,sans-Serif" font-size="11.00" fill="#000000">interet_historique</text>
<polygon fill="none" stroke="#000000" points="362,-103.2 362,-125.2 461,-125.2 461,-103.2 362,-103.2"/>
<text text-anchor="start" x="365" y="-110.9" font-family="Helvetica,sans-Serif" font-size="11.00" fill="#000000">bool[1]</text>
<polygon fill="none" stroke="#000000" points="223,-81.2 223,-103.2 362,-103.2 362,-81.2 223,-81.2"/>
<text text-anchor="start" x="243" y="-88.3" font-family="Helvetica,sans-Serif" font-size="11.00" fill="#000000">remarquable_info</text>
<polygon fill="none" stroke="#000000" points="362,-81.2 362,-103.2 461,-103.2 461,-81.2 362,-81.2"/>
<text text-anchor="start" x="365" y="-88.9" font-family="Helvetica,sans-Serif" font-size="11.00" fill="#000000">text[2147483647]</text>
<polygon fill="none" stroke="#000000" points="223,-59.2 223,-81.2 362,-81.2 362,-59.2 223,-59.2"/>
<text text-anchor="start" x="243" y="-66.3" font-family="Helvetica,sans-Serif" font-size="11.00" fill="#000000">geom</text>
<polygon fill="none" stroke="#000000" points="362,-59.2 362,-81.2 461,-81.2 461,-59.2 362,-59.2"/>
<text text-anchor="start" x="364.7258" y="-66.9" font-family="Helvetica,sans-Serif" font-size="11.00" fill="#000000">jsonb[2147483647]</text>
<polygon fill="#ffffff" stroke="transparent" points="223,-40.2 223,-59.2 281,-59.2 281,-40.2 223,-40.2"/>
<polygon fill="none" stroke="#000000" points="223,-40.2 223,-59.2 281,-59.2 281,-40.2 223,-40.2"/>
<text text-anchor="start" x="226" y="-46.3" font-family="Helvetica,sans-Serif" font-size="11.00" fill="#000000">&lt; 1</text>
<polygon fill="#ffffff" stroke="transparent" points="281,-40.2 281,-59.2 362,-59.2 362,-40.2 281,-40.2"/>
<polygon fill="none" stroke="#000000" points="281,-40.2 281,-59.2 362,-59.2 362,-40.2 281,-40.2"/>
<text text-anchor="start" x="320.4956" y="-46.3" font-family="Helvetica,sans-Serif" font-size="11.00" fill="#000000">40 rows</text>
<polygon fill="#ffffff" stroke="transparent" points="362,-40.2 362,-59.2 461,-59.2 461,-40.2 362,-40.2"/>
<polygon fill="none" stroke="#000000" points="362,-40.2 362,-59.2 461,-59.2 461,-40.2 362,-40.2"/>
<text text-anchor="start" x="442.4053" y="-46.3" font-family="Helvetica,sans-Serif" font-size="11.00" fill="#000000">0 &gt;</text>
<polygon fill="none" stroke="#000000" stroke-width="2" points="222,-39.2 222,-325.2 462,-325.2 462,-39.2 222,-39.2"/>
</a>
</g>
</g>
<!-- site -->
<g id="node2" class="node">
<title>site</title>
<g id="a_node2"><a xlink:href="../../tables/site.html" xlink:title="site" target="_top">
<polygon fill="#ffffff" stroke="transparent" points="8,-109.7 8,-236.7 172,-236.7 172,-109.7 8,-109.7"/>
<polygon fill="#f5f5f5" stroke="transparent" points="8,-213.2 8,-236.2 172,-236.2 172,-213.2 8,-213.2"/>
<polygon fill="none" stroke="#000000" points="8,-213.2 8,-236.2 172,-236.2 172,-213.2 8,-213.2"/>
<text text-anchor="start" x="13" y="-222.3" font-family="Helvetica,sans-Serif" font-weight="bold" font-size="11.00" fill="#000000">site</text>
<text text-anchor="start" x="137.0437" y="-221.3" font-family="Helvetica,sans-Serif" font-size="11.00" fill="#000000">[table]</text>
<polygon fill="none" stroke="#000000" points="8,-191.2 8,-213.2 172,-213.2 172,-191.2 8,-191.2"/>
<image xlink:href="../../images/primaryKeys.png" width="11px" height="12px" preserveAspectRatio="xMinYMin meet" x="13" y="-208.2"/>
<text text-anchor="start" x="28" y="-198.3" font-family="Helvetica,sans-Serif" font-size="11.00" fill="#000000">id</text>
<polygon fill="#ffffff" stroke="transparent" points="8,-169.2 8,-191.2 172,-191.2 172,-169.2 8,-169.2"/>
<polygon fill="none" stroke="#000000" points="8,-169.2 8,-191.2 172,-191.2 172,-169.2 8,-169.2"/>
<text text-anchor="start" x="28" y="-176.3" font-family="Helvetica,sans-Serif" font-size="11.00" fill="#000000">geom</text>
<polygon fill="#ffffff" stroke="transparent" points="8,-147.2 8,-169.2 172,-169.2 172,-147.2 8,-147.2"/>
<polygon fill="none" stroke="#000000" points="8,-147.2 8,-169.2 172,-169.2 172,-147.2 8,-147.2"/>
<image xlink:href="../../images/foreignKeys.png" width="11px" height="12px" preserveAspectRatio="xMinYMin meet" x="13" y="-164.2"/>
<text text-anchor="start" x="28" y="-154.3" font-family="Helvetica,sans-Serif" font-size="11.00" fill="#000000">ep_id</text>
<polygon fill="none" stroke="#000000" points="8,-128.2 8,-147.2 172,-147.2 172,-128.2 8,-128.2"/>
<text text-anchor="start" x="11" y="-134.3" font-family="Helvetica,sans-Serif" font-size="11.00" fill="#000000">...</text>
<polygon fill="#ffffff" stroke="transparent" points="8,-109.2 8,-128.2 68,-128.2 68,-109.2 8,-109.2"/>
<polygon fill="none" stroke="#000000" points="8,-109.2 8,-128.2 68,-128.2 68,-109.2 8,-109.2"/>
<text text-anchor="start" x="11" y="-115.3" font-family="Helvetica,sans-Serif" font-size="11.00" fill="#000000">&lt; 1</text>
<polygon fill="#ffffff" stroke="transparent" points="68,-109.2 68,-128.2 131,-128.2 131,-109.2 68,-109.2"/>
<polygon fill="none" stroke="#000000" points="68,-109.2 68,-128.2 131,-128.2 131,-109.2 68,-109.2"/>
<text text-anchor="start" x="89.4956" y="-115.3" font-family="Helvetica,sans-Serif" font-size="11.00" fill="#000000">10 rows</text>
<polygon fill="#ffffff" stroke="transparent" points="131,-109.2 131,-128.2 172,-128.2 172,-109.2 131,-109.2"/>
<polygon fill="none" stroke="#000000" points="131,-109.2 131,-128.2 172,-128.2 172,-109.2 131,-109.2"/>
<text text-anchor="start" x="153.4053" y="-115.3" font-family="Helvetica,sans-Serif" font-size="11.00" fill="#000000">5 &gt;</text>
</a>
</g>
</g>
<!-- site_qcm&#45;&gt;site -->
<g id="edge1" class="edge">
<title>site_qcm:w&#45;&gt;site:e</title>
<path fill="none" stroke="#000000" d="M208.276,-202.2C196.2815,-202.2 188.8229,-202.2 172,-202.2"/>
<polygon fill="#000000" stroke="#000000" points="215,-202.2001 223,-205.8 219,-202.2 223,-202.2 223,-202.2 223,-202.2 219,-202.2 223,-198.6 215,-202.2001 215,-202.2001"/>
<ellipse fill="none" stroke="#000000" cx="211.8" cy="-202.2001" rx="3.2" ry="3.2"/>
</g>
</g>
</svg>
