<?xml version="1.0" encoding="UTF-8" standalone="no"?>
<!DOCTYPE svg PUBLIC "-//W3C//DTD SVG 1.1//EN"
 "http://www.w3.org/Graphics/SVG/1.1/DTD/svg11.dtd">
<!-- Generated by graphviz version 2.40.1 (20161225.0304)
 -->
<!-- Title: oneDegreeRelationshipsDiagramImplied Pages: 1 -->
<svg width="399pt" height="289pt"
 viewBox="0.00 0.00 399.00 289.20" xmlns="http://www.w3.org/2000/svg" xmlns:xlink="http://www.w3.org/1999/xlink">
<g id="graph0" class="graph" transform="scale(1 1) rotate(0) translate(4 285.2)">
<title>oneDegreeRelationshipsDiagramImplied</title>
<polygon fill="#ffffff" stroke="transparent" points="-4,4 -4,-285.2 395,-285.2 395,4 -4,4"/>
<text text-anchor="middle" x="72.4936" y="-7.3" font-family="Helvetica,sans-Serif" font-size="11.00" fill="#000000">Generated by SchemaSpy</text>
<!-- geography_columns -->
<g id="node1" class="node">
<title>geography_columns</title>
<g id="a_node1"><a xlink:href="../../tables/geography_columns.html" xlink:title="geography_columns" target="_top">
<polygon fill="#ffffff" stroke="transparent" points="241,-213.2 241,-277.2 383,-277.2 383,-213.2 241,-213.2"/>
<polygon fill="#f5f5f5" stroke="transparent" points="241,-254.2 241,-277.2 383,-277.2 383,-254.2 241,-254.2"/>
<polygon fill="none" stroke="#000000" points="241,-254.2 241,-277.2 383,-277.2 383,-254.2 241,-254.2"/>
<text text-anchor="start" x="246" y="-263.3" font-family="Helvetica,sans-Serif" font-weight="bold" font-size="11.00" fill="#000000">geography_columns</text>
<text text-anchor="start" x="349.9448" y="-262.3" font-family="Helvetica,sans-Serif" font-size="11.00" fill="#000000">[view]</text>
<polygon fill="none" stroke="#000000" points="241,-232.2 241,-254.2 383,-254.2 383,-232.2 241,-232.2"/>
<image xlink:href="../../images/foreignKeys.png" width="11px" height="12px" preserveAspectRatio="xMinYMin meet" x="246" y="-249.2"/>
<text text-anchor="start" x="261" y="-239.3" font-family="Helvetica,sans-Serif" font-size="11.00" fill="#000000">srid</text>
<polygon fill="none" stroke="#000000" points="241,-213.2 241,-232.2 383,-232.2 383,-213.2 241,-213.2"/>
<text text-anchor="start" x="244" y="-219.3" font-family="Helvetica,sans-Serif" font-size="11.00" fill="#000000">...</text>
</a>
</g>
</g>
<!-- spatial_ref_sys -->
<g id="node2" class="node">
<title>spatial_ref_sys</title>
<g id="a_node2"><a xlink:href="../../tables/spatial_ref_sys.html" xlink:title="spatial_ref_sys" target="_top">
<polygon fill="#ffffff" stroke="transparent" points="8,-38.2 8,-194.2 192,-194.2 192,-38.2 8,-38.2"/>
<polygon fill="#f5f5f5" stroke="transparent" points="10,-169.2 10,-192.2 190,-192.2 190,-169.2 10,-169.2"/>
<polygon fill="none" stroke="#000000" points="10,-169.2 10,-192.2 190,-192.2 190,-169.2 10,-169.2"/>
<text text-anchor="start" x="15" y="-178.3" font-family="Helvetica,sans-Serif" font-weight="bold" font-size="11.00" fill="#000000">spatial_ref_sys</text>
<text text-anchor="start" x="155.0437" y="-177.3" font-family="Helvetica,sans-Serif" font-size="11.00" fill="#000000">[table]</text>
<polygon fill="none" stroke="#000000" points="10,-147.2 10,-169.2 117,-169.2 117,-147.2 10,-147.2"/>
<image xlink:href="../../images/primaryKeys.png" width="11px" height="12px" preserveAspectRatio="xMinYMin meet" x="15" y="-164.2"/>
<text text-anchor="start" x="30" y="-154.3" font-family="Helvetica,sans-Serif" font-size="11.00" fill="#000000">srid</text>
<polygon fill="none" stroke="#000000" points="117,-147.2 117,-169.2 190,-169.2 190,-147.2 117,-147.2"/>
<text text-anchor="start" x="120" y="-154.9" font-family="Helvetica,sans-Serif" font-size="11.00" fill="#000000">int4[10]</text>
<polygon fill="none" stroke="#000000" points="10,-125.2 10,-147.2 117,-147.2 117,-125.2 10,-125.2"/>
<text text-anchor="start" x="30" y="-132.3" font-family="Helvetica,sans-Serif" font-size="11.00" fill="#000000">auth_name</text>
<polygon fill="none" stroke="#000000" points="117,-125.2 117,-147.2 190,-147.2 190,-125.2 117,-125.2"/>
<text text-anchor="start" x="120" y="-132.9" font-family="Helvetica,sans-Serif" font-size="11.00" fill="#000000">varchar[256]</text>
<polygon fill="none" stroke="#000000" points="10,-103.2 10,-125.2 117,-125.2 117,-103.2 10,-103.2"/>
<text text-anchor="start" x="30" y="-110.3" font-family="Helvetica,sans-Serif" font-size="11.00" fill="#000000">auth_srid</text>
<polygon fill="none" stroke="#000000" points="117,-103.2 117,-125.2 190,-125.2 190,-103.2 117,-103.2"/>
<text text-anchor="start" x="120" y="-110.9" font-family="Helvetica,sans-Serif" font-size="11.00" fill="#000000">int4[10]</text>
<polygon fill="none" stroke="#000000" points="10,-81.2 10,-103.2 117,-103.2 117,-81.2 10,-81.2"/>
<text text-anchor="start" x="30" y="-88.3" font-family="Helvetica,sans-Serif" font-size="11.00" fill="#000000">srtext</text>
<polygon fill="none" stroke="#000000" points="117,-81.2 117,-103.2 190,-103.2 190,-81.2 117,-81.2"/>
<text text-anchor="start" x="119.8791" y="-88.9" font-family="Helvetica,sans-Serif" font-size="11.00" fill="#000000">varchar[2048]</text>
<polygon fill="none" stroke="#000000" points="10,-59.2 10,-81.2 117,-81.2 117,-59.2 10,-59.2"/>
<text text-anchor="start" x="30" y="-66.3" font-family="Helvetica,sans-Serif" font-size="11.00" fill="#000000">proj4text</text>
<polygon fill="none" stroke="#000000" points="117,-59.2 117,-81.2 190,-81.2 190,-59.2 117,-59.2"/>
<text text-anchor="start" x="119.8791" y="-66.9" font-family="Helvetica,sans-Serif" font-size="11.00" fill="#000000">varchar[2048]</text>
<polygon fill="#ffffff" stroke="transparent" points="10,-40.2 10,-59.2 42,-59.2 42,-40.2 10,-40.2"/>
<polygon fill="none" stroke="#000000" points="10,-40.2 10,-59.2 42,-59.2 42,-40.2 10,-40.2"/>
<text text-anchor="start" x="13" y="-46.3" font-family="Helvetica,sans-Serif" font-size="11.00" fill="#000000">&lt; 0</text>
<polygon fill="#ffffff" stroke="transparent" points="42,-40.2 42,-59.2 117,-59.2 117,-40.2 42,-40.2"/>
<polygon fill="none" stroke="#000000" points="42,-40.2 42,-59.2 117,-59.2 117,-40.2 42,-40.2"/>
<text text-anchor="start" x="56.547" y="-46.3" font-family="Helvetica,sans-Serif" font-size="11.00" fill="#000000">5 536 rows</text>
<polygon fill="#ffffff" stroke="transparent" points="117,-40.2 117,-59.2 190,-59.2 190,-40.2 117,-40.2"/>
<polygon fill="none" stroke="#000000" points="117,-40.2 117,-59.2 190,-59.2 190,-40.2 117,-40.2"/>
<text text-anchor="start" x="171.4053" y="-46.3" font-family="Helvetica,sans-Serif" font-size="11.00" fill="#000000">3 &gt;</text>
<polygon fill="none" stroke="#000000" stroke-width="2" points="9,-39.2 9,-193.2 191,-193.2 191,-39.2 9,-39.2"/>
</a>
</g>
</g>
<!-- geography_columns&#45;&gt;spatial_ref_sys -->
<g id="edge1" class="edge">
<title>geography_columns:w&#45;&gt;spatial_ref_sys:e</title>
<path fill="none" stroke="#000000" stroke-dasharray="5,2" d="M227.0669,-238.868C205.5746,-221.5466 228.0328,-158.2 190,-158.2"/>
<polygon fill="#000000" stroke="#000000" points="233.3607,-240.8248 239.9312,-246.6377 237.1804,-242.0124 241,-243.2 241,-243.2 241,-243.2 237.1804,-242.0124 242.0688,-239.7623 233.3607,-240.8248 233.3607,-240.8248"/>
<ellipse fill="none" stroke="#000000" cx="230.305" cy="-239.8747" rx="3.2" ry="3.2"/>
</g>
<!-- geometry_columns -->
<g id="node3" class="node">
<title>geometry_columns</title>
<g id="a_node3"><a xlink:href="../../tables/geometry_columns.html" xlink:title="geometry_columns" target="_top">
<polygon fill="#ffffff" stroke="transparent" points="244.5,-128.2 244.5,-192.2 379.5,-192.2 379.5,-128.2 244.5,-128.2"/>
<polygon fill="#f5f5f5" stroke="transparent" points="245,-169.2 245,-192.2 380,-192.2 380,-169.2 245,-169.2"/>
<polygon fill="none" stroke="#000000" points="245,-169.2 245,-192.2 380,-192.2 380,-169.2 245,-169.2"/>
<text text-anchor="start" x="250" y="-178.3" font-family="Helvetica,sans-Serif" font-weight="bold" font-size="11.00" fill="#000000">geometry_columns</text>
<text text-anchor="start" x="346.9448" y="-177.3" font-family="Helvetica,sans-Serif" font-size="11.00" fill="#000000">[view]</text>
<polygon fill="none" stroke="#000000" points="245,-147.2 245,-169.2 380,-169.2 380,-147.2 245,-147.2"/>
<image xlink:href="../../images/foreignKeys.png" width="11px" height="12px" preserveAspectRatio="xMinYMin meet" x="250" y="-164.2"/>
<text text-anchor="start" x="265" y="-154.3" font-family="Helvetica,sans-Serif" font-size="11.00" fill="#000000">srid</text>
<polygon fill="none" stroke="#000000" points="245,-128.2 245,-147.2 380,-147.2 380,-128.2 245,-128.2"/>
<text text-anchor="start" x="248" y="-134.3" font-family="Helvetica,sans-Serif" font-size="11.00" fill="#000000">...</text>
</a>
</g>
</g>
<!-- geometry_columns&#45;&gt;spatial_ref_sys -->
<g id="edge2" class="edge">
<title>geometry_columns:w&#45;&gt;spatial_ref_sys:e</title>
<path fill="none" stroke="#000000" stroke-dasharray="5,2" d="M230.3617,-158.2C216.6839,-158.2 208.7153,-158.2 190,-158.2"/>
<polygon fill="#000000" stroke="#000000" points="237,-158.2001 245,-161.8 241,-158.2 245,-158.2 245,-158.2 245,-158.2 241,-158.2 245,-154.6 237,-158.2001 237,-158.2001"/>
<ellipse fill="none" stroke="#000000" cx="233.8" cy="-158.2001" rx="3.2" ry="3.2"/>
</g>
<!-- raster_columns -->
<g id="node4" class="node">
<title>raster_columns</title>
<g id="a_node4"><a xlink:href="../../tables/raster_columns.html" xlink:title="raster_columns" target="_top">
<polygon fill="#ffffff" stroke="transparent" points="253.5,-43.2 253.5,-107.2 370.5,-107.2 370.5,-43.2 253.5,-43.2"/>
<polygon fill="#f5f5f5" stroke="transparent" points="254,-84.2 254,-107.2 371,-107.2 371,-84.2 254,-84.2"/>
<polygon fill="none" stroke="#000000" points="254,-84.2 254,-107.2 371,-107.2 371,-84.2 254,-84.2"/>
<text text-anchor="start" x="258.9136" y="-93.3" font-family="Helvetica,sans-Serif" font-weight="bold" font-size="11.00" fill="#000000">raster_columns</text>
<text text-anchor="start" x="337.9448" y="-92.3" font-family="Helvetica,sans-Serif" font-size="11.00" fill="#000000">[view]</text>
<polygon fill="none" stroke="#000000" points="254,-62.2 254,-84.2 371,-84.2 371,-62.2 254,-62.2"/>
<image xlink:href="../../images/foreignKeys.png" width="11px" height="12px" preserveAspectRatio="xMinYMin meet" x="259" y="-79.2"/>
<text text-anchor="start" x="274" y="-69.3" font-family="Helvetica,sans-Serif" font-size="11.00" fill="#000000">srid</text>
<polygon fill="none" stroke="#000000" points="254,-43.2 254,-62.2 371,-62.2 371,-43.2 254,-43.2"/>
<text text-anchor="start" x="257" y="-49.3" font-family="Helvetica,sans-Serif" font-size="11.00" fill="#000000">...</text>
</a>
</g>
</g>
<!-- raster_columns&#45;&gt;spatial_ref_sys -->
<g id="edge3" class="edge">
<title>raster_columns:w&#45;&gt;spatial_ref_sys:e</title>
<path fill="none" stroke="#000000" stroke-dasharray="5,2" d="M239.9697,-76.6374C212.9748,-92.5395 231.5626,-158.2 190,-158.2"/>
<polygon fill="#000000" stroke="#000000" points="246.2298,-75.1037 254.8567,-76.6966 250.1149,-74.1519 254,-73.2 254,-73.2 254,-73.2 250.1149,-74.1519 253.1433,-69.7034 246.2298,-75.1037 246.2298,-75.1037"/>
<ellipse fill="none" stroke="#000000" cx="243.1217" cy="-75.8652" rx="3.2" ry="3.2"/>
</g>
</g>
</svg>
