<?xml version="1.0" encoding="UTF-8" standalone="no"?>
<!DOCTYPE svg PUBLIC "-//W3C//DTD SVG 1.1//EN"
 "http://www.w3.org/Graphics/SVG/1.1/DTD/svg11.dtd">
<!-- Generated by graphviz version 2.40.1 (20161225.0304)
 -->
<!-- Title: oneDegreeRelationshipsDiagram Pages: 1 -->
<svg width="208pt" height="206pt"
 viewBox="0.00 0.00 208.00 206.20" xmlns="http://www.w3.org/2000/svg" xmlns:xlink="http://www.w3.org/1999/xlink">
<g id="graph0" class="graph" transform="scale(1 1) rotate(0) translate(4 202.2)">
<title>oneDegreeRelationshipsDiagram</title>
<polygon fill="#ffffff" stroke="transparent" points="-4,4 -4,-202.2 204,-202.2 204,4 -4,4"/>
<text text-anchor="middle" x="72.4936" y="-7.3" font-family="Helvetica,sans-Serif" font-size="11.00" fill="#000000">Generated by SchemaSpy</text>
<!-- spatial_ref_sys -->
<g id="node1" class="node">
<title>spatial_ref_sys</title>
<g id="a_node1"><a xlink:href="../../tables/spatial_ref_sys.html" xlink:title="spatial_ref_sys" target="_top">
<polygon fill="#ffffff" stroke="transparent" points="8,-38.2 8,-194.2 192,-194.2 192,-38.2 8,-38.2"/>
<polygon fill="#f5f5f5" stroke="transparent" points="10,-169.2 10,-192.2 190,-192.2 190,-169.2 10,-169.2"/>
<polygon fill="none" stroke="#000000" points="10,-169.2 10,-192.2 190,-192.2 190,-169.2 10,-169.2"/>
<text text-anchor="start" x="15" y="-178.3" font-family="Helvetica,sans-Serif" font-weight="bold" font-size="11.00" fill="#000000">spatial_ref_sys</text>
<text text-anchor="start" x="155.0437" y="-177.3" font-family="Helvetica,sans-Serif" font-size="11.00" fill="#000000">[table]</text>
<polygon fill="none" stroke="#000000" points="10,-147.2 10,-169.2 117,-169.2 117,-147.2 10,-147.2"/>
<image xlink:href="../../images/primaryKeys.png" width="11px" height="12px" preserveAspectRatio="xMinYMin meet" x="15" y="-164.2"/>
<text text-anchor="start" x="30" y="-154.3" font-family="Helvetica,sans-Serif" font-size="11.00" fill="#000000">srid</text>
<polygon fill="none" stroke="#000000" points="117,-147.2 117,-169.2 190,-169.2 190,-147.2 117,-147.2"/>
<text text-anchor="start" x="120" y="-154.9" font-family="Helvetica,sans-Serif" font-size="11.00" fill="#000000">int4[10]</text>
<polygon fill="none" stroke="#000000" points="10,-125.2 10,-147.2 117,-147.2 117,-125.2 10,-125.2"/>
<text text-anchor="start" x="30" y="-132.3" font-family="Helvetica,sans-Serif" font-size="11.00" fill="#000000">auth_name</text>
<polygon fill="none" stroke="#000000" points="117,-125.2 117,-147.2 190,-147.2 190,-125.2 117,-125.2"/>
<text text-anchor="start" x="120" y="-132.9" font-family="Helvetica,sans-Serif" font-size="11.00" fill="#000000">varchar[256]</text>
<polygon fill="none" stroke="#000000" points="10,-103.2 10,-125.2 117,-125.2 117,-103.2 10,-103.2"/>
<text text-anchor="start" x="30" y="-110.3" font-family="Helvetica,sans-Serif" font-size="11.00" fill="#000000">auth_srid</text>
<polygon fill="none" stroke="#000000" points="117,-103.2 117,-125.2 190,-125.2 190,-103.2 117,-103.2"/>
<text text-anchor="start" x="120" y="-110.9" font-family="Helvetica,sans-Serif" font-size="11.00" fill="#000000">int4[10]</text>
<polygon fill="none" stroke="#000000" points="10,-81.2 10,-103.2 117,-103.2 117,-81.2 10,-81.2"/>
<text text-anchor="start" x="30" y="-88.3" font-family="Helvetica,sans-Serif" font-size="11.00" fill="#000000">srtext</text>
<polygon fill="none" stroke="#000000" points="117,-81.2 117,-103.2 190,-103.2 190,-81.2 117,-81.2"/>
<text text-anchor="start" x="119.8791" y="-88.9" font-family="Helvetica,sans-Serif" font-size="11.00" fill="#000000">varchar[2048]</text>
<polygon fill="none" stroke="#000000" points="10,-59.2 10,-81.2 117,-81.2 117,-59.2 10,-59.2"/>
<text text-anchor="start" x="30" y="-66.3" font-family="Helvetica,sans-Serif" font-size="11.00" fill="#000000">proj4text</text>
<polygon fill="none" stroke="#000000" points="117,-59.2 117,-81.2 190,-81.2 190,-59.2 117,-59.2"/>
<text text-anchor="start" x="119.8791" y="-66.9" font-family="Helvetica,sans-Serif" font-size="11.00" fill="#000000">varchar[2048]</text>
<polygon fill="#ffffff" stroke="transparent" points="10,-40.2 10,-59.2 42,-59.2 42,-40.2 10,-40.2"/>
<polygon fill="none" stroke="#000000" points="10,-40.2 10,-59.2 42,-59.2 42,-40.2 10,-40.2"/>
<text text-anchor="start" x="13" y="-46.3" font-family="Helvetica,sans-Serif" font-size="11.00" fill="#000000">&lt; 0</text>
<polygon fill="#ffffff" stroke="transparent" points="42,-40.2 42,-59.2 117,-59.2 117,-40.2 42,-40.2"/>
<polygon fill="none" stroke="#000000" points="42,-40.2 42,-59.2 117,-59.2 117,-40.2 42,-40.2"/>
<text text-anchor="start" x="56.547" y="-46.3" font-family="Helvetica,sans-Serif" font-size="11.00" fill="#000000">5 536 rows</text>
<polygon fill="#ffffff" stroke="transparent" points="117,-40.2 117,-59.2 190,-59.2 190,-40.2 117,-40.2"/>
<polygon fill="none" stroke="#000000" points="117,-40.2 117,-59.2 190,-59.2 190,-40.2 117,-40.2"/>
<text text-anchor="start" x="171.4053" y="-46.3" font-family="Helvetica,sans-Serif" font-size="11.00" fill="#000000">0 &gt;</text>
<polygon fill="none" stroke="#000000" stroke-width="2" points="9,-39.2 9,-193.2 191,-193.2 191,-39.2 9,-39.2"/>
</a>
</g>
</g>
</g>
</svg>
