<?xml version="1.0" encoding="UTF-8" standalone="no"?>
<svg
   xmlns:dc="http://purl.org/dc/elements/1.1/"
   xmlns:cc="http://creativecommons.org/ns#"
   xmlns:rdf="http://www.w3.org/1999/02/22-rdf-syntax-ns#"
   xmlns:svg="http://www.w3.org/2000/svg"
   xmlns="http://www.w3.org/2000/svg"
   xmlns:sodipodi="http://sodipodi.sourceforge.net/DTD/sodipodi-0.dtd"
   xmlns:inkscape="http://www.inkscape.org/namespaces/inkscape"
   version="1.1"
   id="svg833"
   xml:space="preserve"
   width="140.28423"
   height="166.95084"
   viewBox="0 0 140.28423 166.95084"
   sodipodi:docname="embeme_quart_haut_gauche.svg"
   inkscape:version="1.0.1 (3bc2e813f5, 2020-09-07)"><metadata
     id="metadata839"><rdf:RDF><cc:Work
         rdf:about=""><dc:format>image/svg+xml</dc:format><dc:type
           rdf:resource="http://purl.org/dc/dcmitype/StillImage" /><dc:title /></cc:Work></rdf:RDF></metadata><defs
     id="defs837"><clipPath
       clipPathUnits="userSpaceOnUse"
       id="clipPath849"><path
         d="M 0,841 H 594 V 0 H 0 Z"
         id="path847" /></clipPath><clipPath
       clipPathUnits="userSpaceOnUse"
       id="clipPath913"><path
         d="M 212.893,235.083 H 350.994 V 76.7363 H 212.893 Z"
         id="path911" /></clipPath></defs><sodipodi:namedview
     pagecolor="#ffffff"
     bordercolor="#666666"
     borderopacity="1"
     objecttolerance="10"
     gridtolerance="10"
     guidetolerance="10"
     inkscape:pageopacity="0"
     inkscape:pageshadow="2"
     inkscape:window-width="1920"
     inkscape:window-height="1017"
     id="namedview835"
     showgrid="false"
     inkscape:zoom="3.0321049"
     inkscape:cx="50.467651"
     inkscape:cy="94.461837"
     inkscape:window-x="1912"
     inkscape:window-y="395"
     inkscape:window-maximized="1"
     inkscape:current-layer="g841"
     inkscape:document-rotation="0"
     fit-margin-top="0"
     fit-margin-left="0"
     fit-margin-right="0"
     fit-margin-bottom="0" /><g
     id="g841"
     inkscape:groupmode="layer"
     inkscape:label="Embleme_3 couleurs"
     transform="matrix(1.3333333,0,0,-1.3333333,-327.70829,919.93295)"><g
       id="g851"
       transform="translate(219.4717,667.2051)"
       style="fill:'currentColor'"><path
         d="m 26.309523,-18.603903 c 1.258746,-0.630159 2.534502,-1.224346 3.815477,-1.771097 1.06,-0.453 2.25,-2.687 2.25,-2.75 L 39.75,-44 c 0,0 0.938,-1.188 -0.437,-2.813 -1.185596,-1.401159 -4.261579,-4.481837 -13.003477,-8.727897"
         style="fill-opacity:1;fill-rule:nonzero;stroke:'currentColor';fill:'currentColor'"
         id="path853"
         sodipodi:nodetypes="ccccsc" /></g><g
       id="g855"
       transform="translate(271.415,709.9297)"
       style="fill:'currentColor'"><path
         d="M -3.0350373,-19.979973 C -3.3740848,-24.906158 -3.462753,-30.429599 -3.031,-36.242 c 0.085,-1.149 -1.243,-3.277 -1.298,-3.308 l -14.598,-16.645 c 0,0 -0.577,-1.399 -2.667,-0.994 -0.367788,0.07071 -1.783966,0.398741 -4.039777,1.300686 v 35.908341"
         style="fill-opacity:1;fill-rule:nonzero;stroke:'currentColor';fill:'currentColor'"
         id="path857"
         sodipodi:nodetypes="ccccccc" /></g><g
       id="g859"
       transform="translate(333.5957,685.9956)"
       style="fill:'currentColor'"><path
         d="m 0,0 c 0,0 -18.21,-3.62 -32.759,-15.795 -0.884,-0.74 -3.454,-0.594 -3.509,-0.562 l -21.752,4.121 c 0,0 -1.498,-0.214 -2.21,1.792 -0.591496,1.6618217 -2.018205,5.1867821 -1.353288,14.3981273 h 44.108077 C -10.307985,1.0498246 -3.3487397,-0.50395429 0,0"
         style="fill-opacity:1;fill-rule:nonzero;stroke:'currentColor';fill:'currentColor'"
         id="path861"
         sodipodi:nodetypes="cccccccc" /></g><g
       id="g863"
       transform="translate(344.2715,620.2666)"
       style="fill:'currentColor'"><path
         d="m 0,0 c 0,0 -12.03,13.192 -30.146,20.346 -1.072,0.423 -2.252,2.685 -2.252,2.748 l -7.396,20.867 c 0,0 -0.938,1.186 0.435,2.813 1.373,1.626 5.578,6.191 17.551,11.017 12.967,5.227 17.246,5.268 27.495,6.09 0,0 -6.556,-9.777 -10.724,-26.198 C -9.105,21.661 -4.068,5.059 0,0"
         style="fill-opacity:1;fill-rule:nonzero;stroke:'currentColor';fill:'currentColor'"
         id="path865" /></g><g
       id="g867"
       transform="translate(292.3594,577.7129)"
       style="fill:'currentColor'"><path
         d="M 0,0 C 0,0 6.601,16.06 3.188,36.228 2.996,37.364 4.445,39.5 4.5,39.53 l 14.669,16.581 c 0,0 0.583,1.397 2.672,0.984 2.088,-0.413 8.136,-1.776 18.211,-9.992 10.448,-8.521 12.895,-12.554 18.583,-21.121 0,0 -11.971,1.64 -28.114,-3.315 C 11.819,16.927 2.454,6.009 0,0"
         style="fill-opacity:1;fill-rule:nonzero;stroke:'currentColor';fill:'currentColor'"
         id="path869" /></g><g
       id="g871"
       transform="translate(230.0781,601.5596)"
       style="fill:'currentColor'"><path
         d="M 15.703123,4.7611859 C 21.265053,7.1894772 27.468204,10.766106 32.679,15.96 c 0.817,0.813 3.452,0.611 3.506,0.58 l 21.773,-4.012 c 0,0 1.496,0.221 2.22,-1.781 0.723,-2.002 2.791,-9.371 0.749,-20.833 -2.162,-12.134 -4.014,-17.446 -8.419,-26.737 0,0 -6.172,12.413 -17.344,22.373 -6.548522,5.8373056 -13.410435,9.6180158 -19.460877,11.8695709"
         style="fill-opacity:1;fill-rule:nonzero;stroke:'currentColor';fill:'currentColor'"
         id="path873"
         sodipodi:nodetypes="ccccccccc" /></g><g
       id="g875"
       transform="translate(256.3467,650.8301)"
       style="fill:'currentColor'"><path
         d="m 0,0 c 0,0 13.25,15.125 14.125,16.25 0.875,1.125 2,2 3.25,2 2.513,0 18.281,-3.276 22.625,-4 1.5,-0.25 2.5,-1 2.875,-1.75 0.375,-0.75 8.25,-21.625 8.5,-22.25 0.25,-0.625 0.75,-1.875 -0.125,-3.5 -0.875,-1.625 -15,-18 -15,-18 0,0 -1.125,-1.75 -3.125,-1.125 -2,0.625 -22.5,4 -22.5,4 0,0 -2,0.375 -2.75,2 -0.75,1.625 -8.75,22.75 -8.75,22.75 0,0 -1.125,2 0.875,3.625"
         style="fill-opacity:1;fill-rule:nonzero;stroke:'currentColor';fill:'currentColor'"
         id="path877" /></g></g></svg>
