<?xml version="1.0" encoding="UTF-8" standalone="no"?>
<!DOCTYPE svg PUBLIC "-//W3C//DTD SVG 1.1//EN"
 "http://www.w3.org/Graphics/SVG/1.1/DTD/svg11.dtd">
<!-- Generated by graphviz version 2.40.1 (20161225.0304)
 -->
<!-- Title: emprise_cartes_geol Pages: 1 -->
<svg width="287pt" height="150pt"
 viewBox="0.00 0.00 287.00 150.00" xmlns="http://www.w3.org/2000/svg" xmlns:xlink="http://www.w3.org/1999/xlink">
<g id="graph0" class="graph" transform="scale(1 1) rotate(0) translate(4 146)">
<title>emprise_cartes_geol</title>
<polygon fill="#ffffff" stroke="transparent" points="-4,4 -4,-146 283,-146 283,4 -4,4"/>
<!-- emprise_cartes_geol -->
<g id="node1" class="node">
<title>emprise_cartes_geol</title>
<g id="a_node1"><a xlink:href="../../tables/emprise_cartes_geol.html" xlink:title="emprise_cartes_geol" target="_top">
<polygon fill="#ffffff" stroke="transparent" points="8,-4 8,-138 271,-138 271,-4 8,-4"/>
<polygon fill="#f5f5f5" stroke="transparent" points="10.5,-113 10.5,-136 269.5,-136 269.5,-113 10.5,-113"/>
<polygon fill="none" stroke="#000000" points="10.5,-113 10.5,-136 269.5,-136 269.5,-113 10.5,-113"/>
<text text-anchor="start" x="15.5" y="-122.1" font-family="Helvetica,sans-Serif" font-weight="bold" font-size="11.00" fill="#000000">emprise_cartes_geol</text>
<text text-anchor="start" x="234.5437" y="-121.1" font-family="Helvetica,sans-Serif" font-size="11.00" fill="#000000">[table]</text>
<polygon fill="none" stroke="#000000" points="10.5,-91 10.5,-113 150.5,-113 150.5,-91 10.5,-91"/>
<image xlink:href="../../images/primaryKeys.png" width="11px" height="12px" preserveAspectRatio="xMinYMin meet" x="15.5" y="-108"/>
<text text-anchor="start" x="30.5" y="-98.1" font-family="Helvetica,sans-Serif" font-size="11.00" fill="#000000">id</text>
<polygon fill="none" stroke="#000000" points="150.5,-91 150.5,-113 269.5,-113 269.5,-91 150.5,-91"/>
<text text-anchor="start" x="153.5" y="-98.7" font-family="Helvetica,sans-Serif" font-size="11.00" fill="#000000">serial[10]</text>
<polygon fill="#ffffff" stroke="transparent" points="10.5,-69 10.5,-91 150.5,-91 150.5,-69 10.5,-69"/>
<polygon fill="none" stroke="#000000" points="10.5,-69 10.5,-91 150.5,-91 150.5,-69 10.5,-69"/>
<text text-anchor="start" x="30.5" y="-76.1" font-family="Helvetica,sans-Serif" font-size="11.00" fill="#000000">geom</text>
<polygon fill="none" stroke="#000000" points="150.5,-69 150.5,-91 269.5,-91 269.5,-69 150.5,-69"/>
<text text-anchor="start" x="153.4485" y="-76.7" font-family="Helvetica,sans-Serif" font-size="11.00" fill="#000000">geometry[2147483647]</text>
<polygon fill="none" stroke="#000000" points="10.5,-47 10.5,-69 150.5,-69 150.5,-47 10.5,-47"/>
<text text-anchor="start" x="30.5" y="-54.1" font-family="Helvetica,sans-Serif" font-size="11.00" fill="#000000">nom</text>
<polygon fill="none" stroke="#000000" points="150.5,-47 150.5,-69 269.5,-69 269.5,-47 150.5,-47"/>
<text text-anchor="start" x="153.5" y="-54.7" font-family="Helvetica,sans-Serif" font-size="11.00" fill="#000000">varchar[150]</text>
<polygon fill="none" stroke="#000000" points="10.5,-25 10.5,-47 150.5,-47 150.5,-25 10.5,-25"/>
<text text-anchor="start" x="30.5" y="-32.1" font-family="Helvetica,sans-Serif" font-size="11.00" fill="#000000">numero</text>
<polygon fill="none" stroke="#000000" points="150.5,-25 150.5,-47 269.5,-47 269.5,-25 150.5,-25"/>
<text text-anchor="start" x="153.5" y="-32.7" font-family="Helvetica,sans-Serif" font-size="11.00" fill="#000000">int4[10]</text>
<polygon fill="#ffffff" stroke="transparent" points="10.5,-6 10.5,-25 59.5,-25 59.5,-6 10.5,-6"/>
<polygon fill="none" stroke="#000000" points="10.5,-6 10.5,-25 59.5,-25 59.5,-6 10.5,-6"/>
<text text-anchor="start" x="13.5" y="-12.1" font-family="Helvetica,sans-Serif" font-size="11.00" fill="#000000">&lt; 0</text>
<polygon fill="#ffffff" stroke="transparent" points="59.5,-6 59.5,-25 150.5,-25 150.5,-6 59.5,-6"/>
<polygon fill="none" stroke="#000000" points="59.5,-6 59.5,-25 150.5,-25 150.5,-6 59.5,-6"/>
<text text-anchor="start" x="90.047" y="-12.1" font-family="Helvetica,sans-Serif" font-size="11.00" fill="#000000">1 059 rows</text>
<polygon fill="#ffffff" stroke="transparent" points="150.5,-6 150.5,-25 269.5,-25 269.5,-6 150.5,-6"/>
<polygon fill="none" stroke="#000000" points="150.5,-6 150.5,-25 269.5,-25 269.5,-6 150.5,-6"/>
<text text-anchor="start" x="250.9053" y="-12.1" font-family="Helvetica,sans-Serif" font-size="11.00" fill="#000000">0 &gt;</text>
<polygon fill="none" stroke="#000000" stroke-width="2" points="9,-5 9,-137 270,-137 270,-5 9,-5"/>
</a>
</g>
</g>
</g>
</svg>
