<?xml version="1.0" encoding="UTF-8" standalone="no"?>
<!DOCTYPE svg PUBLIC "-//W3C//DTD SVG 1.1//EN"
 "http://www.w3.org/Graphics/SVG/1.1/DTD/svg11.dtd">
<!-- Generated by graphviz version 2.40.1 (20161225.0304)
 -->
<!-- Title: s_fgeol_agg Pages: 1 -->
<svg width="238pt" height="766pt"
 viewBox="0.00 0.00 238.00 766.00" xmlns="http://www.w3.org/2000/svg" xmlns:xlink="http://www.w3.org/1999/xlink">
<g id="graph0" class="graph" transform="scale(1 1) rotate(0) translate(4 762)">
<title>s_fgeol_agg</title>
<polygon fill="#ffffff" stroke="transparent" points="-4,4 -4,-762 234,-762 234,4 -4,4"/>
<!-- s_fgeol_agg -->
<g id="node1" class="node">
<title>s_fgeol_agg</title>
<g id="a_node1"><a xlink:href="../../tables/s_fgeol_agg.html" xlink:title="s_fgeol_agg" target="_top">
<polygon fill="#ffffff" stroke="transparent" points="8,-4 8,-754 222,-754 222,-4 8,-4"/>
<polygon fill="#f5f5f5" stroke="transparent" points="10,-729 10,-752 220,-752 220,-729 10,-729"/>
<polygon fill="none" stroke="#000000" points="10,-729 10,-752 220,-752 220,-729 10,-729"/>
<text text-anchor="start" x="15" y="-738.1" font-family="Helvetica,sans-Serif" font-weight="bold" font-size="11.00" fill="#000000">s_fgeol_agg</text>
<text text-anchor="start" x="185.0437" y="-737.1" font-family="Helvetica,sans-Serif" font-size="11.00" fill="#000000">[table]</text>
<polygon fill="none" stroke="#000000" points="10,-707 10,-729 101,-729 101,-707 10,-707"/>
<text text-anchor="start" x="30" y="-714.1" font-family="Helvetica,sans-Serif" font-size="11.00" fill="#000000">array_agg</text>
<polygon fill="none" stroke="#000000" points="101,-707 101,-729 220,-729 220,-707 101,-707"/>
<text text-anchor="start" x="104" y="-714.7" font-family="Helvetica,sans-Serif" font-size="11.00" fill="#000000">_int4[10]</text>
<polygon fill="none" stroke="#000000" points="10,-685 10,-707 101,-707 101,-685 10,-685"/>
<text text-anchor="start" x="30" y="-692.1" font-family="Helvetica,sans-Serif" font-size="11.00" fill="#000000">code</text>
<polygon fill="none" stroke="#000000" points="101,-685 101,-707 220,-707 220,-685 101,-685"/>
<text text-anchor="start" x="104" y="-692.7" font-family="Helvetica,sans-Serif" font-size="11.00" fill="#000000">int4[10]</text>
<polygon fill="none" stroke="#000000" points="10,-663 10,-685 101,-685 101,-663 10,-663"/>
<text text-anchor="start" x="30" y="-670.1" font-family="Helvetica,sans-Serif" font-size="11.00" fill="#000000">code_leg</text>
<polygon fill="none" stroke="#000000" points="101,-663 101,-685 220,-685 220,-663 101,-663"/>
<text text-anchor="start" x="104" y="-670.7" font-family="Helvetica,sans-Serif" font-size="11.00" fill="#000000">int4[10]</text>
<polygon fill="none" stroke="#000000" points="10,-641 10,-663 101,-663 101,-641 10,-641"/>
<text text-anchor="start" x="30" y="-648.1" font-family="Helvetica,sans-Serif" font-size="11.00" fill="#000000">notation</text>
<polygon fill="none" stroke="#000000" points="101,-641 101,-663 220,-663 220,-641 101,-641"/>
<text text-anchor="start" x="104" y="-648.7" font-family="Helvetica,sans-Serif" font-size="11.00" fill="#000000">varchar[50]</text>
<polygon fill="none" stroke="#000000" points="10,-619 10,-641 101,-641 101,-619 10,-619"/>
<text text-anchor="start" x="30" y="-626.1" font-family="Helvetica,sans-Serif" font-size="11.00" fill="#000000">descr</text>
<polygon fill="none" stroke="#000000" points="101,-619 101,-641 220,-641 220,-619 101,-619"/>
<text text-anchor="start" x="104" y="-626.7" font-family="Helvetica,sans-Serif" font-size="11.00" fill="#000000">varchar[254]</text>
<polygon fill="none" stroke="#000000" points="10,-597 10,-619 101,-619 101,-597 10,-597"/>
<text text-anchor="start" x="30" y="-604.1" font-family="Helvetica,sans-Serif" font-size="11.00" fill="#000000">type_geol</text>
<polygon fill="none" stroke="#000000" points="101,-597 101,-619 220,-619 220,-597 101,-597"/>
<text text-anchor="start" x="104" y="-604.7" font-family="Helvetica,sans-Serif" font-size="11.00" fill="#000000">varchar[254]</text>
<polygon fill="none" stroke="#000000" points="10,-575 10,-597 101,-597 101,-575 10,-575"/>
<text text-anchor="start" x="30" y="-582.1" font-family="Helvetica,sans-Serif" font-size="11.00" fill="#000000">ap_locale</text>
<polygon fill="none" stroke="#000000" points="101,-575 101,-597 220,-597 220,-575 101,-575"/>
<text text-anchor="start" x="104" y="-582.7" font-family="Helvetica,sans-Serif" font-size="11.00" fill="#000000">varchar[254]</text>
<polygon fill="none" stroke="#000000" points="10,-553 10,-575 101,-575 101,-553 10,-553"/>
<text text-anchor="start" x="30" y="-560.1" font-family="Helvetica,sans-Serif" font-size="11.00" fill="#000000">type_ap</text>
<polygon fill="none" stroke="#000000" points="101,-553 101,-575 220,-575 220,-553 101,-553"/>
<text text-anchor="start" x="104" y="-560.7" font-family="Helvetica,sans-Serif" font-size="11.00" fill="#000000">varchar[254]</text>
<polygon fill="none" stroke="#000000" points="10,-531 10,-553 101,-553 101,-531 10,-531"/>
<text text-anchor="start" x="30" y="-538.1" font-family="Helvetica,sans-Serif" font-size="11.00" fill="#000000">geol_nat</text>
<polygon fill="none" stroke="#000000" points="101,-531 101,-553 220,-553 220,-531 101,-531"/>
<text text-anchor="start" x="104" y="-538.7" font-family="Helvetica,sans-Serif" font-size="11.00" fill="#000000">varchar[254]</text>
<polygon fill="none" stroke="#000000" points="10,-509 10,-531 101,-531 101,-509 10,-509"/>
<text text-anchor="start" x="30" y="-516.1" font-family="Helvetica,sans-Serif" font-size="11.00" fill="#000000">isopique</text>
<polygon fill="none" stroke="#000000" points="101,-509 101,-531 220,-531 220,-509 101,-509"/>
<text text-anchor="start" x="104" y="-516.7" font-family="Helvetica,sans-Serif" font-size="11.00" fill="#000000">varchar[254]</text>
<polygon fill="none" stroke="#000000" points="10,-487 10,-509 101,-509 101,-487 10,-487"/>
<text text-anchor="start" x="30" y="-494.1" font-family="Helvetica,sans-Serif" font-size="11.00" fill="#000000">lithotec</text>
<polygon fill="none" stroke="#000000" points="101,-487 101,-509 220,-509 220,-487 101,-487"/>
<text text-anchor="start" x="104" y="-494.7" font-family="Helvetica,sans-Serif" font-size="11.00" fill="#000000">varchar[254]</text>
<polygon fill="none" stroke="#000000" points="10,-465 10,-487 101,-487 101,-465 10,-465"/>
<text text-anchor="start" x="30" y="-472.1" font-family="Helvetica,sans-Serif" font-size="11.00" fill="#000000">emerge</text>
<polygon fill="none" stroke="#000000" points="101,-465 101,-487 220,-487 220,-465 101,-465"/>
<text text-anchor="start" x="104" y="-472.7" font-family="Helvetica,sans-Serif" font-size="11.00" fill="#000000">varchar[4]</text>
<polygon fill="none" stroke="#000000" points="10,-443 10,-465 101,-465 101,-443 10,-443"/>
<text text-anchor="start" x="30" y="-450.1" font-family="Helvetica,sans-Serif" font-size="11.00" fill="#000000">sys_deb</text>
<polygon fill="none" stroke="#000000" points="101,-443 101,-465 220,-465 220,-443 101,-443"/>
<text text-anchor="start" x="104" y="-450.7" font-family="Helvetica,sans-Serif" font-size="11.00" fill="#000000">varchar[50]</text>
<polygon fill="none" stroke="#000000" points="10,-421 10,-443 101,-443 101,-421 10,-421"/>
<text text-anchor="start" x="30" y="-428.1" font-family="Helvetica,sans-Serif" font-size="11.00" fill="#000000">sys_fin</text>
<polygon fill="none" stroke="#000000" points="101,-421 101,-443 220,-443 220,-421 101,-421"/>
<text text-anchor="start" x="104" y="-428.7" font-family="Helvetica,sans-Serif" font-size="11.00" fill="#000000">varchar[50]</text>
<polygon fill="none" stroke="#000000" points="10,-399 10,-421 101,-421 101,-399 10,-399"/>
<text text-anchor="start" x="30" y="-406.1" font-family="Helvetica,sans-Serif" font-size="11.00" fill="#000000">age_min</text>
<polygon fill="none" stroke="#000000" points="101,-399 101,-421 220,-421 220,-399 101,-399"/>
<text text-anchor="start" x="104" y="-406.7" font-family="Helvetica,sans-Serif" font-size="11.00" fill="#000000">numeric[6,2]</text>
<polygon fill="none" stroke="#000000" points="10,-377 10,-399 101,-399 101,-377 10,-377"/>
<text text-anchor="start" x="30" y="-384.1" font-family="Helvetica,sans-Serif" font-size="11.00" fill="#000000">age_max</text>
<polygon fill="none" stroke="#000000" points="101,-377 101,-399 220,-399 220,-377 101,-377"/>
<text text-anchor="start" x="104" y="-384.7" font-family="Helvetica,sans-Serif" font-size="11.00" fill="#000000">numeric[6,2]</text>
<polygon fill="none" stroke="#000000" points="10,-355 10,-377 101,-377 101,-355 10,-355"/>
<text text-anchor="start" x="30" y="-362.1" font-family="Helvetica,sans-Serif" font-size="11.00" fill="#000000">age_absolu</text>
<polygon fill="none" stroke="#000000" points="101,-355 101,-377 220,-377 220,-355 101,-355"/>
<text text-anchor="start" x="104" y="-362.7" font-family="Helvetica,sans-Serif" font-size="11.00" fill="#000000">numeric[6,2]</text>
<polygon fill="none" stroke="#000000" points="10,-333 10,-355 101,-355 101,-333 10,-333"/>
<text text-anchor="start" x="30" y="-340.1" font-family="Helvetica,sans-Serif" font-size="11.00" fill="#000000">toler_age</text>
<polygon fill="none" stroke="#000000" points="101,-333 101,-355 220,-355 220,-333 101,-333"/>
<text text-anchor="start" x="104" y="-340.7" font-family="Helvetica,sans-Serif" font-size="11.00" fill="#000000">numeric[5,2]</text>
<polygon fill="none" stroke="#000000" points="10,-311 10,-333 101,-333 101,-311 10,-311"/>
<text text-anchor="start" x="30" y="-318.1" font-family="Helvetica,sans-Serif" font-size="11.00" fill="#000000">tech_dat</text>
<polygon fill="none" stroke="#000000" points="101,-311 101,-333 220,-333 220,-311 101,-311"/>
<text text-anchor="start" x="104" y="-318.7" font-family="Helvetica,sans-Serif" font-size="11.00" fill="#000000">varchar[254]</text>
<polygon fill="none" stroke="#000000" points="10,-289 10,-311 101,-311 101,-289 10,-289"/>
<text text-anchor="start" x="30" y="-296.1" font-family="Helvetica,sans-Serif" font-size="11.00" fill="#000000">cat_dat</text>
<polygon fill="none" stroke="#000000" points="101,-289 101,-311 220,-311 220,-289 101,-289"/>
<text text-anchor="start" x="104" y="-296.7" font-family="Helvetica,sans-Serif" font-size="11.00" fill="#000000">varchar[254]</text>
<polygon fill="none" stroke="#000000" points="10,-267 10,-289 101,-289 101,-267 10,-267"/>
<text text-anchor="start" x="30" y="-274.1" font-family="Helvetica,sans-Serif" font-size="11.00" fill="#000000">age_com</text>
<polygon fill="none" stroke="#000000" points="101,-267 101,-289 220,-289 220,-267 101,-267"/>
<text text-anchor="start" x="104" y="-274.7" font-family="Helvetica,sans-Serif" font-size="11.00" fill="#000000">varchar[254]</text>
<polygon fill="none" stroke="#000000" points="10,-245 10,-267 101,-267 101,-245 10,-245"/>
<text text-anchor="start" x="30" y="-252.1" font-family="Helvetica,sans-Serif" font-size="11.00" fill="#000000">lithologie</text>
<polygon fill="none" stroke="#000000" points="101,-245 101,-267 220,-267 220,-245 101,-245"/>
<text text-anchor="start" x="104" y="-252.7" font-family="Helvetica,sans-Serif" font-size="11.00" fill="#000000">varchar[254]</text>
<polygon fill="none" stroke="#000000" points="10,-223 10,-245 101,-245 101,-223 10,-223"/>
<text text-anchor="start" x="30" y="-230.1" font-family="Helvetica,sans-Serif" font-size="11.00" fill="#000000">durete</text>
<polygon fill="none" stroke="#000000" points="101,-223 101,-245 220,-245 220,-223 101,-223"/>
<text text-anchor="start" x="104" y="-230.7" font-family="Helvetica,sans-Serif" font-size="11.00" fill="#000000">varchar[254]</text>
<polygon fill="none" stroke="#000000" points="10,-201 10,-223 101,-223 101,-201 10,-201"/>
<text text-anchor="start" x="30" y="-208.1" font-family="Helvetica,sans-Serif" font-size="11.00" fill="#000000">epaisseur</text>
<polygon fill="none" stroke="#000000" points="101,-201 101,-223 220,-223 220,-201 101,-201"/>
<text text-anchor="start" x="104" y="-208.7" font-family="Helvetica,sans-Serif" font-size="11.00" fill="#000000">varchar[254]</text>
<polygon fill="none" stroke="#000000" points="10,-179 10,-201 101,-201 101,-179 10,-179"/>
<text text-anchor="start" x="30" y="-186.1" font-family="Helvetica,sans-Serif" font-size="11.00" fill="#000000">environmt</text>
<polygon fill="none" stroke="#000000" points="101,-179 101,-201 220,-201 220,-179 101,-179"/>
<text text-anchor="start" x="104" y="-186.7" font-family="Helvetica,sans-Serif" font-size="11.00" fill="#000000">varchar[254]</text>
<polygon fill="none" stroke="#000000" points="10,-157 10,-179 101,-179 101,-157 10,-157"/>
<text text-anchor="start" x="30" y="-164.1" font-family="Helvetica,sans-Serif" font-size="11.00" fill="#000000">c_geodyn</text>
<polygon fill="none" stroke="#000000" points="101,-157 101,-179 220,-179 220,-157 101,-157"/>
<text text-anchor="start" x="104" y="-164.7" font-family="Helvetica,sans-Serif" font-size="11.00" fill="#000000">varchar[254]</text>
<polygon fill="none" stroke="#000000" points="10,-135 10,-157 101,-157 101,-135 10,-135"/>
<text text-anchor="start" x="30" y="-142.1" font-family="Helvetica,sans-Serif" font-size="11.00" fill="#000000">geochimie</text>
<polygon fill="none" stroke="#000000" points="101,-135 101,-157 220,-157 220,-135 101,-135"/>
<text text-anchor="start" x="104" y="-142.7" font-family="Helvetica,sans-Serif" font-size="11.00" fill="#000000">varchar[254]</text>
<polygon fill="none" stroke="#000000" points="10,-113 10,-135 101,-135 101,-113 10,-113"/>
<text text-anchor="start" x="30" y="-120.1" font-family="Helvetica,sans-Serif" font-size="11.00" fill="#000000">litho_com</text>
<polygon fill="none" stroke="#000000" points="101,-113 101,-135 220,-135 220,-113 101,-113"/>
<text text-anchor="start" x="104" y="-120.7" font-family="Helvetica,sans-Serif" font-size="11.00" fill="#000000">varchar[254]</text>
<polygon fill="#ffffff" stroke="transparent" points="10,-91 10,-113 101,-113 101,-91 10,-91"/>
<polygon fill="none" stroke="#000000" points="10,-91 10,-113 101,-113 101,-91 10,-91"/>
<text text-anchor="start" x="30" y="-98.1" font-family="Helvetica,sans-Serif" font-size="11.00" fill="#000000">geom</text>
<polygon fill="none" stroke="#000000" points="101,-91 101,-113 220,-113 220,-91 101,-91"/>
<text text-anchor="start" x="103.9485" y="-98.7" font-family="Helvetica,sans-Serif" font-size="11.00" fill="#000000">geometry[2147483647]</text>
<polygon fill="none" stroke="#000000" points="10,-69 10,-91 101,-91 101,-69 10,-69"/>
<text text-anchor="start" x="30" y="-76.1" font-family="Helvetica,sans-Serif" font-size="11.00" fill="#000000">age_deb_id</text>
<polygon fill="none" stroke="#000000" points="101,-69 101,-91 220,-91 220,-69 101,-69"/>
<text text-anchor="start" x="104" y="-76.7" font-family="Helvetica,sans-Serif" font-size="11.00" fill="#000000">int4[10]</text>
<polygon fill="none" stroke="#000000" points="10,-47 10,-69 101,-69 101,-47 10,-47"/>
<text text-anchor="start" x="30" y="-54.1" font-family="Helvetica,sans-Serif" font-size="11.00" fill="#000000">age_fin_id</text>
<polygon fill="none" stroke="#000000" points="101,-47 101,-69 220,-69 220,-47 101,-47"/>
<text text-anchor="start" x="104" y="-54.7" font-family="Helvetica,sans-Serif" font-size="11.00" fill="#000000">int4[10]</text>
<polygon fill="none" stroke="#000000" points="10,-25 10,-47 101,-47 101,-25 10,-25"/>
<image xlink:href="../../images/primaryKeys.png" width="11px" height="12px" preserveAspectRatio="xMinYMin meet" x="15" y="-42"/>
<text text-anchor="start" x="30" y="-32.1" font-family="Helvetica,sans-Serif" font-size="11.00" fill="#000000">id</text>
<polygon fill="none" stroke="#000000" points="101,-25 101,-47 220,-47 220,-25 101,-25"/>
<text text-anchor="start" x="104" y="-32.7" font-family="Helvetica,sans-Serif" font-size="11.00" fill="#000000">serial[10]</text>
<polygon fill="#ffffff" stroke="transparent" points="10,-6 10,-25 31,-25 31,-6 10,-6"/>
<polygon fill="none" stroke="#000000" points="10,-6 10,-25 31,-25 31,-6 10,-6"/>
<text text-anchor="start" x="12.7027" y="-12.1" font-family="Helvetica,sans-Serif" font-size="11.00" fill="#000000">&lt; 0</text>
<polygon fill="#ffffff" stroke="transparent" points="31,-6 31,-25 101,-25 101,-6 31,-6"/>
<polygon fill="none" stroke="#000000" points="31,-6 31,-25 101,-25 101,-6 31,-6"/>
<text text-anchor="start" x="34.4321" y="-12.1" font-family="Helvetica,sans-Serif" font-size="11.00" fill="#000000">17 309 rows</text>
<polygon fill="#ffffff" stroke="transparent" points="101,-6 101,-25 220,-25 220,-6 101,-6"/>
<polygon fill="none" stroke="#000000" points="101,-6 101,-25 220,-25 220,-6 101,-6"/>
<text text-anchor="start" x="201.4053" y="-12.1" font-family="Helvetica,sans-Serif" font-size="11.00" fill="#000000">0 &gt;</text>
<polygon fill="none" stroke="#000000" stroke-width="2" points="9,-5 9,-753 221,-753 221,-5 9,-5"/>
</a>
</g>
</g>
</g>
</svg>
