<?xml version="1.0" encoding="UTF-8" standalone="no"?>
<!DOCTYPE svg PUBLIC "-//W3C//DTD SVG 1.1//EN"
 "http://www.w3.org/Graphics/SVG/1.1/DTD/svg11.dtd">
<!-- Generated by graphviz version 2.40.1 (20161225.0304)
 -->
<!-- Title: espace_protege_ref Pages: 1 -->
<svg width="281pt" height="546pt"
 viewBox="0.00 0.00 281.00 546.00" xmlns="http://www.w3.org/2000/svg" xmlns:xlink="http://www.w3.org/1999/xlink">
<g id="graph0" class="graph" transform="scale(1 1) rotate(0) translate(4 542)">
<title>espace_protege_ref</title>
<polygon fill="#ffffff" stroke="transparent" points="-4,4 -4,-542 277,-542 277,4 -4,4"/>
<!-- espace_protege_ref -->
<g id="node1" class="node">
<title>espace_protege_ref</title>
<g id="a_node1"><a xlink:href="../../tables/espace_protege_ref.html" xlink:title="espace_protege_ref" target="_top">
<polygon fill="#ffffff" stroke="transparent" points="8,-4 8,-534 265,-534 265,-4 8,-4"/>
<polygon fill="#f5f5f5" stroke="transparent" points="10.5,-509 10.5,-532 263.5,-532 263.5,-509 10.5,-509"/>
<polygon fill="none" stroke="#000000" points="10.5,-509 10.5,-532 263.5,-532 263.5,-509 10.5,-509"/>
<text text-anchor="start" x="15.5" y="-518.1" font-family="Helvetica,sans-Serif" font-weight="bold" font-size="11.00" fill="#000000">espace_protege_ref</text>
<text text-anchor="start" x="228.5437" y="-517.1" font-family="Helvetica,sans-Serif" font-size="11.00" fill="#000000">[table]</text>
<polygon fill="none" stroke="#000000" points="10.5,-487 10.5,-509 144.5,-509 144.5,-487 10.5,-487"/>
<image xlink:href="../../images/primaryKeys.png" width="11px" height="12px" preserveAspectRatio="xMinYMin meet" x="15.5" y="-504"/>
<text text-anchor="start" x="30.5" y="-494.1" font-family="Helvetica,sans-Serif" font-size="11.00" fill="#000000">id</text>
<polygon fill="none" stroke="#000000" points="144.5,-487 144.5,-509 263.5,-509 263.5,-487 144.5,-487"/>
<text text-anchor="start" x="147.5" y="-494.7" font-family="Helvetica,sans-Serif" font-size="11.00" fill="#000000">int4[10]</text>
<polygon fill="#ffffff" stroke="transparent" points="10.5,-465 10.5,-487 144.5,-487 144.5,-465 10.5,-465"/>
<polygon fill="none" stroke="#000000" points="10.5,-465 10.5,-487 144.5,-487 144.5,-465 10.5,-465"/>
<text text-anchor="start" x="30.5" y="-472.1" font-family="Helvetica,sans-Serif" font-size="11.00" fill="#000000">geom</text>
<polygon fill="none" stroke="#000000" points="144.5,-465 144.5,-487 263.5,-487 263.5,-465 144.5,-465"/>
<text text-anchor="start" x="147.4485" y="-472.7" font-family="Helvetica,sans-Serif" font-size="11.00" fill="#000000">geometry[2147483647]</text>
<polygon fill="none" stroke="#000000" points="10.5,-443 10.5,-465 144.5,-465 144.5,-443 10.5,-443"/>
<text text-anchor="start" x="30.5" y="-450.1" font-family="Helvetica,sans-Serif" font-size="11.00" fill="#000000">id_local</text>
<polygon fill="none" stroke="#000000" points="144.5,-443 144.5,-465 263.5,-465 263.5,-443 144.5,-443"/>
<text text-anchor="start" x="147.5" y="-450.7" font-family="Helvetica,sans-Serif" font-size="11.00" fill="#000000">varchar[15]</text>
<polygon fill="none" stroke="#000000" points="10.5,-421 10.5,-443 144.5,-443 144.5,-421 10.5,-421"/>
<text text-anchor="start" x="30.5" y="-428.1" font-family="Helvetica,sans-Serif" font-size="11.00" fill="#000000">code_r_enp</text>
<polygon fill="none" stroke="#000000" points="144.5,-421 144.5,-443 263.5,-443 263.5,-421 144.5,-421"/>
<text text-anchor="start" x="147.5" y="-428.7" font-family="Helvetica,sans-Serif" font-size="11.00" fill="#000000">varchar[5]</text>
<polygon fill="none" stroke="#000000" points="10.5,-399 10.5,-421 144.5,-421 144.5,-399 10.5,-399"/>
<text text-anchor="start" x="30.5" y="-406.1" font-family="Helvetica,sans-Serif" font-size="11.00" fill="#000000">nom_site</text>
<polygon fill="none" stroke="#000000" points="144.5,-399 144.5,-421 263.5,-421 263.5,-399 144.5,-399"/>
<text text-anchor="start" x="147.5" y="-406.7" font-family="Helvetica,sans-Serif" font-size="11.00" fill="#000000">varchar[254]</text>
<polygon fill="none" stroke="#000000" points="10.5,-377 10.5,-399 144.5,-399 144.5,-377 10.5,-377"/>
<text text-anchor="start" x="30.5" y="-384.1" font-family="Helvetica,sans-Serif" font-size="11.00" fill="#000000">date_crea</text>
<polygon fill="none" stroke="#000000" points="144.5,-377 144.5,-399 263.5,-399 263.5,-377 144.5,-377"/>
<text text-anchor="start" x="147.5" y="-384.7" font-family="Helvetica,sans-Serif" font-size="11.00" fill="#000000">date[13]</text>
<polygon fill="none" stroke="#000000" points="10.5,-355 10.5,-377 144.5,-377 144.5,-355 10.5,-355"/>
<text text-anchor="start" x="30.5" y="-362.1" font-family="Helvetica,sans-Serif" font-size="11.00" fill="#000000">modif_adm</text>
<polygon fill="none" stroke="#000000" points="144.5,-355 144.5,-377 263.5,-377 263.5,-355 144.5,-355"/>
<text text-anchor="start" x="147.5" y="-362.7" font-family="Helvetica,sans-Serif" font-size="11.00" fill="#000000">date[13]</text>
<polygon fill="none" stroke="#000000" points="10.5,-333 10.5,-355 144.5,-355 144.5,-333 10.5,-333"/>
<text text-anchor="start" x="30.5" y="-340.1" font-family="Helvetica,sans-Serif" font-size="11.00" fill="#000000">modif_geo</text>
<polygon fill="none" stroke="#000000" points="144.5,-333 144.5,-355 263.5,-355 263.5,-333 144.5,-333"/>
<text text-anchor="start" x="147.5" y="-340.7" font-family="Helvetica,sans-Serif" font-size="11.00" fill="#000000">date[13]</text>
<polygon fill="none" stroke="#000000" points="10.5,-311 10.5,-333 144.5,-333 144.5,-311 10.5,-311"/>
<text text-anchor="start" x="30.5" y="-318.1" font-family="Helvetica,sans-Serif" font-size="11.00" fill="#000000">surf_off</text>
<polygon fill="none" stroke="#000000" points="144.5,-311 144.5,-333 263.5,-333 263.5,-311 144.5,-311"/>
<text text-anchor="start" x="147.5" y="-318.7" font-family="Helvetica,sans-Serif" font-size="11.00" fill="#000000">float8[17,17]</text>
<polygon fill="none" stroke="#000000" points="10.5,-289 10.5,-311 144.5,-311 144.5,-289 10.5,-289"/>
<text text-anchor="start" x="30.5" y="-296.1" font-family="Helvetica,sans-Serif" font-size="11.00" fill="#000000">acte_deb</text>
<polygon fill="none" stroke="#000000" points="144.5,-289 144.5,-311 263.5,-311 263.5,-289 144.5,-289"/>
<text text-anchor="start" x="147.5" y="-296.7" font-family="Helvetica,sans-Serif" font-size="11.00" fill="#000000">varchar[50]</text>
<polygon fill="none" stroke="#000000" points="10.5,-267 10.5,-289 144.5,-289 144.5,-267 10.5,-267"/>
<text text-anchor="start" x="30.5" y="-274.1" font-family="Helvetica,sans-Serif" font-size="11.00" fill="#000000">acte_fin</text>
<polygon fill="none" stroke="#000000" points="144.5,-267 144.5,-289 263.5,-289 263.5,-267 144.5,-267"/>
<text text-anchor="start" x="147.5" y="-274.7" font-family="Helvetica,sans-Serif" font-size="11.00" fill="#000000">varchar[50]</text>
<polygon fill="none" stroke="#000000" points="10.5,-245 10.5,-267 144.5,-267 144.5,-245 10.5,-245"/>
<text text-anchor="start" x="30.5" y="-252.1" font-family="Helvetica,sans-Serif" font-size="11.00" fill="#000000">gest_site</text>
<polygon fill="none" stroke="#000000" points="144.5,-245 144.5,-267 263.5,-267 263.5,-245 144.5,-245"/>
<text text-anchor="start" x="147.5" y="-252.7" font-family="Helvetica,sans-Serif" font-size="11.00" fill="#000000">varchar[100]</text>
<polygon fill="none" stroke="#000000" points="10.5,-223 10.5,-245 144.5,-245 144.5,-223 10.5,-223"/>
<text text-anchor="start" x="30.5" y="-230.1" font-family="Helvetica,sans-Serif" font-size="11.00" fill="#000000">operateur</text>
<polygon fill="none" stroke="#000000" points="144.5,-223 144.5,-245 263.5,-245 263.5,-223 144.5,-223"/>
<text text-anchor="start" x="147.5" y="-230.7" font-family="Helvetica,sans-Serif" font-size="11.00" fill="#000000">varchar[50]</text>
<polygon fill="none" stroke="#000000" points="10.5,-201 10.5,-223 144.5,-223 144.5,-201 10.5,-201"/>
<text text-anchor="start" x="30.5" y="-208.1" font-family="Helvetica,sans-Serif" font-size="11.00" fill="#000000">src_geom</text>
<polygon fill="none" stroke="#000000" points="144.5,-201 144.5,-223 263.5,-223 263.5,-201 144.5,-201"/>
<text text-anchor="start" x="147.5" y="-208.7" font-family="Helvetica,sans-Serif" font-size="11.00" fill="#000000">varchar[100]</text>
<polygon fill="none" stroke="#000000" points="10.5,-179 10.5,-201 144.5,-201 144.5,-179 10.5,-179"/>
<text text-anchor="start" x="30.5" y="-186.1" font-family="Helvetica,sans-Serif" font-size="11.00" fill="#000000">src_annee</text>
<polygon fill="none" stroke="#000000" points="144.5,-179 144.5,-201 263.5,-201 263.5,-179 144.5,-179"/>
<text text-anchor="start" x="147.5" y="-186.7" font-family="Helvetica,sans-Serif" font-size="11.00" fill="#000000">varchar[4]</text>
<polygon fill="none" stroke="#000000" points="10.5,-157 10.5,-179 144.5,-179 144.5,-157 10.5,-157"/>
<text text-anchor="start" x="30.5" y="-164.1" font-family="Helvetica,sans-Serif" font-size="11.00" fill="#000000">marin</text>
<polygon fill="none" stroke="#000000" points="144.5,-157 144.5,-179 263.5,-179 263.5,-157 144.5,-157"/>
<text text-anchor="start" x="147.5" y="-164.7" font-family="Helvetica,sans-Serif" font-size="11.00" fill="#000000">varchar[1]</text>
<polygon fill="#ffffff" stroke="transparent" points="10.5,-135 10.5,-157 144.5,-157 144.5,-135 10.5,-135"/>
<polygon fill="none" stroke="#000000" points="10.5,-135 10.5,-157 144.5,-157 144.5,-135 10.5,-135"/>
<text text-anchor="start" x="30.5" y="-142.1" font-family="Helvetica,sans-Serif" font-size="11.00" fill="#000000">id_mnhn</text>
<polygon fill="none" stroke="#000000" points="144.5,-135 144.5,-157 263.5,-157 263.5,-135 144.5,-135"/>
<text text-anchor="start" x="147.5" y="-142.7" font-family="Helvetica,sans-Serif" font-size="11.00" fill="#000000">varchar[30]</text>
<polygon fill="none" stroke="#000000" points="10.5,-113 10.5,-135 144.5,-135 144.5,-113 10.5,-113"/>
<text text-anchor="start" x="30.5" y="-120.1" font-family="Helvetica,sans-Serif" font-size="11.00" fill="#000000">gest_site_2</text>
<polygon fill="none" stroke="#000000" points="144.5,-113 144.5,-135 263.5,-135 263.5,-113 144.5,-113"/>
<text text-anchor="start" x="147.5" y="-120.7" font-family="Helvetica,sans-Serif" font-size="11.00" fill="#000000">varchar[255]</text>
<polygon fill="none" stroke="#000000" points="10.5,-91 10.5,-113 144.5,-113 144.5,-91 10.5,-91"/>
<text text-anchor="start" x="30.5" y="-98.1" font-family="Helvetica,sans-Serif" font-size="11.00" fill="#000000">id_rnf</text>
<polygon fill="none" stroke="#000000" points="144.5,-91 144.5,-113 263.5,-113 263.5,-91 144.5,-91"/>
<text text-anchor="start" x="147.5" y="-98.7" font-family="Helvetica,sans-Serif" font-size="11.00" fill="#000000">int4[10]</text>
<polygon fill="none" stroke="#000000" points="10.5,-69 10.5,-91 144.5,-91 144.5,-69 10.5,-69"/>
<text text-anchor="start" x="30.5" y="-76.1" font-family="Helvetica,sans-Serif" font-size="11.00" fill="#000000">jonction_nom</text>
<polygon fill="none" stroke="#000000" points="144.5,-69 144.5,-91 263.5,-91 263.5,-69 144.5,-69"/>
<text text-anchor="start" x="147.5" y="-76.7" font-family="Helvetica,sans-Serif" font-size="11.00" fill="#000000">varchar[12]</text>
<polygon fill="none" stroke="#000000" points="10.5,-47 10.5,-69 144.5,-69 144.5,-47 10.5,-47"/>
<text text-anchor="start" x="30.5" y="-54.1" font-family="Helvetica,sans-Serif" font-size="11.00" fill="#000000">chemin_acte</text>
<polygon fill="none" stroke="#000000" points="144.5,-47 144.5,-69 263.5,-69 263.5,-47 144.5,-47"/>
<text text-anchor="start" x="147.5" y="-54.7" font-family="Helvetica,sans-Serif" font-size="11.00" fill="#000000">varchar[255]</text>
<polygon fill="none" stroke="#000000" points="10.5,-25 10.5,-47 144.5,-47 144.5,-25 10.5,-25"/>
<text text-anchor="start" x="30.5" y="-32.1" font-family="Helvetica,sans-Serif" font-size="11.00" fill="#000000">outremer</text>
<polygon fill="none" stroke="#000000" points="144.5,-25 144.5,-47 263.5,-47 263.5,-25 144.5,-25"/>
<text text-anchor="start" x="147.5" y="-32.7" font-family="Helvetica,sans-Serif" font-size="11.00" fill="#000000">bool[1]</text>
<polygon fill="#ffffff" stroke="transparent" points="10.5,-6 10.5,-25 62.5,-25 62.5,-6 10.5,-6"/>
<polygon fill="none" stroke="#000000" points="10.5,-6 10.5,-25 62.5,-25 62.5,-6 10.5,-6"/>
<text text-anchor="start" x="13.5" y="-12.1" font-family="Helvetica,sans-Serif" font-size="11.00" fill="#000000">&lt; 0</text>
<polygon fill="#ffffff" stroke="transparent" points="62.5,-6 62.5,-25 144.5,-25 144.5,-6 62.5,-6"/>
<polygon fill="none" stroke="#000000" points="62.5,-6 62.5,-25 144.5,-25 144.5,-6 62.5,-6"/>
<text text-anchor="start" x="96.8807" y="-12.1" font-family="Helvetica,sans-Serif" font-size="11.00" fill="#000000">346 rows</text>
<polygon fill="#ffffff" stroke="transparent" points="144.5,-6 144.5,-25 263.5,-25 263.5,-6 144.5,-6"/>
<polygon fill="none" stroke="#000000" points="144.5,-6 144.5,-25 263.5,-25 263.5,-6 144.5,-6"/>
<text text-anchor="start" x="244.9053" y="-12.1" font-family="Helvetica,sans-Serif" font-size="11.00" fill="#000000">0 &gt;</text>
<polygon fill="none" stroke="#000000" stroke-width="2" points="9,-5 9,-533 264,-533 264,-5 9,-5"/>
</a>
</g>
</g>
</g>
</svg>
