<?xml version="1.0" encoding="UTF-8" standalone="no"?>
<!DOCTYPE svg PUBLIC "-//W3C//DTD SVG 1.1//EN"
 "http://www.w3.org/Graphics/SVG/1.1/DTD/svg11.dtd">
<!-- Generated by graphviz version 2.40.1 (20161225.0304)
 -->
<!-- Title: groups Pages: 1 -->
<svg width="180pt" height="128pt"
 viewBox="0.00 0.00 180.00 128.00" xmlns="http://www.w3.org/2000/svg" xmlns:xlink="http://www.w3.org/1999/xlink">
<g id="graph0" class="graph" transform="scale(1 1) rotate(0) translate(4 124)">
<title>groups</title>
<polygon fill="#ffffff" stroke="transparent" points="-4,4 -4,-124 176,-124 176,4 -4,4"/>
<!-- groups -->
<g id="node1" class="node">
<title>groups</title>
<g id="a_node1"><a xlink:href="../../tables/groups.html" xlink:title="groups" target="_top">
<polygon fill="#ffffff" stroke="transparent" points="8,-4 8,-116 164,-116 164,-4 8,-4"/>
<polygon fill="#f5f5f5" stroke="transparent" points="10,-91 10,-114 162,-114 162,-91 10,-91"/>
<polygon fill="none" stroke="#000000" points="10,-91 10,-114 162,-114 162,-91 10,-91"/>
<text text-anchor="start" x="15" y="-100.1" font-family="Helvetica,sans-Serif" font-weight="bold" font-size="11.00" fill="#000000">groups</text>
<text text-anchor="start" x="127.0437" y="-99.1" font-family="Helvetica,sans-Serif" font-size="11.00" fill="#000000">[table]</text>
<polygon fill="none" stroke="#000000" points="10,-69 10,-91 95,-91 95,-69 10,-69"/>
<image xlink:href="../../images/primaryKeys.png" width="11px" height="12px" preserveAspectRatio="xMinYMin meet" x="15" y="-86"/>
<text text-anchor="start" x="30" y="-76.1" font-family="Helvetica,sans-Serif" font-size="11.00" fill="#000000">id</text>
<polygon fill="none" stroke="#000000" points="95,-69 95,-91 162,-91 162,-69 95,-69"/>
<text text-anchor="start" x="98" y="-76.7" font-family="Helvetica,sans-Serif" font-size="11.00" fill="#000000">serial[10]</text>
<polygon fill="none" stroke="#000000" points="10,-47 10,-69 95,-69 95,-47 10,-47"/>
<text text-anchor="start" x="30" y="-54.1" font-family="Helvetica,sans-Serif" font-size="11.00" fill="#000000">name</text>
<polygon fill="none" stroke="#000000" points="95,-47 95,-69 162,-69 162,-47 95,-47"/>
<text text-anchor="start" x="98" y="-54.7" font-family="Helvetica,sans-Serif" font-size="11.00" fill="#000000">varchar[20]</text>
<polygon fill="none" stroke="#000000" points="10,-25 10,-47 95,-47 95,-25 10,-25"/>
<text text-anchor="start" x="30" y="-32.1" font-family="Helvetica,sans-Serif" font-size="11.00" fill="#000000">description</text>
<polygon fill="none" stroke="#000000" points="95,-25 95,-47 162,-47 162,-25 95,-25"/>
<text text-anchor="start" x="97.9365" y="-32.7" font-family="Helvetica,sans-Serif" font-size="11.00" fill="#000000">varchar[100]</text>
<polygon fill="#ffffff" stroke="transparent" points="10,-6 10,-25 44,-25 44,-6 10,-6"/>
<polygon fill="none" stroke="#000000" points="10,-6 10,-25 44,-25 44,-6 10,-6"/>
<text text-anchor="start" x="13" y="-12.1" font-family="Helvetica,sans-Serif" font-size="11.00" fill="#000000">&lt; 0</text>
<polygon fill="#ffffff" stroke="transparent" points="44,-6 44,-25 95,-25 95,-6 44,-6"/>
<polygon fill="none" stroke="#000000" points="44,-6 44,-25 95,-25 95,-6 44,-6"/>
<text text-anchor="start" x="59.6105" y="-12.1" font-family="Helvetica,sans-Serif" font-size="11.00" fill="#000000">6 rows</text>
<polygon fill="#ffffff" stroke="transparent" points="95,-6 95,-25 162,-25 162,-6 95,-6"/>
<polygon fill="none" stroke="#000000" points="95,-6 95,-25 162,-25 162,-6 95,-6"/>
<text text-anchor="start" x="143.4053" y="-12.1" font-family="Helvetica,sans-Serif" font-size="11.00" fill="#000000">0 &gt;</text>
<polygon fill="none" stroke="#000000" stroke-width="2" points="9,-5 9,-115 163,-115 163,-5 9,-5"/>
</a>
</g>
</g>
</g>
</svg>
