<?xml version="1.0" encoding="UTF-8" standalone="no"?>
<!DOCTYPE svg PUBLIC "-//W3C//DTD SVG 1.1//EN"
 "http://www.w3.org/Graphics/SVG/1.1/DTD/svg11.dtd">
<!-- Generated by graphviz version 2.40.1 (20161225.0304)
 -->
<!-- Title: login_attempts Pages: 1 -->
<svg width="201pt" height="150pt"
 viewBox="0.00 0.00 201.00 150.00" xmlns="http://www.w3.org/2000/svg" xmlns:xlink="http://www.w3.org/1999/xlink">
<g id="graph0" class="graph" transform="scale(1 1) rotate(0) translate(4 146)">
<title>login_attempts</title>
<polygon fill="#ffffff" stroke="transparent" points="-4,4 -4,-146 197,-146 197,4 -4,4"/>
<!-- login_attempts -->
<g id="node1" class="node">
<title>login_attempts</title>
<g id="a_node1"><a xlink:href="../../tables/login_attempts.html" xlink:title="login_attempts" target="_top">
<polygon fill="#ffffff" stroke="transparent" points="8,-4 8,-138 185,-138 185,-4 8,-4"/>
<polygon fill="#f5f5f5" stroke="transparent" points="10.5,-113 10.5,-136 183.5,-136 183.5,-113 10.5,-113"/>
<polygon fill="none" stroke="#000000" points="10.5,-113 10.5,-136 183.5,-136 183.5,-113 10.5,-113"/>
<text text-anchor="start" x="15.5" y="-122.1" font-family="Helvetica,sans-Serif" font-weight="bold" font-size="11.00" fill="#000000">login_attempts</text>
<text text-anchor="start" x="148.5437" y="-121.1" font-family="Helvetica,sans-Serif" font-size="11.00" fill="#000000">[table]</text>
<polygon fill="none" stroke="#000000" points="10.5,-91 10.5,-113 116.5,-113 116.5,-91 10.5,-91"/>
<image xlink:href="../../images/primaryKeys.png" width="11px" height="12px" preserveAspectRatio="xMinYMin meet" x="15.5" y="-108"/>
<text text-anchor="start" x="30.5" y="-98.1" font-family="Helvetica,sans-Serif" font-size="11.00" fill="#000000">id</text>
<polygon fill="none" stroke="#000000" points="116.5,-91 116.5,-113 183.5,-113 183.5,-91 116.5,-91"/>
<text text-anchor="start" x="119.5" y="-98.7" font-family="Helvetica,sans-Serif" font-size="11.00" fill="#000000">serial[10]</text>
<polygon fill="none" stroke="#000000" points="10.5,-69 10.5,-91 116.5,-91 116.5,-69 10.5,-69"/>
<text text-anchor="start" x="30.5" y="-76.1" font-family="Helvetica,sans-Serif" font-size="11.00" fill="#000000">ip_address</text>
<polygon fill="none" stroke="#000000" points="116.5,-69 116.5,-91 183.5,-91 183.5,-69 116.5,-69"/>
<text text-anchor="start" x="119.5" y="-76.7" font-family="Helvetica,sans-Serif" font-size="11.00" fill="#000000">varchar[45]</text>
<polygon fill="none" stroke="#000000" points="10.5,-47 10.5,-69 116.5,-69 116.5,-47 10.5,-47"/>
<text text-anchor="start" x="30.5" y="-54.1" font-family="Helvetica,sans-Serif" font-size="11.00" fill="#000000">login</text>
<polygon fill="none" stroke="#000000" points="116.5,-47 116.5,-69 183.5,-69 183.5,-47 116.5,-47"/>
<text text-anchor="start" x="119.4365" y="-54.7" font-family="Helvetica,sans-Serif" font-size="11.00" fill="#000000">varchar[100]</text>
<polygon fill="none" stroke="#000000" points="10.5,-25 10.5,-47 116.5,-47 116.5,-25 10.5,-25"/>
<text text-anchor="start" x="30.5" y="-32.1" font-family="Helvetica,sans-Serif" font-size="11.00" fill="#000000">time</text>
<polygon fill="none" stroke="#000000" points="116.5,-25 116.5,-47 183.5,-47 183.5,-25 116.5,-25"/>
<text text-anchor="start" x="119.5" y="-32.7" font-family="Helvetica,sans-Serif" font-size="11.00" fill="#000000">int4[10]</text>
<polygon fill="#ffffff" stroke="transparent" points="10.5,-6 10.5,-25 54.5,-25 54.5,-6 10.5,-6"/>
<polygon fill="none" stroke="#000000" points="10.5,-6 10.5,-25 54.5,-25 54.5,-6 10.5,-6"/>
<text text-anchor="start" x="13.5" y="-12.1" font-family="Helvetica,sans-Serif" font-size="11.00" fill="#000000">&lt; 0</text>
<polygon fill="#ffffff" stroke="transparent" points="54.5,-6 54.5,-25 116.5,-25 116.5,-6 54.5,-6"/>
<polygon fill="none" stroke="#000000" points="54.5,-6 54.5,-25 116.5,-25 116.5,-6 54.5,-6"/>
<text text-anchor="start" x="81.1105" y="-12.1" font-family="Helvetica,sans-Serif" font-size="11.00" fill="#000000">0 rows</text>
<polygon fill="#ffffff" stroke="transparent" points="116.5,-6 116.5,-25 183.5,-25 183.5,-6 116.5,-6"/>
<polygon fill="none" stroke="#000000" points="116.5,-6 116.5,-25 183.5,-25 183.5,-6 116.5,-6"/>
<text text-anchor="start" x="164.9053" y="-12.1" font-family="Helvetica,sans-Serif" font-size="11.00" fill="#000000">0 &gt;</text>
<polygon fill="none" stroke="#000000" stroke-width="2" points="9,-5 9,-137 184,-137 184,-5 9,-5"/>
</a>
</g>
</g>
</g>
</svg>
