<?xml version="1.0" encoding="UTF-8" standalone="no"?>
<!DOCTYPE svg PUBLIC "-//W3C//DTD SVG 1.1//EN"
 "http://www.w3.org/Graphics/SVG/1.1/DTD/svg11.dtd">
<!-- Generated by graphviz version 2.40.1 (20161225.0304)
 -->
<!-- Title: rubrique Pages: 1 -->
<svg width="203pt" height="150pt"
 viewBox="0.00 0.00 203.00 150.00" xmlns="http://www.w3.org/2000/svg" xmlns:xlink="http://www.w3.org/1999/xlink">
<g id="graph0" class="graph" transform="scale(1 1) rotate(0) translate(4 146)">
<title>rubrique</title>
<polygon fill="#ffffff" stroke="transparent" points="-4,4 -4,-146 199,-146 199,4 -4,4"/>
<!-- rubrique -->
<g id="node1" class="node">
<title>rubrique</title>
<g id="a_node1"><a xlink:href="../../tables/rubrique.html" xlink:title="rubrique" target="_top">
<polygon fill="#ffffff" stroke="transparent" points="8,-4 8,-138 187,-138 187,-4 8,-4"/>
<polygon fill="#f5f5f5" stroke="transparent" points="10.5,-113 10.5,-136 185.5,-136 185.5,-113 10.5,-113"/>
<polygon fill="none" stroke="#000000" points="10.5,-113 10.5,-136 185.5,-136 185.5,-113 10.5,-113"/>
<text text-anchor="start" x="15.5" y="-122.1" font-family="Helvetica,sans-Serif" font-weight="bold" font-size="11.00" fill="#000000">rubrique</text>
<text text-anchor="start" x="150.5437" y="-121.1" font-family="Helvetica,sans-Serif" font-size="11.00" fill="#000000">[table]</text>
<polygon fill="none" stroke="#000000" points="10.5,-91 10.5,-113 95.5,-113 95.5,-91 10.5,-91"/>
<image xlink:href="../../images/primaryKeys.png" width="11px" height="12px" preserveAspectRatio="xMinYMin meet" x="15.5" y="-108"/>
<text text-anchor="start" x="30.5" y="-98.1" font-family="Helvetica,sans-Serif" font-size="11.00" fill="#000000">id</text>
<polygon fill="none" stroke="#000000" points="95.5,-91 95.5,-113 185.5,-113 185.5,-91 95.5,-91"/>
<text text-anchor="start" x="98.5" y="-98.7" font-family="Helvetica,sans-Serif" font-size="11.00" fill="#000000">varchar[100]</text>
<polygon fill="none" stroke="#000000" points="10.5,-69 10.5,-91 95.5,-91 95.5,-69 10.5,-69"/>
<text text-anchor="start" x="30.5" y="-76.1" font-family="Helvetica,sans-Serif" font-size="11.00" fill="#000000">description</text>
<polygon fill="none" stroke="#000000" points="95.5,-69 95.5,-91 185.5,-91 185.5,-69 95.5,-69"/>
<text text-anchor="start" x="98.0042" y="-76.7" font-family="Helvetica,sans-Serif" font-size="11.00" fill="#000000">text[2147483647]</text>
<polygon fill="none" stroke="#000000" points="10.5,-47 10.5,-69 95.5,-69 95.5,-47 10.5,-47"/>
<text text-anchor="start" x="30.5" y="-54.1" font-family="Helvetica,sans-Serif" font-size="11.00" fill="#000000">obligatoire</text>
<polygon fill="none" stroke="#000000" points="95.5,-47 95.5,-69 185.5,-69 185.5,-47 95.5,-47"/>
<text text-anchor="start" x="98.5" y="-54.7" font-family="Helvetica,sans-Serif" font-size="11.00" fill="#000000">bool[1]</text>
<polygon fill="none" stroke="#000000" points="10.5,-25 10.5,-47 95.5,-47 95.5,-25 10.5,-25"/>
<text text-anchor="start" x="30.5" y="-32.1" font-family="Helvetica,sans-Serif" font-size="11.00" fill="#000000">niveau</text>
<polygon fill="none" stroke="#000000" points="95.5,-25 95.5,-47 185.5,-47 185.5,-25 95.5,-25"/>
<text text-anchor="start" x="98.5" y="-32.7" font-family="Helvetica,sans-Serif" font-size="11.00" fill="#000000">varchar[50]</text>
<polygon fill="#ffffff" stroke="transparent" points="10.5,-6 10.5,-25 41.5,-25 41.5,-6 10.5,-6"/>
<polygon fill="none" stroke="#000000" points="10.5,-6 10.5,-25 41.5,-25 41.5,-6 10.5,-6"/>
<text text-anchor="start" x="13.5" y="-12.1" font-family="Helvetica,sans-Serif" font-size="11.00" fill="#000000">&lt; 0</text>
<polygon fill="#ffffff" stroke="transparent" points="41.5,-6 41.5,-25 95.5,-25 95.5,-6 41.5,-6"/>
<polygon fill="none" stroke="#000000" points="41.5,-6 41.5,-25 95.5,-25 95.5,-6 41.5,-6"/>
<text text-anchor="start" x="53.9956" y="-12.1" font-family="Helvetica,sans-Serif" font-size="11.00" fill="#000000">20 rows</text>
<polygon fill="#ffffff" stroke="transparent" points="95.5,-6 95.5,-25 185.5,-25 185.5,-6 95.5,-6"/>
<polygon fill="none" stroke="#000000" points="95.5,-6 95.5,-25 185.5,-25 185.5,-6 95.5,-6"/>
<text text-anchor="start" x="166.9053" y="-12.1" font-family="Helvetica,sans-Serif" font-size="11.00" fill="#000000">0 &gt;</text>
<polygon fill="none" stroke="#000000" stroke-width="2" points="9,-5 9,-137 186,-137 186,-5 9,-5"/>
</a>
</g>
</g>
</g>
</svg>
