<?xml version="1.0" encoding="UTF-8" standalone="no"?>
<!DOCTYPE svg PUBLIC "-//W3C//DTD SVG 1.1//EN"
 "http://www.w3.org/Graphics/SVG/1.1/DTD/svg11.dtd">
<!-- Generated by graphviz version 2.40.1 (20161225.0304)
 -->
<!-- Title: spatial_ref_sys Pages: 1 -->
<svg width="208pt" height="172pt"
 viewBox="0.00 0.00 208.00 172.00" xmlns="http://www.w3.org/2000/svg" xmlns:xlink="http://www.w3.org/1999/xlink">
<g id="graph0" class="graph" transform="scale(1 1) rotate(0) translate(4 168)">
<title>spatial_ref_sys</title>
<polygon fill="#ffffff" stroke="transparent" points="-4,4 -4,-168 204,-168 204,4 -4,4"/>
<!-- spatial_ref_sys -->
<g id="node1" class="node">
<title>spatial_ref_sys</title>
<g id="a_node1"><a xlink:href="../../tables/spatial_ref_sys.html" xlink:title="spatial_ref_sys" target="_top">
<polygon fill="#ffffff" stroke="transparent" points="8,-4 8,-160 192,-160 192,-4 8,-4"/>
<polygon fill="#f5f5f5" stroke="transparent" points="10,-135 10,-158 190,-158 190,-135 10,-135"/>
<polygon fill="none" stroke="#000000" points="10,-135 10,-158 190,-158 190,-135 10,-135"/>
<text text-anchor="start" x="15" y="-144.1" font-family="Helvetica,sans-Serif" font-weight="bold" font-size="11.00" fill="#000000">spatial_ref_sys</text>
<text text-anchor="start" x="155.0437" y="-143.1" font-family="Helvetica,sans-Serif" font-size="11.00" fill="#000000">[table]</text>
<polygon fill="none" stroke="#000000" points="10,-113 10,-135 117,-135 117,-113 10,-113"/>
<image xlink:href="../../images/primaryKeys.png" width="11px" height="12px" preserveAspectRatio="xMinYMin meet" x="15" y="-130"/>
<text text-anchor="start" x="30" y="-120.1" font-family="Helvetica,sans-Serif" font-size="11.00" fill="#000000">srid</text>
<polygon fill="none" stroke="#000000" points="117,-113 117,-135 190,-135 190,-113 117,-113"/>
<text text-anchor="start" x="120" y="-120.7" font-family="Helvetica,sans-Serif" font-size="11.00" fill="#000000">int4[10]</text>
<polygon fill="none" stroke="#000000" points="10,-91 10,-113 117,-113 117,-91 10,-91"/>
<text text-anchor="start" x="30" y="-98.1" font-family="Helvetica,sans-Serif" font-size="11.00" fill="#000000">auth_name</text>
<polygon fill="none" stroke="#000000" points="117,-91 117,-113 190,-113 190,-91 117,-91"/>
<text text-anchor="start" x="120" y="-98.7" font-family="Helvetica,sans-Serif" font-size="11.00" fill="#000000">varchar[256]</text>
<polygon fill="none" stroke="#000000" points="10,-69 10,-91 117,-91 117,-69 10,-69"/>
<text text-anchor="start" x="30" y="-76.1" font-family="Helvetica,sans-Serif" font-size="11.00" fill="#000000">auth_srid</text>
<polygon fill="none" stroke="#000000" points="117,-69 117,-91 190,-91 190,-69 117,-69"/>
<text text-anchor="start" x="120" y="-76.7" font-family="Helvetica,sans-Serif" font-size="11.00" fill="#000000">int4[10]</text>
<polygon fill="none" stroke="#000000" points="10,-47 10,-69 117,-69 117,-47 10,-47"/>
<text text-anchor="start" x="30" y="-54.1" font-family="Helvetica,sans-Serif" font-size="11.00" fill="#000000">srtext</text>
<polygon fill="none" stroke="#000000" points="117,-47 117,-69 190,-69 190,-47 117,-47"/>
<text text-anchor="start" x="119.8791" y="-54.7" font-family="Helvetica,sans-Serif" font-size="11.00" fill="#000000">varchar[2048]</text>
<polygon fill="none" stroke="#000000" points="10,-25 10,-47 117,-47 117,-25 10,-25"/>
<text text-anchor="start" x="30" y="-32.1" font-family="Helvetica,sans-Serif" font-size="11.00" fill="#000000">proj4text</text>
<polygon fill="none" stroke="#000000" points="117,-25 117,-47 190,-47 190,-25 117,-25"/>
<text text-anchor="start" x="119.8791" y="-32.7" font-family="Helvetica,sans-Serif" font-size="11.00" fill="#000000">varchar[2048]</text>
<polygon fill="#ffffff" stroke="transparent" points="10,-6 10,-25 42,-25 42,-6 10,-6"/>
<polygon fill="none" stroke="#000000" points="10,-6 10,-25 42,-25 42,-6 10,-6"/>
<text text-anchor="start" x="13" y="-12.1" font-family="Helvetica,sans-Serif" font-size="11.00" fill="#000000">&lt; 0</text>
<polygon fill="#ffffff" stroke="transparent" points="42,-6 42,-25 117,-25 117,-6 42,-6"/>
<polygon fill="none" stroke="#000000" points="42,-6 42,-25 117,-25 117,-6 42,-6"/>
<text text-anchor="start" x="56.547" y="-12.1" font-family="Helvetica,sans-Serif" font-size="11.00" fill="#000000">5 536 rows</text>
<polygon fill="#ffffff" stroke="transparent" points="117,-6 117,-25 190,-25 190,-6 117,-6"/>
<polygon fill="none" stroke="#000000" points="117,-6 117,-25 190,-25 190,-6 117,-6"/>
<text text-anchor="start" x="171.4053" y="-12.1" font-family="Helvetica,sans-Serif" font-size="11.00" fill="#000000">0 &gt;</text>
<polygon fill="none" stroke="#000000" stroke-width="2" points="9,-5 9,-159 191,-159 191,-5 9,-5"/>
</a>
</g>
</g>
</g>
</svg>
