<?xml version="1.0" encoding="UTF-8" standalone="no"?>
<!DOCTYPE svg PUBLIC "-//W3C//DTD SVG 1.1//EN"
 "http://www.w3.org/Graphics/SVG/1.1/DTD/svg11.dtd">
<!-- Generated by graphviz version 2.40.1 (20161225.0304)
 -->
<!-- Title: users Pages: 1 -->
<svg width="266pt" height="436pt"
 viewBox="0.00 0.00 266.00 436.00" xmlns="http://www.w3.org/2000/svg" xmlns:xlink="http://www.w3.org/1999/xlink">
<g id="graph0" class="graph" transform="scale(1 1) rotate(0) translate(4 432)">
<title>users</title>
<polygon fill="#ffffff" stroke="transparent" points="-4,4 -4,-432 262,-432 262,4 -4,4"/>
<!-- users -->
<g id="node1" class="node">
<title>users</title>
<g id="a_node1"><a xlink:href="../../tables/users.html" xlink:title="users" target="_top">
<polygon fill="#ffffff" stroke="transparent" points="8,-4 8,-424 250,-424 250,-4 8,-4"/>
<polygon fill="#f5f5f5" stroke="transparent" points="10,-399 10,-422 248,-422 248,-399 10,-399"/>
<polygon fill="none" stroke="#000000" points="10,-399 10,-422 248,-422 248,-399 10,-399"/>
<text text-anchor="start" x="15" y="-408.1" font-family="Helvetica,sans-Serif" font-weight="bold" font-size="11.00" fill="#000000">users</text>
<text text-anchor="start" x="213.0437" y="-407.1" font-family="Helvetica,sans-Serif" font-size="11.00" fill="#000000">[table]</text>
<polygon fill="none" stroke="#000000" points="10,-377 10,-399 181,-399 181,-377 10,-377"/>
<image xlink:href="../../images/primaryKeys.png" width="11px" height="12px" preserveAspectRatio="xMinYMin meet" x="15" y="-394"/>
<text text-anchor="start" x="30" y="-384.1" font-family="Helvetica,sans-Serif" font-size="11.00" fill="#000000">id</text>
<polygon fill="none" stroke="#000000" points="181,-377 181,-399 248,-399 248,-377 181,-377"/>
<text text-anchor="start" x="184" y="-384.7" font-family="Helvetica,sans-Serif" font-size="11.00" fill="#000000">serial[10]</text>
<polygon fill="none" stroke="#000000" points="10,-355 10,-377 181,-377 181,-355 10,-355"/>
<text text-anchor="start" x="30" y="-362.1" font-family="Helvetica,sans-Serif" font-size="11.00" fill="#000000">ip_address</text>
<polygon fill="none" stroke="#000000" points="181,-355 181,-377 248,-377 248,-355 181,-355"/>
<text text-anchor="start" x="184" y="-362.7" font-family="Helvetica,sans-Serif" font-size="11.00" fill="#000000">varchar[45]</text>
<polygon fill="none" stroke="#000000" points="10,-333 10,-355 181,-355 181,-333 10,-333"/>
<text text-anchor="start" x="30" y="-340.1" font-family="Helvetica,sans-Serif" font-size="11.00" fill="#000000">username</text>
<polygon fill="none" stroke="#000000" points="181,-333 181,-355 248,-355 248,-333 181,-333"/>
<text text-anchor="start" x="183.9365" y="-340.7" font-family="Helvetica,sans-Serif" font-size="11.00" fill="#000000">varchar[100]</text>
<polygon fill="none" stroke="#000000" points="10,-311 10,-333 181,-333 181,-311 10,-311"/>
<text text-anchor="start" x="30" y="-318.1" font-family="Helvetica,sans-Serif" font-size="11.00" fill="#000000">password</text>
<polygon fill="none" stroke="#000000" points="181,-311 181,-333 248,-333 248,-311 181,-311"/>
<text text-anchor="start" x="183.9365" y="-318.7" font-family="Helvetica,sans-Serif" font-size="11.00" fill="#000000">varchar[255]</text>
<polygon fill="none" stroke="#000000" points="10,-289 10,-311 181,-311 181,-289 10,-289"/>
<text text-anchor="start" x="30" y="-296.1" font-family="Helvetica,sans-Serif" font-size="11.00" fill="#000000">salt</text>
<polygon fill="none" stroke="#000000" points="181,-289 181,-311 248,-311 248,-289 181,-289"/>
<text text-anchor="start" x="183.9365" y="-296.7" font-family="Helvetica,sans-Serif" font-size="11.00" fill="#000000">varchar[255]</text>
<polygon fill="none" stroke="#000000" points="10,-267 10,-289 181,-289 181,-267 10,-267"/>
<text text-anchor="start" x="30" y="-274.1" font-family="Helvetica,sans-Serif" font-size="11.00" fill="#000000">email</text>
<polygon fill="none" stroke="#000000" points="181,-267 181,-289 248,-289 248,-267 181,-267"/>
<text text-anchor="start" x="183.9365" y="-274.7" font-family="Helvetica,sans-Serif" font-size="11.00" fill="#000000">varchar[254]</text>
<polygon fill="none" stroke="#000000" points="10,-245 10,-267 181,-267 181,-245 10,-245"/>
<text text-anchor="start" x="30" y="-252.1" font-family="Helvetica,sans-Serif" font-size="11.00" fill="#000000">activation_code</text>
<polygon fill="none" stroke="#000000" points="181,-245 181,-267 248,-267 248,-245 181,-245"/>
<text text-anchor="start" x="184" y="-252.7" font-family="Helvetica,sans-Serif" font-size="11.00" fill="#000000">varchar[40]</text>
<polygon fill="none" stroke="#000000" points="10,-223 10,-245 181,-245 181,-223 10,-223"/>
<text text-anchor="start" x="30" y="-230.1" font-family="Helvetica,sans-Serif" font-size="11.00" fill="#000000">forgotten_password_code</text>
<polygon fill="none" stroke="#000000" points="181,-223 181,-245 248,-245 248,-223 181,-223"/>
<text text-anchor="start" x="184" y="-230.7" font-family="Helvetica,sans-Serif" font-size="11.00" fill="#000000">varchar[40]</text>
<polygon fill="none" stroke="#000000" points="10,-201 10,-223 181,-223 181,-201 10,-201"/>
<text text-anchor="start" x="30" y="-208.1" font-family="Helvetica,sans-Serif" font-size="11.00" fill="#000000">forgotten_password_time</text>
<polygon fill="none" stroke="#000000" points="181,-201 181,-223 248,-223 248,-201 181,-201"/>
<text text-anchor="start" x="184" y="-208.7" font-family="Helvetica,sans-Serif" font-size="11.00" fill="#000000">int4[10]</text>
<polygon fill="none" stroke="#000000" points="10,-179 10,-201 181,-201 181,-179 10,-179"/>
<text text-anchor="start" x="30" y="-186.1" font-family="Helvetica,sans-Serif" font-size="11.00" fill="#000000">remember_code</text>
<polygon fill="none" stroke="#000000" points="181,-179 181,-201 248,-201 248,-179 181,-179"/>
<text text-anchor="start" x="184" y="-186.7" font-family="Helvetica,sans-Serif" font-size="11.00" fill="#000000">varchar[40]</text>
<polygon fill="none" stroke="#000000" points="10,-157 10,-179 181,-179 181,-157 10,-157"/>
<text text-anchor="start" x="30" y="-164.1" font-family="Helvetica,sans-Serif" font-size="11.00" fill="#000000">created_on</text>
<polygon fill="none" stroke="#000000" points="181,-157 181,-179 248,-179 248,-157 181,-157"/>
<text text-anchor="start" x="184" y="-164.7" font-family="Helvetica,sans-Serif" font-size="11.00" fill="#000000">int4[10]</text>
<polygon fill="none" stroke="#000000" points="10,-135 10,-157 181,-157 181,-135 10,-135"/>
<text text-anchor="start" x="30" y="-142.1" font-family="Helvetica,sans-Serif" font-size="11.00" fill="#000000">last_login</text>
<polygon fill="none" stroke="#000000" points="181,-135 181,-157 248,-157 248,-135 181,-135"/>
<text text-anchor="start" x="184" y="-142.7" font-family="Helvetica,sans-Serif" font-size="11.00" fill="#000000">int4[10]</text>
<polygon fill="none" stroke="#000000" points="10,-113 10,-135 181,-135 181,-113 10,-113"/>
<text text-anchor="start" x="30" y="-120.1" font-family="Helvetica,sans-Serif" font-size="11.00" fill="#000000">active</text>
<polygon fill="none" stroke="#000000" points="181,-113 181,-135 248,-135 248,-113 181,-113"/>
<text text-anchor="start" x="184" y="-120.7" font-family="Helvetica,sans-Serif" font-size="11.00" fill="#000000">int4[10]</text>
<polygon fill="none" stroke="#000000" points="10,-91 10,-113 181,-113 181,-91 10,-91"/>
<text text-anchor="start" x="30" y="-98.1" font-family="Helvetica,sans-Serif" font-size="11.00" fill="#000000">first_name</text>
<polygon fill="none" stroke="#000000" points="181,-91 181,-113 248,-113 248,-91 181,-91"/>
<text text-anchor="start" x="184" y="-98.7" font-family="Helvetica,sans-Serif" font-size="11.00" fill="#000000">varchar[50]</text>
<polygon fill="none" stroke="#000000" points="10,-69 10,-91 181,-91 181,-69 10,-69"/>
<text text-anchor="start" x="30" y="-76.1" font-family="Helvetica,sans-Serif" font-size="11.00" fill="#000000">last_name</text>
<polygon fill="none" stroke="#000000" points="181,-69 181,-91 248,-91 248,-69 181,-69"/>
<text text-anchor="start" x="184" y="-76.7" font-family="Helvetica,sans-Serif" font-size="11.00" fill="#000000">varchar[50]</text>
<polygon fill="none" stroke="#000000" points="10,-47 10,-69 181,-69 181,-47 10,-47"/>
<text text-anchor="start" x="30" y="-54.1" font-family="Helvetica,sans-Serif" font-size="11.00" fill="#000000">company</text>
<polygon fill="none" stroke="#000000" points="181,-47 181,-69 248,-69 248,-47 181,-47"/>
<text text-anchor="start" x="183.9365" y="-54.7" font-family="Helvetica,sans-Serif" font-size="11.00" fill="#000000">varchar[100]</text>
<polygon fill="none" stroke="#000000" points="10,-25 10,-47 181,-47 181,-25 10,-25"/>
<text text-anchor="start" x="30" y="-32.1" font-family="Helvetica,sans-Serif" font-size="11.00" fill="#000000">phone</text>
<polygon fill="none" stroke="#000000" points="181,-25 181,-47 248,-47 248,-25 181,-25"/>
<text text-anchor="start" x="184" y="-32.7" font-family="Helvetica,sans-Serif" font-size="11.00" fill="#000000">varchar[20]</text>
<polygon fill="#ffffff" stroke="transparent" points="10,-6 10,-25 87,-25 87,-6 10,-6"/>
<polygon fill="none" stroke="#000000" points="10,-6 10,-25 87,-25 87,-6 10,-6"/>
<text text-anchor="start" x="13" y="-12.1" font-family="Helvetica,sans-Serif" font-size="11.00" fill="#000000">&lt; 0</text>
<polygon fill="#ffffff" stroke="transparent" points="87,-6 87,-25 181,-25 181,-6 87,-6"/>
<polygon fill="none" stroke="#000000" points="87,-6 87,-25 181,-25 181,-6 87,-6"/>
<text text-anchor="start" x="145.6105" y="-12.1" font-family="Helvetica,sans-Serif" font-size="11.00" fill="#000000">4 rows</text>
<polygon fill="#ffffff" stroke="transparent" points="181,-6 181,-25 248,-25 248,-6 181,-6"/>
<polygon fill="none" stroke="#000000" points="181,-6 181,-25 248,-25 248,-6 181,-6"/>
<text text-anchor="start" x="229.4053" y="-12.1" font-family="Helvetica,sans-Serif" font-size="11.00" fill="#000000">0 &gt;</text>
<polygon fill="none" stroke="#000000" stroke-width="2" points="9,-5 9,-423 249,-423 249,-5 9,-5"/>
</a>
</g>
</g>
</g>
</svg>
