<?xml version="1.0" encoding="UTF-8" standalone="no"?>
<!DOCTYPE svg PUBLIC "-//W3C//DTD SVG 1.1//EN"
 "http://www.w3.org/Graphics/SVG/1.1/DTD/svg11.dtd">
<!-- Generated by graphviz version 2.40.1 (20161225.0304)
 -->
<!-- Title: users_groups Pages: 1 -->
<svg width="178pt" height="128pt"
 viewBox="0.00 0.00 178.00 128.00" xmlns="http://www.w3.org/2000/svg" xmlns:xlink="http://www.w3.org/1999/xlink">
<g id="graph0" class="graph" transform="scale(1 1) rotate(0) translate(4 124)">
<title>users_groups</title>
<polygon fill="#ffffff" stroke="transparent" points="-4,4 -4,-124 174,-124 174,4 -4,4"/>
<!-- users_groups -->
<g id="node1" class="node">
<title>users_groups</title>
<g id="a_node1"><a xlink:href="../../tables/users_groups.html" xlink:title="users_groups" target="_top">
<polygon fill="#ffffff" stroke="transparent" points="8,-4 8,-116 162,-116 162,-4 8,-4"/>
<polygon fill="#f5f5f5" stroke="transparent" points="10,-91 10,-114 160,-114 160,-91 10,-91"/>
<polygon fill="none" stroke="#000000" points="10,-91 10,-114 160,-114 160,-91 10,-91"/>
<text text-anchor="start" x="15" y="-100.1" font-family="Helvetica,sans-Serif" font-weight="bold" font-size="11.00" fill="#000000">users_groups</text>
<text text-anchor="start" x="125.0437" y="-99.1" font-family="Helvetica,sans-Serif" font-size="11.00" fill="#000000">[table]</text>
<polygon fill="none" stroke="#000000" points="10,-69 10,-91 110,-91 110,-69 10,-69"/>
<image xlink:href="../../images/primaryKeys.png" width="11px" height="12px" preserveAspectRatio="xMinYMin meet" x="15" y="-86"/>
<text text-anchor="start" x="30" y="-76.1" font-family="Helvetica,sans-Serif" font-size="11.00" fill="#000000">id</text>
<polygon fill="none" stroke="#000000" points="110,-69 110,-91 160,-91 160,-69 110,-69"/>
<text text-anchor="start" x="112.6915" y="-76.7" font-family="Helvetica,sans-Serif" font-size="11.00" fill="#000000">serial[10]</text>
<polygon fill="#ffffff" stroke="transparent" points="10,-47 10,-69 110,-69 110,-47 10,-47"/>
<polygon fill="none" stroke="#000000" points="10,-47 10,-69 110,-69 110,-47 10,-47"/>
<text text-anchor="start" x="30" y="-54.1" font-family="Helvetica,sans-Serif" font-size="11.00" fill="#000000">user_id</text>
<polygon fill="none" stroke="#000000" points="110,-47 110,-69 160,-69 160,-47 110,-47"/>
<text text-anchor="start" x="113" y="-54.7" font-family="Helvetica,sans-Serif" font-size="11.00" fill="#000000">int4[10]</text>
<polygon fill="#ffffff" stroke="transparent" points="10,-25 10,-47 110,-47 110,-25 10,-25"/>
<polygon fill="none" stroke="#000000" points="10,-25 10,-47 110,-47 110,-25 10,-25"/>
<text text-anchor="start" x="30" y="-32.1" font-family="Helvetica,sans-Serif" font-size="11.00" fill="#000000">group_id</text>
<polygon fill="none" stroke="#000000" points="110,-25 110,-47 160,-47 160,-25 110,-25"/>
<text text-anchor="start" x="113" y="-32.7" font-family="Helvetica,sans-Serif" font-size="11.00" fill="#000000">int4[10]</text>
<polygon fill="#ffffff" stroke="transparent" points="10,-6 10,-25 48,-25 48,-6 10,-6"/>
<polygon fill="none" stroke="#000000" points="10,-6 10,-25 48,-25 48,-6 10,-6"/>
<text text-anchor="start" x="13" y="-12.1" font-family="Helvetica,sans-Serif" font-size="11.00" fill="#000000">&lt; 0</text>
<polygon fill="#ffffff" stroke="transparent" points="48,-6 48,-25 110,-25 110,-6 48,-6"/>
<polygon fill="none" stroke="#000000" points="48,-6 48,-25 110,-25 110,-6 48,-6"/>
<text text-anchor="start" x="68.4956" y="-12.1" font-family="Helvetica,sans-Serif" font-size="11.00" fill="#000000">11 rows</text>
<polygon fill="#ffffff" stroke="transparent" points="110,-6 110,-25 160,-25 160,-6 110,-6"/>
<polygon fill="none" stroke="#000000" points="110,-6 110,-25 160,-25 160,-6 110,-6"/>
<text text-anchor="start" x="141.4053" y="-12.1" font-family="Helvetica,sans-Serif" font-size="11.00" fill="#000000">0 &gt;</text>
<polygon fill="none" stroke="#000000" stroke-width="2" points="9,-5 9,-115 161,-115 161,-5 9,-5"/>
</a>
</g>
</g>
</g>
</svg>
