<?xml version="1.0" encoding="UTF-8" standalone="no"?>
<!DOCTYPE svg PUBLIC "-//W3C//DTD SVG 1.1//EN"
 "http://www.w3.org/Graphics/SVG/1.1/DTD/svg11.dtd">
<!-- Generated by graphviz version 2.40.1 (20161225.0304)
 -->
<!-- Title: oneDegreeRelationshipsDiagram Pages: 1 -->
<svg width="226pt" height="290pt"
 viewBox="0.00 0.00 225.77 290.20" xmlns="http://www.w3.org/2000/svg" xmlns:xlink="http://www.w3.org/1999/xlink">
<g id="graph0" class="graph" transform="scale(1 1) rotate(0) translate(4 286.2)">
<title>oneDegreeRelationshipsDiagram</title>
<polygon fill="#ffffff" stroke="transparent" points="-4,4 -4,-286.2 221.7668,-286.2 221.7668,4 -4,4"/>
<text text-anchor="middle" x="72.4936" y="-7.3" font-family="Helvetica,sans-Serif" font-size="11.00" fill="#000000">Generated by SchemaSpy</text>
<!-- echelle -->
<g id="node1" class="node">
<title>echelle</title>
<g id="a_node1"><a xlink:href="../../tables/echelle.html" xlink:title="echelle" target="_top">
<polygon fill="#ffffff" stroke="transparent" points="26.0442,-38.2 26.0442,-260.2 192.0442,-260.2 192.0442,-38.2 26.0442,-38.2"/>
<polygon fill="#f5f5f5" stroke="transparent" points="28.0442,-235.2 28.0442,-258.2 190.0442,-258.2 190.0442,-235.2 28.0442,-235.2"/>
<polygon fill="none" stroke="#000000" points="28.0442,-235.2 28.0442,-258.2 190.0442,-258.2 190.0442,-235.2 28.0442,-235.2"/>
<text text-anchor="start" x="33.0442" y="-244.3" font-family="Helvetica,sans-Serif" font-weight="bold" font-size="11.00" fill="#000000">echelle</text>
<text text-anchor="start" x="155.0879" y="-243.3" font-family="Helvetica,sans-Serif" font-size="11.00" fill="#000000">[table]</text>
<polygon fill="none" stroke="#000000" points="28.0442,-213.2 28.0442,-235.2 103.0442,-235.2 103.0442,-213.2 28.0442,-213.2"/>
<image xlink:href="../../images/primaryKeys.png" width="11px" height="12px" preserveAspectRatio="xMinYMin meet" x="33.0442" y="-230.2"/>
<text text-anchor="start" x="48.0442" y="-220.3" font-family="Helvetica,sans-Serif" font-size="11.00" fill="#000000">id</text>
<polygon fill="none" stroke="#000000" points="103.0442,-213.2 103.0442,-235.2 190.0442,-235.2 190.0442,-213.2 103.0442,-213.2"/>
<text text-anchor="start" x="106.0442" y="-220.9" font-family="Helvetica,sans-Serif" font-size="11.00" fill="#000000">serial[10]</text>
<polygon fill="#ffffff" stroke="transparent" points="28.0442,-191.2 28.0442,-213.2 103.0442,-213.2 103.0442,-191.2 28.0442,-191.2"/>
<polygon fill="none" stroke="#000000" points="28.0442,-191.2 28.0442,-213.2 103.0442,-213.2 103.0442,-191.2 28.0442,-191.2"/>
<text text-anchor="start" x="48.0442" y="-198.3" font-family="Helvetica,sans-Serif" font-size="11.00" fill="#000000">label</text>
<polygon fill="none" stroke="#000000" points="103.0442,-191.2 103.0442,-213.2 190.0442,-213.2 190.0442,-191.2 103.0442,-191.2"/>
<text text-anchor="start" x="106.0442" y="-198.9" font-family="Helvetica,sans-Serif" font-size="11.00" fill="#000000">varchar[50]</text>
<polygon fill="none" stroke="#000000" points="28.0442,-169.2 28.0442,-191.2 103.0442,-191.2 103.0442,-169.2 28.0442,-169.2"/>
<text text-anchor="start" x="48.0442" y="-176.3" font-family="Helvetica,sans-Serif" font-size="11.00" fill="#000000">parent</text>
<polygon fill="none" stroke="#000000" points="103.0442,-169.2 103.0442,-191.2 190.0442,-191.2 190.0442,-169.2 103.0442,-169.2"/>
<text text-anchor="start" x="106.0442" y="-176.9" font-family="Helvetica,sans-Serif" font-size="11.00" fill="#000000">varchar[50]</text>
<polygon fill="#ffffff" stroke="transparent" points="28.0442,-147.2 28.0442,-169.2 103.0442,-169.2 103.0442,-147.2 28.0442,-147.2"/>
<polygon fill="none" stroke="#000000" points="28.0442,-147.2 28.0442,-169.2 103.0442,-169.2 103.0442,-147.2 28.0442,-147.2"/>
<image xlink:href="../../images/foreignKeys.png" width="11px" height="12px" preserveAspectRatio="xMinYMin meet" x="33.0442" y="-164.2"/>
<text text-anchor="start" x="48.0442" y="-154.3" font-family="Helvetica,sans-Serif" font-size="11.00" fill="#000000">parent_id</text>
<polygon fill="none" stroke="#000000" points="103.0442,-147.2 103.0442,-169.2 190.0442,-169.2 190.0442,-147.2 103.0442,-147.2"/>
<text text-anchor="start" x="106.0442" y="-154.9" font-family="Helvetica,sans-Serif" font-size="11.00" fill="#000000">int4[10]</text>
<polygon fill="none" stroke="#000000" points="28.0442,-125.2 28.0442,-147.2 103.0442,-147.2 103.0442,-125.2 28.0442,-125.2"/>
<text text-anchor="start" x="48.0442" y="-132.3" font-family="Helvetica,sans-Serif" font-size="11.00" fill="#000000">age_deb</text>
<polygon fill="none" stroke="#000000" points="103.0442,-125.2 103.0442,-147.2 190.0442,-147.2 190.0442,-125.2 103.0442,-125.2"/>
<text text-anchor="start" x="105.5879" y="-132.9" font-family="Helvetica,sans-Serif" font-size="11.00" fill="#000000">numeric[131089]</text>
<polygon fill="none" stroke="#000000" points="28.0442,-103.2 28.0442,-125.2 103.0442,-125.2 103.0442,-103.2 28.0442,-103.2"/>
<text text-anchor="start" x="48.0442" y="-110.3" font-family="Helvetica,sans-Serif" font-size="11.00" fill="#000000">age_fin</text>
<polygon fill="none" stroke="#000000" points="103.0442,-103.2 103.0442,-125.2 190.0442,-125.2 190.0442,-103.2 103.0442,-103.2"/>
<text text-anchor="start" x="105.5879" y="-110.9" font-family="Helvetica,sans-Serif" font-size="11.00" fill="#000000">numeric[131089]</text>
<polygon fill="none" stroke="#000000" points="28.0442,-81.2 28.0442,-103.2 103.0442,-103.2 103.0442,-81.2 28.0442,-81.2"/>
<text text-anchor="start" x="48.0442" y="-88.3" font-family="Helvetica,sans-Serif" font-size="11.00" fill="#000000">pix_min</text>
<polygon fill="none" stroke="#000000" points="103.0442,-81.2 103.0442,-103.2 190.0442,-103.2 190.0442,-81.2 103.0442,-81.2"/>
<text text-anchor="start" x="106.0442" y="-88.9" font-family="Helvetica,sans-Serif" font-size="11.00" fill="#000000">int4[10]</text>
<polygon fill="none" stroke="#000000" points="28.0442,-59.2 28.0442,-81.2 103.0442,-81.2 103.0442,-59.2 28.0442,-59.2"/>
<text text-anchor="start" x="48.0442" y="-66.3" font-family="Helvetica,sans-Serif" font-size="11.00" fill="#000000">pix_max</text>
<polygon fill="none" stroke="#000000" points="103.0442,-59.2 103.0442,-81.2 190.0442,-81.2 190.0442,-59.2 103.0442,-59.2"/>
<text text-anchor="start" x="106.0442" y="-66.9" font-family="Helvetica,sans-Serif" font-size="11.00" fill="#000000">int4[10]</text>
<polygon fill="#ffffff" stroke="transparent" points="28.0442,-40.2 28.0442,-59.2 51.0442,-59.2 51.0442,-40.2 28.0442,-40.2"/>
<polygon fill="none" stroke="#000000" points="28.0442,-40.2 28.0442,-59.2 51.0442,-59.2 51.0442,-40.2 28.0442,-40.2"/>
<text text-anchor="start" x="31.0442" y="-46.3" font-family="Helvetica,sans-Serif" font-size="11.00" fill="#000000">&lt; 1</text>
<polygon fill="#ffffff" stroke="transparent" points="51.0442,-40.2 51.0442,-59.2 103.0442,-59.2 103.0442,-40.2 51.0442,-40.2"/>
<polygon fill="none" stroke="#000000" points="51.0442,-40.2 51.0442,-59.2 103.0442,-59.2 103.0442,-40.2 51.0442,-40.2"/>
<text text-anchor="start" x="55.4249" y="-46.3" font-family="Helvetica,sans-Serif" font-size="11.00" fill="#000000">304 rows</text>
<polygon fill="#ffffff" stroke="transparent" points="103.0442,-40.2 103.0442,-59.2 190.0442,-59.2 190.0442,-40.2 103.0442,-40.2"/>
<polygon fill="none" stroke="#000000" points="103.0442,-40.2 103.0442,-59.2 190.0442,-59.2 190.0442,-40.2 103.0442,-40.2"/>
<text text-anchor="start" x="171.4495" y="-46.3" font-family="Helvetica,sans-Serif" font-size="11.00" fill="#000000">1 &gt;</text>
<polygon fill="none" stroke="#000000" stroke-width="2" points="27.0442,-39.2 27.0442,-259.2 191.0442,-259.2 191.0442,-39.2 27.0442,-39.2"/>
</a>
</g>
</g>
<!-- echelle&#45;&gt;echelle -->
<g id="edge1" class="edge">
<title>echelle:w&#45;&gt;echelle:e</title>
<path fill="none" stroke="#000000" d="M18.2519,-168.764C-16.6837,-212.3278 -7.573,-277.2 109.0442,-277.2 235.5442,-277.2 235.5442,-266.8667 190.0442,-224.2"/>
<polygon fill="#000000" stroke="#000000" points="22.6057,-164.0671 30.6844,-160.6473 25.3249,-161.1336 28.0442,-158.2 28.0442,-158.2 28.0442,-158.2 25.3249,-161.1336 25.404,-155.7527 22.6057,-164.0671 22.6057,-164.0671"/>
<ellipse fill="none" stroke="#000000" cx="20.4303" cy="-166.4139" rx="3.2" ry="3.2"/>
</g>
</g>
</svg>
