<?xml version="1.0" encoding="UTF-8" standalone="no"?>
<!DOCTYPE svg PUBLIC "-//W3C//DTD SVG 1.1//EN"
 "http://www.w3.org/Graphics/SVG/1.1/DTD/svg11.dtd">
<!-- Generated by graphviz version 2.40.1 (20161225.0304)
 -->
<!-- Title: oneDegreeRelationshipsDiagram Pages: 1 -->
<svg width="474pt" height="800pt"
 viewBox="0.00 0.00 474.00 800.20" xmlns="http://www.w3.org/2000/svg" xmlns:xlink="http://www.w3.org/1999/xlink">
<g id="graph0" class="graph" transform="scale(1 1) rotate(0) translate(4 796.2)">
<title>oneDegreeRelationshipsDiagram</title>
<polygon fill="#ffffff" stroke="transparent" points="-4,4 -4,-796.2 470,-796.2 470,4 -4,4"/>
<text text-anchor="middle" x="72.4936" y="-7.3" font-family="Helvetica,sans-Serif" font-size="11.00" fill="#000000">Generated by SchemaSpy</text>
<!-- public.entite_geol -->
<g id="node1" class="node">
<title>public.entite_geol</title>
<g id="a_node1"><a xlink:href="../../../public/tables/entite_geol.html" xlink:title="public.entite_geol" target="_top">
<polygon fill="#ffffff" stroke="transparent" points="285,-703.7 285,-786.7 458,-786.7 458,-703.7 285,-703.7"/>
<polygon fill="#f5f5f5" stroke="transparent" points="285.5,-763.2 285.5,-786.2 458.5,-786.2 458.5,-763.2 285.5,-763.2"/>
<polygon fill="none" stroke="#000000" points="285.5,-763.2 285.5,-786.2 458.5,-786.2 458.5,-763.2 285.5,-763.2"/>
<text text-anchor="start" x="290.5" y="-772.3" font-family="Helvetica,sans-Serif" font-weight="bold" font-size="11.00" fill="#000000">public.entite_geol</text>
<text text-anchor="start" x="423.5437" y="-771.3" font-family="Helvetica,sans-Serif" font-size="11.00" fill="#000000">[table]</text>
<polygon fill="none" stroke="#000000" points="285.5,-741.2 285.5,-763.2 458.5,-763.2 458.5,-741.2 285.5,-741.2"/>
<image xlink:href="../../images/foreignKeys.png" width="11px" height="12px" preserveAspectRatio="xMinYMin meet" x="290.5" y="-758.2"/>
<text text-anchor="start" x="305.5" y="-748.3" font-family="Helvetica,sans-Serif" font-size="11.00" fill="#000000">s_fgeol_id</text>
<polygon fill="none" stroke="#000000" points="285.5,-722.2 285.5,-741.2 458.5,-741.2 458.5,-722.2 285.5,-722.2"/>
<text text-anchor="start" x="288.5" y="-728.3" font-family="Helvetica,sans-Serif" font-size="11.00" fill="#000000">...</text>
<polygon fill="#ffffff" stroke="transparent" points="285.5,-703.2 285.5,-722.2 357.5,-722.2 357.5,-703.2 285.5,-703.2"/>
<polygon fill="none" stroke="#000000" points="285.5,-703.2 285.5,-722.2 357.5,-722.2 357.5,-703.2 285.5,-703.2"/>
<text text-anchor="start" x="288.5" y="-709.3" font-family="Helvetica,sans-Serif" font-size="11.00" fill="#000000">&lt; 1</text>
<polygon fill="#ffffff" stroke="transparent" points="357.5,-703.2 357.5,-722.2 420.5,-722.2 420.5,-703.2 357.5,-703.2"/>
<polygon fill="none" stroke="#000000" points="357.5,-703.2 357.5,-722.2 420.5,-722.2 420.5,-703.2 357.5,-703.2"/>
<text text-anchor="start" x="385.1105" y="-709.3" font-family="Helvetica,sans-Serif" font-size="11.00" fill="#000000">0 rows</text>
<polygon fill="#ffffff" stroke="transparent" points="420.5,-703.2 420.5,-722.2 458.5,-722.2 458.5,-703.2 420.5,-703.2"/>
<polygon fill="none" stroke="#000000" points="420.5,-703.2 420.5,-722.2 458.5,-722.2 458.5,-703.2 420.5,-703.2"/>
<text text-anchor="start" x="449.3862" y="-709.3" font-family="Helvetica,sans-Serif" font-size="11.00" fill="#000000"> &#160;</text>
</a>
</g>
</g>
<!-- s_fgeol -->
<g id="node2" class="node">
<title>s_fgeol</title>
<g id="a_node2"><a xlink:href="../../tables/s_fgeol.html" xlink:title="s_fgeol" target="_top">
<polygon fill="#ffffff" stroke="transparent" points="8,-38.2 8,-788.2 236,-788.2 236,-38.2 8,-38.2"/>
<polygon fill="#f5f5f5" stroke="transparent" points="10,-763.2 10,-786.2 234,-786.2 234,-763.2 10,-763.2"/>
<polygon fill="none" stroke="#000000" points="10,-763.2 10,-786.2 234,-786.2 234,-763.2 10,-763.2"/>
<text text-anchor="start" x="15" y="-772.3" font-family="Helvetica,sans-Serif" font-weight="bold" font-size="11.00" fill="#000000">s_fgeol</text>
<text text-anchor="start" x="199.0437" y="-771.3" font-family="Helvetica,sans-Serif" font-size="11.00" fill="#000000">[table]</text>
<polygon fill="none" stroke="#000000" points="10,-741.2 10,-763.2 115,-763.2 115,-741.2 10,-741.2"/>
<image xlink:href="../../images/primaryKeys.png" width="11px" height="12px" preserveAspectRatio="xMinYMin meet" x="15" y="-758.2"/>
<text text-anchor="start" x="30" y="-748.3" font-family="Helvetica,sans-Serif" font-size="11.00" fill="#000000">ogc_fid</text>
<polygon fill="none" stroke="#000000" points="115,-741.2 115,-763.2 234,-763.2 234,-741.2 115,-741.2"/>
<text text-anchor="start" x="118" y="-748.9" font-family="Helvetica,sans-Serif" font-size="11.00" fill="#000000">serial[10]</text>
<polygon fill="none" stroke="#000000" points="10,-719.2 10,-741.2 115,-741.2 115,-719.2 10,-719.2"/>
<text text-anchor="start" x="30" y="-726.3" font-family="Helvetica,sans-Serif" font-size="11.00" fill="#000000">mi_prinx</text>
<polygon fill="none" stroke="#000000" points="115,-719.2 115,-741.2 234,-741.2 234,-719.2 115,-719.2"/>
<text text-anchor="start" x="118" y="-726.9" font-family="Helvetica,sans-Serif" font-size="11.00" fill="#000000">int4[10]</text>
<polygon fill="none" stroke="#000000" points="10,-697.2 10,-719.2 115,-719.2 115,-697.2 10,-697.2"/>
<text text-anchor="start" x="30" y="-704.3" font-family="Helvetica,sans-Serif" font-size="11.00" fill="#000000">code</text>
<polygon fill="none" stroke="#000000" points="115,-697.2 115,-719.2 234,-719.2 234,-697.2 115,-697.2"/>
<text text-anchor="start" x="118" y="-704.9" font-family="Helvetica,sans-Serif" font-size="11.00" fill="#000000">int4[10]</text>
<polygon fill="none" stroke="#000000" points="10,-675.2 10,-697.2 115,-697.2 115,-675.2 10,-675.2"/>
<text text-anchor="start" x="30" y="-682.3" font-family="Helvetica,sans-Serif" font-size="11.00" fill="#000000">code_leg</text>
<polygon fill="none" stroke="#000000" points="115,-675.2 115,-697.2 234,-697.2 234,-675.2 115,-675.2"/>
<text text-anchor="start" x="118" y="-682.9" font-family="Helvetica,sans-Serif" font-size="11.00" fill="#000000">int4[10]</text>
<polygon fill="none" stroke="#000000" points="10,-653.2 10,-675.2 115,-675.2 115,-653.2 10,-653.2"/>
<text text-anchor="start" x="30" y="-660.3" font-family="Helvetica,sans-Serif" font-size="11.00" fill="#000000">notation</text>
<polygon fill="none" stroke="#000000" points="115,-653.2 115,-675.2 234,-675.2 234,-653.2 115,-653.2"/>
<text text-anchor="start" x="118" y="-660.9" font-family="Helvetica,sans-Serif" font-size="11.00" fill="#000000">varchar[50]</text>
<polygon fill="none" stroke="#000000" points="10,-631.2 10,-653.2 115,-653.2 115,-631.2 10,-631.2"/>
<text text-anchor="start" x="30" y="-638.3" font-family="Helvetica,sans-Serif" font-size="11.00" fill="#000000">descr</text>
<polygon fill="none" stroke="#000000" points="115,-631.2 115,-653.2 234,-653.2 234,-631.2 115,-631.2"/>
<text text-anchor="start" x="118" y="-638.9" font-family="Helvetica,sans-Serif" font-size="11.00" fill="#000000">varchar[254]</text>
<polygon fill="none" stroke="#000000" points="10,-609.2 10,-631.2 115,-631.2 115,-609.2 10,-609.2"/>
<text text-anchor="start" x="30" y="-616.3" font-family="Helvetica,sans-Serif" font-size="11.00" fill="#000000">type_geol</text>
<polygon fill="none" stroke="#000000" points="115,-609.2 115,-631.2 234,-631.2 234,-609.2 115,-609.2"/>
<text text-anchor="start" x="118" y="-616.9" font-family="Helvetica,sans-Serif" font-size="11.00" fill="#000000">varchar[254]</text>
<polygon fill="none" stroke="#000000" points="10,-587.2 10,-609.2 115,-609.2 115,-587.2 10,-587.2"/>
<text text-anchor="start" x="30" y="-594.3" font-family="Helvetica,sans-Serif" font-size="11.00" fill="#000000">ap_locale</text>
<polygon fill="none" stroke="#000000" points="115,-587.2 115,-609.2 234,-609.2 234,-587.2 115,-587.2"/>
<text text-anchor="start" x="118" y="-594.9" font-family="Helvetica,sans-Serif" font-size="11.00" fill="#000000">varchar[254]</text>
<polygon fill="none" stroke="#000000" points="10,-565.2 10,-587.2 115,-587.2 115,-565.2 10,-565.2"/>
<text text-anchor="start" x="30" y="-572.3" font-family="Helvetica,sans-Serif" font-size="11.00" fill="#000000">type_ap</text>
<polygon fill="none" stroke="#000000" points="115,-565.2 115,-587.2 234,-587.2 234,-565.2 115,-565.2"/>
<text text-anchor="start" x="118" y="-572.9" font-family="Helvetica,sans-Serif" font-size="11.00" fill="#000000">varchar[254]</text>
<polygon fill="none" stroke="#000000" points="10,-543.2 10,-565.2 115,-565.2 115,-543.2 10,-543.2"/>
<text text-anchor="start" x="30" y="-550.3" font-family="Helvetica,sans-Serif" font-size="11.00" fill="#000000">geol_nat</text>
<polygon fill="none" stroke="#000000" points="115,-543.2 115,-565.2 234,-565.2 234,-543.2 115,-543.2"/>
<text text-anchor="start" x="118" y="-550.9" font-family="Helvetica,sans-Serif" font-size="11.00" fill="#000000">varchar[254]</text>
<polygon fill="none" stroke="#000000" points="10,-521.2 10,-543.2 115,-543.2 115,-521.2 10,-521.2"/>
<text text-anchor="start" x="30" y="-528.3" font-family="Helvetica,sans-Serif" font-size="11.00" fill="#000000">isopique</text>
<polygon fill="none" stroke="#000000" points="115,-521.2 115,-543.2 234,-543.2 234,-521.2 115,-521.2"/>
<text text-anchor="start" x="118" y="-528.9" font-family="Helvetica,sans-Serif" font-size="11.00" fill="#000000">varchar[254]</text>
<polygon fill="none" stroke="#000000" points="10,-499.2 10,-521.2 115,-521.2 115,-499.2 10,-499.2"/>
<text text-anchor="start" x="30" y="-506.3" font-family="Helvetica,sans-Serif" font-size="11.00" fill="#000000">lithotec</text>
<polygon fill="none" stroke="#000000" points="115,-499.2 115,-521.2 234,-521.2 234,-499.2 115,-499.2"/>
<text text-anchor="start" x="118" y="-506.9" font-family="Helvetica,sans-Serif" font-size="11.00" fill="#000000">varchar[254]</text>
<polygon fill="none" stroke="#000000" points="10,-477.2 10,-499.2 115,-499.2 115,-477.2 10,-477.2"/>
<text text-anchor="start" x="30" y="-484.3" font-family="Helvetica,sans-Serif" font-size="11.00" fill="#000000">emerge</text>
<polygon fill="none" stroke="#000000" points="115,-477.2 115,-499.2 234,-499.2 234,-477.2 115,-477.2"/>
<text text-anchor="start" x="118" y="-484.9" font-family="Helvetica,sans-Serif" font-size="11.00" fill="#000000">varchar[4]</text>
<polygon fill="none" stroke="#000000" points="10,-455.2 10,-477.2 115,-477.2 115,-455.2 10,-455.2"/>
<text text-anchor="start" x="30" y="-462.3" font-family="Helvetica,sans-Serif" font-size="11.00" fill="#000000">sys_deb</text>
<polygon fill="none" stroke="#000000" points="115,-455.2 115,-477.2 234,-477.2 234,-455.2 115,-455.2"/>
<text text-anchor="start" x="118" y="-462.9" font-family="Helvetica,sans-Serif" font-size="11.00" fill="#000000">varchar[50]</text>
<polygon fill="none" stroke="#000000" points="10,-433.2 10,-455.2 115,-455.2 115,-433.2 10,-433.2"/>
<text text-anchor="start" x="30" y="-440.3" font-family="Helvetica,sans-Serif" font-size="11.00" fill="#000000">sys_fin</text>
<polygon fill="none" stroke="#000000" points="115,-433.2 115,-455.2 234,-455.2 234,-433.2 115,-433.2"/>
<text text-anchor="start" x="118" y="-440.9" font-family="Helvetica,sans-Serif" font-size="11.00" fill="#000000">varchar[50]</text>
<polygon fill="none" stroke="#000000" points="10,-411.2 10,-433.2 115,-433.2 115,-411.2 10,-411.2"/>
<text text-anchor="start" x="30" y="-418.3" font-family="Helvetica,sans-Serif" font-size="11.00" fill="#000000">age_min</text>
<polygon fill="none" stroke="#000000" points="115,-411.2 115,-433.2 234,-433.2 234,-411.2 115,-411.2"/>
<text text-anchor="start" x="118" y="-418.9" font-family="Helvetica,sans-Serif" font-size="11.00" fill="#000000">numeric[6,2]</text>
<polygon fill="none" stroke="#000000" points="10,-389.2 10,-411.2 115,-411.2 115,-389.2 10,-389.2"/>
<text text-anchor="start" x="30" y="-396.3" font-family="Helvetica,sans-Serif" font-size="11.00" fill="#000000">age_max</text>
<polygon fill="none" stroke="#000000" points="115,-389.2 115,-411.2 234,-411.2 234,-389.2 115,-389.2"/>
<text text-anchor="start" x="118" y="-396.9" font-family="Helvetica,sans-Serif" font-size="11.00" fill="#000000">numeric[6,2]</text>
<polygon fill="none" stroke="#000000" points="10,-367.2 10,-389.2 115,-389.2 115,-367.2 10,-367.2"/>
<text text-anchor="start" x="30" y="-374.3" font-family="Helvetica,sans-Serif" font-size="11.00" fill="#000000">age_absolu</text>
<polygon fill="none" stroke="#000000" points="115,-367.2 115,-389.2 234,-389.2 234,-367.2 115,-367.2"/>
<text text-anchor="start" x="118" y="-374.9" font-family="Helvetica,sans-Serif" font-size="11.00" fill="#000000">numeric[6,2]</text>
<polygon fill="none" stroke="#000000" points="10,-345.2 10,-367.2 115,-367.2 115,-345.2 10,-345.2"/>
<text text-anchor="start" x="30" y="-352.3" font-family="Helvetica,sans-Serif" font-size="11.00" fill="#000000">toler_age</text>
<polygon fill="none" stroke="#000000" points="115,-345.2 115,-367.2 234,-367.2 234,-345.2 115,-345.2"/>
<text text-anchor="start" x="118" y="-352.9" font-family="Helvetica,sans-Serif" font-size="11.00" fill="#000000">numeric[5,2]</text>
<polygon fill="none" stroke="#000000" points="10,-323.2 10,-345.2 115,-345.2 115,-323.2 10,-323.2"/>
<text text-anchor="start" x="30" y="-330.3" font-family="Helvetica,sans-Serif" font-size="11.00" fill="#000000">tech_dat</text>
<polygon fill="none" stroke="#000000" points="115,-323.2 115,-345.2 234,-345.2 234,-323.2 115,-323.2"/>
<text text-anchor="start" x="118" y="-330.9" font-family="Helvetica,sans-Serif" font-size="11.00" fill="#000000">varchar[254]</text>
<polygon fill="none" stroke="#000000" points="10,-301.2 10,-323.2 115,-323.2 115,-301.2 10,-301.2"/>
<text text-anchor="start" x="30" y="-308.3" font-family="Helvetica,sans-Serif" font-size="11.00" fill="#000000">cat_dat</text>
<polygon fill="none" stroke="#000000" points="115,-301.2 115,-323.2 234,-323.2 234,-301.2 115,-301.2"/>
<text text-anchor="start" x="118" y="-308.9" font-family="Helvetica,sans-Serif" font-size="11.00" fill="#000000">varchar[254]</text>
<polygon fill="none" stroke="#000000" points="10,-279.2 10,-301.2 115,-301.2 115,-279.2 10,-279.2"/>
<text text-anchor="start" x="30" y="-286.3" font-family="Helvetica,sans-Serif" font-size="11.00" fill="#000000">age_com</text>
<polygon fill="none" stroke="#000000" points="115,-279.2 115,-301.2 234,-301.2 234,-279.2 115,-279.2"/>
<text text-anchor="start" x="118" y="-286.9" font-family="Helvetica,sans-Serif" font-size="11.00" fill="#000000">varchar[254]</text>
<polygon fill="none" stroke="#000000" points="10,-257.2 10,-279.2 115,-279.2 115,-257.2 10,-257.2"/>
<text text-anchor="start" x="30" y="-264.3" font-family="Helvetica,sans-Serif" font-size="11.00" fill="#000000">lithologie</text>
<polygon fill="none" stroke="#000000" points="115,-257.2 115,-279.2 234,-279.2 234,-257.2 115,-257.2"/>
<text text-anchor="start" x="118" y="-264.9" font-family="Helvetica,sans-Serif" font-size="11.00" fill="#000000">varchar[254]</text>
<polygon fill="none" stroke="#000000" points="10,-235.2 10,-257.2 115,-257.2 115,-235.2 10,-235.2"/>
<text text-anchor="start" x="30" y="-242.3" font-family="Helvetica,sans-Serif" font-size="11.00" fill="#000000">durete</text>
<polygon fill="none" stroke="#000000" points="115,-235.2 115,-257.2 234,-257.2 234,-235.2 115,-235.2"/>
<text text-anchor="start" x="118" y="-242.9" font-family="Helvetica,sans-Serif" font-size="11.00" fill="#000000">varchar[254]</text>
<polygon fill="none" stroke="#000000" points="10,-213.2 10,-235.2 115,-235.2 115,-213.2 10,-213.2"/>
<text text-anchor="start" x="30" y="-220.3" font-family="Helvetica,sans-Serif" font-size="11.00" fill="#000000">epaisseur</text>
<polygon fill="none" stroke="#000000" points="115,-213.2 115,-235.2 234,-235.2 234,-213.2 115,-213.2"/>
<text text-anchor="start" x="118" y="-220.9" font-family="Helvetica,sans-Serif" font-size="11.00" fill="#000000">varchar[254]</text>
<polygon fill="none" stroke="#000000" points="10,-191.2 10,-213.2 115,-213.2 115,-191.2 10,-191.2"/>
<text text-anchor="start" x="30" y="-198.3" font-family="Helvetica,sans-Serif" font-size="11.00" fill="#000000">environmt</text>
<polygon fill="none" stroke="#000000" points="115,-191.2 115,-213.2 234,-213.2 234,-191.2 115,-191.2"/>
<text text-anchor="start" x="118" y="-198.9" font-family="Helvetica,sans-Serif" font-size="11.00" fill="#000000">varchar[254]</text>
<polygon fill="none" stroke="#000000" points="10,-169.2 10,-191.2 115,-191.2 115,-169.2 10,-169.2"/>
<text text-anchor="start" x="30" y="-176.3" font-family="Helvetica,sans-Serif" font-size="11.00" fill="#000000">c_geodyn</text>
<polygon fill="none" stroke="#000000" points="115,-169.2 115,-191.2 234,-191.2 234,-169.2 115,-169.2"/>
<text text-anchor="start" x="118" y="-176.9" font-family="Helvetica,sans-Serif" font-size="11.00" fill="#000000">varchar[254]</text>
<polygon fill="none" stroke="#000000" points="10,-147.2 10,-169.2 115,-169.2 115,-147.2 10,-147.2"/>
<text text-anchor="start" x="30" y="-154.3" font-family="Helvetica,sans-Serif" font-size="11.00" fill="#000000">geochimie</text>
<polygon fill="none" stroke="#000000" points="115,-147.2 115,-169.2 234,-169.2 234,-147.2 115,-147.2"/>
<text text-anchor="start" x="118" y="-154.9" font-family="Helvetica,sans-Serif" font-size="11.00" fill="#000000">varchar[254]</text>
<polygon fill="none" stroke="#000000" points="10,-125.2 10,-147.2 115,-147.2 115,-125.2 10,-125.2"/>
<text text-anchor="start" x="30" y="-132.3" font-family="Helvetica,sans-Serif" font-size="11.00" fill="#000000">litho_com</text>
<polygon fill="none" stroke="#000000" points="115,-125.2 115,-147.2 234,-147.2 234,-125.2 115,-125.2"/>
<text text-anchor="start" x="118" y="-132.9" font-family="Helvetica,sans-Serif" font-size="11.00" fill="#000000">varchar[254]</text>
<polygon fill="#ffffff" stroke="transparent" points="10,-103.2 10,-125.2 115,-125.2 115,-103.2 10,-103.2"/>
<polygon fill="none" stroke="#000000" points="10,-103.2 10,-125.2 115,-125.2 115,-103.2 10,-103.2"/>
<text text-anchor="start" x="30" y="-110.3" font-family="Helvetica,sans-Serif" font-size="11.00" fill="#000000">wkb_geometry</text>
<polygon fill="none" stroke="#000000" points="115,-103.2 115,-125.2 234,-125.2 234,-103.2 115,-103.2"/>
<text text-anchor="start" x="117.9485" y="-110.9" font-family="Helvetica,sans-Serif" font-size="11.00" fill="#000000">geometry[2147483647]</text>
<polygon fill="none" stroke="#000000" points="10,-81.2 10,-103.2 115,-103.2 115,-81.2 10,-81.2"/>
<text text-anchor="start" x="30" y="-88.3" font-family="Helvetica,sans-Serif" font-size="11.00" fill="#000000">age_deb_id</text>
<polygon fill="none" stroke="#000000" points="115,-81.2 115,-103.2 234,-103.2 234,-81.2 115,-81.2"/>
<text text-anchor="start" x="118" y="-88.9" font-family="Helvetica,sans-Serif" font-size="11.00" fill="#000000">int4[10]</text>
<polygon fill="none" stroke="#000000" points="10,-59.2 10,-81.2 115,-81.2 115,-59.2 10,-59.2"/>
<text text-anchor="start" x="30" y="-66.3" font-family="Helvetica,sans-Serif" font-size="11.00" fill="#000000">age_fin_id</text>
<polygon fill="none" stroke="#000000" points="115,-59.2 115,-81.2 234,-81.2 234,-59.2 115,-59.2"/>
<text text-anchor="start" x="118" y="-66.9" font-family="Helvetica,sans-Serif" font-size="11.00" fill="#000000">int4[10]</text>
<polygon fill="#ffffff" stroke="transparent" points="10,-40.2 10,-59.2 35,-59.2 35,-40.2 10,-40.2"/>
<polygon fill="none" stroke="#000000" points="10,-40.2 10,-59.2 35,-59.2 35,-40.2 10,-40.2"/>
<text text-anchor="start" x="13" y="-46.3" font-family="Helvetica,sans-Serif" font-size="11.00" fill="#000000">&lt; 0</text>
<polygon fill="#ffffff" stroke="transparent" points="35,-40.2 35,-59.2 115,-59.2 115,-40.2 35,-40.2"/>
<polygon fill="none" stroke="#000000" points="35,-40.2 35,-59.2 115,-59.2 115,-40.2 35,-40.2"/>
<text text-anchor="start" x="42.3172" y="-46.3" font-family="Helvetica,sans-Serif" font-size="11.00" fill="#000000">993 840 rows</text>
<polygon fill="#ffffff" stroke="transparent" points="115,-40.2 115,-59.2 234,-59.2 234,-40.2 115,-40.2"/>
<polygon fill="none" stroke="#000000" points="115,-40.2 115,-59.2 234,-59.2 234,-40.2 115,-40.2"/>
<text text-anchor="start" x="215.4053" y="-46.3" font-family="Helvetica,sans-Serif" font-size="11.00" fill="#000000">1 &gt;</text>
<polygon fill="none" stroke="#000000" stroke-width="2" points="9,-39.2 9,-787.2 235,-787.2 235,-39.2 9,-39.2"/>
</a>
</g>
</g>
<!-- public.entite_geol&#45;&gt;s_fgeol -->
<g id="edge1" class="edge">
<title>public.entite_geol:w&#45;&gt;s_fgeol:e</title>
<path fill="none" stroke="#000000" d="M271.0156,-752.2C258.6771,-752.2 251.1667,-752.2 234,-752.2"/>
<polygon fill="#000000" stroke="#000000" points="277.5,-752.2001 285.5,-755.8 281.5,-752.2 285.5,-752.2 285.5,-752.2 285.5,-752.2 281.5,-752.2 285.5,-748.6 277.5,-752.2001 277.5,-752.2001"/>
<ellipse fill="none" stroke="#000000" cx="274.3" cy="-752.2001" rx="3.2" ry="3.2"/>
</g>
</g>
</svg>
