<?xml version="1.0" encoding="UTF-8" standalone="no"?>
<!DOCTYPE svg PUBLIC "-//W3C//DTD SVG 1.1//EN"
 "http://www.w3.org/Graphics/SVG/1.1/DTD/svg11.dtd">
<!-- Generated by graphviz version 2.40.1 (20161225.0304)
 -->
<!-- Title: compactRelationshipsDiagram Pages: 1 -->
<svg width="354pt" height="299pt"
 viewBox="0.00 0.00 354.00 299.20" xmlns="http://www.w3.org/2000/svg" xmlns:xlink="http://www.w3.org/1999/xlink">
<g id="graph0" class="graph" transform="scale(1 1) rotate(0) translate(4 295.2)">
<title>compactRelationshipsDiagram</title>
<polygon fill="#ffffff" stroke="transparent" points="-4,4 -4,-295.2 350,-295.2 350,4 -4,4"/>
<text text-anchor="middle" x="72.4936" y="-7.3" font-family="Helvetica,sans-Serif" font-size="11.00" fill="#000000">Generated by SchemaSpy</text>
<!-- echelle -->
<g id="node1" class="node">
<title>echelle</title>
<g id="a_node1"><a xlink:href="../../tables/echelle.html" xlink:title="echelle" target="_top">
<polygon fill="#ffffff" stroke="transparent" points="205.5,-38.2 205.5,-165.2 297.5,-165.2 297.5,-38.2 205.5,-38.2"/>
<polygon fill="#f5f5f5" stroke="transparent" points="205.5,-141.7 205.5,-164.7 297.5,-164.7 297.5,-141.7 205.5,-141.7"/>
<polygon fill="none" stroke="#000000" points="205.5,-141.7 205.5,-164.7 297.5,-164.7 297.5,-141.7 205.5,-141.7"/>
<text text-anchor="start" x="210.5" y="-150.8" font-family="Helvetica,sans-Serif" font-weight="bold" font-size="11.00" fill="#000000">echelle</text>
<text text-anchor="start" x="262.5437" y="-149.8" font-family="Helvetica,sans-Serif" font-size="11.00" fill="#000000">[table]</text>
<polygon fill="none" stroke="#000000" points="205.5,-119.7 205.5,-141.7 297.5,-141.7 297.5,-119.7 205.5,-119.7"/>
<image xlink:href="../../images/primaryKeys.png" width="11px" height="12px" preserveAspectRatio="xMinYMin meet" x="210.5" y="-136.7"/>
<text text-anchor="start" x="234.5" y="-126.8" font-family="Helvetica,sans-Serif" font-size="11.00" fill="#000000">id</text>
<polygon fill="#ffffff" stroke="transparent" points="205.5,-97.7 205.5,-119.7 297.5,-119.7 297.5,-97.7 205.5,-97.7"/>
<polygon fill="none" stroke="#000000" points="205.5,-97.7 205.5,-119.7 297.5,-119.7 297.5,-97.7 205.5,-97.7"/>
<text text-anchor="start" x="234.5" y="-104.8" font-family="Helvetica,sans-Serif" font-size="11.00" fill="#000000">label</text>
<polygon fill="#ffffff" stroke="transparent" points="205.5,-75.7 205.5,-97.7 297.5,-97.7 297.5,-75.7 205.5,-75.7"/>
<polygon fill="none" stroke="#000000" points="205.5,-75.7 205.5,-97.7 297.5,-97.7 297.5,-75.7 205.5,-75.7"/>
<image xlink:href="../../images/foreignKeys.png" width="11px" height="12px" preserveAspectRatio="xMinYMin meet" x="210.5" y="-92.7"/>
<text text-anchor="start" x="234.5" y="-82.8" font-family="Helvetica,sans-Serif" font-size="11.00" fill="#000000">parent_id</text>
<polygon fill="none" stroke="#000000" points="205.5,-56.7 205.5,-75.7 297.5,-75.7 297.5,-56.7 205.5,-56.7"/>
<text text-anchor="start" x="208.5" y="-62.8" font-family="Helvetica,sans-Serif" font-size="11.00" fill="#000000">...</text>
<polygon fill="#ffffff" stroke="transparent" points="205.5,-37.7 205.5,-56.7 226.5,-56.7 226.5,-37.7 205.5,-37.7"/>
<polygon fill="none" stroke="#000000" points="205.5,-37.7 205.5,-56.7 226.5,-56.7 226.5,-37.7 205.5,-37.7"/>
<text text-anchor="start" x="208.2027" y="-43.8" font-family="Helvetica,sans-Serif" font-size="11.00" fill="#000000">&lt; 1</text>
<polygon fill="#ffffff" stroke="transparent" points="226.5,-37.7 226.5,-56.7 276.5,-56.7 276.5,-37.7 226.5,-37.7"/>
<polygon fill="none" stroke="#000000" points="226.5,-37.7 226.5,-56.7 276.5,-56.7 276.5,-37.7 226.5,-37.7"/>
<text text-anchor="start" x="229.1904" y="-43.8" font-family="Helvetica,sans-Serif" font-size="11.00" fill="#000000">304 rows</text>
<polygon fill="#ffffff" stroke="transparent" points="276.5,-37.7 276.5,-56.7 297.5,-56.7 297.5,-37.7 276.5,-37.7"/>
<polygon fill="none" stroke="#000000" points="276.5,-37.7 276.5,-56.7 297.5,-56.7 297.5,-37.7 276.5,-37.7"/>
<text text-anchor="start" x="279.2027" y="-43.8" font-family="Helvetica,sans-Serif" font-size="11.00" fill="#000000">1 &gt;</text>
</a>
</g>
</g>
<!-- echelle&#45;&gt;echelle -->
<g id="edge1" class="edge">
<title>echelle:w&#45;&gt;echelle:e</title>
<path fill="none" stroke="#000000" d="M193.5584,-95.2589C159.3174,-125.8048 167.2188,-182.2 251.5,-182.2 344.5,-182.2 344.5,-157.5333 297.5,-130.7"/>
<polygon fill="#000000" stroke="#000000" points="198.9976,-91.3604 207.5972,-89.6261 202.2488,-89.0302 205.5,-86.7 205.5,-86.7 205.5,-86.7 202.2488,-89.0302 203.4028,-83.7739 198.9976,-91.3604 198.9976,-91.3604"/>
<ellipse fill="none" stroke="#000000" cx="196.3967" cy="-93.2246" rx="3.2" ry="3.2"/>
</g>
<!-- s_fgeol -->
<g id="node2" class="node">
<title>s_fgeol</title>
<g id="a_node2"><a xlink:href="../../tables/s_fgeol.html" xlink:title="s_fgeol" target="_top">
<polygon fill="#ffffff" stroke="transparent" points="8,-182.2 8,-287.2 116,-287.2 116,-182.2 8,-182.2"/>
<polygon fill="#f5f5f5" stroke="transparent" points="8,-263.7 8,-286.7 116,-286.7 116,-263.7 8,-263.7"/>
<polygon fill="none" stroke="#000000" points="8,-263.7 8,-286.7 116,-286.7 116,-263.7 8,-263.7"/>
<text text-anchor="start" x="13" y="-272.8" font-family="Helvetica,sans-Serif" font-weight="bold" font-size="11.00" fill="#000000">s_fgeol</text>
<text text-anchor="start" x="81.0437" y="-271.8" font-family="Helvetica,sans-Serif" font-size="11.00" fill="#000000">[table]</text>
<polygon fill="none" stroke="#000000" points="8,-241.7 8,-263.7 116,-263.7 116,-241.7 8,-241.7"/>
<image xlink:href="../../images/primaryKeys.png" width="11px" height="12px" preserveAspectRatio="xMinYMin meet" x="13" y="-258.7"/>
<text text-anchor="start" x="30" y="-248.8" font-family="Helvetica,sans-Serif" font-size="11.00" fill="#000000">ogc_fid</text>
<polygon fill="#ffffff" stroke="transparent" points="8,-219.7 8,-241.7 116,-241.7 116,-219.7 8,-219.7"/>
<polygon fill="none" stroke="#000000" points="8,-219.7 8,-241.7 116,-241.7 116,-219.7 8,-219.7"/>
<text text-anchor="start" x="30" y="-226.8" font-family="Helvetica,sans-Serif" font-size="11.00" fill="#000000">wkb_geometry</text>
<polygon fill="none" stroke="#000000" points="8,-200.7 8,-219.7 116,-219.7 116,-200.7 8,-200.7"/>
<text text-anchor="start" x="11" y="-206.8" font-family="Helvetica,sans-Serif" font-size="11.00" fill="#000000">...</text>
<polygon fill="#ffffff" stroke="transparent" points="8,-181.7 8,-200.7 20,-200.7 20,-181.7 8,-181.7"/>
<polygon fill="none" stroke="#000000" points="8,-181.7 8,-200.7 20,-200.7 20,-181.7 8,-181.7"/>
<text text-anchor="start" x="10.9431" y="-187.8" font-family="Helvetica,sans-Serif" font-size="11.00" fill="#000000"> &#160;</text>
<polygon fill="#ffffff" stroke="transparent" points="20,-181.7 20,-200.7 95,-200.7 95,-181.7 20,-181.7"/>
<polygon fill="none" stroke="#000000" points="20,-181.7 20,-200.7 95,-200.7 95,-181.7 20,-181.7"/>
<text text-anchor="start" x="22.6586" y="-187.8" font-family="Helvetica,sans-Serif" font-size="11.00" fill="#000000">993 840 rows</text>
<polygon fill="#ffffff" stroke="transparent" points="95,-181.7 95,-200.7 116,-200.7 116,-181.7 95,-181.7"/>
<polygon fill="none" stroke="#000000" points="95,-181.7 95,-200.7 116,-200.7 116,-181.7 95,-181.7"/>
<text text-anchor="start" x="97.7027" y="-187.8" font-family="Helvetica,sans-Serif" font-size="11.00" fill="#000000">1 &gt;</text>
</a>
</g>
</g>
<!-- public.entite_geol -->
<g id="node3" class="node">
<title>public.entite_geol</title>
<g id="a_node3"><a xlink:href="../../../public/tables/entite_geol.html" xlink:title="public.entite_geol" target="_top">
<polygon fill="#ffffff" stroke="transparent" points="165,-204.2 165,-287.2 338,-287.2 338,-204.2 165,-204.2"/>
<polygon fill="#f5f5f5" stroke="transparent" points="165.5,-263.7 165.5,-286.7 338.5,-286.7 338.5,-263.7 165.5,-263.7"/>
<polygon fill="none" stroke="#000000" points="165.5,-263.7 165.5,-286.7 338.5,-286.7 338.5,-263.7 165.5,-263.7"/>
<text text-anchor="start" x="170.5" y="-272.8" font-family="Helvetica,sans-Serif" font-weight="bold" font-size="11.00" fill="#000000">public.entite_geol</text>
<text text-anchor="start" x="303.5437" y="-271.8" font-family="Helvetica,sans-Serif" font-size="11.00" fill="#000000">[table]</text>
<polygon fill="none" stroke="#000000" points="165.5,-241.7 165.5,-263.7 338.5,-263.7 338.5,-241.7 165.5,-241.7"/>
<image xlink:href="../../images/foreignKeys.png" width="11px" height="12px" preserveAspectRatio="xMinYMin meet" x="170.5" y="-258.7"/>
<text text-anchor="start" x="185.5" y="-248.8" font-family="Helvetica,sans-Serif" font-size="11.00" fill="#000000">s_fgeol_id</text>
<polygon fill="none" stroke="#000000" points="165.5,-222.7 165.5,-241.7 338.5,-241.7 338.5,-222.7 165.5,-222.7"/>
<text text-anchor="start" x="168.5" y="-228.8" font-family="Helvetica,sans-Serif" font-size="11.00" fill="#000000">...</text>
<polygon fill="#ffffff" stroke="transparent" points="165.5,-203.7 165.5,-222.7 237.5,-222.7 237.5,-203.7 165.5,-203.7"/>
<polygon fill="none" stroke="#000000" points="165.5,-203.7 165.5,-222.7 237.5,-222.7 237.5,-203.7 165.5,-203.7"/>
<text text-anchor="start" x="168.5" y="-209.8" font-family="Helvetica,sans-Serif" font-size="11.00" fill="#000000">&lt; 1</text>
<polygon fill="#ffffff" stroke="transparent" points="237.5,-203.7 237.5,-222.7 300.5,-222.7 300.5,-203.7 237.5,-203.7"/>
<polygon fill="none" stroke="#000000" points="237.5,-203.7 237.5,-222.7 300.5,-222.7 300.5,-203.7 237.5,-203.7"/>
<text text-anchor="start" x="265.1105" y="-209.8" font-family="Helvetica,sans-Serif" font-size="11.00" fill="#000000">0 rows</text>
<polygon fill="#ffffff" stroke="transparent" points="300.5,-203.7 300.5,-222.7 338.5,-222.7 338.5,-203.7 300.5,-203.7"/>
<polygon fill="none" stroke="#000000" points="300.5,-203.7 300.5,-222.7 338.5,-222.7 338.5,-203.7 300.5,-203.7"/>
<text text-anchor="start" x="329.3862" y="-209.8" font-family="Helvetica,sans-Serif" font-size="11.00" fill="#000000"> &#160;</text>
</a>
</g>
</g>
<!-- public.entite_geol&#45;&gt;s_fgeol -->
<g id="edge2" class="edge">
<title>public.entite_geol:w&#45;&gt;s_fgeol:e</title>
<path fill="none" stroke="#000000" d="M150.8428,-252.7C139.4139,-252.7 132.1563,-252.7 116,-252.7"/>
<polygon fill="#000000" stroke="#000000" points="157.5,-252.7001 165.5,-256.3 161.5,-252.7 165.5,-252.7 165.5,-252.7 165.5,-252.7 161.5,-252.7 165.5,-249.1 157.5,-252.7001 157.5,-252.7001"/>
<ellipse fill="none" stroke="#000000" cx="154.3" cy="-252.7001" rx="3.2" ry="3.2"/>
</g>
</g>
</svg>
