<?xml version="1.0" encoding="UTF-8" standalone="no"?>
<!DOCTYPE svg PUBLIC "-//W3C//DTD SVG 1.1//EN"
 "http://www.w3.org/Graphics/SVG/1.1/DTD/svg11.dtd">
<!-- Generated by graphviz version 2.40.1 (20161225.0304)
 -->
<!-- Title: largeRelationshipsDiagram Pages: 1 -->
<svg width="354pt" height="1126pt"
 viewBox="0.00 0.00 354.00 1126.20" xmlns="http://www.w3.org/2000/svg" xmlns:xlink="http://www.w3.org/1999/xlink">
<g id="graph0" class="graph" transform="scale(1 1) rotate(0) translate(4 1122.2)">
<title>largeRelationshipsDiagram</title>
<polygon fill="#ffffff" stroke="transparent" points="-4,4 -4,-1122.2 350,-1122.2 350,4 -4,4"/>
<text text-anchor="middle" x="72.4936" y="-7.3" font-family="Helvetica,sans-Serif" font-size="11.00" fill="#000000">Generated by SchemaSpy</text>
<!-- echelle -->
<g id="node1" class="node">
<title>echelle</title>
<g id="a_node1"><a xlink:href="../../tables/echelle.html" xlink:title="echelle" target="_top">
<polygon fill="#ffffff" stroke="transparent" points="205.5,-463.2 205.5,-681.2 297.5,-681.2 297.5,-463.2 205.5,-463.2"/>
<polygon fill="#f5f5f5" stroke="transparent" points="205.5,-658.2 205.5,-681.2 297.5,-681.2 297.5,-658.2 205.5,-658.2"/>
<polygon fill="none" stroke="#000000" points="205.5,-658.2 205.5,-681.2 297.5,-681.2 297.5,-658.2 205.5,-658.2"/>
<text text-anchor="start" x="210.5" y="-667.3" font-family="Helvetica,sans-Serif" font-weight="bold" font-size="11.00" fill="#000000">echelle</text>
<text text-anchor="start" x="262.5437" y="-666.3" font-family="Helvetica,sans-Serif" font-size="11.00" fill="#000000">[table]</text>
<polygon fill="none" stroke="#000000" points="205.5,-636.2 205.5,-658.2 297.5,-658.2 297.5,-636.2 205.5,-636.2"/>
<image xlink:href="../../images/primaryKeys.png" width="11px" height="12px" preserveAspectRatio="xMinYMin meet" x="210.5" y="-653.2"/>
<text text-anchor="start" x="234.5" y="-643.3" font-family="Helvetica,sans-Serif" font-size="11.00" fill="#000000">id</text>
<polygon fill="#ffffff" stroke="transparent" points="205.5,-614.2 205.5,-636.2 297.5,-636.2 297.5,-614.2 205.5,-614.2"/>
<polygon fill="none" stroke="#000000" points="205.5,-614.2 205.5,-636.2 297.5,-636.2 297.5,-614.2 205.5,-614.2"/>
<text text-anchor="start" x="234.5" y="-621.3" font-family="Helvetica,sans-Serif" font-size="11.00" fill="#000000">label</text>
<polygon fill="none" stroke="#000000" points="205.5,-592.2 205.5,-614.2 297.5,-614.2 297.5,-592.2 205.5,-592.2"/>
<text text-anchor="start" x="234.5" y="-599.3" font-family="Helvetica,sans-Serif" font-size="11.00" fill="#000000">parent</text>
<polygon fill="#ffffff" stroke="transparent" points="205.5,-570.2 205.5,-592.2 297.5,-592.2 297.5,-570.2 205.5,-570.2"/>
<polygon fill="none" stroke="#000000" points="205.5,-570.2 205.5,-592.2 297.5,-592.2 297.5,-570.2 205.5,-570.2"/>
<image xlink:href="../../images/foreignKeys.png" width="11px" height="12px" preserveAspectRatio="xMinYMin meet" x="210.5" y="-587.2"/>
<text text-anchor="start" x="234.5" y="-577.3" font-family="Helvetica,sans-Serif" font-size="11.00" fill="#000000">parent_id</text>
<polygon fill="none" stroke="#000000" points="205.5,-548.2 205.5,-570.2 297.5,-570.2 297.5,-548.2 205.5,-548.2"/>
<text text-anchor="start" x="234.5" y="-555.3" font-family="Helvetica,sans-Serif" font-size="11.00" fill="#000000">age_deb</text>
<polygon fill="none" stroke="#000000" points="205.5,-526.2 205.5,-548.2 297.5,-548.2 297.5,-526.2 205.5,-526.2"/>
<text text-anchor="start" x="234.5" y="-533.3" font-family="Helvetica,sans-Serif" font-size="11.00" fill="#000000">age_fin</text>
<polygon fill="none" stroke="#000000" points="205.5,-504.2 205.5,-526.2 297.5,-526.2 297.5,-504.2 205.5,-504.2"/>
<text text-anchor="start" x="234.5" y="-511.3" font-family="Helvetica,sans-Serif" font-size="11.00" fill="#000000">pix_min</text>
<polygon fill="none" stroke="#000000" points="205.5,-482.2 205.5,-504.2 297.5,-504.2 297.5,-482.2 205.5,-482.2"/>
<text text-anchor="start" x="234.5" y="-489.3" font-family="Helvetica,sans-Serif" font-size="11.00" fill="#000000">pix_max</text>
<polygon fill="#ffffff" stroke="transparent" points="205.5,-463.2 205.5,-482.2 226.5,-482.2 226.5,-463.2 205.5,-463.2"/>
<polygon fill="none" stroke="#000000" points="205.5,-463.2 205.5,-482.2 226.5,-482.2 226.5,-463.2 205.5,-463.2"/>
<text text-anchor="start" x="208.2027" y="-469.3" font-family="Helvetica,sans-Serif" font-size="11.00" fill="#000000">&lt; 1</text>
<polygon fill="#ffffff" stroke="transparent" points="226.5,-463.2 226.5,-482.2 276.5,-482.2 276.5,-463.2 226.5,-463.2"/>
<polygon fill="none" stroke="#000000" points="226.5,-463.2 226.5,-482.2 276.5,-482.2 276.5,-463.2 226.5,-463.2"/>
<text text-anchor="start" x="229.1904" y="-469.3" font-family="Helvetica,sans-Serif" font-size="11.00" fill="#000000">304 rows</text>
<polygon fill="#ffffff" stroke="transparent" points="276.5,-463.2 276.5,-482.2 297.5,-482.2 297.5,-463.2 276.5,-463.2"/>
<polygon fill="none" stroke="#000000" points="276.5,-463.2 276.5,-482.2 297.5,-482.2 297.5,-463.2 276.5,-463.2"/>
<text text-anchor="start" x="279.2027" y="-469.3" font-family="Helvetica,sans-Serif" font-size="11.00" fill="#000000">1 &gt;</text>
</a>
</g>
</g>
<!-- echelle&#45;&gt;echelle -->
<g id="edge1" class="edge">
<title>echelle:w&#45;&gt;echelle:e</title>
<path fill="none" stroke="#000000" d="M195.3669,-591.5965C159.0676,-634.461 165.7656,-698.2 251.5,-698.2 344.5,-698.2 344.5,-689.2 297.5,-647.2"/>
<polygon fill="#000000" stroke="#000000" points="199.9162,-586.929 208.078,-583.7127 202.7081,-584.0645 205.5,-581.2 205.5,-581.2 205.5,-581.2 202.7081,-584.0645 202.922,-578.6873 199.9162,-586.929 199.9162,-586.929"/>
<ellipse fill="none" stroke="#000000" cx="197.6826" cy="-589.2206" rx="3.2" ry="3.2"/>
</g>
<!-- s_fgeol -->
<g id="node2" class="node">
<title>s_fgeol</title>
<g id="a_node2"><a xlink:href="../../tables/s_fgeol.html" xlink:title="s_fgeol" target="_top">
<polygon fill="#ffffff" stroke="transparent" points="8,-38.2 8,-784.2 116,-784.2 116,-38.2 8,-38.2"/>
<polygon fill="#f5f5f5" stroke="transparent" points="8,-761.2 8,-784.2 116,-784.2 116,-761.2 8,-761.2"/>
<polygon fill="none" stroke="#000000" points="8,-761.2 8,-784.2 116,-784.2 116,-761.2 8,-761.2"/>
<text text-anchor="start" x="13" y="-770.3" font-family="Helvetica,sans-Serif" font-weight="bold" font-size="11.00" fill="#000000">s_fgeol</text>
<text text-anchor="start" x="81.0437" y="-769.3" font-family="Helvetica,sans-Serif" font-size="11.00" fill="#000000">[table]</text>
<polygon fill="none" stroke="#000000" points="8,-739.2 8,-761.2 116,-761.2 116,-739.2 8,-739.2"/>
<image xlink:href="../../images/primaryKeys.png" width="11px" height="12px" preserveAspectRatio="xMinYMin meet" x="13" y="-756.2"/>
<text text-anchor="start" x="30" y="-746.3" font-family="Helvetica,sans-Serif" font-size="11.00" fill="#000000">ogc_fid</text>
<polygon fill="none" stroke="#000000" points="8,-717.2 8,-739.2 116,-739.2 116,-717.2 8,-717.2"/>
<text text-anchor="start" x="30" y="-724.3" font-family="Helvetica,sans-Serif" font-size="11.00" fill="#000000">mi_prinx</text>
<polygon fill="none" stroke="#000000" points="8,-695.2 8,-717.2 116,-717.2 116,-695.2 8,-695.2"/>
<text text-anchor="start" x="30" y="-702.3" font-family="Helvetica,sans-Serif" font-size="11.00" fill="#000000">code</text>
<polygon fill="none" stroke="#000000" points="8,-673.2 8,-695.2 116,-695.2 116,-673.2 8,-673.2"/>
<text text-anchor="start" x="30" y="-680.3" font-family="Helvetica,sans-Serif" font-size="11.00" fill="#000000">code_leg</text>
<polygon fill="none" stroke="#000000" points="8,-651.2 8,-673.2 116,-673.2 116,-651.2 8,-651.2"/>
<text text-anchor="start" x="30" y="-658.3" font-family="Helvetica,sans-Serif" font-size="11.00" fill="#000000">notation</text>
<polygon fill="none" stroke="#000000" points="8,-629.2 8,-651.2 116,-651.2 116,-629.2 8,-629.2"/>
<text text-anchor="start" x="30" y="-636.3" font-family="Helvetica,sans-Serif" font-size="11.00" fill="#000000">descr</text>
<polygon fill="none" stroke="#000000" points="8,-607.2 8,-629.2 116,-629.2 116,-607.2 8,-607.2"/>
<text text-anchor="start" x="30" y="-614.3" font-family="Helvetica,sans-Serif" font-size="11.00" fill="#000000">type_geol</text>
<polygon fill="none" stroke="#000000" points="8,-585.2 8,-607.2 116,-607.2 116,-585.2 8,-585.2"/>
<text text-anchor="start" x="30" y="-592.3" font-family="Helvetica,sans-Serif" font-size="11.00" fill="#000000">ap_locale</text>
<polygon fill="none" stroke="#000000" points="8,-563.2 8,-585.2 116,-585.2 116,-563.2 8,-563.2"/>
<text text-anchor="start" x="30" y="-570.3" font-family="Helvetica,sans-Serif" font-size="11.00" fill="#000000">type_ap</text>
<polygon fill="none" stroke="#000000" points="8,-541.2 8,-563.2 116,-563.2 116,-541.2 8,-541.2"/>
<text text-anchor="start" x="30" y="-548.3" font-family="Helvetica,sans-Serif" font-size="11.00" fill="#000000">geol_nat</text>
<polygon fill="none" stroke="#000000" points="8,-519.2 8,-541.2 116,-541.2 116,-519.2 8,-519.2"/>
<text text-anchor="start" x="30" y="-526.3" font-family="Helvetica,sans-Serif" font-size="11.00" fill="#000000">isopique</text>
<polygon fill="none" stroke="#000000" points="8,-497.2 8,-519.2 116,-519.2 116,-497.2 8,-497.2"/>
<text text-anchor="start" x="30" y="-504.3" font-family="Helvetica,sans-Serif" font-size="11.00" fill="#000000">lithotec</text>
<polygon fill="none" stroke="#000000" points="8,-475.2 8,-497.2 116,-497.2 116,-475.2 8,-475.2"/>
<text text-anchor="start" x="30" y="-482.3" font-family="Helvetica,sans-Serif" font-size="11.00" fill="#000000">emerge</text>
<polygon fill="none" stroke="#000000" points="8,-453.2 8,-475.2 116,-475.2 116,-453.2 8,-453.2"/>
<text text-anchor="start" x="30" y="-460.3" font-family="Helvetica,sans-Serif" font-size="11.00" fill="#000000">sys_deb</text>
<polygon fill="none" stroke="#000000" points="8,-431.2 8,-453.2 116,-453.2 116,-431.2 8,-431.2"/>
<text text-anchor="start" x="30" y="-438.3" font-family="Helvetica,sans-Serif" font-size="11.00" fill="#000000">sys_fin</text>
<polygon fill="none" stroke="#000000" points="8,-409.2 8,-431.2 116,-431.2 116,-409.2 8,-409.2"/>
<text text-anchor="start" x="30" y="-416.3" font-family="Helvetica,sans-Serif" font-size="11.00" fill="#000000">age_min</text>
<polygon fill="none" stroke="#000000" points="8,-387.2 8,-409.2 116,-409.2 116,-387.2 8,-387.2"/>
<text text-anchor="start" x="30" y="-394.3" font-family="Helvetica,sans-Serif" font-size="11.00" fill="#000000">age_max</text>
<polygon fill="none" stroke="#000000" points="8,-365.2 8,-387.2 116,-387.2 116,-365.2 8,-365.2"/>
<text text-anchor="start" x="30" y="-372.3" font-family="Helvetica,sans-Serif" font-size="11.00" fill="#000000">age_absolu</text>
<polygon fill="none" stroke="#000000" points="8,-343.2 8,-365.2 116,-365.2 116,-343.2 8,-343.2"/>
<text text-anchor="start" x="30" y="-350.3" font-family="Helvetica,sans-Serif" font-size="11.00" fill="#000000">toler_age</text>
<polygon fill="none" stroke="#000000" points="8,-321.2 8,-343.2 116,-343.2 116,-321.2 8,-321.2"/>
<text text-anchor="start" x="30" y="-328.3" font-family="Helvetica,sans-Serif" font-size="11.00" fill="#000000">tech_dat</text>
<polygon fill="none" stroke="#000000" points="8,-299.2 8,-321.2 116,-321.2 116,-299.2 8,-299.2"/>
<text text-anchor="start" x="30" y="-306.3" font-family="Helvetica,sans-Serif" font-size="11.00" fill="#000000">cat_dat</text>
<polygon fill="none" stroke="#000000" points="8,-277.2 8,-299.2 116,-299.2 116,-277.2 8,-277.2"/>
<text text-anchor="start" x="30" y="-284.3" font-family="Helvetica,sans-Serif" font-size="11.00" fill="#000000">age_com</text>
<polygon fill="none" stroke="#000000" points="8,-255.2 8,-277.2 116,-277.2 116,-255.2 8,-255.2"/>
<text text-anchor="start" x="30" y="-262.3" font-family="Helvetica,sans-Serif" font-size="11.00" fill="#000000">lithologie</text>
<polygon fill="none" stroke="#000000" points="8,-233.2 8,-255.2 116,-255.2 116,-233.2 8,-233.2"/>
<text text-anchor="start" x="30" y="-240.3" font-family="Helvetica,sans-Serif" font-size="11.00" fill="#000000">durete</text>
<polygon fill="none" stroke="#000000" points="8,-211.2 8,-233.2 116,-233.2 116,-211.2 8,-211.2"/>
<text text-anchor="start" x="30" y="-218.3" font-family="Helvetica,sans-Serif" font-size="11.00" fill="#000000">epaisseur</text>
<polygon fill="none" stroke="#000000" points="8,-189.2 8,-211.2 116,-211.2 116,-189.2 8,-189.2"/>
<text text-anchor="start" x="30" y="-196.3" font-family="Helvetica,sans-Serif" font-size="11.00" fill="#000000">environmt</text>
<polygon fill="none" stroke="#000000" points="8,-167.2 8,-189.2 116,-189.2 116,-167.2 8,-167.2"/>
<text text-anchor="start" x="30" y="-174.3" font-family="Helvetica,sans-Serif" font-size="11.00" fill="#000000">c_geodyn</text>
<polygon fill="none" stroke="#000000" points="8,-145.2 8,-167.2 116,-167.2 116,-145.2 8,-145.2"/>
<text text-anchor="start" x="30" y="-152.3" font-family="Helvetica,sans-Serif" font-size="11.00" fill="#000000">geochimie</text>
<polygon fill="none" stroke="#000000" points="8,-123.2 8,-145.2 116,-145.2 116,-123.2 8,-123.2"/>
<text text-anchor="start" x="30" y="-130.3" font-family="Helvetica,sans-Serif" font-size="11.00" fill="#000000">litho_com</text>
<polygon fill="#ffffff" stroke="transparent" points="8,-101.2 8,-123.2 116,-123.2 116,-101.2 8,-101.2"/>
<polygon fill="none" stroke="#000000" points="8,-101.2 8,-123.2 116,-123.2 116,-101.2 8,-101.2"/>
<text text-anchor="start" x="30" y="-108.3" font-family="Helvetica,sans-Serif" font-size="11.00" fill="#000000">wkb_geometry</text>
<polygon fill="none" stroke="#000000" points="8,-79.2 8,-101.2 116,-101.2 116,-79.2 8,-79.2"/>
<text text-anchor="start" x="30" y="-86.3" font-family="Helvetica,sans-Serif" font-size="11.00" fill="#000000">age_deb_id</text>
<polygon fill="none" stroke="#000000" points="8,-57.2 8,-79.2 116,-79.2 116,-57.2 8,-57.2"/>
<text text-anchor="start" x="30" y="-64.3" font-family="Helvetica,sans-Serif" font-size="11.00" fill="#000000">age_fin_id</text>
<polygon fill="#ffffff" stroke="transparent" points="8,-38.2 8,-57.2 20,-57.2 20,-38.2 8,-38.2"/>
<polygon fill="none" stroke="#000000" points="8,-38.2 8,-57.2 20,-57.2 20,-38.2 8,-38.2"/>
<text text-anchor="start" x="10.9431" y="-44.3" font-family="Helvetica,sans-Serif" font-size="11.00" fill="#000000"> &#160;</text>
<polygon fill="#ffffff" stroke="transparent" points="20,-38.2 20,-57.2 95,-57.2 95,-38.2 20,-38.2"/>
<polygon fill="none" stroke="#000000" points="20,-38.2 20,-57.2 95,-57.2 95,-38.2 20,-38.2"/>
<text text-anchor="start" x="22.6586" y="-44.3" font-family="Helvetica,sans-Serif" font-size="11.00" fill="#000000">993 840 rows</text>
<polygon fill="#ffffff" stroke="transparent" points="95,-38.2 95,-57.2 116,-57.2 116,-38.2 95,-38.2"/>
<polygon fill="none" stroke="#000000" points="95,-38.2 95,-57.2 116,-57.2 116,-38.2 95,-38.2"/>
<text text-anchor="start" x="97.7027" y="-44.3" font-family="Helvetica,sans-Serif" font-size="11.00" fill="#000000">1 &gt;</text>
</a>
</g>
</g>
<!-- public.entite_geol -->
<g id="node3" class="node">
<title>public.entite_geol</title>
<g id="a_node3"><a xlink:href="../../../public/tables/entite_geol.html" xlink:title="public.entite_geol" target="_top">
<polygon fill="#ffffff" stroke="transparent" points="165,-720.2 165,-1114.2 338,-1114.2 338,-720.2 165,-720.2"/>
<polygon fill="#f5f5f5" stroke="transparent" points="165.5,-1091.2 165.5,-1114.2 338.5,-1114.2 338.5,-1091.2 165.5,-1091.2"/>
<polygon fill="none" stroke="#000000" points="165.5,-1091.2 165.5,-1114.2 338.5,-1114.2 338.5,-1091.2 165.5,-1091.2"/>
<text text-anchor="start" x="170.5" y="-1100.3" font-family="Helvetica,sans-Serif" font-weight="bold" font-size="11.00" fill="#000000">public.entite_geol</text>
<text text-anchor="start" x="303.5437" y="-1099.3" font-family="Helvetica,sans-Serif" font-size="11.00" fill="#000000">[table]</text>
<polygon fill="none" stroke="#000000" points="165.5,-1069.2 165.5,-1091.2 338.5,-1091.2 338.5,-1069.2 165.5,-1069.2"/>
<text text-anchor="start" x="185.5" y="-1076.3" font-family="Helvetica,sans-Serif" font-size="11.00" fill="#000000">id</text>
<polygon fill="none" stroke="#000000" points="165.5,-1047.2 165.5,-1069.2 338.5,-1069.2 338.5,-1047.2 165.5,-1047.2"/>
<text text-anchor="start" x="185.5" y="-1054.3" font-family="Helvetica,sans-Serif" font-size="11.00" fill="#000000">intitule</text>
<polygon fill="none" stroke="#000000" points="165.5,-1025.2 165.5,-1047.2 338.5,-1047.2 338.5,-1025.2 165.5,-1025.2"/>
<text text-anchor="start" x="185.5" y="-1032.3" font-family="Helvetica,sans-Serif" font-size="11.00" fill="#000000">code</text>
<polygon fill="none" stroke="#000000" points="165.5,-1003.2 165.5,-1025.2 338.5,-1025.2 338.5,-1003.2 165.5,-1003.2"/>
<text text-anchor="start" x="185.5" y="-1010.3" font-family="Helvetica,sans-Serif" font-size="11.00" fill="#000000">quantite_affleurements</text>
<polygon fill="none" stroke="#000000" points="165.5,-981.2 165.5,-1003.2 338.5,-1003.2 338.5,-981.2 165.5,-981.2"/>
<text text-anchor="start" x="185.5" y="-988.3" font-family="Helvetica,sans-Serif" font-size="11.00" fill="#000000">affleurements_accessibles</text>
<polygon fill="none" stroke="#000000" points="165.5,-959.2 165.5,-981.2 338.5,-981.2 338.5,-959.2 165.5,-959.2"/>
<text text-anchor="start" x="185.5" y="-966.3" font-family="Helvetica,sans-Serif" font-size="11.00" fill="#000000">permeabilite</text>
<polygon fill="none" stroke="#000000" points="165.5,-937.2 165.5,-959.2 338.5,-959.2 338.5,-937.2 165.5,-937.2"/>
<text text-anchor="start" x="185.5" y="-944.3" font-family="Helvetica,sans-Serif" font-size="11.00" fill="#000000">presence_aquifere</text>
<polygon fill="none" stroke="#000000" points="165.5,-915.2 165.5,-937.2 338.5,-937.2 338.5,-915.2 165.5,-915.2"/>
<text text-anchor="start" x="185.5" y="-922.3" font-family="Helvetica,sans-Serif" font-size="11.00" fill="#000000">niveau_sources</text>
<polygon fill="none" stroke="#000000" points="165.5,-893.2 165.5,-915.2 338.5,-915.2 338.5,-893.2 165.5,-893.2"/>
<text text-anchor="start" x="185.5" y="-900.3" font-family="Helvetica,sans-Serif" font-size="11.00" fill="#000000">complements</text>
<polygon fill="none" stroke="#000000" points="165.5,-871.2 165.5,-893.2 338.5,-893.2 338.5,-871.2 165.5,-871.2"/>
<text text-anchor="start" x="185.5" y="-878.3" font-family="Helvetica,sans-Serif" font-size="11.00" fill="#000000">geom</text>
<polygon fill="none" stroke="#000000" points="165.5,-849.2 165.5,-871.2 338.5,-871.2 338.5,-849.2 165.5,-849.2"/>
<text text-anchor="start" x="185.5" y="-856.3" font-family="Helvetica,sans-Serif" font-size="11.00" fill="#000000">ere_geol_id</text>
<polygon fill="none" stroke="#000000" points="165.5,-827.2 165.5,-849.2 338.5,-849.2 338.5,-827.2 165.5,-827.2"/>
<text text-anchor="start" x="185.5" y="-834.3" font-family="Helvetica,sans-Serif" font-size="11.00" fill="#000000">site_id</text>
<polygon fill="none" stroke="#000000" points="165.5,-805.2 165.5,-827.2 338.5,-827.2 338.5,-805.2 165.5,-805.2"/>
<text text-anchor="start" x="185.5" y="-812.3" font-family="Helvetica,sans-Serif" font-size="11.00" fill="#000000">last_modified</text>
<polygon fill="none" stroke="#000000" points="165.5,-783.2 165.5,-805.2 338.5,-805.2 338.5,-783.2 165.5,-783.2"/>
<text text-anchor="start" x="185.5" y="-790.3" font-family="Helvetica,sans-Serif" font-size="11.00" fill="#000000">modified_by_userid</text>
<polygon fill="none" stroke="#000000" points="165.5,-761.2 165.5,-783.2 338.5,-783.2 338.5,-761.2 165.5,-761.2"/>
<text text-anchor="start" x="185.5" y="-768.3" font-family="Helvetica,sans-Serif" font-size="11.00" fill="#000000">nom_carte</text>
<polygon fill="none" stroke="#000000" points="165.5,-739.2 165.5,-761.2 338.5,-761.2 338.5,-739.2 165.5,-739.2"/>
<image xlink:href="../../images/foreignKeys.png" width="11px" height="12px" preserveAspectRatio="xMinYMin meet" x="170.5" y="-756.2"/>
<text text-anchor="start" x="185.5" y="-746.3" font-family="Helvetica,sans-Serif" font-size="11.00" fill="#000000">s_fgeol_id</text>
<polygon fill="#ffffff" stroke="transparent" points="165.5,-720.2 165.5,-739.2 237.5,-739.2 237.5,-720.2 165.5,-720.2"/>
<polygon fill="none" stroke="#000000" points="165.5,-720.2 165.5,-739.2 237.5,-739.2 237.5,-720.2 165.5,-720.2"/>
<text text-anchor="start" x="168.5" y="-726.3" font-family="Helvetica,sans-Serif" font-size="11.00" fill="#000000">&lt; 1</text>
<polygon fill="#ffffff" stroke="transparent" points="237.5,-720.2 237.5,-739.2 300.5,-739.2 300.5,-720.2 237.5,-720.2"/>
<polygon fill="none" stroke="#000000" points="237.5,-720.2 237.5,-739.2 300.5,-739.2 300.5,-720.2 237.5,-720.2"/>
<text text-anchor="start" x="265.1105" y="-726.3" font-family="Helvetica,sans-Serif" font-size="11.00" fill="#000000">0 rows</text>
<polygon fill="#ffffff" stroke="transparent" points="300.5,-720.2 300.5,-739.2 338.5,-739.2 338.5,-720.2 300.5,-720.2"/>
<polygon fill="none" stroke="#000000" points="300.5,-720.2 300.5,-739.2 338.5,-739.2 338.5,-720.2 300.5,-720.2"/>
<text text-anchor="start" x="329.3862" y="-726.3" font-family="Helvetica,sans-Serif" font-size="11.00" fill="#000000"> &#160;</text>
</a>
</g>
</g>
<!-- public.entite_geol&#45;&gt;s_fgeol -->
<g id="edge2" class="edge">
<title>public.entite_geol:w&#45;&gt;s_fgeol:e</title>
<path fill="none" stroke="#000000" d="M150.8428,-750.2C139.4139,-750.2 132.1563,-750.2 116,-750.2"/>
<polygon fill="#000000" stroke="#000000" points="157.5,-750.2001 165.5,-753.8 161.5,-750.2 165.5,-750.2 165.5,-750.2 165.5,-750.2 161.5,-750.2 165.5,-746.6 157.5,-750.2001 157.5,-750.2001"/>
<ellipse fill="none" stroke="#000000" cx="154.3" cy="-750.2001" rx="3.2" ry="3.2"/>
</g>
</g>
</svg>
